<?xml version="1.0" encoding="utf-8"?>
<!-- Generator: Adobe Illustrator 25.4.1, SVG Export Plug-In . SVG Version: 6.00 Build 0)  -->
<svg version="1.1" id="goatgrass" xmlns="http://www.w3.org/2000/svg" xmlns:xlink="http://www.w3.org/1999/xlink" x="0px" y="0px"
	 viewBox="0 0 32 32" style="enable-background:new 0 0 32 32;" xml:space="preserve">
<path d="M12.1,10.7L12.1,10.7c0,0.2-0.1,0.2,0,0.4c0,0.1,0.1,0.2,0.1,0.3s0.1,0.2,0.1,0.3c0,0.2,0,0.5,0,0.7c0,0.3,0.1,0.7,0.1,1
	c0.1,0.2,0,0.4,0.1,0.7v0.1l0,0c0,0.1,0,0.2,0,0.3s0,0.2,0,0.2l0,0c0,0.1,0,0.2,0,0.3c0.1,0,0.1-0.2,0.1-0.2
	c0.1-0.1,0.1-0.2,0.1-0.3c0,0,0,0,0-0.1c0,0,0,0,0,0.1c0,0.3-0.1,0.5-0.2,0.7c-0.1,0.2-0.2,0.3-0.1,0.5c0,0.1,0,0.2,0.1,0.2
	c0,0.1,0,0.2,0,0.3c0,0.3-0.1,0.6-0.1,0.9c0,0.1,0,0.2,0,0.2c0,0.1,0,0.1,0,0.2s0,0.2,0.1,0.3c0,0.1,0,0.2,0,0.3
	c0,0.1,0,0.1,0.1,0.1v0.1c0,0.1,0,0.1,0,0.2l0,0l0,0c0-0.1,0-0.2,0-0.2l0,0l0,0c0,0.3,0,0.5-0.1,0.7c0,0.1-0.1,0.2,0,0.3v0.1
	c0,0.2,0,0.3,0,0.5c-0.1,0.6,0,1.2,0,1.7l0,0c0,0-0.1,0.1,0,0.1c0,0,0,0.1,0,0.2s0,0.1,0.1,0c0,0,0,0,0,0.1s-0.1,0.3-0.1,0.4
	s-0.1,0.2-0.1,0.3c0,0.2,0,0.4,0,0.6c0,0.1,0,0.2,0,0.3c-0.1,0.1,0,0.2-0.1,0.3l0,0c0,0.2-0.1,0.4-0.1,0.6c0,0.1,0,0.2,0,0.3
	c0,0.1,0,0.2,0,0.3l0,0c0,0.2,0.1,0.4,0.1,0.6c0,0.1,0,0.3-0.1,0.4c0,0,0,0.1-0.1,0.2c0,0.1,0,0.1,0,0.2c0,0-0.1,0.1,0,0.2
	c0,0.1-0.1,0.2,0,0.3l0,0l0,0c0-0.1,0-0.1-0.1-0.2l0,0l0,0c0,0.1,0,0.2,0.1,0.4c0,0.1,0.1,0.1,0,0.1S12,27.4,12,27.5
	c0,0.2,0,0.3,0,0.5v0.1c0,0.5,0.1,1.1,0.1,1.6c0,0.1,0.1,0.2,0.1,0.3c0,0.1,0,0.2,0,0.3c0,0.1,0,0.2,0,0.2s0,0-0.1,0
	c0,0-0.1,0-0.1-0.1s0-0.1-0.1-0.2v-0.1v0.1c0,0.1,0.1,0.1,0,0.2l0,0l0,0c-0.1-0.2-0.1-0.3-0.2-0.5c-0.1-0.2-0.1-0.4-0.2-0.6
	c-0.1-0.2-0.1-0.3-0.2-0.5c0-0.1-0.1-0.3-0.1-0.4s-0.1-0.3-0.1-0.4S11,27.7,11,27.6s0-0.2-0.1-0.3c-0.1-0.2-0.1-0.3-0.1-0.5
	s-0.1-0.5-0.2-0.7c-0.1-0.2-0.1-0.3-0.2-0.5c-0.1-0.3-0.1-0.5-0.2-0.8c-0.1-0.2-0.1-0.4-0.1-0.5c-0.1-0.2-0.1-0.5-0.2-0.7
	c-0.1-0.2-0.1-0.3-0.1-0.5c0-0.1,0-0.2-0.1-0.2c0-0.2-0.1-0.3-0.1-0.5c0-0.3-0.1-0.7-0.2-1c-0.1-0.2-0.1-0.4-0.2-0.7
	c0-0.1-0.1-0.2-0.1-0.3v-0.1c0.1,0,0,0,0,0.1c0.1,0.2,0.2,0.4,0.3,0.7c0.1,0.1,0.1,0.3,0.1,0.4c0,0.3,0.1,0.5,0.2,0.7
	c0.2,0.4,0.3,0.8,0.4,1.3l0,0c0.1,0.2,0.1,0.3,0.2,0.5c0,0.2,0.1,0.3,0.2,0.5c0,0.1,0.1,0.1,0.1,0.2v0.1c0,0,0,0-0.1-0.1
	c0,0,0,0-0.1,0l0,0c0.1,0.1,0.1,0.3,0.1,0.4c0.1,0.1,0,0.2,0,0.3c0,0,0,0,0,0.1c0,0,0,0,0-0.1l0,0v0.1c0,0,0,0,0.1,0.1v-0.1
	c0-0.1,0-0.1-0.1-0.2c0-0.1,0-0.1,0-0.2l0,0l0,0c0.1,0.3,0.2,0.6,0.3,0.9c0.1,0.2,0.2,0.5,0.2,0.7c0,0.1,0.1,0.3,0.1,0.4
	c0.1,0.1,0,0.3,0.1,0.4c0,0.2,0.1,0.3,0.1,0.5s0.1,0.3,0.1,0.5l0,0l0,0c0-0.2,0-0.4,0-0.6c0-0.1,0-0.2,0-0.4c0-0.2,0-0.3-0.1-0.5
	v-0.1c0-0.1,0-0.2,0-0.2c0-0.6,0-1.2-0.1-1.8c0-0.1,0-0.2-0.1-0.3c0-0.1,0.1-0.1,0-0.2c0-0.1-0.1-0.2,0-0.2l0,0
	C11,24.1,11,23.9,11,23.8v-0.1c0-0.1,0-0.1,0-0.2c0,0.1,0.1,0.2,0.1,0.2v0.1l0,0l0,0c0-0.1,0.1-0.3,0.1-0.4s0-0.1,0-0.2s0-0.1,0-0.2
	s-0.1-0.3,0-0.4v-0.1c-0.1-0.2,0-0.5,0-0.7c0-0.1,0-0.2,0-0.2v-0.1c0.1-0.1,0-0.3,0.1-0.5c0,0,0,0,0-0.1c0-0.2-0.2-0.3-0.2-0.5
	c0,0-0.1-0.1,0-0.1v-0.1l0.1,0.1c0,0.1,0,0.2,0.1,0.3l0,0l0,0c0-0.1,0-0.1,0-0.1c-0.1-0.1,0-0.3,0-0.4s0-0.1,0-0.2v-0.1
	c0,0,0,0,0-0.1c0-0.2,0.1-0.5,0.1-0.7c0-0.1,0-0.2,0-0.2v-0.1c0-0.3,0-0.5-0.1-0.8v-0.1v-0.1l0,0c0-0.1,0-0.3,0-0.4
	c-0.1-0.1-0.1-0.2-0.2-0.3c0,0,0,0,0-0.1s0-0.1,0-0.2l0.1,0.1c0,0.1,0,0.2,0.1,0.2l0,0l0,0c-0.1-0.1,0-0.2,0-0.3c0-0.1,0-0.2,0-0.2
	c0-0.4,0.1-0.7,0.1-1.1c0-0.1,0.1-0.2,0-0.3c-0.1-0.3,0-0.6,0-0.8c0-0.3,0-0.6,0-0.9c0-0.1,0.1-0.1,0-0.2c0,0,0-0.1,0-0.2
	c0-0.1,0-0.1,0-0.2c0-0.1,0-0.1,0-0.1c-0.1-0.1-0.1-0.1-0.1-0.3s-0.1-0.3-0.1-0.4v-0.1l0,0l0,0c0,0,0,0.1,0.1,0.1
	c0,0.2,0.2,0.4,0.3,0.6l0,0l0,0l0,0c-0.1-0.2-0.1-0.3-0.1-0.5s0-0.4,0-0.6v-0.1c0-0.3,0.1-0.6,0.1-0.9c0-0.2,0.1-0.4,0-0.6
	c0-0.1,0-0.2,0-0.4s0-0.4,0.1-0.7c0-0.1,0-0.2,0-0.3s0-0.2,0-0.4c0-0.1-0.1-0.2-0.1-0.3c0-0.2-0.1-0.4-0.2-0.7
	c-0.1-0.2-0.1-0.4-0.2-0.6C11.1,6.2,11,5.9,11,5.7c0,0.1,0,0,0-0.1c-0.1-0.2-0.1-0.4-0.2-0.6c0-0.3-0.2-0.5-0.2-0.8
	c-0.1-0.2-0.2-0.5-0.3-0.7S10.2,3.2,10.1,3c0,0,0,0,0-0.1l0,0c0.1,0.2,0.2,0.5,0.3,0.7s0.1,0.5,0.2,0.7c0.1,0.2,0.1,0.5,0.3,0.7
	c0,0.1,0.1,0.2,0.1,0.3v0.1v0.1h0.1c0,0.1,0.1,0.2,0.1,0.3v0.1c0,0,0,0,0.1,0l0,0c0,0.2,0.1,0.3,0.1,0.5s0.1,0.3,0.1,0.4
	c0.1,0.2,0.1,0.4,0.2,0.6v0.1c0,0.1,0,0.1,0.1,0.2c0.1,0,0-0.1,0-0.2c0-0.2,0-0.3,0-0.5c0-0.1,0-0.3,0-0.4s0-0.2,0-0.4
	c0,0,0-0.1,0-0.2c0-0.6,0-1.1,0-1.7c0-0.1,0-0.2,0-0.2V4V3.9c-0.1-0.2,0-0.4,0-0.6c0-0.1,0-0.3,0-0.4c0,0,0,0,0-0.1c0,0,0,0,0.1,0.1
	l0,0c0,0.7,0.1,1.3,0.1,2c0.1,0.5,0,1,0.1,1.4c0,0.2,0,0.4,0.1,0.6c0,0.2,0,0.4,0,0.6c0,0.1,0.1,0.1,0,0.2c0.1,0.1,0,0.2,0,0.3
	s0,0.2,0,0.3l0,0l0,0c0-0.2,0-0.3,0.1-0.5s0-0.5,0.1-0.7c0-0.2,0.1-0.5,0.1-0.7c0.1-0.3,0.1-0.7,0.2-1c0-0.1,0-0.3,0.1-0.4
	c0-0.1,0-0.2,0-0.3c0-0.1,0-0.2,0.1-0.3l0,0c0-0.2,0-0.4,0.1-0.6c0-0.2,0-0.4,0-0.6l0,0l0,0c0,0.2,0.1,0.4,0,0.6c0,0,0,0,0,0.1
	c0,0.2,0,0.4,0,0.6c0,0.3,0,0.5-0.1,0.8c0,0.2,0,0.5-0.1,0.7c0,0.1,0,0.3-0.1,0.4c0,0.2-0.1,0.4-0.1,0.6l0,0c0,0.2,0,0.4,0,0.6
	c0,0,0,0,0,0.1c0,0,0,0,0-0.1c0.1-0.5,0.2-0.9,0.4-1.4V6.1V6v0.1c0,0.1-0.1,0.2-0.1,0.3c-0.1,0.2-0.1,0.4-0.2,0.6
	c0,0.3-0.2,0.5-0.2,0.8c0,0.2-0.1,0.4-0.1,0.5l0,0c0,0.2,0,0.3-0.1,0.5c0,0.2,0,0.3,0.1,0.4c0,0.2,0.1,0.5,0,0.6
	c0,0.1,0,0.2-0.1,0.3c0,0.1,0,0.3,0,0.4v0.1C12,10.7,12.1,10.7,12.1,10.7C12.1,10.6,12.1,10.6,12.1,10.7z M11.5,1.8L11.5,1.8
	c0-0.1,0-0.2,0-0.2V1.5C11.5,1.6,11.5,1.6,11.5,1.8c0,0,0.1,0.1,0.1,0.2l0,0l0,0c0,0,0-0.1,0,0.5c0,0.1,0,0.2,0,0.3v0.1
	c0,0,0,0,0.1,0l0,0c0-0.1,0-0.2,0-0.4c0-0.1,0-0.3,0-0.4c0,0,0,0,0-0.1c0,0,0,0,0,0.1C11.5,2.2,11.5,2.3,11.5,1.8z M13.4,4.1
	C13.4,4,13.4,4,13.4,4.1c0-0.1,0-0.1,0-0.2C13.3,4,13.3,4,13.4,4.1C13.3,4.1,13.3,4.1,13.4,4.1c-0.1,0.1-0.1,0.2-0.1,0.3l0,0l0,0
	C13.3,4.3,13.4,4.2,13.4,4.1z M13.1,4.9C13.1,4.9,13,4.9,13.1,4.9C13,5.1,13,5.2,13,5.3l0,0l0,0V5.2C13,5.1,13.1,5,13.1,4.9
	C13.1,5,13.1,4.9,13.1,4.9z M12.1,20C12.1,20,12,20,12.1,20C12,20.1,12,20.2,12,20.2c0,0.1,0,0.1-0.1,0c0,0-0.1-0.1-0.1,0v0.1
	c0,0.2,0,0.3,0,0.5v0.1l0,0l0,0c0-0.1,0-0.2,0-0.2l0,0l0,0c0,0.2,0,0.3,0,0.5c0,0.1,0,0.1,0.1,0.1s0.1,0,0.1-0.1s-0.1-0.2,0.1-0.3
	v-0.3C12.2,20.3,12.1,20.2,12.1,20c0.1,0,0-0.1,0.1-0.1c0.1-0.1,0-0.1,0-0.1h-0.1c0,0,0,0.1-0.1,0.1C12,19.9,12,19.9,12.1,20
	C12,19.9,12.1,19.9,12.1,20C12.1,19.9,12.1,20,12.1,20z M12,22.4c0-0.2-0.1-0.3-0.1-0.5l-0.1-0.1c-0.1,0-0.2,0.2-0.1,0.3
	c0.1,0.1,0,0.2,0,0.2c0,0.2,0,0.4,0,0.6c0,0,0,0.1,0.1,0.1s0.1,0,0.2-0.1h-0.1l0,0l0.1-0.1c0,0,0,0.1,0.1,0
	C11.9,22.6,11.9,22.5,12,22.4z M12.1,14.7L12.1,14.7c0-0.1,0-0.2,0-0.3S12,14.1,12,14c0,0,0,0,0-0.1c0,0,0,0,0,0.1c0,0,0,0,0,0.1
	c0,0,0,0,0-0.1c0,0,0,0,0-0.1c-0.1,0-0.1,0-0.1-0.1l0,0c0,0.1-0.1,0.2,0,0.4c0,0.2,0,0.5,0,0.7l0,0l0,0c0-0.1,0-0.2,0.1-0.4
	c0-0.1,0-0.2,0-0.2c0,0.1,0,0.1,0,0.2c0,0.1,0,0.1,0,0.2l0,0l0,0v-0.1c0-0.1,0-0.1,0-0.2C12.1,14.5,12.1,14.6,12.1,14.7
	c0,0.1-0.1,0.2,0,0.2l0,0l0,0C12.1,14.8,12.1,14.7,12.1,14.7z M12.2,19c0-0.2-0.1-0.3-0.1-0.5c0-0.1-0.1-0.3-0.1-0.4l0,0l0,0v0.1
	c0,0.1,0.1,0.1,0,0.2c0,0,0,0-0.1,0l0,0v0.1c0,0,0,0,0,0.1l0,0c0,0,0,0,0-0.1v-0.1v0.1c0,0.1,0,0.2,0.1,0.3v0.1
	c-0.1,0.1,0.1,0.2,0,0.3l0,0l0,0c0-0.1,0.1-0.1,0.1-0.2c0,0,0-0.1,0.1-0.1C12.1,18.9,12.1,19,12.2,19C12.1,19,12.1,19.1,12.2,19
	C12.1,19.1,12.1,19.1,12.2,19C12.2,19.1,12.2,19.1,12.2,19C12.2,19.1,12.2,19,12.2,19z M11.7,24.2L11.7,24.2c0,0.1,0,0.1,0,0.1
	C11.8,24.3,11.8,24.2,11.7,24.2C11.8,24.2,11.8,24.2,11.7,24.2C11.8,24.2,11.8,24.2,11.7,24.2c0.1,0.2,0.1,0.3,0.1,0.4l0,0l0,0
	c0,0,0,0,0-0.1s0-0.2,0-0.3c0.1,0.1,0,0.2,0,0.3v0.1c0,0,0,0.1,0.1,0.1c0,0,0,0,0.1,0c0,0,0.1,0,0-0.1c0,0-0.1,0-0.1-0.1
	s0-0.3,0.1-0.4c0-0.1,0-0.2,0.1-0.3c0,0,0.1-0.1,0-0.2s0-0.1,0-0.2l0,0l0,0c0,0.1,0,0.1,0,0.2v0.1c-0.1,0-0.1,0.1-0.2,0.1
	c-0.1,0-0.2,0.1-0.2,0.2C11.8,24,11.7,24.1,11.7,24.2z M12.1,16.4L12.1,16.4C12,16.4,12,16.4,12.1,16.4c0-0.1-0.1-0.1-0.1-0.2
	c0,0.1,0,0.1,0,0.2c0,0,0,0,0,0.1s0,0.2,0,0.2c-0.1-0.1,0-0.2,0-0.3l0,0l0,0c0,0.1,0,0.2,0,0.3c0,0.2,0,0.3,0,0.5c0,0,0,0,0,0.1h0.1
	c0-0.1,0-0.2,0-0.3v-0.1V17c0,0.1,0,0.2,0,0.2v0.1c0,0,0,0,0-0.1s0-0.1,0-0.2s0-0.2,0-0.2c-0.1-0.1,0-0.1,0-0.2
	C12.1,16.6,12.1,16.6,12.1,16.4c0,0.1,0,0.1,0,0.2s0,0.1,0,0.2l0,0l0,0c0-0.1,0-0.2,0-0.2S12.1,16.5,12.1,16.4L12.1,16.4 M11.7,25.6
	c0,0.1,0,0.2,0,0.3c0,0,0,0,0,0.1h0.1c0,0,0,0.1,0.1,0.1l0,0c0-0.1,0-0.1,0-0.2c0,0,0-0.1,0.1,0c0,0,0,0,0,0.1l0,0
	c0-0.2,0-0.3-0.1-0.5l0,0c0,0,0,0,0,0.1c0,0,0,0,0,0.1c0,0,0.1,0,0,0.1c0,0,0,0-0.1-0.1v-0.1c0,0,0-0.1-0.1-0.1S11.7,25.6,11.7,25.6
	C11.7,25.4,11.7,25.5,11.7,25.6z M12,11.8c0-0.1,0-0.1,0-0.2c0,0,0,0,0-0.1c0,0,0,0,0,0.1C12,11.7,12,11.7,12,11.8L12,11.8
	c-0.1,0-0.1,0-0.1,0c-0.1-0.1-0.1-0.2-0.1-0.3l0,0l0,0v0.1c0,0.1,0,0.1,0,0.2c0,0.1,0.1-0.1,0.1,0c0,0.2,0,0.3,0,0.5l0,0
	c0,0.1,0.2,0.1,0.2,0.1c0.1,0,0-0.1,0-0.2c0-0.1,0-0.1,0-0.2c-0.1,0.1,0,0.1,0,0.2v0.1L12,12.2C12,12.1,12,12,12,11.8
	C12,12,12,11.9,12,11.8z M11.9,9L11.9,9c-0.1,0.1-0.1,0.2-0.2,0.3v0.1c0.1,0,0,0.1,0,0.2c0,0.1,0,0.1,0,0.2l0,0l0,0
	c0-0.1,0-0.2,0-0.2l0,0l0,0c0,0,0,0,0,0.1c0,0,0,0,0-0.1s-0.1-0.2,0-0.3C12,9.1,12,9.1,11.9,9C12,9,12,9,11.9,9z M11.8,19.6h-0.1
	c-0.1,0-0.1,0-0.1,0.1v0.1c0,0.1,0,0.2,0.1,0.3l0,0l0,0c0,0,0,0,0-0.1C11.7,19.8,11.7,19.7,11.8,19.6L11.8,19.6L11.8,19.6
	C11.9,19.6,11.9,19.6,11.8,19.6z M11.6,26.5L11.6,26.5C11.7,26.5,11.7,26.5,11.6,26.5c0.1,0,0.1,0,0.1,0h0.1c0-0.1,0.1-0.1,0.2-0.2
	l0,0c0,0,0,0-0.1,0s-0.1,0.1-0.2,0.1C11.6,26.3,11.6,26.4,11.6,26.5z M12.2,13.5L12.2,13.5c-0.1-0.1-0.1-0.1-0.1-0.2
	c0-0.1,0-0.1,0-0.2c-0.1,0.1,0,0.2,0,0.2c-0.1,0.1-0.1,0.1,0,0.2c0,0,0.1,0.1,0.1,0.2C12.2,13.7,12.2,13.6,12.2,13.5L12.2,13.5
	L12.2,13.5z M11.9,10.1C11.8,10.1,11.8,10.1,11.9,10.1c0,0.2-0.1,0.2-0.1,0.3v0.1h0.1v-0.1c0-0.1,0-0.1,0-0.2c0-0.1,0.1,0,0.1,0
	C12,10.2,12,10.1,11.9,10.1z M11.9,21.7c0-0.1-0.2-0.2-0.2-0.2s0,0-0.1,0.1c0,0,0,0,0.1,0S11.7,21.7,11.9,21.7
	C11.8,21.7,11.8,21.7,11.9,21.7C11.8,21.7,11.9,21.7,11.9,21.7z M11.6,14.6c0,0.1,0,0.2,0,0.4C11.7,14.8,11.7,14.7,11.6,14.6
	c0.1-0.1,0.1-0.2,0-0.3C11.6,14.4,11.6,14.5,11.6,14.6z M11.8,10.9c0,0.1,0,0.1,0,0.2C11.8,11,11.8,10.9,11.8,10.9
	c0.1-0.1,0.1-0.1,0.1-0.2l0,0l0,0C11.8,10.7,11.8,10.8,11.8,10.9z M12,16c0.1,0,0.1-0.1,0.2-0.1l0,0l0,0c-0.1,0.1-0.1,0.1-0.2,0l0,0
	C11.9,15.9,11.9,15.9,12,16C11.9,16,11.9,16,12,16z M12.2,10.5C12.2,10.4,12.2,10.4,12.2,10.5c0.1,0,0.2-0.1,0.1-0.2
	c0-0.1-0.1-0.2,0-0.3c0,0,0,0,0-0.1h-0.1C12.3,10.1,12.2,10.2,12.2,10.5C12.1,10.5,12.1,10.5,12.2,10.5z M11.5,2.8L11.5,2.8
	c0,0.1,0,0.1,0.1,0.1C11.6,2.9,11.6,2.9,11.5,2.8c0.1,0,0.1-0.2,0.1-0.3s0-0.3,0-0.4c0,0,0,0,0-0.1c0,0,0,0,0,0.1c0,0.1,0,0.3,0,0.4
	C11.5,2.5,11.5,2.7,11.5,2.8z M12,10.7C12,10.7,12.1,10.7,12,10.7c0.1-0.1,0.1-0.1,0.1,0c0.1-0.1,0.1-0.1,0.1-0.2c0,0,0-0.1-0.1,0
	s0,0-0.1,0C12,10.5,12,10.6,12,10.7z M13.4,4L13.4,4C13.3,4,13.3,4,13.4,4c-0.1,0.1-0.1,0.1-0.1,0.2s0,0.1-0.1,0.2l0,0l0,0
	c0-0.1,0.1-0.2,0.1-0.3C13.4,4,13.4,4,13.4,4z M11.5,1.8c0-0.1,0-0.1-0.1-0.2V1.5c0,0.1,0,0.1,0,0.2s0.1,0.2,0.1,0.3l0,0l0,0
	C11.5,1.9,11.5,1.9,11.5,1.8L11.5,1.8z M13,4.9c0,0.1-0.1,0.2-0.1,0.4l0,0l0,0V5.2C13,5.1,13.1,5,13,4.9C13.1,5,13.1,4.9,13,4.9
	C13.1,4.9,13,4.9,13,4.9z M11.7,14.9c0-0.1,0-0.2,0-0.3s0-0.2,0-0.3c0,0.1,0,0.2,0,0.3S11.6,14.8,11.7,14.9z"/>
<path d="M20.4,30.6c0-0.2,0.4-2.3,0.5-3.1v-0.1c0-0.1,0-0.1,0.1-0.4c0,0,0.1-0.1,0-0.2c0-0.1,0-0.3,0-0.4s0-0.3,0.1-0.4
	c0-0.1,0.1-0.3,0.1-0.4s0,0,0.1-0.4c0-0.2,0.1-0.2,0.1-0.6c0-0.1,0,0,0-0.4c0-0.2-0.1-0.4,0-0.8l0,0c0,0.1,0,0,0,0.2
	c0,0.1,0,0.2,0.1,0.3l0,0l0,0c0-0.1,0-0.2,0.1-0.7c0-0.1,0-0.1,0-0.4v-0.1c0,0,0,0,0-0.1v-0.1v-0.1c0,0,0-0.1,0-0.4
	c0-0.1-0.1-0.1,0-0.6l0,0l0,0v0.1l0,0c0,0,0,0,0,0.1l0,0l0,0l0,0v-0.1c0-0.1,0.1-0.1,0.1-0.4c0-0.1,0-0.1,0-0.3c0-0.1,0,0,0-0.2l0,0
	c0-0.1,0-0.2-0.1-0.5c0-0.1,0-0.2,0.1-0.6c0.1,0.1,0,0.2,0,0.7l0,0l0,0c0-0.2,0-0.9,0.2-1.7l0,0c-0.1,0,0,0,0-0.1l0,0
	c0-0.1,0-0.3,0-0.8c0,0,0,0,0-0.1l0,0c0,0.1,0,0.1,0,0.2l0,0l0,0c0-0.1,0,0,0-0.3c0.1-0.1,0,0.2,0,0.4c0,0,0,0,0,0.1
	c0.2-0.3,0-0.5,0.1-1.2l0,0v-0.1c0.1-0.2,0-0.1,0.1-0.4c0,0,0,0,0-0.2c0-0.2,0-0.3-0.3-1c0.2,0.2,0.2,0.3,0.3,0.9l0,0l0,0v-0.1
	c0,0,0,0,0-0.1c0.1-0.1,0-0.2,0.1-0.5c0-0.2-0.1-0.5,0-1.2c0-0.2,0-0.1,0-0.5l0,0c0-0.1,0-0.1,0-0.3c0,0,0,0,0-0.1c0,0,0,0,0,0.2
	l0,0l0,0c0-0.2,0-0.4,0-0.7c0-0.1,0-0.1,0-0.7c0,0,0,0,0-0.1l0,0c0,0.2,0,0.1,0,0.6c0,0.1,0,0.2,0,0.5s0,0.3,0,1c0-0.1,0-0.2,0-0.2
	c0-0.3,0-0.5,0.2-1c0-0.1,0-0.1,0-0.2l0,0l0,0c0,0,0,0,0,0.1c0,0,0,0,0,0.2c0.1-0.1-0.1-0.1,0.1-0.5l0,0c0,0.1,0,0-0.1,0.3
	c0,0,0,0,0,0.1c0,0,0,0,0-0.1l0,0c0-0.1,0.1-0.1,0.1-0.4c0-0.1,0-0.2,0-0.3s0-0.3-0.2-0.9c-0.2-0.2-0.2-0.4-0.4-0.8l0,0
	c-0.2-0.3-0.5-0.6-0.8-1.2C21,8.9,21,8.9,21,8.6l0,0l0,0c0,0.2,0,0.1,0.1,0.4l0.1,0.1L22,9c0,0.1,0.1,0.1,0.3,0.4
	c0,0.1,0.1,0.1,0.2,0.2c0.1,0.1,0.5,0.6,0.6,1.1c0.1,0.2,0.1,0.5,0.2,1.1c0.1-0.2,0.1-0.2,0.2-0.8c0.1-0.3,0.2-0.8,0.5-1.3
	c0.1-0.4,0.4-0.9,0.6-1.6c0.1-0.2,0.3-0.8,0.4-1.3c0,0,0.1-0.4,0.1-0.2c-0.1,0.3-0.3,0.9-0.4,1.5l0,0c-0.1,0.4-0.1,0.4-0.3,1.1
	c-0.2,0.7-0.6,1.3-0.8,2.3l0,0l0,0c0.1-0.1,0,0,0.2-0.3c0.2-0.2,0.2-0.5,0.6-1c-0.2,0.3,0,0.1-0.4,0.7c-0.1,0.1-0.2,0.4-0.3,0.8l0,0
	c0.1-0.1,0.2-0.2,0.3-0.3l0,0c0,0,0-0.1,0.2-0.2l0,0c0,0,0,0,0-0.1c0.1-0.1,0.2-0.2,0.5-0.5l0,0l0,0c-0.1,0.2-0.1,0.3-0.6,0.7
	c-0.1,0.1,0,0-0.3,0.3c-0.1,0.1-0.2,0.2-0.3,0.3c-0.1,0.1,0,0.2-0.2,0.8c0,0.2,0,0.4-0.2,0.8c0,0.1,0,0.2,0,0.3l0,0
	c0.1,0,0.1,0.1,0.1,0.3c0,0.1,0,0.3,0,0.6c0,0,0,0,0,0.1c0.1-0.2,0.1-0.5,0.1-1l0,0c0.1,0.1,0.1,0.5-0.1,0.9c0,0.1,0,0.1-0.2,0.3
	c0,0.1,0,0.1,0,0.4c0,0.1,0,0.1,0,0.3c-0.1,0.2-0.2,0.4-0.2,0.9c0.1-0.3,0.4-1.1,0.1,0c0,0.1-0.1,0.1-0.1,0.4c0,0,0,0,0,0.2
	c0,0,0,0,0,0.2c0,0.1,0,0.2,0,0.3l0,0c0,0.1,0,0,0,0.1c-0.1,0.2-0.2,0.5-0.2,0.9c0,0,0,0,0,0.1v0.1l0,0l0,0v-0.1c0,0,0-0.2,0.1-0.4
	l0,0c0,0.3-0.2,0.5-0.2,0.9c-0.1,0.2,0,0.1-0.1,0.6c0,0.1,0,0.1-0.1,0.2c0,0.2,0.1,0.2,0,0.6c0,0,0,0,0.1-0.1l0,0l0,0c0,0,0,0,0-0.1
	l0,0l0,0c0,0.1,0,0.1,0,0.2s-0.1,0.2-0.1,0.5s0.1,0.2-0.2,0.8c0,0.1,0,0-0.1,0.3c0,0.2,0.1,0.3-0.1,0.7c0.1,0,0-0.1,0.1-0.1
	c0.1-0.2,0.1-0.1,0.1-0.5l0,0l0,0c0,0.1,0,0,0,0.3c0-0.1,0-0.1,0.1-0.1c0,0.1,0,0.2-0.1,0.2C22,23,22,23.1,21.9,23.6l0,0
	c-0.1,0.1,0,0-0.2,0.4c0,0.1,0,0.1,0,0.4l0,0c0,0.2-0.2,0.4-0.3,0.8l0,0c-0.3,0.9-0.1,0.6-0.4,2.2l0,0c0,0.1-0.5,2.8-0.5,3.1
	L20.4,30.6z M22.4,21.2c0,0.6-0.1,0.6-0.1,0.8l0,0l0,0c0-0.1,0.1-0.2,0.1-0.3C22.5,21.2,22.4,21.3,22.4,21.2c0-0.1-0.1-0.1-0.1-0.1
	c-0.1,0.1-0.1,0.1-0.1,0.1c-0.1,0.1-0.1,0.1-0.2,0.2c-0.1,0.3,0,0.3,0,0.4v0.1V22c0.2,0.1,0.2,0.1,0.3,0.1l0,0
	C22.3,21.6,22.4,21.3,22.4,21.2z M23.1,15.1L23.1,15.1C23,15.1,23,15,23,15c-0.4,0.3-0.3,1.1-0.1,1c-0.1-0.1,0-0.1,0-0.2
	C23.1,15.4,23,15.2,23.1,15.1z M22.9,13.9c0.2,0.4,0.1,0.3,0.1,0.5l0,0c-0.1,0.2-0.1,0.2-0.1,0.3c0,0,0,0,0,0.1
	c0.2-0.4,0.1-0.7,0.1-0.8S23,13.9,22.9,13.9L22.9,13.9c0-0.1-0.1-0.1-0.1-0.1l0,0l0,0c0.1,0.2,0,0.2,0,0.3s0,0.2,0,0.3
	c0,0.3,0,0.2,0,0.3C23.2,14.4,22.9,14.1,22.9,13.9C22.9,14,22.9,13.9,22.9,13.9z M22.2,23.1c-0.1,0-0.1,0-0.2,0l0,0
	c0.1,0,0,0.1,0,0.1c-0.2,0.3-0.1,0.3-0.2,0.4v0.1v0.1l0,0l0,0c0,0.1,0.1,0,0.1,0C22.1,23.6,22.1,23.2,22.2,23.1z M22.5,18.1l0.1-0.4
	l0,0l0,0C22.6,18,22.6,18,22.5,18.1c0.2-0.2,0.2-0.2,0.2-0.3c0.1-0.3,0-0.3,0.1-0.4c0-0.1,0-0.1,0-0.1l0,0c-0.1-0.1-0.1,0.1-0.2,0
	c-0.1,0.1-0.1,0.1-0.2,0.2l0,0l0,0C22.4,17.9,22.4,18,22.5,18.1C22.4,18,22.5,18,22.5,18.1c-0.1-0.4,0.1-0.6,0.2-0.8
	c0,0.1,0,0.1,0,0.1C22.5,18.1,22.4,17.9,22.5,18.1z M22.6,19.3c-0.1,0.1-0.1,0.2-0.2,0.3c0,0.4-0.1,0.3,0,0.4
	c0.1-0.5,0.1-0.4,0.1-0.6c0,0.1,0,0.1,0,0.2l0,0c0,0.1-0.1,0.2-0.1,0.4C22.6,19.6,22.7,19.2,22.6,19.3
	C22.5,19.2,22.5,19.2,22.6,19.3C22.5,19.2,22.5,19.3,22.6,19.3c-0.3,0.3-0.4,0.7-0.2,0.8l0,0l0,0C22.2,19.8,22.5,19.4,22.6,19.3
	C22.5,19.3,22.5,19.3,22.6,19.3z M23.1,12.6C22.9,12.6,23,12.6,23.1,12.6C23,12.7,23,12.7,23,12.7c-0.1,0.3-0.1,0.6-0.1,0.7l0,0l0,0
	c0-0.6,0.1-0.5,0.1-0.7c-0.2,0.5-0.1,0.7,0,0.9c0,0,0,0,0.1,0C23.3,13.1,23,12.8,23.1,12.6z M22.4,16.6c0-0.2,0-0.1,0-0.1
	c0,0.3,0,0.2,0,0.3c0,0.1,0,0.2,0,0.3c0,0,0,0,0,0.1c0,0,0,0,0,0.1c0.1-0.5,0-0.6,0-0.9l0,0c0.1,0.5,0,0.5,0,0.7c0,0.1,0,0.1,0,0.1
	l0,0c0.2-0.2,0.1-0.3,0.1-0.4c0-0.2-0.1-0.4-0.1-0.4c-0.1-0.2,0-0.1-0.1-0.2c0,0,0,0-0.1,0C22.4,16.5,22.4,16.5,22.4,16.6z M21.9,23
	L21.9,23c0.2-0.3,0.2-0.3,0.2-0.3c0-0.2,0-0.2,0-0.3c0,0,0-0.1-0.1-0.1c-0.1-0.2-0.1-0.1-0.1-0.2l0,0l0,0v0.1l0,0c0,0,0,0,0,0.1
	c0,0.4,0,0.5-0.1,0.6c0,0,0,0,0,0.1C21.8,23,21.8,23,21.9,23z M22,21.1h0.1c0.3-0.3,0.1-0.6,0.1-0.6c-0.1-0.2-0.1-0.2-0.1-0.2H22
	l0,0l0,0c0.1,0.2,0,0.2,0.1,0.2c0-0.1,0-0.1,0-0.2l0,0l0,0c0,0.2,0,0.2,0,0.3C22.1,21.1,22.1,20.9,22,21.1z M21.5,23.9
	c0,0.5,0.1,0.5,0.1,0.8c0-0.4-0.1-0.6-0.1-0.6l0,0c0,0.1,0,0.1,0.1,0.2c0.1,0.3,0,0.3,0,0.4v0.1v0.1c0.1-0.4,0.1-0.6,0-0.7
	C21.6,24.1,21.6,24,21.5,23.9L21.5,23.9z M22.9,15c0.1-0.1,0.1-0.1,0.2-0.2c0.1-0.4,0.1-0.2,0.1-0.5s-0.1-0.3,0-0.4
	c-0.1,0.2-0.1,0.2-0.1,0.3C23.1,14.8,23.1,14.7,22.9,15C23,15,23,15,22.9,15z M22.6,18.6c-0.1,0.4-0.2,0.6-0.3,0.7l0,0l0,0
	c0.3-0.2,0.3-0.4,0.3-0.6s0-0.2,0-0.3c0-0.1,0-0.1-0.1-0.2h-0.1l0,0l0,0C22.7,18.4,22.5,18.6,22.6,18.6L22.6,18.6z M22.6,16.1
	c0,0.3,0.1,0.3,0.1,0.3c0.1,0.3,0,0.4,0,0.5s0,0.1,0,0.2l0,0c0.2-0.3,0-0.6,0-0.7C22.6,16.1,22.6,16.2,22.6,16.1z M22.3,19.1
	c0.4-0.3,0.2-0.6,0.1-0.8l0,0C22.4,18.8,22.4,18.9,22.3,19.1z M22.3,19c0.2-0.4,0.1-0.4,0.1-0.6s0-0.1-0.1-0.2c0,0.2,0,0.4,0,0.5
	C22.3,18.9,22.3,19,22.3,19z M22.8,15.2c-0.3,0.3-0.2,0.4-0.2,0.5c0.1,0.2,0,0.2,0.1,0.3l0,0l0,0C22.5,15.6,22.8,15.3,22.8,15.2z"/>
<path d="M6.3,30.6c0-0.2-0.3-7.5-0.3-8.3v-0.1c0-0.1,0-0.1,0-0.4c0,0,0-0.1,0-0.2s0-0.3-0.1-0.4c0-0.1-0.1-0.3,0-0.4
	c0-0.1,0-0.3,0-0.4s0,0,0-0.4c0-0.2,0.1-0.2-0.1-0.6c0-0.1,0,0-0.1-0.4c0-0.2-0.2-0.4-0.2-0.8l0,0c0.1,0.1,0,0,0.1,0.2
	c0,0.1,0.1,0.2,0.1,0.3l0,0l0,0c-0.1-0.1,0-0.2-0.1-0.7c0,0-0.1-0.1-0.1-0.4v-0.1c0,0,0,0,0-0.1v-0.1v-0.1c0-0.1,0-0.1,0-0.4
	c0-0.1-0.1-0.1-0.1-0.6l0,0l0,0v0.1l0,0c0,0,0,0,0,0.1l0,0l0,0l0,0v-0.1c0-0.1,0-0.1,0-0.4c0-0.1,0-0.1-0.1-0.3c0-0.1,0,0,0-0.2l0,0
	c0-0.1-0.1-0.2-0.2-0.5c0-0.1,0-0.2-0.1-0.6c0.1,0.1,0,0.2,0.2,0.6l0,0l0,0C5.2,14.7,5,14,5,13.2l0,0c-0.1,0,0,0,0-0.1l0,0
	c0-0.3,0-0.5-0.1-1.1c0,0,0,0,0-0.1l0,0c0,0.1,0,0.1,0,0.2l0,0l0,0c0-0.1,0,0,0-0.3C5,11.7,5,12,5,12.2c0,0,0,0,0,0.1
	c0.1-0.4-0.1-0.5-0.2-1.2l0,0V11c0-0.2,0-0.1,0-0.4c0,0,0,0-0.1-0.2s0-0.3-0.5-0.9c0.2,0.2,0.3,0.3,0.5,0.8l0,0l0,0v-0.1
	c0,0,0,0,0-0.1s0-0.2,0-0.5c0.1-0.2,0-0.5-0.1-1.1c-0.1-0.2,0-0.1-0.1-0.4l0,0c0-0.1,0-0.1-0.1-0.3c0,0,0,0,0-0.1c0.1,0,0,0,0.1,0.2
	l0,0l0,0c0-0.2-0.1-0.4-0.2-0.7c0-0.1,0-0.1-0.2-0.7c0,0,0,0,0-0.1l0,0c0,0.2,0.1,0.1,0.2,0.6c0,0.1,0,0.2,0.1,0.5
	c0,0.3,0,0.3,0.3,0.9c0-0.1,0-0.2,0-0.2C4.6,8,4.6,7.7,4.6,7.2c0-0.1,0-0.1-0.1-0.2l0,0l0,0c0,0,0,0,0,0.1c0,0,0,0,0.1,0.2
	c0-0.1-0.1-0.1,0-0.6l0,0c0,0.1,0,0.1,0,0.4c0,0,0,0.1,0,0c0,0,0,0,0-0.1l0,0c0-0.1,0.1-0.1,0-0.4c0-0.1-0.1-0.2-0.1-0.3
	c0-0.3,0-0.4-0.3-0.9C4,5.2,3.9,5,3.6,4.7l0,0C3.3,4.5,2.9,4.2,2.5,3.8c-0.1-0.1-0.1,0-0.2-0.4l0,0l0,0c0,0.1,0,0.1,0.2,0.3l0.1,0.1
	l0.2,0.3c0.1,0.1,0.1,0,0.4,0.3c0.1,0.1,0.2,0.1,0.2,0.2c0.1,0.1,0.6,0.5,0.9,1c0.1,0.2,0.2,0.5,0.4,1c0-0.2,0-0.2,0-0.8
	c0-0.3,0-0.8,0.2-1.4C5,4,5.1,3.4,5.1,2.7c0-0.3,0.1-0.8,0.1-1.4c0,0,0-0.4,0.1-0.3c0,0.3-0.1,0.9-0.1,1.5l0,0c0,0.4,0,0.4-0.1,1.2
	S4.8,5.2,4.8,6.2l0,0l0,0c0.1-0.1,0,0,0.1-0.4C5,5.7,5,5.3,5.3,4.8c-0.1,0.3,0,0.1-0.2,0.8C5,5.7,5,6,4.9,6.5l0,0
	C5,6.3,5.1,6.2,5.2,6.1l0,0c0,0,0-0.1,0.2-0.2l0,0c0,0,0,0,0-0.1c0.1-0.1,0.2-0.2,0.3-0.6l0,0l0,0C5.6,5.4,5.7,5.5,5.3,6
	c-0.1,0.2,0,0-0.2,0.4c0,0-0.1,0.1-0.2,0.2C4.9,6.8,5,6.8,5,7.4c0,0.2,0,0.4,0,0.8c0,0.1,0.1,0.2,0.1,0.3l0,0c0.1,0,0.1,0.1,0.1,0.2
	c0,0.1,0.1,0.3,0.1,0.5c0,0,0,0,0,0.1c0.1-0.2,0-0.5-0.1-1l0,0c0.1,0.1,0.2,0.4,0.2,0.9c0,0.1,0,0.1-0.1,0.3c0,0.1,0.1,0.1,0.1,0.4
	c0,0,0,0.1,0.1,0.3c0,0.2-0.1,0.4,0,0.9c0.1-0.3,0.2-1.1,0.1,0c0,0.1,0,0.1,0,0.4c0,0,0,0,0.1,0.2c0,0,0,0,0,0.2
	c0,0.1,0,0.2,0.1,0.2l0,0c0,0.1,0,0,0,0.1c-0.1,0.2-0.1,0.5,0,0.9c0,0,0,0,0,0.1c0,0,0,0,0,0.1l0,0l0,0v-0.1c0,0,0-0.2,0-0.4l0,0
	c0,0.3-0.1,0.5,0,1c0,0.2,0,0.1,0,0.6c0,0.1,0,0.2,0,0.2c0,0.2,0.1,0.1,0.1,0.5V15l0,0c0,0,0,0,0-0.1c0,0,0,0,0-0.1l0,0l0,0
	c0,0.1,0,0.1,0,0.2c0,0.1,0,0.2,0,0.5s0.1,0.2,0,0.8c0,0.1,0,0-0.1,0.3c0,0.2,0.1,0.3,0,0.7c0.1,0,0-0.1,0.1-0.1
	C6,17,6,17.1,5.9,16.7l0,0l0,0c0,0.1,0,0,0,0.3c0-0.1,0-0.1,0-0.1c0,0.1,0,0.2,0,0.2c0,0.2,0,0.3,0,0.8l0,0c0,0.1,0,0-0.1,0.4
	c0,0.1,0,0.1,0.1,0.4l0,0c0,0.2-0.1,0.5-0.1,0.9l0,0c0,0.9,0,0.6,0.1,2.2l0,0c0.1,0.1,0.3,8.1,0.4,8.3V30.6z M5.9,15.8
	c0.1,0.6,0,0.6,0,0.8l0,0l0,0c0-0.1,0.1-0.2,0.1-0.3C6,15.8,6,15.9,5.9,15.8C5.9,15.7,5.8,15.8,5.9,15.8c-0.2,0.1-0.2,0.1-0.2,0.1
	c-0.1,0.1-0.1,0.2-0.1,0.2c0,0.3,0,0.3,0.1,0.4v0.1v0.1c0.2,0.1,0.3,0,0.3,0l0,0C6,16.3,6,16,5.9,15.8z M5.3,9.8L5.3,9.8
	C5.2,9.8,5.2,9.8,5.3,9.8c-0.4,0.4-0.2,1.2,0,1c-0.1-0.1,0-0.1,0-0.2C5.4,10.1,5.2,9.9,5.3,9.8z M4.8,8.6C5.1,9,5,8.9,5.1,9.1l0,0
	c0,0.2,0,0.2,0,0.3c0,0,0,0,0,0.1C5.2,9,5,8.8,5,8.7C4.9,8.6,4.9,8.6,4.8,8.6L4.8,8.6c0-0.1-0.1,0-0.1-0.1l0,0l0,0
	c0.1,0.2,0,0.2,0.1,0.3c0,0.1,0,0.2,0.1,0.3C5,9.4,4.9,9.3,5,9.4C5.2,9,4.9,8.8,4.8,8.6C4.8,8.7,4.8,8.7,4.8,8.6z M6.2,17.8
	c-0.1,0-0.1,0.1-0.2,0.1l0,0C6.1,17.8,6,18,6,18c-0.2,0.4-0.1,0.4-0.1,0.5v0.1v0.1l0,0l0,0H6C6.3,18.3,6.2,17.9,6.2,17.8z M5.4,12.8
	v-0.4l0,0l0,0C5.4,12.7,5.4,12.7,5.4,12.8c0.2-0.2,0.1-0.3,0.1-0.3c0-0.3-0.1-0.3,0-0.5c0-0.1,0,0-0.1,0l0,0c-0.1,0-0.1,0.1-0.1,0.1
	c0,0.1,0,0.2-0.1,0.2l0,0l0,0C5.2,12.6,5.3,12.7,5.4,12.8C5.3,12.8,5.3,12.8,5.4,12.8c-0.2-0.4,0-0.6,0-0.8c0,0.1,0,0.1,0,0.2
	C5.4,12.8,5.3,12.6,5.4,12.8z M5.7,14c-0.1,0.1-0.1,0.2-0.1,0.3c0.1,0.4,0,0.3,0.1,0.4C5.7,14.2,5.7,14.2,5.7,14c0,0.2,0,0.2,0,0.3
	l0,0c0,0.1,0,0.2,0,0.4C5.8,14.2,5.8,13.9,5.7,14c-0.1-0.1-0.1-0.1-0.1-0.1l0,0c-0.1,0.4-0.1,0.8,0.1,0.9l0,0l0,0
	C5.5,14.5,5.6,14.1,5.7,14L5.7,14z M4.7,7.3C4.6,7.3,4.6,7.4,4.7,7.3C4.6,7.4,4.6,7.4,4.7,7.3c-0.1,0.5,0,0.7,0,0.8l0,0l0,0
	c-0.1-0.6,0-0.5-0.1-0.7c-0.1,0.5,0,0.7,0.2,0.8c0,0,0,0,0.1,0C5.1,7.7,4.7,7.5,4.7,7.3z M5,11.3c0-0.2-0.1-0.1,0-0.1
	c0,0.3,0,0.2,0,0.3s0,0.2,0.1,0.2c0,0,0,0,0,0.1l0,0c0-0.6-0.1-0.6-0.2-0.8c0,0,0,0,0.1,0c0.2,0.5,0.1,0.5,0.2,0.7
	c0,0.1,0,0.1,0,0.2l0,0c0.1-0.2,0-0.3,0-0.4c0-0.2-0.1-0.4-0.2-0.4c0-0.2,0-0.2,0-0.2l0,0C4.9,11.2,4.9,11.2,5,11.3z M5.9,17.7
	L5.9,17.7c0.1-0.3,0.1-0.3,0-0.3c0-0.2-0.1-0.2-0.1-0.2s0-0.1-0.1-0.1c-0.2-0.2-0.1-0.1-0.2-0.2l0,0l0,0V17l0,0c0,0,0,0,0.1,0
	c0.1,0.4,0.1,0.5,0.1,0.6l0,0C5.8,17.7,5.8,17.7,5.9,17.7z M5.6,15.8L5.6,15.8c0.3-0.3,0-0.6,0-0.6C5.5,15,5.5,15,5.5,15H5.4l0,0
	l0,0c0.1,0.1,0.1,0.2,0.1,0.2c0-0.1,0-0.1,0-0.1l0,0l0,0c0.1,0.2,0,0.2,0.1,0.3C5.6,15.8,5.6,15.6,5.6,15.8z M5.7,18.6
	c0.1,0.5,0.2,0.5,0.3,0.7c0-0.4-0.2-0.5-0.2-0.6l0,0c0,0.1,0.1,0.1,0.1,0.2C6,19.2,6,19.2,6,19.3c0,0,0,0,0,0.1v0.1
	c0.1-0.4,0-0.6,0-0.6C5.9,18.8,5.8,18.7,5.7,18.6C5.8,18.6,5.7,18.6,5.7,18.6z M5.1,9.7c0.1-0.1,0.1-0.2,0.1-0.2c0-0.4,0-0.3,0-0.5
	c0-0.4-0.1-0.3-0.1-0.4c-0.1,0.2,0,0.2,0,0.3C5.3,9.4,5.2,9.4,5.1,9.7L5.1,9.7z M5.6,13.3c0,0.4-0.1,0.6-0.2,0.7l0,0l0,0
	C5.6,13.7,5.6,13.5,5.6,13.3c-0.1-0.1,0-0.1-0.1-0.2c0-0.1-0.1-0.1-0.1-0.2H5.3l0,0l0,0C5.6,13,5.5,13.2,5.6,13.3L5.6,13.3z M5,10.8
	c0.1,0.3,0.1,0.2,0.2,0.3c0.2,0.2,0.1,0.4,0.1,0.4c0.1,0.1,0,0.1,0,0.2l0,0c0.2-0.3-0.1-0.6-0.1-0.7C5.1,10.9,5.1,10.9,5,10.8z
	 M5.4,13.9c0.3-0.4,0-0.6,0-0.8l0,0C5.5,13.5,5.4,13.7,5.4,13.9z M5.4,13.7c0.1-0.5,0-0.4-0.1-0.6c-0.1-0.2-0.1-0.1-0.1-0.2
	c0.1,0.2,0.1,0.4,0.1,0.5C5.4,13.7,5.4,13.7,5.4,13.7z M5.1,9.9C4.9,10.2,5,10.3,5,10.4c0.1,0.2,0.1,0.2,0.1,0.3l0,0l0,0
	C4.9,10.4,5.1,10,5.1,9.9z"/>
<path d="M25.3,30.3c0-0.2,0,0,0-0.7v-0.1c0-0.1,0-0.1,0-0.6c0-0.1-0.1-0.1,0-0.3c0-0.2,0-0.4,0.1-0.6c0-0.2,0.1-0.3,0-0.5
	c0-0.2,0-0.4,0-0.5c0-0.2,0,0,0-0.6c0-0.2-0.1-0.3,0.1-0.8c0.1-0.2,0,0,0.1-0.6c0-0.3,0.2-0.5,0.2-1.1l0,0c-0.1,0.1,0,0-0.1,0.3
	c0,0.1-0.1,0.2-0.1,0.3l0,0l0,0c0.1-0.2,0-0.2,0.1-0.9c0-0.1,0.1-0.2,0.1-0.5V23c0,0,0,0,0-0.1v-0.1v-0.1c0-0.1,0-0.2,0-0.5
	c0.1-0.2,0.1-0.1,0.1-0.8l0,0l0,0c0,0.1,0,0.1,0,0.2l0,0c0,0,0,0,0,0.1c0,0,0,0-0.1,0c0,0,0,0,0-0.1c0,0,0,0,0-0.1v-0.1
	c0-0.1,0-0.2,0-0.5c0-0.1,0-0.1,0.1-0.4c0-0.2,0,0,0-0.3c0,0,0,0,0-0.1c0.1-0.1,0.1-0.2,0.2-0.7c0-0.2,0.1-0.3,0.1-0.8
	c-0.2,0.1-0.1,0.3-0.2,0.8l0,0l0,0c0-0.3,0.2-1.2,0.2-2.2l0,0c0.1,0,0.1,0,0-0.1c0,0,0,0,0-0.1c0.1-0.1,0.1-0.4,0.2-1c0,0,0,0,0-0.1
	l0,0c0,0.1,0,0.1,0,0.2l0,0l0,0c0-0.2,0,0,0.1-0.4c-0.1-0.2-0.1,0.2-0.1,0.5v0.1c-0.1-0.5,0.1-0.7,0.2-1.5l0,0v-0.1
	c0-0.3,0-0.1,0-0.6c0.1,0,0,0,0.1-0.3s0-0.4,0.6-1.2c-0.3,0.2-0.4,0.4-0.6,1.1l0,0l0,0v-0.1c0,0,0,0,0-0.2s0-0.2,0-0.7
	c0.1-0.3,0.3-0.6,0.4-1.5c0.1-0.2,0.1-0.1,0.2-0.6l0,0c0-0.1,0-0.1,0.2-0.4c0,0,0,0,0-0.2c-0.1,0,0,0-0.1,0.2l0,0l0,0
	c0-0.2,0.1-0.5,0.2-0.9c0-0.2,0-0.2,0.2-0.9c0,0,0,0,0-0.2l0,0c-0.1,0.2-0.1,0.2-0.2,0.8c-0.1,0.1-0.1,0.2-0.2,0.6
	c0,0.4,0,0.5-0.3,1.2c0-0.1,0-0.2,0.1-0.3c0.1-0.3,0.1-0.6,0.1-1.4c0.1-0.1,0-0.2,0.1-0.3l0,0l0,0v0.1c0,0,0,0-0.1,0.2
	c-0.1-0.1,0.1-0.2,0-0.7l0,0c0,0.1,0,0.1,0,0.5V9c-0.1,0,0,0,0-0.1c0,0,0,0,0-0.1s-0.1-0.1,0-0.6c0-0.1,0.1-0.2,0.1-0.3
	c0.1-0.1,0-0.4,0.5-1c0.3-0.3,0.4-0.4,0.8-0.9l0,0c0.4-0.3,0.9-0.6,1.4-1.3c0.1-0.1,0.1-0.1,0.3-0.5l0,0l0,0c-0.1,0.2,0,0.1-0.2,0.4
	c-0.1,0-0.1,0.1-0.2,0.1l-1,1c-0.1,0.1-0.1,0-0.5,0.4c-0.1,0.1-0.2,0.1-0.3,0.2C28,6.5,27.4,7,27.1,7.7C27,8,26.9,8.4,26.6,9
	c0-0.3,0-0.3,0-1.1c0-0.4,0-1.1-0.3-1.8C26.2,5.6,26,4.8,26,4c0-0.3-0.1-1.1-0.1-1.8c0,0,0-0.5-0.1-0.4c0,0.5,0.1,1.2,0.2,2l0,0
	c0,0.5,0,0.6,0.1,1.5s0.4,1.9,0.4,3.2l0,0l0,0c-0.1-0.2,0,0-0.2-0.5c-0.1-0.3-0.1-0.7-0.5-1.4c0.1,0.4,0,0.1,0.3,1.1
	c0.1,0.1,0.1,0.5,0.2,1.1l0,0c-0.1-0.2-0.2-0.3-0.3-0.5c0,0,0,0,0-0.1s0-0.1-0.2-0.3l0,0V7.8c-0.1-0.1-0.2-0.3-0.4-0.8l0,0l0,0
	c0.1,0.3,0.1,0.4,0.6,1.1c0.1,0.2,0,0,0.3,0.5c0.1,0.2,0.2,0.3,0.3,0.5c0.1,0.2,0,0.3,0,1c0,0.3-0.1,0.5,0,1.1
	c-0.1,0.1-0.1,0.2-0.1,0.3l0,0c-0.1,0-0.1,0.1-0.2,0.3c0,0.1-0.1,0.4-0.1,0.7c0,0,0,0,0,0.2c-0.1-0.3-0.1-0.7,0.1-1.3l0,0
	c-0.1,0.2-0.2,0.6-0.2,1.2c0,0.1,0,0.1,0.1,0.4c-0.1,0.1-0.1,0.2-0.1,0.6c-0.1,0.1,0,0.1-0.1,0.4c0.1,0.3,0.1,0.5,0,1.2
	c-0.1-0.4-0.3-1.5-0.1,0c0,0.1,0.1,0.1,0,0.6c0,0,0,0-0.1,0.2c0,0,0,0-0.1,0.2c-0.1,0.1,0,0.2-0.1,0.3l0,0c0,0.1,0,0,0,0.2
	c0.1,0.2,0.1,0.7,0,1.2V18v0.1l0,0l0,0V18c0-0.1,0-0.3,0-0.5c0,0,0,0-0.1,0c0,0.4,0.1,0.7,0,1.3c0.1,0.3-0.1,0.1,0,0.8
	c0,0.1,0,0.2,0.1,0.3c0,0.2-0.1,0.2-0.2,0.7c0,0,0-0.1-0.1-0.1l0,0c0,0,0,0,0-0.1v-0.1l0,0l0,0c0,0.1,0,0.2,0,0.3
	c0,0.1,0.1,0.3,0,0.6c-0.1,0.4-0.2,0.3,0,1.1c0,0.1,0.1,0.1,0.1,0.4s-0.2,0.4,0,1c-0.1,0,0-0.1-0.1-0.1c-0.1-0.3-0.1-0.1,0-0.7
	c0,0,0,0,0-0.1l0,0c0,0.1,0,0,0,0.5c0-0.1,0-0.1-0.1-0.2c0,0.1,0,0.2,0,0.3c0.1,0.2,0,0.4,0,1.1l0,0c0,0.2,0,0,0.1,0.6
	c-0.1,0.2,0,0.1-0.1,0.5c0,0,0,0,0,0.1c0,0.2,0.1,0.6,0.1,1.1l0,0c0.1,1.2,0,0.8-0.1,2.9l0,0c-0.1,0.1,0,0.3-0.1,0.6L25.3,30.3z
	 M25.2,21.2c-0.2,0.8,0,0.9,0,1c0,0,0,0,0,0.1l0,0c0-0.1-0.1-0.2-0.1-0.4C25.1,21.2,25.1,21.3,25.2,21.2c0-0.1,0.1-0.1,0.2,0
	s0.1,0.1,0.1,0.2c0.1,0.1,0.1,0.2,0.2,0.3c0,0.4,0,0.4-0.1,0.5c0,0-0.1,0.1,0,0.1c0,0,0,0.1-0.1,0.1c-0.3,0.1-0.3,0-0.4,0
	c0,0,0,0,0-0.1C25.2,21.8,25.2,21.4,25.2,21.2z M25.9,13.2H26c0,0.1,0,0,0.1,0c0.4,0.5,0.1,1.5-0.2,1.3c0.1-0.1,0-0.2,0-0.3
	C25.8,13.6,26.1,13.4,25.9,13.2z M26.5,11.7c-0.3,0.4-0.2,0.3-0.3,0.6l0,0c0,0.2,0,0.3,0,0.4c0,0,0,0,0,0.1c-0.2-0.6,0.1-0.9,0.1-1
	C26.4,11.7,26.4,11.7,26.5,11.7L26.5,11.7c0-0.2,0.1-0.1,0.2-0.1l0,0l0,0c-0.2,0.3,0,0.3-0.1,0.4c0,0.1,0,0.3-0.1,0.4
	c-0.1,0.4,0,0.2-0.1,0.4C26,12.2,26.4,12,26.5,11.7C26.5,11.8,26.5,11.7,26.5,11.7z M24.9,23.8c0.1,0,0.2,0.1,0.2,0.1l0,0
	c-0.1-0.1,0,0.2,0,0.2c0.2,0.5,0.1,0.5,0.1,0.6v0.1v0.1c0,0.1,0,0.1-0.1,0l0,0c-0.1,0.1-0.1,0-0.1,0C24.8,24.4,24.9,23.9,24.9,23.8z
	 M25.8,17.1v-0.6l0,0l0,0C25.8,17.1,25.8,17,25.8,17.1c-0.2-0.3-0.2-0.4-0.2-0.4c-0.1-0.4,0.1-0.4-0.1-0.6c0-0.1,0-0.1,0.1-0.1
	c0,0,0,0,0.1,0c0.2,0,0.2,0.1,0.2,0.1c0,0.1,0.1,0.2,0.1,0.3l0,0c0,0,0,0,0,0.1c0.1,0.4,0,0.5,0,0.6C25.9,17.1,25.9,17.1,25.8,17.1
	c0.2-0.5,0-0.8,0-1c0,0.1,0,0.1,0,0.2C25.9,17.1,26,16.9,25.8,17.1z M25.5,18.7c0.1,0.1,0.1,0.3,0.1,0.4c-0.1,0.5,0,0.4-0.1,0.5
	c0-0.6,0-0.6,0-0.7c-0.1,0.1-0.1,0.1,0,0.2l0,0c0,0.2,0,0.3,0,0.5c-0.1-0.7-0.1-1.1,0.1-1.1c0,0,0,0,0.1,0l0,0
	c0.2,0.5,0.2,1-0.1,1.1l0,0l0,0C25.8,19.4,25.5,18.8,25.5,18.7C25.5,18.8,25.5,18.7,25.5,18.7z M26.6,9.9c0.2,0.1,0.1,0.1,0.1,0.1
	l0,0c0,0.5-0.1,0.8-0.1,0.9l0,0l0,0c0.2-0.8,0-0.6,0.1-0.9c0.1,0.7,0,0.9-0.2,1.1h-0.1C26.2,10.5,26.6,10.2,26.6,9.9z M26.4,15.3
	c0-0.2,0.1-0.2,0-0.2c-0.1,0.4,0,0.3-0.1,0.4c0,0.1,0,0.2-0.1,0.3v0.1c0,0,0,0-0.1,0.1c0-0.7,0.1-0.7,0.2-1.1h-0.1
	c-0.2,0.7-0.1,0.6-0.2,0.9c0,0.1,0,0.1,0,0.2l0,0c-0.2-0.3-0.1-0.5-0.1-0.6c0-0.3,0.2-0.5,0.2-0.5c0.1-0.2,0.1-0.1,0.1-0.2
	c0,0,0,0,0.1,0C26.5,15.1,26.4,15.1,26.4,15.3z M25.3,23.7C25.3,23.7,25.3,23.6,25.3,23.7c-0.2-0.4-0.2-0.4-0.1-0.5
	c0-0.3,0.1-0.3,0.1-0.3l0.1-0.1c0.2-0.2,0.1-0.2,0.2-0.3c0,0,0,0,0.1,0l0,0v0.1l0,0c-0.1,0-0.1,0-0.1,0.1c-0.2,0.5-0.1,0.6-0.1,0.8
	v0.1C25.5,23.6,25.4,23.7,25.3,23.7z M25.6,21.2c-0.1,0-0.1,0-0.1,0c-0.2-0.5,0.1-0.7,0.1-0.8c0.2-0.2,0.2-0.2,0.2-0.3h0.1l0,0l0,0
	c-0.2,0.2-0.1,0.2-0.1,0.2c0-0.2,0.1-0.2,0-0.2l0,0l0,0c-0.1,0.3,0,0.3-0.1,0.4C25.6,21.1,25.6,20.8,25.6,21.2z M25.6,24.8
	c-0.2,0.6-0.2,0.7-0.4,1c0-0.5,0.3-0.7,0.3-0.8l0,0c0,0.1-0.1,0.1-0.1,0.2c-0.2,0.4-0.1,0.4-0.2,0.5v0.1c0,0.1,0,0.1,0,0.2
	c-0.1-0.5,0.1-0.8,0.1-0.8C25.3,25.1,25.4,25,25.6,24.8C25.5,24.9,25.5,24.9,25.6,24.8z M26.1,13.1C26,13,26,12.9,26,12.8
	c0-0.6,0-0.3,0-0.6c0.1-0.4,0.1-0.4,0.1-0.5c0.1,0.2,0,0.3,0,0.4C25.9,12.8,26.1,12.7,26.1,13.1C26.1,13,26.1,13.1,26.1,13.1z
	 M25.6,17.8c0,0.5,0.1,0.8,0.2,1l0,0l0,0c-0.3-0.4-0.3-0.6-0.3-0.8c0.1-0.3,0-0.3,0.1-0.4c0-0.1,0.1-0.1,0.1-0.2c0,0,0.1,0,0.2,0
	l0,0l0,0C25.6,17.5,25.7,17.8,25.6,17.8L25.6,17.8z M26.3,14.6c-0.1,0.4-0.2,0.3-0.2,0.4c-0.2,0.3-0.1,0.5-0.2,0.6
	c-0.1,0.2,0,0.2,0,0.2l0,0c-0.2-0.4,0.1-0.8,0.2-0.9C26.2,14.6,26.2,14.7,26.3,14.6z M25.8,18.6c-0.4-0.5,0-0.8,0-1.1l0,0
	C25.7,18.1,25.8,18.3,25.8,18.6z M25.9,18.4c-0.1-0.6,0-0.6,0.1-0.8c0.1-0.3,0.1-0.2,0.2-0.3c-0.1,0.3-0.1,0.5-0.2,0.7
	C25.9,18.3,25.9,18.4,25.9,18.4z M26.2,13.4c0.2,0.5,0.2,0.6,0.2,0.7c-0.1,0.3-0.1,0.2-0.2,0.3l0,0l0,0C26.5,14,26.2,13.6,26.2,13.4
	z"/>
<path d="M15.6,10.2L15.6,10.2c0,0.2,0.1,0.2,0,0.4c0,0.1-0.1,0.2-0.1,0.3s-0.1,0.2-0.1,0.3c0,0.2,0,0.5,0,0.7c0,0.3-0.1,0.7-0.1,1
	c-0.1,0.2,0,0.4-0.1,0.7v0.1l0,0c0,0.1,0,0.2,0,0.3s0,0.2,0,0.2l0,0c0,0.1,0,0.2,0,0.3c-0.1,0-0.1-0.2-0.1-0.2
	C15,14.2,15,14.1,15,14c0,0,0,0,0-0.1c0,0,0,0,0,0.1c0,0.3,0.1,0.5,0.2,0.7c0.1,0.2,0.2,0.3,0.1,0.5c0,0.1,0,0.2-0.1,0.2
	c0,0.1,0,0.2,0,0.3c0,0.3,0.1,0.6,0.1,0.9c0,0.1,0,0.2,0,0.2c0,0.1,0,0.1,0,0.2s0,0.2-0.1,0.3c0,0.1,0,0.2,0,0.3
	c0,0.1,0,0.1-0.1,0.1v0.1c0,0.1,0,0.1,0,0.2l0,0l0,0c0-0.1,0-0.2,0-0.2l0,0l0,0c0,0.3,0,0.5,0.1,0.7c0,0.1,0.1,0.2,0,0.3v0.1
	c0,0.2,0,0.3,0,0.5c0.1,0.6,0,1.2,0,1.7l0,0c0,0,0.1,0.1,0,0.1c0,0,0,0.1,0,0.2s0,0.1-0.1,0c0,0,0,0,0,0.1s0.1,0.3,0.1,0.4
	s0.1,0.2,0.1,0.3c0,0.2,0,0.4,0,0.6c0,0.1,0,0.2,0,0.3c0.1,0.1,0,0.2,0.1,0.3l0,0c0,0.2,0.1,0.4,0.1,0.6c0,0.1,0,0.2,0,0.3
	c0,0.1,0,0.2,0,0.3l0,0c0,0.2-0.1,0.4-0.1,0.6c0,0.1,0,0.3,0.1,0.4c0,0,0,0.1,0.1,0.2c0,0.1,0,0.1,0,0.2c0,0,0.1,0.1,0,0.2
	c0,0.1,0.1,0.2,0,0.3l0,0l0,0c0-0.1,0-0.1,0.1-0.2l0,0l0,0c0,0.1,0,0.2-0.1,0.4c0,0.1-0.1,0.1,0,0.1s0.1,0.1,0.1,0.2
	c0,0.2,0,0.3,0,0.5v0.1c0,0.5-0.1,1.1-0.1,1.6c0,0.1-0.1,0.2-0.1,0.3c0,0.1,0,0.2,0,0.3c0,0.1,0,0.2,0,0.2s0,0,0.1,0
	c0,0,0.1,0,0.1-0.1s0-0.1,0.1-0.2v-0.1v0.1c0,0.1-0.1,0.1,0,0.2l0,0l0,0c0.1-0.2,0.1-0.3,0.2-0.5c0.1-0.2,0.1-0.4,0.2-0.6
	s0.1-0.3,0.2-0.5c0-0.1,0.1-0.3,0.1-0.4s0.1-0.3,0.1-0.4s0.1-0.3,0.1-0.4s0-0.2,0.1-0.3c0.1-0.2,0.1-0.3,0.1-0.5s0.1-0.5,0.2-0.7
	s0.1-0.3,0.2-0.5c0.1-0.3,0.1-0.5,0.2-0.8c0.1-0.2,0.1-0.4,0.1-0.5c0.1-0.2,0.1-0.5,0.2-0.7s0.1-0.3,0.1-0.5c0-0.1,0-0.2,0.1-0.2
	c0-0.2,0.1-0.3,0.1-0.5c0-0.3,0.1-0.7,0.2-1c0.1-0.2,0.1-0.4,0.2-0.7c0-0.1,0.1-0.2,0.1-0.3v-0.1c-0.1,0,0,0,0,0.1
	c-0.1,0.2-0.2,0.4-0.3,0.7c-0.1,0.1-0.1,0.3-0.1,0.4c0,0.3-0.1,0.5-0.2,0.7c-0.2,0.4-0.3,0.8-0.4,1.3l0,0c-0.1,0.2-0.1,0.3-0.2,0.5
	c0,0.2-0.1,0.3-0.2,0.5c0,0.1-0.1,0.1-0.1,0.2v0.1c0,0,0,0,0.1-0.1c0,0,0,0,0.1,0l0,0c-0.1,0.1-0.1,0.3-0.1,0.4
	c-0.1,0.1,0,0.2,0,0.3c0,0,0,0,0,0.1c0,0,0,0,0-0.1l0,0V25c0,0,0,0-0.1,0.1V25c0-0.1,0-0.1,0.1-0.2c0-0.1,0-0.1,0-0.2l0,0l0,0
	c-0.1,0.3-0.2,0.6-0.3,0.9c-0.1,0.2-0.2,0.5-0.2,0.7c0,0.1-0.1,0.3-0.1,0.4c-0.1,0.1,0,0.3-0.1,0.4c0,0.2-0.1,0.3-0.1,0.5
	s-0.1,0.3-0.1,0.5l0,0l0,0c0-0.2,0-0.4,0-0.6c0-0.1,0-0.2,0-0.4c0-0.2,0-0.3,0.1-0.5v-0.1c0-0.1,0-0.2,0-0.2c0-0.6,0-1.2,0.1-1.8
	c0-0.1,0-0.2,0.1-0.3c0-0.1-0.1-0.1,0-0.2c0-0.1,0.1-0.2,0-0.2l0,0c0.1-0.1,0.1-0.3,0.1-0.4v-0.1c0-0.1,0-0.1,0-0.2
	c0,0.1-0.1,0.2-0.1,0.2v0.1l0,0l0,0c0-0.1-0.1-0.3-0.1-0.4s0-0.1,0-0.2s0-0.1,0-0.2s0.1-0.3,0-0.4V22c0.1-0.2,0-0.5,0-0.7
	c0-0.1,0-0.2,0-0.2V21c-0.1-0.1,0-0.3-0.1-0.5c0,0,0,0,0-0.1c0-0.2,0.2-0.3,0.2-0.5c0,0,0.1-0.1,0-0.1v-0.1l-0.1,0.1
	c0,0.1,0,0.2-0.1,0.3l0,0l0,0c0-0.1,0-0.1,0-0.1c0.1-0.1,0-0.3,0-0.4s0-0.1,0-0.2v-0.1c0,0,0,0,0-0.1c0-0.2-0.1-0.5-0.1-0.7
	c0-0.1,0-0.2,0-0.2v-0.1c0-0.3,0-0.5,0.1-0.8v-0.1v-0.1l0,0c0-0.1,0-0.3,0-0.4c0.1-0.1,0.1-0.2,0.2-0.3c0,0,0,0,0-0.1s0-0.1,0-0.2
	l-0.1,0.1c0,0.1,0,0.2-0.1,0.2l0,0l0,0c0.1-0.1,0-0.2,0-0.3c0-0.1,0-0.2,0-0.2c0-0.4-0.1-0.7-0.1-1.1c0-0.1-0.1-0.2,0-0.3
	c0.1-0.3,0-0.6,0-0.8c0-0.3,0-0.6,0-0.9c0-0.1-0.1-0.1,0-0.2c0,0,0-0.1,0-0.2c0-0.1,0-0.1,0-0.2c0-0.1,0-0.1,0-0.1
	c0.1-0.1,0.1-0.1,0.1-0.3s0.1-0.3,0.1-0.4v-0.1l0,0l0,0c0,0,0,0.1-0.1,0.1c0,0.2-0.2,0.4-0.3,0.6l0,0l0,0l0,0
	c0.1-0.2,0.1-0.3,0.1-0.5s0-0.4,0-0.6v-0.1c0-0.3-0.1-0.6-0.1-0.9c0-0.2-0.1-0.4,0-0.6c0-0.1,0-0.2,0-0.4C16,9,16,8.7,16,8.5
	c0-0.1,0-0.2,0-0.3s0-0.2,0-0.4c0-0.1,0.1-0.2,0.1-0.3c0-0.2,0.1-0.4,0.2-0.7c0.1-0.2,0.1-0.4,0.2-0.6c0.1-0.3,0.2-0.6,0.2-0.8
	c0-0.1,0.1-0.2,0.1-0.3c0.1-0.2,0.1-0.4,0.2-0.6c0-0.3,0.2-0.5,0.2-0.8c0.1-0.2,0.2-0.5,0.3-0.7c0.1-0.2,0.1-0.3,0.2-0.5
	c0,0,0,0,0-0.1l0,0c-0.1,0.2-0.2,0.5-0.3,0.7c-0.1,0.2-0.1,0.5-0.2,0.7s-0.1,0.5-0.3,0.7c0,0.1-0.1,0.2-0.1,0.3v0.1V5h-0.1
	c0,0.1-0.1,0.2-0.1,0.3v0.1c0,0,0,0-0.1,0l0,0c0,0.2-0.1,0.3-0.1,0.5s-0.1,0.3-0.1,0.4c-0.1,0.2-0.1,0.4-0.2,0.6V7
	c0,0.1,0,0.1-0.1,0.2c-0.1,0,0-0.1,0-0.2c0-0.2,0-0.3,0-0.5c0-0.1,0-0.3,0-0.4s0-0.2,0-0.4c0,0,0-0.1,0-0.2c0-0.6,0-1.1,0-1.7
	c0-0.1,0-0.2,0-0.2V3.5V3.4c0.1-0.2,0-0.4,0-0.6c0-0.1,0-0.3,0-0.4c0,0,0,0,0-0.1c0,0,0,0-0.1,0.1l0,0c0,0.7-0.1,1.3-0.1,2
	c-0.1,0.5,0,1-0.1,1.4c0,0.2,0,0.4-0.1,0.6c0,0.2,0,0.4,0,0.6c0,0.1-0.1,0.1,0,0.2c-0.1,0.1,0,0.2,0,0.3c0,0.1,0,0.2,0,0.3l0,0l0,0
	c0-0.2,0-0.3-0.1-0.5s0-0.5-0.1-0.7c0-0.2-0.1-0.5-0.1-0.7c-0.1-0.3-0.1-0.7-0.2-1c0-0.1,0-0.3-0.1-0.4c0-0.1,0-0.2,0-0.3
	c0-0.1,0-0.2-0.1-0.3l0,0c0-0.2,0-0.4-0.1-0.6c0-0.2,0-0.4,0-0.6l0,0l0,0c0,0.2-0.1,0.4,0,0.6c0,0,0,0,0,0.1c0,0.2,0,0.4,0,0.6
	c0,0.3,0,0.5,0.1,0.8c0,0.2,0,0.5,0.1,0.7c0,0.1,0,0.3,0.1,0.4c0,0.2,0.1,0.4,0.1,0.6l0,0c0,0.2,0,0.4,0,0.6c0,0,0,0,0,0.1
	c0,0,0,0,0-0.1c-0.1-0.5-0.2-0.9-0.4-1.4V5.6V5.5v0.1C15,5.8,15,5.9,15.1,6c0.1,0.2,0.1,0.4,0.2,0.6c0,0.3,0.2,0.5,0.2,0.8
	c0,0.2,0.1,0.4,0.1,0.5l0,0c0,0.2,0,0.3,0.1,0.5c0,0.2,0,0.3-0.1,0.4c0,0.2-0.1,0.5,0,0.6c0,0.1,0,0.2,0.1,0.3c0,0.1,0,0.3,0,0.4
	v0.1C15.7,10.3,15.6,10.3,15.6,10.2C15.6,10.1,15.6,10.1,15.6,10.2z M16.2,1.4L16.2,1.4c0-0.1,0-0.2,0-0.2V1.1
	C16.2,1.2,16.2,1.2,16.2,1.4c0,0-0.1,0.1-0.1,0.2l0,0l0,0c0,0,0-0.1,0,0.5c0,0.1,0,0.2,0,0.3v0.1c0,0,0,0-0.1,0l0,0
	c0-0.1,0-0.2,0-0.4c0-0.1,0-0.3,0-0.4c0,0,0,0,0-0.1c0,0,0,0,0,0.1C16.2,1.7,16.2,1.8,16.2,1.4z M14.3,3.6
	C14.3,3.5,14.3,3.5,14.3,3.6c0-0.1,0-0.1,0-0.2C14.4,3.5,14.4,3.5,14.3,3.6C14.4,3.6,14.4,3.6,14.3,3.6c0.1,0.1,0.1,0.2,0.1,0.3l0,0
	l0,0C14.4,3.8,14.3,3.7,14.3,3.6z M14.6,4.4C14.7,4.4,14.7,4.4,14.6,4.4c0.1,0.2,0.1,0.3,0.1,0.4l0,0l0,0V4.7
	C14.7,4.7,14.6,4.6,14.6,4.4C14.6,4.5,14.6,4.5,14.6,4.4z M15.6,19.5C15.6,19.5,15.7,19.6,15.6,19.5c0.1,0.1,0.1,0.2,0.1,0.2
	c0,0.1,0,0.1,0.1,0c0,0,0.1-0.1,0.1,0v0.1c0,0.2,0,0.3,0,0.5v0.1l0,0l0,0c0-0.1,0-0.2,0-0.2l0,0l0,0c0,0.2,0,0.3,0,0.5
	c0,0.1,0,0.1-0.1,0.1s-0.1,0-0.1-0.1s0.1-0.2-0.1-0.3v-0.3C15.5,19.9,15.6,19.7,15.6,19.5c-0.1,0,0-0.1-0.1-0.1
	c-0.1-0.1,0-0.1,0-0.1h0.1c0,0,0,0.1,0.1,0.1C15.7,19.4,15.7,19.4,15.6,19.5C15.7,19.4,15.6,19.4,15.6,19.5L15.6,19.5z M15.7,21.9
	c0-0.2,0.1-0.3,0.1-0.5l0.1-0.1c0.1,0,0.2,0.2,0.1,0.3c-0.1,0.1,0,0.2,0,0.2c0,0.2,0,0.4,0,0.6c0,0,0,0.1-0.1,0.1s-0.1,0-0.2-0.1
	h0.1l0,0l-0.1-0.1c0,0,0,0.1-0.1,0C15.8,22.2,15.8,22,15.7,21.9z M15.6,14.2L15.6,14.2c0-0.1,0-0.2,0-0.3s0.1-0.3,0.1-0.4
	c0,0,0,0,0-0.1c0,0,0,0,0,0.1c0,0,0,0,0,0.1c0,0,0,0,0-0.1c0,0,0,0,0-0.1c0.1,0,0.1,0,0.1-0.1l0,0c0,0.1,0.1,0.2,0,0.4
	c0,0.2,0,0.5,0,0.7l0,0l0,0c0-0.1,0-0.2-0.1-0.4c0-0.1,0-0.2,0-0.2c0,0.1,0,0.1,0,0.2c0,0.1,0,0.1,0,0.2l0,0l0,0v-0.1
	c0-0.1,0-0.1,0-0.2C15.6,14.1,15.6,14.1,15.6,14.2c0,0.1,0.1,0.2,0,0.2l0,0l0,0C15.6,14.3,15.6,14.3,15.6,14.2z M15.5,18.6
	c0-0.2,0.1-0.3,0.1-0.5c0-0.1,0.1-0.3,0.1-0.4l0,0l0,0v0.1c0,0.1-0.1,0.1,0,0.2c0,0,0,0,0.1,0l0,0v0.1c0,0,0,0,0,0.1l0,0
	c0,0,0,0,0-0.1V18v0.1c0,0.1,0,0.2-0.1,0.3v0.1c0.1,0.1-0.1,0.2,0,0.3l0,0l0,0c0-0.1-0.1-0.1-0.1-0.2c0,0,0-0.1-0.1-0.1
	C15.6,18.4,15.6,18.5,15.5,18.6C15.6,18.6,15.6,18.6,15.5,18.6C15.6,18.6,15.6,18.6,15.5,18.6L15.5,18.6L15.5,18.6z M16,23.7
	L16,23.7c0,0.1,0,0.1,0,0.1C15.9,23.8,15.9,23.8,16,23.7C15.9,23.7,15.9,23.7,16,23.7C15.9,23.7,15.9,23.7,16,23.7
	c-0.1,0.2-0.1,0.3-0.1,0.4l0,0l0,0c0,0,0,0,0-0.1s0-0.2,0-0.3c-0.1,0.1,0,0.2,0,0.3v0.1c0,0,0,0.1-0.1,0.1c0,0,0,0-0.1,0
	c0,0-0.1,0,0-0.1c0,0,0.1,0,0.1-0.1s0-0.3-0.1-0.4c0-0.1,0-0.2-0.1-0.3c0,0-0.1-0.1,0-0.2s0-0.1,0-0.2l0,0l0,0c0,0.1,0,0.1,0,0.2
	v0.1c0.1,0,0.1,0.1,0.2,0.1c0.1,0,0.2,0.1,0.2,0.2C16,23.5,16,23.6,16,23.7z M15.6,15.9C15.6,15.9,15.6,16,15.6,15.9
	C15.7,16,15.7,15.9,15.6,15.9c0-0.1,0.1-0.1,0.1-0.2c0,0.1,0,0.1,0,0.2c0,0,0,0,0,0.1s0,0.2,0,0.2c0.1-0.1,0-0.2,0-0.3l0,0l0,0
	c0,0.1,0,0.2,0,0.3c0,0.2,0,0.3,0,0.5c0,0,0,0,0,0.1h-0.1c0-0.1,0-0.2,0-0.3v-0.1v0.1c0,0.1,0,0.2,0,0.2v0.1c0,0,0,0,0-0.1
	s0-0.1,0-0.2s0-0.2,0-0.2c0.1-0.1,0-0.1,0-0.2c0,0,0,0,0-0.1c0,0,0,0,0,0.1s0,0.1,0,0.2l0,0l0,0c0-0.1,0-0.2,0-0.2
	S15.6,16,15.6,15.9L15.6,15.9 M16,25.1c0,0.1,0,0.2,0,0.3c0,0,0,0,0,0.1h-0.1c0,0,0,0.1-0.1,0.1l0,0c0-0.1,0-0.1,0-0.2
	c0,0,0-0.1-0.1,0c0,0,0,0,0,0.1l0,0c0-0.2,0-0.3,0.1-0.5l0,0c0,0,0,0,0,0.1c0,0,0,0,0,0.1c0,0-0.1,0,0,0.1c0,0,0,0,0.1-0.1v-0.1
	c0,0,0-0.1,0.1-0.1S16,25.1,16,25.1C16,25,16,25,16,25.1z M15.7,11.3c0-0.1,0-0.1,0-0.2c0,0,0,0,0-0.1c0,0,0,0,0,0.1
	C15.7,11.2,15.7,11.2,15.7,11.3L15.7,11.3c0.1,0,0.1,0,0.1,0c0.1-0.1,0.1-0.2,0.1-0.3l0,0l0,0v0.1c0,0.1,0,0.1,0,0.2
	c0,0.1-0.1-0.1-0.1,0c0,0.2,0,0.3,0,0.5l0,0c0,0.1-0.2,0.1-0.2,0.1c-0.1,0,0-0.1,0-0.2c0-0.1,0-0.1,0-0.2c0.1,0.1,0,0.1,0,0.2v0.1
	l0.1-0.1c0-0.1,0-0.2,0-0.3C15.7,11.5,15.7,11.4,15.7,11.3z M15.8,8.5C15.8,8.6,15.8,8.6,15.8,8.5c0.1,0.1,0.1,0.2,0.2,0.3v0.1
	c-0.1,0,0,0.1,0,0.2c0,0.1,0,0.1,0,0.2l0,0l0,0c0-0.1,0-0.2,0-0.2l0,0l0,0c0,0,0,0,0,0.1c0,0,0,0,0-0.1s0.1-0.2,0-0.3
	C15.7,8.7,15.7,8.6,15.8,8.5C15.7,8.6,15.7,8.5,15.8,8.5z M15.9,19.2H16c0.1,0,0.1,0,0.1,0.1v0.1c0,0.1,0,0.2-0.1,0.3l0,0l0,0
	c0,0,0,0,0-0.1C16,19.4,16,19.3,15.9,19.2L15.9,19.2L15.9,19.2L15.9,19.2z M16.1,26C16.1,26,16.1,26.1,16.1,26
	C16,26.1,16,26,16.1,26C16,26,16,26,16,26h-0.1c0-0.1-0.1-0.1-0.2-0.2l0,0c0,0,0,0,0.1,0s0.1,0.1,0.2,0.1
	C16.1,25.9,16.1,25.9,16.1,26z M15.5,13L15.5,13c0.1-0.1,0.1-0.1,0.1-0.2c0-0.1,0-0.1,0-0.2c0.1,0.1,0,0.2,0,0.2
	c0.1,0.1,0.1,0.1,0,0.2c0,0-0.1,0.1-0.1,0.2C15.5,13.2,15.5,13.1,15.5,13C15.6,13.1,15.5,13,15.5,13L15.5,13z M15.8,9.6
	C15.9,9.6,15.9,9.7,15.8,9.6c0,0.2,0.1,0.2,0.1,0.3V10h-0.1V9.9C15.8,9.8,15.8,9.8,15.8,9.6l-0.1,0.1C15.7,9.7,15.7,9.6,15.8,9.6z
	 M15.8,21.3c0-0.1,0.2-0.2,0.2-0.2s0,0,0.1,0.1c0,0,0,0-0.1,0S16,21.3,15.8,21.3C15.9,21.2,15.9,21.2,15.8,21.3
	C15.9,21.3,15.8,21.3,15.8,21.3z M16.1,14.1c0,0.1,0,0.2,0,0.4C16,14.3,16,14.2,16.1,14.1c-0.1-0.1-0.1-0.2,0-0.3
	C16.1,13.9,16.1,14,16.1,14.1z M15.9,10.4c0,0.1,0,0.1,0,0.2C15.9,10.5,15.9,10.5,15.9,10.4c-0.1-0.1-0.1-0.1-0.1-0.2l0,0l0,0
	C15.9,10.3,15.9,10.3,15.9,10.4z M15.7,15.5c-0.1,0-0.1-0.1-0.2-0.1l0,0l0,0c0.1,0.1,0.1,0.1,0.2,0l0,0
	C15.8,15.4,15.8,15.5,15.7,15.5C15.8,15.5,15.8,15.5,15.7,15.5z M15.5,10C15.5,9.9,15.5,10,15.5,10c-0.1,0-0.2-0.1-0.1-0.2
	c0-0.1,0.1-0.2,0-0.3c0,0,0,0,0-0.1h0.1C15.4,9.6,15.5,9.8,15.5,10C15.6,10,15.6,10,15.5,10z M16.2,2.3C16.2,2.3,16.2,2.4,16.2,2.3
	c0,0.1,0,0.1-0.1,0.1C16.1,2.4,16.1,2.4,16.2,2.3c-0.1,0-0.1-0.2-0.1-0.3c0-0.1,0-0.3,0-0.4c0,0,0,0,0-0.1c0,0,0,0,0,0.1
	s0,0.3,0,0.4C16.2,2.1,16.2,2.2,16.2,2.3z M15.7,10.2C15.7,10.3,15.6,10.3,15.7,10.2c-0.1-0.1-0.1-0.1-0.1,0
	c-0.1-0.1-0.1-0.1-0.1-0.2c0,0,0-0.1,0.1,0c0,0,0,0,0.1,0C15.7,10,15.7,10.1,15.7,10.2z M14.3,3.5L14.3,3.5
	C14.4,3.5,14.4,3.5,14.3,3.5c0.1,0.1,0.1,0.1,0.1,0.2c0,0.1,0,0.1,0.1,0.2l0,0l0,0c0-0.1-0.1-0.2-0.1-0.3
	C14.3,3.6,14.3,3.6,14.3,3.5z M16.2,1.4c0-0.1,0-0.1,0.1-0.2V1.1c0,0.1,0,0.1,0,0.2s-0.1,0.2-0.1,0.3l0,0l0,0
	C16.2,1.4,16.2,1.4,16.2,1.4L16.2,1.4z M14.7,4.5c0,0.1,0.1,0.2,0.1,0.4l0,0l0,0V4.8C14.7,4.7,14.6,4.6,14.7,4.5
	C14.6,4.5,14.6,4.5,14.7,4.5C14.7,4.4,14.7,4.4,14.7,4.5z M16,14.4c0-0.1,0-0.2,0-0.3s0-0.2,0-0.3c0,0.1,0,0.2,0,0.3
	C16.1,14.2,16.1,14.3,16,14.4z"/>
<path d="M14.4,30.3c0-0.2-0.4-6.8-0.5-7.6v-0.1c0-0.1,0-0.1,0-0.4c0,0-0.1-0.1,0-0.2c0-0.1,0-0.3,0-0.4s0-0.3,0-0.4s0-0.3,0-0.4
	s0,0,0-0.4c0-0.2-0.1-0.2,0-0.6c0-0.1,0,0,0.1-0.4c0-0.2,0.1-0.4,0.1-0.8l0,0c0,0.1,0,0,0,0.2c0,0.1,0,0.2-0.1,0.3l0,0l0,0
	c0-0.1,0-0.2,0-0.7c0-0.1,0-0.1,0-0.4v-0.1c0,0,0,0,0-0.1v-0.1v-0.1c0-0.1,0-0.1,0-0.4c0-0.1,0.1-0.1,0-0.6l0,0l0,0v0.1l0,0
	c0,0,0,0,0,0.1l0,0l0,0l0,0v-0.1c0-0.1-0.1-0.1-0.1-0.4c0-0.1,0-0.1,0-0.3c0-0.1,0,0,0-0.2l0,0c0-0.1,0-0.2,0.1-0.5
	c0-0.1,0-0.2,0-0.6c-0.1,0.1,0,0.2-0.1,0.7l0,0l0,0c0-0.2,0-0.9,0-1.7l0,0c0.1,0,0,0,0-0.1l0,0c0-0.1,0.1-0.3,0.1-0.8c0,0,0,0,0-0.1
	l0,0c0,0.1,0,0.1,0,0.2l0,0l0,0c0-0.1,0,0,0-0.3c-0.1-0.1,0,0.2,0,0.4c0,0,0,0,0,0.1c-0.1-0.4,0-0.5,0-1.2l0,0v-0.1
	c0-0.2,0-0.1-0.1-0.4c0,0,0,0,0-0.2c0.1-0.2,0-0.3,0.3-0.9c-0.2,0.2-0.3,0.3-0.4,0.9l0,0l0,0v-0.1c0,0,0,0,0-0.1s0-0.2-0.1-0.5
	c0-0.2,0.2-0.5,0.1-1.1c0-0.2,0-0.1,0.1-0.5l0,0c0-0.1,0-0.1,0.1-0.3c0,0,0,0,0-0.1c-0.1,0,0,0-0.1,0.2l0,0l0,0c0-0.2,0-0.4,0.1-0.7
	c0-0.1,0-0.1,0.1-0.7c0,0,0,0,0-0.1l0,0c0,0.2-0.1,0.1-0.1,0.6c0,0.1,0,0.2-0.1,0.5c0,0.3,0,0.3-0.1,1c0-0.1,0-0.2,0-0.2
	c0.1-0.3,0-0.5-0.1-1c0-0.1,0-0.1,0.1-0.2l0,0l0,0c0,0,0,0,0,0.1c0,0,0,0,0,0.2c0-0.1,0.1-0.1-0.1-0.5l0,0c0,0.1,0,0,0,0.4
	c0,0,0,0,0,0.1c0,0,0,0,0-0.1l0,0c0-0.1-0.1-0.1,0-0.5c0-0.1,0-0.2,0.1-0.3c0-0.1,0-0.3,0.3-0.8c0.2-0.2,0.2-0.4,0.5-0.7l0,0
	c0.2-0.3,0.6-0.6,0.9-1.1c0.1-0.1,0.1-0.1,0.1-0.4l0,0l0,0c0,0.1,0,0.1-0.1,0.4l-0.1,0.1l-0.2,0.3c-0.1,0.1-0.1,0-0.4,0.4
	c-0.1,0.1-0.1,0.1-0.2,0.2c-0.1,0.1-0.5,0.6-0.7,1.1C13.1,6.1,13.1,6.4,13,7c0-0.2,0-0.2-0.1-0.8c0-0.3-0.1-0.8-0.4-1.4
	c-0.1-0.4-0.3-0.9-0.4-1.6C12,3,11.9,2.4,11.8,1.8c0,0,0-0.4-0.1-0.3C11.8,1.8,11.9,2.4,12,3l0,0c0,0.4,0.1,0.4,0.2,1.1
	c0.2,0.7,0.5,1.4,0.6,2.4l0,0l0,0c-0.1-0.1,0,0-0.2-0.4c-0.1-0.2-0.2-0.5-0.5-1c0.2,0.3,0,0.1,0.3,0.8c0,0.1,0.1,0.4,0.3,0.8l0,0
	c-0.1-0.1-0.2-0.2-0.3-0.3l0,0c0,0,0-0.1-0.2-0.2l0,0c0,0,0,0,0-0.1c-0.1,0-0.2-0.1-0.4-0.5l0,0l0,0c0.1,0.2,0.1,0.3,0.5,0.7
	c0.1,0.2,0,0,0.3,0.4c0.1,0.1,0.2,0.2,0.3,0.3c0.1,0.2,0,0.2,0.1,0.8c0,0.2,0,0.4,0.1,0.8c0,0.1-0.1,0.2-0.1,0.3l0,0
	c-0.1,0-0.1,0.1-0.1,0.3c0,0.1,0,0.3,0,0.6c0,0,0,0,0,0.1c-0.1-0.2-0.1-0.5-0.1-1l0,0c-0.1,0.1-0.1,0.4,0,0.9c0,0.1,0,0.1,0.1,0.3
	c0,0.1,0,0.1,0,0.4c0,0.1,0,0.1,0,0.3C13,11,13,11.2,13,11.7c-0.1-0.3-0.3-1.1-0.1,0c0,0.1,0.1,0.1,0.1,0.4c0,0,0,0,0,0.2
	c0,0,0,0,0,0.2c0,0.1,0,0.2,0,0.3l0,0c0,0.1,0,0,0,0.1c0.1,0.2,0.2,0.5,0.1,0.9c0,0,0,0,0,0.1V14l0,0l0,0v-0.1c0,0,0-0.2-0.1-0.4
	l0,0c0,0.3,0.2,0.5,0.1,1c0.1,0.2,0,0.1,0.1,0.6c0,0.1,0,0.1,0.1,0.2c0,0.2-0.1,0.2-0.1,0.6c0,0,0-0.1-0.1-0.1l0,0l0,0
	c0,0,0,0,0-0.1l0,0l0,0c0,0.1,0,0.1,0,0.2s0.1,0.2,0.1,0.5s-0.1,0.2,0.1,0.8c0,0.1,0,0,0.1,0.3c0,0.2-0.1,0.3,0.1,0.7
	c-0.1,0,0-0.1-0.1-0.1c-0.1-0.2-0.1-0.1-0.1-0.5l0,0l0,0c0,0.1,0,0,0,0.3c0-0.1,0-0.1-0.1-0.1c0,0.1,0,0.2,0,0.2
	c0.1,0.2,0,0.3,0.1,0.8l0,0c0,0.1,0,0,0.2,0.4c0,0.1,0,0.1,0,0.4l0,0c0,0.2,0.2,0.5,0.2,0.9l0,0c0.2,0.9,0.1,0.6,0.2,2.2l0,0
	C13.8,22.8,14.4,30,14.4,30.3L14.4,30.3z M13.1,16.3c-0.1,0.6,0.1,0.6,0.1,0.8l0,0l0,0c0-0.1-0.1-0.2-0.1-0.3
	C13,16.3,13,16.4,13.1,16.3c0-0.1,0.1-0.1,0.1,0c0.1,0.1,0.1,0.1,0.1,0.1c0.1,0.1,0.1,0.1,0.2,0.2c0,0.3,0,0.3,0,0.4v0.1v0.1
	c-0.2,0.1-0.2,0.1-0.3,0l0,0C13.1,16.7,13.1,16.4,13.1,16.3z M12.8,10.2C12.9,10.2,12.9,10.2,12.8,10.2c0.1,0,0.1,0,0.1,0
	c0.4,0.3,0.2,1.1,0,1c0.1-0.1,0-0.1,0-0.2C12.8,10.5,13,10.3,12.8,10.2z M13.2,9C13,9.4,13.1,9.3,13,9.5l0,0c0,0.2,0,0.2,0.1,0.3
	c0,0,0,0,0,0.1c-0.2-0.4,0-0.7,0-0.8S13.1,9,13.2,9L13.2,9c0-0.1,0.1-0.1,0.1-0.1l0,0l0,0c-0.1,0.2,0,0.3,0,0.3c0,0.1,0,0.2,0,0.3
	c0,0.3,0,0.2-0.1,0.3C12.9,9.5,13.1,9.2,13.2,9C13.2,9.1,13.2,9,13.2,9z M13.1,18.3c0.1,0,0.1,0,0.2,0l0,0c-0.1-0.1,0,0.1,0,0.1
	c0.2,0.3,0.1,0.3,0.2,0.4v0.1V19l0,0l0,0h-0.1C13.1,18.8,13.1,18.4,13.1,18.3z M13.2,13.2l-0.1-0.4l0,0l0,0
	C13.2,13.1,13.1,13.1,13.2,13.2C13,13,13,12.9,13,12.9c-0.1-0.3,0-0.3-0.1-0.4c0-0.1,0-0.1,0-0.1l0,0c0.1,0,0.1,0.1,0.2,0.1
	c0,0.1,0.1,0.2,0.1,0.2l0,0l0,0C13.3,13,13.3,13.1,13.2,13.2C13.3,13.2,13.3,13.2,13.2,13.2c0.1-0.4,0-0.6-0.1-0.8
	c0,0.1,0,0.1,0,0.1C13.2,13.2,13.3,13,13.2,13.2z M13,14.4c0.1,0.1,0.1,0.2,0.1,0.3c0,0.4,0.1,0.3,0,0.4C13,14.6,13.1,14.6,13,14.4
	c0,0.2,0,0.2,0,0.3l0,0c0,0.1,0,0.2,0,0.4C12.9,14.7,12.9,14.3,13,14.4C13.1,14.3,13.1,14.3,13,14.4C13.1,14.4,13.1,14.4,13,14.4
	c0.3,0.3,0.3,0.7,0.2,0.8l0,0l0,0C13.3,14.9,13.1,14.5,13,14.4C13.1,14.4,13.1,14.4,13,14.4z M13.1,7.7C13.2,7.7,13.2,7.7,13.1,7.7
	c0.1,0.1,0.1,0.1,0.1,0.1c0.1,0.4,0,0.6,0,0.7l0,0l0,0c0-0.6,0-0.5,0-0.7c0.1,0.5,0.1,0.7,0,0.9c0,0,0,0-0.1,0
	C12.8,8.2,13.1,7.9,13.1,7.7z M13.4,11.7c0-0.2,0-0.1,0-0.1c0,0.3,0,0.2,0,0.3s0,0.2,0,0.3c0,0,0,0,0,0.1c0,0,0,0,0,0.1
	c0-0.6,0-0.6,0.1-0.9c0,0,0,0-0.1,0c-0.1,0.5,0,0.5-0.1,0.7c0,0.1,0,0.1,0,0.2l0,0c-0.2-0.2-0.1-0.3-0.1-0.4c0-0.2,0.1-0.4,0.1-0.4
	c0.1-0.2,0-0.1,0.1-0.2l0,0C13.5,11.6,13.4,11.6,13.4,11.7z M13.4,18.2C13.4,18.2,13.4,18.1,13.4,18.2c-0.2-0.3-0.2-0.3-0.1-0.3
	c0-0.2,0.1-0.2,0.1-0.3c0,0,0-0.1,0.1-0.1c0.1-0.2,0.1-0.1,0.1-0.2l0,0l0,0v0.1l0,0c0,0,0,0-0.1,0c-0.1,0.4,0,0.5,0,0.6
	c0,0,0,0,0,0.1C13.5,18.1,13.5,18.1,13.4,18.2z M13.4,16.2h-0.1c-0.2-0.3,0-0.6,0-0.6c0.1-0.2,0.1-0.2,0.1-0.2h0.1l0,0l0,0
	c-0.1,0.1-0.1,0.2-0.1,0.2c0-0.1,0-0.1,0-0.2l0,0l0,0c0,0.2,0,0.2,0,0.3C13.4,16.2,13.3,16,13.4,16.2z M13.7,19
	c-0.1,0.5-0.1,0.5-0.2,0.8c0-0.4,0.2-0.6,0.1-0.6l0,0c0,0.1-0.1,0.1-0.1,0.2c-0.1,0.3,0,0.3-0.1,0.4v0.1V20c-0.1-0.4,0-0.6,0-0.7
	C13.5,19.2,13.6,19.1,13.7,19L13.7,19z M13,10.1c0-0.1-0.1-0.1-0.1-0.2c-0.1-0.4-0.1-0.2-0.1-0.5s0.1-0.3,0.1-0.4
	c0.1,0.2,0,0.2,0,0.3C12.9,9.9,12.9,9.8,13,10.1L13,10.1z M13.1,13.7c0,0.4,0.2,0.6,0.3,0.7l0,0l0,0C13,14.2,13,14,13,13.8
	s0-0.2,0-0.3s0.1-0.1,0.1-0.2h0.1l0,0l0,0C13,13.5,13.1,13.7,13.1,13.7L13.1,13.7z M13.3,11.2c-0.1,0.3-0.1,0.3-0.1,0.3
	c-0.1,0.3,0,0.4-0.1,0.5c0,0.1,0,0.1,0,0.2l0,0c-0.2-0.3,0-0.6,0-0.7C13.3,11.3,13.2,11.3,13.3,11.2z M13.3,14.3
	c-0.3-0.3-0.1-0.6-0.1-0.8l0,0C13.2,13.9,13.3,14.1,13.3,14.3z M13.3,14.1c-0.1-0.4,0-0.4,0-0.6c0-0.2,0-0.1,0.1-0.2
	c0,0.2-0.1,0.4-0.1,0.5C13.3,14.1,13.3,14.1,13.3,14.1z M13.1,10.3c0.2,0.3,0.2,0.4,0.2,0.5c-0.1,0.2,0,0.2-0.1,0.3l0,0l0,0
	C13.4,10.7,13.1,10.4,13.1,10.3z"/>
<path d="M23.3,30.4c0-0.2,0.1-6.9,0.2-7.7v-0.1c0-0.1,0-0.1,0-0.4c0,0,0-0.1,0-0.2s0-0.3,0.1-0.4c0-0.1,0.1-0.3,0-0.4
	c0-0.1,0-0.3,0-0.4s0,0,0-0.4c0-0.2-0.1-0.2,0.1-0.6c0-0.1,0,0,0.1-0.4c0-0.2,0.2-0.4,0.2-0.8l0,0c-0.1,0.1,0,0-0.1,0.2
	c0,0.1-0.1,0.2-0.1,0.3l0,0l0,0c0.1-0.1,0-0.2,0.1-0.7c0,0,0.1-0.1,0.1-0.4v-0.1c0,0,0,0,0-0.1v-0.1v-0.1c0-0.1,0-0.1,0-0.4
	c0-0.1,0.1-0.1,0.1-0.6l0,0l0,0v0.1l0,0c0,0,0,0,0,0.1l0,0l0,0l0,0v-0.1c0-0.1,0-0.1,0-0.4c0-0.1,0-0.1,0.1-0.3c0-0.1,0,0,0-0.2l0,0
	c0-0.1,0.1-0.2,0.2-0.5c0-0.1,0-0.2,0.1-0.6c-0.1,0.1,0,0.2-0.2,0.6l0,0l0,0c0-0.2,0.2-0.9,0.2-1.7l0,0c0.1,0,0,0,0-0.1l0,0
	c0-0.1,0.1-0.3,0.2-0.8c0,0,0,0,0-0.1l0,0c0,0.1,0,0.1,0,0.2l0,0l0,0c0-0.1,0,0,0-0.3c0-0.1-0.1,0.2-0.1,0.3c0,0,0,0,0,0.1
	c-0.1-0.4,0.1-0.5,0.2-1.2l0,0v-0.1c0-0.2,0-0.1,0-0.4c0,0,0,0,0.1-0.2s0-0.3,0.5-0.9c-0.2,0.2-0.3,0.3-0.5,0.8l0,0l0,0v-0.1
	c0,0,0,0,0-0.1s0-0.2,0-0.5c0.1-0.2,0.2-0.5,0.3-1.1c0.1-0.2,0-0.1,0.1-0.4l0,0c0-0.1,0-0.1,0.1-0.3c0,0,0,0,0-0.1
	c-0.1,0,0,0-0.1,0.2l0,0l0,0c0-0.2,0.1-0.4,0.2-0.7c0-0.1,0-0.1,0.2-0.7c0,0,0,0,0-0.1l0,0c0,0.2-0.1,0.1-0.2,0.6
	c0,0.1,0,0.2-0.1,0.5c0,0.3,0,0.3-0.3,0.9c0-0.1,0-0.2,0-0.2c0.1-0.2,0.1-0.5,0.1-1c0-0.1,0-0.1,0.1-0.2l0,0l0,0c0,0,0,0,0,0.1
	c0,0,0,0-0.1,0.2c0-0.1,0.1-0.1,0-0.6l0,0c0,0.1,0,0.1,0,0.4c0,0,0,0.1,0,0c0,0,0,0,0-0.1l0,0c0-0.1-0.1-0.1,0-0.4
	c0-0.1,0.1-0.2,0.1-0.3c0.1-0.1,0-0.3,0.4-0.8c0.2-0.2,0.3-0.3,0.6-0.7l0,0c0.3-0.2,0.7-0.5,1.1-0.9C27,4,27,4.1,27.2,3.8l0,0l0,0
	c0,0.1,0,0.1-0.2,0.3l-0.1,0.1l-0.2,0.3c-0.1,0.1-0.1,0-0.4,0.3C26.1,4.9,26,4.9,26,5c-0.1,0.1-0.6,0.5-0.9,1
	c-0.1,0.2-0.2,0.5-0.4,1c0-0.2,0-0.2,0-0.8c0-0.3,0-0.8-0.2-1.4c-0.1-0.4-0.2-1-0.2-1.6c0-0.3-0.1-0.8-0.1-1.4c0,0,0-0.4-0.1-0.3
	c0,0.3,0.1,0.9,0.1,1.5l0,0c0,0.4,0,0.4,0.1,1.2c0.1,0.7,0.3,1.4,0.3,2.4l0,0l0,0c-0.1-0.1,0,0-0.1-0.4c-0.1-0.2-0.1-0.5-0.4-1.1
	c0.1,0.3,0,0.1,0.2,0.8c0,0.1,0.1,0.4,0.2,0.9l0,0c-0.1-0.1-0.1-0.3-0.2-0.4l0,0c0,0,0-0.1-0.2-0.2l0,0c0,0,0,0,0-0.1
	C24,6,23.9,5.8,23.7,5.4l0,0l0,0c0.1,0.2,0,0.3,0.4,0.8c0.1,0.2,0,0,0.2,0.4c0.1,0.1,0.2,0.2,0.2,0.3c0.1,0.2,0,0.2,0,0.8
	c0,0.2,0,0.4,0,0.8c0,0.1-0.1,0.2-0.1,0.3l0,0c-0.1,0-0.1,0.1-0.1,0.2c0,0.1-0.1,0.3-0.1,0.5c0,0,0,0,0,0.1c-0.1-0.2,0-0.5,0.1-1
	l0,0C24.1,9,24,9.2,24,9.7c0,0.1,0,0.1,0.1,0.3c0,0.1-0.1,0.1-0.1,0.4c0,0,0,0.1-0.1,0.3c0,0.2,0.1,0.4,0,0.9
	c-0.1-0.3-0.2-1.1-0.1,0c0,0.1,0,0.1,0,0.4c0,0,0,0-0.1,0.2c0,0,0,0,0,0.2c0,0.1,0,0.2-0.1,0.2l0,0c0,0.1,0,0,0,0.1
	c0.1,0.2,0.1,0.5,0,0.9c0,0,0,0,0,0.1c0,0,0,0,0,0.1l0,0l0,0v-0.1c0,0,0-0.2,0-0.4l0,0c0,0.3,0.1,0.5,0,1c0,0.2,0,0.1,0,0.6
	c0,0.1,0,0.2,0,0.2c0,0.2-0.1,0.1-0.1,0.5v-0.1l0,0c0,0,0,0,0-0.1c0,0,0,0,0-0.1l0,0l0,0c0,0.1,0,0.1,0,0.2c0,0.1,0,0.2,0,0.5
	c0,0.3-0.1,0.2,0,0.8c0,0.1,0,0,0.1,0.3c0,0.2-0.1,0.3,0,0.7c-0.1,0,0-0.1-0.1-0.1c-0.1-0.2-0.1-0.1,0-0.5l0,0l0,0c0,0.1,0,0,0,0.3
	c0-0.1,0-0.1,0-0.1c0,0.1,0,0.2,0,0.2c0,0.2,0,0.3,0,0.8l0,0c0,0.1,0,0,0.1,0.4c0,0.1,0,0.1-0.1,0.4l0,0c0,0.2,0.1,0.5,0.1,0.9l0,0
	c0,0.9,0,0.6-0.1,2.2l0,0c-0.1,0.1-0.2,7.4-0.2,7.6L23.3,30.4z M23.5,16.2c-0.1,0.6,0,0.6,0,0.8l0,0l0,0c0-0.1-0.1-0.2-0.1-0.3
	C23.4,16.2,23.4,16.3,23.5,16.2c0-0.1,0.1,0,0.1,0c0.1,0.1,0.1,0.1,0.1,0.1c0.1,0.1,0.1,0.2,0.1,0.2c0,0.3,0,0.3-0.1,0.4V17v0.1
	c-0.2,0.1-0.3,0-0.3,0l0,0C23.5,16.7,23.5,16.3,23.5,16.2z M24.1,10.2C24.1,10.1,24.2,10.1,24.1,10.2c0.1,0,0.1,0,0.1,0
	c0.3,0.4,0.1,1.2-0.1,1c0.1-0.1,0-0.1,0-0.2C24,10.4,24.3,10.3,24.1,10.2z M24.6,9c-0.3,0.3-0.2,0.2-0.3,0.5l0,0c0,0.2,0,0.2,0,0.3
	c0,0,0,0,0,0.1c-0.1-0.5,0.1-0.7,0.1-0.8C24.5,9,24.5,9,24.6,9L24.6,9c0-0.1,0.1,0,0.1-0.1l0,0l0,0c-0.1,0.2,0,0.2-0.1,0.3
	c0,0.1,0,0.2-0.1,0.3c-0.1,0.3,0,0.2-0.1,0.3C24.2,9.4,24.5,9.2,24.6,9C24.6,9.1,24.6,9,24.6,9z M23.3,18.2c0.1,0,0.1,0.1,0.2,0.1
	l0,0c-0.1-0.1,0,0.1,0,0.1c0.2,0.4,0.1,0.4,0.1,0.5V19v0.1l0,0l0,0h-0.1C23.2,18.7,23.3,18.3,23.3,18.2z M24.1,13.1v-0.4l0,0l0,0
	C24,13.1,24,13,24.1,13.1c-0.2-0.2-0.1-0.3-0.1-0.3c0-0.3,0.1-0.3,0-0.5c0-0.1,0,0,0.1,0l0,0c0.1,0,0.1,0.1,0.1,0.1
	c0,0.1,0,0.2,0.1,0.2l0,0l0,0C24.2,13,24.2,13.1,24.1,13.1L24.1,13.1c0.2-0.4,0-0.6,0-0.8c0,0.1,0,0.1,0,0.2
	C24.1,13.1,24.2,13,24.1,13.1z M23.7,14.4c0.1,0.1,0.1,0.2,0.1,0.3c-0.1,0.4,0,0.3-0.1,0.4C23.7,14.6,23.7,14.6,23.7,14.4
	c0,0.2,0,0.2,0,0.3l0,0c0,0.1,0,0.2,0,0.4C23.6,14.6,23.6,14.2,23.7,14.4c0.1-0.1,0.1-0.1,0.1-0.1l0,0c0.1,0.4,0.1,0.8-0.1,0.9l0,0
	l0,0C24,14.9,23.8,14.4,23.7,14.4C23.8,14.4,23.8,14.3,23.7,14.4z M24.8,7.7C24.9,7.7,24.8,7.7,24.8,7.7c0.1,0.1,0.1,0.1,0.1,0.1
	c0,0.4-0.1,0.6-0.1,0.7l0,0l0,0c0.1-0.6,0-0.5,0.1-0.7c0.1,0.5,0,0.7-0.2,0.8c0,0,0,0-0.1,0C24.4,8.1,24.7,7.9,24.8,7.7z M24.5,11.7
	c0-0.2,0.1-0.1,0-0.1c0,0.3,0,0.2,0,0.3s0,0.2-0.1,0.2c0,0,0,0,0,0.1l0,0c0-0.6,0.1-0.6,0.2-0.8c0,0,0,0-0.1,0
	c-0.2,0.5-0.1,0.5-0.2,0.7c0,0.1,0,0.1,0,0.2l0,0c-0.1-0.2,0-0.3,0-0.4c0-0.2,0.1-0.4,0.2-0.4c0.1-0.1,0.1-0.1,0.1-0.2l0,0
	C24.6,11.6,24.5,11.6,24.5,11.7z M23.6,18.1C23.6,18.1,23.5,18.1,23.6,18.1c-0.1-0.3-0.1-0.3-0.1-0.3c0-0.2,0.1-0.2,0.1-0.2
	s0-0.1,0.1-0.1c0.2-0.2,0.1-0.1,0.2-0.2l0,0l0,0v0.1l0,0c0,0,0,0-0.1,0c-0.1,0.4-0.1,0.5-0.1,0.6l0,0C23.7,18.1,23.6,18.1,23.6,18.1
	z M23.8,16.2h-0.1c-0.2-0.3,0.1-0.6,0.1-0.6c0.1-0.2,0.1-0.2,0.2-0.2h0.1l0,0l0,0C24,15.5,24,15.6,24,15.6c0-0.1,0-0.1,0-0.1l0,0
	l0,0c-0.1,0.2,0,0.2-0.1,0.3C23.8,16.2,23.8,16,23.8,16.2z M23.7,19c-0.1,0.5-0.2,0.5-0.3,0.7c0-0.4,0.2-0.5,0.2-0.6l0,0
	c0,0.1-0.1,0.1-0.1,0.2c-0.1,0.3-0.1,0.3-0.1,0.4c0,0,0,0,0,0.1v0.1c-0.1-0.4,0.1-0.6,0.1-0.6C23.6,19.2,23.6,19.1,23.7,19L23.7,19z
	 M24.3,10.1c-0.1-0.1-0.1-0.2-0.1-0.2c0-0.4,0-0.3,0-0.5C24.3,9,24.3,9.1,24.3,9c0.1,0.2,0,0.2,0,0.3C24.2,9.8,24.3,9.7,24.3,10.1
	C24.3,10,24.3,10,24.3,10.1z M23.9,13.7c0,0.4,0.1,0.6,0.2,0.7l0,0l0,0C23.9,14.1,23.9,13.9,23.9,13.7c0.1-0.1,0-0.1,0.1-0.2
	c0-0.1,0.1-0.1,0.1-0.2h0.1l0,0l0,0C23.8,13.4,23.9,13.6,23.9,13.7C23.9,13.6,23.9,13.6,23.9,13.7z M24.4,11.2
	c-0.1,0.3-0.1,0.2-0.2,0.3c-0.2,0.2-0.1,0.4-0.1,0.4c-0.1,0.1,0,0.1,0,0.2l0,0c-0.2-0.3,0.1-0.6,0.1-0.7
	C24.4,11.2,24.4,11.3,24.4,11.2z M24,14.2c-0.3-0.4,0-0.6,0-0.8l0,0C24,13.9,24,14,24,14.2z M24,14.1c-0.1-0.5,0-0.4,0.1-0.6
	c0.1-0.2,0.1-0.1,0.1-0.2c-0.1,0.2-0.1,0.4-0.1,0.5C24.1,14,24.1,14.1,24,14.1z M24.4,10.3c0.2,0.3,0.1,0.4,0.1,0.5
	c-0.1,0.2-0.1,0.2-0.1,0.3l0,0l0,0C24.6,10.8,24.4,10.4,24.4,10.3z"/>
<path d="M19.8,31c0-0.2,0,0,0-0.7v-0.1c0-0.1,0-0.1,0-0.6c0-0.1,0.1-0.1,0-0.3c0-0.2,0-0.4-0.1-0.6c0-0.2-0.1-0.3,0-0.5
	c0-0.2,0-0.4,0-0.5c0-0.2,0,0,0-0.6c0-0.2,0.1-0.3-0.1-0.8c-0.1-0.2,0,0-0.1-0.6c0-0.3-0.2-0.5-0.2-1.1l0,0c0.1,0.1,0,0,0.1,0.3
	c0,0.1,0.1,0.2,0.1,0.3l0,0l0,0c-0.1-0.2,0-0.2-0.1-0.9c0-0.1-0.1-0.2-0.1-0.5v-0.1c0,0,0,0,0-0.1v-0.1v-0.1c0-0.1,0-0.2,0-0.5
	c-0.1-0.2-0.1-0.1-0.1-0.8l0,0l0,0c0,0.1,0,0.1,0,0.2l0,0c0,0,0,0,0,0.1c0,0,0,0,0.1,0c0,0,0,0,0-0.1c0,0,0,0,0-0.1v-0.1
	c0-0.1,0-0.2,0-0.5c0-0.1,0-0.1-0.1-0.4c0-0.2,0,0,0-0.3c0,0,0,0,0-0.1c-0.1-0.1-0.1-0.2-0.2-0.7c0-0.2-0.1-0.3-0.1-0.8
	c0.2,0.1,0.1,0.3,0.2,0.8l0,0l0,0c0-0.3-0.2-1.2-0.2-2.2l0,0c-0.1,0-0.1,0,0-0.1c0,0,0,0,0-0.1c-0.1-0.1-0.1-0.4-0.2-1
	c0,0,0,0,0-0.1l0,0c0,0.1,0,0.1,0,0.2l0,0l0,0c0-0.2,0,0-0.1-0.4c0.1-0.2,0.1,0.2,0.1,0.5V17c0.1-0.5-0.1-0.7-0.2-1.5l0,0v-0.1
	c0-0.3,0-0.1,0-0.6c-0.1,0,0,0-0.1-0.3s0-0.4-0.6-1.2c0.3,0.2,0.4,0.4,0.6,1.1l0,0l0,0v-0.1c0,0,0,0,0-0.2s0-0.2,0-0.7
	c-0.1-0.3-0.3-0.6-0.4-1.5c-0.1-0.2-0.1-0.1-0.2-0.6l0,0c0-0.1,0-0.1-0.2-0.4c0,0,0,0,0-0.2c0.1,0,0,0,0.1,0.2l0,0l0,0
	c0-0.2-0.1-0.5-0.2-0.9c0-0.2,0-0.2-0.2-0.9c0,0,0,0,0-0.2l0,0c0.1,0.2,0.1,0.2,0.2,0.8c0.1,0.1,0.1,0.2,0.2,0.6
	c0,0.4,0,0.5,0.3,1.2c0-0.1,0-0.2-0.1-0.3c-0.1-0.3-0.1-0.6-0.1-1.4c-0.1-0.1,0-0.2-0.1-0.3l0,0l0,0v0.1c0,0,0,0,0.1,0.2
	c0.1-0.1-0.1-0.2,0-0.7l0,0c0,0.1,0,0.1,0,0.5v0.1c0.1,0,0,0,0-0.1c0,0,0,0,0-0.1s0.1-0.1,0-0.6c0-0.1-0.1-0.2-0.1-0.3
	c-0.1-0.1,0-0.4-0.5-1c-0.3-0.3-0.4-0.4-0.8-0.9l0,0C16,6.4,15.5,6.1,15,5.4c-0.1-0.1-0.1-0.1-0.3-0.5l0,0l0,0
	c0.1,0.2,0,0.1,0.2,0.4c0.1,0,0.1,0.1,0.2,0.1l0.3,0.3c0.1,0.1,0.1,0,0.5,0.4c0.1,0.1,0.2,0.1,0.3,0.2c0.8,0.9,1.4,1.4,1.8,2
	c0.1,0.3,0.2,0.7,0.5,1.3c0-0.3,0-0.3,0-1.1c0-0.4,0-1.1,0.3-1.8c0.1-0.5,0.3-1.3,0.3-2.2c0-0.3,0.1-1.1,0.1-1.8c0,0,0-0.5,0.1-0.4
	c0,0.5-0.1,1.2-0.2,2l0,0c0,0.5,0,0.6-0.1,1.5S18.6,7.7,18.6,9l0,0l0,0c0.1-0.2,0,0,0.2-0.5c0.1-0.3,0.1-0.7,0.5-1.4
	c-0.1,0.4,0,0.1-0.3,1.1c-0.1,0.1-0.1,0.5-0.2,1.1l0,0c0,0,0.2-0.2,0.3-0.3c0,0,0,0,0-0.1s0-0.1,0.2-0.3l0,0V8.5
	c0.1-0.1,0.2-0.3,0.4-0.8l0,0l0,0c0.1,0.3,0.1,0.3-0.4,1c-0.1,0.2,0,0-0.3,0.5c-0.1,0.2-0.2,0.3-0.3,0.5c-0.1,0.2,0,0.3,0,1
	c0,0.3,0.1,0.5,0,1.1c0.1,0.1,0.1,0.2,0.1,0.3l0,0c0.1,0,0.1,0.1,0.2,0.3c0,0.1,0.1,0.4,0.1,0.7c0,0,0,0,0,0.2
	c0.1-0.3,0.1-0.7-0.1-1.3l0,0c0.1,0.2,0.2,0.6,0.2,1.2c0,0.1,0,0.1-0.1,0.4c0.1,0.1,0.1,0.2,0.1,0.6c0.1,0.1,0,0.1,0.1,0.4
	c-0.1,0.3-0.1,0.5,0,1.2c0.1-0.4,0.3-1.5,0.1,0c0,0.1-0.1,0.1,0,0.6c0,0,0,0,0.1,0.2c0,0,0,0,0.1,0.2c0.1,0.1,0,0.2,0.1,0.3l0,0
	c0,0.1,0,0,0,0.2c-0.1,0.2-0.1,0.7,0,1.2v0.1v0.1l0,0l0,0v-0.1c0-0.1,0-0.3,0-0.5c0,0,0,0,0.1,0c0,0.4-0.1,0.7,0,1.3
	c-0.1,0.3,0.1,0.1,0,0.8c0,0.1,0,0.2-0.1,0.3c0,0.2,0.1,0.2,0.2,0.7c0,0,0-0.1,0.1-0.1l0,0c0,0,0,0,0-0.1v-0.1l0,0l0,0
	c0,0.1,0,0.2,0,0.3c0,0.1-0.1,0.3,0,0.6c0.1,0.4,0.2,0.3,0,1.1c0,0.1-0.1,0.1-0.1,0.4s0.2,0.4,0,1c0.1,0,0-0.1,0.1-0.1
	c0.1-0.3,0.1-0.1,0-0.7c0,0,0,0,0-0.1l0,0c0,0.1,0,0,0,0.5c0-0.1,0-0.1,0.1-0.2c0,0.1,0,0.2,0,0.3c-0.1,0.2,0,0.4,0,1.1l0,0
	c0,0.2,0,0-0.1,0.6c0.1,0.2,0,0.1,0.1,0.5c0,0,0,0,0,0.1c0,0.2-0.1,0.6-0.1,1.1l0,0c-0.1,1.2,0,0.8,0.1,2.9l0,0
	c0.1,0.1,0,0.3,0.1,0.6L19.8,31z M19.8,21.8c0.2,0.8,0,0.9,0,1c0,0,0,0,0,0.1l0,0c0-0.1,0.1-0.2,0.1-0.4C20,21.8,20,21.9,19.8,21.8
	c0-0.1-0.1-0.1-0.2,0s-0.1,0.1-0.1,0.2c-0.1,0.1-0.1,0.2-0.2,0.3c0,0.4,0,0.4,0.1,0.5c0,0,0.1,0.1,0,0.1c0,0,0,0.1,0.1,0.1
	c0.3,0.1,0.3,0,0.4,0c0,0,0,0,0-0.1C19.9,22.4,19.9,22,19.8,21.8z M19.2,13.9h-0.1c0,0.1,0,0-0.1,0c-0.4,0.5-0.1,1.5,0.2,1.3
	c-0.1-0.1,0-0.2,0-0.3C19.3,14.2,19,14,19.2,13.9z M18.5,12.4c0.3,0.4,0.2,0.3,0.3,0.6l0,0c0,0.2,0,0.3,0,0.4c0,0,0,0,0,0.1
	c0.2-0.6-0.1-0.9-0.1-1C18.7,12.4,18.7,12.3,18.5,12.4C18.6,12.3,18.6,12.3,18.5,12.4c0-0.2-0.1-0.1-0.2-0.1l0,0l0,0
	c0.2,0.3,0,0.3,0.1,0.4c0,0.1,0,0.3,0.1,0.4c0.1,0.4,0,0.2,0.1,0.4C19,12.9,18.7,12.6,18.5,12.4C18.6,12.4,18.6,12.4,18.5,12.4z
	 M20.1,24.4c-0.1,0-0.2,0.1-0.2,0.1l0,0c0.1-0.1,0,0.2,0,0.2c-0.2,0.5-0.1,0.5-0.1,0.6v0.1v0.1c0,0.1,0,0.1,0.1,0l0,0
	c0.1,0.1,0.1,0,0.1,0C20.2,25.1,20.1,24.5,20.1,24.4z M19.2,17.8v-0.6l0,0l0,0C19.2,17.7,19.3,17.7,19.2,17.8
	c0.2-0.3,0.2-0.4,0.2-0.4c0.1-0.4-0.1-0.4,0.1-0.6c0-0.1,0-0.1-0.1-0.1c0,0,0,0-0.1,0c-0.2,0-0.2,0.1-0.2,0.1c0,0.1-0.1,0.2-0.1,0.3
	l0,0c0,0,0,0,0,0.1c-0.1,0.4,0,0.5,0,0.6C19.1,17.8,19.1,17.8,19.2,17.8c-0.2-0.5,0-0.8,0-1c0,0.1,0,0.1,0,0.2
	C19.2,17.8,19,17.6,19.2,17.8z M19.6,19.4c-0.1,0.1-0.1,0.3-0.1,0.4c0.1,0.5,0,0.4,0.1,0.5c0-0.6,0-0.6,0-0.7c0.1,0.1,0.1,0.1,0,0.2
	l0,0c0,0.2,0,0.3,0,0.5c0.1-0.7,0.1-1.1-0.1-1.1c0,0,0,0-0.1,0l0,0c-0.2,0.5-0.2,1,0.1,1.1l0,0l0,0C19.3,20.1,19.5,19.5,19.6,19.4
	C19.5,19.4,19.5,19.4,19.6,19.4z M18.4,10.6c-0.2,0.1-0.1,0.1-0.1,0.1l0,0c0,0.5,0.1,0.8,0.1,0.9l0,0l0,0c-0.2-0.8,0-0.6-0.1-0.9
	c-0.1,0.7,0,0.9,0.2,1.1h0.1C18.9,11.2,18.4,10.9,18.4,10.6z M18.7,15.9c0-0.2-0.1-0.2,0-0.2c0.1,0.4,0,0.3,0.1,0.4
	c0,0.1,0,0.2,0.1,0.3v0.1c0,0,0,0,0.1,0.1c0-0.7-0.1-0.7-0.2-1.1h0.1c0.2,0.7,0.1,0.6,0.2,0.9c0,0.1,0,0.1,0,0.2l0,0
	c0.2-0.3,0.1-0.5,0.1-0.6c0-0.3-0.2-0.5-0.2-0.5c-0.1-0.2-0.1-0.1-0.1-0.2c0,0,0,0-0.1,0C18.6,15.8,18.6,15.8,18.7,15.9z M19.7,24.3
	C19.7,24.3,19.8,24.3,19.7,24.3c0.2-0.4,0.2-0.4,0.1-0.5c0-0.3-0.1-0.3-0.1-0.3l-0.1-0.1c-0.2-0.2-0.1-0.2-0.2-0.3c0,0,0,0-0.1,0
	l0,0v0.1l0,0c0.1,0,0.1,0,0.1,0.1c0.2,0.5,0.1,0.6,0.1,0.8v0.1C19.6,24.3,19.6,24.3,19.7,24.3z M19.4,21.8c0.1,0,0.1,0,0.1,0
	c0.2-0.5-0.1-0.7-0.1-0.8c-0.2-0.2-0.2-0.2-0.2-0.3h-0.1l0,0l0,0c0.2,0.2,0.1,0.2,0.1,0.2c0-0.2-0.1-0.2,0-0.2l0,0l0,0
	c0.1,0.3,0,0.3,0.1,0.4C19.5,21.8,19.5,21.5,19.4,21.8z M19.5,25.5c0.2,0.6,0.2,0.7,0.4,1c0-0.5-0.3-0.7-0.3-0.8l0,0
	c0,0.1,0.1,0.1,0.1,0.2c0.2,0.4,0.1,0.4,0.2,0.5v0.1c0,0.1,0,0.1,0,0.2c0.1-0.5-0.1-0.8-0.1-0.8C19.7,25.7,19.7,25.6,19.5,25.5
	L19.5,25.5z M18.9,13.8c0.1-0.1,0.1-0.2,0.1-0.3c0-0.6,0-0.3,0-0.6c0-0.5,0-0.5,0-0.6c-0.1,0.2,0,0.3,0,0.4
	C19.1,13.4,19,13.3,18.9,13.8C18.9,13.7,18.9,13.7,18.9,13.8z M19.5,18.5c0,0.5-0.1,0.8-0.2,1l0,0l0,0c0.3-0.4,0.3-0.6,0.3-0.8
	c-0.1-0.3,0-0.3-0.1-0.4c0-0.1-0.1-0.1-0.1-0.2c0,0-0.1,0-0.2,0l0,0l0,0C19.5,18.2,19.4,18.4,19.5,18.5
	C19.5,18.4,19.5,18.5,19.5,18.5z M18.7,15.2c0.1,0.4,0.2,0.3,0.2,0.4c0.2,0.3,0.1,0.5,0.2,0.6c0.1,0.2,0,0.2,0,0.2l0,0
	c0.2-0.4-0.1-0.8-0.2-0.9C18.8,15.3,18.8,15.3,18.7,15.2z M19.2,19.2c0.4-0.5,0-0.8,0-1.1l0,0C19.3,18.8,19.3,19,19.2,19.2z
	 M19.2,19.1c0.1-0.6,0-0.6-0.1-0.8C19,18,19.1,18.1,19,18c0.1,0.3,0.1,0.5,0.2,0.7C19.2,19,19.2,19,19.2,19.1z M18.8,14.1
	c-0.2,0.5-0.2,0.6-0.2,0.7c0.1,0.3,0.1,0.2,0.2,0.3l0,0l0,0C18.6,14.7,18.8,14.2,18.8,14.1z"/>
<path d="M8.7,30.6c0-0.2,0-0.3-0.1-1.3v-0.1c0-0.1,0-0.1-0.1-0.5c0,0,0-0.1,0-0.3c0-0.2,0-0.4-0.1-0.5c0-0.2-0.1-0.3,0-0.5
	c0-0.2,0-0.3,0-0.5s0,0,0-0.5c0-0.2,0.1-0.3-0.1-0.8c-0.1-0.2,0,0-0.2-0.5c0-0.3-0.2-0.5-0.2-1l0,0c0.1,0.1,0,0,0.1,0.3
	c0,0.1,0.1,0.2,0.1,0.3l0,0l0,0c-0.1-0.2,0-0.2-0.1-0.8c0-0.1-0.1-0.2-0.1-0.4v-0.1c0,0,0,0,0-0.1v-0.1v-0.1c0-0.1,0-0.1-0.1-0.4
	c-0.1-0.1-0.1-0.1-0.2-0.8l0,0l0,0c0,0.1,0,0.1,0,0.2l0,0c0,0,0,0,0,0.1l0,0c0,0,0,0,0-0.1c0,0,0,0,0-0.1v-0.1c0-0.1,0-0.2,0-0.5
	c0-0.1,0-0.1-0.1-0.4c0-0.1,0,0,0-0.3l0,0c-0.1-0.1-0.1-0.2-0.2-0.6c0-0.2-0.1-0.2-0.1-0.8c0.2,0.1,0.1,0.3,0.3,0.8l0,0l0,0
	c0-0.3-0.2-1.1-0.3-2l0,0c-0.1,0-0.1,0,0-0.1c0,0,0,0,0-0.1C7.1,17.8,7,17.6,6.9,17c0,0,0,0,0-0.1l0,0c0,0.1,0,0.1,0,0.2l0,0l0,0
	c0-0.2,0,0-0.1-0.3C7,16.6,7,17,7.1,17.2v0.1c0.1-0.5-0.1-0.6-0.3-1.4l0,0v-0.1c0-0.2,0-0.1,0-0.5c-0.1,0,0,0-0.1-0.3
	s-0.1-0.4-0.6-1c0.3,0.2,0.4,0.3,0.6,1l0,0l0,0v-0.1c0,0,0,0,0-0.1c0-0.2,0-0.2,0-0.6c-0.1-0.3-0.3-0.6-0.4-1.3
	c-0.1-0.2-0.1-0.1-0.2-0.5l0,0c0-0.1,0-0.1-0.2-0.4c0,0,0,0,0-0.2c0.1,0,0,0,0.1,0.2l0,0l0,0c0.1-0.4,0-0.6-0.1-1
	c0-0.1,0-0.1-0.2-0.8c0,0,0,0,0-0.1l0,0c0.1,0.2,0.1,0.1,0.2,0.7C6,10.9,6,11,6.1,11.4c0.1,0.3,0.1,0.4,0.4,1.1c0-0.1,0-0.2-0.1-0.3
	C6.3,12,6.3,11.7,6.2,11c-0.1-0.1,0-0.2-0.1-0.2l0,0l0,0c0,0,0,0,0,0.1c0,0,0,0,0.1,0.2c0-0.1-0.1-0.1,0-0.7l0,0c0,0.1,0,0.1,0,0.4
	v0.1c0.1,0,0,0,0-0.1c0,0,0,0,0-0.1s0.1-0.1-0.1-0.5C6.1,10.1,6,10,6,9.9C6.1,9.8,6.2,9.6,5.7,9C5.5,8.7,5.4,8.6,5,8.2l0,0
	C4.6,7.9,4.2,7.6,3.6,7.1C3.5,7,3.5,7.1,3.4,6.7l0,0l0,0c0.1,0.2,0,0.1,0.2,0.4c0.1,0,0.1,0.1,0.1,0.1L4,7.5c0.1,0.1,0.1,0,0.5,0.4
	c0.2,0,0.3,0.1,0.4,0.2C5,8.2,5.6,8.7,6,9.2c0.1,0.2,0.2,0.6,0.5,1.2c0-0.3,0-0.3,0-1c0-0.4,0-1,0.1-1.7c0-0.5,0.2-1.2,0.2-2
	c0-0.3,0.1-1,0-1.7c0,0,0-0.5,0.1-0.3c0,0.4,0,1.1-0.1,1.9l0,0c0,0.5,0,0.5-0.1,1.4c0,0.9-0.2,1.8-0.2,3l0,0l0,0
	c0.1-0.2,0,0,0.1-0.5C6.7,9.2,6.7,8.9,7,8.2c-0.1,0.4,0,0.1-0.2,1c0,0.1-0.1,0.5-0.1,1.1l0,0C6.8,10.1,6.9,9.9,7,9.8c0,0,0,0,0-0.1
	s0-0.1,0.2-0.3l0,0V9.3C7.3,9.2,7.4,9,7.6,8.5l0,0l0,0c-0.1,0.3,0,0.3-0.5,1c-0.1,0.2,0,0-0.2,0.5c-0.1,0.1-0.2,0.3-0.2,0.4
	c-0.1,0.2,0,0.2,0.1,1c0.1,0.2,0.1,0.5,0.1,1C7,12.5,7,12.6,7,12.7l0,0c0.1,0,0.1,0.1,0.2,0.3c0,0.1,0.1,0.3,0.1,0.7c0,0,0,0,0,0.2
	c0.1-0.2,0-0.6-0.1-1.2l0,0c0.1,0.2,0.2,0.5,0.2,1.1c0,0.1,0,0.1-0.1,0.4c0.1,0.1,0.1,0.2,0.1,0.5c0.1,0.1,0,0.1,0.1,0.4
	c0,0.3-0.1,0.5,0,1.1c0.1-0.4,0.2-1.4,0.1,0c0,0.1,0,0.1,0,0.5c0,0,0,0,0.1,0.2c0,0,0,0,0.1,0.2c0.1,0.1,0,0.2,0.1,0.3l0,0
	c0,0.1,0,0,0,0.2c-0.1,0.2-0.1,0.7,0,1.1v0.1v0.1l0,0l0,0v-0.1c0-0.1,0-0.2,0-0.5l0,0c0,0.4-0.1,0.6,0,1.2c0,0.2,0.1,0.1,0,0.7
	c0,0.1,0,0.2,0,0.3c0,0.2,0.1,0.2,0.2,0.7v-0.1l0,0c0,0,0,0,0-0.1v-0.1l0,0l0,0c0,0.1,0,0.2,0,0.3c0,0.1,0,0.3,0,0.6
	c0.1,0.3,0.2,0.3,0.1,1c0,0.1,0,0.1-0.1,0.3c0,0.2,0.2,0.3,0.1,0.9c0.1,0,0-0.1,0.1-0.1c0.1-0.2,0.1-0.1,0-0.7c0,0,0,0,0-0.1l0,0
	c0,0.1,0,0,0.1,0.4c0-0.1,0-0.1,0-0.2c0,0.1,0,0.2,0,0.3c-0.1,0.2,0,0.4,0,1l0,0c0,0.2,0,0-0.1,0.5c0.1,0.1,0,0.1,0.1,0.5l0,0
	c0,0.2-0.1,0.6-0.1,1.1l0,0c0,1.1,0,0.7,0.2,2.7l0,0C8.6,29.5,8.6,30.4,8.7,30.6L8.7,30.6z M8.3,21.5c0.2,0.7,0.1,0.8,0.1,1l0,0l0,0
	c0-0.1,0.1-0.2,0.1-0.4C8.4,21.5,8.4,21.6,8.3,21.5c0-0.1-0.1-0.1-0.1,0c-0.1,0.1-0.1,0.1-0.1,0.2C8,21.8,8,21.9,7.9,22
	C8,22.4,8,22.3,8,22.5c0,0,0.1,0.1,0,0.1v0.1c0.3,0.1,0.3,0,0.3,0l0,0C8.4,22.1,8.4,21.7,8.3,21.5z M7.3,14.3L7.3,14.3
	c-0.1,0.1-0.1,0-0.2,0c-0.4,0.5,0,1.4,0.2,1.1c-0.1-0.1,0-0.2,0-0.2C7.4,14.6,7.1,14.4,7.3,14.3z M6.7,12.9C7,13.3,6.9,13.2,7,13.4
	l0,0c0,0.2,0,0.3,0,0.4c0,0,0,0,0,0.1C7.1,13.4,6.9,13,6.8,13C6.8,12.9,6.8,12.9,6.7,12.9L6.7,12.9c0-0.2-0.1,0-0.2-0.1l0,0l0,0
	c0.2,0.2,0.1,0.3,0.1,0.3c0,0.1,0.1,0.2,0.1,0.4c0.1,0.3,0,0.2,0.1,0.4C7.1,13.4,6.8,13.1,6.7,12.9C6.7,13,6.7,12.9,6.7,12.9z
	 M8.7,23.9c-0.1,0-0.2,0.1-0.2,0.1l0,0c0.1-0.1,0,0.2,0,0.1c-0.2,0.4-0.1,0.4-0.1,0.5v0.1v0.1c0,0,0,0,0.1,0l0,0
	c0.1,0.1,0.1,0,0.1,0C8.8,24.5,8.7,24,8.7,23.9z M7.5,17.8v-0.5l0,0l0,0C7.6,17.8,7.6,17.7,7.5,17.8c0.2-0.3,0.1-0.3,0.1-0.4
	c0-0.4-0.1-0.4,0-0.5c0-0.1,0-0.1-0.1-0.1l0,0c-0.2,0-0.1,0.1-0.2,0.1c0,0.1,0,0.2-0.1,0.3l0,0l0,0C7.3,17.6,7.4,17.8,7.5,17.8
	C7.4,17.9,7.4,17.8,7.5,17.8c-0.2-0.5-0.1-0.7,0-0.9c0,0.1,0,0.1,0,0.2C7.5,17.8,7.4,17.7,7.5,17.8z M8,19.3
	c-0.1,0.1-0.1,0.3-0.1,0.4c0.1,0.4,0,0.4,0.1,0.5c0-0.6,0-0.6,0-0.7c0,0.1,0,0.1,0,0.2l0,0c0,0.1,0,0.3,0,0.4
	C8.1,19.5,8.1,19.1,8,19.3c-0.1-0.1-0.1-0.1-0.1-0.1l0,0c-0.1,0.4-0.1,0.9,0.1,1l0,0l0,0C7.7,19.9,7.9,19.4,8,19.3
	C7.9,19.3,7.9,19.3,8,19.3z M6.5,11.3c-0.1,0.1-0.1,0.1-0.1,0.1l0,0c0,0.4,0.1,0.7,0.1,0.8l0,0l0,0c-0.2-0.7-0.1-0.6-0.1-0.8
	c-0.1,0.6,0.1,0.8,0.2,1h0.1C6.9,11.8,6.5,11.5,6.5,11.3z M7,16.2C7,16,6.9,16,7,16C7,16.3,7,16.2,7,16.2c0,0.2,0,0.3,0.1,0.4v0.1
	c0,0,0,0,0.1,0.1c-0.1-0.7-0.1-0.7-0.3-1H7c0.2,0.6,0.1,0.6,0.2,0.8c0,0.1,0,0.1,0,0.2l0,0c0.2-0.3,0-0.4,0-0.5
	C7.2,16,7,15.9,7,15.8c0-0.2,0-0.1-0.1-0.2c0,0,0,0-0.1,0C6.9,16,6.9,16,7,16.2z M8.3,23.8L8.3,23.8c0.1-0.4,0.1-0.4,0.1-0.4
	c-0.1-0.3-0.1-0.2-0.1-0.3L8.2,23C8,22.8,8,22.9,8,22.8c0,0,0,0-0.1,0l0,0v0.1l0,0H8c0.2,0.5,0.1,0.6,0.1,0.8v0.1
	C8.2,23.8,8.2,23.8,8.3,23.8z M7.9,21.5L7.9,21.5c0.3-0.4,0-0.7,0-0.8c-0.2-0.2-0.2-0.2-0.2-0.3H7.6l0,0l0,0
	c0.2,0.2,0.1,0.2,0.1,0.2c0-0.1-0.1-0.1-0.1-0.2l0,0l0,0c0.1,0.3,0,0.3,0.1,0.3C8,21.5,8,21.2,7.9,21.5z M8.2,24.9
	c0.2,0.6,0.3,0.6,0.4,0.9c-0.1-0.4-0.3-0.6-0.3-0.7l0,0c0,0.1,0.1,0.1,0.1,0.2c0.2,0.3,0.1,0.4,0.2,0.5v0.1c0,0.1,0,0.1,0,0.1
	c0.1-0.5-0.1-0.8-0.2-0.8C8.4,25.1,8.3,25,8.2,24.9L8.2,24.9z M7.1,14.2c0.1-0.1,0.1-0.2,0.1-0.3c0-0.5,0-0.3,0-0.6
	C7.1,12.9,7,12.9,7,12.8c-0.1,0.2,0,0.3,0,0.3C7.2,13.9,7.1,13.8,7.1,14.2C7.1,14.1,7.1,14.1,7.1,14.2z M7.8,18.5
	c0,0.4-0.1,0.8-0.2,0.9l0,0l0,0c0.3-0.3,0.3-0.6,0.2-0.8c-0.1-0.3,0-0.3-0.1-0.4c0-0.1-0.1-0.1-0.1-0.2H7.5l0,0l0,0
	C7.8,18.2,7.7,18.4,7.8,18.5C7.8,18.4,7.8,18.4,7.8,18.5z M7,15.5c0.1,0.3,0.2,0.3,0.2,0.4c0.2,0.3,0.1,0.4,0.2,0.5s0,0.2,0,0.2l0,0
	c0.2-0.4-0.1-0.7-0.2-0.8C7,15.6,7.1,15.6,7,15.5z M7.6,19.2c0.3-0.5,0-0.8-0.1-1l0,0C7.7,18.7,7.6,18.9,7.6,19.2z M7.6,19
	c0-0.6,0-0.5-0.1-0.7s-0.1-0.2-0.2-0.2c0.1,0.2,0.2,0.5,0.2,0.6C7.6,18.9,7.6,19,7.6,19z M7,14.4c-0.2,0.4-0.2,0.5-0.1,0.7
	C7,15.3,7,15.3,7.1,15.4l0,0l0,0C6.8,15,7,14.6,7,14.4z"/>
</svg>
