<?xml version="1.0" encoding="utf-8"?>
<!-- Generator: Adobe Illustrator 25.4.1, SVG Export Plug-In . SVG Version: 6.00 Build 0)  -->
<svg version="1.1" id="cavefish" xmlns="http://www.w3.org/2000/svg" xmlns:xlink="http://www.w3.org/1999/xlink" x="0px" y="0px"
	 viewBox="0 0 32 32" style="enable-background:new 0 0 32 32;" xml:space="preserve">
<path d="M10.9,12c0.1,0.1,1.7,0.4,1.9,0.5c0.4,0.2,4.1,0,4.9-0.2c1.9-0.2,5,0,6.7,0.3c0.3,0.1,1.4,0.3,1.6,0.3
	c0.5,0.1,1.6,0.4,2,0.5c0.7,0.2,3,1.4,3,1.4c0.2,0.2-0.3,0.7-1.1,1.3c-0.9,0.6-3.3,1.7-3.9,2c-2.1,1.1-2,1-4,1.5
	c-1.7,0.5-2.9,0.6-4.3,0.6l-2.8-0.6c0,0-1.3,0.7-1.7,0.8c-0.4,0.1-0.6-0.1-0.7-0.4c0-0.3-0.1-0.7,0-0.8l-0.1-0.6
	C10.6,17.7,8.8,17,8.6,17c0,0-0.5,0-0.7,0s-0.3,0.1-1.3,0.5c-0.1,0.1-0.6,0.3-1.1,0.6c-0.2,0.1-0.6,0.3-1,0.6
	c-0.4,0.2-0.8,0.5-0.9,0.5c-0.7,0.4-1,0.6-1.6,0.4s-0.9-1.4,0.1-2.2c1.4-1.1,0.7-1.5,0.6-1.7c-0.3-0.3-1-1-1.2-1.2
	c-0.4-0.4-0.6-1-0.5-1.3c0.1-0.4,0.9-1,2.8-0.3c0.1,0,0.5,0.2,0.8,0.4s2.1,1.2,2.9,1.1c0.4,0.1,0.4,0.1,1.7-0.4
	c0.4-0.2,0.9-0.4,0.8-0.5c0,0,0.1-0.4,0-0.6c-0.2-0.7-2-1.1-1.6-1.3C9.1,11.6,10.7,12,10.9,12z M28.3,14.2c0,0-0.1,0-0.1,0.1
	c-0.1,0-0.1,0.1-0.2,0.2c0,0.1,0,0.3,0,0.3c0.1,0,0.1,0,0.1,0s0.2,0.4,0.1,0.3c0,0,0.1-0.7,0.4-0.6c0.1,0-0.1-0.1-0.1-0.1
	S28.4,14.3,28.3,14.2C28.3,14.3,28.3,14.2,28.3,14.2z M29.1,14.4L29.1,14.4c-0.1,0-0.2,0-0.2,0l0,0H29c0.1,0,0.1,0.1,0.2,0.1
	c0.1,0.1,0.1,0.1,0.1,0.2v0.1l0,0c0,0,0-0.1,0.1-0.1v-0.1c0-0.1,0-0.1-0.1-0.2C29.3,14.4,29.2,14.4,29.1,14.4
	C29.2,14.4,29.2,14.4,29.1,14.4z M4.4,14.6c-0.1,0-0.1,0-0.2,0s-0.3,0-0.5,0c-0.1,0-0.2,0-0.2,0.1s0.7,0.1,0.8,0
	C4.6,14.7,4.6,14.6,4.4,14.6z M28,15c0,0.1-0.2,0.2-0.1,0.3c0,0.1,0.1,0.1,0.1,0.1c0.1,0.1,0.5,0.3,0.5,0c-0.1,0-0.3-0.2-0.3-0.4
	C28.1,15.1,28.1,15,28,15z M29,15.3c-0.1,0-0.3,0.1-0.3,0.1v0.1c0,0.1,0.3,0.2,0.3,0.1C29,15.5,29,15.4,29,15.3L29,15.3z M4.5,15.4
	c-0.6,0-0.8,0-0.9,0.1s-0.1,0.1,0,0.1s0.1,0,0.2,0s0.3-0.1,0.6-0.1C5.4,15.5,5.4,15.4,4.5,15.4z M23.8,14.6h-0.5
	c-1.2,0-3.2,0.1-3.8,0.2c-0.2,0-1.1,0-2.1,0c-5.2-0.1-5.8,0-6.8,0.2c-0.2,0-0.7,0.1-1.1,0.1s-0.9,0.1-1,0.1S8,15.3,7.7,15.3
	c-0.5,0.1-0.7,0.1-0.5,0.2c0.1,0.1,0.2,0.1,0.9,0c0.3,0,0.8-0.1,1.2-0.1s0.8-0.1,1-0.1c0.3-0.1,0.5-0.1,1-0.2
	c1.6-0.2,4.5-0.3,4.8-0.1c0.1,0.1,3,0,3.9-0.1c0.2,0,0.7-0.1,0.9-0.1c0.4,0,0.7,0,1.1-0.1c0.6,0,2.3,0,2.4,0s0.2-0.1,0.2-0.2
	C24.4,14.6,24.3,14.6,23.8,14.6z M5.8,16.2c-0.1,0-0.1,0-0.3,0c-0.4,0-1.1,0.3-1.4,0.4l-0.2,0.1h0.2c0.1,0,0.3,0,0.4-0.1
	c0.2-0.1,0.4-0.1,0.7-0.1C5.9,16.4,5.9,16.4,5.8,16.2C5.9,16.2,5.9,16.2,5.8,16.2z M5.6,17.3c-0.1,0-0.2,0-0.5,0.1s-0.3,0.1-0.3,0.2
	c0.1,0.1,0.1,0.1,0.5,0c0.3-0.1,0.4-0.1,0.4-0.2S5.7,17.3,5.6,17.3z M14,19L14,19c-0.1,0-0.7,0.4-0.7,0.4c0,0.1,0.3,0.1,0.6-0.1
	C14.1,19.2,14.1,19,14,19z"/>
</svg>
