<?xml version="1.0" encoding="utf-8"?>
<!-- Generator: Adobe Illustrator 25.4.1, SVG Export Plug-In . SVG Version: 6.00 Build 0)  -->
<svg version="1.1" id="cow" xmlns="http://www.w3.org/2000/svg" xmlns:xlink="http://www.w3.org/1999/xlink" x="0px" y="0px"
	 viewBox="0 0 32 32" style="enable-background:new 0 0 32 32;" xml:space="preserve">
<path d="M27.1,12.2c-0.1-0.2-0.4,0-0.6-0.1C26.4,12,26.2,12,26.2,12s-0.2,0-0.3,0.1c-0.2,0.1-0.5-0.1-0.6,0.1
	c-0.1,0.2,0,0.7,0.3,0.8s0.3,0.2,0.6,0.2l0,0l0,0l0,0l0,0c0.3,0,0.3-0.1,0.6-0.2C27.2,12.9,27.2,12.4,27.1,12.2z"/>
<path d="M1.8,15.5c0,0-0.1,1.8-0.4,2.5C1.4,18,0.2,17.4,1.8,15.5z"/>
<path d="M30.9,7.9c-0.2-0.1-0.4-0.3-0.8-0.4s-1,0.2-1.3,0.3c-0.1,0-0.2,0-0.2-0.1c-0.1-0.2-0.5-0.7-1-1c0,1.3-0.6,2.8-0.9,3.3
	c-0.3,0.6-0.1,1.4,0.2,1.6c0.3,0.2,0.4,0.4,0.4,0.4c0.1,0.2,0.1,0.9-0.4,1c-0.4,0.1-0.4,0.2-0.8,0.2l0,0l0,0l0,0l0,0
	c-0.4,0-0.4-0.1-0.8-0.2c-0.4-0.1-0.4-0.8-0.4-1c0,0,0-0.2,0.4-0.4c0.3-0.2,0.5-1,0.2-1.6s-0.9-2-0.9-3.3l0,0
	c-0.2,0.1-0.4,0.3-0.5,0.5l0,0C23.5,8.1,23.6,9,23.6,9s-0.1-0.3-0.3-0.2C23,9,22.1,9,21.5,8.2c-0.1-0.1-0.1-0.3,0-0.3
	c0.2-0.1,0.4-0.3,0.8-0.4c0.3-0.1,0.7,0,1,0.2c0.2,0.1,0.4,0.1,0.6-0.1l-2.5-0.8c-0.5-0.2-1.1-0.3-1.7-0.3H9.5c-0.2,0-0.3,0-0.5-0.1
	L8.2,6.2C7.8,6,7.3,6.1,6.9,6.3c-0.3,0.2-0.7,0.2-1,0.1L4.5,6.1C4.2,6,3.9,6.1,3.6,6.2L2.7,6.8C2.4,7,2.3,7.4,2.3,7.7V15
	c0,0-0.1,3.2-0.8,3.9c-0.1,0.1-0.1,0.2-0.1,0.4l0.4,6.4c0,0.2,0.1,0.3,0.3,0.3h1c0.2,0,0.4-0.2,0.3-0.4c-0.5-1.5-0.7-3.2-0.3-4.8
	c0.2-1,0.6-2,1.4-2.7l0.4-0.4l-0.2,0.5C5,18.6,5.5,18.8,5.9,19l-0.1,0.3c0,0.1,0,0.3,0.1,0.3H6c0.1,0,0.2-0.1,0.3-0.2l0.1-0.3
	c0.2,0,0.4,0.1,0.6,0.1v0.6c0,0.1,0.1,0.3,0.3,0.3l0,0c0.2,0,0.3-0.1,0.3-0.3v-0.5c0.2,0,0.4-0.1,0.6-0.1l0.1,0.4
	c0,0.1,0.1,0.2,0.3,0.2h0.1c0.1-0.1,0.2-0.2,0.1-0.4l-0.1-0.3c0.4-0.2,0.7-0.4,0.9-0.6c-0.1-0.1-0.2-0.2-0.4-0.2
	C9.1,18,9,17.9,8.9,17.8s-0.2-0.2-0.3-0.2c-0.1-0.1-0.2-0.2-0.2-0.2c-0.1-0.1-0.1-0.1-0.2-0.2c0-0.2,0-0.2,0-0.2s0.2,0.2,0.6,0.5
	c0.1,0.1,0.2,0.1,0.3,0.2s0.2,0.1,0.3,0.2c0.1,0,0.1,0.1,0.2,0.1h0.1c0.1,0.1,0.3,0.1,0.4,0.2c0.1,0.1,0.3,0.1,0.4,0.2
	c0.3,0.1,0.7,0.2,1,0.3c2.7,0.6,6.4-0.2,7.3-0.3l0.2-1.2v1.1v2.5c0,0.4,0.1,0.9,0.2,1.3l0,0c0.1,0.2,0.1,0.4,0.1,0.6v1.9
	c0,0.1,0,0.2,0,0.4c0,0.1,0,0.1,0.1,0.2l0,0c0.1,0,0.2,0.1,0.2,0.2l0.1,0.3c0,0.1,0.1,0.2,0.3,0.2h0.7c0.2,0,0.3-0.2,0.2-0.3
	c-0.2-0.3-0.2-0.7-0.2-1v-1.2c0-0.3,0.1-0.6,0.3-0.9c0.3-0.4,0.5-0.9,0.6-1.4l0.4-2.8v1.1c0.6,0.2,1.3-0.1,1.6-0.7l2.6-4.9
	c0.1,0,1.3,0,1.4-1c0.1-1.1-0.2-1.2,0.3-2c0.5-0.7,0.8-1.2,0.8-1.7C28.7,9,28.8,9,28.9,9c0.4,0,1.4,0,2.1-0.7C31,8.1,31,8,30.9,7.9z
	"/>
</svg>
