<?xml version="1.0" encoding="utf-8"?>
<!-- Generator: Adobe Illustrator 25.2.3, SVG Export Plug-In . SVG Version: 6.00 Build 0)  -->
<svg version="1.1" id="rapeseed" xmlns="http://www.w3.org/2000/svg" xmlns:xlink="http://www.w3.org/1999/xlink" x="0px" y="0px"
	 viewBox="0 0 32 32" style="enable-background:new 0 0 32 32;" xml:space="preserve">
<style type="text/css">
	.st0{fill:#FFFFFF;}
</style>
<g>
	<path class="st0" d="M25.4,14.1c-0.3,0,0.1-0.2,0.1-0.3l0,0c0.1,0,0.1-0.1,0-0.1c0,0,0-0.1-0.1-0.1c-0.1-0.1-0.1-0.1-0.2-0.2h-0.1
		c-0.1,0-0.1,0-0.2,0c-0.1-0.1-0.2,0.1-0.3,0.1c0-0.1,0-0.1-0.1-0.2c0-0.1-0.1-0.1-0.1-0.1h-0.1v-0.1c-0.1-0.1-0.2,0-0.2,0.1
		c0-0.1-0.1-0.1-0.1-0.1l0,0l0,0c0-0.1,0-0.1-0.1-0.1s-0.2,0-0.3-0.1c0.1-0.2,0.1-0.3,0.2-0.5l0,0c0.1-0.3,0.1-0.8,0.3-1.1
		c0.2,0,0.2-0.2,0.2-0.3v-0.1v-0.1c0-0.1,0-0.1,0.1-0.2c0-0.1,0.1-0.2,0.1-0.3s0-0.1,0-0.2V10V9.9V9.8c-0.1-0.1-0.3,0.1-0.3,0.2
		c-0.1,0.1-0.1,0.3-0.2,0.5c0-0.1,0-0.2,0-0.3s-0.1-0.3-0.2-0.4c-0.1-0.1-0.2,0-0.2,0.1c0,0,0,0-0.1,0c0-0.1,0-0.2,0-0.4
		c0-0.1,0-0.2,0-0.2V9.2c-0.1,0,0.1-0.4,0-0.3c0,0,0-0.1-0.1-0.1c0-0.1-0.1,0-0.2,0.1L23.1,9C23,9.1,23,9.1,23,9.2
		c0,0.1,0,0.2,0,0.3v0.1c0,0.1-0.1,0.3-0.1,0.4c0,0-0.1,0-0.1,0.1v0.1v0.1v0.1c0,0,0,0-0.1,0c0-0.3-0.2-0.7-0.4-0.9
		c-0.1,0-0.2-0.1-0.2,0c0,0-0.1,0.1-0.1,0.2c0,0.2,0,0.4,0,0.5l0,0c0,0.1,0,0.2,0.1,0.3l0,0v0.1c0,0,0,0.1,0.1,0.1c0,0,0,0,0,0.1
		c0.2,0.1,0.2,0.3,0.2,0.5v0.1c0.1,0.4,0.2,0.8,0.3,1.3l0,0h-0.1h-0.1c-0.1,0-0.1,0.2-0.2,0.3c-0.1,0-0.1,0.1,0,0.2
		c0.1,0.2,0.3,0.2,0.4,0.2h0.1l0,0c0,0.2,0,0.3,0,0.5l0,0c0,0.1,0,0.1,0,0.2c0,0.1,0,0.3,0,0.4c0,0.1,0,0.3,0,0.4c0,0.1,0,0.3,0,0.4
		v0.1c-0.1,0.1,0,0.1,0,0.2c0,0.1,0,0.1,0,0.2c0,0.1,0,0.3,0,0.4c-0.1,0,0,0.1,0,0.1v0.1v0.1c0,0.1,0,0.2,0,0.2c0,0.1,0,0.2-0.1,0.3
		l0,0c-0.1-0.1-0.1-0.2-0.2-0.4c-0.1-0.2-0.1-0.4-0.1-0.6v-0.1c0-0.2,0-0.5,0-0.7c0.1,0,0.2-0.1,0.2-0.1V15c0,0,0.1-0.1,0-0.1
		c0-0.2,0-0.3,0-0.5s0-0.3-0.1-0.4c0,0,0,0-0.1-0.1l0,0l0,0c0,0-0.1-0.1-0.2-0.1h-0.1L22,13.9l0,0c0,0.1-0.1,0.1-0.1,0.2
		c0,0.1,0,0.2,0,0.3c0,0.2,0,0.4,0,0.5V15c0,0,0,0,0,0.1s0.1,0.2,0.2,0.2l0,0v0.1c0,0.2,0,0.3,0,0.5c0,0.1,0,0.2,0,0.2
		c0,0.2,0,0.5,0.1,0.7s0.2,0.4,0.3,0.6v0.1v0.1c0,0.1,0,0.2,0,0.3c0,0.1-0.1,0.2-0.1,0.3c0,0.1-0.1,0.3-0.1,0.4
		c-0.1,0.2-0.1,0.3-0.1,0.5l0,0c0,0.1-0.1,0.2-0.1,0.3c0,0-0.1,0.1-0.1,0.2s0,0.1,0,0.2l-0.1,0.1V20c0,0.1-0.1,0.2-0.1,0.4l0,0
		c0,0.1-0.1,0.3-0.1,0.4c0,0,0,0.1,0,0.2c-0.2,0.6-0.4,1.2-0.5,1.8c0,0.1,0,0.1,0,0.2c-0.2,0.4-0.3,0.8-0.4,1.2
		c0,0.1-0.1,0.1-0.1,0.2l-0.1,0.1c0,0.1,0,0.1-0.1,0.2s-0.1,0.2-0.1,0.2s-0.1,0-0.1,0.1v0.1c0,0.1-0.1,0.2-0.1,0.3
		C20.1,25.6,20,25.8,20,26v0.1c-0.1,0.1-0.1,0.2-0.1,0.3c-0.1,0.2-0.2,0.5-0.3,0.7c0,0-0.1,0.1,0,0.2c0,0,0,0.1-0.1,0.2v0.1
		c0,0,0,0.1-0.1,0.1c0,0.1-0.1,0.2-0.1,0.2c-0.1-0.2-0.3,0.3-0.4,0.5c0,0,0-0.1-0.1-0.1c0-0.2,0-0.4-0.1-0.6c0-0.1,0-0.2,0-0.3
		c0-0.1,0-0.1,0-0.2s0-0.2,0-0.3c0-0.1,0-0.2,0-0.3c0-0.1,0-0.2,0-0.2s0,0,0-0.1s0-0.1,0-0.2s0-0.3,0-0.4s0-0.1,0-0.2s0-0.2,0.1-0.3
		v-0.1c0-0.1,0-0.1,0.1-0.2s0-0.2,0-0.3c0.2-0.2,0.4-0.2,0.6-0.5c0.2-0.2-0.1-0.2-0.2-0.1c-0.1,0,0-0.1,0-0.1
		c0.1-0.1-0.1-0.3-0.2-0.1c0,0,0,0-0.1,0c-0.1,0.1-0.1,0-0.1-0.1s0-0.1,0-0.2s0-0.2,0-0.2c0-0.1,0-0.2,0-0.3c0-0.1,0-0.1,0-0.2
		s0-0.2,0-0.4c0-0.1,0.1-0.2,0-0.2c0-0.1,0-0.1,0-0.2s0.1-0.2,0-0.2l0,0c0,0,0.1-0.1,0-0.1c0-0.1,0-0.2,0-0.3c0-0.1,0-0.2,0-0.2
		c0.1,0,0-0.1,0-0.2s0-0.1,0-0.2v-0.1v-0.1c0-0.2,0.2-0.2,0.2-0.4c0.1-0.1,0.2-0.1,0.2-0.2c-0.1,0-0.2,0.1-0.3,0.2l0,0
		c0-0.4,0.2-0.7,0.3-1.1c0.2-0.6,0.2-1.3,0.3-1.9c0-0.1,0.3-0.2,0.1-0.2l0,0c0-0.1,0-0.2,0.1-0.2v-0.1c0,0,0.1-0.1,0-0.1
		c0-0.1,0-0.2,0-0.2c0.1,0,0.1-0.1,0-0.1v-0.1c0-0.1,0-0.1,0-0.2c0.1,0,0.1-0.1,0-0.1c0-0.1,0-0.1,0-0.2c0-0.1,0-0.2,0-0.3
		c0,0,0-0.1,0-0.2c0-0.1,0-0.2,0-0.3c0,0,0-0.1,0-0.2v-0.1c0.1-0.4,0.2-0.8,0.3-1.3v-0.1c0-0.1,0-0.1,0.1-0.2c0.3-0.3-0.2-0.4-0.1,0
		c-0.1,0.2-0.1,0.3-0.2,0.5c0,0.1-0.1,0.2-0.1,0.3c0,0,0,0.1-0.1,0.1c0,0.1,0,0.2,0,0.2l0,0c-0.1,0.2-0.1,0.4-0.2,0.7v0.1
		c0,0-0.1,0.1,0,0.1v0.1l0,0c-0.1,0.1-0.1,0.2,0,0.2c0,0.2,0,0.3,0,0.5c-0.1,0-0.1,0.1,0,0.1c0,0.1,0,0.1,0,0.2v0.1v0.1l0,0
		c0,0.1,0,0.2,0,0.3v0.1v0.1c0,0,0,0,0,0.1c-0.2,0-0.2,0.1-0.1,0.2c0,0.3-0.1,0.5-0.1,0.7c0,0.1,0,0.1,0,0.2s0,0.2,0,0.2
		c0,0.1,0,0.2,0,0.3v0.1c0,0.1-0.1,0.3-0.1,0.4c-0.1,0.2-0.1,0.5-0.2,0.7l0,0c0-0.1,0-0.2,0-0.2c0.1,0,0.1-0.1,0-0.2v-0.1
		c0-0.1,0-0.2,0-0.4c0-0.1,0-0.2,0-0.2c0-0.1,0-0.2,0-0.3c0-0.3,0-0.5,0-0.8c0-0.1,0-0.2,0-0.3c0,0,0,0,0-0.1V17c0-0.1,0-0.1,0-0.2
		s0-0.2,0-0.3c0-0.1,0-0.2,0-0.2c0.1-0.1,0.2-0.1,0.2-0.2c0.2-0.1,0.1-0.2-0.1,0c-0.1,0-0.1,0.1-0.1,0.1l0,0c0,0,0-0.1,0-0.2
		s0-0.1,0-0.2c0.1-0.1,0.2-0.2,0.2-0.2c-0.1-0.2-0.2,0.1-0.3,0c0-0.3-0.1-0.6-0.2-0.9v-0.1c0-0.1,0-0.2,0-0.3
		c0.1-0.1,0.3-0.2,0.4-0.4c0.2-0.3,0.5-0.5,0.6-0.8c0.1-0.1,0.1-0.2,0.1-0.3v-0.1v-0.1c0.1-0.1,0.2-0.3,0.2-0.5c0-0.1,0-0.2,0-0.3
		c0.1,0,0-0.2,0-0.3c0.1-0.1,0.1-0.2,0-0.2l0,0c0,0,0.1-0.1,0-0.1c0-0.1,0-0.2,0-0.3c0-0.3,0.1-0.6,0.1-0.8c0,0,0.1-0.1,0-0.2
		c0-0.2,0-0.3,0-0.5V9.3c0-0.1,0-0.2,0-0.3V8.9V8.8c0.2-0.2-0.2-0.3-0.2-0.1l0,0c0,0-0.1,0.1,0,0.1c0,0.1,0,0.3,0,0.4
		c0,0.3-0.1,0.6-0.1,0.8c0,0.3-0.1,0.6-0.1,0.8c0,0.3,0,0.7,0,1.1c0,0,0,0,0,0.1s0,0.1,0,0.2c0,0.1,0,0.1,0,0.2c0,0.1,0,0.2,0,0.3
		c-0.2,0.1-0.1,0.3-0.2,0.5c-0.1,0.1-0.2,0.2-0.2,0.4c-0.1,0-0.1,0.1-0.2,0.2c0,0,0,0-0.1,0.1s-0.2,0.2-0.3,0.3c0,0,0,0.1-0.1,0.1
		c-0.1,0.1-0.1,0.1-0.2,0.2c-0.1-0.3-0.1-0.6,0-0.9c0-0.1-0.1-0.1-0.2-0.1c0,0.2-0.1,0.1-0.1,0c0-0.4-0.1-0.8-0.1-1.2
		c0-0.1,0.1-0.1,0.1-0.2c0,0,0.1,0,0.1-0.1c0,0,0-0.1,0.1-0.1c0.3-0.5,0.6-1,0.6-1.6c0-0.1,0-0.2,0-0.3c-0.1-0.1,0.3-0.6,0-0.5V9.4
		c0-0.1,0-0.2,0-0.3c-0.1-0.6-0.2-1.1-0.3-1.6V7.4C18.8,7.2,18.9,7,19,6.8c0,0,0,0,0-0.1c-0.1,0.4-0.1,0.3,0,0.2l0.1-0.1h0.1h0.1
		c0.1,0,0.2-0.2,0.3-0.3c0.1-0.2,0.3-0.4,0.4-0.7c0-0.1-0.1-0.1-0.2-0.1c-0.1-0.1,0-0.1,0.1-0.2c0.3-0.1,0.4-0.4,0.5-0.6V4.8l0,0
		c0.2-0.3,0.1-0.8,0.1-1.2c0-0.1,0-0.1-0.1-0.1l0,0c0,0-0.1-0.1-0.2-0.1c0,0-0.1,0-0.1,0.1c0,0,0,0-0.1,0.1c0,0,0,0-0.1,0
		c0-0.1-0.1-0.1-0.2-0.1h-0.1c0-0.1-0.1-0.1-0.1,0l0,0c-0.2,0-0.2,0.2-0.2,0.4h-0.1h-0.1C18.9,4.1,19,4.5,19,4.8
		c0,0.1,0,0.3,0.1,0.4c-0.1,0-0.2,0.1-0.2,0.3c-0.1,0.1-0.1,0.2-0.1,0.3c0,0.2-0.1,0.4-0.1,0.6c0,0.1,0.1,0.3,0.2,0.2
		c-0.2,0.4-0.3,0.9-0.7,1.1c0-0.1-0.1-0.4-0.1-0.1c0,0.1,0,0.1,0,0.2c0,0,0,0,0.1,0.1c0,0,0,0.1,0,0.2l-0.1,0.1
		c-0.2,0.3-0.2,0.6-0.4,0.9c0-0.1,0-0.1,0-0.2V8.8c0-0.1,0-0.1,0-0.2c0-0.1,0-0.2,0-0.2c0-0.1,0-0.2,0-0.3c0.1-0.2,0.2-0.4,0.2-0.6
		c0-0.1,0.1-0.3,0.1-0.4V7l0,0c0,0,0.1-0.1,0-0.1V6.8c0,0,0-0.1,0-0.2l0,0c0,0,0-0.1,0-0.2c0-0.2,0.1-0.3,0.1-0.5c0,0,0-0.1,0-0.2
		c0-0.3,0.1-0.7,0.1-1V4.6V4.5c0.1,0,0.1,0,0.2-0.1s0.2-0.3,0.2-0.4V3.9c0-0.1,0.1-0.1,0.1-0.2c0-0.1,0-0.2,0-0.3h-0.1
		c0,0-0.1,0-0.1,0.1c0-0.1-0.1,0-0.1,0s0,0,0-0.1s0-0.2,0.1-0.2s0.1,0,0.2,0h0.1c0.6-0.1,0.7-0.8,0.6-1.3c0-0.1-0.2-0.1-0.2-0.1
		c0,0.1-0.1,0.1-0.1,0.2C19,2,19,2,19,2.1c0-0.1-0.1,0-0.1,0.1s0,0.2-0.1,0.3c-0.1,0-0.1,0.1-0.1,0.1h-0.1V2.5
		c0.2-0.2,0.3-0.7,0-0.9c0-0.1-0.1-0.2-0.2-0.2c0,0,0,0-0.1,0l0,0h-0.1l0,0h-0.1C18,1,18,1,18,1.1l0,0c0,0-0.1,0-0.1,0.1
		c-0.1,0.2-0.1,0.5,0,0.7c0,0.1,0,0.2-0.1,0.2l0,0L17.7,2l-0.1-0.1c0-0.2-0.2-0.3-0.3-0.4c-0.1,0-0.2,0-0.3,0c0,0-0.1,0-0.1,0.1
		s0,0.2-0.1,0.3l0,0c0,0.1,0,0.2,0.1,0.2c0.1,0.1,0.2,0.1,0.2,0.1c0.1,0.1,0.2,0.2,0.3,0.2v0.1c-0.1,0.1-0.1,0.2,0,0.3
		c0,0.1,0.1,0.1,0.2,0.1h0.1c0,0.1,0,0.1,0,0.2c0,0.1,0,0.2,0.1,0.4c0,0.1,0,0.2,0,0.3v0.1c0,0.1,0,0.2,0.1,0.2H18h0.1
		c0,0.1,0,0.1,0,0.2s0,0.1,0,0.2C18.1,5,18,5.5,18,6v0.1c0,0.4-0.2,0.9-0.3,1.3c0,0.1-0.1,0.2-0.2,0.3l0,0c-0.1-0.2-0.1-0.4-0.2-0.6
		V7c0-0.2,0.1-0.4,0.2-0.6c0.1-0.1,0.1-0.3,0.2-0.4c0,0,0,0,0-0.1c0.1-0.1,0.1-0.1,0.2-0.2V5.6V5.5c0-0.1,0-0.2,0-0.3
		c0-0.1-0.1-0.1-0.2,0c0-0.1,0.1-0.5-0.2-0.4c0,0,0,0-0.1,0l0,0c0.1-0.2,0.1-0.4,0.1-0.6s-0.1-0.4-0.2-0.5l-0.1-0.1
		c-0.1-0.1-0.4,0.1-0.3,0.2l0,0c0,0.2,0,0.3,0.1,0.5c0,0.1,0,0.1,0.1,0.2c0,0,0,0,0.1,0.1c0,0,0,0,0.1,0.1c0,0,0,0,0.1,0
		c0,0.1-0.1,0.1-0.2,0.2c0,0,0,0-0.1,0L17,5c-0.1,0-0.1-0.1-0.1-0.2c0.2-0.2-0.2-0.6-0.4-0.5l0,0c0,0,0,0,0-0.1V4.1V4
		c0-0.2-0.1-0.5-0.1-0.7c0-0.1-0.1-0.2-0.2-0.3l0,0c-0.2-0.1-0.4,0-0.4,0.2c0,0,0,0.1,0,0.2c0,0.1,0,0.3,0.1,0.4v0.1c0,0,0,0,0,0.1
		v0.1c0,0.2,0.2,0.3,0.4,0.5l-0.1,0.1c0,0,0,0-0.1,0c0-0.1-0.1-0.2-0.2-0.2c-0.1,0-0.2,0.1-0.3,0.1v0.1l0,0v0.1l0,0
		c0,0.1,0,0.2,0.1,0.2c-0.1,0,0,0,0.1,0.1c0,0.1,0.1,0.1,0.2,0.1c0,0,0.1,0.1,0.2,0.1v0.1l0,0c0,0.2,0,0.4,0,0.6c0,0.1,0,0.2,0,0.2
		c0,0.2,0.1,0.3,0.3,0.3c0,0.1,0,0.1,0.1,0.1c0.1,0.6,0.4,1.1,0.7,1.6c0.2,0.3,0.2,0.7,0.3,1.1v0.1c0,0.1,0,0.3,0,0.4
		c0,0.1,0,0.1,0,0.2v0.1v0.1c0,0.1,0,0.2,0,0.3s0,0.2,0,0.3s0,0.2,0,0.3s0,0.2,0,0.3c0,0.2,0,0.4,0,0.6l0,0c0,0.2,0,0.3,0,0.5
		s0,0.3,0,0.5v0.1c0,0.1,0,0.2,0.1,0.3c0,0.1,0,0.2,0,0.3v0.1c0,0.1,0.1,0.3,0.1,0.4c0,0.2,0.1,0.4,0.1,0.5S18,15,18,15.1v0.1v0.1
		c0,0.1,0,0.1,0.1,0.2v0.1v0.1v0.1v0.1c0,0,0,0,0,0.1c0,0.1,0,0.3,0,0.4s0,0.2,0,0.3c-0.1-0.1-0.2-0.1-0.2-0.2
		c-0.1-0.1-0.2-0.2-0.3-0.4c-0.1-0.2-0.2-0.3-0.3-0.5c-0.1-0.1-0.1-0.2-0.2-0.4v-0.1V15c0-0.4,0.1-0.8,0.1-1.2c0-0.2,0-0.4,0-0.6
		c0-0.1,0-0.2,0-0.3c0-0.2,0-0.5-0.1-0.7v-0.1c0-0.1,0-0.3-0.1-0.3c0,0.1-0.1,0.2,0,0.3c0,0,0,0,0,0.1c0,0,0,0.1,0,0.2l0,0
		c0,0.1,0,0.2,0,0.2l0,0c0,0.1,0,0.1,0,0.2v0.1c0,0.1,0,0.2,0,0.2c0,0.2,0,0.4-0.1,0.5c0,0-0.1,0.1,0,0.1c0,0.1,0,0.3,0,0.4
		c0,0.1,0,0.5-0.2,0.3c-0.1-0.2-0.2-0.5-0.2-0.8v-0.1c-0.1-0.3-0.1-0.5-0.1-0.8v-0.1v-0.1v-0.1c0-0.1,0-0.1,0-0.2c0-0.1,0-0.1,0-0.2
		c0-0.1,0-0.2,0-0.3s0-0.3,0-0.4c0-0.1,0-0.1,0-0.2c0-0.1,0-0.2,0-0.3c0-0.3-0.1-0.7-0.1-1c0-0.1,0-0.1-0.1,0
		c-0.1,0-0.1,0.1-0.1,0.1c0,0.1,0,0.1,0,0.1c0,0.1,0,0.3,0,0.4c0,0,0,0.1,0,0.2c0,0.1,0,0.3,0,0.4c0,0,0,0,0,0.1c0,0.2,0,0.3,0,0.5
		l0,0c0,0,0,0.1,0,0.2c0,0,0,0,0,0.1c0,0.2,0,0.4,0,0.5s0,0.2,0,0.2v0.1v0.1v0.1V13v0.1c0,0.1,0.1,0.2,0.1,0.3s0,0.2,0.1,0.3v0.1
		l0,0c0,0.1,0,0.1,0.1,0.1c0.1,0.2,0.3,0.3,0.4,0.5c0,0.2,0,0.3,0,0.5c0,0.1,0,0.2,0,0.3c0,0.2,0,0.3,0,0.5v0.1
		c0,0.1,0.1,0.3,0.1,0.4l0,0v0.1l0,0v0.1c0,0.2,0.1,0.3,0.2,0.5c-0.1,0.2-0.1,0.3-0.2,0.5s-0.1,0.4-0.2,0.5c0,0.1-0.1,0.1-0.1,0.2
		s-0.1,0.2-0.1,0.4c-0.1,0.2-0.1,0.3-0.1,0.5c0,0.1,0,0.1-0.1,0.2v0.1c0,0.2-0.1,0.3-0.1,0.5c0.4,0.2,0.3,0.6,0.5,0.9v0.1
		c0.1,0.2,0.2,0.5,0.4,0.7c0.1,0.1,0.1,0.3,0.2,0.4s0.1,0.2,0.2,0.3c0,0.1,0.1,0.2,0.1,0.3c0,0,0,0,0,0.1c0,0,0,0.1,0,0.2
		s0,0.3,0,0.4c0,0,0,0,0,0.1c0,0-0.1,0.1,0,0.1c0,0.1,0,0.1,0,0.2s0,0.2,0,0.3c0,0.1,0,0.1,0,0.2v0.1v0.1c-0.2,0-0.3,0.1-0.2,0.3
		h-0.1c-0.1,0-0.2,0-0.2,0c0,0.1-0.1,0.1,0,0.2c0,0.2,0.1,0.3,0.2,0.4s0.3,0,0.3,0.2c0,0.1,0,0.1,0,0.2s0,0.1,0,0.2c0,0.3,0,0.7,0,1
		c0,0.1,0,0.1,0,0.2s0,0.1,0,0.2s0,0.2,0,0.2c0,0.1,0,0.2,0,0.2v0.1c0,0.1,0,0.3,0,0.4c0,0,0,0,0,0.1s0,0.3,0,0.5c0,0.1,0,0.2,0,0.3
		v0.1l0,0c-0.1,0.1-0.1,0.2-0.2,0.2l-0.1,0.1c-0.1,0.1,0,0.1,0.1,0.1c0,0.1,0.1,0.1,0.1,0h0.1l0,0c0,0.2,0,0.3,0,0.5v0.1l0,0
		l0.1,0.1v0.2l0.1,0.1v0.1c0,0,0.1,0,0.1-0.2l0.2-0.3c0.1-0.2,0.2-0.4,0.3-0.5c0.1-0.2,0.3-0.4,0.3-0.6c0.1,0,0.1-0.1,0.2-0.1
		c0.3-0.2,0.3-0.5,0.5-0.7c0,0,0-0.1,0.1-0.1c0.4-0.5,0.7-1,1.2-1.3c0.2-0.1,0.4-0.2,0.5-0.4c0.1-0.1,0-0.3-0.1-0.3
		c-1.1-0.1-1.6,1-2.2,1.6c-0.1,0.1-0.1,0.1-0.1,0.2L18.7,28c0.3-1.4,0.9-2.8,1.4-4.1c0.4-1,0.7-2.1,1-3.2c0.3-0.7,0.5-1.5,0.7-2.3
		c0.1-0.4,0.2-0.7,0.2-1.1c0.1,0,0.1-0.1,0.1-0.1c0.2-0.2,0.4-0.5,0.5-0.8c0.2-0.3,0.2-0.7,0.4-1h0.1c0.2,0.1,0.5,0.1,0.6-0.2v-0.1
		l0.1-0.1c0,0,0.1,0,0.1-0.1c0.1-0.1,0.2-0.3,0.2-0.4c0.1-0.4-0.2-0.1-0.2,0.1c-0.1,0.1-0.1,0.2-0.2,0.3c0,0,0,0.1-0.1,0.1
		c-0.1,0.1-0.1,0.1-0.2,0.2c0.1-0.2,0.1-0.3,0.1-0.5l0.1-0.1c0.1-0.1,0.1-0.3,0.2-0.3l0,0h0.1c0.2,0.1,0.5,0.2,0.7,0.1h0.1
		c0.2,0,0.4-0.2,0.5-0.4l0,0C25.6,14.1,25.5,14.1,25.4,14.1z M22.6,11.9v-0.1c0-0.1,0-0.2,0-0.3c0,0,0.1,0,0.1,0.1v0.1v0.1
		c0,0.1,0,0.2-0.1,0.3l0,0c-0.1,0-0.1-0.1-0.1-0.2C22.5,12,22.6,11.9,22.6,11.9z M22.8,11.9c0-0.1,0-0.1,0-0.2c0-0.1,0-0.1,0-0.2
		c0-0.1,0-0.2,0-0.4c0,0,0-0.1,0-0.2v-0.1c0,0,0.1-0.1,0-0.1c0,0,0,0,0-0.1c0,0,0,0,0.1,0s0,0.1,0,0.1c0,0.1-0.1,0.2,0,0.3
		c-0.1,0.2,0.1,0.3,0.1,0.4C23,11.7,23,11.8,22.8,11.9c0.1,0.2,0,0.2,0,0.3C22.8,12.1,22.8,12,22.8,11.9z M23.5,12.2
		c-0.1,0.2-0.1,0.4-0.2,0.6c0,0.1-0.1,0.1-0.1,0.1c-0.1,0-0.1,0.1-0.1,0.1S23,13,23,13.1c-0.1,0.1,0,0.3-0.1,0.3
		c0-0.1-0.1-0.1-0.1-0.2c-0.1-0.1-0.2-0.1-0.2-0.3c0-0.1,0-0.2,0-0.3s0-0.1,0.1-0.1c0,0,0.1,0,0.1-0.1s0.1-0.1,0.1-0.2l0.1-0.1
		c0,0,0-0.1,0.1-0.1c0-0.4,0.4-0.5,0.5-0.8c0,0,0,0.1,0.1,0.1C23.8,11.6,23.6,11.9,23.5,12.2z M22.3,11.1v0.1v0.1v0.1v0.1
		c0.1,0.4-0.1,0.7,0,1.1v0.1l0,0C22.4,12.2,22,11.6,22.3,11.1z M18.1,8.3c0,0.1,0,0.1,0,0.2c0,0.1,0,0.1,0,0.2c0,0.1,0,0.1,0,0.2V9
		c0,0.1,0,0.2,0,0.2c0,0.1,0,0.1,0,0.2v0.1c0,0.1,0,0.1,0,0.2c0,0.1,0.1,0.2,0.1,0.3c-0.1-0.1-0.2,0.1-0.1,0.1v0.1
		c0,0.1,0,0.1,0.1,0.2c0,0.2,0,0.3,0,0.5c0,0.5-0.2,0.9-0.5,1.3c-0.1,0.1-0.1,0.1-0.2,0.2v-0.1l0,0c0-0.1,0.1-0.3,0-0.4
		c0-0.2,0-0.4,0-0.6c0-0.1,0.1-0.2,0-0.2c0-0.3,0-0.6,0-0.8v-0.1c0-0.2,0-0.3,0-0.5l0,0V9.6V9.5C17.9,9,18,8.6,18.1,8.3z M16.9,5.8
		C16.9,5.7,16.9,5.7,16.9,5.8c0-0.1-0.1-0.1-0.1-0.2s0.1-0.1,0.1-0.2c0.1,0,0.1-0.1,0.2-0.1s0.1,0,0.2,0c0,0,0,0,0,0.1s0,0.1,0,0.2
		v0.1c0,0.1,0,0.3,0,0.4l0,0c0,0-0.1,0.1,0,0.1c0,0.2,0,0.3-0.1,0.5c0,0,0,0,0,0.1C17,6.4,17,6.1,16.9,5.8z M17.4,6.3L17.4,6.3
		C17.3,6.3,17.3,6.3,17.4,6.3c0-0.2,0-0.4,0-0.5l0,0c0,0.1,0,0.1,0.1,0.2C17.4,6.1,17.4,6.2,17.4,6.3z M17.6,5.2L17.6,5.2
		c-0.1,0.2-0.2,0.3-0.2,0.5V5.6c0-0.1,0-0.2,0-0.2l0,0V5.3C17.5,5.2,17.6,5.2,17.6,5.2z M17.1,7.8C17,7.7,17,7.7,17,7.6
		s0-0.1-0.1-0.2c0,0,0-0.1-0.1-0.1V7.2c0-0.1-0.1-0.2-0.1-0.3c0-0.1,0-0.1,0-0.2V6.6c0,0,0,0,0-0.1s0.2-0.1,0.2-0.3V6.1
		c0,0,0-0.1,0.1-0.1c0,0.1,0,0.2,0,0.2v0.1c0,0.1,0,0.2,0.1,0.3c0,0.1,0,0.1,0,0.2c-0.2-0.2-0.2,0.1,0,0.2c0,0,0,0.1,0.1,0.1
		c0,0,0,0.1,0.1,0.1c0.1,0.2,0.1,0.4,0.2,0.6c0,0.1,0,0.2,0,0.2C17.2,8,17.1,7.9,17.1,7.8z M17.5,17.2L17.5,17.2
		c-0.1-0.4-0.1-0.8-0.2-1.2v-0.1v-0.1c0,0,0,0,0-0.1l0,0c0,0.1,0.1,0.1,0.1,0.2c0.1,0.1,0.1,0.2,0.2,0.4c0.2,0.3,0.5,0.6,0.7,0.9
		c0,0.2,0,0.3,0,0.5v0.1l-0.1-0.1c-0.1-0.2-0.1-0.1,0,0c0,0.1,0.1,0.2,0.1,0.2l0.1,0.1c0,0.2,0,0.5,0,0.7s0,0.4,0,0.6
		c0,0-0.1,0.1,0,0.1l0,0c-0.1-0.2-0.2-0.4-0.3-0.7l0,0c-0.1-0.2-0.1-0.4-0.2-0.6c0-0.1,0-0.2-0.1-0.3v-0.1c-0.2-0.3,0-0.6,0.2-0.8
		c0.1-0.2-0.2-0.2-0.2,0c0,0.1-0.1,0.3-0.1,0.4C17.6,17.3,17.5,17.3,17.5,17.2z M17.7,22c-0.3-0.6-0.7-1.3-0.8-1.9
		c0.2-0.8,0.5-1.5,0.7-2.3c0.1,0.1,0.1,0.2,0.1,0.3c0,0.1,0,0.1,0.1,0.2c0.1,0.2,0.1,0.4,0.2,0.6l0,0c0,0.1,0.1,0.3,0.2,0.4
		c0,0,0,0.1,0.1,0.1c0,0.1,0.1,0.1,0.1,0.2c0,0.3,0,0.5,0,0.8c0,0.1,0,0.2,0,0.3c0,0,0,0.1,0,0.2c0,0,0,0,0,0.1s0,0.2,0,0.3
		c0,0.1,0,0.1,0,0.2s0,0.3,0,0.4c0,0-0.1,0.1,0,0.1c0,0.1,0,0.2-0.1,0.2c0,0.1,0,0.2,0,0.3c0,0,0,0.1,0,0.2l0,0
		c0,0.2-0.1-0.1-0.2-0.2C17.8,22.3,17.8,22.2,17.7,22z M23,16c0,0.4-0.3,0.8-0.4,1.1c-0.1-0.3,0.1-0.6,0.1-0.9c0,0,0.1-0.1,0-0.2
		c0-0.1,0-0.1,0-0.2c0-0.1,0-0.1,0-0.2c0-0.3,0-0.5,0-0.8c0-0.1,0-0.1,0-0.2c0-0.2,0-0.3,0-0.5c0-0.1,0.1-0.2,0.1-0.3l0,0h0.1H23
		c0,0.1,0.1,0.1,0.1,0.2v0.1c0,0.3,0,0.5-0.1,0.8l0,0c0-0.1,0-0.1,0-0.2c0-0.1,0-0.1,0-0.2v-0.1c0-0.1,0-0.1,0-0.2
		c0-0.2-0.2-0.4-0.2,0l0,0c0,0,0,0.1,0,0.2c0,0.2,0,0.4,0,0.6l0,0v0.1c0,0.1,0,0.1,0.1,0.1c0,0.1,0.1,0.1,0.2,0.1l0,0
		C23.1,15.7,23.1,15.9,23,16z"/>
	<path class="st0" d="M13.8,30.8c-0.6-0.9-1.4-2.5-2-3.5c-0.4-0.7-0.8-1.4-1.2-2.1c-0.2-0.3-0.3-0.7-0.5-1c-0.1,0-0.1,0-0.1-0.1
		c-0.3-0.2-0.5-0.4-0.6-0.7c-0.3-0.3-0.4-0.6-0.6-0.9H8.7c-0.2,0.2-0.5,0.2-0.6-0.1c0,0,0,0,0-0.1L8,22.2H7.9
		c-0.1-0.1-0.2-0.2-0.3-0.4c-0.2-0.3,0.2-0.1,0.3,0C8,21.9,8.1,22,8.1,22.1l0.1,0.1c0.1,0,0.1,0.1,0.2,0.1c-0.1-0.1-0.1-0.3-0.2-0.5
		l-0.1-0.1c-0.1,0-0.1-0.1-0.3-0.2l0,0H7.7c-0.2,0.1-0.4,0.3-0.7,0.3H6.9c-0.2,0.1-0.5-0.1-0.6-0.3l0,0c0.1,0,0.2-0.1,0.3-0.1
		c0.3,0-0.1-0.2-0.1-0.3l0,0c-0.1,0-0.1-0.1,0-0.1v-0.1c0-0.1,0.1-0.2,0.2-0.2c0-0.1,0.1,0,0.1,0c0.1,0,0.1,0,0.2,0
		c0.1-0.1,0.3,0,0.4,0.1c0-0.1,0-0.1,0-0.2s0.1-0.1,0.1-0.1h0.1v-0.1c0-0.1,0.1,0,0.2,0c0-0.1,0.1-0.1,0.1-0.1s0,0,0-0.1l0,0
		c0-0.1,0-0.1,0.1-0.1c0.1,0,0.2-0.1,0.3-0.1c-0.1-0.1-0.2-0.3-0.3-0.4l0,0c-0.2-0.3-0.2-0.7-0.5-1c-0.2,0-0.2-0.1-0.3-0.2l-0.1-0.1
		v-0.1c0-0.2,0-0.2-0.1-0.3s-0.1-0.2-0.1-0.2c0-0.1,0-0.1,0-0.2v-0.1v-0.1v-0.1c0.1-0.1,0.3,0,0.4,0.1s0.2,0.3,0.3,0.4
		c0-0.1,0-0.2-0.1-0.3c0-0.1,0-0.3,0.1-0.4s0.2,0,0.3,0.1c0,0,0,0,0.1,0c0-0.1,0-0.2,0-0.4c0-0.1,0-0.2,0-0.2v-0.1
		c0-0.1-0.2-0.4,0-0.3V16c0-0.1,0.1,0,0.2,0l0.1,0.1c0.1,0,0.1,0.1,0.1,0.2s0.1,0.2,0.1,0.3v0.1c0.1,0.1,0.1,0.3,0.2,0.4h0.1
		c0,0,0,0,0,0.1c0,0,0,0.1,0.1,0.1c0,0,0.1,0.1,0,0.1c0,0,0,0,0.1,0c0-0.3,0-0.7,0.2-0.9c0.1,0,0.1-0.1,0.2,0c0.1,0,0.1,0.1,0.1,0.2
		c0.1,0.2,0.1,0.3,0.1,0.5l0,0c0,0.1,0,0.2,0,0.3c0,0,0,0,0,0.1s0,0.1,0,0.2v0.1V18c-0.2,0.1-0.1,0.3-0.1,0.5v0.1c0,0.4,0,0.9,0,1.3
		l0,0c0,0,0.1,0,0.1-0.1h0.1c0.1,0,0.1,0.2,0.2,0.3c0.1,0,0.1,0.1,0.1,0.1c0,0.2-0.2,0.2-0.4,0.3H9.5l0,0c0,0.2,0.1,0.3,0.1,0.5l0,0
		c0,0,0,0.1,0,0.2s0.1,0.3,0.1,0.4s0.1,0.3,0.1,0.4s0.1,0.3,0.1,0.4v0.1c0.1,0,0.1,0.1,0,0.2c0,0.1,0.1,0.1,0.1,0.2s0.1,0.3,0.1,0.4
		c0.1,0,0.1,0.1,0.1,0.1v0.1v0.1c0,0.1,0.1,0.1,0.1,0.2s0.1,0.2,0.1,0.2l0,0c0-0.1,0.1-0.3,0.1-0.4c0-0.2,0-0.4,0-0.6v-0.1
		c0-0.2-0.1-0.5-0.1-0.7c-0.1,0-0.2,0-0.2-0.1c0,0-0.1-0.1,0-0.1C10,22.1,10,22,10,22c0-0.2-0.1-0.3-0.1-0.5s0-0.3,0-0.5
		c0,0,0,0,0-0.1l0,0l0,0c0-0.1,0.1-0.1,0.1-0.2c0,0,0,0,0.1,0s0.1,0.1,0.1,0.1l0,0c0,0.1,0.1,0.1,0.1,0.2s0.1,0.2,0.1,0.3
		c0,0.2,0.1,0.3,0.1,0.5v0.1c0,0,0,0,0,0.1s0,0.2-0.1,0.2c0,0,0,0,0,0.1v0.1c0,0.2,0.1,0.3,0.1,0.5c0.1,0.1,0.1,0.2,0,0.2
		c0,0.2,0.1,0.5,0,0.7c0,0.2-0.1,0.4-0.2,0.6c0,0,0,0,0,0.1v0.1c0,0.1,0.1,0.2,0.1,0.3c0.1,0.1,0.1,0.2,0.1,0.3
		c0.1,0.1,0.1,0.3,0.2,0.4c0.1,0.2,0.2,0.3,0.2,0.5l0,0c0.1,0.1,0.1,0.2,0.2,0.3l0.1,0.1c0,0.1,0,0.1,0.1,0.2l0.1,0.1v0.1
		c0.1,0.1,0.1,0.2,0.2,0.3l0,0c0.1,0.1,0.2,0.3,0.2,0.4l0.1,0.1c0.3,0.5,0.6,1.1,0.9,1.7c0,0.1,0,0.1,0.1,0.2
		c0.3,0.3,0.5,0.7,0.7,1.1c0.1,0.1,0.1,0.1,0.1,0.2c0,0,0.1,0,0.1,0.1s0.1,0.1,0.1,0.2L13.8,30.8z M15.9,31
		c-0.1-0.1-0.1-0.2-0.1-0.3c-0.2-0.2-0.5-0.1-0.7-0.3c-0.2-0.2,0-0.2,0.2-0.2v-0.1c-0.1-0.1,0.1-0.3,0.2-0.2c0,0,0,0,0.1,0
		c0.1,0.1,0.1,0,0.1-0.1s0-0.1-0.1-0.2c0-0.1-0.1-0.2-0.1-0.2c0-0.1,0-0.2-0.1-0.3c0-0.1,0-0.1,0-0.2s-0.1-0.2-0.1-0.3
		c-0.1-0.1-0.1-0.1-0.1-0.2v-0.1c-0.1-0.1-0.1-0.1-0.1-0.2l0,0L15,28c0-0.1,0-0.2-0.1-0.3c0-0.1,0-0.2-0.1-0.2s-0.1-0.1-0.1-0.2
		s0-0.1,0-0.2V27c0,0-0.1-0.1,0-0.1c0-0.2-0.2-0.2-0.3-0.4c-0.1,0-0.2,0-0.2-0.2c0.1,0,0.2,0.1,0.3,0.2l0,0c-0.1-0.4-0.4-0.7-0.5-1
		c-0.3-0.6-0.4-1.2-0.7-1.8c0-0.1-0.3-0.1-0.1-0.2l0,0c0-0.1-0.1-0.1-0.1-0.2v-0.1L13,23.1c0-0.1-0.1-0.2-0.1-0.2
		c-0.1,0-0.1-0.1-0.1-0.1v-0.1c0-0.1,0-0.1,0-0.2c-0.1,0-0.1-0.1,0-0.1c0-0.1-0.1-0.1,0-0.2c0-0.1-0.1-0.2-0.1-0.3
		c0,0-0.1-0.1-0.1-0.2s0-0.2-0.1-0.3c0,0-0.1-0.1-0.1-0.2v-0.1c-0.2-0.4-0.4-0.8-0.5-1.2v-0.1c0-0.1-0.1-0.1-0.1-0.2
		c-0.3-0.2,0.1-0.5,0.1,0c0.1,0.2,0.2,0.3,0.3,0.5c0.1,0.1,0.1,0.2,0.1,0.2l0.1,0.1c0,0.1,0.1,0.1,0.1,0.2l0,0
		c0.1,0.2,0.2,0.4,0.3,0.6v0.1c0.1,0,0.1,0.1,0.1,0.1v0.1l0,0c0.1,0.1,0.1,0.1,0,0.2c0,0.1,0.1,0.3,0.1,0.5c0.1,0,0.1,0.1,0.1,0.1
		c0,0.1,0,0.1,0,0.2v0.1v0.1l0,0c0,0.1,0.1,0.2,0.1,0.3v0.1l0.1,0.1l0,0c0.2,0,0.2,0,0.1,0.2c0.1,0.2,0.2,0.5,0.3,0.7
		c0,0.1,0,0.1,0.1,0.2c0,0.1,0,0.1,0.1,0.2c0,0.1,0.1,0.2,0.1,0.3v0.1c0,0.1,0.1,0.3,0.2,0.4c0.1,0.2,0.2,0.4,0.3,0.7l0,0
		c0-0.1,0-0.2-0.1-0.2s-0.1-0.1-0.1-0.2v-0.1c0-0.1-0.1-0.2-0.1-0.3c0,0,0-0.1-0.1-0.2c0-0.1,0-0.2-0.1-0.3
		c-0.1-0.2-0.1-0.5-0.2-0.7c0-0.1,0-0.2,0-0.3c0,0,0,0,0-0.1v-0.1c0,0,0-0.1,0-0.2s0-0.2,0-0.3c0-0.1,0-0.2,0-0.2
		c-0.1,0-0.2-0.1-0.3-0.1c-0.2-0.1-0.1-0.2,0.1,0c0.1,0,0.1,0,0.2,0.1l0,0c0,0,0-0.1,0-0.2s0-0.1-0.1-0.2s-0.2-0.1-0.3-0.2
		c0.1-0.2,0.3,0.1,0.3-0.1c-0.1-0.3,0-0.6,0-1V21c0-0.1,0-0.2,0-0.3c-0.2-0.1-0.3-0.2-0.4-0.3c-0.3-0.2-0.6-0.4-0.8-0.7
		c-0.1-0.1-0.1-0.2-0.2-0.2c0,0,0,0,0-0.1c0,0-0.1-0.1,0-0.1c-0.1-0.1-0.2-0.3-0.3-0.4c0-0.1-0.1-0.2-0.1-0.3c-0.1,0,0-0.2-0.1-0.3
		c-0.1-0.1-0.1-0.1,0-0.2l0,0L11.7,18c0-0.1,0-0.2-0.1-0.3c-0.1-0.3-0.2-0.5-0.3-0.8c0,0-0.1-0.1-0.1-0.2s-0.1-0.3-0.1-0.4v-0.1
		c0-0.1,0-0.2-0.1-0.3v-0.1v-0.1c-0.2-0.2,0.1-0.4,0.1-0.1l0,0l0.1,0.1c0,0.1,0.1,0.3,0.1,0.4c0,0.3,0.2,0.5,0.3,0.8
		s0.2,0.5,0.3,0.8s0.2,0.7,0.2,1c0,0,0,0,0,0.1v0.1c0,0,0.1,0.1,0.1,0.2s0,0.2,0.1,0.3c0.2,0.1,0.2,0.3,0.2,0.4
		c0.1,0.1,0.2,0.2,0.3,0.3c0.1,0,0.1,0.1,0.2,0.1c0,0,0.1,0,0.1,0.1c0.1,0.1,0.2,0.2,0.4,0.3c0,0,0.1,0,0.1,0.1
		c0.1,0,0.2,0.1,0.2,0.1c0.1-0.3,0-0.6-0.2-0.9c0-0.1,0.1-0.2,0.1-0.1c0.1,0.2,0.1,0.1,0.1-0.1c-0.1-0.4-0.1-0.8-0.1-1.2
		c-0.1,0-0.1-0.1-0.1-0.2h-0.1l-0.1-0.1c-0.4-0.4-0.8-0.9-0.9-1.4c0-0.1-0.1-0.2-0.1-0.3c0.1-0.2-0.4-0.5-0.1-0.5v-0.1
		c0-0.1,0-0.2,0-0.3c-0.1-0.6-0.1-1.1-0.1-1.7c0,0,0-0.1-0.1-0.1c-0.2-0.1-0.4-0.3-0.5-0.5c0,0,0,0,0-0.1c-0.1-0.1-0.2-0.2-0.3-0.3
		l-0.1-0.1c0,0,0,0-0.1,0.1c0,0-0.1,0-0.1,0.1c-0.2,0-0.3-0.1-0.4-0.2c-0.2-0.2-0.4-0.3-0.5-0.6c0-0.1,0.1-0.2,0.2-0.1
		c0-0.1-0.1-0.1-0.1-0.2c-0.3,0-0.5-0.3-0.6-0.5c0,0-0.1-0.1,0-0.1l0,0c-0.2-0.3-0.3-0.7-0.3-1.1v-0.1l0,0C9.3,10,9.4,10,9.5,10h0.1
		c0,0,0.1,0,0.1,0.1l0,0C9.7,10,9.8,10,9.9,10H10c0-0.1,0.1-0.1,0.1,0l0,0c0.2,0,0.3,0.2,0.3,0.3h0.1h0.1c0.3,0,0.3,0.5,0.4,0.7
		c0,0.1,0,0.3,0,0.4c0.1,0,0.2,0.1,0.3,0.2c0.1,0.1,0.2,0.2,0.2,0.3c0.1,0.2,0.2,0.3,0.2,0.5c0.1,0.1,0,0.3-0.2,0.3
		c0.3,0.3,0.5,0.8,0.9,0.9c-0.1-0.1,0-0.4,0.1-0.2c0,0.1,0.1,0.1,0,0.2c0,0,0,0,0,0.1c0,0,0,0.1,0.1,0.2l0.1,0.1
		c0.2,0.2,0.3,0.6,0.5,0.8c0-0.1,0-0.1,0-0.2v-0.1c0,0-0.1-0.1,0-0.2c0-0.1,0-0.2,0-0.2c0-0.1,0-0.2-0.1-0.3
		c-0.1-0.2-0.2-0.4-0.3-0.6c-0.1-0.1-0.1-0.3-0.2-0.4c0,0-0.1-0.1,0-0.1l0,0l-0.1-0.1c0,0,0-0.1-0.1-0.1c0,0-0.1-0.1-0.1-0.2l0,0
		c0,0,0-0.1-0.1-0.2C12,12,12,11.8,11.9,11.6c0,0-0.1-0.1-0.1-0.2c-0.1-0.3-0.2-0.6-0.3-0.9c-0.1,0-0.1-0.1,0-0.1l-0.1-0.1
		c-0.1,0-0.1,0-0.2-0.1c-0.1-0.1-0.2-0.2-0.3-0.4c0,0,0-0.1-0.1-0.1c0-0.1-0.1-0.1-0.1-0.2c0-0.1-0.1-0.2-0.1-0.3c0,0,0,0,0.1,0
		c0,0,0.1,0,0.1,0.1c0-0.1,0.1-0.1,0.1,0V9.2C11.1,9.1,11,9,10.9,9c0,0-0.1,0.1-0.2,0h-0.1C10,9,9.7,8.4,9.8,7.9
		c0-0.1,0.1-0.2,0.2-0.1c0,0,0.1,0.1,0.1,0.2c0.1,0,0.1,0,0.1,0c0-0.1,0.1,0,0.1,0c0.1,0.1,0.1,0.2,0.1,0.3c0.1,0,0.1,0,0.1,0.1h0.1
		V8.3c-0.3-0.2-0.4-0.6-0.2-0.9c0-0.1,0.1-0.2,0.2-0.3l0,0l0,0h0.1l0,0h0.1h0.1l0,0H11c0.2,0.2,0.2,0.5,0.2,0.7c0,0.1,0,0.2,0.1,0.1
		l0,0c0,0,0-0.1,0.1-0.1l0.1-0.1c0-0.2,0.1-0.4,0.3-0.4c0.1,0,0.2-0.1,0.3-0.1h0.1c0,0.1,0.1,0.2,0.1,0.3l0,0c0,0.1,0,0.2-0.1,0.2
		c0,0.1-0.1,0.1-0.2,0.2c-0.1,0.1-0.2,0.2-0.3,0.2v0.1c0.1,0.1,0.1,0.2,0,0.3c0,0.1-0.1,0.1-0.1,0.2h-0.1c0,0.1,0,0.1,0,0.2
		c0,0.1,0,0.2,0,0.4c0,0.1,0,0.2,0,0.3v0.1c0,0.1,0,0.2,0,0.2s-0.1,0-0.1,0.1c0,0-0.1,0-0.1,0.1s0,0.1,0,0.2c0,0.1,0.1,0.1,0,0.2
		c0.1,0.5,0.3,1,0.5,1.4l0.1,0.1c0.1,0.4,0.3,0.8,0.5,1.2c0.1,0.1,0.1,0.2,0.2,0.3l0,0c0-0.2,0-0.4,0.1-0.6v-0.1
		c-0.1-0.2-0.2-0.3-0.3-0.5c-0.1-0.1-0.2-0.2-0.3-0.4c0,0,0,0,0-0.1c-0.1-0.1-0.2-0.1-0.2-0.2c0,0,0-0.1-0.1-0.1l-0.1-0.1
		c0-0.1,0-0.2,0-0.3s0.1-0.1,0.2-0.1c0-0.2-0.2-0.4,0.1-0.5c0,0,0,0,0.1,0l0,0c-0.1-0.2-0.2-0.3-0.2-0.6c0-0.2,0-0.4,0.1-0.5
		c0-0.1,0.1-0.1,0.1-0.2c0.1-0.1,0.4,0,0.4,0.2c0,0,0,0,0,0.1c0,0.2,0,0.3,0,0.5c0,0.1,0,0.1-0.1,0.2c0,0,0,0.1-0.1,0.1
		c0,0,0,0.1-0.1,0.1c0,0,0,0,0,0.1s0.2,0.1,0.2,0.2h0.1c0,0,0.1,0,0.1,0.1c0.1,0,0.1-0.1,0-0.2c-0.3-0.2,0-0.6,0.3-0.6l0,0l0,0V9.9
		V9.8c0-0.2,0-0.5,0-0.7c0-0.1,0-0.2,0.1-0.3l0,0c0.2-0.1,0.4-0.1,0.4,0.1c0,0,0,0.1,0,0.2c0,0.1,0,0.3,0,0.4v0.1c0,0,0,0,0,0.1v0.1
		c0,0.2-0.1,0.4-0.3,0.5c0.1,0,0.1,0.1,0.1,0.1l0,0c0-0.1,0-0.2,0.2-0.3c0.1,0,0.2,0.1,0.3,0.1c0,0,0,0.1,0.1,0.1l0,0v0.1l0,0
		c0,0.1,0,0.2,0,0.3s-0.1,0.2-0.2,0.2c0,0.1-0.1,0.1-0.1,0.1c0,0.1-0.1,0.1-0.1,0.1v0.1l0,0c0.1,0.2,0.1,0.4,0.2,0.6
		c0,0.1,0,0.2,0,0.2c0.1,0.2,0,0.4-0.2,0.3c0,0.1,0,0.1,0,0.1c0,0.6-0.1,1.2-0.4,1.7c-0.1,0.4-0.1,0.8-0.1,1.1v0.1
		c0,0.1,0.1,0.3,0.1,0.4c0,0.1,0,0.1,0,0.2V16v0.1c0,0.1,0,0.2,0.1,0.3c0,0.1,0,0.2,0.1,0.3c0,0.1,0,0.2,0.1,0.3
		c0,0.1,0.1,0.2,0,0.3c0,0.2,0.1,0.4,0.1,0.5l0,0c0,0.2,0.1,0.3,0.1,0.5s0.1,0.3,0.1,0.5v0.1c0,0.1,0,0.2,0,0.3c0,0.1,0,0.2,0,0.3
		v0.1c0,0.2,0,0.3,0,0.5s0,0.4,0,0.5c0,0.2,0,0.3,0,0.5v0.1v0.1c0,0.1,0,0.1,0,0.2v0.1v0.1v0.1v0.1c0,0,0,0,0,0.1s0,0.3,0,0.4
		s0,0.2,0,0.3c0.1-0.1,0.1-0.2,0.2-0.2c0.1-0.1,0.1-0.3,0.2-0.4c0.1-0.2,0.1-0.4,0.2-0.6c0-0.1,0.1-0.3,0.1-0.4V21
		c0,0-0.1-0.1,0-0.1c-0.1-0.4-0.2-0.8-0.4-1.2c-0.1-0.2-0.1-0.4-0.1-0.6c0-0.1,0-0.2,0-0.3c0-0.2-0.1-0.5-0.1-0.7V18
		c0-0.1-0.1-0.3,0.1-0.3c0.1,0.1,0.1,0.2,0.1,0.3c0,0,0,0,0,0.1c0,0,0,0.1,0,0.2l0,0c0.1,0.1,0.1,0.2,0,0.2l0,0c0,0.1,0.1,0.1,0,0.2
		c0,0,0.1,0.1,0,0.1c0,0.1,0,0.2,0.1,0.2c0.1,0.2,0.1,0.3,0.2,0.5l0.1,0.1c0,0.1,0.1,0.3,0.1,0.4c0.1,0.1,0.1,0.5,0.2,0.3
		c0.1-0.3,0.1-0.5,0.1-0.8v-0.1c0-0.3,0-0.5,0-0.8v-0.1v-0.1v-0.1c0-0.1,0-0.1,0-0.2s0-0.1,0-0.2s0-0.2-0.1-0.3
		c0-0.1-0.1-0.3-0.1-0.4s0-0.1,0-0.2s0-0.2,0-0.2c-0.1-0.3,0-0.7-0.1-1c-0.1-0.1,0-0.1,0.1-0.1s0.1,0,0.1,0.1v0.1
		c0,0.1,0.1,0.3,0.1,0.4c0,0,0,0.1,0.1,0.2c0,0.1,0,0.3,0.1,0.4c0,0,0,0,0,0.1c0,0.2,0.1,0.3,0.1,0.5l0,0c0,0,0,0.1,0,0.2
		c0,0,0,0,0,0.1c0,0.2,0.1,0.4,0.1,0.5s0,0.2,0,0.2v0.1c0,0,0.1,0.1,0,0.1v0.1v0.1V19c0,0.1,0,0.2,0,0.4c0,0.1,0,0.2,0,0.3v0.1l0,0
		c0,0.1,0,0.1,0,0.2c-0.1,0.2-0.2,0.4-0.2,0.6c0,0.1,0.1,0.3,0.1,0.4s0.1,0.2,0,0.3c0.1,0.1,0.1,0.3,0.1,0.5v0.1
		c0,0.1,0,0.3-0.1,0.4l0,0v0.1l0,0v0.1c0,0.2,0,0.4-0.1,0.5c0.1,0.2,0.2,0.3,0.3,0.5s0.2,0.3,0.3,0.5c0,0.1,0.1,0.1,0.1,0.2
		c0.1,0.1,0.1,0.2,0.2,0.3c0.1,0.1,0.2,0.3,0.2,0.5c0,0.1,0.1,0.1,0.1,0.2v0.1c0,0.2,0.1,0.3,0.2,0.4c-0.3,0.2-0.2,0.7-0.3,1v0.1
		c-0.1,0.2-0.1,0.5-0.2,0.7c0,0.1-0.1,0.3-0.1,0.4s-0.1,0.2-0.1,0.3c0,0.1,0,0.2-0.1,0.3c0,0,0,0,0,0.1c0.1,0,0.1,0.1,0.1,0.2
		s0.1,0.2,0.1,0.4c0,0,0,0,0,0.1c0.1,0,0.1,0.1,0.1,0.1v0.1c0,0.1,0,0.2,0.1,0.3c0,0,0.1,0.1,0.1,0.2v0.1v0.1c0.2,0,0.3,0,0.3,0.2
		h0.1c0.1,0,0.2,0,0.2,0c0.1,0,0.1,0.1,0.1,0.2c0.1,0.2,0,0.4-0.1,0.5L15.9,31z M8.9,18.7l-0.1-0.1c0-0.1-0.1-0.2-0.1-0.2
		s-0.1,0-0.1,0.1c0,0,0.1,0.1,0,0.1v0.1c0,0.1,0.1,0.2,0.1,0.3l0,0c0.1,0,0-0.1,0-0.2C8.9,18.8,8.9,18.7,8.9,18.7z M8.6,18.7
		c0-0.1,0-0.1-0.1-0.2c0,0,0-0.1,0-0.2s0-0.2-0.1-0.3c0,0-0.1-0.1-0.1-0.2v-0.1l-0.1-0.1l0,0H8.1v0.1c0.1,0.1,0.1,0.2,0.1,0.3
		c0.1,0.1,0,0.3-0.1,0.4c0.1,0.1,0.2,0.3,0.3,0.4c0,0.1,0.1,0.1,0.1,0.2C8.7,18.9,8.7,18.8,8.6,18.7z M8,19.2
		c0.1,0.2,0.2,0.3,0.3,0.5c0,0.1,0.1,0.1,0.2,0.1c0.1,0,0.1,0.1,0.1,0.1s0.1,0,0.1,0.1c0.1,0.1,0,0.3,0.2,0.3c0-0.1,0-0.1,0.1-0.2
		c0,0,0.1-0.1,0-0.3c0-0.1-0.1-0.2-0.1-0.3l-0.1-0.1c0,0-0.1,0-0.1-0.1s-0.1-0.1-0.1-0.2c0,0-0.1,0-0.1-0.1l-0.1-0.1
		c-0.1-0.4-0.5-0.4-0.6-0.7v0.1C7.7,18.6,7.9,18.9,8,19.2z M9,17.9V18v0.1v0.1v0.1c0,0.4,0.3,0.7,0.2,1.1v0.1l0,0
		C9.1,19,9.4,18.2,9,17.9z M12.5,14.2c0,0.1,0,0.1,0,0.2c0,0.1,0,0.1,0,0.2c0,0.1,0,0.1,0,0.2v0.1c0,0.1,0,0.2,0,0.2
		c0,0.1,0,0.1,0,0.2v0.1c0,0.1,0,0.1,0,0.2c0,0.1,0,0.2,0,0.3c0.1-0.1,0.2,0,0.1,0.1v0.1c0,0.1,0,0.1,0,0.2c0,0.2,0.1,0.3,0.1,0.5
		c0.1,0.5,0.4,0.8,0.7,1.2c0.1,0,0.2,0.1,0.2,0.2v-0.1l0,0c0-0.1-0.1-0.3-0.1-0.4c-0.1-0.2-0.1-0.4-0.1-0.6c0-0.1-0.1-0.2,0-0.2
		c-0.1-0.3-0.1-0.5-0.2-0.8V16c0-0.2-0.1-0.3-0.1-0.5l0,0c0,0-0.1-0.1,0-0.1v-0.1C12.9,14.8,12.7,14.5,12.5,14.2z M13.2,11.5
		L13.2,11.5c0-0.1,0-0.1,0-0.2l-0.1-0.1c-0.1,0-0.2-0.1-0.2-0.1c-0.1,0-0.1,0-0.2,0.1c0,0,0,0,0,0.1c0,0,0,0.1,0,0.2v0.1
		c0,0.1,0.1,0.3,0.1,0.4l0,0l0.1,0.1c0,0.2,0.1,0.3,0.2,0.5l0,0C13.2,12.2,13.1,11.8,13.2,11.5z M12.8,12.2
		C12.8,12.2,12.8,12.1,12.8,12.2C12.8,12.1,12.8,12.1,12.8,12.2c0-0.2-0.1-0.4-0.1-0.5l0,0c0,0.1,0,0.1,0,0.2
		C12.7,12,12.8,12.1,12.8,12.2z M12.3,11.1C12.4,11.1,12.4,11.1,12.3,11.1c0.2,0.2,0.2,0.3,0.3,0.4v-0.1c0-0.1,0-0.2-0.1-0.2l0,0
		c0,0,0,0,0-0.1C12.5,11.1,12.4,11.1,12.3,11.1z M13.4,13.6c0-0.1,0-0.2,0.1-0.2c0-0.1,0-0.1,0-0.2v-0.1V13c0-0.1,0-0.2,0-0.3
		s0-0.1,0-0.2v-0.1c0,0,0,0,0-0.1s-0.2-0.1-0.2-0.2V12l-0.1-0.1c0,0.1,0,0.2,0,0.2v0.1c0,0.1,0,0.2,0,0.3s0,0.1,0.1,0.2
		c0.2-0.2,0.2,0.1,0,0.2V13v0.1C13.3,13.3,13.3,13.5,13.4,13.6c-0.1,0.2-0.1,0.3-0.1,0.3C13.3,13.8,13.4,13.7,13.4,13.6z M15,22.8
		L15,22.8c0-0.5-0.1-0.8-0.1-1.2v-0.1v-0.1l0,0l0,0c0,0.1,0,0.1-0.1,0.2c0,0.1-0.1,0.3-0.1,0.4c-0.1,0.3-0.3,0.7-0.5,1
		c0,0.2,0.1,0.3,0.1,0.5c0,0,0,0.1,0.1,0.1c0-0.1,0-0.1,0.1-0.2c0-0.2,0.1-0.1,0,0c0,0.1,0,0.2-0.1,0.3c0,0,0,0.1-0.1,0.1
		c0.1,0.2,0.1,0.5,0.2,0.7c0,0.2,0.1,0.4,0.1,0.6l0.1,0.1l0,0c0.1-0.2,0.1-0.5,0.2-0.7l0,0c0-0.2,0-0.4,0.1-0.6c0-0.1,0-0.2,0-0.3
		v-0.1c0.1-0.3-0.1-0.6-0.3-0.8c-0.1-0.1,0.1-0.3,0.2-0.1c0.1,0.1,0.1,0.3,0.2,0.4C14.9,22.9,14.9,22.9,15,22.8z M15.8,27.6
		c0.2-0.7,0.4-1.4,0.3-2.1c-0.3-0.7-0.8-1.4-1.1-2.1c0,0.1,0,0.2,0,0.3c0,0.1,0,0.1,0,0.2c0,0.2-0.1,0.4-0.1,0.6c0,0,0,0,0,0.1
		s0,0.3-0.1,0.4v0.1c0,0.1,0,0.1-0.1,0.2c0,0.2,0.1,0.5,0.1,0.7c0,0.1,0.1,0.2,0.1,0.2s0,0.1,0.1,0.2c0,0,0,0,0,0.1s0,0.2,0.1,0.3
		c0,0.1,0,0.1,0.1,0.2c0,0.1,0.1,0.3,0.1,0.4l0.1,0.1c0,0.1,0.1,0.1,0.1,0.2s0,0.2,0.1,0.3c0,0,0.1,0.1,0.1,0.2l0,0
		c0.1,0.2,0.1-0.1,0.2-0.2C15.7,27.9,15.7,27.7,15.8,27.6z M9.3,22.8c0.1,0.4,0.4,0.7,0.7,1c0-0.3-0.2-0.6-0.2-0.9
		c-0.1,0-0.1-0.1-0.1-0.1c0-0.1,0-0.1,0-0.2c0,0-0.1-0.1-0.1-0.2c-0.1-0.3-0.1-0.5-0.2-0.8c0-0.1,0-0.1,0-0.2s-0.1-0.3-0.1-0.5
		c0-0.1-0.1-0.2-0.2-0.3c0,0,0,0-0.1,0H8.9H8.8c0,0.1,0,0.1-0.1,0.2v0.1c0,0.3,0.1,0.5,0.3,0.7l0,0c0,0,0-0.1,0-0.2s0-0.1,0-0.2
		v-0.1c0,0,0-0.1,0-0.2c-0.1-0.2,0.1-0.5,0.2-0.1l0,0c0,0,0,0.1,0,0.2c0,0.2,0.1,0.4,0.1,0.6l0,0v0.1v0.1c0,0.1-0.1,0.1-0.2,0.2
		c0,0,0,0,0,0.1C9.1,22.6,9.2,22.7,9.3,22.8z"/>
</g>
</svg>
