<?xml version="1.0" encoding="utf-8"?>
<!-- Generator: Adobe Illustrator 25.4.1, SVG Export Plug-In . SVG Version: 6.00 Build 0)  -->
<svg version="1.1" id="wild_x5F_cabbage" xmlns="http://www.w3.org/2000/svg" xmlns:xlink="http://www.w3.org/1999/xlink" x="0px"
	 y="0px" viewBox="0 0 32 32" style="enable-background:new 0 0 32 32;" xml:space="preserve">
<g>
	<path d="M20.194,24.45c0-0.2,0.2-0.5,0.6-0.7c0.4-0.3,0.6-0.8,0.7-1.3c0-0.1,0-0.3,0-0.4c0-0.4,0.2-0.9,0.7-1.2
		c0.5-0.2,0.6-0.9,0.6-0.9s0-0.7,0-1.1s0.5-0.8,1-1.5s-0.4-0.6-0.4-0.6s0-0.6,0-0.9c0-0.4,1-0.2,1-0.2v-1.7c0.6-0.9-0.2-1.3-0.2-1.3
		c-0.4,0-0.1-1.1-0.1-1.1c-0.3-0.4-0.7-0.9-1.3-0.7c-0.2-0.3-0.3-0.6-0.5-0.8c-0.2-0.3-0.7-0.4-0.9-0.8c-0.2-0.4,0-0.5,0.3-0.7
		c0.1-0.1,0.7-0.8,0.7-0.7c-0.4-0.2-0.6-0.5-1-0.7c-0.1-0.1-1-0.1-1,0l-0.2-0.9c-0.6,0.6-0.7-1.3-0.7-1.3c-0.3,0.8-1.1,0.2-1.6,0.2
		c-0.4,0-0.7,0.6-0.9,0.9c-0.5-0.7-0.7,0.3-0.7,0.4c-0.1,0.4,0.2,1.2-0.6,1.1c-0.5-0.1-0.7-0.6-0.7-1.1c-0.2-1.1-1.2-0.6-1.4-0.4
		c-0.5,0.5-1.5,0.3-2.1,0.2c-0.3-0.1-0.6-0.1-0.9-0.2c-0.5-0.1-0.4-0.2-0.7,0.1c-0.3,0.3-1.9,0.6-1.9,1c0,0.6-0.4,1-0.4,1
		c-0.5,0.2-0.5,1.9-0.5,1.9h0.4l0.3-0.3c0,0,0,0.1,0,0.3c0.2,0.7,0.5,1.6,1.4,1.5c0.4,0.4,1.3,1.3,1.9,1.1c0.1,1.4,0.8,2.6,2.2,2.9
		c-0.3,0.1-0.6,0.3-0.9,0.5c0.2,0.5,0.3,1,0.5,1.4c0.1,0.2,0.4,0.4,0.4,0.6s-0.2,0.6-0.3,0.8c0.2,0,0.4,0.1,0.6,0.1
		c-0.2,0.8-0.4,1.3,0.2,1.9c0.3,0.3,0.8,0.4,1.1,0.6c0.4,0.3,0.7,0.8,0.9,1.2c0.4,0.7,0.7,1.4,1.1,2c-1.7,0-1.8-1.8-2.7-2.8
		c-0.5-0.6-1.8-0.7-1.9-1.7c0-0.3,0.1-0.9,0.2-1.2c-0.2,0-0.4-0.1-0.6-0.1c0.1-0.2,0.3-0.6,0.3-0.8c0-0.2-0.2-0.4-0.4-0.6
		c-0.3-0.4-0.4-0.9-0.5-1.4c0.3-0.2,0.6-0.3,0.9-0.5c-1.4-0.3-2.1-1.6-2.2-2.9c-0.4,0.2-0.8-0.1-1.1-0.3c-0.1-0.1-0.7-0.8-0.7-0.8
		c-1.2,0.2-1.2-1.7-1.2-1.7l-0.8,0.6l-1.4,0.1l-0.8-0.6c-0.8,1.2-1.4,0.7-1.4,0.7l-1,0.8l-0.6,0.6v1.2l0.9,0.6l-0.2,2.5l-0.6,0.6
		l0.6,2.3c2.1-2.2,5.8-1.1,5.8-1.1c0.7-0.2,3.1,3.4,3.1,3.4c0.7,2,2.1,1.6,2.1,1.6c0.7,1,2.1,1.4,2.9,1.6l1.1,0.9l0.6,1.3l0.7,0.1
		l0.6-0.7l0.1-0.4l0.1-0.2c0,0,0.2-0.7,1.1-0.8C20.694,24.75,20.194,24.65,20.194,24.45z M13.594,23.45c-0.4-0.2-0.7-0.5-1-0.8
		c-0.6-0.5-1.2-1.2-1.7-1.8c-1-1.3-1.9-2.7-3.4-3.5c-1.4-0.7-3.3-0.8-4.8-0.3c1.4-0.4,2.7-0.8,4.1-0.7c-1.4-2.5-3.9-2.5-3.9-2.5
		c2.7-0.3,4,1.5,4.6,2.6c0.7,0.1,1.4,0.4,2.1,0.8c-0.2-0.6-0.7-1.6-2-3.3c0,0,3.1,2.8,3.2,4.5c1,1.2,1.6,2.7,2.9,3.6
		c0,0,0.6,0.3,0.6,0.2l0.3,1.6C14.394,23.85,13.594,23.45,13.594,23.45z M17.694,20.15c0.1,0.5,1,3.1,0.9,4c0,0.3-0.1,0.5-0.2,0.7
		l-0.1,0.1c-0.1,0.1-1.1,0.2-1.1,0c-0.3-2.4-0.7-4.9-1.3-7.3c-0.8,0-2.4-1.3-2.4-1.3c0.5,0.3,1.6,0.5,2.2,0.6
		c-0.5-2.2-1.1-4.3-1.9-6.4c0.6,1.5,1.3,3,2,4.4c0.3-0.3,1.2-1.3,1.2-3.5c0,0,0,3.1-0.9,4c0.1,0.2,0.8,2,1.1,2.7
		c0.5-0.3,2.5-1.8,3.4-6C20.594,12.25,19.494,19.25,17.694,20.15z"/>
	<path d="M30.894,11.75c0.4-0.3-0.4-1.1-0.4-1.1c-0.6,0.1-0.9-1.1-0.9-1.1c-0.7-1-1.9,0.1-1.9,0.1c-0.2,0-0.6-0.5-0.6-0.5
		c0-0.5-1.1,0-1.1,0c-0.4-0.4-1,0.7-1,0.7c-0.2-0.9-1-0.7-1-0.7c-0.8-0.5-1.2,0.4-1.2,0.4s0.3,0.7,0.6,0.7c0,0,1,0.5,1.7,1.6
		c0,0-0.2,1,0.1,1.1c0,0,0.7,0.4,0.2,1.3l-0.1,1.6c0,0-1.2-0.2-1.2,0.2s0,0.9,0,0.9s0.9-0.1,0.4,0.6s-1,1.1-1,1.5s0,1.1,0,1.1
		s-0.2,0.7-0.7,0.9c-0.5,0.2-0.7,0.8-0.7,1.1c0,0.5-0.1,1-0.5,1.4c-0.1,0.1-0.2,0.2-0.3,0.3c-0.4,0.2-0.6,0.4-0.6,0.7v0.1
		c0.7-0.5,2.2-1.7,3.6-3.5c0.6-1.1,1.7-3.4,1.8-6.3c0-0.5,0-0.9,0-1.1c0-0.1,0-0.1,0-0.2c0,0,0,0.1,0,0.2c0,0.4,0,0.8,0,1.1
		c0,1.1-0.1,2.8-0.5,4.2c0.4-0.7,0.7-1.4,0.9-2.2c0.2-0.6,0.3-1,0.3-1.4c0-0.1,0.1-0.3,0.1-0.4v-0.1c0,0,0,0,0,0.1s0,0.2-0.1,0.4
		c-0.1,0.5-0.2,0.9-0.3,1.4c-0.7,2.5-2.4,6.8-5.8,8c0.1,0.1,0.1,0.2-0.5,0.2c-0.4,0-0.6,0.2-0.8,0.3c5.9-0.8,7.7-9.1,7.7-9.1
		c0.4-2.3,1.9-1.7,1.9-1.7c2.2-0.3,0.8-1.5,1.5-1.8C31.294,12.55,30.894,11.75,30.894,11.75z"/>
</g>
</svg>
