<?xml version="1.0" encoding="utf-8"?>
<!-- Generator: Adobe Illustrator 25.4.1, SVG Export Plug-In . SVG Version: 6.00 Build 0)  -->
<svg version="1.1" id="rapeseed" xmlns="http://www.w3.org/2000/svg" xmlns:xlink="http://www.w3.org/1999/xlink" x="0px" y="0px"
	 viewBox="0 0 32 32" style="enable-background:new 0 0 32 32;" xml:space="preserve">
<path d="M16.6832,30.8333c-1.1571,0.468-1.0141-0.0845-1.1181-1.2154c0.0068-0.0658,0.0299-1.1534,0.0311-1.1938
	c0.0176-0.591,0.0343-1.182,0.0516-1.7729c0.0039-0.1318,0.0073-0.2636,0.015-0.3952c0.0039-0.0661-0.0189-0.1105-0.0722-0.151
	c-0.1252-0.0949-0.2438-0.1985-0.3681-0.2946c-0.1074-0.083-0.1893-0.1858-0.2383-0.3101c-0.1466-0.3723-0.3976-0.6713-0.6646-0.959
	c-0.0292-0.0314-0.0756-0.0507-0.1176-0.0652c-0.0478-0.0165-0.103-0.0135-0.1485-0.0336c-0.0391-0.0172-0.0833-0.0483-0.1007-0.085
	c-0.0661-0.1391-0.1519-0.2339-0.3236-0.2082c-0.0715,0.0107-0.1231-0.0352-0.1556-0.0925
	c-0.0522-0.0922-0.1244-0.1318-0.2306-0.1201c-0.0359,0.004-0.0824-0.0015-0.1095-0.0219c-0.0635-0.0479-0.1254-0.0597-0.2016-0.039
	c-0.0814,0.0221-0.1405-0.0214-0.1813-0.0876c-0.0289-0.0468-0.0485-0.0993-0.0754-0.1475c-0.038-0.068-0.0721-0.0869-0.1336-0.0501
	c-0.1504,0.0899-0.3152,0.091-0.481,0.0985c-0.0889,0.004-0.1784,0.0128-0.2659,0.0289c-0.1569,0.029-0.286-0.0218-0.3945-0.1294
	c-0.0539-0.0535-0.1009-0.115-0.1448-0.1773c-0.0891-0.1267-0.2077-0.2109-0.3526-0.2611c-0.0972-0.0337-0.177-0.0128-0.2584,0.0544
	c-0.1965,0.1622-0.4015,0.3141-0.6378,0.4158c-0.0858,0.0369-0.1529,0.0878-0.1904,0.1766
	c-0.0163,0.0385-0.0431,0.0733-0.0688,0.1069c-0.0712,0.0932-0.166,0.1298-0.2813,0.1072c-0.0625-0.0122-0.125-0.026-0.1861-0.044
	c-0.1834-0.0541-0.3654-0.1133-0.5494-0.1653c-0.1597-0.0451-0.2828-0.1335-0.3637-0.2794
	c-0.0123-0.0223-0.0278-0.0428-0.0418-0.0641c-0.0298-0.0454-0.0679-0.0625-0.1193-0.0354c-0.116,0.0612-0.235,0.1175-0.3471,0.1852
	c-0.0818,0.0494-0.1685,0.067-0.2567,0.0531c-0.1769-0.028-0.3452-0.0097-0.5142,0.048c-0.1099,0.0375-0.2101,0.0033-0.3139-0.0557
	c-0.2629-0.1493-0.5353-0.2859-0.8508-0.2646c-0.095,0.0064-0.189,0.0402-0.2814,0.0681c-0.0524,0.0158-0.1003,0.0459-0.1507,0.0685
	c-0.1378,0.0616-0.2753,0.0735-0.4199,0.0152c-0.1255-0.0506-0.2601-0.05-0.3897-0.0198c-0.2089,0.0486-0.412,0.0411-0.6157-0.0248
	c-0.0722-0.0234-0.1487-0.0361-0.2242-0.0465c-0.209-0.0289-0.364-0.1334-0.4639-0.3195c-0.0523-0.0974-0.1074-0.1934-0.1564-0.2925
	c-0.0486-0.0983-0.0345-0.1521,0.0484-0.224c0.0064-0.0056,0.0127-0.0118,0.0202-0.0155c0.1884-0.0955,0.2997-0.2578,0.3878-0.442
	c0.0449-0.094,0.1143-0.1673,0.2053-0.2211c0.1061-0.0628,0.2083-0.132,0.3141-0.1954c0.1753-0.1051,0.3628-0.1594,0.5706-0.1515
	c0.1439,0.0055,0.2888-0.0058,0.4329-0.0156c0.133-0.009,0.2614-0.0425,0.3734-0.1172c0.1816-0.1211,0.3849-0.1784,0.5967-0.2091
	c0.1698-0.0246,0.3326-0.0664,0.4862-0.1451c0.1112-0.0571,0.2324-0.0752,0.3565-0.088c0.1517-0.0157,0.3031-0.0395,0.4523-0.0712
	c0.1353-0.0288,0.2525-0.0967,0.3483-0.2006c0.0926-0.1003,0.2072-0.1388,0.3456-0.1228c0.0655,0.0076,0.1345-0.008,0.2011-0.0185
	c0.0651-0.0103,0.1102-0.0478,0.1129-0.1182c0.0034-0.0887,0.0619-0.1141,0.1349-0.1229c0.0378-0.0046,0.0764-0.0063,0.1145-0.0047
	c0.1819,0.0075,0.3638,0.019,0.5458,0.0235c0.0538,0.0013,0.11-0.0094,0.1615-0.0258c0.0799-0.0255,0.1555-0.0337,0.236-0.0019
	c0.128,0.0506,0.2383,0.0306,0.3314-0.0814c0.0365-0.0439,0.0906-0.0771,0.1426-0.1032c0.091-0.0458,0.1859-0.0841,0.2805-0.1222
	c0.0719-0.029,0.1006-0.0179,0.1292,0.0525c0.0174,0.0429,0.0259,0.0897,0.0353,0.1354c0.024,0.1166,0.0482,0.2332,0.0686,0.3505
	c0.0213,0.1221,0.075,0.2236,0.1683,0.3065c0.0571,0.0507,0.1068,0.1097,0.1614,0.1632c0.1568,0.1537,0.283,0.3297,0.3694,0.5311
	c0.1048,0.2443,0.2831,0.4058,0.5224,0.5145c0.4413,0.2005,0.8807,0.4052,1.317,0.6163c0.1287,0.0623,0.251,0.143,0.3644,0.2305
	c0.2491,0.1921,0.4899,0.3951,0.7358,0.5914c0.1135,0.0906,0.2402,0.1571,0.3756,0.2129c0.1249,0.0515,0.2395,0.1278,0.3592,0.1923
	c0.0893,0.0481,0.1784,0.0967,0.2692,0.1418c0.0986,0.049,0.1544,0.134,0.1886,0.2314c0.0337,0.0959,0.0538,0.1965,0.0799,0.295
	c0.0193,0.073,0.0317,0.1492,0.1032,0.2195c0.0099-0.039,0.0212-0.0636,0.0217-0.0885c0.0029-0.1404,0.0008-0.2808,0.0048-0.4211
	c0.0166-0.5825,0.0201-1.1658,0.0556-1.7471c0.0578-0.9471,0.0892-1.8947,0.1021-2.8433c0.0063-0.4635,0.0239-0.9269,0.0364-1.3904
	c0.0039-0.1428,0.0046-0.1442-0.1249-0.1998c-0.528-0.2267-1.0678-0.4189-1.6193-0.5819c-0.7257-0.2144-1.4467-0.4448-2.1698-0.6681
	c-0.0528-0.0163-0.1078-0.0262-0.1592-0.0459c-0.0385-0.0147-0.0873-0.0316-0.1061-0.0628
	c-0.0396-0.0657-0.0949-0.0706-0.1602-0.079c-0.1341-0.0174-0.269-0.0371-0.3996-0.0713c-0.1068-0.028-0.1732-0.0956-0.1557-0.2255
	c0.0074-0.0546-0.0161-0.1176-0.039-0.171c-0.0375-0.0877-0.0736-0.17-0.0325-0.2683c0.0518-0.1236,0.1064-0.244,0.2349-0.3058
	c0.0648-0.0312,0.1325-0.0596,0.202-0.0772c0.3126-0.0793,0.6002-0.2115,0.8686-0.3898c0.088-0.0585,0.1967-0.0892,0.2763-0.156
	c0.0852-0.0714,0.1482-0.1697,0.2184-0.2582c0.0078-0.0099,0.0049-0.0352-0.002-0.0488c-0.042-0.0823-0.0011-0.146,0.0399-0.2129
	c0.051-0.0832,0.0939-0.1715,0.1463-0.2538c0.0359-0.0563,0.0821-0.106,0.1236-0.1587c0.0234-0.0297,0.0465-0.0595,0.0701-0.089
	c0.0211-0.0264,0.0394-0.0565,0.0649-0.0777c0.0603-0.0502,0.1076-0.0486,0.1473,0.0187c0.0422,0.0716,0.097,0.0725,0.163,0.0575
	c0.0124-0.0028,0.0253-0.0061,0.036-0.0125c0.1341-0.0798,0.275-0.1256,0.4352-0.1186c0.0473,0.0021,0.1017-0.0392,0.1439-0.0722
	c0.0497-0.0389,0.0929-0.0876,0.1333-0.1367c0.1503-0.1822,0.3423-0.3023,0.5601-0.3864c0.0857-0.0331,0.1721-0.0386,0.2629-0.0314
	c0.0882,0.0069,0.1776-0.0019,0.2661,0.0033c0.1094,0.0064,0.2185,0.0186,0.3275,0.031c0.0863,0.0099,0.1351,0.0643,0.1578,0.145
	c0.0138,0.049,0.0314,0.0974,0.0394,0.1473c0.0228,0.1431,0.0213,0.1434,0.1823,0.1683c0.0068-0.0581,0.0183-0.1157,0.0195-0.1736
	c0.0041-0.1871,0.0024-0.3744,0.0074-0.5615c0.0018-0.066-0.0265-0.1085-0.0691-0.1554c-0.0967-0.1065-0.1902-0.2169-0.2752-0.333
	c-0.1909-0.2608-0.3689-0.5313-0.5666-0.7868c-0.0824-0.1065-0.1437-0.2277-0.2355-0.3256
	c-0.0955-0.1018-0.1925-0.204-0.3005-0.2917c-0.0928-0.0754-0.1245-0.0633-0.2272,0.0045
	c-0.1543,0.1019-0.3182,0.1304-0.4956,0.0602c-0.0392-0.0155-0.0861-0.0117-0.1271-0.0164c-0.0112,0.028-0.02,0.0396-0.0196,0.0507
	c0.0085,0.2345-0.2029,0.3264-0.3815,0.306c-0.0757-0.0086-0.1513-0.0249-0.2245-0.0459c-0.1822-0.0522-0.2089-0.0954-0.1851-0.288
	c-0.0757,0-0.1508-0.0025-0.2255,0.0015c-0.0222,0.0012-0.0516,0.015-0.064,0.0326c-0.114,0.1623-0.2863,0.2082-0.4663,0.2284
	c-0.2893,0.0324-0.5776,0.0213-0.8608-0.0545c-0.1682-0.045-0.1926-0.13-0.0714-0.261c0.1163-0.1257,0.2624-0.2005,0.4294-0.2349
	c0.0782-0.0161,0.1567-0.0311,0.2205-0.0437c0.0209-0.0948,0.0385-0.175,0.0587-0.2666c-0.0568-0.0763-0.1246-0.1672-0.2029-0.2722
	c-0.0146,0.0012-0.0478,0.0014-0.0801,0.007c-0.1382,0.0238-0.2765,0.0475-0.4142,0.0744
	c-0.1033,0.0201-0.1304,0.0461-0.1412,0.1489c-0.0056,0.0538,0.0023,0.1103,0.0122,0.1641
	c0.0227,0.1239,0.0244,0.2466-0.0205,0.3649c-0.0679,0.1789-0.1383,0.357-0.2126,0.5333c-0.0621,0.1473-0.175,0.2498-0.3146,0.3223
	c-0.0837,0.0435-0.145,0.0307-0.1937-0.0309c-0.0486-0.0615-0.0512-0.1157,0.009-0.1679c0.2726-0.2363,0.3698-0.5627,0.4639-0.8909
	c0.0161-0.0561,0.0236-0.1147,0.0354-0.1742c-0.0765,0.0031-0.321,0.0897-0.3586,0.1261c-0.0117,0.0113-0.0258,0.0269-0.0267,0.0413
	c-0.0063,0.1007-0.0295,0.2035,0.0296,0.2979c0.0948,0.1514,0.0456,0.3579-0.1219,0.4086
	c-0.1395,0.0422-0.1632,0.1315-0.1708,0.2453c-0.0093,0.14-0.013,0.2803-0.0198,0.4204c-0.0112,0.2301-0.109,0.33-0.3393,0.3459
	c-0.1857,0.0128-0.3571-0.0168-0.4851-0.1696c-0.0759-0.0907-0.1186-0.1931-0.1278-0.3129c-0.0207-0.27,0.0416-0.5063,0.2562-0.6878
	C9.6125,11.3251,9.632,11.249,9.61,11.149c-0.0198-0.09-0.0132-0.186-0.0166-0.2795c-0.0044-0.1236-0.0037-0.1236-0.1172-0.1596
	c-0.0203-0.0064-0.041-0.0119-0.0604-0.0204c-0.0754-0.0328-0.0898-0.0786-0.0292-0.1349c0.0548-0.0509,0.1232-0.0878,0.1877-0.1275
	c0.0243-0.015,0.0544-0.0208,0.1088-0.0406c-0.0454-0.0123-0.0654-0.0224-0.0853-0.0224c-0.085,0.0001-0.1702,0.0067-0.255,0.0041
	c-0.0937-0.0029-0.1274-0.0495-0.086-0.1326c0.0333-0.0668,0.0844-0.1264,0.1351-0.1825c0.0616-0.0681,0.141-0.0389,0.2158-0.0253
	c0.0078,0.0014,0.0164-0.0019,0.0365-0.0047C9.657,9.8996,9.6609,9.7738,9.617,9.6526c-0.0622-0.1716-0.1304-0.341-0.1968-0.511
	C9.4142,9.1265,9.4047,9.1048,9.3926,9.1014C9.311,9.0785,9.229,9.05,9.1457,9.0436C9.1015,9.0402,9.0508,9.0723,9.0091,9.0981
	C8.9478,9.136,8.8919,9.1826,8.8338,9.2256C8.7829,9.2631,8.7299,9.2806,8.6665,9.246C8.6506,9.1073,8.7708,9.038,8.8235,8.9302
	c-0.0194-0.027-0.04-0.053-0.0579-0.0807C8.7058,8.7567,8.722,8.6824,8.8273,8.6482c0.1079-0.035,0.2224-0.0586,0.3354-0.0663
	c0.095-0.0065,0.1868,0.007,0.2451-0.0926c0.01-0.017,0.044-0.02,0.0567-0.0252c-0.0089-0.1206-0.018-0.2338-0.0253-0.347
	C9.4318,8.0019,9.388,7.9055,9.3087,7.8203c-0.0632-0.0679-0.121-0.1421-0.1723-0.2195C9.0805,7.5165,9.0835,7.4226,9.127,7.3327
	c0.0239-0.0495,0.053-0.0972,0.0852-0.1418c0.1036-0.1432,0.2443-0.1946,0.4145-0.1495c0.1437,0.0381,0.2849,0.0853,0.4276,0.1274
	c0.0466,0.0138,0.0942,0.0244,0.1699,0.0437c-0.0312-0.0658-0.0486-0.1026-0.066-0.1393c-0.0802-0.169-0.1649-0.336-0.2397-0.5074
	c-0.0979-0.2244-0.1029-0.463-0.0863-0.7023C9.8372,5.7907,9.8609,5.722,9.9214,5.6721c0.0901-0.0742,0.2005-0.0624,0.2653,0.0342
	c0.0256,0.0383,0.0448,0.0827,0.0583,0.1269c0.0324,0.1056,0.0649,0.2117,0.088,0.3196c0.0564,0.2632,0.1835,0.4927,0.3291,0.7141
	c0.0116,0.0177,0.0232,0.0368,0.039,0.0502c0.3282,0.2792,0.4817,0.6481,0.5414,1.063c0.0115,0.0803,0.0416,0.125,0.1269,0.1307
	c0.0051-0.0115,0.0138-0.0222,0.0139-0.0328c0.001-0.4192,0.159-0.768,0.4665-1.0513c0.0834-0.0768,0.1781-0.119,0.2907-0.0973
	c0.1456,0.028,0.2768-0.0128,0.4084-0.0663c0.0502-0.0204,0.1069-0.0436,0.1584-0.0392c0.207,0.0176,0.3729-0.0692,0.5245-0.193
	c0.0722-0.0589,0.138-0.1264,0.2018-0.1946c0.0434-0.0465,0.0249-0.0839-0.0395-0.0923c-0.1317-0.0171-0.143-0.0276-0.174-0.1569
	c-0.0058-0.0244-0.0127-0.0493-0.0242-0.0714c-0.0461-0.0888-0.0943-0.1767-0.1471-0.275
	c-0.0786,0.0204-0.1499-0.0219-0.1994-0.0975c-0.0181-0.0277-0.0272-0.0737-0.0179-0.1046c0.0273-0.0906,0.1837-0.1665,0.2716-0.13
	c0.0927,0.0385,0.1677,0.0313,0.2464-0.0348c0.0927-0.0778,0.208-0.0889,0.3258-0.0841c0.1499,0.0061,0.1636-0.0076,0.1806-0.1595
	c0.0069-0.0614,0.014-0.1228,0.0218-0.1912c-0.0825,0.0057-0.1489,0.0144-0.2153,0.0137c-0.0612-0.0007-0.1223-0.0116-0.1854-0.0182
	c-0.0297,0.1171,0.0242,0.2274-0.0365,0.3317c-0.024-0.0121-0.0449-0.0178-0.0592-0.0308c-0.0455-0.0415-0.0951-0.0463-0.1538-0.034
	c-0.2119,0.0443-0.4268,0.0735-0.6283,0.1612c-0.1259,0.0548-0.2503,0.0293-0.3667-0.0377
	c-0.0665-0.0382-0.1016-0.0975-0.1215-0.1716c-0.0209-0.0775-0.0453-0.1557-0.0814-0.2268c-0.026-0.0512-0.069-0.0967-0.1128-0.1353
	c-0.0965-0.085-0.2059-0.1151-0.3299-0.0572c-0.0693,0.0324-0.1394,0.0635-0.2111,0.0898c-0.029,0.0106-0.0632,0.007-0.0951,0.0098
	c-0.0018-0.0359-0.0127-0.0743-0.0038-0.1073c0.0274-0.1019,0.1066-0.1489,0.2036-0.1705c0.0406-0.009,0.0822-0.0139,0.1279-0.0215
	c0.0047-0.0491,0.0051-0.0914,0.0136-0.1319c0.012-0.057-0.0189-0.0815-0.0604-0.1117c-0.1163-0.0848-0.2378-0.1661-0.3388-0.2672
	c-0.1895-0.1899-0.116-0.5213,0.136-0.6213c0.2249-0.0893,0.4559-0.1632,0.6838-0.245c0.1218-0.0438,0.2435-0.0284,0.3644-0.0006
	c0.1035,0.0238,0.2056,0.0536,0.3086,0.0799c0.0402,0.0102,0.081,0.018,0.1309,0.029c0.0063-0.0434,0.0123-0.0757,0.0155-0.1082
	c0.0283-0.2923,0.0992-0.5684,0.2843-0.8066c0.0938-0.1208,0.1741-0.252,0.266-0.3744c0.1333-0.1776,0.2994-0.2062,0.4911-0.0908
	c0.1314,0.079,0.2179,0.1901,0.2863,0.3723c0.2218,0.0204,0.448,0.0411,0.6841,0.0628c0.0237-0.0721,0.0481-0.1461,0.0763-0.2317
	c-0.0299-0.0016-0.0574-0.0074-0.0835-0.0036c-0.0672,0.0098-0.1341,0.0221-0.2005,0.0365c-0.3197,0.0695-0.653-0.1454-0.7212-0.466
	c-0.0044-0.0207-0.0071-0.042-0.0081-0.0631c-0.0076-0.1483,0.0588-0.2209,0.2079-0.2293c0.1848-0.0104,0.3639,0.026,0.5424,0.0658
	c0.1078,0.024,0.2151,0.051,0.3214,0.0809c0.1655,0.0466,0.3341,0.0592,0.5049,0.0561c0.0592-0.0011,0.108-0.0056,0.1221-0.0808
	c0.0061-0.0326,0.0389-0.0601,0.0671-0.1007c-0.1032-0.0261-0.2243,0.0087-0.2649-0.1279c0.0173-0.013,0.0355-0.0302,0.0567-0.0419
	c0.05-0.0274,0.0716-0.0691,0.0741-0.1248c0.0014-0.0294,0.0049-0.0599,0.0143-0.0876c0.0211-0.0619,0.0559-0.0817,0.1182-0.0584
	c0.0423,0.0158,0.0775,0.0495,0.118,0.0713c0.0319,0.0172,0.0662,0.0381,0.1008,0.041C16.0875,1.1702,16.0876,1.1682,16.201,1
	c0.0321,0.0276,0.0641,0.054,0.0947,0.0818c0.1019,0.0925,0.0969,0.1234-0.0268,0.1724c-0.0236,0.0094-0.0491,0.0166-0.0693,0.031
	c-0.0153,0.0108-0.0236,0.0315-0.037,0.0507c0.0689,0.0677,0.1375,0.0303,0.1894-0.001c0.0618-0.0372,0.1135-0.0625,0.188-0.0391
	c0.0301,0.0094,0.0712-0.0185,0.1078-0.0275c0.0821-0.0201,0.1636-0.0483,0.2469-0.0563c0.1195-0.0114,0.1425,0.0095,0.1903,0.1238
	c0.0795,0.0143,0.1455-0.0321,0.2141-0.0601c0.1364-0.0558,0.2759-0.0909,0.4227-0.0688c0.0657,0.0099,0.1338,0.0299,0.1914,0.0621
	c0.1417,0.0792,0.1496,0.1645,0.0396,0.2716c0.0785,0.2012,0.1562,0.4004,0.2386,0.6116c0.0274-0.0418,0.0559-0.0866,0.0857-0.1305
	c0.0984-0.1446,0.1674-0.1437,0.2634,0.0028c0.0046,0.0069,0.0109,0.0127,0.023,0.0267c0.0916-0.085,0.1809-0.1619,0.1734-0.3041
	c-0.0042-0.08,0.0093-0.161,0.0161-0.2414c0.01-0.1178,0.0657-0.2105,0.1619-0.2768c0.0698-0.0481,0.1405-0.0968,0.2164-0.1337
	c0.078-0.038,0.1427,0.0112,0.191,0.0646c0.0859,0.095,0.1573,0.2018,0.1874,0.3292c0.0156,0.066,0.0226,0.134,0.0345,0.201
	c0.0071,0.0402,0.0161,0.08,0.0286,0.1416c0.0265-0.0355,0.0411-0.0502,0.0501-0.0678c0.0876-0.1699,0.2392-0.2608,0.408-0.3284
	c0.0425-0.017,0.0903-0.0252,0.1363-0.0278c0.1908-0.0109,0.2348,0.0266,0.2712,0.2169c0.0437,0.2287,0.0373,0.4568-0.0059,0.6846
	c-0.0261,0.1373-0.0768,0.2593-0.1949,0.3471c-0.0326,0.0243-0.0486,0.071-0.0816,0.1221c0.0703,0.0161,0.1184,0.0323,0.1677,0.0376
	c0.1626,0.0173,0.3016,0.0824,0.4206,0.1938c0.0931,0.0872,0.1883,0.1721,0.2822,0.2584c0.0609,0.056,0.1052,0.1212,0.119,0.2055
	c0.023,0.14,0.0286,0.1434,0.2052,0.1557c0.0022-0.0452,0.0076-0.0903,0.0061-0.1352c-0.0075-0.2253-0.0181-0.4504-0.0244-0.6757
	c-0.0013-0.0481,0.0108-0.0967,0.0168-0.1464c0.0819-0.0014,0.1142,0.0447,0.1363,0.0946c0.0203,0.046,0.0314,0.0967,0.042,0.1463
	c0.0355,0.1659,0.0598,0.3349,0.1057,0.4978c0.0556,0.1978,0.0889,0.3978,0.1061,0.6015c-0.0649-0.0305-0.1279-0.0674-0.1957-0.0885
	c-0.029-0.009-0.0783,0.0041-0.1009,0.0256c-0.0575,0.0546-0.1056,0.1192-0.1567,0.1804c-0.0578,0.0691-0.0935,0.148-0.1083,0.2305
	c0.1435,0,0.2807,0,0.4217,0c0.0961-0.1002,0.1289-0.1823,0.1379-0.3506c0.0042-0.0003,0.0094,0.001,0.0126-0.001
	c0.27-0.1626,0.5586-0.1129,0.8414-0.0606c0.1753,0.0325,0.3054,0.1337,0.3492,0.3286c0.0186,0.0829,0.0747,0.1614,0.127,0.2321
	c0.2144,0.2904,0.1418,0.6531-0.1727,0.839c-0.0072,0.0043-0.0137,0.0098-0.0237,0.017c0.0771,0.111-0.0548,0.1411-0.0883,0.2237
	c0.2337,0.1539,0.5073,0.2196,0.7626,0.3383c0.0799-0.0787,0.1244-0.1747,0.1695-0.2692c0.0421-0.0882,0.0759-0.1803,0.1176-0.2687
	c0.0613-0.1303,0.1533-0.2341,0.2797-0.3056c0.1351-0.0765,0.2703-0.0804,0.3932,0.0185c0.0923,0.0743,0.1837,0.1542,0.2563,0.2467
	c0.0468,0.0596,0.0689,0.1445,0.084,0.2217c0.0277,0.1415,0.0347,0.2871,0.0641,0.4282c0.0297,0.1423,0.0018,0.2594-0.1023,0.361
	c-0.1309,0.1276-0.2582,0.2588-0.3896,0.3858c-0.0386,0.0374-0.0643,0.0718-0.0623,0.1308
	c0.0016,0.0442-0.0194,0.0898-0.0333,0.1338c-0.0174,0.0553-0.0378,0.1097-0.0597,0.1725c0.0698,0.0181,0.1132-0.014,0.1512-0.0412
	c0.138-0.0989,0.2723-0.2031,0.4085-0.3046c0.0748-0.0558,0.1463-0.1179,0.2271-0.1635c0.1175-0.0663,0.194-0.0284,0.2252,0.1043
	c0.0295,0.1258,0.0226,0.2404-0.0858,0.3378c-0.0716,0.0644-0.1278,0.1472-0.185,0.226c-0.0405,0.0558-0.0658,0.1204-0.0424,0.1922
	c0.0165,0.0508-0.0098,0.0791-0.0476,0.1057c-0.1285,0.0905-0.2568,0.1813-0.3837,0.2741c-0.1589,0.1161-0.344,0.1392-0.5316,0.1528
	c-0.1648,0.012-0.3299,0.0203-0.5177,0.0316c0.0312,0.0375,0.0496,0.0621,0.0705,0.0842c0.0699,0.0739,0.1453,0.1433,0.2097,0.2217
	c0.0453,0.0552,0.0943,0.1178,0.1104,0.1846c0.0507,0.21,0.1163,0.423,0.1203,0.6359c0.004,0.2186-0.091,0.4136-0.3287,0.4965
	c-0.0966,0.0337-0.1898,0.0414-0.2868,0.0118c-0.2453-0.0748-0.4773-0.1788-0.6942-0.3161
	c-0.1318-0.0835-0.238-0.1945-0.3237-0.3217c-0.1131-0.168-0.2682-0.2461-0.4645-0.2708c-0.0619-0.0078-0.1207-0.0545-0.1766-0.0901
	c-0.0307-0.0195-0.0525-0.0529-0.0846-0.0865c-0.3662,0.1952-0.6888,0.4368-0.9894,0.757c0.0648-0.0069,0.1047-0.0094,0.1441-0.0156
	c0.2236-0.0351,0.4289-0.0014,0.6162,0.1374c0.1407,0.1043,0.2772,0.2106,0.3872,0.3484c0.0796,0.0996,0.1301,0.2085,0.1278,0.3385
	c-0.0018,0.102-0.0012,0.2041-0.0038,0.3061c-0.0025,0.1009-0.0366,0.1919-0.096,0.2726c-0.2232,0.3035-0.5264,0.4644-0.8996,0.4851
	c-0.2009,0.0111-0.3836-0.0632-0.5558-0.1618c-0.0622-0.0356-0.1234-0.0729-0.199-0.1178c-0.005,0.0412-0.0131,0.0682-0.0108,0.0943
	c0.0253,0.2827-0.0504,0.5462-0.1952,0.7794c-0.1375,0.2216-0.3342,0.3981-0.5732,0.5123c-0.2328,0.1113-0.5123-0.0044-0.614-0.2408
	c-0.0605-0.1407-0.079-0.2828-0.0476-0.4357c0.0238-0.1158,0.0346-0.2359,0.0358-0.3542c0.0023-0.2176,0.0153-0.4331,0.0634-0.6459
	c0.0036-0.0157,0.0005-0.0329,0.0005-0.0491c-0.1127-0.0148-0.1422,0.0028-0.1648,0.0998
	c-0.0057,0.0245-0.0149,0.0539-0.0068,0.0751c0.0623,0.1632-0.0375,0.2435-0.1613,0.2954
	c-0.1442,0.0604-0.2958,0.1038-0.4453,0.1508c-0.0598,0.0188-0.1226,0.0277-0.2007,0.0447
	c0.0557,0.0652,0.1196,0.0814,0.1809,0.1022c0.0562,0.019,0.1163,0.0316,0.1669,0.0606c0.042,0.0241,0.0802,0.0632,0.1065,0.1043
	c0.0292,0.0457,0.0166,0.0987-0.0416,0.1107c-0.1541,0.0319-0.2343,0.144-0.308,0.2661c-0.0792,0.131-0.1903,0.2147-0.3449,0.2368
	c-0.0461,0.0066-0.0915,0.0193-0.1366,0.0313c-0.1084,0.0289-0.2096,0.0242-0.3005-0.0523
	c-0.0206-0.0173-0.0514-0.0225-0.0909-0.0387c-0.0106,0.0412-0.0243,0.0717-0.0256,0.1027
	c-0.0101,0.2464-0.0182,0.4929-0.0255,0.7394c-0.0007,0.0243,0.0079,0.0489,0.0121,0.0733
	c0.0835,0.0333,0.1523,0.0069,0.2221-0.0297c0.0482-0.0253,0.0991-0.0522,0.1518-0.061c0.0827-0.0138,0.1326,0.0286,0.1298,0.1112
	c-0.0024,0.0694,0.0283,0.1128,0.0769,0.151c0.0267,0.021,0.0547,0.0404,0.0832,0.059c0.1091,0.0711,0.1664,0.1735,0.1579,0.3015
	c-0.0104,0.1562-0.0223,0.3142-0.0566,0.4663c-0.0218,0.0963-0.0221,0.1732,0.0397,0.2498
	c0.0201,0.0249,0.0333,0.0554,0.0651,0.1097c-0.074-0.0151-0.123-0.0206-0.1689-0.0357c-0.0604-0.0198-0.1168-0.0527-0.1778-0.0696
	c-0.0559-0.0154-0.1166-0.0276-0.1735-0.0225c-0.1166,0.0106-0.232,0.0338-0.3602,0.0537
	c-0.0013,0.0078-0.0086,0.0319-0.0089,0.0561c-0.0075,0.6889-0.0212,1.3778-0.0194,2.0667
	c0.0021,0.8123,0.0179,1.6245,0.0272,2.4368c0.0015,0.1314,0.0002,0.2628,0.0134,0.3999c0.0666-0.0936,0.1598-0.1239,0.2568-0.1463
	c0.1113-0.0256,0.2035-0.0868,0.2868-0.1602c0.2385-0.21,0.5182-0.2587,0.8224-0.219c0.0379,0.0049,0.0759,0.0086,0.114,0.0117
	c0.095,0.0078,0.1718-0.0292,0.2085-0.1155c0.0687-0.1614,0.1981-0.2142,0.3586-0.2456c0.1871-0.0366,0.3706-0.0939,0.5532-0.1502
	c0.1057-0.0325,0.204-0.0806,0.2659-0.185c0.0216-0.0365,0.0704-0.0581,0.1092-0.0826c0.0172-0.0108,0.0402-0.0146,0.061-0.017
	c0.2775-0.0321,0.4926-0.1705,0.6677-0.3828c0.1145-0.1388,0.2623-0.1676,0.4372-0.1358c0.179,0.0325,0.3619,0.0441,0.5434,0.0621
	c0.0374,0.0037,0.0778,0.0017,0.1138-0.0084c0.1409-0.0395,0.2819-0.0555,0.4287-0.0385c0.0394,0.0046,0.0915-0.021,0.1232-0.0491
	c0.0502-0.0445,0.0931-0.0995,0.1299-0.1561c0.047-0.0721,0.1089-0.1042,0.1926-0.0993c0.0593,0.0035,0.1187,0.0055,0.1778,0.011
	c0.0896,0.0082,0.1066,0.0062,0.1267-0.0837c0.047-0.2106,0.1845-0.3378,0.3671-0.4302c0.0507-0.0256,0.0956-0.0406,0.1564-0.0208
	c0.0938,0.0305,0.1249,0.0073,0.1622-0.089c0.0461-0.1191,0.0741-0.1391,0.1869-0.0823c0.1543,0.0777,0.3116,0.1318,0.485,0.1393
	c0.032,0.0014,0.0674,0.0176,0.0937,0.0371c0.0938,0.0694,0.1962,0.0976,0.3105,0.0729c0.0203,0.1493,0.1769,0.2646,0.3199,0.2525
	c0.1476-0.0125,0.2964-0.0216,0.4442-0.0171c0.1217,0.0036,0.146,0.0319,0.1578,0.1547c0.006,0.0628,0.0352,0.0925,0.0883,0.1077
	c0.1265,0.0362,0.2528,0.073,0.3803,0.1054c0.0966,0.0246,0.1886,0.0048,0.2635-0.0602c0.123-0.1066,0.2426-0.09,0.3754-0.0167
	c0.0682,0.0376,0.1503,0.0633,0.2276,0.068c0.1523,0.0091,0.3058,0.003,0.4586-0.0028c0.1289-0.0049,0.253,0.0082,0.3771,0.0467
	c0.0756,0.0234,0.158,0.0334,0.2373,0.0333c0.077-0.0001,0.13,0.0247,0.1702,0.0882c0.0757,0.1194,0.147,0.24,0.1431,0.3886
	c-0.0021,0.08,0.0408,0.1363,0.0988,0.1839c0.0951,0.0781,0.1905,0.1558,0.2858,0.2337c0,0.017,0,0.034,0,0.0511
	c-0.1871-0.0003-0.3745,0.0055-0.5611-0.0037c-0.087-0.0043-0.1807-0.0219-0.2572-0.0611
	c-0.3555-0.1818-0.7409-0.2431-1.1289-0.2949c-0.1599-0.0213-0.3212-0.0323-0.4821-0.046c-0.0464-0.0039-0.0952-0.009-0.1397,0.0008
	c-0.1554,0.0341-0.3045,0.0048-0.453-0.0356c-0.0984-0.0267-0.1957-0.0577-0.2941-0.0848
	c-0.0696-0.0192-0.1404-0.0514-0.2101-0.0499c-0.31,0.0066-0.6293-0.0469-0.9151,0.1352c-0.1471,0.0937-0.3022,0.1713-0.4751,0.2125
	c-0.0684,0.0163-0.1308,0.06-0.1942,0.0945c-0.0672,0.0365-0.1332,0.0755-0.1983,0.1158c-0.1304,0.0808-0.2612,0.0859-0.4003,0.0189
	c-0.0916-0.0441-0.1881-0.079-0.2847-0.1116c-0.1008-0.0339-0.1045-0.0293-0.1647,0.0611c-0.0188,0.0283-0.039,0.0557-0.059,0.0832
	c-0.0926,0.128-0.2044,0.1952-0.3718,0.1473c-0.2173-0.0623-0.4018,0.031-0.568,0.1563c-0.1235,0.0931-0.2508,0.1099-0.3954,0.0775
	c-0.0819-0.0183-0.1665-0.0352-0.2498-0.0346c-0.1394,0.001-0.1788,0.0414-0.2071,0.176c-0.0131,0.0624-0.0235,0.1257-0.0424,0.1864
	c-0.0522,0.1676-0.1143,0.2113-0.2881,0.2084c-0.0638-0.0011-0.1277-0.0026-0.1911-0.0084c-0.1414-0.013-0.2494,0.0437-0.327,0.158
	c-0.0931,0.1371-0.1832,0.2764-0.2722,0.4163c-0.0593,0.0933-0.1128,0.1902-0.1718,0.2837
	c-0.0536,0.0851-0.1244,0.148-0.2261,0.1749c-0.1111,0.0295-0.1923,0.1084-0.2681,0.1887
	c-0.0641,0.0678-0.1359,0.0923-0.2277,0.0879c-0.0756-0.0036-0.1537,0.0009-0.2277,0.0163
	c-0.1487,0.0309-0.2962,0.0335-0.4424-0.004c-0.1127-0.0289-0.2178-0.0161-0.3238,0.0266
	c-0.0946,0.0381-0.1922,0.0685-0.2875,0.1051c-0.1111,0.0427-0.2207,0.0587-0.3336,0.0052c-0.0293-0.0139-0.064-0.0162-0.113-0.0279
	c-0.0047,0.0529-0.0117,0.097-0.012,0.1413c-0.0016,0.1914-0.0047,0.383-0.0009,0.5743c0.0102,0.5074-0.0478,1.0107-0.0866,1.5152
	c-0.029,0.3773-0.0613,0.7544-0.0911,1.1317c-0.0318,0.4027-0.0625,0.8055-0.0932,1.2083
	c-0.0055,0.0721-0.0061,0.1446-0.0133,0.2165c-0.008,0.0791,0.0082,0.1514,0.0434,0.2218c0.0469,0.0937,0.0912,0.1888,0.1423,0.2952
	c0.0624-0.0661,0.0778-0.1327,0.0723-0.1986c-0.0213-0.253,0.0438-0.4889,0.1284-0.7226c0.0231-0.0637,0.0415-0.1302,0.0526-0.197
	c0.0434-0.2614,0.1197-0.5133,0.2118-0.7609c0.0393-0.1056,0.0632-0.2104,0.0269-0.3237c-0.0105-0.0327-0.0061-0.0798,0.0105-0.1099
	c0.0837-0.1525,0.0718-0.3108,0.0431-0.4726c-0.0103-0.0583-0.0155-0.1181-0.0172-0.1774c-0.0027-0.0947,0.0422-0.1623,0.1283-0.202
	c0.0232-0.0107,0.0467-0.0205,0.07-0.0309c0.1036-0.0461,0.1559-0.1272,0.1627-0.2392c0.001-0.017,0.0038-0.0345,0.001-0.0509
	c-0.0344-0.2031,0.0686-0.3449,0.2147-0.4609c0.0859-0.0682,0.1802-0.1284,0.2775-0.1791c0.1029-0.0536,0.1326-0.0403,0.2072,0.0482
	c0.0191,0.0227,0.037,0.0472,0.0592,0.0665c0.0642,0.0559,0.1057,0.046,0.1324-0.033c0.0135-0.04,0.0216-0.0824,0.0276-0.1244
	c0.0125-0.087,0.0605-0.1339,0.1465-0.1529c0.0827-0.0183,0.164-0.0444,0.2445-0.0715c0.0864-0.0291,0.1708-0.0257,0.245,0.024
	c0.0807,0.0539,0.1576,0.1152,0.2295,0.1805c0.0638,0.0579,0.0679,0.1299,0.0302,0.2097c-0.0373,0.0789-0.0642,0.1627-0.1067,0.2728
	c-0.2543,0.1045-0.4627,0.3234-0.6753,0.5376c-0.1071,0.1079-0.1899,0.23-0.2288,0.3774c-0.0249,0.0944-0.0698,0.144-0.177,0.142
	c-0.1128-0.0021-0.2014,0.0656-0.2714,0.1483c-0.0703,0.0829-0.0492,0.2451,0.0475,0.337c0.0812,0.0772,0.1117,0.1653,0.1095,0.2736
	c-0.0017,0.0878-0.0382,0.1456-0.1207,0.1747c-0.1203,0.0424-0.2399,0.0868-0.361,0.1266
	c-0.0706,0.0232-0.1177,0.0656-0.1377,0.1373c-0.0875,0.3122-0.2292,0.6039-0.3406,0.9067c-0.1305,0.3547-0.2331,0.72-0.3411,1.0827
	c-0.1104,0.3708-0.2134,0.7439-0.3179,1.1165c-0.0113,0.0402-0.0166,0.0839-0.0149,0.1255
	c0.0393,0.9526,0.0304,1.9054,0.0205,2.8583L16.6832,30.8333z M15.5902,4.9569c-0.0254,0-0.0508-0.0005-0.0762,0.0002
	c-0.1217,0.0032-0.2312,0.1074-0.2409,0.2295c-0.001,0.0123-0.0031,0.0306,0.0037,0.0364c0.0667,0.057,0.0953,0.1364,0.1327,0.2114
	c0.0071,0.0143,0.0444,0.0211,0.0658,0.0179c0.0123-0.0018,0.0329-0.0345,0.0289-0.0465c-0.036-0.1099,0.0201-0.2409-0.0747-0.3257
	c0.0558-0.0439,0.1073-0.0844,0.1588-0.125c0.0381-0.0313,0.0761-0.0625,0.1179-0.0968c0.0353,0.0211,0.0673,0.0402,0.1204,0.0719
	c-0.022-0.0692-0.0313-0.1145-0.0506-0.1551c-0.024-0.0504-0.0582-0.0559-0.1008-0.0194
	C15.6141,4.8081,15.5868,4.8764,15.5902,4.9569z M15.9006,17.6802c0.0376-1.1013,0.0944-2.1717,0.1091-3.2571
	c-0.0605,0.009-0.1014,0.0158-0.1426,0.0211c-0.1114,0.0143-0.1303-0.0018-0.1582-0.1092
	c-0.0341-0.1314-0.0659-0.2642-0.1128-0.3911c-0.069-0.1866-0.151-0.2204-0.3506-0.161c-0.0041,0.0263-0.0104,0.055-0.0129,0.084
	c-0.0092,0.1037-0.0402,0.1998-0.0993,0.2858c-0.0814,0.1183-0.1307,0.248-0.1371,0.3919c-0.0048,0.1075-0.061,0.1721-0.1591,0.207
	c-0.064,0.0228-0.1355,0.0364-0.1888,0.0748c-0.0939,0.0677-0.1629,0.0917-0.2746,0.0114c-0.1054-0.0757-0.236-0.0407-0.3427,0.045
	c-0.0792,0.0637-0.1581,0.1297-0.2448,0.1819c-0.2362,0.1421-0.4244,0.3352-0.5991,0.5439
	c-0.0217,0.026-0.0421,0.0539-0.0582,0.0836c-0.1148,0.2118-0.2745,0.3875-0.442,0.5575c-0.0504,0.0512-0.0925,0.1106-0.1377,0.1668
	c-0.0433,0.0538-0.0858,0.1084-0.1358,0.1716c0.0578,0.0149,0.0991,0.0239,0.1393,0.0362c0.207,0.0633,0.4148,0.124,0.6201,0.1923
	c0.1489,0.0495,0.2911,0.1215,0.4421,0.1623c0.455,0.123,0.9104,0.2467,1.3705,0.3479c0.2608,0.0574,0.5059,0.1422,0.7396,0.267
	C15.7725,17.6192,15.822,17.6416,15.9006,17.6802z M15.3236,7.5618c0.02-0.054,0.0302-0.1059,0.0566-0.1476
	c0.0423-0.0668,0.0868-0.1369,0.1459-0.1873c0.0885-0.0754,0.1792-0.0457,0.2192,0.0652c0.0183,0.0506,0.0211,0.1077,0.025,0.1623
	c0.0081,0.1152,0.006,0.1178,0.1163,0.1394c0.1107,0.0216,0.1941,0.08,0.2591,0.1702c0.0783,0.1087,0.133,0.2268,0.1526,0.3601
	c0.0074,0.0502,0.012,0.1025,0.0845,0.1176c0.0944-0.1178,0.1976-0.2311,0.2806-0.3576c0.0363-0.0553,0.0458-0.139,0.0391-0.207
	C16.6993,7.6443,16.632,7.6155,16.591,7.589c-0.1929-0.1243-0.2435-0.2953-0.1503-0.5118c0.0048-0.0111,0.0041-0.0245,0.0068-0.042
	c-0.0178-0.0154-0.0352-0.0339-0.0559-0.0476c-0.1587-0.1053-0.3181-0.2097-0.4848-0.3193
	c-0.0302,0.036-0.0551,0.0637-0.0777,0.0932c-0.0245,0.0321-0.0467,0.0659-0.0867,0.1229
	c-0.0672-0.0843-0.1223-0.1534-0.1837-0.2303c-0.1427,0.1152-0.2944,0.1567-0.4502,0.1794c-0.1256,0.0183-0.2533,0.0276-0.3802,0.03
	c-0.0768,0.0014-0.1247,0.027-0.1654,0.092c-0.0538,0.0861-0.1183,0.1657-0.1797,0.2469c-0.0325,0.043-0.068,0.0837-0.1107,0.1358
	c0.0884,0.0387,0.1643,0.0731,0.2411,0.1052c0.1324,0.0554,0.1927,0.1569,0.2017,0.2974c0.0136,0.2135,0.0316,0.4267,0.049,0.657
	c0.0271-0.034,0.0541-0.0618,0.0741-0.0939C14.9348,8.149,14.9849,7.9887,14.9371,7.8c-0.0195-0.0769,0.0032-0.1693,0.0239-0.2502
	c0.026-0.1017,0.086-0.1271,0.1832-0.0871C15.2019,7.4864,15.2544,7.523,15.3236,7.5618z M21.2187,7.0464
	c-0.0259,0.0365-0.0418,0.0556-0.0542,0.0768c-0.0827,0.1404-0.0951,0.143-0.2554,0.1075
	c-0.0649-0.0143-0.1346-0.0215-0.2002-0.0142c-0.1154,0.0128-0.1191,0.0199-0.1195,0.1351
	c-0.0003,0.1058-0.0214,0.2015-0.0929,0.2837c-0.02,0.023-0.0288,0.0557-0.0433,0.0851c0.0675,0.0237,0.1321,0.031,0.1766,0.0648
	c0.1171,0.0887,0.2158,0.0534,0.3263-0.0134c0.0666-0.0403,0.1473-0.0675,0.2245-0.0768c0.0826-0.0099,0.1688,0.0056,0.2529,0.0146
	c0.0959,0.0102,0.1913,0.0269,0.2918-0.0175C21.5555,7.4758,21.3909,7.2659,21.2187,7.0464z M9.8481,8.7541
	C9.846,8.7666,9.8435,8.7715,9.8449,8.7746c0.1267,0.2644,0.2716,0.5177,0.4684,0.7372c0.024,0.0267,0.0616,0.0422,0.0946,0.0597
	c0.1042,0.0555,0.2093,0.1092,0.3138,0.1642c0.0347,0.0183,0.0684,0.0384,0.1275,0.0717c-0.0104-0.0674-0.0107-0.1054-0.0225-0.1395
	c-0.0747-0.2165-0.1485-0.4335-0.23-0.6475c-0.033-0.0866-0.0816-0.168-0.1297-0.2478c-0.0147-0.0245-0.0501-0.0489-0.0778-0.0511
	c-0.118-0.0091-0.2367-0.011-0.3552-0.0132C9.9667,8.707,9.8994,8.711,9.8481,8.7541z M10.953,9.4034
	c0.0544-0.1861,0.1034-0.3526,0.1517-0.5194c0.0346-0.1194,0.0842-0.2306,0.1614-0.3297c0.0324-0.0415,0.0527-0.0924,0.0757-0.1341
	c-0.0149-0.0184-0.0191-0.0267-0.0258-0.031c-0.0105-0.0068-0.0224-0.0118-0.0342-0.0162c-0.1054-0.0393-0.1111-0.0357-0.1865,0.054
	c-0.0238,0.0283-0.0563,0.0525-0.0896,0.0688c-0.0838,0.0411-0.17,0.0772-0.2558,0.1141c-0.0534,0.0229-0.1077,0.0436-0.1629,0.0659
	C10.71,8.9204,10.8269,9.1529,10.953,9.4034z M14.5386,3.4288c0.111,0.0782,0.1913,0.1506,0.2283,0.262
	c0.0086,0.0258,0.0485,0.0432,0.0766,0.0602c0.1048,0.0635,0.2108,0.1251,0.3162,0.1877c0.0363,0.0216,0.0708,0.0468,0.1086,0.0653
	c0.2019,0.0989,0.4047,0.1959,0.6069,0.2943c0.1362,0.0663,0.1608,0.0576,0.2319-0.0934c-0.1103-0.0674-0.2258-0.1298-0.3323-0.205
	c-0.1287-0.091-0.264-0.1398-0.4241-0.1448c-0.2075-0.0065-0.3734-0.1033-0.4813-0.2866c-0.0323-0.0548-0.0615-0.1114-0.0933-0.1664
	c-0.0163-0.0283-0.0353-0.055-0.0602-0.0933C14.6579,3.348,14.6073,3.3823,14.5386,3.4288z M19.5035,6.4068
	c0.0364,0.0177,0.0469,0.0271,0.0575,0.0273c0.218,0.0033,0.4288,0.0372,0.6272,0.1343c0.0211,0.0103,0.063,0.0063,0.0798-0.0086
	c0.0404-0.0358,0.0781-0.0782,0.1051-0.1248c0.0332-0.0572,0.0006-0.1689-0.0508-0.1736c-0.1505-0.0137-0.3053-0.0394-0.4518-0.0171
	C19.7507,6.2626,19.6406,6.3433,19.5035,6.4068z M21.8759,5.8228C21.853,5.878,21.8543,5.917,21.9086,5.9445
	c0.0642,0.0325,0.1232,0.0753,0.1857,0.1115c0.1414,0.082,0.2899,0.0544,0.4616,0.0406c-0.0959-0.146-0.2008-0.2491-0.3125-0.3456
	c-0.0171-0.0148-0.0478-0.0222-0.071-0.0201c-0.114,0.0106-0.2278,0.0241-0.3411,0.0402c-0.0281,0.004-0.0544,0.0215-0.0815,0.0328
	c0.002,0.0063,0.0041,0.0126,0.0061,0.0188C21.7927,5.8228,21.8296,5.8228,21.8759,5.8228z M17.0932,9.7397
	c0.1738-0.0871,0.2256-0.1617,0.2173-0.3229c-0.0053-0.1027,0.0209-0.1927,0.0684-0.2791c0.049-0.0891,0.102-0.1759,0.1519-0.2644
	c0.0132-0.0235,0.0214-0.0498,0.0425-0.1003c-0.0698,0.023-0.1268,0.0262-0.1603,0.056c-0.0871,0.0774-0.1639,0.1664-0.2448,0.2508
	C17.1439,9.2933,17.1196,9.5069,17.0932,9.7397z M13.1164,7.6027c0.0403-0.028,0.0729-0.0472,0.1012-0.0713
	c0.0318-0.0272,0.07-0.0541,0.0866-0.0899c0.0155-0.0334,0.0226-0.0933,0.0036-0.1139c-0.0198-0.0214-0.0782-0.0203-0.1147-0.0103
	c-0.0608,0.0166-0.095,0.0622-0.1051,0.1294c-0.0086,0.0572-0.0345,0.1117-0.0468,0.1686
	c-0.0183,0.0852-0.0946,0.1194-0.1548,0.1715c0.1365,0.0655,0.147,0.091,0.0966,0.2285c-0.1182-0.0392-0.2444-0.1034-0.3233,0.0554
	c-0.0894-0.0161-0.0894-0.0161-0.133,0.0238c0.1146,0.062,0.2353,0.0848,0.3642,0.0778c0.1311-0.0071,0.1413-0.0135,0.1464-0.1487
	c0.0045-0.1213,0.038-0.2304,0.1305-0.3201C13.1536,7.6756,13.1388,7.6465,13.1164,7.6027z M19.3113,3.9378
	c-0.0026,0.1144,0.0669,0.1858,0.1586,0.1594c0.0698-0.0201,0.146-0.0551,0.1732-0.1341c0.0233-0.0677,0.0389-0.1389,0.0495-0.2098
	c0.0096-0.0649,0.001-0.1325-0.0667-0.1646c-0.0661-0.0313-0.1254-0.0009-0.1723,0.0466
	C19.3673,3.7228,19.3205,3.8299,19.3113,3.9378z M22.1673,6.6527c0.0074,0.0601,0.0076,0.0883,0.0146,0.1146
	c0.0448,0.1696,0.0422,0.335-0.038,0.4948c-0.0256,0.0509-0.0244,0.0983,0.0208,0.1384c0.0428,0.038,0.1114,0.04,0.1646-0.0007
	c0.071-0.0542,0.1052-0.1316,0.1212-0.2171c0.0156-0.0833-0.0629-0.1004-0.1041-0.1436c-0.0026-0.0027-0.0027-0.0077-0.0069-0.0204
	c0.0313-0.0417,0.0659-0.0878,0.1103-0.1471C22.3606,6.8026,22.2758,6.7368,22.1673,6.6527z M16.8023,10.885
	c-0.0089,0.0198-0.0152,0.0274-0.0149,0.0346c0.0006,0.0124,0.0016,0.028,0.0091,0.0362c0.0824,0.0907,0.1181,0.2009,0.1458,0.3177
	c0.0158,0.0666,0.059,0.0675,0.1114,0.0146c0.0622-0.0629,0.126-0.1241,0.1893-0.1859c0.0151-0.0148,0.0391-0.0265,0.0443-0.044
	c0.0099-0.0334,0.0212-0.0751,0.009-0.1035c-0.0086-0.0199-0.0546-0.0293-0.085-0.0325c-0.0311-0.0033-0.0635,0.0066-0.0922,0.0104
	c-0.0325-0.0592,0.0027-0.0884,0.0309-0.119c0.044-0.0476,0.0511-0.0936,0.0043-0.1452c-0.02-0.022-0.0314-0.0519-0.0626-0.1055
	c-0.0103,0.0833-0.0161,0.1366-0.0237,0.1897c-0.0078,0.0542-0.0108,0.1102-0.0276,0.1616
	c-0.0283,0.0869-0.0677,0.0973-0.1409,0.0454C16.8669,10.9365,16.836,10.911,16.8023,10.885z M22.44,7.498
	c0.0449,0.0878,0.1005,0.1721,0.0768,0.2826c-0.0096,0.0447,0.0845,0.1352,0.1248,0.1248c0.106-0.0274,0.186,0.0242,0.2655,0.0758
	c0.0892-0.1231,0.0578-0.2171-0.0751-0.2451c-0.0372-0.0078-0.0745-0.0152-0.112-0.0212c-0.0521-0.0083-0.0698-0.0408-0.0667-0.0945
	c0.0099-0.0092,0.0206-0.0227,0.0344-0.0314c0.0424-0.0265,0.0612-0.0682,0.0363-0.1074c-0.0199-0.0315-0.06-0.062-0.0959-0.0691
	C22.5536,7.3977,22.4873,7.4233,22.44,7.498z M20.3295,4.9952c0.0584,0.0244,0.0933,0.0388,0.1281,0.0535
	c0.1315,0.0559,0.2316,0.1381,0.2592,0.2893c0.0076,0.0418,0.034,0.0801,0.0553,0.1278c0.1715-0.2138,0.139-0.3072-0.0259-0.5671
	C20.6149,4.9291,20.4839,4.9595,20.3295,4.9952z M21.8599,6.1942c0.075,0.1009,0.1282,0.1348,0.2552,0.1406
	c0.1482,0.0068,0.2972,0.0063,0.4455,0.0011c0.155-0.0055,0.2744,0.0426,0.3409,0.1909c0.0028,0.0062,0.0138,0.0088,0.031,0.0189
	c0.0713-0.0359,0.1481-0.0746,0.2443-0.1231c-0.1841-0.1125-0.4011-0.0753-0.5413-0.2271
	C22.3767,6.3776,22.1282,6.223,21.8599,6.1942z M20.122,9.5983c-0.0094-0.0767-0.0595-0.1052-0.1192-0.1183
	c-0.0615-0.0135-0.1208,0-0.1601,0.0517c-0.0354,0.0466-0.0229,0.0972,0.0131,0.1396c0.0294,0.0345,0.024,0.0678,0.01,0.106
	c-0.013,0.0355-0.0221,0.0728-0.0294,0.1101c-0.0178,0.0912,0.0042,0.1223,0.1218,0.1652c0.0483-0.0897,0.0593-0.2115,0.1756-0.2474
	c-0.0182-0.1208-0.1427-0.0388-0.1893-0.125C20.0014,9.6538,20.0562,9.6286,20.122,9.5983z M19.4705,10.0372
	c-0.1007-0.0724-0.1887-0.069-0.2198,0.0112c-0.0361,0.0931-0.0581,0.1926-0.0275,0.2756c0.0935,0.0097,0.1712,0.0173,0.2488,0.0261
	c0.021,0.0024,0.0415,0.011,0.0623,0.0115c0.039,0.0008,0.1138-0.063,0.1179-0.1014c0.0055-0.052-0.0306-0.0714-0.0713-0.0919
	c-0.0686-0.0346-0.1358-0.0429-0.2085-0.0152c-0.0311,0.0118-0.0654,0.0155-0.1214,0.028
	C19.3283,10.0948,19.3283,10.0948,19.4705,10.0372z M12.5927,7.6925c-0.0266-0.0453-0.0557-0.0958-0.0858-0.1457
	c-0.0784-0.1297-0.1813-0.1476-0.2901-0.0435c-0.0299,0.0286-0.0656,0.0863-0.0549,0.1137c0.015,0.0386,0.0666,0.0748,0.1098,0.0879
	c0.0792,0.0239,0.1637,0.0305,0.2461,0.0437C12.5565,7.7548,12.5839,7.7422,12.5927,7.6925z M15.7644,6.0513
	c0.0507-0.1004,0.0802-0.216,0.0887-0.3394c0.004-0.0577-0.0208-0.0814-0.0683-0.0825c-0.0497-0.0011-0.0996,0.0098-0.1412,0.0145
	c-0.0358,0.0614-0.068,0.1154-0.0989,0.1701c-0.0239,0.0424-0.0229,0.077,0.0253,0.1062
	C15.6361,5.9604,15.6986,6.0066,15.7644,6.0513z M21.3662,8.4896c-0.1114-0.0671-0.2024-0.122-0.3049-0.1838
	c-0.0201,0.1017-0.0351,0.184-0.0528,0.2656c-0.0171,0.0788-0.037,0.157-0.0557,0.2355c0.0095,0.0052,0.0189,0.0105,0.0284,0.0157
	C21.1038,8.7165,21.2265,8.6104,21.3662,8.4896z M18.1823,7.1001c0.0481-0.104,0.0947-0.2049,0.1404-0.3036
	c0.0806-0.0092,0.1718-0.0197,0.2704-0.0309c0.0138,0.019,0.0315,0.0433,0.0657,0.0905c0.0131-0.0775,0.0215-0.1272,0.0293-0.1735
	c-0.1101-0.0429-0.1626,0.0442-0.2357,0.0679c-0.0333-0.0141-0.0634-0.0308-0.0957-0.0399
	c-0.0863-0.0243-0.2249,0.0678-0.2302,0.1495c-0.0035,0.0543-0.0088,0.1086-0.0152,0.1626
	C18.1062,7.0663,18.1119,7.0997,18.1823,7.1001z M15.0593,9.584c-0.0197,0.0127-0.0555,0.0232-0.0691,0.0467
	c-0.0358,0.0617-0.0644,0.128-0.0911,0.1943c-0.0234,0.058,0.0032,0.1073,0.0664,0.1267c0.058,0.0178,0.1173,0.0314,0.1944,0.0516
	c0-0.0632,0.0108-0.1194-0.0025-0.169C15.1366,9.7567,15.0994,9.6835,15.0593,9.584z M22.0721,8.3496
	c0.0508,0.0625,0.0938,0.124,0.1459,0.1764c0.0349,0.0351,0.0854,0.0381,0.1295,0.0094c0.0537-0.035,0.0684-0.1554,0.0298-0.2231
	c-0.0379-0.0665-0.1113-0.0827-0.187-0.0394C22.1579,8.2914,22.1275,8.3134,22.0721,8.3496z M16.1075,5.4011
	c0.0123-0.0871,0.0215-0.1611,0.0334-0.2346c0.0106-0.0652-0.0306-0.1363-0.0888-0.1487c-0.0423-0.009-0.1052,0.0364-0.121,0.0938
	c-0.0164,0.0596-0.0266,0.1209-0.0386,0.177C15.9626,5.3254,16.0283,5.3598,16.1075,5.4011z M19.7499,4.6323
	c-0.0812-0.083-0.144-0.1559-0.2168-0.2169c-0.0246-0.0206-0.0745-0.011-0.1176-0.0157c0.0398,0.2372,0.0533,0.2622,0.1793,0.3364
	C19.6366,4.7081,19.6814,4.6781,19.7499,4.6323z M12.6477,10.2935c-0.0042,0.007-0.0084,0.014-0.0125,0.021
	c0.0271,0.0252,0.0573,0.0479,0.0808,0.0762c0.0935,0.1128,0.2139,0.1028,0.3363,0.0736c0.0602-0.0143,0.0725-0.0575,0.0305-0.1029
	c-0.0212-0.0229-0.054-0.0458-0.0834-0.0485C12.8826,10.3021,12.765,10.2992,12.6477,10.2935z M14.6349,9.1985
	c-0.0855,0.0033-0.1334,0.0313-0.1407,0.0934c-0.0076,0.0642-0.0434,0.1367,0.0151,0.1939c0.0478,0.0468,0.1016,0.0881,0.1561,0.127
	c0.0167,0.0119,0.0447,0.0078,0.0675,0.011c0.0019-0.0223,0.013-0.0496,0.0041-0.0661c-0.0456-0.0853-0.0962-0.1678-0.1441-0.2495
	C14.6058,9.2747,14.6174,9.2443,14.6349,9.1985z M19.1684,9.0922c-0.0116,0.0008-0.0249-0.0011-0.0362,0.0029
	c-0.044,0.0155-0.0886,0.0304-0.1308,0.0501c-0.0663,0.0308-0.0827,0.096-0.0433,0.1593c0.0407,0.0654,0.1044,0.0821,0.1621,0.0425
	C19.2075,9.2872,19.2243,9.2006,19.1684,9.0922z M18.2292,7.3359c-0.0941,0.0271-0.1744,0.0502-0.2583,0.0744
	c0.0319,0.08,0.0604,0.1514,0.0921,0.2311C18.1551,7.5606,18.278,7.5115,18.2292,7.3359z M17.8658,8.1655
	c-0.1742,0.0325-0.2212,0.0936-0.204,0.2564c0.0887-0.0204,0.1762-0.0405,0.2777-0.0639
	C17.9116,8.2849,17.8898,8.228,17.8658,8.1655z M18.5099,7.1467c0.0298,0.0581,0.0604,0.1175,0.0947,0.1843
	c0.0559-0.0656,0.1137-0.1213,0.1547-0.1875c0.0171-0.0275,0.0114-0.0854-0.0071-0.115c-0.0285-0.0455-0.0782-0.0213-0.1118,0.0034
	C18.5935,7.0663,18.5524,7.1087,18.5099,7.1467z M12.9867,10.6841c0.0417,0.059,0.0713,0.0991,0.0989,0.1404
	c0.0666,0.0996,0.1019,0.1075,0.2192,0.0415c-0.0426-0.0719-0.0851-0.1436-0.1305-0.2203
	C13.1141,10.6581,13.0613,10.6689,12.9867,10.6841z M15.1754,9.3568c-0.0198-0.0794-0.035-0.1433-0.0517-0.2068
	c-0.0135-0.0514-0.0486-0.0831-0.1011-0.0765c-0.0584,0.0074-0.0702,0.0581-0.0658,0.1061c0.005,0.0535,0.0201,0.1061,0.0316,0.1626
	C15.0465,9.3468,15.1005,9.351,15.1754,9.3568z M19.9172,3.6959c-0.0059,0.0128-0.0118,0.0257-0.0177,0.0385
	c0.0355,0.055,0.0664,0.1139,0.1088,0.1628c0.0162,0.0187,0.0671,0.0294,0.0875,0.0178c0.0521-0.0297,0.0634-0.0869,0.0546-0.1441
	c-0.0078-0.0507-0.0393-0.0881-0.0911-0.0906C20.0122,3.6779,19.9645,3.6901,19.9172,3.6959z M19.0721,5.407
	c0.07-0.0045,0.1277-0.0084,0.1854-0.012c0.1195-0.0074,0.1422-0.0401,0.1161-0.1803c-0.0436,0.006-0.0878,0.0126-0.132,0.0181
	C19.1187,5.2481,19.1067,5.2594,19.0721,5.407z M18.8894,4.437c0.0537-0.0198,0.0989-0.032,0.1399-0.0526
	c0.0661-0.0331,0.0673-0.0961,0.0059-0.1392c-0.0537-0.0377-0.1445-0.0441-0.1785-0.0088C18.81,4.2849,18.8311,4.3387,18.8527,4.39
	C18.8588,4.4046,18.8725,4.4159,18.8894,4.437z M16.7073,26.209c-0.009,0.1921-0.0165,0.3542-0.0241,0.5164
	c0.0081,0.0012,0.0161,0.0023,0.0242,0.0035c0.041-0.145,0.0819-0.29,0.1252-0.4432C16.8004,26.2659,16.7696,26.2471,16.7073,26.209
	z M19.9716,4.7114c0.12-0.0765,0.1549-0.1349,0.1279-0.2195c-0.0085-0.0266-0.0377-0.0572-0.0638-0.0652
	c-0.0404-0.0124-0.0727,0.014-0.0837,0.0565C19.9328,4.5575,19.9329,4.6304,19.9716,4.7114z M11.3547,10.1201
	c-0.1068-0.1185-0.2008-0.2228-0.2975-0.3301c-0.0549,0.1765,0.0987,0.2466,0.1778,0.3617
	C11.2761,10.1409,11.3145,10.1308,11.3547,10.1201z M12.4066,7.7999c-0.0799-0.0009-0.1422,0.0209-0.1948,0.0671
	C12.1786,7.8961,12.1755,7.9322,12.2,7.9697c0.0241,0.0369,0.0558,0.0479,0.0983,0.0328
	C12.3722,7.9761,12.4053,7.9194,12.4066,7.7999z M16.9626,2.0345c0.0114,0.0046,0.0229,0.0093,0.0343,0.0139
	c0.0544-0.1077,0.1532-0.1074,0.2555-0.105c0.0149-0.0472,0.028-0.0889,0.0455-0.1445c-0.125,0.0195-0.2122,0.0799-0.3001,0.133
	C16.974,1.9462,16.9737,1.9992,16.9626,2.0345z M22.0104,8.2404c-0.0058-0.0884-0.0051-0.153-0.0164-0.2154
	c-0.0049-0.0269-0.0315-0.0645-0.054-0.0693c-0.0218-0.0045-0.0657,0.0219-0.0735,0.0441c-0.0108,0.0306-0.009,0.0786,0.009,0.1038
	C21.9104,8.1528,21.9604,8.1913,22.0104,8.2404z M16.0588,1.3722c-0.0038-0.0114-0.0076-0.0227-0.0114-0.0341
	c-0.0864,0.0065-0.173,0.0112-0.2589,0.0217c-0.0128,0.0016-0.0346,0.0366-0.0303,0.0463c0.0082,0.0183,0.0332,0.0423,0.0498,0.0412
	c0.0673-0.0045,0.1346-0.0148,0.2004-0.0294C16.0276,1.4136,16.0421,1.388,16.0588,1.3722z M11.9419,9.9136
	c-0.0808,0.0562-0.1488,0.1035-0.2169,0.1508c0.075,0.0153,0.1419,0.0134,0.2085,0.008c0.0242-0.0019,0.0477-0.0122,0.0875-0.023
	C11.993,10.0015,11.9696,9.9613,11.9419,9.9136z M13.4222,4.8812c-0.001,0.0963,0.0393,0.1237,0.103,0.1215
	c0.0586-0.002,0.1067-0.0209,0.1077-0.111C13.5631,4.8882,13.499,4.885,13.4222,4.8812z M19.9517,10.4275
	c-0.0707,0.0616-0.0798,0.0774-0.0773,0.1201c0.003,0.0529,0.0323,0.076,0.0833,0.0726c0.0501-0.0033,0.0752-0.0374,0.0569-0.0893
	C20.0016,10.4944,19.974,10.4632,19.9517,10.4275z M18.209,5.2856c0.0723,0.0463,0.1259,0.0806,0.1994,0.1277
	c-0.0104-0.1015-0.0236-0.17-0.1007-0.2183C18.2783,5.222,18.2517,5.2464,18.209,5.2856z M14.82,9.0936
	c-0.0219-0.0385-0.027-0.0564-0.0387-0.0666c-0.0328-0.0282-0.0723-0.0787-0.1021-0.0741
	c-0.0573,0.0088-0.0575,0.0731-0.0567,0.1237c0.0003,0.0189,0.0095,0.0376,0.0193,0.0735c0.0184-0.0256,0.0267-0.0372,0.0351-0.0488
	c0.0115-0.016,0.0231-0.032,0.0362-0.0502C14.745,9.0638,14.771,9.0742,14.82,9.0936z M16.015,3.9467
	c0.0799,0.1049,0.1347,0.1393,0.2193,0.1429C16.1794,3.9695,16.132,3.9367,16.015,3.9467z M19.4533,6.1572
	c0.0058,0.0067,0.0117,0.0135,0.0175,0.0202c0.0522-0.0198,0.1044-0.0397,0.1732-0.0658c-0.05-0.0485-0.0699-0.0977-0.1324-0.0962
	C19.4909,6.0655,19.4721,6.1114,19.4533,6.1572z M12.2069,8.0904c-0.0217,0.0063-0.0432,0.0059-0.0514,0.0162
	c-0.0189,0.0236-0.0313,0.0524-0.0463,0.0791c0.0173,0.0097,0.0445,0.0315,0.0501,0.0269c0.0234-0.0192,0.0432-0.0447,0.058-0.0714
	C12.2229,8.1311,12.2117,8.1116,12.2069,8.0904z M15.9481,12.1223c0.0516,0.0564,0.0895,0.0978,0.1406,0.1537
	C16.0919,12.1442,16.0919,12.1442,15.9481,12.1223z M19.4472,9.7112c0.0028,0.009,0.0055,0.0179,0.0083,0.0269
	c0.0684,0.007,0.0684,0.007,0.0916-0.0575C19.5066,9.693,19.4769,9.7021,19.4472,9.7112z M22.5639,8.2144
	c0.0024-0.01,0.0049-0.02,0.0073-0.03c-0.0228-0.003-0.0456-0.006-0.0684-0.0089c-0.001,0.0092-0.002,0.0184-0.003,0.0275
	C22.5212,8.2068,22.5425,8.2106,22.5639,8.2144z M19.8991,4.0487c-0.0042-0.0081-0.0084-0.0163-0.0125-0.0244
	c-0.02,0.0104-0.04,0.0209-0.06,0.0313c0.004,0.0078,0.0081,0.0157,0.0121,0.0235C19.8588,4.069,19.879,4.0589,19.8991,4.0487z
	 M22.2285,8.1273c-0.0108-0.0036-0.0211-0.0083-0.0317-0.0094c-0.0022-0.0002-0.0097,0.0182-0.0081,0.0195
	c0.0085,0.0066,0.0191,0.0105,0.029,0.0153C22.2207,8.1457,22.2237,8.1386,22.2285,8.1273z M19.1313,4.7829
	c0.0104-0.0131,0.022-0.0212,0.0221-0.0295c0.0001-0.0081-0.0114-0.0164-0.0179-0.0246c-0.008,0.0075-0.0205,0.014-0.0224,0.0228
	C19.1116,4.7589,19.1226,4.7689,19.1313,4.7829z"/>
</svg>
