<?xml version="1.0" encoding="utf-8"?>
<!-- Generator: Adobe Illustrator 23.1.1, SVG Export Plug-In . SVG Version: 6.00 Build 0)  -->
<svg version="1.1" id="wild_x5F_cabbage" xmlns="http://www.w3.org/2000/svg" xmlns:xlink="http://www.w3.org/1999/xlink" x="0px"
	 y="0px" viewBox="0 0 32 32" style="enable-background:new 0 0 32 32;" xml:space="preserve">
<style type="text/css">
	.st0{fill:#FFFFFF;}
</style>
<g>
	<path class="st0" d="M20.2,24.5c0-0.2,0.2-0.5,0.6-0.7c0.4-0.3,0.6-0.8,0.7-1.3c0-0.1,0-0.3,0-0.4c0-0.4,0.2-0.9,0.7-1.2
		c0.5-0.2,0.6-0.9,0.6-0.9s0-0.7,0-1.1c0-0.4,0.5-0.8,1-1.5c0.5-0.7-0.4-0.6-0.4-0.6s0-0.6,0-0.9c0-0.4,1-0.2,1-0.2V14
		c0.6-0.9-0.2-1.3-0.2-1.3c-0.4,0-0.1-1.1-0.1-1.1c-0.3-0.4-0.7-0.9-1.3-0.7c-0.2-0.3-0.3-0.6-0.5-0.8c-0.2-0.3-0.7-0.4-0.9-0.8
		c-0.2-0.4,0-0.5,0.3-0.7c0.1-0.1,0.7-0.8,0.7-0.7c-0.4-0.2-0.6-0.5-1-0.7c-0.1-0.1-1-0.1-1,0l-0.2-0.9c-0.6,0.6-0.7-1.3-0.7-1.3
		c-0.3,0.8-1.1,0.2-1.6,0.2c-0.4,0-0.7,0.6-0.9,0.9c-0.5-0.7-0.7,0.3-0.7,0.4c-0.1,0.4,0.2,1.2-0.6,1.1c-0.5-0.1-0.7-0.6-0.7-1.1
		c-0.2-1.1-1.2-0.6-1.4-0.4c-0.5,0.5-1.5,0.3-2.1,0.2c-0.3-0.1-0.6-0.1-0.9-0.2C10.1,6,10.2,5.9,9.9,6.2C9.6,6.5,8,6.8,8,7.2
		c0,0.6-0.4,1-0.4,1c-0.5,0.2-0.5,1.9-0.5,1.9h0.4l0.3-0.3c0,0,0,0.1,0,0.3c0.2,0.7,0.5,1.6,1.4,1.5c0.4,0.4,1.3,1.3,1.9,1.1
		c0.1,1.4,0.8,2.6,2.2,2.9c-0.3,0.1-0.6,0.3-0.9,0.5c0.2,0.5,0.3,1,0.5,1.4c0.1,0.2,0.4,0.4,0.4,0.6c0,0.2-0.2,0.6-0.3,0.8
		c0.2,0,0.4,0.1,0.6,0.1c-0.2,0.8-0.4,1.3,0.2,1.9c0.3,0.3,0.8,0.4,1.1,0.6c0.4,0.3,0.7,0.8,0.9,1.2c0.4,0.7,0.7,1.4,1.1,2
		c-1.7,0-1.8-1.8-2.7-2.8c-0.5-0.6-1.8-0.7-1.9-1.7c0-0.3,0.1-0.9,0.2-1.2c-0.2,0-0.4-0.1-0.6-0.1c0.1-0.2,0.3-0.6,0.3-0.8
		c0-0.2-0.2-0.4-0.4-0.6c-0.3-0.4-0.4-0.9-0.5-1.4c0.3-0.2,0.6-0.3,0.9-0.5c-1.4-0.3-2.1-1.6-2.2-2.9c-0.4,0.2-0.8-0.1-1.1-0.3
		c-0.1-0.1-0.7-0.8-0.7-0.8C7,11.8,7,9.9,7,9.9l-0.8,0.6l-1.4,0.1L4,10c-0.8,1.2-1.4,0.7-1.4,0.7l-1,0.8L1,12.1v1.2l0.9,0.6
		l-0.2,2.5l-0.6,0.6l0.6,2.3c2.1-2.2,5.8-1.1,5.8-1.1c0.7-0.2,3.1,3.4,3.1,3.4c0.7,2,2.1,1.6,2.1,1.6c0.7,1,2.1,1.4,2.9,1.6l1.1,0.9
		l0.6,1.3l0.7,0.1l0.6-0.7l0.1-0.4l0.1-0.2c0,0,0.2-0.7,1.1-0.8C20.7,24.8,20.2,24.7,20.2,24.5z M13.6,23.5c-0.4-0.2-0.7-0.5-1-0.8
		c-0.6-0.5-1.2-1.2-1.7-1.8c-1-1.3-1.9-2.7-3.4-3.5c-1.4-0.7-3.3-0.8-4.8-0.3c1.4-0.4,2.7-0.8,4.1-0.7c-1.4-2.5-3.9-2.5-3.9-2.5
		c2.7-0.3,4,1.5,4.6,2.6c0.7,0.1,1.4,0.4,2.1,0.8c-0.2-0.6-0.7-1.6-2-3.3c0,0,3.1,2.8,3.2,4.5c1,1.2,1.6,2.7,2.9,3.6
		c0,0,0.6,0.3,0.6,0.2c0,0,0.3,1.6,0.3,1.6C14.4,23.9,13.6,23.5,13.6,23.5z M17.7,20.2c0.1,0.5,1,3.1,0.9,4c0,0.3-0.1,0.5-0.2,0.7
		c0,0-0.1,0.1-0.1,0.1c-0.1,0.1-1.1,0.2-1.1,0c-0.3-2.4-0.7-4.9-1.3-7.3c-0.8,0-2.4-1.3-2.4-1.3c0.5,0.3,1.6,0.5,2.2,0.6
		c-0.5-2.2-1.1-4.3-1.9-6.4c0.6,1.5,1.3,3,2,4.4c0.3-0.3,1.2-1.3,1.2-3.5c0,0,0,3.1-0.9,4c0.1,0.2,0.8,2,1.1,2.7
		c0.5-0.3,2.5-1.8,3.4-6C20.6,12.3,19.5,19.3,17.7,20.2z"/>
	<path class="st0" d="M30.9,11.8c0.4-0.3-0.4-1.1-0.4-1.1c-0.6,0.1-0.9-1.1-0.9-1.1c-0.7-1-1.9,0.1-1.9,0.1c-0.2,0-0.6-0.5-0.6-0.5
		c0-0.5-1.1,0-1.1,0C25.6,8.8,25,9.9,25,9.9c-0.2-0.9-1-0.7-1-0.7c-0.8-0.5-1.2,0.4-1.2,0.4s0.3,0.7,0.6,0.7c0,0,1,0.5,1.7,1.6
		c0,0-0.2,1,0.1,1.1c0,0,0.7,0.4,0.2,1.3l-0.1,1.6c0,0-1.2-0.2-1.2,0.2c0,0.4,0,0.9,0,0.9s0.9-0.1,0.4,0.6c-0.5,0.7-1,1.1-1,1.5
		c0,0.4,0,1.1,0,1.1s-0.2,0.7-0.7,0.9c-0.5,0.2-0.7,0.8-0.7,1.1c0,0.5-0.1,1-0.5,1.4c-0.1,0.1-0.2,0.2-0.3,0.3
		c-0.4,0.2-0.6,0.4-0.6,0.7c0,0,0,0.1,0,0.1c0.7-0.5,2.2-1.7,3.6-3.5c0.6-1.1,1.7-3.4,1.8-6.3c0-0.5,0-0.9,0-1.1c0-0.1,0-0.1,0-0.2
		c0,0,0,0.1,0,0.2c0,0.4,0,0.8,0,1.1c0,1.1-0.1,2.8-0.5,4.2c0.4-0.7,0.7-1.4,0.9-2.2c0.2-0.6,0.3-1,0.3-1.4c0-0.1,0.1-0.3,0.1-0.4
		c0,0,0-0.1,0-0.1c0,0,0,0,0,0.1c0,0.1,0,0.2-0.1,0.4c-0.1,0.5-0.2,0.9-0.3,1.4c-0.7,2.5-2.4,6.8-5.8,8c0.1,0.1,0.1,0.2-0.5,0.2
		c-0.4,0-0.6,0.2-0.8,0.3c5.9-0.8,7.7-9.1,7.7-9.1c0.4-2.3,1.9-1.7,1.9-1.7c2.2-0.3,0.8-1.5,1.5-1.8C31.3,12.6,30.9,11.8,30.9,11.8z
		"/>
</g>
</svg>
