<?xml version="1.0" encoding="utf-8"?>
<!-- Generator: Adobe Illustrator 25.4.1, SVG Export Plug-In . SVG Version: 6.00 Build 0)  -->
<svg version="1.1" id="rapeseed" xmlns="http://www.w3.org/2000/svg" xmlns:xlink="http://www.w3.org/1999/xlink" x="0px" y="0px"
	 viewBox="0 0 32 32" style="enable-background:new 0 0 32 32;" xml:space="preserve">
<path d="M20.6561,10.2471c-0.0057,0.0093-0.0171,0.0277-0.0226,0.037c-0.0612-0.4031-0.3599-0.929-0.1008-1.2711
	c0.0057,0.0321,0.0186,0.062,0.0323,0.0915c0.0049,0.0147,0.0147,0.0442,0.0196,0.0589c0.0044,0.0152,0.0132,0.0452,0.0178,0.0605
	c0.0057,0.0137,0.0171,0.0413,0.0228,0.055c0.0398,0.2842-0.0872,0.5857,0.0308,0.8603
	C20.6561,10.1752,20.6561,10.2109,20.6561,10.2471z M16.6484,4.4106l0.0037-0.0215c0.0046-0.0145,0.0145-0.0432,0.0194-0.0576
	c0.0442-0.0189,0.0915-0.0282,0.1394-0.0246c-0.0202,0.0251-0.0411,0.0502-0.0595,0.0768c-0.0365,0.0926-0.0618,0.1893-0.09,0.2847
	c-0.0069-0.0299-0.0142-0.06-0.0217-0.0897C16.642,4.5367,16.6462,4.4527,16.6484,4.4106z M16.6202,4.831l0.0189-0.0148
	c0.0166,0.0497,0.038,0.0977,0.062,0.1446c-0.024,0.0939-0.0528,0.1864-0.0781,0.2803c-0.0077-0.0072-0.0227-0.0214-0.0302-0.0287
	c-0.0006-0.0109-0.0011-0.0329-0.0016-0.0437C16.6027,5.0562,16.6154,4.9438,16.6202,4.831z M16.2422,4.5132
	c0.0471-0.0486,0.1034-0.0864,0.1637-0.1164c0.0483,0.001,0.0969,0.0054,0.1422,0.0238c-0.0006,0.0106-0.0013,0.0318-0.0016,0.0424
	c-0.0016,0.0406-0.0021,0.0812-0.0021,0.1215c-0.001,0.0191-0.0026,0.0577-0.0036,0.0768c-0.0075,0.1084-0.0135,0.217-0.0189,0.3255
	l-0.0013,0.0236c-0.0362,0.0166-0.0452,0.0592-0.0293,0.0931c-0.008,0.1339-0.031,0.2664-0.0398,0.4003
	c-0.0018,0.01-0.0054,0.0305-0.0073,0.0406c-0.0876-0.249-0.1314-0.5148-0.2136-0.7672c-0.0057-0.0088-0.0173-0.0263-0.023-0.0354
	c-0.0119-0.0344-0.0222-0.0696-0.029-0.1055C16.1998,4.5952,16.2213,4.5544,16.2422,4.5132z M16.3826,6.407
	c-0.0308-0.0569-0.0639-0.1125-0.0964-0.1683c-0.0137-0.0416-0.029-0.0828-0.0478-0.1221c-0.0168-0.036-0.0357-0.0708-0.0538-0.106
	c-0.0075-0.0251-0.0152-0.0502-0.0233-0.0752c-0.0217-0.0727-0.0517-0.1425-0.0819-0.2118
	c-0.0096-0.0502-0.0199-0.1001-0.0303-0.1499c0.0207-0.0334,0.0129-0.0763-0.0181-0.1003c-0.0039-0.0101-0.0114-0.0303-0.015-0.0404
	c0.0202-0.0933,0.1523-0.1161,0.1386-0.2223c0.0008-0.0158,0.0023-0.0473,0.0033-0.0634c0.0116-0.0388,0.0277-0.0755,0.0452-0.112
	c0.0111,0.0597,0.0212,0.1195,0.0308,0.1792c-0.0173,0.0357-0.0088,0.0786,0.0246,0.1013c0.0166,0.0724,0.0334,0.1446,0.0497,0.217
	c-0.0039,0.0432-0.0093,0.0864-0.015,0.1293c-0.1624-0.15-0.1215,0.0747-0.0033,0.1461c0.0142,0.0346,0.0279,0.0701,0.0478,0.1021
	c0.0153,0.0207,0.031,0.0409,0.0473,0.061c0.0523,0.1531,0.0732,0.316,0.1381,0.4649c0.0119,0.06,0.0103,0.1211,0.0033,0.1813
	C16.4796,6.5467,16.4302,6.4774,16.3826,6.407z M16.9572,9.944l0.0039-0.0212c0.0028-0.0977,0.0665-0.2177,0.0013-0.3062
	c0.0049-0.1676,0.0121-0.3354,0-0.5027c0.0258-0.0561,0.0804-0.1432-0.0057-0.1626c0.0305-0.2175-0.0085-0.4378,0.0003-0.6563
	c0.0047-0.0334,0.0044-0.0667-0.0008-0.0998c-0.0042-0.1334,0.0274-0.272-0.0184-0.401l-0.0036-0.0241
	c0.0305-0.0263,0.0359-0.0698,0.0126-0.1029c0.0044-0.0168,0.0135-0.0507,0.0179-0.0677c0.0396-0.2901,0.1252-0.5715,0.2542-0.8344
	c0.0028,0.0548,0.0114,0.1091,0.0212,0.1632c-0.0116,0.0468-0.0077,0.0957,0.007,0.1414c0.0111,0.0572,0.024,0.114,0.0357,0.1712
	c-0.0032,0.0313,0.0023,0.0615,0.0166,0.09c0.0116,0.0639,0.0212,0.1277,0.0341,0.1921c0.0114,0.0576,0.0243,0.1151,0.037,0.1724
	c0.0059,0.0155,0.0178,0.0466,0.0238,0.0621c0.0065,0.0426,0.0117,0.0858,0.0189,0.1288c0.0158,0.083,0.0435,0.1631,0.0686,0.2438
	c-0.1122-0.0551-0.1756,0.0414-0.0473,0.0876c0.0057,0.0233,0.0116,0.0463,0.0183,0.0696c0.0163,0.0517,0.0336,0.1034,0.0517,0.1552
	c0.0018,0.1221,0.0049,0.2448,0.0026,0.3671c-0.0334,0.3765-0.1911,0.7241-0.3744,1.0491c-0.0553,0.0488-0.1099,0.0998-0.149,0.1631
	C16.974,9.996,16.9652,9.9702,16.9572,9.944z M14.726,9.8085c-0.0123-0.0415-0.0245-0.0833-0.035-0.1254
	c0.0047-0.074,0.01-0.148,0.0151-0.2221c0.0294-0.0277,0.0311-0.0714,0.0084-0.1039c0.0001-0.0605,0.0007-0.1211,0.0023-0.1818
	c0.0231,0.0332,0.0447,0.067,0.0622,0.1035c0.0035,0.0157,0.01,0.0466,0.0132,0.062c0.0031,0.1071,0.1372,0.1089,0.1717,0.1979
	c-0.002,0.0106-0.0063,0.0317-0.0085,0.0422c-0.0269,0.0286-0.0279,0.0722-0.0022,0.1019
	c-0.0024,0.0509-0.0048,0.1018-0.0064,0.1528c-0.0191,0.0732-0.0378,0.1468-0.0478,0.222c-0.004,0.026-0.0078,0.052-0.0112,0.078
	c-0.0124,0.0375-0.0255,0.075-0.0365,0.1131c-0.0125,0.0418-0.0212,0.0848-0.0282,0.1281
	c-0.0234,0.0602-0.0474,0.1203-0.0689,0.1813c-0.036,0.0769-0.0739,0.1531-0.1091,0.2304c-0.0163-0.0584-0.0274-0.1184-0.025-0.1796
	c0.0408-0.1573,0.036-0.3214,0.0636-0.4807c0.013-0.0225,0.0253-0.0449,0.0372-0.0677c0.0147-0.0347,0.0226-0.0719,0.0313-0.1084
	C14.8577,9.8633,14.8629,9.635,14.726,9.8085z M14.0735,8.6176c-0.0223-0.0234-0.0469-0.0449-0.0708-0.0666
	c0.0467-0.0111,0.0949-0.0092,0.1415,0.0025c0.0071,0.0135,0.0213,0.0404,0.0282,0.054l0.007,0.0206
	c0.0088,0.0413,0.0261,0.1236,0.0349,0.1646c-0.0027,0.0305-0.0052,0.0613-0.0074,0.092
	C14.1641,8.7948,14.124,8.7032,14.0735,8.6176z M14.3343,9.4443c-0.0397-0.0888-0.0825-0.1757-0.121-0.2646
	c0.0164-0.05,0.0301-0.1009,0.0387-0.1525l0.0209,0.0116c0.0225,0.1106,0.0526,0.2197,0.0814,0.329
	c0.0012,0.0109,0.0041,0.0326,0.0053,0.0434C14.3534,9.4196,14.3408,9.436,14.3343,9.4443z M14.5448,9.677
	c-0.0296-0.1309-0.0731-0.258-0.102-0.3891c0.0106-0.0359-0.0051-0.0767-0.0434-0.0874l-0.005-0.0231
	c-0.0224-0.1064-0.0452-0.2127-0.0696-0.3186c-0.004-0.0188-0.0116-0.0565-0.0156-0.0753c-0.0063-0.0398-0.0131-0.0799-0.021-0.1197
	c-0.0019-0.0105-0.006-0.0313-0.0082-0.0417c0.0418-0.0252,0.0891-0.0372,0.1367-0.0457c0.0642,0.0202,0.1258,0.0487,0.1799,0.0893
	c0.0271,0.0373,0.0547,0.0744,0.0818,0.1116c-0.001,0.0366-0.0057,0.0729-0.0121,0.1087c-0.0042,0.0099-0.013,0.0291-0.0172,0.0386
	c-0.0418,0.2621-0.0433,0.5315-0.091,0.7912C14.5549,9.7063,14.5481,9.6867,14.5448,9.677z M14.7262,14.2227
	c-0.0485-0.0565-0.1104-0.0982-0.1727-0.1379c-0.2319-0.2923-0.4421-0.6109-0.5339-0.9775
	c-0.0214-0.1204-0.0376-0.2422-0.0549-0.3631c0.0098-0.0539,0.0188-0.1077,0.0268-0.1613c0.003-0.024,0.0053-0.0477,0.0073-0.0716
	c0.1194-0.0658,0.0418-0.1511-0.0605-0.0792c0.0122-0.0836,0.027-0.1671,0.0296-0.2515c0.0004-0.0435-0.0012-0.087-0.0015-0.1302
	c0.0035-0.0162,0.0104-0.0488,0.0138-0.065c0.0035-0.0587,0.0073-0.1174,0.0095-0.1761c0.0027-0.0656,0.0021-0.1302,0.0037-0.1951
	c0.0096-0.0303,0.0102-0.061,0.0023-0.0914c0.0025-0.0583,0.0064-0.1165,0.0085-0.1747c0.0074-0.0475,0.0036-0.0964-0.0152-0.1408
	c0.0013-0.0549,0.0012-0.1099-0.0046-0.1645c0.1686,0.2395,0.2971,0.504,0.3816,0.7844c0.007,0.0162,0.0212,0.0482,0.0282,0.0641
	c-0.0178,0.0363-0.0057,0.0783,0.0286,0.0996l0.0002,0.0243c-0.025,0.1346,0.0279,0.2666,0.0446,0.399
	c0.0001,0.0335,0.0051,0.0665,0.0148,0.0987c0.0429,0.2144,0.0388,0.4382,0.1029,0.6481c-0.082,0.0327-0.0145,0.1102,0.0198,0.1616
	c0.0142,0.1672,0.0476,0.3318,0.0787,0.4965c-0.0505,0.0976,0.0311,0.2061,0.0492,0.3022l0.0071,0.0203
	C14.7363,14.1687,14.7316,14.1956,14.7262,14.2227z M15.2061,19.7404c0.0208-0.0371,0.0005-0.0778-0.0346-0.0961
	c-0.014-0.1512-0.0495-0.2997-0.0778-0.4485c-0.0272-0.1836-0.0547-0.3672-0.0903-0.549c0.0155-0.031,0.0324-0.0614,0.0466-0.093
	c0.0293-0.0646,0.0497-0.1327,0.0682-0.2009c0.0669-0.0999-0.0026-0.1501-0.0313-0.0257c-0.0209,0.0399-0.0424,0.0797-0.0635,0.12
	c-0.0129-0.0351-0.027-0.0696-0.0413-0.1039c-0.0174-0.1297-0.0382-0.2594-0.0584-0.3884c0.1574-0.2477,0.306-0.5013,0.4351-0.765
	c0.0358-0.0997,0.0689-0.2,0.1025-0.3c0.0191-0.0562,0.0358-0.113,0.0511-0.1699c0.0075,0.0075,0.0219,0.0225,0.0291,0.0299
	c0.004,0.0101,0.0115,0.0299,0.0155,0.04c0.0026,0.031,0.0049,0.062,0.0069,0.0931c-0.0242,0.0337-0.0252,0.0786-0.0021,0.1135
	c-0.0235,0.2932,0.0334,0.5845,0.0275,0.8779c-0.0016,0.0159-0.0052,0.0476-0.0069,0.0636
	c-0.0136,0.038-0.0278,0.0759-0.0405,0.1145c-0.055-0.107-0.0984-0.2192-0.1481-0.3282c-0.0216-0.1515-0.245-0.0625-0.1459,0.059
	c0.1444,0.1564,0.3256,0.3893,0.2274,0.6077c-0.0001,0.0155-0.001,0.0462-0.0012,0.0617c-0.0016,0.0777-0.0073,0.1554-0.0158,0.2326
	c-0.0461,0.1605-0.0528,0.3275-0.0763,0.4917l-0.0047,0.0198c-0.0494,0.1822-0.0641,0.3772-0.1516,0.5471L15.2061,19.7404z
	 M15.7491,22.225l-0.0027-0.0208c0.0157-0.0449,0.0012-0.0931-0.0353-0.1232c-0.0094-0.0739-0.0152-0.1505-0.0279-0.2226
	c-0.0179-0.0623-0.0442-0.1218-0.0698-0.1808c0.0147-0.0395-0.0044-0.0792-0.0375-0.1017
	c-0.0183-0.1104-0.0374-0.2211-0.0548-0.3309c-0.0028-0.0477-0.0161-0.0935-0.0353-0.1369
	c-0.0282-0.0871-0.0408-0.1797-0.0564-0.2685c-0.0019-0.012-0.0059-0.0355-0.0081-0.0474
	c-0.0081-0.0364-0.0246-0.1092-0.0327-0.1456c-0.0115-0.0662-0.0269-0.1316-0.045-0.1962c-0.0211-0.1978-0.0535-0.3937-0.0689-0.592
	c0.0212-0.0479,0.0436-0.0949,0.0643-0.1429c0.0132-0.0309,0.0255-0.0622,0.0354-0.0941c0.0313-0.1084,0.0476-0.2199,0.0698-0.3299
	c0.0016-0.01,0.0049-0.0299,0.0065-0.0398c0.0178-0.1638,0.0608-0.3238,0.0785-0.4876c0.0087-0.0477,0.0176-0.0954,0.0231-0.1432
	c0.0171-0.0792,0.0016-0.1672,0.0392-0.2403c0.2047,0.6035,0.554,1.1406,0.7998,1.7258c0.004,0.4803-0.191,1.0869-0.3477,1.6068
	c-0.0594,0.1173-0.1028,0.2417-0.1588,0.3605C15.8405,22.1158,15.8026,22.3574,15.7491,22.225z M11.0269,14.0006
	c0.0022-0.0158,0.0062-0.0468,0.0082-0.0625c0.0026-0.0153,0.0076-0.046,0.0102-0.0613c0.0089-0.0313,0.017-0.0629,0.0176-0.0955
	c0.3094,0.2973,0.0967,0.8636,0.0993,1.2713c-0.0068-0.0083-0.0209-0.0247-0.028-0.033c-0.0057-0.0358-0.0112-0.071-0.0169-0.1065
	c0.0735-0.2897-0.0991-0.5676-0.1042-0.8545C11.0165,14.0442,11.0234,14.0151,11.0269,14.0006z M10.879,14.1016
	c0.0263,0.0636,0.048,0.129,0.068,0.195c-0.0131,0.0395,0.0007,0.0834,0.0347,0.1079c0.0094,0.0299,0.0184,0.0602,0.0264,0.0909
	c0.003,0.0505,0.0064,0.1082-0.0371,0.1444c-0.007-0.008-0.0214-0.0239-0.0283-0.0317c-0.031-0.0831-0.061-0.1668-0.0884-0.2506
	c-0.0076-0.0313-0.0151-0.0623-0.0226-0.0931c0.0382-0.0251,0.0239-0.0737-0.003-0.1003
	C10.8375,14.1369,10.8543,14.1159,10.879,14.1016z M10.488,13.4839c0.0138,0.0064,0.0414,0.0199,0.0553,0.0266
	c0.0042,0.0098,0.0128,0.0294,0.0172,0.0394c-0.0127,0.0371,0.0042,0.0773,0.0392,0.0953c0.0027,0.0171,0.0082,0.0516,0.0109,0.0687
	c0.0123,0.0378,0.0366,0.1135,0.0486,0.1514c0.0195,0.0917,0.0335,0.1835,0.0462,0.2767c0.0043,0.0402,0.0099,0.0801,0.0164,0.1199
	c0.0126,0.0564,0.0275,0.1121,0.0449,0.1676c0.0188,0.0837,0.0277,0.1684,0.0345,0.254c-0.0358-0.0553-0.0662-0.1137-0.098-0.1709
	c-0.0624-0.1163-0.1258-0.2322-0.1804-0.3524c0.047-0.1082,0.1217-0.2334,0.058-0.3495c0.0054-0.088-0.0333-0.1704-0.0711-0.2474
	C10.5075,13.5376,10.4496,13.4996,10.488,13.4839z M10.581,15.2996c-0.0545-0.0055-0.0913-0.0442-0.1164-0.0902
	c-0.0684-0.1376-0.1259-0.2806-0.2054-0.4125c-0.0517-0.239-0.2519-0.4732-0.1656-0.7267c0.0134-0.031,0.0269-0.0619,0.0392-0.0931
	c0.1332,0.2279,0.3982,0.3158,0.4727,0.5995c0.0202,0.035,0.0399,0.0704,0.0595,0.106c-0.0078,0.0366,0.0175,0.0708,0.0551,0.0735
	c0.0333,0.0497,0.0679,0.0984,0.1041,0.1461c-0.0082,0.0363,0.0217,0.068,0.0589,0.0577c0.0251,0.0334,0.0493,0.0684,0.0686,0.1059
	c0.0258,0.0883,0.054,0.1768,0.0815,0.2649c0.0049,0.0152,0.01,0.0303,0.015,0.0455c0.0145,0.0843-0.0628,0.1274-0.1267,0.1732
	c-0.0264,0.0398-0.0406,0.086-0.056,0.1308c-0.1229-0.0174-0.0451-0.1693-0.1307-0.2322c0.0028-0.0363-0.0253-0.0653-0.0616-0.0614
	C10.6549,15.3448,10.6321,15.3028,10.581,15.2996z M11.1124,17.6547c-0.0485-0.0931-0.1035-0.1823-0.1561-0.2729
	c0.001-0.0101,0.0028-0.0301,0.0035-0.0401c0.0586-0.0354,0.1382-0.0614,0.1458-0.1406c0.0432-0.0196,0.0519-0.0692,0.0298-0.1078
	c0.0159-0.0334,0.0315-0.071,0.0181-0.1076l-0.004-0.0224c-0.0245-0.1609-0.0397-0.3231-0.0625-0.4837
	c-0.0044-0.0346-0.0133-0.1036-0.0177-0.1383l-0.0102-0.018c-0.033-0.3107-0.1808-0.1436-0.1367,0.0478
	c-0.0231,0.0411-0.0212,0.0905,0.0054,0.1298c0.0021,0.0314,0.0044,0.0627,0.0068,0.0943c-0.0008,0.048-0.0036,0.0961-0.0065,0.1442
	c-0.02,0.0425-0.0257,0.097,0.0078,0.135c-0.0091-0.0062-0.0275-0.0187-0.0366-0.0248c-0.1017-0.1774-0.1504-0.3742-0.1713-0.5758
	c0.0037-0.0165,0.0112-0.0499,0.0148-0.0667c0.0279-0.0424,0.0569-0.0852,0.0703-0.1347c0.0157-0.003,0.0478-0.0089,0.0638-0.0119
	c0.0303,0.0025,0.0603,0.0004,0.0895-0.0066c0.0104,0.0028,0.0312,0.0087,0.0416,0.0114c0.0559,0.0639,0.0994,0.1369,0.1327,0.2151
	c0.0071,0.1222,0.0353,0.2413,0.0638,0.3598c0.005,0.0317,0.0147,0.0948,0.0195,0.1265c0.0346,0.2039,0.0695,0.4076,0.1027,0.612
	c-0.0102,0.0493,0.0072,0.0984,0.0428,0.1333c0.0092,0.0478,0.0181,0.0958,0.027,0.1439c-0.0122,0.0452,0.0037,0.0926,0.0432,0.1191
	c0.04,0.2424,0.1865,0.4653,0.1599,0.7169C11.4162,18.2301,11.1994,17.9741,11.1124,17.6547z M13.8707,28.8431l-0.0179-0.0037
	c0.0046-0.0371,0.0224-0.0687,0.049-0.0941c0.0418,0.0206,0.0838,0.0412,0.1267,0.0598c0.0246,0.0414,0.0701,0.0837,0.0509,0.1365
	C14.0195,28.8915,13.9496,28.8519,13.8707,28.8431z M16.6396,30.9182c0.2146-0.0765,0.306-0.1688,0.3719-0.3128
	c0.004-0.0126,0.0061-0.0256,0.0095-0.0384c0.0957-0.0889,0.1102-0.1366,0.1697-0.3072c0,0-0.0064-0.2047-0.0254-0.2741
	c0.0039-0.0095,0.0092-0.0185,0.013-0.0281c0.0026-0.037,0.0083-0.1109,0.0111-0.1479c-0.016-0.0828-0.0315-0.1652-0.0468-0.2472
	c0.0052-0.0481,0.0021-0.0964-0.0054-0.1435c0.0347-0.023,0.0468-0.0688,0.0254-0.1042c-0.0075-0.0874-0.0153-0.1704-0.0217-0.2565
	c0.0078-0.0385-0.0212-0.0716-0.0589-0.0729c-0.0148-0.0293-0.0293-0.0582-0.043-0.0874c-0.0088-0.0323-0.0196-0.0638-0.0328-0.0938
	c0.0088-0.0246,0.0178-0.0486,0.0269-0.0724c0.0432-0.0603,0.0828-0.1228,0.1122-0.1906c0.2951-0.5991,0.5559-1.2171,0.9012-1.7899
	c0.3604-0.1262,0.4809-0.5348,0.7214-0.7982c0.068-0.0941,0.1123-0.203,0.135-0.316c0.0292-0.0217,0.0408-0.0584,0.0261-0.0918
	c0.0336-0.2671,0.386-0.5063,0.6369-0.5774c0.0771-0.0176,0.1391-0.0698,0.2002-0.1171c0.0339-0.0251,0.0605-0.0576,0.0866-0.0902
	c0.0488-0.037,0.0933-0.0794,0.1331-0.1259c0.0636-0.0781,0.1425-0.1458,0.1836-0.2392c0.0856,0.0279,0.1722,0.053,0.2583,0.0797
	c0.0059,0.0504,0.0507,0.0778,0.098,0.0819c0.2232,0.27,0.227-0.2035,0.3669-0.2963c0.0111-0.009,0.0339-0.0274,0.045-0.0367
	c0.1185-0.1432,0.0008-0.333-0.1248-0.4243c-0.008-0.0054-0.0241-0.0166-0.0321-0.0222c-0.0248-0.0116-0.0499-0.0222-0.075-0.0323
	c-0.0261-0.0287-0.0687-0.0325-0.099-0.008c-0.0104,0.0039-0.031,0.0117-0.0414,0.0155c-0.2472,0.112-0.0734-0.1084-0.1947-0.1453
	l-0.0171-0.0078c-0.0266-0.0135-0.0559-0.032-0.0783-0.0018c-0.0341,0.0261-0.0737,0.0429-0.1174,0.0393
	c-0.0166-0.0313-0.0468-0.0553-0.0835-0.0504l-0.0142-0.0148c-0.0315-0.0496-0.0856-0.0126-0.1205,0.0101
	c-0.0064-0.0078-0.0189-0.023-0.0251-0.0308c-0.0398-0.0507-0.0869-0.0949-0.1368-0.1355
	c-0.1267-0.1205-0.2785-0.2117-0.4463-0.2609c-0.0147-0.0414-0.0874-0.0574-0.0853,0.0018
	c-0.0217,0.0535-0.0279,0.108-0.0186,0.1634c-0.0295,0.135,0.3217,0.1994,0.0881,0.2159c-0.0287,0.0052-0.0559,0.0148-0.0814,0.0287
	c-0.0651,0.0072-0.0592,0.0758-0.0023,0.0921c0.0212,0.0401,0.0655,0.0631,0.1104,0.0499c0.1086,0.0178,0.2299,0.009,0.324,0.0758
	c0.0215,0.0171,0.0426,0.0349,0.0634,0.0538c0,0.0163,0,0.0494,0,0.066c-0.0466-0.013-0.0962-0.0196-0.1422-0.0008
	c-0.0456-0.0049-0.0807,0.0357-0.0688,0.0804c-0.0656,0.044-0.1073,0.1109-0.1329,0.1846c-0.1242,0.1228-0.1125,0.309-0.1559,0.4665
	c-0.0502,0.0589-0.0792,0.1753,0.0095,0.2118c0.1521,0.0225-0.0401,0.1463-0.0651,0.2244
	c-0.0711,0.0634-0.1319,0.1507-0.2291,0.1751c0.0256-0.0298,0.0098-0.0708-0.0184-0.0913c-0.001-0.0171-0.0033-0.0512-0.0046-0.0682
	c0.0003-0.0584-0.0101-0.1171-0.044-0.1655c-0.022-0.0618-0.0716-0.0838-0.1332-0.0675c-0.0349-0.015-0.0701,0.0054-0.0835,0.039
	c-0.0359,0.0067-0.0574,0.0401-0.0519,0.076c-0.016,0.0465-0.0298,0.0938-0.0418,0.1418c-0.0015,0.0048-0.0029,0.0104-0.0045,0.0167
	c-0.0121,0.0486-0.0217,0.0985-0.0267,0.1489c-0.0176,0.164-0.0359,0.3287-0.0447,0.4939
	c-0.0486,0.0111-0.0832,0.0493-0.0907,0.0985c-0.066,0.0835-0.1272,0.1714-0.1746,0.2674c-0.024,0.0421-0.046,0.0858-0.0595,0.1331
	c-0.0039,0.0153-0.0116,0.0458-0.0157,0.0608c-0.0864,0.0236-0.097,0.1241-0.1296,0.194c-0.0186,0.0212-0.0298,0.046-0.0336,0.0744
	c-0.0049,0.0142-0.0145,0.043-0.0191,0.0572c-0.2009,0.2604-0.3018,0.588-0.4781,0.8665c-0.0406,0.0722-0.075,0.1477-0.1138,0.2211
	c-0.0559,0.0954-0.0977,0.1983-0.1383,0.301c-0.037,0.0649-0.0724,0.1308-0.0993,0.2009l-0.0088,0.0194
	c-0.0031-0.0101-0.0093-0.0303-0.0124-0.0404c-0.0003-0.0535,0.001-0.1068,0.002-0.1598c0.0329-0.0303,0.0396-0.0765,0.0196-0.1153
	c0.0124-0.1213,0.021-0.2428,0.0293-0.3633c0.0305-0.0287,0.0362-0.0729,0.0194-0.1097c0.0018-0.032,0.0036-0.0636,0.0054-0.0948
	c0.0305-0.0396,0.0385-0.0913,0.0207-0.1376c0.0005-0.0512,0.0013-0.1021,0.0026-0.1525c0.0486-0.0282,0.0393-0.0874,0.0274-0.1322
	c0.0047-0.0334,0.0039-0.0664-0.0021-0.0988c0.0011-0.0119,0.0028-0.0357,0.0039-0.0476c0.0046-0.0385,0.014-0.1159,0.0186-0.1544
	c0.0246-0.1585,0.0409-0.3189,0.0326-0.4792c0.0416-0.0168,0.0403-0.0675,0.0132-0.0959c0.0219-0.0481,0.0243-0.1024,0.0046-0.151
	c0.0037-0.0179,0.0106-0.0536,0.0142-0.0714c0.007-0.0654,0.013-0.13,0.0179-0.1942c0.0434-0.0168,0.0437-0.0696,0.0157-0.1001
	c0.0057-0.0334,0.0104-0.067,0.0142-0.1001c0.0442-0.067,0.0484-0.1293,0.0122-0.187c0.0018-0.0121,0.0057-0.0362,0.0078-0.0481
	c0.0434-0.0313,0.0411-0.0874,0.0176-0.1296c0.0013-0.0116,0.0039-0.0351,0.0052-0.0471l0.0028-0.0233
	c0.031-0.0269,0.0419-0.0703,0.0258-0.1078c0.0099-0.0696,0.0191-0.1417,0.0287-0.2098c0.0331-0.0222,0.0406-0.0646,0.0236-0.0988
	c0.0429-0.1063,0.0672-0.2192,0.0776-0.3325c0.0778-0.142,0.1399-0.2932,0.2381-0.4227c0.0938-0.1487,0.2198-0.2875,0.2521-0.466
	c0.0546-0.0323,0.1104-0.0629,0.1621-0.0993c0.1999-0.1396,0.2162-0.4062,0.3817-0.5746c0.0235-0.0318,0.0318-0.0706,0.0421-0.1075
	c0.2896-0.3687,0.5678-0.7706,0.9834-1.0118c0.1453-0.0967,0.3436-0.1301,0.4308-0.2958c0.0962-0.1053,0.0173-0.2193-0.1145-0.2092
	c-0.8303-0.1032-1.2515,0.8085-1.7753,1.2737c-0.0497,0.0447-0.0787,0.1065-0.1115,0.1637
	c-0.031,0.0245-0.0629,0.0488-0.0972,0.0687c0.2415-1.1137,0.7178-2.1878,1.1085-3.2671c0.3046-0.8262,0.5347-1.6802,0.776-2.525
	c0.226-0.5906,0.3936-1.2016,0.5531-1.8126c0.0817-0.2914,0.1404-0.5883,0.1965-0.8856c0.0463-0.0064,0.0693-0.0535,0.054-0.0954
	c0.1803-0.1691,0.3083-0.3824,0.3894-0.6144c0.1494-0.2482,0.1699-0.551,0.2834-0.8153c0.022-0.009,0.044-0.0181,0.0662-0.0269
	c0.1815,0.114,0.4031,0.0579,0.4763-0.1756c0.0051-0.0137,0.016-0.0411,0.0214-0.055c0.0207-0.0267,0.0414-0.0535,0.0613-0.0804
	c0.0272-0.0062,0.0458-0.022,0.0561-0.0471c0.061-0.1133,0.1314-0.2216,0.1836-0.3392c0.0651-0.2891-0.1484-0.0869-0.1942,0.0452
	c-0.0478,0.0763-0.0949,0.1533-0.1339,0.2348c-0.0173,0.0339-0.0315,0.0693-0.046,0.1049
	c-0.0419,0.0466-0.0879,0.0895-0.1334,0.1329c0.0421-0.1257,0.066-0.257,0.098-0.385c0.022-0.0341,0.0447-0.0675,0.0646-0.1027
	c0.0497-0.0892,0.066-0.2045,0.1593-0.2625l0.0214,0.0006c0.0298,0.0039,0.0595,0.0028,0.0892-0.0032
	c0.1877,0.052,0.3791,0.1699,0.5774,0.1037c0.0329-0.0044,0.0656-0.0088,0.0988-0.0127c0.1921,0.0215,0.354-0.1386,0.4184-0.3062
	v-0.0235c-0.0887-0.0158-0.1787-0.0486-0.2681-0.0222c-0.1996,0.0238,0.0432-0.1311,0.0613-0.2151l0.0093-0.0181
	c0.0447-0.0163,0.0458-0.0807-0.0064-0.0851c-0.016-0.03-0.0326-0.06-0.0514-0.0879c-0.0517-0.0608-0.1143-0.113-0.1839-0.1523
	c-0.0373-0.0326-0.0693-0.0176-0.0874,0.0246c-0.0589,0.0057-0.1179,0.0088-0.1768,0.0059
	c-0.0954-0.0432-0.1882,0.0672-0.2625,0.1174c-0.0099-0.0418-0.0221-0.0829-0.0358-0.1232
	c-0.002-0.0082-0.0044-0.0163-0.0079-0.0242c-0.0091-0.0471-0.0588-0.055-0.097-0.0656c-0.0137,0.0078-0.0411,0.023-0.0546,0.0308
	c-0.0067-0.0142-0.0204-0.0432-0.0271-0.0577c-0.0427-0.0553-0.119,0.0018-0.1544,0.0416c-0.0214-0.0445-0.0597-0.061-0.1073-0.052
	c-0.0057-0.009-0.0173-0.0274-0.023-0.0365l-0.0075-0.0188c-0.001-0.0411-0.0243-0.0885-0.0714-0.0869
	c-0.0864-0.0209-0.1763-0.0222-0.2614-0.0476c0.0462-0.1277,0.106-0.251,0.1381-0.3834l0.0052-0.0209
	c0.1104-0.2752,0.0745-0.5978,0.2276-0.8538c0.122-0.009,0.143-0.1334,0.1544-0.2322c0.023-0.0212,0.0315-0.0473,0.0258-0.0781
	c0.0078-0.0267,0.0153-0.0533,0.023-0.0797c0.0202-0.0507,0.0385-0.1021,0.0528-0.1546c0.0303-0.0636,0.0507-0.1319,0.0515-0.2025
	c0.014-0.0579,0.0142-0.1148,0.0008-0.1704c-0.0078-0.0274-0.0168-0.0543-0.0272-0.0806c-0.009-0.0257-0.0181-0.0512-0.0269-0.0766
	c-0.0037-0.0137-0.0114-0.0414-0.0153-0.0553c-0.1047-0.083-0.2081,0.0456-0.2542,0.1329c-0.0719,0.1169-0.1133,0.2482-0.173,0.3708
	c0.0016-0.0686,0.0021-0.1368,0.0018-0.2051c0.0028-0.1181-0.0468-0.2332-0.1236-0.3217c-0.0892-0.0639-0.1562,0.0354-0.1971,0.1032
	c-0.0104,0.001-0.0308,0.0026-0.0411,0.0036c-0.0095-0.0944-0.0126-0.1882-0.0243-0.2819c-0.006-0.0396-0.0181-0.1187-0.0243-0.1582
	c0.0003-0.0181,0.0008-0.0546,0.001-0.0727c-0.0414-0.039,0.0788-0.3217-0.0383-0.2493c-0.0126-0.0253-0.0258-0.0498-0.0401-0.0742
	c-0.0334-0.0921-0.1179,0.0033-0.1337,0.0592c-0.0194,0.0267-0.0396,0.0525-0.0579,0.0799c-0.0432,0.0447-0.0445,0.1068-0.043,0.165
	c-0.0111,0.0827-0.0207,0.165-0.0354,0.2474c-0.0044,0.015-0.0131,0.0453-0.0173,0.0605c-0.0339,0.1135-0.0403,0.2327-0.0545,0.3498
	c-0.0264,0.0181-0.0538,0.0349-0.0797,0.0535c-0.0064,0.014-0.0189,0.0419-0.0251,0.0562
	c-0.0106,0.0266-0.0209,0.0538-0.0308,0.0809c-0.0253,0.0287-0.0385,0.0716-0.0147,0.1057
	c-0.0116-0.002-0.0352-0.0062-0.0468-0.0083c-0.0191-0.257-0.1257-0.5233-0.3421-0.6753c-0.0517-0.029-0.1324-0.0675-0.1676,0.0039
	c-0.0388,0.0323-0.0447,0.0848-0.0432,0.1319c-0.0199,0.1384-0.0393,0.2782-0.0062,0.4166l0.0036,0.0225
	c0.0101,0.0895,0.0342,0.1767,0.0631,0.2617c0.0021,0.0099,0.0064,0.0293,0.0088,0.039c0.0088,0.0393,0.0191,0.0786,0.0295,0.1179
	c-0.0073,0.0362,0.0152,0.0701,0.0519,0.0763c0.0094,0.0121,0.0274,0.0362,0.0367,0.0483c0.1559,0.054,0.1249,0.2386,0.1518,0.3703
	c-0.0184,0.0372-0.0168,0.0817,0.0044,0.1176c0.043,0.3359,0.1405,0.6604,0.2273,0.9864l-0.0011,0.0202
	c-0.0243-0.0106-0.0488-0.0202-0.0737-0.0289c-0.0279-0.0173-0.0584-0.0085-0.0859,0.0049
	c-0.0975,0.0367-0.0781,0.1621-0.1187,0.241c-0.0536,0.0248-0.0691,0.0763-0.0331,0.1246c0.0551,0.1334,0.2105,0.128,0.3314,0.1412
	c0.0166,0.0026,0.0502,0.0078,0.0667,0.0104l0.0013,0.0233c-0.0008,0.1326-0.0075,0.2658-0.0039,0.3987l-0.0031,0.024
	c-0.022,0.0432-0.0126,0.0939,0.0191,0.1296c0.0021,0.1163,0.0016,0.234,0.0088,0.3508c-0.0003,0.1171,0.0031,0.2348,0.0013,0.3525
	c-0.0057,0.1132-0.0106,0.2275-0.0155,0.3413c-0.0028,0.0284-0.0057,0.0571-0.0085,0.0861
	c-0.0476,0.0442-0.0266,0.1096,0.0005,0.1588c-0.0124,0.0522-0.0235,0.1047-0.0299,0.1582
	c-0.0137,0.1058-0.0231,0.212-0.0285,0.3188c-0.0432,0.0145-0.0393,0.0641-0.0225,0.097c-0.0083,0.0287-0.014,0.0579-0.0171,0.0876
	c-0.0028,0.029-0.0052,0.0579-0.007,0.0869c-0.014,0.0592-0.0279,0.1187-0.0357,0.1794c-0.0145,0.0691-0.0274,0.1404-0.045,0.2094
	c-0.0067,0.0064-0.0204,0.0194-0.0272,0.0261c-0.0559-0.0923-0.1073-0.1877-0.1562-0.2836
	c-0.0584-0.1562-0.0964-0.3196-0.1073-0.4859c0.0194-0.0349,0.0171-0.083-0.0207-0.1042c-0.0005-0.1913-0.0269-0.3822-0.0168-0.5735
	c0.0698-0.0124,0.1311-0.0499,0.1777-0.1032c0.0238-0.0215,0.0313-0.0481,0.0217-0.0802c0.0375-0.0194,0.0442-0.0667,0.0204-0.0993
	c-0.001-0.1337,0.0199-0.2707-0.0217-0.4003c-0.015-0.1194-0.0258-0.2425-0.0744-0.3537c-0.0101-0.0106-0.0298-0.0313-0.0396-0.0416
	l-0.0166-0.0106c-0.0073-0.0064-0.0212-0.0189-0.0285-0.0253c-0.039-0.0365-0.0796-0.0716-0.1236-0.1018
	c-0.0209-0.0238-0.0411-0.0231-0.0602,0.0025c-0.038,0.0217-0.0675,0.0572-0.0665,0.1029l-0.0083,0.0194
	c-0.021,0.0452-0.0414,0.0908-0.0533,0.1394c-0.0173,0.0729-0.0279,0.1461-0.0349,0.2211c0.0037,0.1396,0.0101,0.2801,0.0148,0.4202
	c-0.0202,0.0365-0.0111,0.0807,0.0173,0.1101c0.0023,0.0109,0.0072,0.0321,0.0098,0.043c0.0049,0.0703,0.0419,0.1326,0.1197,0.1314
	c0.0047,0.0095,0.0145,0.0284,0.0191,0.0377c0.0033,0.0168,0.0104,0.0502,0.0137,0.0667c0.0059,0.1378,0.0166,0.2754,0.0279,0.413
	c-0.0277,0.0685-0.0222,0.1303,0.016,0.1854c0.0126,0.1836,0.0318,0.3726,0.1057,0.5433c0.0675,0.1468,0.1699,0.2779,0.2152,0.4352
	c-0.0057,0.0147-0.0174,0.0439-0.0233,0.0587c-0.0054,0.015-0.0166,0.045-0.022,0.06c-0.0111,0.0696-0.0202,0.1415-0.0315,0.2115
	c-0.0282,0.0848-0.0512,0.1712-0.0625,0.2601c-0.0342,0.112-0.0683,0.2247-0.0929,0.3398
	c-0.0514,0.1352-0.0884,0.2756-0.1101,0.4189l-0.0042,0.0214c-0.0245,0.0877-0.047,0.1767-0.0729,0.2645
	c-0.032,0.0334-0.061,0.0724-0.0664,0.1202c-0.0106,0.0442-0.021,0.0887-0.0323,0.1332c-0.0171,0.0289-0.0406,0.0574-0.0414,0.0928
	c-0.0018,0.0153-0.0049,0.0455-0.0067,0.0608c-0.0298,0.0921-0.0615,0.1839-0.09,0.2767c-0.0029,0.0093-0.0086,0.0277-0.0117,0.0367
	c-0.039,0.1107-0.0778,0.2216-0.1168,0.3328c-0.0179,0.0378-0.0251,0.0794-0.0248,0.1213c-0.1526,0.4703-0.3041,0.943-0.4184,1.4242
	c-0.0088,0.0432-0.0142,0.0871-0.0184,0.1314c-0.1425,0.2963-0.2405,0.6166-0.3369,0.9306c-0.0357,0.0514-0.067,0.107-0.0787,0.1696
	c-0.0253,0.0171-0.0481,0.0403-0.0517,0.0729c-0.0168,0.0564-0.0346,0.1127-0.0543,0.1686
	c-0.0465,0.053-0.0682,0.1202-0.0695,0.1903c-0.0313,0.0094-0.0683,0.0282-0.0686,0.0665
	c-0.0031,0.0142-0.0088,0.0424-0.0116,0.0564c-0.0354,0.0766-0.0636,0.1564-0.0781,0.24c-0.0755,0.1448-0.1202,0.3038-0.1578,0.4621
	c-0.009,0.033-0.0173,0.0667-0.0256,0.1006c-0.0589,0.0755-0.0716,0.1698-0.0734,0.2627c-0.1181,0.1655-0.1515,0.3762-0.2038,0.5694
	c-0.0326,0.0315-0.0403,0.0773-0.031,0.1207c-0.0233,0.0359-0.0385,0.0765-0.0463,0.1189
	c-0.0243,0.0331-0.0372,0.0735-0.0299,0.1149c-0.0148,0.037-0.0303,0.0739-0.0458,0.1111c-0.0313,0.0634-0.0602,0.128-0.0804,0.1963
	c-0.1127-0.1684-0.2547,0.251-0.2867,0.3553c-0.0171-0.0233-0.0352-0.045-0.0546-0.066c0.0116-0.1645-0.03-0.324-0.0615-0.4833
	c0.0018-0.0698,0.0047-0.1386,0.0078-0.2071c0.0047-0.0419,0.0057-0.084,0.0031-0.1254c0.0021-0.0845,0.0044-0.1657-0.0191-0.2464
	c-0.0039-0.0672-0.0075-0.1337-0.0109-0.1999c-0.0046-0.0396-0.0135-0.1192-0.0181-0.1588
	c-0.0028-0.0116-0.0085-0.0346-0.0114-0.0462c0.0145-0.0497,0.024-0.1029,0.0044-0.1523c0-0.1153-0.0005-0.2293,0.0005-0.3436
	c0.0194-0.0507,0.0088-0.1044-0.0075-0.1536c0.0132-0.0817,0.0277-0.1598,0.0411-0.2402c0.0057-0.031,0.0033-0.0613-0.0075-0.091
	c0.0031-0.0564,0.0106-0.1159,0.0582-0.1531c0.0949-0.0667,0.0114-0.1782-0.0044-0.264c0.121-0.152,0.3529-0.1794,0.4478-0.3604
	c0.1218-0.1569-0.0732-0.1771-0.1722-0.085c-0.0404-0.0114,0.0013-0.0626-0.0039-0.0908c0.0641-0.1096-0.0962-0.2369-0.1437-0.0907
	c-0.0106,0.0093-0.0318,0.0284-0.0421,0.038c-0.0541,0.0722-0.0788-0.0049-0.0737-0.0615c0.0099-0.0481,0.0163-0.0962,0.0222-0.1445
	c0.0049-0.0419,0.0145-0.1262,0.0191-0.1684c-0.0015-0.069-0.0026-0.1373-0.0028-0.2053c0.0059-0.0426,0.0033-0.0856-0.0005-0.1278
	c0.0018-0.0933,0.0033-0.1846,0.0073-0.2772c0.0393-0.0655,0.0439-0.1285,0.014-0.1893c0.0046-0.0406,0.009-0.0809,0.0137-0.121
	c0.0385-0.065,0.0426-0.127,0.0119-0.1864l0.0067-0.0225c0.0277-0.0289,0.0447-0.0727,0.0212-0.1096
	c-0.0008-0.0691-0.0011-0.1379-0.0005-0.2061c0.001-0.0442,0.0033-0.1324,0.0046-0.1766c0.0463-0.0308,0.039-0.089,0.0202-0.1329
	c0.008-0.0426,0.0114-0.0859,0.0064-0.1285c0.0008-0.0181,0.0023-0.0543,0.0028-0.0727c0.031-0.0263,0.0372-0.0706,0.0171-0.1053
	c-0.0334-0.1461,0.1207-0.195,0.1508-0.3149c0.0646-0.0432,0.1748-0.0763,0.1647-0.1722c-0.1037,0.0013-0.1474,0.1117-0.2035,0.1813
	l-0.0191,0.0062c-0.0059-0.2896,0.182-0.5877,0.2345-0.8838c0.1396-0.4926,0.1482-1.0092,0.2692-1.5051
	c0.0077-0.0882,0.2012-0.12,0.0775-0.1926c0.0031-0.0094,0.0093-0.0279,0.0127-0.0373c0.0199-0.0623,0.0354-0.1259,0.044-0.1906
	c0.0013-0.0168,0.0033-0.0504,0.0046-0.0675c0.03-0.0258,0.0404-0.0675,0.0236-0.1034c0.008-0.0629,0.0157-0.1254,0.0235-0.1877
	c0.0406-0.0202,0.0419-0.0701,0.0196-0.104c0.0073-0.0336,0.009-0.0677,0.0054-0.1016c-0.0003-0.0424-0.0003-0.0845,0-0.1264
	c0.0398-0.0225,0.0409-0.0724,0.0168-0.1068c0.0207-0.0483,0.0241-0.1032,0.0013-0.151c0.0126-0.0897,0.0238-0.1792,0.0157-0.2694
	c0.0305-0.0354,0.0349-0.0843,0.0148-0.1259c0.0013-0.084,0.0036-0.1663,0.0051-0.2498c0.0318-0.037,0.039-0.0871,0.0207-0.1319
	c0.0021-0.0166,0.0064-0.0499,0.0085-0.0667c0.0812-0.3312,0.151-0.6658,0.1981-1.0038c0.0039-0.016,0.0119-0.0486,0.0157-0.0649
	c0.0122-0.0536,0.0257-0.1068,0.0414-0.159c0.2066-0.2211-0.161-0.3393-0.0998-0.0013c-0.0538,0.1329-0.0988,0.2689-0.136,0.4078
	c-0.0308,0.0649-0.0452,0.1355-0.0584,0.2058c-0.0124,0.039-0.03,0.076-0.0432,0.1148c-0.0186,0.0577-0.0199,0.119-0.0251,0.1789
	l-0.0036,0.0217c-0.0618,0.1683-0.1047,0.3447-0.1243,0.5228c-0.0011,0.0184-0.0032,0.0551-0.0039,0.0732
	c-0.0383,0.0233-0.0416,0.0711-0.0235,0.1084c-0.0059,0.0334-0.0073,0.0667-0.0042,0.1006l-0.0036,0.0243
	c-0.0528,0.0734-0.0509,0.1252,0.0052,0.1546c-0.0137,0.1226-0.0132,0.2467,0.0013,0.3692c-0.0434,0.015-0.0416,0.066-0.0225,0.0993
	c-0.0067,0.0509-0.0095,0.1024-0.0054,0.1538c-0.0005,0.032,0,0.0646,0.0016,0.097c0.0015,0.0336,0.0033,0.0675,0.0059,0.1013
	l-0.0031,0.0251c-0.0106,0.0742-0.0184,0.1477-0.0256,0.2232c-0.0016,0.0178-0.0044,0.0538-0.0059,0.0716
	c-0.0321,0.024-0.0375,0.0675-0.0202,0.1021c-0.0023,0.0106-0.0072,0.0313-0.0095,0.0419
	c-0.1327,0.0171-0.1846,0.0786-0.0473,0.1484c-0.0189,0.1973-0.0781,0.3879-0.1096,0.5834
	c-0.0091,0.052-0.0171,0.1045-0.0236,0.1569c-0.0072,0.0593-0.0121,0.119-0.0178,0.1787c-0.0085,0.0776-0.0225,0.1528-0.0346,0.2309
	c-0.0111,0.0279-0.0166,0.0571-0.0166,0.0874c-0.0137,0.1117-0.0615,0.2154-0.082,0.3258c-0.053,0.1885-0.1143,0.3747-0.1531,0.5671
	c-0.0088-0.0064-0.0269-0.0191-0.0359-0.0256c0.0028-0.0426,0.008-0.1283,0.0106-0.1709c0.0409-0.0342,0.0411-0.0895,0.0194-0.1339
	c0.0075-0.0339,0.0099-0.068,0.0073-0.1022c0.0003-0.0944,0.0008-0.1867,0.0015-0.2805c0.0049-0.0404,0.0145-0.1216,0.0194-0.1619
	c0.0028-0.0755,0.0057-0.1484,0.0091-0.2229c0.0214-0.1981,0.0287-0.3972,0.0202-0.5957c-0.0026-0.0747,0.0021-0.1479-0.0173-0.2198
	c-0.0013-0.0121-0.0042-0.0367-0.0054-0.0492c0.0018-0.0336-0.0013-0.0667-0.0091-0.099c0.0073-0.0411,0.0137-0.083,0.0075-0.1244
	c-0.0005-0.0845,0.0008-0.1676-0.0158-0.25c-0.0039-0.0416-0.0121-0.1252-0.0162-0.1671c0.0644-0.0411,0.1267-0.0851,0.1872-0.1316
	c0.1732-0.0977,0.0408-0.1787-0.0517-0.0282c-0.0411,0.022-0.0796,0.0481-0.1166,0.0768l-0.0181-0.0116
	c-0.0062-0.0357-0.0184-0.1073-0.0246-0.143c0.0085-0.0478,0.0184-0.0954,0.0287-0.1427c0.0425-0.0631,0.1655-0.1218,0.1663-0.1774
	c-0.075-0.1228-0.1921,0.1169-0.2159-0.0196c-0.0101-0.2539-0.0776-0.4998-0.135-0.746c0.0241-0.0287,0.0186-0.0701-0.0116-0.0913
	c0-0.0747-0.0238-0.1473-0.0183-0.2218c0.1096-0.0915,0.2076-0.1955,0.2976-0.3062c0.1857-0.2007,0.3749-0.4023,0.5117-0.6407
	c0.0435-0.0667,0.0783-0.1384,0.1109-0.2108c0.0064-0.0147,0.0194-0.0437,0.0258-0.0584c0.0318-0.0193,0.0378-0.0597,0.0163-0.0889
	c0.0802-0.1068,0.1197-0.2374,0.1363-0.3685c0.0114-0.0843,0.0225-0.1676,0.0258-0.2524c0.0866,0.0052-0.0282-0.1577-0.0049-0.2412
	c0.0562-0.0677,0.0569-0.119,0.0029-0.1533V9.7677c0.0245-0.0318,0.0416-0.0739,0.0235-0.113
	c-0.0021-0.0864-0.0052-0.1709-0.0054-0.2568c0.037-0.2201,0.0876-0.439,0.0856-0.6638c0.0315-0.0377,0.0396-0.089,0.0207-0.1344
	c0.001-0.1192,0.0067-0.2379,0.0036-0.3568c-0.0013-0.0334-0.0031-0.0667-0.0052-0.0998c-0.0015-0.0918-0.0025-0.1823,0.0008-0.2736
	c0.0031-0.0329,0.0062-0.0657,0.0093-0.0986c0.0033-0.0385,0.0068-0.077,0.0085-0.1156c0.1213-0.1714-0.1221-0.2679-0.1197-0.0843
	L18.505,7.5929c-0.0271,0.0271-0.0437,0.0692-0.0207,0.1047c0.0015,0.1099,0.0031,0.2203,0.0052,0.3304
	c-0.0008,0.0171-0.0005,0.0616,0.0023,0.1092c-0.0046,0.1893-0.0531,0.3733-0.0955,0.5571
	c-0.0365,0.2196-0.0858,0.4373-0.1145,0.6583c-0.0341,0.2762-0.0183,0.5564-0.0036,0.8336
	c0.0003,0.0119,0.0008,0.0354,0.0008,0.0473c-0.0015,0.0406-0.0031,0.0812-0.0052,0.1221
	c-0.0305,0.0403-0.0377,0.0931-0.0193,0.1406c-0.0011,0.0716-0.0003,0.1453-0.0034,0.2177
	c-0.1295,0.0861-0.0791,0.2405-0.1223,0.3677c-0.0678,0.0918-0.1391,0.1823-0.1893,0.2855c-0.0466,0.0393-0.09,0.0823-0.1296,0.1288
	c-0.0181,0.0171-0.0354,0.0352-0.0519,0.0541c-0.0851,0.0773-0.1604,0.1644-0.2283,0.2573
	c-0.0166,0.0202-0.0329,0.0403-0.0488,0.061c-0.0543,0.0455-0.1099,0.09-0.164,0.1362c-0.1161-0.2203-0.0807-0.4833-0.0008-0.7098
	c-0.0026-0.0589-0.0955-0.1169-0.1249-0.0543c-0.0199,0.182-0.0732,0.0866-0.1089-0.0375
	c-0.0116-0.3222-0.0499-0.6433-0.0975-0.9621c0.0326-0.0427,0.0608-0.0887,0.0804-0.1389c0.0271-0.0049,0.0468-0.0196,0.0589-0.044
	c0.0157-0.0245,0.0308-0.0493,0.0455-0.0742c0.2563-0.3654,0.4546-0.791,0.4385-1.2476c0.0062-0.0814,0.0155-0.1616,0.0181-0.2428
	c-0.1169-0.1101,0.2197-0.4579-0.0282-0.3843c-0.0063-0.014-0.0189-0.0421-0.0254-0.0561
	c-0.0046-0.0677-0.0051-0.1344-0.0093-0.2017c-0.0414-0.4359-0.1228-0.8649-0.2192-1.2913
	c0.0145-0.0308,0.0243-0.0634,0.0284-0.0967c0.1285-0.142,0.2451-0.2968,0.3429-0.4613c0.0051-0.0127,0.0155-0.0378,0.0207-0.0502
	c0.0517-0.1008,0.1096-0.1983,0.1533-0.3031c0.0261-0.0279,0.0533-0.055,0.0796-0.0825c0.0222,0.016,0.0463,0.0282,0.0727,0.0362
	c0.0246,0.0106,0.0497,0.0207,0.0747,0.0305c0.1166-0.0267,0.1968-0.1275,0.2757-0.211c0.1081-0.1619,0.2462-0.3229,0.2816-0.5195
	c0.016-0.1063-0.0823-0.1153-0.1405-0.0471c-0.0401-0.0486,0.0287-0.0941,0.0523-0.1344c0.2061-0.0685,0.3434-0.2896,0.367-0.497
	c0.0315-0.0199,0.0385-0.0605,0.0183-0.0912l0.0059-0.021c0.1384-0.2728,0.1122-0.6187,0.0781-0.9117
	c0.008-0.0396-0.008-0.0582-0.0481-0.0556c-0.0073-0.0078-0.022-0.0236-0.0292-0.0313c-0.0349-0.0375-0.0849-0.0991-0.1345-0.0466
	c-0.0269,0.0158-0.053,0.0326-0.0763,0.0533c-0.0186,0.0183-0.0367,0.0372-0.0543,0.0564c-0.0101-0.0021-0.03-0.0064-0.0399-0.0085
	c-0.0367-0.0419-0.0822-0.0737-0.1388-0.0802c-0.0158-0.0039-0.0478-0.0119-0.0636-0.0157
	c-0.0008-0.0546-0.0675-0.0564-0.0874-0.0124l-0.0184,0.0099c-0.1412,0.0367-0.1777,0.1665-0.16,0.2958
	c-0.0148,0.0064-0.0442,0.0188-0.0587,0.0251c-0.0132,0.0085-0.0396,0.0253-0.0528,0.0336
	c-0.2527,0.0636-0.1578,0.4026-0.1789,0.596c0.0052,0.1145,0.0233,0.2288,0.062,0.3367c-0.1029,0.0196-0.1479,0.1125-0.1725,0.204
	c-0.0533,0.0783-0.0931,0.1667-0.0859,0.2637c-0.0204,0.1523-0.0897,0.2945-0.0881,0.4507c-0.0204,0.112,0.044,0.2301,0.1701,0.1939
	c-0.1466,0.287-0.2671,0.6974-0.5339,0.8331c0.0315-0.0941-0.0608-0.2782-0.1019-0.1158c-0.0163,0.0502-0.0246,0.1086,0.0068,0.1551
	c0.0111,0.0106,0.033,0.0321,0.0439,0.043c-0.0023,0.0375-0.0067,0.1127-0.009,0.1505c-0.0225,0.0346-0.0457,0.069-0.0682,0.1042
	c-0.1231,0.2213-0.1598,0.4792-0.2785,0.7023c-0.0078-0.055-0.0179-0.1096-0.0277-0.1644c0.0021-0.0334-0.0008-0.0662-0.0085-0.0986
	c0.0207-0.0437,0.0227-0.099-0.0194-0.1311c-0.0016-0.0434-0.0044-0.1303-0.0059-0.1737c-0.0003-0.068,0.0003-0.136,0.0013-0.2038
	c0.043-0.1701,0.1211-0.3284,0.1712-0.4959c0.0308-0.1125,0.0548-0.2263,0.0723-0.3414c0.0303-0.0263,0.0352-0.0701,0.0163-0.1047
	l0.0013-0.0225c0.0344-0.0204,0.0471-0.0626,0.0325-0.0993c0.0091-0.0367,0.0181-0.0734,0.0269-0.1101
	c0.031-0.0365,0.037-0.0866,0.0168-0.1296l0.007-0.0219c0.0041-0.039,0.0121-0.1169,0.0162-0.1557
	c0.0316-0.1368,0.0528-0.2759,0.0621-0.4158c0.0302-0.0367,0.0375-0.0861,0.0181-0.1295c0.0261-0.2583,0.0559-0.5169,0.0561-0.7771
	c0.0385-0.0212,0.0367-0.0687,0.0155-0.1013c0.0147-0.0334,0.0277-0.0675,0.0372-0.1029c0.0515-0.0132,0.1089-0.0243,0.137-0.0752
	c0.0771-0.0959,0.1254-0.2118,0.1528-0.3309c0.009-0.0349,0.0163-0.0703,0.0238-0.1055c0.0241-0.053,0.0541-0.1048,0.0629-0.1631
	c0.0078-0.0778,0.0243-0.1606-0.0057-0.2361c-0.0147-0.0057-0.0437-0.0171-0.0584-0.0227
	c-0.0321,0.0137-0.0584,0.0372-0.0843,0.0602c-0.0287-0.0512-0.0854-0.0318-0.1022,0.0166
	c-0.0085-0.0119-0.0256-0.0356-0.0341-0.0476c0.0289-0.053,0.0385-0.1399,0.1099-0.1499c0.0409,0.0116,0.084,0.0245,0.1265,0.0129
	c0.0354-0.0057,0.0708-0.0121,0.1052-0.0225c0.467-0.1042,0.5705-0.5983,0.4551-1.0105c-0.0289-0.0618-0.1391-0.0977-0.1885-0.0561
	c-0.0298,0.0461-0.0556,0.0944-0.0814,0.1427c-0.0419-0.0018-0.0773,0.0142-0.1014,0.0489
	c-0.0318-0.0561-0.0915-0.0109-0.0853,0.0403c-0.0279,0.0716-0.0334,0.1484-0.0406,0.2242
	c-0.0457,0.008-0.0654,0.0522-0.0641,0.0943c-0.0294-0.0041-0.0589-0.0051-0.0884-0.0033
	c-0.0003-0.0166-0.0008-0.0494-0.0011-0.0659c0.1774-0.1898,0.2268-0.5601-0.0282-0.7127
	c-0.0298-0.0791-0.0768-0.1544-0.1624-0.1804C17.3854,1.0145,17.3647,1.0049,17.3543,1h-0.0227h-0.1039l-0.0026,0.024
	c-0.016,0.0057-0.0481,0.0168-0.0641,0.0222c-0.0362-0.0069-0.0734,0.0145-0.0724,0.0543c-0.0075,0.0075-0.023,0.0222-0.0305,0.0297
	c-0.0372-0.0147-0.0734,0.0143-0.0693,0.0533c-0.1049,0.1771-0.0488,0.377-0.0359,0.5691c0.0006,0.0553,0.0075,0.1275-0.0675,0.1278
	c-0.0072-0.0073-0.0214-0.0217-0.0287-0.0289c-0.0078-0.0365-0.045-0.0589-0.0802-0.0442
	c-0.0344-0.0277-0.0693-0.0553-0.1013-0.0861c-0.0377-0.1337-0.1285-0.2666-0.2759-0.2852
	c-0.0711-0.0163-0.1461-0.022-0.2172-0.0026c-0.0308,0.0101-0.0651,0.0202-0.084,0.0492c-0.0199,0.0897-0.0367,0.1799-0.0499,0.2707
	l-0.0025,0.0222c0.0057,0.0613-0.0013,0.1446,0.077,0.157c0.0466,0.0597,0.1192,0.0822,0.1893,0.1016
	c0.0677,0.0706,0.1541,0.1231,0.2539,0.1278C16.5737,2.175,16.59,2.2016,16.598,2.215c-0.0675,0.0732-0.06,0.1722,0.0119,0.2389
	c0.031,0.051,0.0727,0.0975,0.1365,0.1009c0.0263,0.0062,0.0524,0.0129,0.0786,0.0199c-0.0083,0.0486-0.0109,0.098-0.0042,0.1471
	c0.0068,0.0988,0.0202,0.1971,0.0427,0.2935c0.008,0.0691,0.0173,0.1379,0.0258,0.2069c0.0023,0.0293,0.0054,0.0582,0.0088,0.0872
	c0.0052,0.0509,0.0013,0.1246,0.0605,0.1451c0.0248,0.0121,0.0504,0.0227,0.0765,0.0323c0.0357,0.0088,0.0724,0.0135,0.1086,0.0186
	c0.0104,0.0538,0.0207,0.1075,0.0305,0.1616c-0.023,0.0473-0.0199,0.1016-0.0005,0.1494c-0.0135,0.3995-0.0574,0.7959-0.1161,1.1908
	c-0.031,0.0258-0.0375,0.0692-0.0184,0.1042c-0.0375,0.34-0.1248,0.6712-0.2154,1.0002c-0.0334,0.0861-0.0765,0.1689-0.1365,0.2397
	c-0.0095,0.0008-0.0289,0.0023-0.0385,0.0033c-0.0626-0.1557-0.1058-0.3181-0.1484-0.4799
	c-0.0032-0.0365-0.0057-0.0729-0.0083-0.1091c0.0214-0.1629,0.1099-0.3046,0.1851-0.4473c0.054-0.1044,0.089-0.2175,0.1334-0.3263
	c0.007-0.0124,0.0207-0.0372,0.0277-0.0497c0.0481-0.0589,0.1057-0.1127,0.1324-0.1859c0.0078-0.0357,0.0132-0.0716,0.0189-0.1076
	c0.0289-0.0284,0.0372-0.0713,0.0194-0.1078c-0.0037-0.0866,0.001-0.1746-0.0194-0.2594c-0.0282-0.0729-0.1076-0.0406-0.1604-0.0212
	c-0.0372-0.1132,0.0709-0.3661-0.136-0.3387c-0.0109,0.0003-0.0326,0.0008-0.0435,0.0008l-0.0039-0.0207
	c0.0592-0.15,0.1037-0.3031,0.0755-0.468c-0.0127-0.144-0.067-0.2841-0.1559-0.3979c-0.0279-0.0393-0.0615-0.0745-0.0975-0.1068
	c-0.0691-0.0647-0.2935,0.0729-0.2578,0.181c0.0036,0.0099,0.0109,0.0295,0.0142,0.0393c0.0243,0.1317,0.039,0.2661,0.0819,0.3933
	c0.0016,0.0541,0.0352,0.0972,0.0794,0.1249c0.0174,0.0189,0.0354,0.0375,0.0536,0.0556c0.0176,0.0181,0.0375,0.0331,0.0597,0.0452
	c0.0114,0.0088,0.0336,0.0264,0.045,0.0352c0.009,0.1006-0.1109,0.1006-0.1662,0.1569c-0.0117,0.0095-0.0349,0.0284-0.0466,0.038
	c-0.0346,0.0094-0.0592,0.0456-0.0401,0.0802c-0.09,0.022-0.0691-0.0641-0.0561-0.1326c0.1701-0.189-0.1337-0.496-0.3431-0.4127
	l-0.021-0.0059c0.0031-0.0101,0.0096-0.0303,0.0127-0.0404c0.0077-0.0279,0.0137-0.0564,0.0176-0.085
	c0.0018-0.0388,0.0016-0.0776-0.0005-0.1161c-0.0094-0.181-0.0629-0.3563-0.1058-0.5314c-0.0321-0.0869-0.0696-0.1825-0.1466-0.239
	c-0.0088-0.0049-0.0261-0.0147-0.0349-0.0199c-0.1381-0.0581-0.3178-0.0028-0.3222,0.1637
	c0.0015,0.0318,0.0049,0.0954,0.0064,0.1275c0.0088,0.106,0.023,0.2123,0.0528,0.3146c0.0083,0.036,0.0168,0.0719,0.024,0.1081
	c0.0018,0.0106,0.0052,0.0323,0.007,0.0429c-0.0199,0.0329-0.0114,0.0747,0.0196,0.0975c0.0215,0.1893,0.1704,0.2655,0.2976,0.3687
	c-0.033,0.0344-0.0667,0.0683-0.099,0.1032c-0.0101-0.0003-0.0303-0.0005-0.0403-0.0008c-0.0238-0.0908-0.0742-0.1849-0.1789-0.1926
	c-0.0752,0.0233-0.1389,0.0734-0.2069,0.1122c-0.007,0.015-0.0212,0.0455-0.0282,0.0605l-0.0233,0.0057V3.911l0.023,0.009
	c0.0039,0.0673,0.0075,0.1399,0.0551,0.1926c0.0478,0.0548,0.1024,0.1032,0.1538,0.1544c0.0295,0.0447,0.0783,0.0724,0.1329,0.0672
	c0.0279,0.0388,0.0744,0.0618,0.1223,0.0519c-0.0025,0.0298,0.0073,0.0548,0.0293,0.0752l-0.0013,0.0227
	c-0.0238,0.1564-0.0287,0.3152-0.0225,0.4732c0.0006,0.0432,0.0021,0.1293,0.0026,0.1725c-0.0111,0.1422,0.053,0.2733,0.2271,0.2166
	c-0.0137,0.0435,0.0134,0.0854,0.0545,0.1001c0.1048,0.4447,0.2873,0.8885,0.5655,1.2538c0.1693,0.257,0.187,0.5701,0.2415,0.8644
	c0.0052,0.0289,0.0119,0.0576,0.0196,0.0861c0.0008,0.1094,0.0016,0.2193,0.0026,0.3289c-0.0222,0.0458-0.0057,0.096,0.021,0.1355
	c0.0013,0.0323,0.0028,0.0646,0.0041,0.0969c-0.0008,0.0334,0.0003,0.0667,0.0028,0.1001
	c-0.0021,0.0691-0.0033,0.1384-0.0041,0.2077c-0.0008,0.0703-0.0013,0.1409-0.0011,0.2117
	c-0.0008,0.0683-0.001,0.1368-0.0005,0.2056c0.0116,0.0825-0.0263,0.1803,0.0207,0.2565c-0.0054,0.1463,0.0047,0.2925,0.006,0.4388
	l-0.0003,0.0238c-0.0013,0.1225-0.002,0.2456-0.002,0.3684c0.0018,0.1298-0.0104,0.2638,0.0253,0.3905
	c0.0072,0.0367,0.0124,0.0737,0.0178,0.1107c0.0114,0.0828,0.0258,0.166,0.043,0.248c0.0067,0.076,0.016,0.1508,0.024,0.2273
	c0.0018,0.0168,0.0057,0.0502,0.0075,0.067c0.0189,0.1181,0.0466,0.2348,0.0693,0.3527c0.0209,0.1422,0.0512,0.2834,0.0921,0.4217
	c0.033,0.1176,0.068,0.2351,0.0946,0.3545c0.0025,0.0158,0.0072,0.0473,0.0095,0.0631c-0.0036,0.0287-0.0013,0.0571,0.0075,0.0848
	c0.0131,0.0564,0.0271,0.1128,0.0401,0.1694c-0.0026,0.0318,0.0028,0.062,0.0166,0.091c0.0028,0.0166,0.0085,0.0499,0.0114,0.0665
	c0.0039,0.0305,0.008,0.0613,0.0119,0.0921c-0.0178,0.0357-0.0116,0.0802,0.0207,0.106c0.0015,0.0116,0.0046,0.0344,0.0062,0.0461
	c0.0098,0.1006,0.0194,0.2017,0.039,0.3015c0.0072,0.0809,0.0225,0.1639,0.0183,0.2462c-0.0625-0.0535-0.1277-0.1034-0.1911-0.1552
	c-0.0667-0.0949-0.1332-0.1903-0.1993-0.2855c-0.0778-0.1321-0.1528-0.2661-0.2343-0.3961
	c-0.0419-0.097-0.0854-0.1934-0.1296-0.2893c0.0003-0.0163,0.0011-0.0494,0.0013-0.0657c0.0346-0.022,0.037-0.0675,0.0129-0.098
	c0.0212-0.3206,0.0548-0.6402,0.082-0.9604c0.0199-0.1474,0.014-0.2963-0.0217-0.4409c-0.0018-0.0796-0.0021-0.158-0.0196-0.2355
	c-0.0111-0.1818-0.0287-0.3633-0.0654-0.5417c0.0111-0.03,0.0155-0.0608,0.0131-0.0923c0.0155-0.0538-0.0008-0.2689-0.0879-0.2063
	c-0.0308,0.0654-0.066,0.1389-0.0362,0.2118c0.0028,0.0106,0.0088,0.032,0.0116,0.0426c0.0059,0.0378,0.0178,0.1135,0.0238,0.1513
	l0.0051,0.023c-0.0263,0.0711-0.0186,0.1332,0.0233,0.1864l0.0083,0.0227c-0.0222,0.0492-0.0196,0.105,0.0015,0.1544
	c-0.0243,0.0328-0.0235,0.0827,0.0171,0.1029c-0.0028,0.0411-0.009,0.1234-0.0119,0.1645c-0.0329,0.141-0.0377,0.2858-0.0455,0.4298
	c-0.0316,0.0253-0.0411,0.0683-0.0233,0.1048c-0.0025,0.1117-0.0075,0.2242-0.0126,0.3364
	c-0.036,0.0711,0.0263,0.4191-0.1218,0.2568c-0.1011-0.1924-0.1298-0.4106-0.1771-0.6201c0.0209-0.0331,0.0147-0.0765-0.0171-0.1001
	c-0.0432-0.1981-0.0887-0.3958-0.1128-0.597c0.0194-0.0359,0.0122-0.0802-0.0186-0.1068c-0.0018-0.032-0.0033-0.0639-0.0049-0.0954
	c0.0163-0.0383,0.0095-0.0828-0.0212-0.1115c-0.0015-0.0403-0.0028-0.0807-0.0044-0.121c0.0039-0.0424,0.0072-0.0851,0.0008-0.1272
	c0.001-0.0708,0.0016-0.1417,0.0018-0.2123c0.0008-0.1122-0.0005-0.2239-0.0003-0.3356c0.0173-0.0476-0.0006-0.0962-0.0233-0.1375
	c-0.001-0.0662-0.002-0.1321-0.0033-0.1978c-0.0132-0.2743-0.112-0.5443-0.0646-0.8212c0.0367-0.0918-0.038-0.0577-0.0939-0.037
	c-0.0455,0.0036-0.0571,0.0519-0.0584,0.0895c-0.0155,0.0401,0.0124,0.075,0.0285,0.1099c0.0005,0.1086,0.0015,0.2175-0.0047,0.3258
	c-0.0023,0.038-0.0073,0.1138-0.0099,0.1515c-0.001,0.1135,0.0215,0.2252,0.0282,0.3382c-0.0003,0.0124-0.0011,0.037-0.0016,0.0494
	c-0.0054,0.1308-0.0243,0.2658,0.013,0.3943L15.791,9.746c-0.0008,0.0308-0.0025,0.0923-0.0033,0.1231
	c0.0011,0.0119,0.0031,0.0356,0.0039,0.0473c0.0033,0.1427,0.0039,0.2857,0.015,0.4284c0.0073,0.0398,0.022,0.1197,0.0292,0.1595
	c0.0047,0.016,0.014,0.0481,0.0186,0.0641c-0.0204,0.0298-0.0292,0.0768,0.0116,0.0949c0.0021,0.0341,0.0059,0.0682,0.0116,0.1024
	c-0.0095,0.0351-0.0036,0.0672,0.0181,0.0967c-0.0059,0.0378-0.0114,0.0776,0.0023,0.1148c0.0217,0.0915,0.0504,0.181,0.0758,0.2721
	c0.0114,0.0869,0.0246,0.1745,0.0471,0.2596c0.0008,0.0289,0.0033,0.0576,0.008,0.0866l0.0033,0.0207
	c0.0064,0.0401,0.0124,0.0843,0.0452,0.1128c0.1174,0.1205,0.2004,0.2692,0.2863,0.4124c0.002,0.1192-0.0008,0.239-0.0011,0.3584
	c0.0033,0.0706-0.0109,0.1473,0.0241,0.212c-0.0277,0.1217-0.0039,0.2467,0.0238,0.3666c0.0044,0.0155,0.013,0.0462,0.0173,0.0618
	c0.0339,0.1086,0.0616,0.2198,0.1104,0.3232l0.0073,0.0173c-0.0303,0.022-0.0142,0.0587,0.0137,0.0737l0.007,0.0171
	c0.0028,0.0274,0.015,0.0502,0.0362,0.0683c0.0166,0.1411,0.0651,0.2748,0.1288,0.4013c-0.0403,0.1308-0.0799,0.2625-0.1247,0.392
	c-0.0571,0.1417-0.1151,0.2831-0.1641,0.4282c-0.0227,0.0577-0.045,0.1159-0.0644,0.1748
	c-0.0318,0.0959-0.0608,0.1929-0.0908,0.2893c-0.0408,0.1275-0.0706,0.2583-0.1018,0.3887
	c-0.0158,0.0569-0.0323,0.1137-0.0427,0.1719c-0.0064,0.037-0.0098,0.0745-0.0116,0.112c0.0298,0.1417-0.0543,0.2568-0.0752,0.3778
	c0.2834,0.135,0.2664,0.4838,0.4257,0.7162c0.0116,0.0233,0.0245,0.0457,0.0388,0.0677c0.0933,0.1746,0.1504,0.3726,0.2805,0.5254
	c0.0489,0.1073,0.1076,0.21,0.1691,0.3106c0.0416,0.0662,0.0863,0.1308,0.1238,0.1998c0.0359,0.0703,0.0662,0.1432,0.0915,0.218
	c0.0005,0.0109,0.0015,0.0326,0.002,0.0435c-0.033,0.0344-0.0382,0.0845-0.0173,0.1272c-0.0023,0.0983-0.031,0.2009-0.0044,0.2989
	c-0.0003,0.0109-0.0008,0.0331-0.0011,0.0442c-0.0365,0.0199-0.0411,0.0644-0.0251,0.0996c-0.0008,0.0401-0.0018,0.0804-0.002,0.121
	c-0.0016,0.0672-0.0032,0.1353-0.0047,0.2035c-0.0272,0.0416-0.0362,0.0926-0.0222,0.141c0.0015,0.0178,0.0047,0.0533,0.0064,0.0711
	c0.0013,0.03,0.0018,0.06,0.0011,0.0905c-0.1288,0.0277-0.2193,0.0414-0.1961,0.2118c-0.0313-0.0049-0.0623-0.0095-0.0933-0.0142
	c-0.0409,0.009-0.1226,0.0269-0.1634,0.036c-0.033,0.0452-0.0426,0.0988-0.0289,0.1609c-0.0284,0.1295,0.0468,0.2748,0.1655,0.3297
	c0.0752,0.0411,0.2206,0.0095,0.2193,0.1248c-0.0047,0.0499-0.0075,0.1001-0.0104,0.1505c-0.0168,0.0481-0.008,0.0996,0.007,0.1471
	c0.0077,0.2668,0.0188,0.5329,0.0212,0.8003c0,0.0491,0.0065,0.0982,0.0114,0.1473c0.0039,0.0499,0.0101,0.0996,0.0158,0.1495
	c-0.0036,0.044-0.0109,0.1319-0.0145,0.1756c0.0031,0.0437,0.0093,0.1311,0.0124,0.1748c-0.0166,0.038-0.0103,0.0828,0.0196,0.1128
	c0.0073,0.1106,0.0122,0.2234,0.0373,0.3323c0.0046,0.0103,0.014,0.0315,0.0183,0.0419c0.0028,0.1176-0.0046,0.2391,0.0222,0.3555
	c0.0099,0.0651,0.0179,0.135,0.0305,0.2014c0.0049,0.0261,0.014,0.0514,0.0267,0.0755c-0.0037,0.0088-0.0109,0.0261-0.0145,0.0346
	c-0.0486,0.059-0.0967,0.1185-0.1453,0.1777c-0.0214,0.0241-0.0432,0.0483-0.0636,0.074c-0.0445,0.047,0.0284,0.0962,0.0724,0.1026
	c0.0168,0.0478,0.0814,0.043,0.0985-0.002c0.0176-0.0018,0.053-0.0057,0.0706-0.0075l0.0028,0.0227
	c-0.0145,0.1321-0.0088,0.2648-0.0075,0.398c-0.0083,0.0266-0.0131,0.054-0.0145,0.0825c-0.0026,0.0693-0.0028,0.1432-0.0028,0.2146
	c-0.007,0.031-0.014,0.062-0.0209,0.0936c-0.0093,0.0318-0.0122,0.0644-0.0083,0.0981c-0.0158,0.0287-0.0225,0.0597-0.0207,0.0928
	c-0.0054,0.0457-0.0054,0.0921-0.0026,0.1383c-0.0147,0.0267-0.023,0.0551-0.0251,0.0854
	c-0.0059,0.0915-0.0106,0.1854-0.0219,0.2769c-0.0109,0.045-0.0228,0.09-0.0272,0.1365c-0.0023,0.0313-0.0039,0.0631-0.0052,0.0951
	c-0.0284,0.0292-0.0362,0.0729-0.0184,0.1107c-0.0018,0.0636-0.0031,0.1283-0.0044,0.1934
	c-0.015,0.1329-0.0318,0.2674-0.0421,0.4016c-0.0145,0.0667-0.0295,0.1339-0.0315,0.2029c-0.0021,0.0416-0.0065,0.1252-0.0086,0.167
	c-0.0059,0.0396-0.0131,0.0797-0.0165,0.1202c-0.007,0.113-0.0099,0.2281-0.028,0.3403c-0.0031,0.0109-0.0095,0.0326-0.0126,0.0435
	c-0.0186,0.0325-0.0251,0.0721-0.007,0.107c-0.008,0.0295-0.015,0.0592-0.0212,0.0897c-0.0039,0.0468-0.0052,0.0939-0.0049,0.1412
	c-0.0021,0.0962-0.0331,0.1411-0.0566,0.0225l-0.0059-0.0231c0.0235-0.0344,0.0147-0.0794-0.0173-0.1042
	c-0.0006-0.0176-0.0016-0.053-0.0021-0.0706c-0.0037-0.1477,0.0145-0.2989-0.0238-0.4425c-0.0098-0.037-0.0243-0.0718-0.0354-0.1075
	c-0.014-0.0447-0.03-0.0885-0.0445-0.1324c0.0064-0.0365-0.0176-0.0722-0.0559-0.0727c0.0162-0.0489-0.0054-0.0993-0.0499-0.1234
	c0.0046-0.0592-0.0158-0.1151-0.0298-0.1712c-0.0003-0.0662,0.0064-0.1301-0.0163-0.1913
	c-0.0059-0.0163-0.0176-0.0484-0.0233-0.0647c-0.0047-0.0765-0.0078-0.1487-0.0093-0.2234c0.001-0.0126,0.0036-0.0382,0.0049-0.0509
	c-0.0023-0.1104,0.0641-0.2322,0.006-0.3356c-0.0086-0.0124-0.0259-0.0372-0.0344-0.0497
	c-0.0104-0.0322-0.0435-0.0421-0.0723-0.0559c-0.0126-0.1-0.0265-0.1998-0.0394-0.2998c0.0115-0.0328,0.0231-0.0656,0.0349-0.0979
	c0.0372-0.0535,0.0791-0.1381-0.0013-0.1614c-0.0193-0.0457-0.0347-0.0951-0.0532-0.1427c0.044-0.033,0.1188-0.0438,0.163-0.0779
	c0.1087-0.0727,0.1602-0.228,0.1119-0.3515c0.0039-0.0634-0.014-0.1148-0.0538-0.1543c-0.0418-0.0026-0.1253-0.0074-0.1671-0.0099
	c-0.0299,0.0094-0.0598,0.0189-0.09,0.0286c-0.0037-0.1719-0.0952-0.1713-0.2267-0.1785c-0.0056-0.03-0.0097-0.0597-0.0131-0.0896
	c-0.001-0.0179-0.0035-0.0533-0.0047-0.0712c0.0063-0.05-0.0107-0.0989-0.044-0.1357c-0.0122-0.0672-0.0243-0.1341-0.0364-0.2003
	c-0.0066-0.0401-0.014-0.0797-0.021-0.1192c0.0103-0.0373-0.0012-0.0805-0.0404-0.0945c-0.002-0.0109-0.0059-0.0328-0.0079-0.0435
	c0.0109-0.101-0.0334-0.1979-0.0511-0.2945c0.014-0.0454,0.0011-0.0941-0.037-0.123c-0.0012-0.0108-0.0035-0.0324-0.0047-0.0432
	c0.0133-0.0778,0.0318-0.1545,0.0563-0.2296c0.0262-0.0741,0.0603-0.1449,0.091-0.2168c0.045-0.109,0.087-0.2196,0.1185-0.3332
	c0.1046-0.1713,0.13-0.3759,0.1949-0.5629c0.0106-0.0239,0.0198-0.0481,0.0277-0.073c0.121-0.2545,0.0495-0.5964,0.3083-0.774
	c-0.0396-0.1163-0.1406-0.2168-0.1334-0.3614c-0.0076-0.0367-0.0169-0.0732-0.029-0.1087
	c-0.0193-0.0559-0.0446-0.1094-0.0691-0.1632c-0.0513-0.1238-0.1012-0.2484-0.1614-0.3679
	c-0.0447-0.0905-0.0885-0.1818-0.1349-0.2716c-0.0284-0.0552-0.0595-0.1092-0.0909-0.1626
	c-0.0713-0.1356-0.1506-0.2662-0.2292-0.3973c-0.0644-0.1209-0.1241-0.2448-0.1844-0.3677c0.043-0.1348,0.0701-0.2745,0.0644-0.4165
	c0.0181-0.0212,0.0265-0.0456,0.0251-0.0731l0.0042-0.0179c0.0252-0.0192,0.0353-0.058,0.002-0.0749l0.0045-0.0183
	c0.0321-0.1098,0.042-0.224,0.0584-0.3365c0.002-0.016,0.0056-0.0478,0.0075-0.0637c0.0086-0.1228,0.0125-0.2499-0.0339-0.3659
	c0.0244-0.0693-0.0016-0.1429-0.0094-0.2132c-0.019-0.118-0.0404-0.2357-0.0571-0.3538c0.0624-0.1549,0.1211-0.3148,0.2182-0.4521
	c0.028-0.0332,0.027-0.0778,0.0271-0.1184l0.0001-0.021c0.0001-0.0293-0.0019-0.0581-0.0056-0.0868
	c0.0089-0.0876,0.0082-0.1762,0.0059-0.2638c0.0107-0.0939,0.0251-0.1867,0.0322-0.2805c0.0077-0.0389-0.0039-0.0774-0.0156-0.1137
	c0.0168-0.0325,0.0177-0.0651,0.0027-0.0984c0.0003-0.0346-0.0012-0.0689-0.0045-0.103c0.0375-0.0243,0.0215-0.0694-0.0033-0.0955
	c0.0021-0.0166,0.0063-0.0497,0.0084-0.0662c0.0009-0.0405,0.003-0.1217,0.0039-0.1622c-0.0113-0.1427-0.0332-0.284-0.0522-0.4255
	c-0.0011-0.0116-0.0027-0.0354-0.0036-0.0473c-0.0056-0.0303-0.017-0.0908-0.0226-0.1211l0.0014-0.0243
	c0.0167-0.1327-0.0231-0.2631-0.0489-0.3915c-0.0025-0.0122-0.0071-0.0363-0.0093-0.0485c-0.011-0.1127-0.0063-0.2265-0.0251-0.3385
	c-0.0084-0.0369-0.0251-0.1109-0.0334-0.1482c-0.0231-0.106-0.0391-0.2137-0.0556-0.321c0.0104-0.037,0.0325-0.0759,0.0109-0.113
	c-0.0071-0.0368-0.0262-0.0828-0.0717-0.0792c-0.0584-0.0117-0.1375-0.0337-0.0869,0.0512c0.09,0.2661,0.0347,0.5482,0.0646,0.8212
	c0.009,0.0651,0.0183,0.1303,0.0276,0.1959c-0.016,0.0444-0.026,0.0952-0.0015,0.1395c0.0177,0.1103,0.0339,0.2208,0.0523,0.3315
	c0.0113,0.0697,0.0229,0.1396,0.035,0.2094c0.0002,0.0426,0.0102,0.0843,0.0207,0.1255c0.0047,0.0401,0.0098,0.0801,0.0146,0.1202
	c-0.0259,0.0332-0.0256,0.0781-0.0035,0.1133c0.0034,0.0314,0.0069,0.0631,0.0101,0.095c-0.0262,0.0311-0.0265,0.0759-0.0017,0.1084
	c0.0077,0.2024-0.0063,0.4049-0.0179,0.6073c-0.0277,0.0282-0.027,0.0721-0.0012,0.1015c-0.014,0.2142-0.0082,0.4343-0.078,0.6402
	c-0.1209,0.1835-0.1138-0.17-0.1604-0.2346c-0.0227-0.11-0.0451-0.2203-0.0651-0.3302c0.0119-0.0388-0.0043-0.0797-0.0394-0.0998
	c-0.0302-0.141-0.0577-0.2833-0.1122-0.4173c-0.0092-0.0402-0.0282-0.1204-0.0375-0.1606c0.037-0.0262,0.0299-0.0757,0.0008-0.1043
	c0.0132-0.0521,0.007-0.1077-0.0226-0.1527l0.0046-0.0238c0.033-0.0591,0.031-0.1217-0.0062-0.1878l0.0015-0.0236
	c-0.0001-0.0382-0.0001-0.1149-0.0002-0.1531c0.0012-0.0109,0.0037-0.033,0.0049-0.044c0.0179-0.0766-0.0283-0.1437-0.0689-0.2035
	c-0.0958-0.0481-0.0783,0.1669-0.0545,0.2176c0.0027,0.0315,0.0118,0.0612,0.0275,0.0891c-0.0084,0.182,0.0027,0.364,0.0201,0.5453
	c-0.0052,0.0794,0.0068,0.1568,0.0174,0.2357c-0.0126,0.1483,0.0048,0.2964,0.0475,0.4389
	c0.0769,0.3119,0.1601,0.6223,0.2312,0.9357c-0.019,0.0339-0.0096,0.0785,0.0281,0.0948c0.0028,0.016,0.0088,0.0486,0.0116,0.0646
	c-0.0287,0.1017-0.0565,0.2038-0.0827,0.306c-0.0601,0.1412-0.1132,0.2853-0.1694,0.4279c-0.0505,0.1044-0.1012,0.209-0.1523,0.3131
	c-0.0545,0.061-0.111,0.1205-0.1645,0.1832c-0.0169-0.0806-0.0148-0.165-0.0203-0.246c0.0038-0.1017-0.0026-0.203-0.0086-0.3039
	c-0.0003-0.0117-0.0008-0.0347-0.0011-0.0464c0.0279-0.0306,0.027-0.0754,0.0039-0.1079c-0.001-0.031-0.0018-0.062-0.0027-0.0928
	c0.0002-0.0167,0.0006-0.0506,0.0008-0.0674c0.009-0.0307,0.0096-0.0615,0.0021-0.0924c0.0039-0.058,0.0089-0.1158,0.0131-0.1736
	c0.0044-0.0287,0.0022-0.0572-0.0058-0.085c-0.0002-0.0159-0.0005-0.0478-0.0004-0.0638c0.0076-0.1221,0.0238-0.2436,0.038-0.3649
	c0.0187-0.143,0.0265-0.2872,0.0249-0.431c0.004-0.12,0.0131-0.2395,0.0133-0.3592c-0.0008-0.0169-0.0022-0.0504-0.003-0.0673
	c-0.004-0.0769-0.0066-0.1521-0.0118-0.2283c0.004-0.0837,0.0053-0.1681,0.0036-0.2516c-0.0004-0.0373-0.0011-0.0747,0.0003-0.1121
	c0.0154-0.1307-0.0176-0.2611-0.0361-0.3896c-0.0192-0.1213-0.0392-0.2428-0.0596-0.3636l-0.004-0.0235
	c-0.0216-0.1447-0.0346-0.2906-0.0628-0.4343c0.0346-0.0827-0.0183-0.1733-0.0197-0.2566c-0.0102-0.068-0.0212-0.1356-0.0327-0.2029
	c-0.0108-0.0701-0.0224-0.1397-0.0341-0.209c-0.0116-0.0684-0.0238-0.1366-0.0366-0.2045
	c-0.0027-0.0334-0.0068-0.0665-0.0128-0.0993c-0.0038-0.0322-0.0073-0.0643-0.0111-0.0964
	c0.0202-0.0433,0.0286-0.0954-0.0005-0.1371c-0.0161-0.1085-0.0325-0.2172-0.0489-0.3253c0.0032-0.0293,0.0054-0.0588,0.0059-0.0881
	c0.0079-0.2992-0.0238-0.6112,0.1033-0.8915c0.2177-0.4044,0.3285-0.8712,0.3624-1.3269c0.0383-0.021,0.0586-0.0666,0.0382-0.1073
	c0.1808,0.0287,0.2236-0.1108,0.1904-0.2496c-0.0063-0.0427-0.0182-0.128-0.0245-0.1707c-0.0186-0.1571-0.0483-0.3131-0.0962-0.4639
	l-0.0048-0.0223c0.0185-0.0236,0.0243-0.0499,0.0171-0.0788c0.0488,0.0022,0.0912-0.0278,0.1127-0.0705
	c0.0547-0.0034,0.0986-0.0384,0.1207-0.0872c0.0428-0.0586,0.0891-0.1149,0.1278-0.1765c0.0388-0.0595,0.031-0.1319,0.0243-0.1989
	l0.0214-0.0125l-0.0163-0.1029l-0.0239-0.002c-0.0092-0.0137-0.0281-0.0416-0.0373-0.0553
	c-0.0732-0.0277-0.1439-0.0673-0.2218-0.0785c-0.1022,0.024-0.1373,0.1248-0.1466,0.2182
	c-0.0099,0.0018-0.0298,0.0052-0.0397,0.0071c-0.0374-0.0294-0.0759-0.0576-0.114-0.0864c0.1096-0.1217,0.2447-0.2204,0.2363-0.4107
	c0.0271-0.0273,0.0289-0.07,0.0042-0.0993c0.0001-0.0108,0.0001-0.0327,0.0002-0.0435c0.0015-0.0368,0.0043-0.0737,0.0068-0.1105
	c0.0133-0.1058,0.0107-0.213,0.0028-0.3191c-0.0035-0.0319-0.0101-0.0952-0.0135-0.1269c-0.0304-0.1638-0.2166-0.1903-0.3438-0.1112
	c-0.0079,0.0064-0.0234,0.0189-0.0313,0.0251c-0.0674,0.0677-0.0894,0.1681-0.1075,0.2589
	c-0.015,0.1796-0.0404,0.3611-0.0213,0.5414c0.004,0.0384,0.0098,0.0767,0.0176,0.1147c0.0083,0.0277,0.0186,0.0549,0.0306,0.0813
	c0.0047,0.0095,0.0142,0.0284,0.0188,0.0379l-0.0197,0.0091c-0.2199-0.0495-0.472,0.3012-0.2743,0.4613
	c0.0234,0.0657,0.0576,0.1475-0.0347,0.1398c0.0135-0.0372-0.0165-0.0691-0.0521-0.0729c-0.013-0.0076-0.0389-0.0226-0.0519-0.0303
	c-0.0635-0.047-0.182-0.0282-0.1888-0.129c0.0099-0.0104,0.0291-0.0313,0.039-0.0418c0.02-0.0155,0.0373-0.0334,0.0519-0.054
	c0.015-0.0207,0.03-0.042,0.0442-0.0633c0.0394-0.0342,0.0658-0.0821,0.0589-0.1358c0.0225-0.1324,0.016-0.2674,0.0195-0.4013
	c0.0018-0.0102,0.0058-0.0308,0.0079-0.0411c0.0183-0.1123-0.2249-0.213-0.283-0.1384c-0.0304,0.0375-0.0581,0.0775-0.0795,0.1207
	c-0.0701,0.1263-0.1018,0.2732-0.0917,0.4174c-0.002,0.1674,0.0658,0.3116,0.1478,0.4504l-0.0006,0.021
	c-0.0107,0.0017-0.0323,0.0046-0.043,0.0061c-0.2086,0.0053-0.0623,0.2381-0.0814,0.3558c-0.0552-0.0109-0.1386-0.0304-0.155,0.046
	c-0.0069,0.087,0.0114,0.1731,0.0214,0.2592c-0.0119,0.0388,0.003,0.0799,0.0361,0.1034c0.0112,0.0346,0.0222,0.0692,0.0354,0.1033
	c0.0377,0.0681,0.1031,0.1122,0.1598,0.1629c0.0088,0.0111,0.0262,0.0335,0.0351,0.0447c0.061,0.1006,0.1132,0.2067,0.1828,0.3014
	c0.0967,0.1292,0.2062,0.2553,0.2529,0.4129c0.0031,0.0361,0.0063,0.0725,0.0089,0.1091c-0.0168,0.1665-0.0341,0.3337-0.0715,0.4972
	c-0.0096,0.0004-0.029,0.002-0.0386,0.0027c-0.0703-0.0606-0.1259-0.1356-0.1724-0.2154c-0.1408-0.3107-0.2789-0.6242-0.3692-0.9542
	c0.0134-0.0375,0.0003-0.0794-0.0344-0.1001c-0.1197-0.3808-0.2252-0.7654-0.3009-1.1579c0.0116-0.0503,0.0062-0.1044-0.0239-0.1475
	c0.0013-0.0549,0.0031-0.1096,0.0049-0.1644c0.0349-0.0107,0.0705-0.0211,0.1044-0.0354c0.0243-0.0135,0.0479-0.028,0.0705-0.0439
	c0.0553-0.0294,0.0399-0.1016,0.0371-0.1527c-0.0012-0.0291-0.0027-0.0582-0.0049-0.0874c-0.0024-0.0695-0.004-0.1389-0.0068-0.2084
	c0.0071-0.0988,0.0051-0.1979-0.0038-0.2965c-0.001-0.0496-0.0113-0.098-0.0271-0.1447c0.0247-0.011,0.0495-0.0217,0.0746-0.032
	c0.0625-0.0133,0.0964-0.0658,0.119-0.1209c0.0606-0.0771,0.0525-0.1761-0.0256-0.2379c0.0058-0.0145,0.0177-0.0434,0.0236-0.0577
	c0.0979-0.0202,0.1749-0.0855,0.2308-0.1659c0.0662-0.0301,0.1344-0.0637,0.171-0.13c0.0754-0.0245,0.0555-0.1057,0.0516-0.1671
	l-0.006-0.0215c-0.0272-0.0876-0.0579-0.1741-0.0917-0.2596c-0.0231-0.0257-0.0587-0.0302-0.0907-0.0354
	c-0.0733-0.008-0.1465,0.0094-0.2141,0.0366c-0.1427,0.0414-0.2115,0.1869-0.2279,0.3248c-0.0269,0.0354-0.057,0.0682-0.0866,0.1009
	c-0.037-0.009-0.0703,0.019-0.0723,0.0562c-0.006,0.0083-0.0178,0.0248-0.0238,0.0331c-0.0741,0.0114-0.0785-0.0609-0.0866-0.1156
	c-0.0173-0.1918,0.0069-0.398-0.1245-0.5565c-0.002-0.0392-0.0423-0.0622-0.0768-0.0418c-0.0086-0.0063-0.0262-0.0184-0.0348-0.0246
	c-0.0052-0.0395-0.0454-0.0549-0.08-0.0423c-0.0167-0.0028-0.0501-0.0088-0.0668-0.0119L13.0737,5.35L12.971,5.3663l-0.0224,0.0035
	c-0.0095,0.0065-0.0284,0.0192-0.0376,0.0256c-0.0804,0.0392-0.1152,0.1209-0.1322,0.2037
	c-0.2279,0.1906-0.1212,0.5485,0.0837,0.7083c0.0023,0.0164,0.007,0.0489,0.0093,0.0653c-0.0294,0.0028-0.0583,0.0085-0.0868,0.0172
	c-0.0053-0.0418-0.0317-0.0825-0.0781-0.0832c-0.019-0.0737-0.0364-0.1487-0.0752-0.2151C12.6299,6.04,12.5638,6.0046,12.5412,6.065
	c-0.0292-0.0305-0.0667-0.0408-0.1078-0.0324c-0.0331-0.0437-0.0662-0.0874-0.1028-0.1283
	c-0.0553-0.0334-0.1585,0.0193-0.1774,0.0849c-0.0494,0.4251,0.1301,0.897,0.6076,0.9269c0.0356,0.0049,0.0716,0.0057,0.1075,0.0057
	c0.0437,0.0049,0.0843-0.0147,0.1228-0.0325c0.0721-0.0012,0.0952,0.0831,0.132,0.131c-0.0066,0.0131-0.0197,0.0392-0.0263,0.0523
	c-0.0242-0.0451-0.0831-0.0554-0.1035-0.0004c-0.0291-0.0187-0.0589-0.0378-0.0927-0.0463
	c-0.0136,0.0079-0.0405,0.0237-0.0541,0.0316c-0.0178,0.0793,0.0115,0.1584,0.0313,0.2341
	c0.0178,0.0564,0.0555,0.1027,0.0876,0.1513c0.0129,0.0335,0.0256,0.0674,0.04,0.1005c0.0457,0.1135,0.1116,0.2203,0.2027,0.303
	c0.0358,0.0459,0.0943,0.0479,0.1471,0.0529c0.015,0.0335,0.0331,0.0652,0.0529,0.0958c-0.0159,0.0355-0.0102,0.0828,0.0311,0.0977
	c0.041,0.2568,0.1108,0.5076,0.177,0.7586c-0.0124,0.046,0.0025,0.0936,0.0381,0.1252c0.0311,0.1367,0.0738,0.2708,0.1264,0.4009
	c0.0102,0.0377,0.0303,0.1133,0.0404,0.1512l0.0104,0.0206c-0.0133,0.0456,0.0005,0.0942,0.0368,0.1254
	c0.0144,0.0349,0.0291,0.0698,0.0438,0.1046c-0.0085,0.0385,0.0106,0.0782,0.0477,0.093l0.0048,0.022
	c-0.0132,0.0372-0.0015,0.0796,0.0325,0.1009c0.0354,0.1109,0.077,0.2195,0.1249,0.3258c0.0758,0.1577,0.1777,0.3018,0.2467,0.4631
	c0.0116,0.0667,0.0227,0.1338,0.0332,0.201c0.0052,0.0432,0.016,0.1294,0.0213,0.1725c-0.0366,0.0382-0.0259,0.0926,0.0013,0.1325
	c-0.0026,0.0332-0.0003,0.066,0.007,0.0986c-0.0011,0.0557-0.0025,0.1111-0.0016,0.1668c-0.1521-0.2019-0.2288-0.4507-0.385-0.6501
	c-0.0277-0.0312-0.056-0.0615-0.0837-0.0922c-0.0082-0.037-0.0243-0.1106-0.0325-0.1473c0.009-0.0124,0.0274-0.037,0.0367-0.0492
	c0.0236-0.0509,0.0063-0.1073-0.0176-0.1543c-0.066-0.154-0.1284,0.0423-0.0825,0.1303c-0.2848-0.0924-0.468-0.4788-0.6577-0.7393
	c0.1303,0.016,0.1754-0.1108,0.1377-0.2182c-0.0229-0.1545-0.1136-0.2841-0.1576-0.4313c-0.008-0.0969-0.0612-0.178-0.126-0.2471
	c-0.0385-0.0866-0.0975-0.1712-0.2022-0.1745c0.0214-0.1126,0.0214-0.2283,0.0087-0.3423c-0.0512-0.1877-0.0106-0.5374-0.27-0.5607
	c-0.0143-0.0061-0.043-0.0186-0.0574-0.025c-0.0153-0.0039-0.0463-0.0115-0.0619-0.0155c-0.0028-0.1305-0.0591-0.253-0.2043-0.2671
	l-0.0197-0.0069c-0.0265-0.0402-0.0921-0.0281-0.0843,0.026c-0.015,0.0063-0.0454,0.0192-0.0604,0.0255
	c-0.0549,0.0152-0.0949,0.0538-0.1246,0.1009c-0.0094,0.0035-0.0284,0.011-0.038,0.0147C11.9272,7.7158,11.9063,7.7,11.885,7.6847
	c-0.0262-0.0168-0.0546-0.0293-0.0837-0.0407c-0.0572-0.044-0.0969,0.0245-0.1255,0.067c-0.0059,0.0088-0.018,0.0267-0.0239,0.0354
	c-0.04,0.0037-0.0529,0.0246-0.0388,0.0624c0.0121,0.2947,0.0404,0.6405,0.2197,0.8883L11.842,8.717
	c-0.0151,0.0335-0.0019,0.0726,0.0324,0.0873c0.0557,0.2012,0.2259,0.398,0.4401,0.4335c0.0296,0.0361,0.1046,0.0703,0.0727,0.1246
	c-0.0682-0.0583-0.1638-0.034-0.1314,0.0684c0.0658,0.1886,0.2273,0.3261,0.3594,0.4691c0.0909,0.0701,0.1859,0.1572,0.3052,0.1653
	c0.0233-0.0136,0.0464-0.0275,0.0691-0.0418c0.0248-0.0121,0.0466-0.0278,0.0661-0.0471c0.0303,0.0229,0.0614,0.0456,0.0915,0.069
	c0.0596,0.0966,0.132,0.1839,0.1988,0.2753c0.0071,0.0114,0.0212,0.0346,0.0283,0.0463c0.1223,0.1471,0.2617,0.2819,0.4108,0.402
	c0.0093,0.0323,0.0241,0.0629,0.0432,0.091c-0.0286,0.4362-0.0419,0.8727-0.0145,1.3097c0.0064,0.067,0.0164,0.133,0.0224,0.2007
	c-0.0042,0.0148-0.0123,0.0446-0.0163,0.0593c-0.2564-0.034,0.1305,0.2569,0.0323,0.384c0.0153,0.0798,0.037,0.1575,0.0559,0.237
	c0.0556,0.4535,0.3181,0.8428,0.6283,1.1637c0.0184,0.0222,0.0372,0.0444,0.0565,0.0662c0.0158,0.0221,0.0375,0.0336,0.0651,0.0342
	c0.0272,0.0465,0.0623,0.0875,0.1012,0.1246c0.0028,0.3223,0.0153,0.6455,0.0542,0.9655c-0.0158,0.1282-0.0535,0.2307-0.1017,0.0541
	c-0.0389-0.0572-0.1215,0.0145-0.1149,0.0732c0.1144,0.2112,0.1905,0.4654,0.1103,0.7012c-0.0606-0.0373-0.1224-0.0725-0.1832-0.109
	c-0.0191-0.0179-0.0383-0.0353-0.0578-0.0526c-0.0817-0.081-0.1696-0.1553-0.2657-0.2184c-0.0193-0.016-0.0392-0.0312-0.0598-0.0452
	c-0.0464-0.0398-0.096-0.0754-0.1481-0.107c-0.0657-0.094-0.1504-0.1722-0.2316-0.2523c-0.0625-0.1188-0.0369-0.2793-0.1783-0.344
	c-0.0144-0.071-0.0252-0.1439-0.0374-0.2145c0.0107-0.0498-0.0047-0.1008-0.0411-0.1359c-0.0085-0.0401-0.0164-0.0799-0.0243-0.1197
	c-0.0018-0.0118-0.005-0.0351-0.0066-0.0469c-0.0287-0.276-0.0571-0.5554-0.1339-0.8228c-0.0629-0.2139-0.1458-0.4212-0.2161-0.6323
	c-0.0706-0.1749-0.1473-0.3491-0.1815-0.5353c-0.0046-0.0476-0.0113-0.0915-0.0147-0.1083
	c-0.0152-0.1091-0.031-0.2184-0.0466-0.3272c0.0172-0.0385-0.0057-0.0776-0.0368-0.1002l-0.0062-0.021
	c-0.0265-0.1817-0.2516-0.0484-0.1051,0.102c0.0078,0.0378,0.0171,0.0753,0.0265,0.1128c0.0082,0.032,0.0164,0.0639,0.0246,0.0958
	c0.0176,0.0897,0.0307,0.1792,0.0435,0.2701c0.0032,0.033,0.0066,0.0662,0.0106,0.0994c0.0155,0.118,0.0397,0.2343,0.0594,0.3519
	c-0.0116,0.0479,0.0044,0.0972,0.0414,0.1296c0.0331,0.2223,0.1175,0.4306,0.1884,0.6422c0.0131,0.0849,0.0233,0.1688,0.0347,0.2545
	c-0.0118,0.0414,0.0117,0.0803,0.0409,0.1079l0.0038,0.024c-0.048,0.0424-0.0392,0.0929,0.0268,0.151
	c0.0361,0.0789-0.0518,0.2577,0.0329,0.239c0.0166,0.0833,0.0406,0.1638,0.065,0.2452c0.0368,0.1269,0.0964,0.2497,0.1922,0.3426
	c-0.0166,0.0322-0.0044,0.0711,0.03,0.0853c0.0087,0.0136,0.026,0.0401,0.0347,0.0537c0.0435,0.0664,0.0892,0.1317,0.1425,0.1908
	c0.1724,0.2141,0.3909,0.3836,0.6057,0.5528c0.1062,0.0952,0.2192,0.1826,0.3419,0.2558c0.017,0.0727,0.0049,0.1482,0.0166,0.222
	c-0.0265,0.0257-0.0255,0.0674,0.0028,0.092c-0.0182,0.2521-0.0464,0.5055-0.0166,0.7579
	c-0.0021,0.1386-0.1553-0.0798-0.2101,0.0532c0.0095,0.0548,0.1402,0.0935,0.1919,0.1492c0.0176,0.0451,0.0347,0.0905,0.0507,0.1365
	c-0.0006,0.0362-0.0013,0.1089-0.0019,0.1451l-0.016,0.0143c-0.041-0.0226-0.0831-0.0423-0.1272-0.0576
	c-0.115-0.1342-0.2331-0.0336-0.0467,0.0359c0.067,0.0365,0.1355,0.0702,0.2055,0.1007c0.0025,0.0421,0.0073,0.1259,0.01,0.1676
	c-0.0035,0.084,0.0108,0.1658,0.0235,0.2494c0.0004,0.0418,0.0133,0.0822,0.0269,0.1217c-0.0026,0.0331-0.0005,0.0663,0.0066,0.0992
	c0.0007,0.0124,0.0017,0.0372,0.0023,0.0494c-0.0079,0.074,0.0082,0.1456,0.0172,0.2197c0.0226,0.1975,0.061,0.393,0.1132,0.5853
	c0.0149,0.073,0.0291,0.1446,0.0438,0.2187c0.0112,0.039,0.0333,0.1178,0.0445,0.1568c0.0154,0.0926,0.0304,0.1837,0.0454,0.2769
	c0.0028,0.0341,0.0104,0.0675,0.0231,0.0998c-0.0145,0.0473-0.0056,0.1019,0.0401,0.1293c0.0092,0.0417,0.0277,0.1254,0.0372,0.1671
	c-0.008,0.0078-0.0239,0.0232-0.0315,0.0309c-0.0684-0.1839-0.1581-0.3582-0.2399-0.5361c-0.0375-0.1059-0.1009-0.2008-0.1319-0.309
	c-0.0047-0.0299-0.0147-0.0579-0.03-0.0838c-0.0242-0.0752-0.0498-0.1473-0.0703-0.2226c-0.015-0.0581-0.0292-0.1164-0.0456-0.1737
	c-0.0146-0.0509-0.0307-0.1015-0.0478-0.1514c-0.0617-0.1882-0.1501-0.3671-0.1996-0.559c0.1247-0.0904,0.0638-0.143-0.0699-0.1392
	c-0.0039-0.0101-0.012-0.0298-0.016-0.0399c0.0117-0.0369-0.0004-0.079-0.0359-0.0977c-0.0044-0.0174-0.0128-0.0524-0.0171-0.0698
	c-0.019-0.0735-0.0381-0.1448-0.0601-0.2165l-0.007-0.0243c-0.0027-0.0339-0.0063-0.0676-0.01-0.101
	c-0.0035-0.0322-0.0081-0.0644-0.0136-0.096c-0.0039-0.0514-0.0148-0.1018-0.0294-0.1511c0.0136-0.0359,0.0075-0.0865-0.0378-0.0945
	c-0.0049-0.1233-0.0238-0.246-0.0565-0.3649c0.0508-0.0379,0.0445-0.0893-0.0191-0.1536l-0.0074-0.0234
	c-0.0022-0.0339-0.0087-0.0667-0.0198-0.0987c0.0121-0.0396,0.0013-0.0863-0.0402-0.1033
	c-0.0036-0.0178-0.0114-0.0537-0.0152-0.0716c-0.0473-0.1729-0.1173-0.3404-0.2046-0.497l-0.007-0.0209
	c-0.0145-0.0584-0.0253-0.1188-0.0528-0.1729c-0.0191-0.0362-0.0422-0.07-0.0606-0.1066c-0.024-0.0674-0.0494-0.1349-0.0899-0.1942
	c-0.0585-0.1314-0.1242-0.2587-0.1981-0.3815c0.0076-0.3434-0.337-0.1691-0.0984,0.0169c0.0238,0.0492,0.0454,0.0996,0.0657,0.1506
	c0.0064,0.0155,0.0194,0.0464,0.0258,0.0616c0.0993,0.3265,0.2206,0.646,0.3526,0.9605c0.0047,0.0162,0.0142,0.0485,0.0189,0.0646
	c-0.0111,0.047,0.0039,0.0955,0.0411,0.127c0.0146,0.0823,0.0298,0.1631,0.0442,0.2459c-0.0134,0.0443-0.0014,0.0919,0.0342,0.1221
	c0.0062,0.0903,0.0312,0.177,0.0577,0.2637c-0.015,0.0508-0.0031,0.1044,0.0249,0.1489c-0.0184,0.0377-0.0095,0.0869,0.0333,0.1029
	c0.0068,0.0413,0.0134,0.083,0.0198,0.1249c0.0018,0.034,0.0088,0.0674,0.0213,0.0995c-0.0167,0.0369-0.0076,0.086,0.0356,0.0996
	c0.0174,0.0603,0.0349,0.1209,0.0526,0.1817c-0.011,0.0382,0.0057,0.0776,0.0394,0.0985c0.0039,0.0167,0.0112,0.0495,0.0152,0.066
	c0.0185,0.0625,0.0438,0.1229,0.0732,0.1813c0.0047,0.0087,0.0138,0.0261,0.0183,0.0348c-0.1107,0.091,0.0853,0.0922,0.1068,0.1781
	c0.1971,0.4709,0.2863,0.9798,0.5013,1.4445c0.0982,0.2842,0.3305,0.5493,0.3699,0.8363l-0.0198-0.0032
	c-0.0663-0.0599-0.1267-0.1621-0.2294-0.1472c0.0051,0.0964,0.119,0.1118,0.1897,0.1444c0.0484,0.1138,0.2082,0.1379,0.1981,0.2875
	c-0.0145,0.0373-0.0015,0.08,0.0334,0.1013c0.0033,0.018,0.0106,0.0535,0.0142,0.0713c0.0018,0.043,0.0119,0.085,0.0265,0.1259
	c-0.0118,0.0464-0.0098,0.105,0.0408,0.1281c0.0082,0.0435,0.0243,0.1302,0.0322,0.1737c0.0112,0.0674,0.0217,0.1353,0.0317,0.2036
	c-0.0175,0.0402,0.0062,0.0807,0.0381,0.105l0.0101,0.0212c-0.021,0.0636-0.0073,0.1242,0.0409,0.1823
	c0.0109,0.0389,0.0215,0.078,0.0325,0.1174c-0.0202,0.0647-0.0057,0.1263,0.0434,0.1847c0.0183,0.0908,0.0341,0.1807,0.0505,0.2726
	c0.0028,0.0423,0.007,0.085,0.0195,0.1262c0.0104,0.0672,0.02,0.1348,0.0293,0.2033c0.0112,0.0409,0.0339,0.1226,0.0452,0.1633
	c0.0135,0.0468,0.0274,0.0933,0.0446,0.1393c0.014,0.0551,0.0015,0.1351-0.0632,0.0723c-0.0117-0.0078-0.0356-0.0234-0.0476-0.031
	c-0.0698-0.1369-0.2082,0.0139-0.1278,0.1121c-0.0007,0.0286,0.0485,0.0727,0.0104,0.0902c-0.1123-0.0754-0.3016-0.025-0.1568,0.111
	c0.1221,0.1639,0.3554,0.1547,0.4988,0.286c-0.0021,0.0873-0.0672,0.2104,0.037,0.2614c0.0423,0.0234,0.0531,0.0698,0.0651,0.1137
	c-0.0362,0.1331-0.0488,0.2961-0.1102,0.3809c-0.0023,0.0176-0.007,0.0522-0.009,0.0696c-0.0106,0.1143-0.0191,0.2304-0.0191,0.346
	c-0.0013,0.0693-0.0011,0.143-0.0005,0.2141c-0.0253,0.0835-0.0608,0.1671-0.0763,0.2539
	c-0.0028,0.0871-0.0008,0.1779,0.0011,0.2663c-0.0202,0.0321-0.0326,0.0696-0.0293,0.1084
	c-0.0325-0.0114-0.0587-0.0042-0.0783,0.022c-0.01,0.0164-0.0176,0.0348-0.0287,0.0517c-0.0008-0.0401-0.0113-0.0802-0.045-0.1039
	c-0.0818-0.1826-0.1477-0.3855-0.2903-0.5305c-0.0163-0.0914-0.0436-0.1827-0.1136-0.2481
	c-0.0135-0.0322-0.0269-0.0641-0.0411-0.0953c-0.0618-0.1504-0.1308-0.3005-0.2281-0.4317
	c-0.0274-0.0802-0.0677-0.1547-0.1146-0.2248c-0.005-0.0133-0.015-0.0403-0.0203-0.0539c-0.0063-0.0377-0.0457-0.0506-0.0781-0.0549
	c-0.0122-0.069-0.0442-0.132-0.0984-0.1771c-0.0282-0.0521-0.0546-0.1049-0.08-0.158c-0.0087-0.0316-0.0348-0.0511-0.0625-0.0639
	c-0.0213-0.06-0.0609-0.11-0.1042-0.1552c-0.1444-0.2949-0.2913-0.5961-0.4783-0.8664c-0.0111-0.043-0.0233-0.0856-0.0387-0.1269
	c-0.1882-0.4574-0.4118-0.9006-0.636-1.3413c-0.0063-0.0414-0.02-0.0814-0.0435-0.1159c-0.0559-0.1037-0.1116-0.2072-0.1675-0.3104
	c-0.0045-0.0085-0.013-0.0257-0.0172-0.0344c-0.0426-0.0873-0.0884-0.1729-0.1321-0.2592c-0.0042-0.0148-0.012-0.0442-0.0162-0.0589
	c-0.0063-0.0349-0.034-0.0593-0.0553-0.0852c-0.0182-0.0421-0.0354-0.0844-0.0528-0.1264
	c-0.0129-0.0464-0.0476-0.0804-0.0845-0.1084c-0.0393-0.0828-0.0754-0.1672-0.1134-0.2499l-0.0075-0.0205
	c-0.0438-0.1381-0.1024-0.271-0.1743-0.3965c-0.0423-0.1098-0.0936-0.2158-0.1448-0.3211
	c-0.0251-0.0861-0.0614-0.1677-0.1025-0.2471c-0.0222-0.0674-0.0423-0.137-0.0642-0.2039c-0.0077-0.014-0.0234-0.0419-0.0311-0.0559
	c-0.0082-0.0136-0.0242-0.0406-0.0322-0.0543c0.0202-0.1623,0.1008-0.3078,0.1444-0.4634c0.0463-0.1801,0.0357-0.3699,0.0195-0.5532
	c0.0292-0.0604,0.0249-0.1223-0.0131-0.1856c-0.0103-0.1377-0.0214-0.2752-0.037-0.4122c0.0007-0.0169,0.0024-0.0509,0.0031-0.068
	c0.0032-0.0099,0.0099-0.0301,0.013-0.0403c0.0771-0.0109,0.1039-0.0782,0.0977-0.1485c0.0008-0.0111,0.0024-0.0328,0.003-0.0439
	c0.0235-0.0336,0.0255-0.0787-0.0001-0.1115c-0.0173-0.1391-0.0329-0.2788-0.0512-0.4173c-0.0186-0.073-0.0405-0.1436-0.0691-0.2129
	c-0.0193-0.0461-0.0466-0.0879-0.0744-0.1293l-0.0112-0.0179c-0.0061-0.0454-0.0408-0.0758-0.0818-0.0912
	c-0.0229-0.0223-0.0429-0.0199-0.0599,0.0068c-0.0387,0.0368-0.0733,0.0778-0.1061,0.12c-0.0061,0.0075-0.018,0.022-0.0241,0.0295
	l-0.0147,0.013c-0.0081,0.0118-0.0243,0.0353-0.0326,0.0473c-0.0306,0.1175-0.022,0.2407-0.0182,0.361
	c-0.0208,0.1344,0.0213,0.2666,0.0412,0.3987c-0.0184,0.0359-0.0044,0.0816,0.0357,0.0949
	c-0.0044,0.0332,0.0071,0.0583,0.034,0.0758c0.0543,0.0454,0.1207,0.0728,0.1916,0.0741c0.0399,0.1874,0.0437,0.38,0.0732,0.5691
	c-0.034,0.0269-0.0287,0.0747-0.0042,0.1062c0.0153,0.1659,0.0033,0.3332-0.0299,0.4967c-0.0333,0.1024-0.0692,0.2046-0.1099,0.3046
	c-0.0077-0.0056-0.0233-0.0162-0.031-0.0215c-0.0281-0.0655-0.0521-0.1339-0.0771-0.1998
	c-0.0172-0.0588-0.0403-0.1154-0.0634-0.1717c-0.0063-0.0283-0.0131-0.0565-0.0205-0.0847
	c-0.0077-0.0289-0.0179-0.0569-0.0306-0.0839c0.0115-0.0351,0.0075-0.0847-0.0373-0.0922c-0.0221-0.1046-0.0479-0.2081-0.078-0.3105
	c-0.0147-0.0519-0.0339-0.102-0.0543-0.1516c0.0191-0.0528,0.0296-0.1207-0.0243-0.1569c-0.0073-0.0281-0.0147-0.056-0.0219-0.0837
	c-0.0226-0.1116-0.0454-0.2237-0.0687-0.3347c-0.0202-0.1159-0.0353-0.2326-0.0539-0.3483c-0.0111-0.1166-0.03-0.2326-0.0462-0.3479
	c0.0258-0.0402,0.0271-0.0917-0.0014-0.1309l-0.0068-0.0233c-0.0172-0.1319-0.0447-0.2623-0.0662-0.3932l-0.0023-0.0232
	c0.0159-0.0051,0.0483-0.0155,0.0643-0.0207c0.1175-0.0319,0.2718-0.0509,0.3054-0.1912c0.0279-0.0534,0.0045-0.1018-0.0522-0.118
	c-0.0524-0.0715-0.0529-0.1985-0.1549-0.2194c-0.0292-0.009-0.0607-0.013-0.0856,0.0085c-0.0231,0.0126-0.0459,0.0259-0.0682,0.0402
	l-0.0042-0.0198c0.0348-0.3356,0.0803-0.6714,0.0702-1.0099c0.0153-0.0388,0.0099-0.083-0.0141-0.1169
	c0.0059-0.1342-0.0536-0.3117,0.092-0.3894c0.0073-0.0135,0.0214-0.0401,0.0287-0.0535c0.0353-0.0119,0.0523-0.0488,0.0394-0.0835
	c0.004-0.0404,0.0082-0.0809,0.0107-0.1211c0.0008-0.0101,0.002-0.0299,0.0025-0.04c0.0153-0.0885,0.0255-0.1784,0.0214-0.2683
	l0.0001-0.0228c0.0111-0.1418-0.03-0.2769-0.0713-0.4105c-0.0058-0.0467-0.0199-0.0976-0.0632-0.1235
	c-0.0459-0.065-0.1196-0.0143-0.1661,0.0224c-0.19,0.184-0.2535,0.4637-0.2323,0.7206c-0.0112,0.0039-0.0337,0.0116-0.0449,0.0155
	c0.0181-0.0374-0.0016-0.0777-0.0311-0.1021c-0.014-0.0253-0.0284-0.0505-0.0431-0.0751c-0.0083-0.0131-0.025-0.0387-0.0335-0.0515
	c-0.0284-0.0143-0.0581-0.0267-0.087-0.0404c-0.0324-0.1135-0.0574-0.2302-0.1086-0.337c-0.0065-0.0144-0.0199-0.0429-0.0266-0.0571
	c-0.0275-0.0792-0.0498-0.1589-0.0737-0.2389c-0.0076-0.0577-0.0186-0.1188-0.0682-0.1562
	c-0.0224-0.0242-0.0464-0.0466-0.0697-0.0699c-0.0243-0.0527-0.1228-0.1337-0.1413-0.0376
	c-0.0102,0.0263-0.0194,0.0526-0.0279,0.0796c-0.1271-0.0532,0.036,0.2071,0.0012,0.2522c0.003,0.0179,0.0093,0.0538,0.0124,0.0716
	c0.0001,0.04,0.0004,0.12,0.0007,0.1601c0.0032,0.0943,0.0148,0.1875,0.0201,0.2822c-0.0104,0.0006-0.0308,0.0022-0.0411,0.0028
	c-0.051-0.0605-0.1327-0.1481-0.2108-0.0711c-0.062,0.0994-0.0931,0.2208-0.0718,0.337c0.0104,0.0675,0.0216,0.1348,0.0339,0.2022
	c-0.0782-0.1117-0.1396-0.235-0.2288-0.3392c-0.0591-0.0791-0.1814-0.1899-0.2719-0.0915c-0.0016,0.0144-0.0049,0.043-0.0064,0.0571
	c-0.0047,0.0264-0.0097,0.0531-0.0146,0.0798c-0.0061,0.0277-0.0108,0.0556-0.0142,0.0839
	c-0.0045,0.0571,0.0046,0.1132,0.0274,0.1682c0.0118,0.0696,0.0427,0.1338,0.0825,0.1919c0.0222,0.0496,0.0485,0.0976,0.0763,0.1444
	c0.0118,0.0248,0.0233,0.05,0.0352,0.0751c-0.0008,0.0313,0.0117,0.0558,0.0377,0.0731c0.0267,0.0958,0.0668,0.2153,0.1888,0.2052
	c0.1912,0.2288,0.2062,0.5532,0.3583,0.8077l0.0084,0.0198c0.0524,0.1258,0.1307,0.2383,0.1964,0.3572
	c-0.0801,0.0384-0.1688,0.0537-0.2508,0.0879c-0.0467,0.0058-0.0623,0.0562-0.0569,0.097l-0.0045,0.0198
	c-0.0042,0.0098-0.0128,0.0298-0.017,0.0396c-0.0484-0.0015-0.0837,0.0208-0.0979,0.0682c-0.0412-0.0338-0.1255-0.0783-0.159-0.017
	c-0.0044,0.0154-0.0134,0.0461-0.0178,0.0612c-0.0145-0.0056-0.044-0.0164-0.0587-0.0219
	c-0.0361,0.0164-0.0839,0.0322-0.0855,0.0801c-0.0022,0.0083-0.0033,0.0167-0.004,0.0251c-0.0072,0.042-0.0128,0.0844-0.016,0.1273
	c-0.0812-0.038-0.1901-0.1325-0.2776-0.0749c-0.0578,0.012-0.1165,0.0181-0.1756,0.0217C9.193,15.875,9.159,15.8652,9.1273,15.9032
	c-0.0625,0.0497-0.1162,0.1111-0.1578,0.1792c-0.0143,0.0305-0.0259,0.0627-0.037,0.0949c-0.0509,0.0125-0.0398,0.0759,0.0069,0.085
	l0.0121,0.0164c0.031,0.0801,0.2951,0.1952,0.0941,0.2029c-0.0925-0.0121-0.1762,0.0344-0.2613,0.0639l0.0037,0.0233
	c0.0898,0.1554,0.2747,0.2882,0.4611,0.2369c0.0333-0.0013,0.0664-0.0021,0.0996-0.0029c0.2062,0.0344,0.3767-0.112,0.554-0.1928
	c0.0303,0.0013,0.0598-0.0024,0.0886-0.0109l0.0212-0.0039c0.1012,0.0426,0.1353,0.1539,0.1983,0.2343
	c0.0252,0.0317,0.0529,0.061,0.0799,0.0913c0.0517,0.1214,0.0957,0.2474,0.157,0.3649c-0.0517-0.0358-0.1039-0.071-0.1525-0.1104
	c-0.0199-0.033-0.0395-0.0658-0.0619-0.0965c-0.0513-0.0743-0.1098-0.143-0.169-0.2109c-0.0659-0.1233-0.3084-0.2897-0.1989-0.0143
	c0.07,0.108,0.1564,0.2041,0.2344,0.3064c0.0142,0.0232,0.035,0.0358,0.0628,0.0377c0.0239,0.0234,0.0485,0.0468,0.0731,0.0698
	c0.0075,0.013,0.0226,0.0384,0.0298,0.0511c0.1088,0.2192,0.3364,0.2399,0.4979,0.0989c0.0234,0.0052,0.0465,0.0107,0.0696,0.0162
	c0.1535,0.2432,0.221,0.5391,0.4075,0.7609c0.1164,0.2164,0.2762,0.4071,0.4807,0.5459c-0.0085,0.0438,0.0216,0.0867,0.0683,0.0858
	c0.102,0.2849,0.2063,0.5689,0.3326,0.844c0.2532,0.5786,0.5142,1.1558,0.8299,1.7037c0.3704,0.7966,0.7313,1.6042,1.1614,2.3725
	c0.5472,0.9912,1.174,1.9652,1.5871,3.011c-0.0028,0.0097-0.0057,0.0193-0.0087,0.0289c-0.0269-0.0123-0.0536-0.0248-0.0793-0.0392
	c-0.0414-0.0513-0.0796-0.1078-0.1356-0.1442c-0.5902-0.3774-1.1489-1.2121-1.9528-0.9803
	c-0.1318,0.0107-0.1919,0.1356-0.0804,0.2245c0.112,0.1501,0.3131,0.152,0.4717,0.2248c0.4481,0.1732,0.7858,0.5266,1.1296,0.8455
	c0.016,0.0349,0.0303,0.0719,0.0584,0.0996c0.1898,0.1404,0.2476,0.4011,0.4668,0.5078c0.0277,0.0136,0.057,0.0239,0.0857,0.0355
	c-0.0143,0.0773-0.032,0.1559,0.0063,0.2283c0.0179,0.0489,0.0354,0.0986,0.052,0.1484c-0.0003,0.0776-0.001,0.1596-0.001,0.2387
	c-0.0085,0.0656-0.0233,0.1357-0.0243,0.2045c0.0171,0.1314,0.1808,0.1828,0.1898,0.3214
	c-0.0075,0.0365-0.0171,0.0745-0.0085,0.1125c0.0072,0.06,0.0217,0.1192,0.045,0.1753c0.0054,0.0101,0.016,0.0305,0.0212,0.0409
	c0.0186,0.1841-0.0672,0.3431-0.1672,0.4895c-0.0825,0.151-0.0284,0.3342-0.0529,0.5037c-0.0071-0.0018-0.0085-0.0123-0.0162-0.0128
	c-0.0345-0.1619-0.0784-0.3217-0.1214-0.4808c-0.0128-0.049-0.03-0.0969-0.0496-0.143c-0.0025-0.006-0.0049-0.0112-0.007-0.0158
	c-0.0195-0.0455-0.0404-0.09-0.0635-0.1335c-0.0003-0.0363-0.0267-0.066-0.0632-0.067c-0.0185-0.0311-0.0565-0.0457-0.0886-0.0255
	c-0.0634-0.0065-0.1089,0.023-0.121,0.0874c-0.0259,0.0531-0.0269,0.1127-0.0175,0.1703c0.0014,0.0171,0.0044,0.0512,0.0061,0.0682
	c-0.0246,0.0246-0.0338,0.0677-0.0039,0.093c-0.0998-0.0088-0.1735-0.0856-0.2537-0.137c-0.037-0.0732-0.2461-0.1655-0.0994-0.2115
	c0.0819-0.0499,0.0351-0.1603-0.0237-0.2107c-0.0675-0.1487-0.0852-0.3344-0.2269-0.4363
	c-0.0368-0.0687-0.0885-0.1284-0.1602-0.1616c0.0047-0.046-0.0363-0.0806-0.0806-0.0686c-0.0484-0.0115-0.0964,0.0029-0.1403,0.023
	c-0.0026-0.0164-0.0078-0.049-0.0103-0.0651c0.0175-0.0219,0.0356-0.0428,0.0541-0.0631c0.0825-0.0806,0.2037-0.0909,0.3081-0.1255
	c0.0465,0.006,0.0866-0.0237,0.1013-0.0666c0.0536-0.025,0.0488-0.0936-0.0167-0.0905c-0.0275-0.0098-0.0558-0.015-0.085-0.0156
	c-0.2332,0.0202,0.1036-0.0984,0.0533-0.2271c0.0005-0.0561-0.0142-0.109-0.044-0.1585c-0.0072-0.0588-0.0764-0.0316-0.0845,0.0116
	c-0.1581,0.0747-0.2937,0.1887-0.4,0.3275c-0.043,0.048-0.0825,0.0989-0.1139,0.1552c-0.0049,0.0087-0.0148,0.0257-0.02,0.0343
	c-0.038-0.017-0.0972-0.045-0.1205,0.0089l-0.0118,0.0168c-0.037,0.0009-0.0632,0.0294-0.0746,0.0629
	c-0.0426,0.0104-0.0843,0-0.1221-0.0205c-0.027-0.0263-0.0529-0.0034-0.0771,0.014l-0.0156,0.0104
	c-0.114,0.0555,0.0921,0.2459-0.1696,0.174c-0.0109-0.0022-0.0325-0.0066-0.0433-0.0088c-0.0337-0.0196-0.0753-0.009-0.0966,0.0234
	c-0.0232,0.0139-0.0463,0.0283-0.069,0.0437c-0.007,0.0069-0.0211,0.0203-0.0282,0.027c-0.1099,0.1098-0.1964,0.3157-0.057,0.4386
	c0.0124,0.0075,0.0378,0.0221,0.0502,0.0293c0.1527,0.0698,0.2306,0.5368,0.4088,0.2353c0.0461-0.0115,0.086-0.0456,0.084-0.0963
	c0.0809-0.0398,0.1625-0.0781,0.2427-0.1191c0.0552,0.0858,0.1437,0.1404,0.2187,0.2076c0.0466,0.0397,0.0972,0.0747,0.1513,0.1036
	c0.0309,0.0281,0.0623,0.0561,0.0996,0.0756c0.0677,0.0372,0.1372,0.079,0.216,0.0843c0.2589,0.031,0.6444,0.2121,0.7193,0.4707
	c-0.0093,0.0353,0.0079,0.0697,0.0402,0.0866c0.0402,0.108,0.1008,0.2087,0.1827,0.291c0.1822,0.1455,0.3273,0.3539,0.5082,0.5043
	c0.0756,0.0982,0.1705,0.1802,0.274,0.2565C16.2384,30.9977,16.4673,31.0213,16.6396,30.9182z M19.9538,24.3156
	c0.0396-0.0251,0.0778-0.052,0.1159-0.0789c0.0302,0.021,0.0527,0.0494,0.0631,0.0854l-0.0171,0.0064
	c-0.0765,0.021-0.1394,0.0711-0.1908,0.1298C19.8977,24.4092,19.936,24.3604,19.9538,24.3156z M18.1738,26.4739
	c0.108-0.1802,0.196-0.3718,0.3186-0.543c0.098,0.0406-0.0148,0.2084-0.029,0.3018c-0.0579,0.0579-0.1115,0.1202-0.1619,0.1849
	c-0.0447,0.0481-0.0897,0.0962-0.1352,0.1443L18.15,26.5714C18.1585,26.5389,18.1663,26.5063,18.1738,26.4739z M16.7193,13.8255
	c-0.0042-0.0155-0.0127-0.0462-0.0168-0.0618c-0.0517-0.2888-0.0411-0.5854-0.1102-0.8714c0.0174-0.038,0.0093-0.0822-0.0199-0.1117
	c-0.0028-0.031-0.0054-0.062-0.0078-0.0931c0.0023-0.0106,0.0068-0.0313,0.0091-0.0419c0.0059-0.0085,0.0178-0.0256,0.024-0.0341
	c0.0241,0.0538,0.0494,0.1073,0.0771,0.1598c0.0488,0.0936,0.0972,0.1875,0.1482,0.2803c0.1688,0.2402,0.3553,0.4675,0.5495,0.6875
	c0.0003,0.1306,0,0.2619,0.0031,0.3928c-0.0088,0.0362-0.0173,0.0724-0.0246,0.1091c-0.0272-0.0365-0.0545-0.0724-0.0814-0.1086
	c-0.0478-0.1184-0.1086-0.0579-0.0269,0.0303c0.029,0.0644,0.0598,0.1285,0.0988,0.1877c0.0188,0.029,0.0403,0.0564,0.0605,0.0846
	c-0.0067,0.1851-0.0052,0.3707-0.0033,0.5564c-0.0047,0.1513-0.0166,0.3036-0.0067,0.4551
	c-0.0318,0.0235-0.0456,0.067-0.0191,0.1003l-0.0186,0.0067c-0.113-0.1541-0.158-0.3444-0.2353-0.5166L17.111,15.018
	c-0.0488-0.1585-0.0817-0.3224-0.1523-0.4737c-0.0205-0.075-0.0383-0.1508-0.052-0.2273c-0.0026-0.0152-0.0083-0.0455-0.0109-0.0607
	c-0.1311-0.2004,0.0114-0.4588,0.1295-0.6359c0.0789-0.1355-0.1556-0.1885-0.1533-0.0354c-0.0321,0.1154-0.0574,0.233-0.0949,0.3473
	C16.7586,13.8961,16.7387,13.8609,16.7193,13.8255z M17.2329,17.7135c-0.0013,0.0732,0.0049,0.1497,0.0072,0.2242
	c-0.0313,0.0354-0.038,0.0853-0.0155,0.1272l0.0005,0.021c-0.0321,0.1391-0.1073-0.0936-0.1578-0.1283
	c-0.0739-0.1086-0.1362-0.2247-0.2133-0.3313c-0.236-0.489-0.5236-1.0575-0.5947-1.5325c0.1513-0.6165,0.4122-1.2016,0.52-1.8297
	c0.0486,0.0662,0.0471,0.1557,0.0763,0.2312c0.0129,0.0463,0.0292,0.0921,0.0452,0.1378c0.0432,0.159,0.1106,0.3103,0.1538,0.4694
	c0.0031,0.0095,0.0095,0.0287,0.0126,0.0382c0.039,0.1053,0.0727,0.2128,0.1205,0.315c0.0147,0.03,0.0318,0.0589,0.0496,0.0874
	c0.0279,0.0442,0.0574,0.0872,0.0859,0.1311c0.0158,0.1983,0.0145,0.3969,0.0246,0.5955c-0.0078,0.0667-0.0127,0.1336-0.0137,0.2009
	c-0.0023,0.0373-0.0073,0.1117-0.0095,0.149c-0.0003,0.0121-0.0006,0.0359-0.0006,0.0481
	c-0.0015,0.0902,0.0006,0.1836-0.0136,0.2741c-0.0122,0.0458-0.0181,0.0931-0.0135,0.1407c0,0.1111-0.0016,0.2233-0.0023,0.3354
	c-0.0293,0.0274-0.0419,0.0695-0.0212,0.1063C17.2574,17.5862,17.2409,17.649,17.2329,17.7135z M20.9423,9.3134
	c-0.0021-0.0941-0.0026-0.187,0.0023-0.2806c0.0059-0.0393,0.0181-0.1179,0.0243-0.1572c0-0.0173,0-0.0523,0-0.0696
	c0.0318-0.0233,0.0421-0.0657,0.0238-0.1003c0.0028-0.0106,0.0083-0.0313,0.0109-0.0416c0.0126-0.0088,0.0377-0.0263,0.0504-0.0349
	c0.0403,0.0095-0.0109,0.0561-0.0088,0.0819c-0.0253,0.0819-0.0507,0.1694-0.0315,0.2554c-0.0447,0.1247,0.0486,0.2366,0.112,0.3362
	C21.0905,9.43,21.046,9.5544,21.0026,9.6791c-0.0225,0.0615-0.0435,0.1238-0.0701,0.184c-0.0068-0.0855-0.0111-0.1707-0.0057-0.2562
	c0.0086-0.0574,0.0145-0.1148,0.0181-0.1725C20.9452,9.3941,20.9444,9.3537,20.9423,9.3134z M20.7104,9.6157
	c0.0298-0.0295,0.0365-0.075,0.0173-0.112c0.0096-0.0683,0.0207-0.1363,0.0367-0.2033c0.0267,0.0104,0.0466,0.0284,0.0595,0.0538
	c-0.0225,0.0305-0.029,0.0807,0.0126,0.0996c-0.0026,0.0315-0.0052,0.0634-0.0078,0.0954c-0.014,0.0871-0.0305,0.1746-0.0481,0.2614
	c-0.0057,0.0088-0.0173,0.0266-0.023,0.0356c-0.0486-0.0289-0.0543-0.0863-0.0592-0.1368
	C20.7016,9.678,20.7057,9.6467,20.7104,9.6157z M21.1285,11.9134c-0.0104-0.0471-0.0207-0.0941-0.029-0.1415
	c-0.0026-0.0315-0.0052-0.0629-0.008-0.0941c0.0202-0.0429,0.0143-0.0921-0.015-0.129c0.0137-0.196-0.1585-0.338-0.1425-0.0258
	l-0.0073,0.0194c0.0011,0.0349,0.0032,0.1044,0.0042,0.1394c0.0026,0.1621,0.013,0.3248,0.014,0.4874l-0.0005,0.0227
	c-0.0075,0.0383,0.0137,0.0729,0.0346,0.1034c-0.0157,0.0416,0.0005,0.0892,0.0463,0.1019c0.0199,0.077,0.1026,0.0902,0.166,0.1161
	c0.0023,0.0099,0.0073,0.0293,0.0099,0.039c-0.0378,0.0977-0.0781,0.1945-0.1115,0.294c-0.036,0.3292-0.21,0.6159-0.3504,0.9029
	c-0.0656-0.2443,0.0442-0.4874,0.0458-0.733c0.0349-0.0323,0.0432-0.0818,0.024-0.1244c0.0013-0.0488,0.0026-0.0977,0.0042-0.1463
	c0.0297-0.0401,0.0393-0.0913,0.0214-0.1384c0.0008-0.2071,0.0034-0.4137,0.0057-0.6206c-0.0003-0.0321-0.0006-0.096-0.0006-0.128
	c0.0096-0.1216,0.0189-0.2436,0.0068-0.3654c0.0207-0.0825,0.0522-0.1614,0.0975-0.2332c0.0098-0.0044,0.0294-0.0135,0.0393-0.0179
	c0.0299,0.0023,0.06-0.0003,0.0895-0.0075c0.0163,0.0005,0.0488,0.0013,0.0649,0.0018c0.021,0.0468,0.0564,0.0845,0.0905,0.1221
	c0.0063,0.016,0.0189,0.0478,0.0251,0.0636c0.0109,0.2024-0.0064,0.4044-0.0791,0.5955c-0.008,0.0075-0.0243,0.0227-0.0323,0.0303
	C21.1691,12.0052,21.1549,11.9522,21.1285,11.9134z M21.347,10.3299c-0.0176,0.0493-0.0478,0.0933-0.1008,0.1073
	c-0.0499,0.0111-0.066,0.0561-0.0773,0.1003c-0.0365,0.0018-0.0597,0.0349-0.0512,0.0703
	c-0.0747,0.0755,0.0258,0.2134-0.0928,0.2498c-0.0222-0.0419-0.0435-0.0854-0.0758-0.1205
	c-0.0703-0.0353-0.1534-0.0657-0.1523-0.1513c0.0027-0.0158,0.0052-0.0316,0.0078-0.0473c0.0134-0.0912,0.0274-0.183,0.039-0.2743
	c0.0131-0.0401,0.0315-0.0783,0.0512-0.1153c0.0383,0.0044,0.0628-0.0315,0.0492-0.0662c0.0282-0.0528,0.0548-0.1063,0.0799-0.1605
	c0.0367-0.0085,0.0564-0.0463,0.043-0.0812c0.0136-0.0383,0.0276-0.0763,0.0421-0.114c0.0292-0.292,0.2772-0.4202,0.3731-0.6661
	c0.0171,0.029,0.0352,0.0574,0.0533,0.0859c0.1249,0.2369-0.0362,0.4996-0.0499,0.7436
	C21.4274,10.033,21.393,10.1832,21.347,10.3299z"/>
</svg>
