<?xml version="1.0" encoding="utf-8"?>
<!-- Generator: Adobe Illustrator 23.1.1, SVG Export Plug-In . SVG Version: 6.00 Build 0)  -->
<svg version="1.1" id="rapeseed" xmlns="http://www.w3.org/2000/svg" xmlns:xlink="http://www.w3.org/1999/xlink" x="0px" y="0px"
	 viewBox="0 0 32 32" style="enable-background:new 0 0 32 32;" xml:space="preserve">
<style type="text/css">
	.st0{fill:#FFFFFF;}
</style>
<g>
	<path class="st0" d="M25.4,14.1c-0.3,0,0.1-0.2,0.1-0.3l0,0c0.1,0,0.1-0.1,0-0.1c0,0,0-0.1-0.1-0.1c-0.1-0.1-0.1-0.1-0.2-0.2
		c0,0-0.1,0-0.1,0c-0.1,0-0.1,0-0.2,0c-0.1-0.1-0.2,0.1-0.3,0.1c0-0.1,0-0.1-0.1-0.2c0-0.1-0.1-0.1-0.1-0.1c0,0-0.1,0-0.1,0
		c0,0,0-0.1,0-0.1c-0.1-0.1-0.2,0-0.2,0.1c0-0.1-0.1-0.1-0.1-0.1c0,0,0,0,0,0l0,0c0-0.1,0-0.1-0.1-0.1c-0.1,0-0.2,0-0.3-0.1
		c0.1-0.2,0.1-0.3,0.2-0.5l0,0c0.1-0.3,0.1-0.8,0.3-1.1c0.2,0,0.2-0.2,0.2-0.3c0,0,0-0.1,0-0.1c0,0,0-0.1,0-0.1c0-0.1,0-0.1,0.1-0.2
		c0-0.1,0.1-0.2,0.1-0.3c0-0.1,0-0.1,0-0.2c0,0,0-0.1,0-0.1c0,0,0-0.1,0-0.1c0,0,0-0.1,0-0.1c-0.1-0.1-0.3,0.1-0.3,0.2
		c-0.1,0.1-0.1,0.3-0.2,0.5c0-0.1,0-0.2,0-0.3c0-0.1-0.1-0.3-0.2-0.4c-0.1-0.1-0.2,0-0.2,0.1c0,0,0,0-0.1,0c0-0.1,0-0.2,0-0.4
		c0-0.1,0-0.2,0-0.2c0,0,0-0.1,0-0.1c-0.1,0,0.1-0.4,0-0.3c0,0,0-0.1-0.1-0.1c0-0.1-0.1,0-0.2,0.1c0,0-0.1,0.1-0.1,0.1
		c-0.1,0.1-0.1,0.1-0.1,0.2c0,0.1,0,0.2,0,0.3c0,0,0,0.1,0,0.1c0,0.1-0.1,0.3-0.1,0.4c0,0-0.1,0-0.1,0.1c0,0,0,0.1,0,0.1
		c0,0,0,0.1,0,0.1c0,0,0,0.1,0,0.1c0,0,0,0-0.1,0c0-0.3-0.2-0.7-0.4-0.9c-0.1,0-0.2-0.1-0.2,0c0,0-0.1,0.1-0.1,0.2
		c0,0.2,0,0.4,0,0.5l0,0c0,0.1,0,0.2,0.1,0.3c0,0,0,0,0,0c0,0,0,0.1,0,0.1c0,0,0,0.1,0.1,0.1c0,0,0,0,0,0.1c0.2,0.1,0.2,0.3,0.2,0.5
		c0,0,0,0.1,0,0.1c0.1,0.4,0.2,0.8,0.3,1.3l0,0c0,0-0.1,0-0.1,0c0,0-0.1,0-0.1,0c-0.1,0-0.1,0.2-0.2,0.3c-0.1,0-0.1,0.1,0,0.2
		c0.1,0.2,0.3,0.2,0.4,0.2c0,0,0.1,0,0.1,0l0,0c0,0.2,0,0.3,0,0.5l0,0c0,0.1,0,0.1,0,0.2c0,0.1,0,0.3,0,0.4c0,0.1,0,0.3,0,0.4
		c0,0.1,0,0.3,0,0.4c0,0,0,0.1,0,0.1c-0.1,0.1,0,0.1,0,0.2c0,0.1,0,0.1,0,0.2c0,0.1,0,0.3,0,0.4c-0.1,0,0,0.1,0,0.1c0,0,0,0.1,0,0.1
		c0,0,0,0.1,0,0.1c0,0.1,0,0.2,0,0.2c0,0.1,0,0.2-0.1,0.3c0,0,0,0,0,0c-0.1-0.1-0.1-0.2-0.2-0.4c-0.1-0.2-0.1-0.4-0.1-0.6
		c0,0,0-0.1,0-0.1c0-0.2,0-0.5,0-0.7c0.1,0,0.2-0.1,0.2-0.1c0,0,0-0.1,0-0.1c0,0,0.1-0.1,0-0.1c0-0.2,0-0.3,0-0.5
		c0-0.2,0-0.3-0.1-0.4c0,0,0,0-0.1-0.1l0,0c0,0,0,0,0,0c0,0-0.1-0.1-0.2-0.1c0,0-0.1,0-0.1,0c0,0-0.1,0.1-0.1,0.1l0,0
		c0,0.1-0.1,0.1-0.1,0.2c0,0.1,0,0.2,0,0.3c0,0.2,0,0.4,0,0.5c0,0,0,0.1,0,0.1c0,0,0,0,0,0.1c0,0.1,0.1,0.2,0.2,0.2c0,0,0,0,0,0
		c0,0,0,0.1,0,0.1c0,0.2,0,0.3,0,0.5c0,0.1,0,0.2,0,0.2c0,0.2,0,0.5,0.1,0.7c0.1,0.2,0.2,0.4,0.3,0.6c0,0,0,0.1,0,0.1
		c0,0,0,0.1,0,0.1c0,0.1,0,0.2,0,0.3c0,0.1-0.1,0.2-0.1,0.3c0,0.1-0.1,0.3-0.1,0.4c-0.1,0.2-0.1,0.3-0.1,0.5l0,0
		c0,0.1-0.1,0.2-0.1,0.3c0,0-0.1,0.1-0.1,0.2c0,0.1,0,0.1,0,0.2c0,0-0.1,0.1-0.1,0.1c0,0,0,0.1,0,0.1c0,0.1-0.1,0.2-0.1,0.4
		c0,0,0,0,0,0c0,0.1-0.1,0.3-0.1,0.4c0,0,0,0.1,0,0.2c-0.2,0.6-0.4,1.2-0.5,1.8c0,0.1,0,0.1,0,0.2c-0.2,0.4-0.3,0.8-0.4,1.2
		c0,0.1-0.1,0.1-0.1,0.2c0,0-0.1,0.1-0.1,0.1c0,0.1,0,0.1-0.1,0.2c-0.1,0.1-0.1,0.2-0.1,0.2c0,0-0.1,0-0.1,0.1c0,0,0,0.1,0,0.1
		c0,0.1-0.1,0.2-0.1,0.3c-0.1,0.2-0.2,0.4-0.2,0.6c0,0,0,0.1,0,0.1c-0.1,0.1-0.1,0.2-0.1,0.3c-0.1,0.2-0.2,0.5-0.3,0.7
		c0,0-0.1,0.1,0,0.2c0,0,0,0.1-0.1,0.2c0,0,0,0.1,0,0.1c0,0,0,0.1-0.1,0.1c0,0.1-0.1,0.2-0.1,0.2c-0.1-0.2-0.3,0.3-0.4,0.5
		c0,0,0-0.1-0.1-0.1c0-0.2,0-0.4-0.1-0.6c0-0.1,0-0.2,0-0.3c0-0.1,0-0.1,0-0.2c0-0.1,0-0.2,0-0.3c0-0.1,0-0.2,0-0.3
		c0-0.1,0-0.2,0-0.2c0,0,0,0,0-0.1c0-0.1,0-0.1,0-0.2c0-0.1,0-0.3,0-0.4c0-0.1,0-0.1,0-0.2c0-0.1,0-0.2,0.1-0.3c0,0,0-0.1,0-0.1
		c0-0.1,0-0.1,0.1-0.2c0.1-0.1,0-0.2,0-0.3c0.2-0.2,0.4-0.2,0.6-0.5c0.2-0.2-0.1-0.2-0.2-0.1c-0.1,0,0-0.1,0-0.1
		c0.1-0.1-0.1-0.3-0.2-0.1c0,0,0,0-0.1,0c-0.1,0.1-0.1,0-0.1-0.1c0-0.1,0-0.1,0-0.2c0-0.1,0-0.2,0-0.2c0-0.1,0-0.2,0-0.3
		c0-0.1,0-0.1,0-0.2c0-0.1,0-0.2,0-0.4c0-0.1,0.1-0.2,0-0.2c0-0.1,0-0.1,0-0.2c0-0.1,0.1-0.2,0-0.2l0,0c0,0,0.1-0.1,0-0.1
		c0-0.1,0-0.2,0-0.3c0-0.1,0-0.2,0-0.2c0.1,0,0-0.1,0-0.2c0-0.1,0-0.1,0-0.2c0,0,0-0.1,0-0.1c0,0,0-0.1,0-0.1c0-0.2,0.2-0.2,0.2-0.4
		c0.1-0.1,0.2-0.1,0.2-0.2c-0.1,0-0.2,0.1-0.3,0.2l0,0c0-0.4,0.2-0.7,0.3-1.1c0.2-0.6,0.2-1.3,0.3-1.9c0-0.1,0.3-0.2,0.1-0.2
		c0,0,0,0,0,0c0-0.1,0-0.2,0.1-0.2c0,0,0-0.1,0-0.1c0,0,0.1-0.1,0-0.1c0-0.1,0-0.2,0-0.2c0.1,0,0.1-0.1,0-0.1c0,0,0-0.1,0-0.1
		c0-0.1,0-0.1,0-0.2c0.1,0,0.1-0.1,0-0.1c0-0.1,0-0.1,0-0.2c0-0.1,0-0.2,0-0.3c0,0,0-0.1,0-0.2c0-0.1,0-0.2,0-0.3c0,0,0-0.1,0-0.2
		c0,0,0-0.1,0-0.1c0.1-0.4,0.2-0.8,0.3-1.3c0,0,0-0.1,0-0.1c0-0.1,0-0.1,0.1-0.2c0.3-0.3-0.2-0.4-0.1,0c-0.1,0.2-0.1,0.3-0.2,0.5
		c0,0.1-0.1,0.2-0.1,0.3c0,0,0,0.1-0.1,0.1c0,0.1,0,0.2,0,0.2l0,0c-0.1,0.2-0.1,0.4-0.2,0.7c0,0,0,0.1,0,0.1c0,0-0.1,0.1,0,0.1
		c0,0,0,0.1,0,0.1l0,0c-0.1,0.1-0.1,0.2,0,0.2c0,0.2,0,0.3,0,0.5c-0.1,0-0.1,0.1,0,0.1c0,0.1,0,0.1,0,0.2c0,0,0,0.1,0,0.1
		c0,0,0,0.1,0,0.1l0,0c0,0.1,0,0.2,0,0.3c0,0,0,0.1,0,0.1c0,0,0,0.1,0,0.1c0,0,0,0,0,0.1c-0.2,0-0.2,0.1-0.1,0.2
		c0,0.3-0.1,0.5-0.1,0.7c0,0.1,0,0.1,0,0.2c0,0.1,0,0.2,0,0.2c0,0.1,0,0.2,0,0.3c0,0,0,0.1,0,0.1c0,0.1-0.1,0.3-0.1,0.4
		c-0.1,0.2-0.1,0.5-0.2,0.7c0,0,0,0,0,0c0-0.1,0-0.2,0-0.2c0.1,0,0.1-0.1,0-0.2c0,0,0-0.1,0-0.1c0-0.1,0-0.2,0-0.4
		c0-0.1,0-0.2,0-0.2c0-0.1,0-0.2,0-0.3c0-0.3,0-0.5,0-0.8c0-0.1,0-0.2,0-0.3c0,0,0,0,0-0.1c0,0,0-0.1,0-0.1c0-0.1,0-0.1,0-0.2
		c0-0.1,0-0.2,0-0.3c0-0.1,0-0.2,0-0.2c0.1-0.1,0.2-0.1,0.2-0.2c0.2-0.1,0.1-0.2-0.1,0c-0.1,0-0.1,0.1-0.1,0.1l0,0c0,0,0-0.1,0-0.2
		c0-0.1,0-0.1,0-0.2c0.1-0.1,0.2-0.2,0.2-0.2c-0.1-0.2-0.2,0.1-0.3,0c0-0.3-0.1-0.6-0.2-0.9c0,0,0-0.1,0-0.1c0-0.1,0-0.2,0-0.3
		c0.1-0.1,0.3-0.2,0.4-0.4c0.2-0.3,0.5-0.5,0.6-0.8c0.1-0.1,0.1-0.2,0.1-0.3c0,0,0-0.1,0-0.1c0,0,0-0.1,0-0.1
		c0.1-0.1,0.2-0.3,0.2-0.5c0-0.1,0-0.2,0-0.3c0.1,0,0-0.2,0-0.3c0.1-0.1,0.1-0.2,0-0.2v0c0,0,0.1-0.1,0-0.1c0-0.1,0-0.2,0-0.3
		c0-0.3,0.1-0.6,0.1-0.8c0,0,0.1-0.1,0-0.2c0-0.2,0-0.3,0-0.5c0,0,0-0.1,0-0.1c0-0.1,0-0.2,0-0.3c0,0,0-0.1,0-0.1c0,0,0-0.1,0-0.1
		c0.2-0.2-0.2-0.3-0.2-0.1l0,0c0,0-0.1,0.1,0,0.1c0,0.1,0,0.3,0,0.4c0,0.3-0.1,0.6-0.1,0.8c0,0.3-0.1,0.6-0.1,0.8c0,0.3,0,0.7,0,1.1
		c0,0,0,0,0,0.1c0,0.1,0,0.1,0,0.2c0,0.1,0,0.1,0,0.2c0,0.1,0,0.2,0,0.3c-0.2,0.1-0.1,0.3-0.2,0.5c-0.1,0.1-0.2,0.2-0.2,0.4
		c-0.1,0-0.1,0.1-0.2,0.2c0,0,0,0-0.1,0.1c-0.1,0.1-0.2,0.2-0.3,0.3c0,0,0,0.1-0.1,0.1c-0.1,0.1-0.1,0.1-0.2,0.2
		c-0.1-0.3-0.1-0.6,0-0.9c0-0.1-0.1-0.1-0.2-0.1c0,0.2-0.1,0.1-0.1,0c0-0.4-0.1-0.8-0.1-1.2c0-0.1,0.1-0.1,0.1-0.2
		c0,0,0.1,0,0.1-0.1c0,0,0-0.1,0.1-0.1c0.3-0.5,0.6-1,0.6-1.6c0-0.1,0-0.2,0-0.3c-0.1-0.1,0.3-0.6,0-0.5c0,0,0-0.1,0-0.1
		c0-0.1,0-0.2,0-0.3c-0.1-0.6-0.2-1.1-0.3-1.6c0,0,0-0.1,0-0.1c0.2-0.2,0.3-0.4,0.4-0.6c0,0,0,0,0-0.1C18.9,7.1,18.9,7,19,6.9
		c0,0,0.1-0.1,0.1-0.1c0,0,0.1,0,0.1,0c0,0,0.1,0,0.1,0c0.1,0,0.2-0.2,0.3-0.3c0.1-0.2,0.3-0.4,0.4-0.7c0-0.1-0.1-0.1-0.2-0.1
		c-0.1-0.1,0-0.1,0.1-0.2c0.3-0.1,0.4-0.4,0.5-0.6c0,0,0-0.1,0-0.1l0,0c0.2-0.3,0.1-0.8,0.1-1.2c0-0.1,0-0.1-0.1-0.1c0,0,0,0,0,0
		c0,0-0.1-0.1-0.2-0.1c0,0-0.1,0-0.1,0.1c0,0,0,0-0.1,0.1c0,0,0,0-0.1,0c0-0.1-0.1-0.1-0.2-0.1c0,0-0.1,0-0.1,0c0-0.1-0.1-0.1-0.1,0
		l0,0c-0.2,0-0.2,0.2-0.2,0.4c0,0-0.1,0-0.1,0c0,0-0.1,0-0.1,0C18.9,4.1,19,4.5,19,4.8c0,0.1,0,0.3,0.1,0.4c-0.1,0-0.2,0.1-0.2,0.3
		c-0.1,0.1-0.1,0.2-0.1,0.3c0,0.2-0.1,0.4-0.1,0.6c0,0.1,0.1,0.3,0.2,0.2c-0.2,0.4-0.3,0.9-0.7,1.1c0-0.1-0.1-0.4-0.1-0.1
		c0,0.1,0,0.1,0,0.2c0,0,0,0,0.1,0.1c0,0,0,0.1,0,0.2c0,0-0.1,0.1-0.1,0.1c-0.2,0.3-0.2,0.6-0.4,0.9c0-0.1,0-0.1,0-0.2
		c0,0,0-0.1,0-0.1c0-0.1,0-0.1,0-0.2c0-0.1,0-0.2,0-0.2c0-0.1,0-0.2,0-0.3c0.1-0.2,0.2-0.4,0.2-0.6c0-0.1,0.1-0.3,0.1-0.4
		c0,0,0-0.1,0-0.1l0,0c0,0,0.1-0.1,0-0.1c0,0,0-0.1,0-0.1c0,0,0-0.1,0-0.2l0,0c0,0,0-0.1,0-0.2c0-0.2,0.1-0.3,0.1-0.5
		c0,0,0-0.1,0-0.2c0-0.3,0.1-0.7,0.1-1c0,0,0-0.1,0-0.1c0,0,0-0.1,0-0.1c0.1,0,0.1,0,0.2-0.1c0.1-0.1,0.2-0.3,0.2-0.4
		c0,0,0-0.1,0-0.1c0-0.1,0.1-0.1,0.1-0.2c0-0.1,0-0.2,0-0.3c0,0-0.1,0-0.1,0c0,0-0.1,0-0.1,0.1c0-0.1-0.1,0-0.1,0c0,0,0,0,0-0.1
		c0-0.1,0-0.2,0.1-0.2c0.1,0,0.1,0,0.2,0c0,0,0.1,0,0.1,0c0.6-0.1,0.7-0.8,0.6-1.3c0-0.1-0.2-0.1-0.2-0.1c0,0.1-0.1,0.1-0.1,0.2
		c-0.1,0-0.1,0-0.1,0.1c0-0.1-0.1,0-0.1,0.1c0,0.1,0,0.2-0.1,0.3c-0.1,0-0.1,0.1-0.1,0.1c0,0-0.1,0-0.1,0c0,0,0-0.1,0-0.1
		c0.2-0.2,0.3-0.7,0-0.9c0-0.1-0.1-0.2-0.2-0.2c0,0,0,0-0.1,0h0h-0.1l0,0c0,0-0.1,0-0.1,0C18,1,18,1,18,1.1c0,0,0,0,0,0
		c0,0-0.1,0-0.1,0.1c-0.1,0.2-0.1,0.5,0,0.7c0,0.1,0,0.2-0.1,0.2c0,0,0,0,0,0c0,0-0.1-0.1-0.1-0.1c0,0-0.1-0.1-0.1-0.1
		c0-0.2-0.2-0.3-0.3-0.4c-0.1,0-0.2,0-0.3,0c0,0-0.1,0-0.1,0.1c0,0.1,0,0.2-0.1,0.3l0,0c0,0.1,0,0.2,0.1,0.2
		c0.1,0.1,0.2,0.1,0.2,0.1c0.1,0.1,0.2,0.2,0.3,0.2c0,0,0,0.1,0,0.1c-0.1,0.1-0.1,0.2,0,0.3c0,0.1,0.1,0.1,0.2,0.1c0,0,0.1,0,0.1,0
		c0,0.1,0,0.1,0,0.2c0,0.1,0,0.2,0.1,0.4c0,0.1,0,0.2,0,0.3c0,0,0,0.1,0,0.1c0,0.1,0,0.2,0.1,0.2c0,0,0.1,0,0.1,0c0,0,0.1,0,0.1,0
		c0,0.1,0,0.1,0,0.2c0,0.1,0,0.1,0,0.2c0,0.5-0.1,1-0.1,1.5c0,0,0,0.1,0,0.1c0,0.4-0.2,0.9-0.3,1.3c0,0.1-0.1,0.2-0.2,0.3
		c0,0,0,0,0,0c-0.1-0.2-0.1-0.4-0.2-0.6c0,0,0-0.1,0-0.1c0-0.2,0.1-0.4,0.2-0.6c0.1-0.1,0.1-0.3,0.2-0.4c0,0,0,0,0-0.1
		c0.1-0.1,0.1-0.1,0.2-0.2c0,0,0-0.1,0-0.1c0,0,0-0.1,0-0.1c0-0.1,0-0.2,0-0.3c0-0.1-0.1-0.1-0.2,0c0-0.1,0.1-0.5-0.2-0.4
		c0,0,0,0-0.1,0l0,0c0.1-0.2,0.1-0.4,0.1-0.6c0-0.2-0.1-0.4-0.2-0.5c0,0-0.1-0.1-0.1-0.1c-0.1-0.1-0.4,0.1-0.3,0.2c0,0,0,0,0,0
		c0,0.2,0,0.3,0.1,0.5c0,0.1,0,0.1,0.1,0.2c0,0,0,0,0.1,0.1c0,0,0,0,0.1,0.1c0,0,0,0,0.1,0c0,0.1-0.1,0.1-0.2,0.2c0,0,0,0-0.1,0
		c0,0-0.1,0.1-0.1,0.1c-0.1,0-0.1-0.1-0.1-0.2c0.2-0.2-0.2-0.6-0.4-0.5l0,0c0,0,0,0,0-0.1c0,0,0-0.1,0-0.1c0,0,0-0.1,0-0.1
		c0-0.2-0.1-0.5-0.1-0.7c0-0.1-0.1-0.2-0.2-0.3c0,0,0,0,0,0c-0.2-0.1-0.4,0-0.4,0.2c0,0,0,0.1,0,0.2c0,0.1,0,0.3,0.1,0.4
		c0,0,0,0.1,0,0.1c0,0,0,0,0,0.1c0,0,0,0.1,0,0.1c0,0.2,0.2,0.3,0.4,0.5c0,0-0.1,0.1-0.1,0.1c0,0,0,0-0.1,0c0-0.1-0.1-0.2-0.2-0.2
		c-0.1,0-0.2,0.1-0.3,0.1c0,0,0,0.1,0,0.1l0,0v0.1l0,0c0,0.1,0,0.2,0.1,0.2C15.6,5,15.7,5,15.8,5.1c0,0.1,0.1,0.1,0.2,0.1
		c0,0,0.1,0.1,0.2,0.1c0,0,0,0.1,0,0.1l0,0c0,0.2,0,0.4,0,0.6c0,0.1,0,0.2,0,0.2c0,0.2,0.1,0.3,0.3,0.3c0,0.1,0,0.1,0.1,0.1
		c0.1,0.6,0.4,1.1,0.7,1.6c0.2,0.3,0.2,0.7,0.3,1.1c0,0,0,0.1,0,0.1c0,0.1,0,0.3,0,0.4c0,0.1,0,0.1,0,0.2c0,0,0,0.1,0,0.1
		c0,0,0,0.1,0,0.1c0,0.1,0,0.2,0,0.3c0,0.1,0,0.2,0,0.3c0,0.1,0,0.2,0,0.3c0,0.1,0,0.2,0,0.3c0,0.2,0,0.4,0,0.6l0,0
		c0,0.2,0,0.3,0,0.5c0,0.2,0,0.3,0,0.5c0,0,0,0.1,0,0.1c0,0.1,0,0.2,0.1,0.3c0,0.1,0,0.2,0,0.3c0,0,0,0.1,0,0.1
		c0,0.1,0.1,0.3,0.1,0.4c0,0.2,0.1,0.4,0.1,0.5c0,0.1,0.1,0.3,0.1,0.4c0,0,0,0.1,0,0.1c0,0,0,0.1,0,0.1c0,0.1,0,0.1,0.1,0.2
		c0,0,0,0.1,0,0.1c0,0,0,0.1,0,0.1c0,0,0,0.1,0,0.1c0,0,0,0.1,0,0.1c0,0,0,0,0,0.1c0,0.1,0,0.3,0,0.4c0,0.1,0,0.2,0,0.3
		c-0.1-0.1-0.2-0.1-0.2-0.2c-0.1-0.1-0.2-0.2-0.3-0.4c-0.1-0.2-0.2-0.3-0.3-0.5c-0.1-0.1-0.1-0.2-0.2-0.4c0,0,0-0.1,0-0.1
		c0,0,0-0.1,0-0.1c0-0.4,0.1-0.8,0.1-1.2c0-0.2,0-0.4,0-0.6c0-0.1,0-0.2,0-0.3c0-0.2,0-0.5-0.1-0.7c0,0,0-0.1,0-0.1
		c0-0.1,0-0.3-0.1-0.3c0,0.1-0.1,0.2,0,0.3c0,0,0,0,0,0.1c0,0,0,0.1,0,0.2l0,0c0,0.1,0,0.2,0,0.2l0,0c0,0.1,0,0.1,0,0.2
		c0,0,0,0.1,0,0.1c0,0.1,0,0.2,0,0.2c0,0.2,0,0.4-0.1,0.5c0,0-0.1,0.1,0,0.1c0,0.1,0,0.3,0,0.4c0,0.1,0,0.5-0.2,0.3
		c-0.1-0.2-0.2-0.5-0.2-0.8c0,0,0-0.1,0-0.1c-0.1-0.3-0.1-0.5-0.1-0.8c0,0,0-0.1,0-0.1c0,0,0-0.1,0-0.1c0,0,0-0.1,0-0.1
		c0-0.1,0-0.1,0-0.2c0-0.1,0-0.1,0-0.2c0-0.1,0-0.2,0-0.3c0-0.1,0-0.3,0-0.4c0-0.1,0-0.1,0-0.2c0-0.1,0-0.2,0-0.3
		c0-0.3-0.1-0.7-0.1-1c0-0.1,0-0.1-0.1,0c-0.1,0-0.1,0.1-0.1,0.1c0,0.1,0,0.1,0,0.1c0,0.1,0,0.3,0,0.4c0,0,0,0.1,0,0.2
		c0,0.1,0,0.3,0,0.4c0,0,0,0,0,0.1c0,0.2,0,0.3,0,0.5l0,0c0,0,0,0.1,0,0.2c0,0,0,0,0,0.1c0,0.2,0,0.4,0,0.5c0,0.1,0,0.2,0,0.2
		c0,0,0,0.1,0,0.1c0,0,0,0.1,0,0.1c0,0,0,0.1,0,0.1c0,0,0,0.1,0,0.1c0,0,0,0.1,0,0.1c0,0.1,0.1,0.2,0.1,0.3c0,0.1,0,0.2,0.1,0.3
		c0,0,0,0.1,0,0.1l0,0c0,0.1,0,0.1,0.1,0.1c0.1,0.2,0.3,0.3,0.4,0.5c0,0.2,0,0.3,0,0.5c0,0.1,0,0.2,0,0.3c0,0.2,0,0.3,0,0.5
		c0,0,0,0.1,0,0.1c0,0.1,0.1,0.3,0.1,0.4l0,0c0,0,0,0.1,0,0.1l0,0c0,0,0,0.1,0,0.1c0,0.2,0.1,0.3,0.2,0.5c-0.1,0.2-0.1,0.3-0.2,0.5
		c-0.1,0.2-0.1,0.4-0.2,0.5c0,0.1-0.1,0.1-0.1,0.2c0,0.1-0.1,0.2-0.1,0.4c-0.1,0.2-0.1,0.3-0.1,0.5c0,0.1,0,0.1-0.1,0.2
		c0,0,0,0.1,0,0.1c0,0.2-0.1,0.3-0.1,0.5c0.4,0.2,0.3,0.6,0.5,0.9c0,0,0,0.1,0,0.1c0.1,0.2,0.2,0.5,0.4,0.7c0.1,0.1,0.1,0.3,0.2,0.4
		c0.1,0.1,0.1,0.2,0.2,0.3c0,0.1,0.1,0.2,0.1,0.3c0,0,0,0,0,0.1c0,0,0,0.1,0,0.2c0,0.1,0,0.3,0,0.4c0,0,0,0,0,0.1c0,0-0.1,0.1,0,0.1
		c0,0.1,0,0.1,0,0.2c0,0.1,0,0.2,0,0.3c0,0.1,0,0.1,0,0.2c0,0,0,0.1,0,0.1c0,0,0,0.1,0,0.1c-0.2,0-0.3,0.1-0.2,0.3c0,0-0.1,0-0.1,0
		c-0.1,0-0.2,0-0.2,0c0,0.1-0.1,0.1,0,0.2c0,0.2,0.1,0.3,0.2,0.4c0.1,0.1,0.3,0,0.3,0.2c0,0.1,0,0.1,0,0.2c0,0.1,0,0.1,0,0.2
		c0,0.3,0,0.7,0,1c0,0.1,0,0.1,0,0.2c0,0.1,0,0.1,0,0.2c0,0.1,0,0.2,0,0.2c0,0.1,0,0.2,0,0.2c0,0,0,0.1,0,0.1c0,0.1,0,0.3,0,0.4
		c0,0,0,0,0,0.1c0,0.1,0,0.3,0,0.5c0,0.1,0,0.2,0,0.3c0,0,0,0.1,0,0.1c0,0,0,0,0,0c-0.1,0.1-0.1,0.2-0.2,0.2c0,0-0.1,0.1-0.1,0.1
		c-0.1,0.1,0,0.1,0.1,0.1c0,0.1,0.1,0.1,0.1,0c0,0,0.1,0,0.1,0l0,0c0,0.2,0,0.3,0,0.5c0,0,0,0.1,0,0.1l0,0l0.1,0.1l0,0.2l0.1,0.1
		l0,0.1c0,0,0.1,0,0.1-0.2l0.2-0.3c0.1-0.2,0.2-0.4,0.3-0.5c0.1-0.2,0.3-0.4,0.3-0.6c0.1,0,0.1-0.1,0.2-0.1c0.3-0.2,0.3-0.5,0.5-0.7
		c0,0,0-0.1,0.1-0.1c0.4-0.5,0.7-1,1.2-1.3c0.2-0.1,0.4-0.2,0.5-0.4c0.1-0.1,0-0.3-0.1-0.3c-1.1-0.1-1.6,1-2.2,1.6
		c-0.1,0.1-0.1,0.1-0.1,0.2c0,0-0.1,0.1-0.1,0.1c0.3-1.4,0.9-2.8,1.4-4.1c0.4-1,0.7-2.1,1-3.2c0.3-0.7,0.5-1.5,0.7-2.3
		c0.1-0.4,0.2-0.7,0.2-1.1c0.1,0,0.1-0.1,0.1-0.1c0.2-0.2,0.4-0.5,0.5-0.8c0.2-0.3,0.2-0.7,0.4-1c0,0,0.1,0,0.1,0
		c0.2,0.1,0.5,0.1,0.6-0.2c0,0,0-0.1,0-0.1c0,0,0.1-0.1,0.1-0.1c0,0,0.1,0,0.1-0.1c0.1-0.1,0.2-0.3,0.2-0.4c0.1-0.4-0.2-0.1-0.2,0.1
		c-0.1,0.1-0.1,0.2-0.2,0.3c0,0,0,0.1-0.1,0.1c-0.1,0.1-0.1,0.1-0.2,0.2c0.1-0.2,0.1-0.3,0.1-0.5c0,0,0.1-0.1,0.1-0.1
		c0.1-0.1,0.1-0.3,0.2-0.3l0,0c0,0,0.1,0,0.1,0c0.2,0.1,0.5,0.2,0.7,0.1c0,0,0.1,0,0.1,0c0.2,0,0.4-0.2,0.5-0.4v0
		C25.6,14.1,25.5,14.1,25.4,14.1z M22.6,11.9c0,0,0-0.1,0-0.1c0-0.1,0-0.2,0-0.3c0,0,0.1,0,0.1,0.1c0,0,0,0.1,0,0.1c0,0,0,0.1,0,0.1
		c0,0.1,0,0.2-0.1,0.3c0,0,0,0,0,0c-0.1,0-0.1-0.1-0.1-0.2C22.5,12,22.6,11.9,22.6,11.9z M22.8,11.9c0-0.1,0-0.1,0-0.2
		c0-0.1,0-0.1,0-0.2c0-0.1,0-0.2,0-0.4c0,0,0-0.1,0-0.2c0,0,0-0.1,0-0.1c0,0,0.1-0.1,0-0.1c0,0,0,0,0-0.1c0,0,0,0,0.1,0
		c0.1,0,0,0.1,0,0.1c0,0.1-0.1,0.2,0,0.3c-0.1,0.2,0.1,0.3,0.1,0.4C23,11.7,23,11.8,22.8,11.9c0.1,0.2,0,0.2,0,0.3
		C22.8,12.1,22.8,12,22.8,11.9z M23.5,12.2c-0.1,0.2-0.1,0.4-0.2,0.6c0,0.1-0.1,0.1-0.1,0.1c-0.1,0-0.1,0.1-0.1,0.1
		c0,0-0.1,0-0.1,0.1c-0.1,0.1,0,0.3-0.1,0.3c0-0.1-0.1-0.1-0.1-0.2c-0.1-0.1-0.2-0.1-0.2-0.3c0-0.1,0-0.2,0-0.3c0-0.1,0-0.1,0.1-0.1
		c0,0,0.1,0,0.1-0.1c0-0.1,0.1-0.1,0.1-0.2c0,0,0.1-0.1,0.1-0.1c0,0,0-0.1,0.1-0.1c0-0.4,0.4-0.5,0.5-0.8c0,0,0,0.1,0.1,0.1
		C23.8,11.6,23.6,11.9,23.5,12.2z M22.3,11.1c0,0,0,0.1,0,0.1c0,0,0,0.1,0,0.1c0,0,0,0.1,0,0.1c0,0,0,0.1,0,0.1
		c0.1,0.4-0.1,0.7,0,1.1c0,0,0,0.1,0,0.1c0,0,0,0,0,0C22.4,12.2,22,11.6,22.3,11.1z M18.1,8.3c0,0.1,0,0.1,0,0.2c0,0.1,0,0.1,0,0.2
		c0,0.1,0,0.1,0,0.2c0,0,0,0.1,0,0.1c0,0.1,0,0.2,0,0.2c0,0.1,0,0.1,0,0.2c0,0,0,0.1,0,0.1c0,0.1,0,0.1,0,0.2c0,0.1,0.1,0.2,0.1,0.3
		c-0.1-0.1-0.2,0.1-0.1,0.1c0,0,0,0.1,0,0.1c0,0.1,0,0.1,0.1,0.2c0,0.2,0,0.3,0,0.5c0,0.5-0.2,0.9-0.5,1.3c-0.1,0.1-0.1,0.1-0.2,0.2
		c0,0,0-0.1,0-0.1l0,0c0-0.1,0.1-0.3,0-0.4c0-0.2,0-0.4,0-0.6c0-0.1,0.1-0.2,0-0.2c0-0.3,0-0.6,0-0.8c0,0,0-0.1,0-0.1
		c0-0.2,0-0.3,0-0.5l0,0c0,0,0-0.1,0-0.1c0,0,0-0.1,0-0.1C17.9,9,18,8.6,18.1,8.3z M16.9,5.8C16.9,5.7,16.9,5.7,16.9,5.8
		c0-0.1-0.1-0.1-0.1-0.2c0-0.1,0.1-0.1,0.1-0.2C17,5.4,17,5.3,17.1,5.3c0.1,0,0.1,0,0.2,0c0,0,0,0,0,0.1c0,0.1,0,0.1,0,0.2
		c0,0,0,0.1,0,0.1c0,0.1,0,0.3,0,0.4l0,0c0,0-0.1,0.1,0,0.1c0,0.2,0,0.3-0.1,0.5c0,0,0,0,0,0.1C17,6.4,17,6.1,16.9,5.8z M17.4,6.3
		C17.4,6.3,17.4,6.3,17.4,6.3C17.3,6.3,17.3,6.3,17.4,6.3c0-0.2,0-0.4,0-0.5l0,0c0,0.1,0,0.1,0.1,0.2C17.4,6.1,17.4,6.2,17.4,6.3z
		 M17.6,5.2C17.6,5.2,17.6,5.2,17.6,5.2c-0.1,0.2-0.2,0.3-0.2,0.5c0,0,0-0.1,0-0.1c0-0.1,0-0.2,0-0.2l0,0c0,0,0-0.1,0-0.1
		C17.5,5.2,17.6,5.2,17.6,5.2z M17.1,7.8C17,7.7,17,7.7,17,7.6c0-0.1,0-0.1-0.1-0.2c0,0,0-0.1-0.1-0.1c0,0,0-0.1,0-0.1
		c0-0.1-0.1-0.2-0.1-0.3c0-0.1,0-0.1,0-0.2c0,0,0-0.1,0-0.1c0,0,0,0,0-0.1c0-0.1,0.2-0.1,0.2-0.3c0,0,0-0.1,0-0.1c0,0,0-0.1,0.1-0.1
		c0,0.1,0,0.2,0,0.2c0,0,0,0.1,0,0.1c0,0.1,0,0.2,0.1,0.3c0,0.1,0,0.1,0,0.2c-0.2-0.2-0.2,0.1,0,0.2c0,0,0,0.1,0.1,0.1
		c0,0,0,0.1,0.1,0.1c0.1,0.2,0.1,0.4,0.2,0.6c0,0.1,0,0.2,0,0.2C17.2,8,17.1,7.9,17.1,7.8z M17.5,17.2
		C17.5,17.2,17.5,17.2,17.5,17.2c-0.1-0.4-0.1-0.8-0.2-1.2c0,0,0-0.1,0-0.1c0,0,0-0.1,0-0.1c0,0,0,0,0-0.1c0,0,0,0,0,0
		c0,0.1,0.1,0.1,0.1,0.2c0.1,0.1,0.1,0.2,0.2,0.4c0.2,0.3,0.5,0.6,0.7,0.9c0,0.2,0,0.3,0,0.5c0,0,0,0.1,0,0.1c0,0-0.1-0.1-0.1-0.1
		c-0.1-0.2-0.1-0.1,0,0c0,0.1,0.1,0.2,0.1,0.2c0,0,0.1,0.1,0.1,0.1c0,0.2,0,0.5,0,0.7c0,0.2,0,0.4,0,0.6c0,0-0.1,0.1,0,0.1l0,0
		c-0.1-0.2-0.2-0.4-0.3-0.7l0,0c-0.1-0.2-0.1-0.4-0.2-0.6c0-0.1,0-0.2-0.1-0.3c0,0,0-0.1,0-0.1c-0.2-0.3,0-0.6,0.2-0.8
		c0.1-0.2-0.2-0.2-0.2,0c0,0.1-0.1,0.3-0.1,0.4C17.6,17.3,17.5,17.3,17.5,17.2z M17.7,22c-0.3-0.6-0.7-1.3-0.8-1.9
		c0.2-0.8,0.5-1.5,0.7-2.3c0.1,0.1,0.1,0.2,0.1,0.3c0,0.1,0,0.1,0.1,0.2c0.1,0.2,0.1,0.4,0.2,0.6c0,0,0,0,0,0c0,0.1,0.1,0.3,0.2,0.4
		c0,0,0,0.1,0.1,0.1c0,0.1,0.1,0.1,0.1,0.2c0,0.3,0,0.5,0,0.8c0,0.1,0,0.2,0,0.3c0,0,0,0.1,0,0.2c0,0,0,0,0,0.1c0,0.1,0,0.2,0,0.3
		c0,0.1,0,0.1,0,0.2c0,0.1,0,0.3,0,0.4c0,0-0.1,0.1,0,0.1c0,0.1,0,0.2-0.1,0.2c0,0.1,0,0.2,0,0.3c0,0,0,0.1,0,0.2l0,0
		c0,0.2-0.1-0.1-0.2-0.2C17.8,22.3,17.8,22.2,17.7,22z M23,16c0,0.4-0.3,0.8-0.4,1.1c-0.1-0.3,0.1-0.6,0.1-0.9c0,0,0.1-0.1,0-0.2
		c0-0.1,0-0.1,0-0.2c0-0.1,0-0.1,0-0.2c0-0.3,0-0.5,0-0.8c0-0.1,0-0.1,0-0.2c0-0.2,0-0.3,0-0.5c0-0.1,0.1-0.2,0.1-0.3c0,0,0,0,0,0
		c0,0,0.1,0,0.1,0c0,0,0.1,0,0.1,0c0,0.1,0.1,0.1,0.1,0.2c0,0,0,0.1,0,0.1c0,0.3,0,0.5-0.1,0.8c0,0,0,0,0,0c0-0.1,0-0.1,0-0.2
		c0-0.1,0-0.1,0-0.2c0,0,0-0.1,0-0.1c0-0.1,0-0.1,0-0.2c0-0.2-0.2-0.4-0.2,0l0,0c0,0,0,0.1,0,0.2c0,0.2,0,0.4,0,0.6l0,0
		c0,0,0,0.1,0,0.1c0,0.1,0,0.1,0.1,0.1c0,0.1,0.1,0.1,0.2,0.1c0,0,0,0,0,0C23.1,15.7,23.1,15.9,23,16z"/>
	<path class="st0" d="M13.8,30.8c-0.6-0.9-1.4-2.5-2-3.5c-0.4-0.7-0.8-1.4-1.2-2.1c-0.2-0.3-0.3-0.7-0.5-1c-0.1,0-0.1,0-0.1-0.1
		c-0.3-0.2-0.5-0.4-0.6-0.7c-0.3-0.3-0.4-0.6-0.6-0.9c0,0-0.1,0-0.1,0c-0.2,0.2-0.5,0.2-0.6-0.1c0,0,0,0,0-0.1c0,0-0.1-0.1-0.1-0.1
		c0,0-0.1,0-0.1,0c-0.1-0.1-0.2-0.2-0.3-0.4c-0.2-0.3,0.2-0.1,0.3,0C8,21.9,8.1,22,8.1,22.1c0,0,0.1,0.1,0.1,0.1
		c0.1,0,0.1,0.1,0.2,0.1c-0.1-0.1-0.1-0.3-0.2-0.5c0,0-0.1-0.1-0.1-0.1C8,21.7,8,21.6,7.8,21.5l0,0c0,0-0.1,0-0.1,0
		c-0.2,0.1-0.4,0.3-0.7,0.3c0,0-0.1,0-0.1,0c-0.2,0.1-0.5-0.1-0.6-0.3l0,0c0.1,0,0.2-0.1,0.3-0.1c0.3,0-0.1-0.2-0.1-0.3l0,0
		c-0.1,0-0.1-0.1,0-0.1c0,0,0-0.1,0-0.1c0-0.1,0.1-0.2,0.2-0.2c0-0.1,0.1,0,0.1,0c0.1,0,0.1,0,0.2,0c0.1-0.1,0.3,0,0.4,0.1
		c0-0.1,0-0.1,0-0.2c0-0.1,0.1-0.1,0.1-0.1c0,0,0.1,0,0.1,0c0,0,0-0.1,0-0.1c0-0.1,0.1,0,0.2,0c0-0.1,0.1-0.1,0.1-0.1c0,0,0,0,0-0.1
		l0,0c0-0.1,0-0.1,0.1-0.1c0.1,0,0.2-0.1,0.3-0.1c-0.1-0.1-0.2-0.3-0.3-0.4l0,0c-0.2-0.3-0.2-0.7-0.5-1c-0.2,0-0.2-0.1-0.3-0.2
		c0,0-0.1-0.1-0.1-0.1c0,0,0-0.1,0-0.1C7.1,18,7.1,18,7,17.9c-0.1-0.1-0.1-0.2-0.1-0.2c0-0.1,0-0.1,0-0.2c0,0,0-0.1,0-0.1
		c0,0,0-0.1,0-0.1c0,0,0-0.1,0-0.1c0.1-0.1,0.3,0,0.4,0.1c0.1,0.1,0.2,0.3,0.3,0.4c0-0.1,0-0.2-0.1-0.3c0-0.1,0-0.3,0.1-0.4
		c0.1-0.1,0.2,0,0.3,0.1c0,0,0,0,0.1,0c0-0.1,0-0.2,0-0.4c0-0.1,0-0.2,0-0.2c0,0,0-0.1,0-0.1c0-0.1-0.2-0.4,0-0.3c0,0,0-0.1,0-0.1
		c0-0.1,0.1,0,0.2,0c0,0,0.1,0.1,0.1,0.1c0.1,0,0.1,0.1,0.1,0.2c0,0.1,0.1,0.2,0.1,0.3c0,0,0,0.1,0,0.1c0.1,0.1,0.1,0.3,0.2,0.4
		c0,0,0.1,0,0.1,0c0,0,0,0,0,0.1c0,0,0,0.1,0.1,0.1c0,0,0.1,0.1,0,0.1c0,0,0,0,0.1,0c0-0.3,0-0.7,0.2-0.9c0.1,0,0.1-0.1,0.2,0
		c0.1,0,0.1,0.1,0.1,0.2c0.1,0.2,0.1,0.3,0.1,0.5l0,0c0,0.1,0,0.2,0,0.3c0,0,0,0,0,0.1c0,0.1,0,0.1,0,0.2c0,0,0,0.1,0,0.1
		c0,0,0,0.1,0,0.1c-0.2,0.1-0.1,0.3-0.1,0.5c0,0,0,0.1,0,0.1c0,0.4,0,0.9,0,1.3l0,0c0,0,0.1,0,0.1-0.1c0,0,0.1,0,0.1,0
		c0.1,0,0.1,0.2,0.2,0.3c0.1,0,0.1,0.1,0.1,0.1c0,0.2-0.2,0.2-0.4,0.3c0,0-0.1,0-0.1,0l0,0c0,0.2,0.1,0.3,0.1,0.5l0,0
		c0,0,0,0.1,0,0.2c0,0.1,0.1,0.3,0.1,0.4c0,0.1,0.1,0.3,0.1,0.4c0,0.1,0.1,0.3,0.1,0.4c0,0,0,0.1,0,0.1c0.1,0,0.1,0.1,0,0.2
		c0,0.1,0.1,0.1,0.1,0.2c0,0.1,0.1,0.3,0.1,0.4c0.1,0,0.1,0.1,0.1,0.1c0,0,0,0.1,0,0.1c0,0,0,0.1,0,0.1c0,0.1,0.1,0.1,0.1,0.2
		c0,0.1,0.1,0.2,0.1,0.2c0,0,0,0,0,0c0-0.1,0.1-0.3,0.1-0.4c0-0.2,0-0.4,0-0.6c0,0,0-0.1,0-0.1c0-0.2-0.1-0.5-0.1-0.7
		c-0.1,0-0.2,0-0.2-0.1c0,0-0.1-0.1,0-0.1C10,22.1,10,22,10,22c0-0.2-0.1-0.3-0.1-0.5c0-0.2,0-0.3,0-0.5c0,0,0,0,0-0.1l0,0
		c0,0,0,0,0,0c0-0.1,0.1-0.1,0.1-0.2c0,0,0,0,0.1,0c0.1,0,0.1,0.1,0.1,0.1l0,0c0,0.1,0.1,0.1,0.1,0.2c0,0.1,0.1,0.2,0.1,0.3
		c0,0.2,0.1,0.3,0.1,0.5c0,0,0,0.1,0,0.1c0,0,0,0,0,0.1c0,0.1,0,0.2-0.1,0.2c0,0,0,0,0,0.1c0,0,0,0.1,0,0.1c0,0.2,0.1,0.3,0.1,0.5
		c0.1,0.1,0.1,0.2,0,0.2c0,0.2,0.1,0.5,0,0.7c0,0.2-0.1,0.4-0.2,0.6c0,0,0,0,0,0.1c0,0,0,0.1,0,0.1c0,0.1,0.1,0.2,0.1,0.3
		c0.1,0.1,0.1,0.2,0.1,0.3c0.1,0.1,0.1,0.3,0.2,0.4c0.1,0.2,0.2,0.3,0.2,0.5l0,0c0.1,0.1,0.1,0.2,0.2,0.3c0,0,0.1,0.1,0.1,0.1
		c0,0.1,0,0.1,0.1,0.2c0,0,0.1,0.1,0.1,0.1c0,0,0,0.1,0,0.1c0.1,0.1,0.1,0.2,0.2,0.3c0,0,0,0,0,0c0.1,0.1,0.2,0.3,0.2,0.4
		c0,0,0.1,0.1,0.1,0.1c0.3,0.5,0.6,1.1,0.9,1.7c0,0.1,0,0.1,0.1,0.2c0.3,0.3,0.5,0.7,0.7,1.1c0.1,0.1,0.1,0.1,0.1,0.2
		c0,0,0.1,0,0.1,0.1c0,0.1,0.1,0.1,0.1,0.2L13.8,30.8z M15.9,31c-0.1-0.1-0.1-0.2-0.1-0.3c-0.2-0.2-0.5-0.1-0.7-0.3
		c-0.2-0.2,0-0.2,0.2-0.2c0,0,0-0.1,0-0.1c-0.1-0.1,0.1-0.3,0.2-0.2c0,0,0,0,0.1,0c0.1,0.1,0.1,0,0.1-0.1c0-0.1,0-0.1-0.1-0.2
		c0-0.1-0.1-0.2-0.1-0.2c0-0.1,0-0.2-0.1-0.3c0-0.1,0-0.1,0-0.2c0-0.1-0.1-0.2-0.1-0.3c-0.1-0.1-0.1-0.1-0.1-0.2c0,0,0-0.1,0-0.1
		c-0.1-0.1-0.1-0.1-0.1-0.2l0,0c0,0-0.1-0.1-0.1-0.1c0-0.1,0-0.2-0.1-0.3c0-0.1,0-0.2-0.1-0.2c-0.1,0-0.1-0.1-0.1-0.2
		c0-0.1,0-0.1,0-0.2c0,0,0-0.1,0-0.1c0,0-0.1-0.1,0-0.1c0-0.2-0.2-0.2-0.3-0.4c-0.1,0-0.2,0-0.2-0.2c0.1,0,0.2,0.1,0.3,0.2l0,0
		c-0.1-0.4-0.4-0.7-0.5-1c-0.3-0.6-0.4-1.2-0.7-1.8c0-0.1-0.3-0.1-0.1-0.2c0,0,0,0,0,0c0-0.1-0.1-0.1-0.1-0.2c0,0,0-0.1,0-0.1
		c0,0-0.1-0.1-0.1-0.1c0-0.1-0.1-0.2-0.1-0.2c-0.1,0-0.1-0.1-0.1-0.1c0,0,0-0.1,0-0.1c0-0.1,0-0.1,0-0.2c-0.1,0-0.1-0.1,0-0.1
		c0-0.1-0.1-0.1,0-0.2c0-0.1-0.1-0.2-0.1-0.3c0,0-0.1-0.1-0.1-0.2c0-0.1,0-0.2-0.1-0.3c0,0-0.1-0.1-0.1-0.2c0,0,0-0.1,0-0.1
		c-0.2-0.4-0.4-0.8-0.5-1.2c0,0,0-0.1,0-0.1c0-0.1-0.1-0.1-0.1-0.2c-0.3-0.2,0.1-0.5,0.1,0c0.1,0.2,0.2,0.3,0.3,0.5
		c0.1,0.1,0.1,0.2,0.1,0.2c0,0,0.1,0.1,0.1,0.1c0,0.1,0.1,0.1,0.1,0.2l0,0c0.1,0.2,0.2,0.4,0.3,0.6c0,0,0,0.1,0,0.1
		c0.1,0,0.1,0.1,0.1,0.1c0,0,0,0.1,0,0.1l0,0c0.1,0.1,0.1,0.1,0,0.2c0,0.1,0.1,0.3,0.1,0.5c0.1,0,0.1,0.1,0.1,0.1c0,0.1,0,0.1,0,0.2
		c0,0,0,0.1,0,0.1c0,0,0,0.1,0,0.1l0,0c0,0.1,0.1,0.2,0.1,0.3c0,0,0,0.1,0,0.1c0,0,0.1,0.1,0.1,0.1c0,0,0,0,0,0c0.2,0,0.2,0,0.1,0.2
		c0.1,0.2,0.2,0.5,0.3,0.7c0,0.1,0,0.1,0.1,0.2c0,0.1,0,0.1,0.1,0.2c0,0.1,0.1,0.2,0.1,0.3c0,0,0,0.1,0,0.1c0,0.1,0.1,0.3,0.2,0.4
		c0.1,0.2,0.2,0.4,0.3,0.7c0,0,0,0,0,0c0-0.1,0-0.2-0.1-0.2c-0.1,0-0.1-0.1-0.1-0.2c0,0,0-0.1,0-0.1c0-0.1-0.1-0.2-0.1-0.3
		c0,0,0-0.1-0.1-0.2c0-0.1,0-0.2-0.1-0.3c-0.1-0.2-0.1-0.5-0.2-0.7c0-0.1,0-0.2,0-0.3c0,0,0,0,0-0.1c0,0,0-0.1,0-0.1
		c0,0,0-0.1,0-0.2c0-0.1,0-0.2,0-0.3c0-0.1,0-0.2,0-0.2c-0.1,0-0.2-0.1-0.3-0.1c-0.2-0.1-0.1-0.2,0.1,0c0.1,0,0.1,0,0.2,0.1l0,0
		c0,0,0-0.1,0-0.2c0-0.1,0-0.1-0.1-0.2c-0.1-0.1-0.2-0.1-0.3-0.2c0.1-0.2,0.3,0.1,0.3-0.1c-0.1-0.3,0-0.6,0-1c0,0,0-0.1,0-0.1
		c0-0.1,0-0.2,0-0.3c-0.2-0.1-0.3-0.2-0.4-0.3c-0.3-0.2-0.6-0.4-0.8-0.7c-0.1-0.1-0.1-0.2-0.2-0.2c0,0,0,0,0-0.1c0,0-0.1-0.1,0-0.1
		c-0.1-0.1-0.2-0.3-0.3-0.4c0-0.1-0.1-0.2-0.1-0.3c-0.1,0,0-0.2-0.1-0.3c-0.1-0.1-0.1-0.1,0-0.2l0,0c0,0-0.1-0.1-0.1-0.1
		c0-0.1,0-0.2-0.1-0.3c-0.1-0.3-0.2-0.5-0.3-0.8c0,0-0.1-0.1-0.1-0.2c0-0.1-0.1-0.3-0.1-0.4c0,0,0-0.1,0-0.1c0-0.1,0-0.2-0.1-0.3
		c0,0,0-0.1,0-0.1c0,0,0-0.1,0-0.1c-0.2-0.2,0.1-0.4,0.1-0.1l0,0c0,0,0.1,0.1,0.1,0.1c0,0.1,0.1,0.3,0.1,0.4c0,0.3,0.2,0.5,0.3,0.8
		c0.1,0.3,0.2,0.5,0.3,0.8c0.1,0.3,0.2,0.7,0.2,1c0,0,0,0,0,0.1c0,0,0,0.1,0,0.1c0,0,0.1,0.1,0.1,0.2c0,0.1,0,0.2,0.1,0.3
		c0.2,0.1,0.2,0.3,0.2,0.4c0.1,0.1,0.2,0.2,0.3,0.3c0.1,0,0.1,0.1,0.2,0.1c0,0,0.1,0,0.1,0.1c0.1,0.1,0.2,0.2,0.4,0.3
		c0,0,0.1,0,0.1,0.1c0.1,0,0.2,0.1,0.2,0.1c0.1-0.3,0-0.6-0.2-0.9c0-0.1,0.1-0.2,0.1-0.1c0.1,0.2,0.1,0.1,0.1-0.1
		c-0.1-0.4-0.1-0.8-0.1-1.2c-0.1,0-0.1-0.1-0.1-0.2c0,0-0.1,0-0.1,0c0,0-0.1-0.1-0.1-0.1c-0.4-0.4-0.8-0.9-0.9-1.4
		c0-0.1-0.1-0.2-0.1-0.3c0.1-0.2-0.4-0.5-0.1-0.5c0,0,0-0.1,0-0.1c0-0.1,0-0.2,0-0.3c-0.1-0.6-0.1-1.1-0.1-1.7c0,0,0-0.1-0.1-0.1
		c-0.2-0.1-0.4-0.3-0.5-0.5c0,0,0,0,0-0.1c-0.1-0.1-0.2-0.2-0.3-0.3c0,0-0.1-0.1-0.1-0.1c0,0,0,0-0.1,0.1c0,0-0.1,0-0.1,0.1
		c-0.2,0-0.3-0.1-0.4-0.2c-0.2-0.2-0.4-0.3-0.5-0.6c0-0.1,0.1-0.2,0.2-0.1c0-0.1-0.1-0.1-0.1-0.2c-0.3,0-0.5-0.3-0.6-0.5
		c0,0-0.1-0.1,0-0.1l0,0c-0.2-0.3-0.3-0.7-0.3-1.1c0,0,0-0.1,0-0.1c0,0,0,0,0,0c0-0.1,0.1-0.1,0.2-0.1c0,0,0.1,0,0.1,0
		c0,0,0.1,0,0.1,0.1c0,0,0,0,0,0c0-0.1,0.1-0.1,0.2-0.1c0,0,0.1,0,0.1,0c0-0.1,0.1-0.1,0.1,0l0,0c0.2,0,0.3,0.2,0.3,0.3
		c0,0,0.1,0,0.1,0c0,0,0.1,0,0.1,0c0.3,0,0.3,0.5,0.4,0.7c0,0.1,0,0.3,0,0.4c0.1,0,0.2,0.1,0.3,0.2c0.1,0.1,0.2,0.2,0.2,0.3
		c0.1,0.2,0.2,0.3,0.2,0.5c0.1,0.1,0,0.3-0.2,0.3c0.3,0.3,0.5,0.8,0.9,0.9c-0.1-0.1,0-0.4,0.1-0.2c0,0.1,0.1,0.1,0,0.2
		c0,0,0,0,0,0.1c0,0,0,0.1,0.1,0.2c0,0,0.1,0.1,0.1,0.1c0.2,0.2,0.3,0.6,0.5,0.8c0-0.1,0-0.1,0-0.2c0,0,0-0.1,0-0.1
		c0,0-0.1-0.1,0-0.2c0-0.1,0-0.2,0-0.2c0-0.1,0-0.2-0.1-0.3c-0.1-0.2-0.2-0.4-0.3-0.6c-0.1-0.1-0.1-0.3-0.2-0.4c0,0-0.1-0.1,0-0.1
		l0,0c0,0-0.1-0.1-0.1-0.1c0,0,0-0.1-0.1-0.1c0,0-0.1-0.1-0.1-0.2l0,0c0,0,0-0.1-0.1-0.2C12,12,12,11.8,11.9,11.6
		c0,0-0.1-0.1-0.1-0.2c-0.1-0.3-0.2-0.6-0.3-0.9c-0.1,0-0.1-0.1,0-0.1c0,0-0.1-0.1-0.1-0.1c-0.1,0-0.1,0-0.2-0.1
		c-0.1-0.1-0.2-0.2-0.3-0.4c0,0,0-0.1-0.1-0.1c0-0.1-0.1-0.1-0.1-0.2c0-0.1-0.1-0.2-0.1-0.3c0,0,0,0,0.1,0c0,0,0.1,0,0.1,0.1
		c0-0.1,0.1-0.1,0.1,0c0,0,0-0.1,0-0.1C11.1,9.1,11,9,10.9,9c0,0-0.1,0.1-0.2,0c0,0-0.1,0-0.1,0c-0.6,0-0.9-0.6-0.8-1.1
		c0-0.1,0.1-0.2,0.2-0.1c0,0,0.1,0.1,0.1,0.2c0.1,0,0.1,0,0.1,0c0-0.1,0.1,0,0.1,0c0.1,0.1,0.1,0.2,0.1,0.3c0.1,0,0.1,0,0.1,0.1
		c0,0,0.1,0,0.1,0c0,0,0-0.1,0-0.1c-0.3-0.2-0.4-0.6-0.2-0.9c0-0.1,0.1-0.2,0.2-0.3c0,0,0,0,0,0l0,0l0.1,0l0,0c0,0,0.1,0,0.1,0
		c0,0,0.1,0,0.1,0c0,0,0,0,0,0c0,0,0.1,0,0.1,0c0.2,0.2,0.2,0.5,0.2,0.7c0,0.1,0,0.2,0.1,0.1c0,0,0,0,0,0c0,0,0-0.1,0.1-0.1
		c0,0,0.1-0.1,0.1-0.1c0-0.2,0.1-0.4,0.3-0.4c0.1,0,0.2-0.1,0.3-0.1c0,0,0.1,0,0.1,0c0,0.1,0.1,0.2,0.1,0.3l0,0c0,0.1,0,0.2-0.1,0.2
		c0,0.1-0.1,0.1-0.2,0.2c-0.1,0.1-0.2,0.2-0.3,0.2c0,0,0,0.1,0,0.1c0.1,0.1,0.1,0.2,0,0.3c0,0.1-0.1,0.1-0.1,0.2c0,0-0.1,0-0.1,0
		c0,0.1,0,0.1,0,0.2c0,0.1,0,0.2,0,0.4c0,0.1,0,0.2,0,0.3c0,0,0,0.1,0,0.1c0,0.1,0,0.2,0,0.2c0,0-0.1,0-0.1,0.1c0,0-0.1,0-0.1,0.1
		c0,0.1,0,0.1,0,0.2c0,0.1,0.1,0.1,0,0.2c0.1,0.5,0.3,1,0.5,1.4c0,0,0.1,0.1,0.1,0.1c0.1,0.4,0.3,0.8,0.5,1.2
		c0.1,0.1,0.1,0.2,0.2,0.3c0,0,0,0,0,0c0-0.2,0-0.4,0.1-0.6c0,0,0-0.1,0-0.1c-0.1-0.2-0.2-0.3-0.3-0.5c-0.1-0.1-0.2-0.2-0.3-0.4
		c0,0,0,0,0-0.1c-0.1-0.1-0.2-0.1-0.2-0.2c0,0,0-0.1-0.1-0.1c0,0-0.1-0.1-0.1-0.1c0-0.1,0-0.2,0-0.3c0-0.1,0.1-0.1,0.2-0.1
		c0-0.2-0.2-0.4,0.1-0.5c0,0,0,0,0.1,0l0,0c-0.1-0.2-0.2-0.3-0.2-0.6c0-0.2,0-0.4,0.1-0.5c0-0.1,0.1-0.1,0.1-0.2
		c0.1-0.1,0.4,0,0.4,0.2c0,0,0,0,0,0.1c0,0.2,0,0.3,0,0.5c0,0.1,0,0.1-0.1,0.2c0,0,0,0.1-0.1,0.1c0,0,0,0.1-0.1,0.1c0,0,0,0,0,0.1
		c0,0.1,0.2,0.1,0.2,0.2c0,0,0.1,0,0.1,0c0,0,0.1,0,0.1,0.1c0.1,0,0.1-0.1,0-0.2c-0.3-0.2,0-0.6,0.3-0.6l0,0c0,0,0,0,0,0
		c0,0,0-0.1,0-0.1c0,0,0-0.1,0-0.1c0-0.2,0-0.5,0-0.7c0-0.1,0-0.2,0.1-0.3c0,0,0,0,0,0c0.2-0.1,0.4-0.1,0.4,0.1c0,0,0,0.1,0,0.2
		c0,0.1,0,0.3,0,0.4c0,0,0,0.1,0,0.1c0,0,0,0,0,0.1c0,0,0,0.1,0,0.1c0,0.2-0.1,0.4-0.3,0.5c0.1,0,0.1,0.1,0.1,0.1c0,0,0,0,0,0
		c0-0.1,0-0.2,0.2-0.3c0.1,0,0.2,0.1,0.3,0.1c0,0,0,0.1,0.1,0.1l0,0l0,0.1l0,0c0,0.1,0,0.2,0,0.3c0,0.1-0.1,0.2-0.2,0.2
		c0,0.1-0.1,0.1-0.1,0.1c0,0.1-0.1,0.1-0.1,0.1c0,0,0,0.1,0,0.1l0,0c0.1,0.2,0.1,0.4,0.2,0.6c0,0.1,0,0.2,0,0.2
		c0.1,0.2,0,0.4-0.2,0.3c0,0.1,0,0.1,0,0.1c0,0.6-0.1,1.2-0.4,1.7c-0.1,0.4-0.1,0.8-0.1,1.1c0,0,0,0.1,0,0.1c0,0.1,0.1,0.3,0.1,0.4
		c0,0.1,0,0.1,0,0.2c0,0,0,0.1,0,0.1c0,0,0,0.1,0,0.1c0,0.1,0,0.2,0.1,0.3c0,0.1,0,0.2,0.1,0.3c0,0.1,0,0.2,0.1,0.3
		c0,0.1,0.1,0.2,0,0.3c0,0.2,0.1,0.4,0.1,0.5l0,0c0,0.2,0.1,0.3,0.1,0.5c0,0.2,0.1,0.3,0.1,0.5c0,0,0,0.1,0,0.1c0,0.1,0,0.2,0,0.3
		c0,0.1,0,0.2,0,0.3c0,0,0,0.1,0,0.1c0,0.2,0,0.3,0,0.5c0,0.2,0,0.4,0,0.5c0,0.2,0,0.3,0,0.5c0,0,0,0.1,0,0.1c0,0,0,0.1,0,0.1
		c0,0.1,0,0.1,0,0.2c0,0,0,0.1,0,0.1c0,0,0,0.1,0,0.1c0,0,0,0.1,0,0.1c0,0,0,0.1,0,0.1c0,0,0,0,0,0.1c0,0.1,0,0.3,0,0.4
		c0,0.1,0,0.2,0,0.3c0.1-0.1,0.1-0.2,0.2-0.2c0.1-0.1,0.1-0.3,0.2-0.4c0.1-0.2,0.1-0.4,0.2-0.6c0-0.1,0.1-0.3,0.1-0.4
		c0,0,0-0.1,0-0.1c0,0-0.1-0.1,0-0.1c-0.1-0.4-0.2-0.8-0.4-1.2c-0.1-0.2-0.1-0.4-0.1-0.6c0-0.1,0-0.2,0-0.3c0-0.2-0.1-0.5-0.1-0.7
		c0,0,0-0.1,0-0.1c0-0.1-0.1-0.3,0.1-0.3c0.1,0.1,0.1,0.2,0.1,0.3c0,0,0,0,0,0.1c0,0,0,0.1,0,0.2l0,0c0.1,0.1,0.1,0.2,0,0.2l0,0
		c0,0.1,0.1,0.1,0,0.2c0,0,0.1,0.1,0,0.1c0,0.1,0,0.2,0.1,0.2c0.1,0.2,0.1,0.3,0.2,0.5c0,0,0.1,0.1,0.1,0.1c0,0.1,0.1,0.3,0.1,0.4
		c0.1,0.1,0.1,0.5,0.2,0.3c0.1-0.3,0.1-0.5,0.1-0.8c0,0,0-0.1,0-0.1c0-0.3,0-0.5,0-0.8c0,0,0-0.1,0-0.1c0,0,0-0.1,0-0.1
		c0,0,0-0.1,0-0.1c0-0.1,0-0.1,0-0.2c0-0.1,0-0.1,0-0.2c0-0.1,0-0.2-0.1-0.3c0-0.1-0.1-0.3-0.1-0.4c0-0.1,0-0.1,0-0.2
		c0-0.1,0-0.2,0-0.2c-0.1-0.3,0-0.7-0.1-1c-0.1-0.1,0-0.1,0.1-0.1c0.1,0,0.1,0,0.1,0.1c0,0,0,0.1,0,0.1c0,0.1,0.1,0.3,0.1,0.4
		c0,0,0,0.1,0.1,0.2c0,0.1,0,0.3,0.1,0.4c0,0,0,0,0,0.1c0,0.2,0.1,0.3,0.1,0.5l0,0c0,0,0,0.1,0,0.2c0,0,0,0,0,0.1
		c0,0.2,0.1,0.4,0.1,0.5c0,0.1,0,0.2,0,0.2c0,0,0,0.1,0,0.1c0,0,0.1,0.1,0,0.1c0,0,0,0.1,0,0.1c0,0,0,0.1,0,0.1c0,0,0,0.1,0,0.1
		c0,0.1,0,0.2,0,0.4c0,0.1,0,0.2,0,0.3c0,0,0,0.1,0,0.1l0,0c0,0.1,0,0.1,0,0.2c-0.1,0.2-0.2,0.4-0.2,0.6c0,0.1,0.1,0.3,0.1,0.4
		c0,0.1,0.1,0.2,0,0.3c0.1,0.1,0.1,0.3,0.1,0.5c0,0,0,0.1,0,0.1c0,0.1,0,0.3-0.1,0.4l0,0c0,0,0,0.1,0,0.1l0,0c0,0,0,0.1,0,0.1
		c0,0.2,0,0.4-0.1,0.5c0.1,0.2,0.2,0.3,0.3,0.5c0.1,0.2,0.2,0.3,0.3,0.5c0,0.1,0.1,0.1,0.1,0.2c0.1,0.1,0.1,0.2,0.2,0.3
		c0.1,0.1,0.2,0.3,0.2,0.5c0,0.1,0.1,0.1,0.1,0.2c0,0,0,0.1,0,0.1c0,0.2,0.1,0.3,0.2,0.4c-0.3,0.2-0.2,0.7-0.3,1c0,0,0,0.1,0,0.1
		c-0.1,0.2-0.1,0.5-0.2,0.7c0,0.1-0.1,0.3-0.1,0.4c0,0.1-0.1,0.2-0.1,0.3c0,0.1,0,0.2-0.1,0.3c0,0,0,0,0,0.1c0.1,0,0.1,0.1,0.1,0.2
		c0,0.1,0.1,0.2,0.1,0.4c0,0,0,0,0,0.1c0.1,0,0.1,0.1,0.1,0.1c0,0,0,0.1,0,0.1c0,0.1,0,0.2,0.1,0.3c0,0,0.1,0.1,0.1,0.2
		c0,0,0,0.1,0,0.1c0,0,0,0.1,0,0.1c0.2,0,0.3,0,0.3,0.2c0,0,0.1,0,0.1,0c0.1,0,0.2,0,0.2,0c0.1,0,0.1,0.1,0.1,0.2
		c0.1,0.2,0,0.4-0.1,0.5L15.9,31z M8.9,18.7c0,0-0.1-0.1-0.1-0.1c0-0.1-0.1-0.2-0.1-0.2c0,0-0.1,0-0.1,0.1c0,0,0.1,0.1,0,0.1
		c0,0,0,0.1,0,0.1c0,0.1,0.1,0.2,0.1,0.3c0,0,0,0,0,0c0.1,0,0-0.1,0-0.2C8.9,18.8,8.9,18.7,8.9,18.7z M8.6,18.7c0-0.1,0-0.1-0.1-0.2
		c0,0,0-0.1,0-0.2c0-0.1,0-0.2-0.1-0.3c0,0-0.1-0.1-0.1-0.2c0,0,0-0.1,0-0.1c0,0-0.1-0.1-0.1-0.1c0,0,0,0,0,0c0,0-0.1,0-0.1,0
		c0,0,0,0.1,0,0.1c0.1,0.1,0.1,0.2,0.1,0.3c0.1,0.1,0,0.3-0.1,0.4c0.1,0.1,0.2,0.3,0.3,0.4c0,0.1,0.1,0.1,0.1,0.2
		C8.7,18.9,8.7,18.8,8.6,18.7z M8,19.2c0.1,0.2,0.2,0.3,0.3,0.5c0,0.1,0.1,0.1,0.2,0.1c0.1,0,0.1,0.1,0.1,0.1c0,0,0.1,0,0.1,0.1
		c0.1,0.1,0,0.3,0.2,0.3c0-0.1,0-0.1,0.1-0.2C9,20.1,9.1,20,9,19.8c0-0.1-0.1-0.2-0.1-0.3c0,0-0.1-0.1-0.1-0.1c0,0-0.1,0-0.1-0.1
		c0-0.1-0.1-0.1-0.1-0.2c0,0-0.1,0-0.1-0.1c0,0-0.1-0.1-0.1-0.1c-0.1-0.4-0.5-0.4-0.6-0.7c0,0,0,0.1,0,0.1C7.7,18.6,7.9,18.9,8,19.2
		z M9,17.9c0,0,0,0.1,0,0.1c0,0,0,0.1,0,0.1c0,0,0,0.1,0,0.1c0,0,0,0.1,0,0.1c0,0.4,0.3,0.7,0.2,1.1c0,0,0,0.1,0,0.1c0,0,0,0,0,0
		C9.1,19,9.4,18.2,9,17.9z M12.5,14.2c0,0.1,0,0.1,0,0.2c0,0.1,0,0.1,0,0.2c0,0.1,0,0.1,0,0.2c0,0,0,0.1,0,0.1c0,0.1,0,0.2,0,0.2
		c0,0.1,0,0.1,0,0.2c0,0,0,0.1,0,0.1c0,0.1,0,0.1,0,0.2c0,0.1,0,0.2,0,0.3c0.1-0.1,0.2,0,0.1,0.1c0,0,0,0.1,0,0.1c0,0.1,0,0.1,0,0.2
		c0,0.2,0.1,0.3,0.1,0.5c0.1,0.5,0.4,0.8,0.7,1.2c0.1,0,0.2,0.1,0.2,0.2c0,0,0-0.1,0-0.1l0,0c0-0.1-0.1-0.3-0.1-0.4
		c-0.1-0.2-0.1-0.4-0.1-0.6c0-0.1-0.1-0.2,0-0.2c-0.1-0.3-0.1-0.5-0.2-0.8c0,0,0-0.1,0-0.1c0-0.2-0.1-0.3-0.1-0.5l0,0
		c0,0-0.1-0.1,0-0.1c0,0,0-0.1,0-0.1C12.9,14.8,12.7,14.5,12.5,14.2z M13.2,11.5C13.2,11.5,13.2,11.5,13.2,11.5c0-0.1,0-0.1,0-0.2
		c0,0-0.1-0.1-0.1-0.1c-0.1,0-0.2-0.1-0.2-0.1c-0.1,0-0.1,0-0.2,0.1c0,0,0,0,0,0.1c0,0,0,0.1,0,0.2c0,0,0,0.1,0,0.1
		c0,0.1,0.1,0.3,0.1,0.4l0,0c0,0,0.1,0.1,0.1,0.1c0,0.2,0.1,0.3,0.2,0.5c0,0,0,0,0,0C13.2,12.2,13.1,11.8,13.2,11.5z M12.8,12.2
		C12.8,12.2,12.8,12.1,12.8,12.2C12.8,12.1,12.8,12.1,12.8,12.2c0-0.2-0.1-0.4-0.1-0.5l0,0c0,0.1,0,0.1,0,0.2
		C12.7,12,12.8,12.1,12.8,12.2z M12.3,11.1C12.4,11.1,12.4,11.1,12.3,11.1c0.2,0.2,0.2,0.3,0.3,0.4c0,0,0-0.1,0-0.1
		c0-0.1,0-0.2-0.1-0.2l0,0c0,0,0,0,0-0.1C12.5,11.1,12.4,11.1,12.3,11.1z M13.4,13.6c0-0.1,0-0.2,0.1-0.2c0-0.1,0-0.1,0-0.2
		c0,0,0-0.1,0-0.1c0,0,0-0.1,0-0.1c0-0.1,0-0.2,0-0.3c0-0.1,0-0.1,0-0.2c0,0,0-0.1,0-0.1c0,0,0,0,0-0.1c0-0.1-0.2-0.1-0.2-0.2
		c0,0,0-0.1,0-0.1c0,0-0.1-0.1-0.1-0.1c0,0.1,0,0.2,0,0.2c0,0,0,0.1,0,0.1c0,0.1,0,0.2,0,0.3c0,0.1,0,0.1,0.1,0.2
		c0.2-0.2,0.2,0.1,0,0.2c0,0,0,0.1,0,0.1c0,0,0,0.1,0,0.1c0,0.2,0,0.4,0,0.6c0,0.1,0,0.2,0,0.2C13.3,13.8,13.4,13.7,13.4,13.6z
		 M15,22.8C15,22.8,15,22.8,15,22.8c0-0.5-0.1-0.8-0.1-1.2c0,0,0-0.1,0-0.1c0,0,0-0.1,0-0.1c0,0,0,0,0,0c0,0,0,0,0,0
		c0,0.1,0,0.1-0.1,0.2c0,0.1-0.1,0.3-0.1,0.4c-0.1,0.3-0.3,0.7-0.5,1c0,0.2,0.1,0.3,0.1,0.5c0,0,0,0.1,0.1,0.1c0-0.1,0-0.1,0.1-0.2
		c0-0.2,0.1-0.1,0,0c0,0.1,0,0.2-0.1,0.3c0,0,0,0.1-0.1,0.1c0.1,0.2,0.1,0.5,0.2,0.7c0,0.2,0.1,0.4,0.1,0.6c0,0,0.1,0.1,0.1,0.1l0,0
		c0.1-0.2,0.1-0.5,0.2-0.7l0,0c0-0.2,0-0.4,0.1-0.6c0-0.1,0-0.2,0-0.3c0,0,0-0.1,0-0.1c0.1-0.3-0.1-0.6-0.3-0.8
		c-0.1-0.1,0.1-0.3,0.2-0.1c0.1,0.1,0.1,0.3,0.2,0.4C14.9,22.9,14.9,22.9,15,22.8z M15.8,27.6c0.2-0.7,0.4-1.4,0.3-2.1
		c-0.3-0.7-0.8-1.4-1.1-2.1c0,0.1,0,0.2,0,0.3c0,0.1,0,0.1,0,0.2c0,0.2-0.1,0.4-0.1,0.6c0,0,0,0,0,0.1c0,0.1,0,0.3-0.1,0.4
		c0,0,0,0.1,0,0.1c0,0.1,0,0.1-0.1,0.2c0,0.2,0.1,0.5,0.1,0.7c0,0.1,0.1,0.2,0.1,0.2c0,0,0,0.1,0.1,0.2c0,0,0,0,0,0.1
		c0,0.1,0,0.2,0.1,0.3c0,0.1,0,0.1,0.1,0.2c0,0.1,0.1,0.3,0.1,0.4c0,0,0.1,0.1,0.1,0.1c0,0.1,0.1,0.1,0.1,0.2c0,0.1,0,0.2,0.1,0.3
		c0,0,0.1,0.1,0.1,0.2l0,0c0.1,0.2,0.1-0.1,0.2-0.2C15.7,27.9,15.7,27.7,15.8,27.6z M9.3,22.8c0.1,0.4,0.4,0.7,0.7,1
		c0-0.3-0.2-0.6-0.2-0.9c-0.1,0-0.1-0.1-0.1-0.1c0-0.1,0-0.1,0-0.2c0,0-0.1-0.1-0.1-0.2c-0.1-0.3-0.1-0.5-0.2-0.8c0-0.1,0-0.1,0-0.2
		c0-0.1-0.1-0.3-0.1-0.5c0-0.1-0.1-0.2-0.2-0.3c0,0,0,0-0.1,0c0,0-0.1,0-0.1,0c0,0-0.1,0-0.1,0c0,0.1,0,0.1-0.1,0.2c0,0,0,0.1,0,0.1
		c0,0.3,0.1,0.5,0.3,0.7c0,0,0,0,0,0c0,0,0-0.1,0-0.2c0-0.1,0-0.1,0-0.2c0,0,0-0.1,0-0.1c0,0,0-0.1,0-0.2c-0.1-0.2,0.1-0.5,0.2-0.1
		l0,0c0,0,0,0.1,0,0.2c0,0.2,0.1,0.4,0.1,0.6l0,0c0,0,0,0.1,0,0.1c0,0,0,0.1,0,0.1c0,0.1-0.1,0.1-0.2,0.2c0,0,0,0,0,0.1
		C9.1,22.6,9.2,22.7,9.3,22.8z"/>
</g>
</svg>
