<?xml version="1.0" encoding="utf-8"?>
<!-- Generator: Adobe Illustrator 25.2.3, SVG Export Plug-In . SVG Version: 6.00 Build 0)  -->
<svg version="1.1" id="hamster" xmlns="http://www.w3.org/2000/svg" xmlns:xlink="http://www.w3.org/1999/xlink" x="0px" y="0px"
	 viewBox="0 0 32 32" style="enable-background:new 0 0 32 32;" xml:space="preserve">
<style type="text/css">
	.st0{fill:#FFFFFF;}
</style>
<path class="st0" d="M26.7,20.1c0.1,0.9,0.1,1.8,0.1,2.8c0,0.8-0.3,1.7-0.6,2.4c-0.2,0.6-0.4,1.2-0.7,1.7c-0.6,1.2-1.4,2.7-3,2.6
	c-1.1-0.1-2.5,0.4-3.3-0.5c-0.1,0-0.2,0.1-0.2,0.2c-0.1,0.1-0.2,0.2-0.3,0.2c-0.1,0-0.2,0-0.3,0c-0.1,0.3,0.1-0.6,0.1-0.3
	c0,0.2,0,0.4-0.1,0.5c-0.1,0.4-0.5,0.4-0.8,0.7c-0.4,0.4-1.3,0.8-1.9,0.4c-0.1,0-0.2,0-0.3,0c-0.3,0-0.6,0-0.8,0
	c-0.1-0.1-0.2-0.3-0.4-0.3c0,0,0,0-0.1,0c-0.2,0-0.4,0-0.6,0c-0.1,0-0.1-0.1-0.2-0.2c-0.2-0.7,0.4-1,1-1.2c0.5-0.2,0.9,0,1.3-0.3
	c0.3-0.3,0.7,0.6,0.7,0.3h-0.1c-1.1-0.7-1.4-2.4-1.4-3.6c0-0.5,0-1,0.1-1.5c-0.1-0.1-0.2-0.2-0.2-0.3c0-0.1-0.1-0.2-0.1-0.3
	c0-0.2,0.1-0.2-0.1-0.2c-0.3-0.1-0.5-0.4-0.6-0.7c-0.2-0.3-0.3-0.7-0.5-1c-0.3,0-0.6-0.1-0.8-0.3c-0.2-0.3-0.2-0.3-0.6-0.3
	c-0.2,0-0.4-0.1-0.5-0.3c-0.2-0.2-0.3-0.4-0.4-0.6c0-0.1,0-0.1,0-0.2c0,0,0,0-0.1,0c-0.5,0-0.6-0.4-0.7-0.8l-0.1,0.1
	c-0.2,0.1-0.4,0-0.5-0.1c-0.2,0-0.3,0.2-0.5,0.1C9,19.1,9,18.9,9,18.7l0,0H8.9l0,0c-0.4,0.3-0.8,0.5-1.2,0.1
	c-0.2-0.2-0.3-0.6-0.4-0.9S7.1,17.3,7.1,17c0-0.4,0.2-0.7,0.5-0.9l0,0c0-0.2,0.1-0.4,0.2-0.5c-0.1-0.1-0.1-0.3-0.1-0.4
	c0-0.2,0.1-0.3,0.2-0.4c-0.3-0.4-0.1-1,0.1-1.3C8,13.6,7.8,13,7.8,13c0-0.2,0-0.5,0.1-0.7c0-0.2,0-0.4,0.1-0.6
	c0.1-0.3,0.1-0.2,0-0.4c0-0.1,0-0.2,0-0.3s0-0.3,0.1-0.4c0.1-0.2,0.1-0.4,0.1-0.5c0-0.2,0.1-0.5,0.2-0.7l0,0C8.2,9.2,8.1,9,8.1,8.7
	C7.7,8.8,7.3,8.9,7,9.1C6.6,9.3,6,9.5,5.7,9.9C5.6,10,5.5,10.1,5.3,10c-0.1-0.1-0.1-0.2,0-0.3C5.6,9.2,6.1,9,6.5,8.8
	c0.3-0.1,0.6-0.4,0.9-0.5c0.2,0,0.4-0.1,0.6-0.1l0,0C8,8.1,8,8,8,7.9c-0.2-0.1-0.7-0.1-1,0C6.5,7.9,6.1,8,5.6,8.2
	c-0.1,0-0.2,0-0.3-0.2c0-0.1,0-0.2,0.2-0.3c0.8-0.2,1.8-0.5,2.7-0.3V7.3C7.5,7,6.9,6.6,6.1,6.7C5.8,6.7,5.7,6.3,6,6.3
	c0.4-0.1,0.9,0,1.3,0.1c0.3,0.1,0.7,0.3,1,0.5l0,0C8.4,6.4,8.6,5.7,9,5.4C9.2,5.2,9.4,5,9.6,4.8c0,0,0.1,0,0.1-0.1
	c0-0.3,0.1-0.5,0.4-0.6c-0.1-0.5,0.2-0.9,0.5-1.2c0-0.6,0.3-1.6,0.9-1.8h0.1c0.1,0,0.1,0,0.2,0c0.2,0,0.3,0.1,0.4,0.2
	c0.2,0.1,0.2,0.4,0.3,0.5c0.2,0.2,0.3,0.4,0.3,0.7c0.1,0,0.2,0.1,0.3,0.1c0.1,0.1,0.3,0,0.4,0c0.2,0,0.4,0,0.5,0.1s0.2,0.2,0.4,0.3
	c0.4-0.2,1.1-0.1,1.3,0.2c0.4,0,0.8-0.1,1.2,0c0.3,0.1,0.5,0.3,0.8,0.3c0.1,0,0.1,0.1,0.2,0.1c0.3-0.1,0.7-0.2,1-0.3
	c0.4-0.1,0.8-0.2,1.1-0.2c0.8,0,0.8,0.5,0.9,1.2c0.3,1.3-0.1,2.8-1.3,3.4c0.1,0.1,0.3,0.1,0.3,0.2C20,8,20.1,8.1,20.2,8.2
	c0.2,0.2,0.2,0.5,0.3,0.6C21,9,21.3,9,21.5,9.2s0.3,0.4,0.4,0.7c0.4,0.1,0.7,0.4,0.9,0.8c0.2,0.2,0.4,0.4,0.6,0.6
	c0.2,0.2,0.4,0.4,0.6,0.7v0.1c0.2,0.5,0.5,1.3,0.8,1.5c0.3,0.3,0.6,0.6,0.7,1c0.4,1,0.9,2.2,1,3.4C26.7,18.8,26.6,19.4,26.7,20.1
	L26.7,20.1z M15.4,6c0-0.1,0-0.2,0-0.3c-0.1-0.2-0.3-0.3-0.5-0.4c-0.2,0-0.3-0.1-0.5,0c-0.2,0-0.3,0.1-0.3,0.3c0,0.2,0,0.4,0.1,0.6
	s0.4,0.3,0.6,0.2C15,6.3,15.2,6.2,15.4,6z"/>
</svg>
