<?xml version="1.0" encoding="utf-8"?>
<!-- Generator: Adobe Illustrator 25.4.1, SVG Export Plug-In . SVG Version: 6.00 Build 0)  -->
<svg version="1.1" id="hamster" xmlns="http://www.w3.org/2000/svg" xmlns:xlink="http://www.w3.org/1999/xlink" x="0px" y="0px"
	 viewBox="0 0 32 32" style="enable-background:new 0 0 32 32;" xml:space="preserve">
<path d="M26.3394,19.4865c0.0725,0.8889,0.0903,1.7814,0.0535,2.6725c-0.0115,0.779-0.3297,1.604-0.6137,2.3215
	c-0.1875,0.5721-0.4085,1.1327-0.662,1.6787c-0.6235,1.1415-1.385,2.6417-2.925,2.5017c-1.055-0.094-2.3845,0.3415-3.2135-0.4395
	c-0.0998,0.0329-0.1851,0.0993-0.2415,0.188c-0.0629,0.106-0.1649,0.1832-0.284,0.215c-0.0966,0.0323-0.2029,0.0166-0.286-0.0422
	c-0.094,0.284,0.0767,0.4375,0.094,0.7232c0.015,0.1738-0.0032,0.3489-0.0535,0.516c-0.1075,0.3472-0.5315,0.4145-0.7732,0.637
	c-0.4125,0.3817-1.2797,0.7827-1.7977,0.3625c-0.0805,0.0135-0.165,0.0212-0.2512,0.027c-0.2664,0.0408-0.5384,0.0245-0.798-0.048
	c-0.1325-0.0518-0.2227-0.2552-0.3435-0.2762c-0.0187-0.0018-0.0369-0.0069-0.0538-0.0152
	c-0.1986,0.0262-0.4003,0.0151-0.5947-0.0327c-0.0745-0.0208-0.1327-0.079-0.1535-0.1535c-0.161-0.6617,0.3952-0.925,0.9287-1.1317
	c0.4372-0.169,0.9015-0.0115,1.3045-0.3225c0.3127-0.2417,0.6637-0.3797,0.6465-0.7557c-0.0327-0.004-0.0641-0.0152-0.092-0.0327
	c-1.0937-0.6617-1.3527-2.3117-1.393-3.4972c-0.0273-0.4861,0.0173-0.9736,0.1325-1.4467c-0.1079-0.0645-0.1905-0.164-0.234-0.282
	c-0.0406-0.0833-0.0672-0.1728-0.0787-0.2647c-0.0135-0.2052,0.073-0.1802-0.1132-0.2302c-0.2857-0.0765-0.4432-0.42-0.55-0.658
	c-0.1482-0.3202-0.3027-0.6369-0.4637-0.9502c-0.2815-0.0094-0.5475-0.131-0.7387-0.3377c-0.2397-0.2475-0.211-0.3107-0.5525-0.3107
	c-0.1841-0.02-0.3524-0.113-0.4672-0.2582c-0.1698-0.1603-0.2925-0.364-0.355-0.589c-0.0075-0.0615-0.0153-0.1227-0.021-0.1842
	c-0.0212,0-0.0422-0.0018-0.071-0.0018c-0.52,0-0.6157-0.353-0.7137-0.7712c-0.0249,0.0436-0.0615,0.0794-0.1055,0.1035
	c-0.1594,0.0876-0.3588,0.0461-0.47-0.0977c-0.1842,0.044-0.3205,0.1725-0.525,0.142c-0.161-0.0233-0.213-0.2227-0.2302-0.3607
	c-0.0143,0.0157-0.0297,0.0304-0.046,0.044c-0.0268,0.0199-0.0566,0.0354-0.0882,0.046c-0.01,0.0147-0.0223,0.0277-0.0365,0.0385
	c-0.3682,0.3222-0.821,0.5142-1.2067,0.119c-0.2032-0.2092-0.2685-0.5737-0.3605-0.8385c-0.1081-0.2714-0.1678-0.5597-0.1765-0.8517
	c0.0093-0.3481,0.1891-0.6695,0.481-0.8595c0-0.002-0.002-0.002-0.002-0.0037c0.0013-0.1859,0.0782-0.3632,0.213-0.4912
	c-0.0811-0.1095-0.1123-0.2481-0.086-0.3817C8.0025,14.7597,8.069,14.624,8.1649,14.51c-0.2455-0.3797-0.1417-0.919,0.0692-1.2892
	c-0.0402,0.071-0.2302-0.4565-0.238-0.5c-0.0213-0.2248,0.0241-0.4508,0.1305-0.65c-0.0374-0.2142,0.0013-0.4347,0.1092-0.6235
	c0.121-0.2475,0.096-0.15,0.0385-0.4c-0.0248-0.1079-0.0409-0.2177-0.048-0.3282c-0.0037-0.1254,0.0363-0.2482,0.1132-0.3472
	c0.125-0.1515,0.069-0.3432,0.0785-0.516c0.0157-0.2347,0.0903-0.4618,0.217-0.66c-0.0098-0.0077-0.023-0.0135-0.0328-0.021
	c-0.1656-0.2106-0.247-0.4752-0.2282-0.7425C7.989,8.508,7.6159,8.6357,7.2652,8.8121c-0.42,0.2092-1.007,0.375-1.2642,0.7962
	C5.9388,9.7137,5.803,9.7488,5.6976,9.6867s-0.1405-0.198-0.0784-0.3034c0.284-0.4642,0.777-0.6312,1.2432-0.8632
	c0.261-0.1305,0.6177-0.4105,0.9035-0.4605c0.2052-0.0365,0.4145-0.0595,0.6217-0.0882V7.9446
	c0.0037-0.0882,0.0075-0.1707,0.0115-0.2515c-0.2897-0.1285-0.827-0.0825-1.1282-0.044c-0.4329,0.0666-0.861,0.1615-1.2815,0.284
	c-0.1174,0.0329-0.2391-0.0356-0.272-0.153c-0.0329-0.1174,0.0356-0.2391,0.153-0.272c0.754-0.2,1.7767-0.5162,2.575-0.2647
	c0.0077-0.0422,0.0173-0.0845,0.0267-0.125c-0.656-0.2955-1.3082-0.706-2.05-0.6c-0.2782,0.0382-0.4-0.3857-0.119-0.425
	C6.71,6.022,7.1284,6.057,7.5177,6.1951c0.3567,0.14,0.702,0.3205,1.0532,0.4835c-0.0002-0.0077,0.0004-0.0154,0.0017-0.023
	c0.0865-0.4625,0.309-1.1665,0.7117-1.4465c0.2342-0.1612,0.357-0.4337,0.612-0.5852c0.0385-0.0217,0.0791-0.0397,0.121-0.0537
	c0.0024-0.2542,0.1377-0.4886,0.3567-0.6177c-0.0632-0.491,0.1457-0.8287,0.4855-1.1817c-0.0327-0.6157,0.3-1.5807,0.9112-1.7362
	c0.0313-0.0083,0.0639-0.0103,0.096-0.0057c0.0569-0.0239,0.1189-0.0331,0.1802-0.0267c0.1456,0.01,0.2841,0.0664,0.3952,0.161
	c0.1535,0.119,0.1477,0.3875,0.3107,0.5277c0.1672,0.1851,0.2676,0.4209,0.2852,0.6697c0.0979,0.0145,0.1907,0.0527,0.2705,0.1112
	c0.125,0.094,0.275,0.0152,0.4202,0.0152c0.1805-0.0109,0.36,0.034,0.5142,0.1285c0.1112,0.0875,0.2271,0.1689,0.3472,0.2437
	c0.3625-0.1555,1.0187-0.0767,1.2565,0.2147c0.38,0.0155,0.752-0.092,1.1435,0.0155c0.2685,0.075,0.4835,0.2455,0.75,0.3185
	c0.0694,0.018,0.1342,0.0506,0.19,0.0957c0.3183-0.1145,0.6456-0.2024,0.9785-0.2627c0.3615-0.1079,0.7342-0.1741,1.1107-0.1975
	c0.798-0.0115,0.7635,0.4852,0.896,1.1662c0.2417,1.2432-0.0615,2.7302-1.2912,3.2615c0.0787,0.0595,0.286,0.1325,0.3377,0.167
	c0.1171,0.0739,0.2247,0.162,0.3202,0.2622c0.1535,0.1632,0.1862,0.4605,0.3357,0.6c0.215,0.1977,0.543,0.225,0.7445,0.4547
	c0.1565,0.2008,0.2921,0.417,0.4047,0.6452c0.3887,0.1409,0.7101,0.4232,0.9,0.7905c0.1824,0.2254,0.384,0.4345,0.6025,0.625
	c0.199,0.2099,0.3828,0.4336,0.55,0.6695c0.0285,0.0394,0.0421,0.0877,0.0382,0.1362c0.2052,0.4432,0.4605,1.2547,0.7425,1.4982
	c0.3103,0.2473,0.5525,0.5695,0.704,0.9362c0.4067,0.9937,0.898,2.1237,0.919,3.252c0.1222,0.6567,0.0407,1.3225,0.1137,1.9785
	H26.3394z M12.1496,16.7322c0.0024-0.0046,0.0049-0.0091,0.0077-0.0135c-0.002,0-0.0037,0.002-0.0057,0.002
	c0.0005,0.0012-0.0015,0.0045-0.0015,0.009L12.1496,16.7322z M15.0931,5.6334c0.0332-0.0706,0.0274-0.1534-0.0152-0.2187
	c-0.0858-0.1289-0.2017-0.235-0.3377-0.309c-0.1243-0.0358-0.2558-0.0391-0.3817-0.0095c-0.138,0.0287-0.2417,0.0612-0.2475,0.2225
	c-0.0239,0.1575,0.0001,0.3186,0.069,0.4622c0.1094,0.1473,0.3009,0.2077,0.475,0.15C14.8374,5.9007,14.9976,5.7919,15.0931,5.6334z
	"/>
</svg>
