<?xml version="1.0" encoding="utf-8"?>
<!-- Generator: Adobe Illustrator 25.4.1, SVG Export Plug-In . SVG Version: 6.00 Build 0)  -->
<svg version="1.1" id="zebrafish" xmlns="http://www.w3.org/2000/svg" xmlns:xlink="http://www.w3.org/1999/xlink" x="0px" y="0px"
	 viewBox="0 0 32 32" style="enable-background:new 0 0 32 32;" xml:space="preserve">
<path d="M20.2,11.4c-0.2,0-1.3,0.3-1.5,0.3c-0.1,0.1-1.9,0.7-2.1,0.8c-0.4,0.2-1.5,0.3-2.3,0.1c-1.9-0.2-5,0-6.7,0.3
	C7.3,13,6.2,13.2,6,13.2c-0.5,0.1-1.6,0.4-2,0.5c-0.6,0.1-1.5,0.4-1.7,0.5c-0.1,0.1-1.1,0.6-1.1,0.7C1,15.1,1,15.5,1.1,15.5
	c0,0,0.1,0.1,0.2,0.3c0.1,0.3,0.3,0.6,0.6,0.9c0.3,0.3,1.4,0.8,2,1c1.8,0.6,3.9,1.1,4.2,1.2c1,0.3,2.6,0.5,4.1,0.5h1
	c0,0,1.3,0.7,1.7,0.8c0.4,0.1,0.6-0.1,0.7-0.4c0-0.3,0.1-0.7,0-0.8v-0.1c0.1-0.1,0.8-0.2,0.9-0.2c0.2-0.1,0.2-0.1,0.3,0.1
	c0.1,0.1,1.3,1.4,1.4,1.5c0.7,0.7,1.2,0.4,1.3,0.4s0.2-0.1,0.4-0.2c0.2-0.1,0.5-0.3,0.6-0.3s1.8-1.5,1.9-1.5
	c0.2-0.1,0.5-0.5,0.5-0.7c0-0.1,0-0.1,0.1-0.2s0.1-0.3,0-0.4c0,0,0.2,0,0.4,0s1,0.1,2,0.5c0.1,0.1,0.6,0.3,1.1,0.6
	c0.2,0.1,0.6,0.3,1,0.6c0.4,0.2,0.8,0.5,0.9,0.5c0.7,0.4,1,0.6,1.6,0.4s0.9-1.4-0.1-2.2c-1.4-1.1-0.7-1.5-0.6-1.7
	c0.3-0.3,1-1,1.2-1.2c0.4-0.4,0.6-1,0.5-1.3c-0.1-0.4-0.9-1-2.8-0.3c-0.1,0-0.5,0.2-0.8,0.4s-0.8,0.4-1,0.4s-1.1,0.4-1.9,0.3
	c-1.2-0.2-2.4-0.3-3.7-0.5c-0.1,0-0.2-0.2-0.1-0.3c0,0,0.1-0.2,0.2-0.4c0.2-0.7,0-1.8-0.4-2C20.4,11.4,20.3,11.4,20.2,11.4z
	 M11.8,13.6c0.6,0,1.1,0,1.5,0s1.2,0.1,1.8,0.1c1.1,0,1.8,0.1,2,0.2c0.1,0,0,0.1-0.2,0c-0.5-0.1-8.3,0-8.8,0c-0.2,0-0.6,0.1-0.9,0.1
	c-0.4,0.1-1,0.2-1.4,0.2c-0.1-0.1-0.4-0.4-0.5-0.4c0-0.1,0.3,0,0.6,0c0.1,0,0.4,0,0.6-0.1c0.2,0,0.5-0.1,0.8-0.1
	c0.2,0,0.6,0,0.8-0.1C8.8,13.6,10.4,13.6,11.8,13.6z M12.2,14.6c0.9,0,1.8,0,2.5,0c2.1,0,3,0.1,4.4,0.2c0.2,0,0.5,0.1,0.6,0.1
	c0.3,0,1.5,0.1,2.1,0.2c0.3,0,0.7,0.1,0.8,0.1c0.2,0,0.5,0.1,0.7,0.1s0.5,0.1,0.6,0.1s0.3,0,0.3,0.1c0,0,0.2,0,0.3,0
	c0.2,0,0.5,0,0.7,0.1c0,0,0.1,0.1,0,0.1c-0.1,0.1-0.1,0.1-0.3,0c-0.1,0-0.5-0.1-0.9-0.1s-0.8-0.1-0.8-0.1s-0.4-0.1-0.8-0.1
	c-0.3,0-0.6-0.1-0.9-0.1c-0.2-0.1-1.5-0.2-2.5-0.2c-0.6,0-1.2,0-1.2-0.1c-0.1,0-0.5,0-1-0.1c-0.5,0-1.1-0.1-1.3-0.1
	c-0.3-0.1-0.5-0.1-0.8,0c-0.2,0-0.5,0-0.5,0s-1,0-2.2-0.1c-1.6,0-2.3,0-2.6,0C9,15,7.3,15.1,7.1,15.1c-0.1,0-0.8,0-1,0
	C6,15,6,14.8,6,14.7c-0.1-0.1,0.3,0,1,0.1c0.6,0,1.2,0,2.2-0.1C9.5,14.7,10.8,14.6,12.2,14.6z M27.6,15c0.1,0,0.1,0,0.2,0
	s0.3,0,0.5,0c0.1,0,0.2,0,0.2,0.1s-0.7,0.1-0.8,0C27.4,15.1,27.4,15,27.6,15z M27.5,15.8c0.6,0,0.8,0,0.9,0.1c0.1,0.1,0.1,0.1,0,0.1
	s-0.1,0-0.2,0S27.9,15.9,27.5,15.8C26.6,15.9,26.6,15.8,27.5,15.8z M8.2,16h0.5c1.2,0,3.2,0.1,3.8,0.2c0.2,0,1.1,0,2.1,0
	c5.2-0.1,5.8,0,6.8,0.2c0.2,0,0.7,0.1,1.1,0.1s0.9,0.1,1,0.1s0.5,0.1,0.8,0.1c0.5,0.1,0.7,0.1,0.5,0.2c-0.1,0.1-0.2,0.1-0.9,0
	c-0.3,0-0.8-0.1-1.2-0.1s-0.8-0.1-1-0.1c-0.3-0.1-0.5-0.1-1-0.2c-1.6-0.2-4.5-0.3-4.8-0.1c-0.1,0.1-3,0-3.9-0.1
	c-0.2,0-0.7-0.1-0.9-0.1c-0.4,0-0.7,0-1.1-0.1c-0.6,0-2.3,0-2.4,0S7.4,16,7.4,15.9C7.6,16,7.7,16,8.2,16z M26.2,16.6
	c0.1,0,0.1,0,0.3,0c0.4,0,1.1,0.3,1.4,0.4l0.2,0.1h-0.2c-0.1,0-0.3,0-0.4-0.1c-0.2-0.1-0.4-0.1-0.7-0.1
	C26.1,16.8,26.1,16.8,26.2,16.6C26.1,16.6,26.1,16.6,26.2,16.6z M21.6,17c0.3,0,0.5,0,0.4,0.1c0,0-0.2,0.1-0.4,0.1l-1.2,0.1
	c-0.4,0-0.8,0.1-1.1,0.1c-0.2,0-0.7,0.1-1.1,0.1s-0.8,0.1-1,0.1c-0.3,0-0.6,0.1-0.8,0.1c-0.1,0-0.3,0.1-0.5,0.1s-1.2,0-2.2,0.1
	c-1.4,0-1.8,0-2-0.1c-0.1,0-0.3-0.1-0.4-0.1c-0.1,0-0.1,0-0.1-0.1l0.1-0.1c0.1-0.1,0.1-0.1,0.4,0c0.2,0,0.5,0.1,0.8,0.1s0.7,0,1,0
	c0.4,0,0.9,0,2.4-0.1c0.3,0,0.5-0.1,0.6-0.1c0.1-0.1,1.1-0.2,3.2-0.3c0.5,0,1-0.1,1.5-0.1C21.4,17.1,21.5,17.1,21.6,17L21.6,17
	L21.6,17z M26.4,17.7c0.1,0,0.2,0,0.5,0.1s0.3,0.1,0.3,0.2c-0.1,0.1-0.1,0.1-0.5,0c-0.3-0.1-0.4-0.1-0.4-0.2S26.3,17.7,26.4,17.7z
	 M22.1,18.2C22.2,18.2,22.1,18.2,22.1,18.2c0,0.1-0.2,0.2-0.3,0.2c-0.2,0.1-0.4,0.1-0.6,0.2h-0.3l0.2-0.1c0.1,0,0.4-0.1,0.6-0.2
	C22,18.3,22.1,18.2,22.1,18.2z M20.8,18.7l-0.2,0.1c-0.1,0-1.5,0.3-1.7,0.3c-0.4,0-0.9-0.1-0.6-0.1c0.1,0,2-0.2,2.2-0.2L20.8,18.7z
	 M14.1,19.4L14.1,19.4c0.1,0,0.7,0.4,0.7,0.4c0,0.1-0.3,0.1-0.6-0.1C14,19.6,14,19.4,14.1,19.4z M4.1,15.3c0,0.5-0.4,0.8-0.8,0.8
	c-0.5,0-0.8-0.4-0.8-0.8s0.3-0.8,0.8-0.8S4.1,14.9,4.1,15.3z M3.7,15.3c0,0.2-0.2,0.4-0.4,0.4s-0.4-0.2-0.4-0.4s0.1-0.4,0.4-0.4
	S3.7,15.1,3.7,15.3z"/>
</svg>
