<?xml version="1.0" encoding="utf-8"?>
<!-- Generator: Adobe Illustrator 25.4.1, SVG Export Plug-In . SVG Version: 6.00 Build 0)  -->
<svg version="1.1" id="horse" xmlns="http://www.w3.org/2000/svg" xmlns:xlink="http://www.w3.org/1999/xlink" x="0px" y="0px"
	 viewBox="0 0 32 32" style="enable-background:new 0 0 32 32;" xml:space="preserve">
<path d="M31,7.7c0-0.1-0.1-0.2-0.2-0.3c-0.8-0.9-1.8-1.8-2.1-3c-0.1-0.4-0.6-0.6-0.6-1c0-0.3,0.2-0.7,0.2-1.1c0-0.1,0.1-0.2,0-0.3
	c-0.1,0-0.1,0.1-0.2,0.2c-0.2,0.3-0.5,0.6-0.8,0.8c0-0.3,0.1-0.6,0.1-0.9c0-0.1,0.1-0.2,0-0.2S27.3,2,27.2,2
	c-0.5,0.7-1.1,1.1-1.9,1.4c-0.6,0.2-1.1,0.4-1.7,0.7C22.9,4.6,22,5,21.3,5.6s-1.4,1.1-2.1,1.8c-0.3,0.3-0.7,0.8-1.1,0.9
	c-0.8,0.3-1.7,0.5-2.6,0.7l0,0c0,0,0,0-0.1,0.1c0,0,0,0-0.1,0h-0.1h-0.1L15,9.2l0,0c-0.2,0.1-0.3,0.1-0.5,0.2
	c-0.3,0-0.5,0.1-0.8,0.1c-1.3,0.2-2.6,0.2-3.9,0C8.3,9.1,6.8,9,5.3,9.3c-0.5,0.1-1,0.5-1.5,0.6c-0.9,0.3-1.4,0.9-1.8,1.7
	c-0.4,1-0.5,2-0.7,3c-0.1,0.8-0.1,1.7-0.3,2.5c0.1,0,0.1,0,0.1,0.1v0.1l0,0c0,0.2,0,0.5,0,0.7c0,0.1,0,0.2,0,0.4c0,0,0,0,0,0.1
	c0.1,0.2,0.1,0.3,0.1,0.5c0.1,0.1,0.1,0.2,0.1,0.2v0.1l0,0v0.1l0,0c0,0.1,0,0.2,0,0.3l0,0l0,0l0,0c0.1,0.2,0.1,0.3,0.2,0.5
	c0,0,0,0,0,0.1s0,0.1,0,0.2c0.1,0.1,0,0.3,0.1,0.4l0,0l0,0l0,0c0,0.1,0,0.2,0,0.3c0.1,0.1,0.1,0.2,0.1,0.2s0,0,0,0.1
	c0,0,0,0.1,0.1,0.1C1.8,21.8,2,22,2,22.2c0.1,0.7,0.3,1.4,0.2,2.1c-0.1,0.5-0.1,1-0.2,1.5c-0.1,0.6-0.2,1.1,0.1,1.7
	c0.2,0.4,0.2,0.8,0.1,1.2c0,0.1,0,0.3,0,0.4c0,0.3,0.2,0.6,0.5,0.7C3.1,30,3.5,30.1,3.9,30s0.5-0.3,0.3-0.6
	c-0.1-0.1-0.1-0.2-0.2-0.3c-0.4-0.3-0.5-0.7-0.7-1.1c-0.2-0.7,0-1.4-0.1-2.1c-0.1-1,0.1-2,0.5-3c0.2-0.6,0.6-1,1-1.5
	c0,0.3,0,0.6,0.1,0.9c0.3,0.9,0.4,1.9,0.5,2.8c0.1,0.7,0,1.4,0.4,2c0.3,0.5,0.5,1,0.6,1.6c0,0.4,0.3,0.6,0.6,0.7
	c0.2,0.1,0.5,0.1,0.7,0.1s0.6,0.1,0.7-0.1c0.1-0.3-0.2-0.5-0.4-0.7l-0.1-0.1c-0.3-0.1-0.4-0.3-0.6-0.6c-0.3-0.4-0.4-0.9-0.5-1.4
	c-0.1-0.8-0.4-1.5-0.4-2.3l0,0v-0.1c0,0,0,0,0-0.1c0-0.6,0-1.2,0.2-1.7c0.5-1.7,1.4-3.3,2.2-4.9c0.1-0.1,0.1-0.2,0.3-0.1
	c1.4,0.2,2.8,0.5,4.2,0.7c1.5,0.2,3,0.4,4.5,0.4c0.2,0,0.3,0.1,0.3,0.3c0.1,0.5,0.1,1,0,1.6c-0.1,1-0.1,1.9-0.2,2.9
	c0,0.4,0.1,0.7,0.1,1.1c-0.1,0.7-0.1,1.3-0.3,2c-0.1,0.3-0.2,0.7,0.1,1c0.3,0.3,0.3,0.5,0.3,0.9s0.1,0.6,0.6,0.8
	c0.2,0.1,0.4,0.1,0.6,0.1s0.5,0,0.5-0.2c0.1-0.3-0.1-0.4-0.3-0.5c-0.3-0.1-0.4-0.4-0.5-0.6c-0.2-0.4-0.1-0.9-0.2-1.3
	c-0.1-0.9-0.1-1.9,0.3-2.8l0,0l0,0c0.2,0.5,0.3,0.9,0.2,1.4c0,0.6,0,1.3-0.1,1.9c0,0.2,0,0.5,0.2,0.7c0.4,0.3,0.4,0.7,0.5,1.1
	c0.1,0.6,0.3,0.8,0.9,0.8c0.2,0,0.4,0,0.6-0.1c0.3-0.1,0.4-0.3,0.2-0.6c-0.1-0.1-0.2-0.2-0.3-0.3c-0.7-0.4-0.9-0.9-0.9-1.6
	c0,0,0-0.1-0.1-0.1c0-0.1,0-0.1,0-0.2l0,0c-0.2-0.8-0.3-1.6-0.1-2.4c0.1-0.5,0.2-0.9,0.2-1.4c0-0.6,0-1.3,0.1-1.9
	c0.1-1.1,0.6-2.2,0.7-3.4c0-0.1,0-0.2,0.1-0.3c0.5-0.5,0.8-1.1,1-1.7v-0.1c0-0.1,0-0.2,0.1-0.3c0,0,0-0.1,0.1-0.1
	c0.1-0.4,0.1-0.9,0.2-1.3c0-0.1,0-0.1,0.1-0.2c0.9-1.1,1.4-2.4,1.9-3.7c0.2-0.6,0.5-1.1,0.9-1.6C25.7,8,25.9,7.7,26.3,8
	c0.1,0,0.3,0,0.5,0.1c0.9,0.1,1.7,0.5,2.4,1.1c0.3,0.3,1,0.4,1.4,0.1C30.9,9,31.1,8.1,31,7.7z M3.5,18.7c-0.1,0.2-0.2,0.4-0.2,0.7
	c-0.2-0.1,0-0.3-0.1-0.5c-0.1-0.8,0.1-1.5,0.1-2.3c0.1-0.2-0.1-0.4,0.1-0.5c0.1,0.4,0.2,0.9,0.2,1.3c0,0.2,0,0.4,0,0.6v0.1
	C3.5,18.4,3.5,18.6,3.5,18.7z"/>
</svg>
