<?xml version="1.0" encoding="utf-8"?>
<!-- Generator: Adobe Illustrator 25.4.1, SVG Export Plug-In . SVG Version: 6.00 Build 0)  -->
<svg version="1.1" id="cat" xmlns="http://www.w3.org/2000/svg" xmlns:xlink="http://www.w3.org/1999/xlink" x="0px" y="0px"
	 viewBox="0 0 32 32" style="enable-background:new 0 0 32 32;" xml:space="preserve">
<style type="text/css">
	.st0{fill-rule:evenodd;clip-rule:evenodd;}
</style>
<g>
	<path class="st0" d="M17.1,1.1c0.9,0.2,1.8,0.6,2.7,1.2c0-0.5,0.1-1,0.4-1.3C21,1.3,21.6,1.7,22,2.4c1.5,0.4,2.4,1.9,2.9,4.5
		c1,1.5,1.1,3.2,0.8,5.1c1,2.3,1.1,4.6,0.4,6.9c1.7,2.2,1.2,5.2-0.8,6.3c0,2.2-2.8,2.5-5.6,2.3c-7.9,6.8-20,3-12-6.3
		c1.2-0.9,1.4-0.6,1,0.5c-2.3,4.5-1.9,6.7,0.9,7.1c2.4-0.1,4.5-0.7,5.8-2.4c-1.9-4.8-1.1-9.7,2.3-14.6c-0.3-1.5-0.3-2.5,0.3-3.1
		c-1.9-1-2-2.8,0-5.4C17.5,2.6,17.2,1.9,17.1,1.1z"/>
</g>
</svg>
