<?xml version="1.0" encoding="utf-8"?>
<!-- Generator: Adobe Illustrator 25.4.1, SVG Export Plug-In . SVG Version: 6.00 Build 0)  -->
<svg version="1.1" id="soybean" xmlns="http://www.w3.org/2000/svg" xmlns:xlink="http://www.w3.org/1999/xlink" x="0px" y="0px"
	 viewBox="0 0 32 32" style="enable-background:new 0 0 32 32;" xml:space="preserve">
<path d="M8.5,22.3c0.1-0.1,0.3-0.1,0.4-0.1c0.8-0.3,1.2-0.8,1.2-1.7c0-0.3,0.1-0.4,0.3-0.6s0.3-0.3,0.4-0.6c0.1-0.3,0.1-0.7,0-1
	c0-0.2,0-0.3,0.1-0.4s0.2-0.3,0.3-0.4c0.3-0.5,0.3-1,0.2-1.6s-0.2-1.2-0.3-1.8c0-0.5,0.1-1,0.4-1.4c0.1-0.1,0.2-0.1,0.3,0
	c0.2,0.5,0.2,1,0,1.5c-0.1,0.3-0.2,0.6-0.1,0.9c0.1,0.2,0.1,0.4,0.2,0.7c0.1,0.2,0.1,0.3,0,0.5c-0.3,0.4-0.3,0.9-0.1,1.3
	c0.1,0.2,0.1,0.5,0,0.7c-0.2,0.4-0.2,0.7-0.2,1.1c0,0.2,0.1,0.4,0.2,0.6c0.4-0.3,0.7-0.5,0.9-1c0.1-0.3,0.1-0.5,0-0.8
	c-0.1-0.2,0-0.5,0.1-0.7c0.1-0.1,0.1-0.2,0.1-0.4c0.1-0.3,0-0.6-0.1-0.9c-0.1-0.3-0.1-0.5,0-0.8c0.1-0.2,0.1-0.4,0.1-0.5
	c0-0.4-0.1-0.8-0.3-1.1c-0.3-0.4-0.4-0.9-0.6-1.4c0-0.1,0-0.2,0.1-0.3c1-0.7,2.2-0.5,2.9,0.5c0.5,0.8,0.6,1.7,0.5,2.6
	c-0.1,1-0.5,1.9-1.1,2.6c-0.4,0.5-0.8,0.9-1.2,1.4c-0.6,0.7-1,1.4-1.3,2.3c-0.2,0.7-0.3,1.4-0.4,2.1c-0.1,1,0,2,0,3
	c0.1,1.2,0.3,2.3,0.5,3.4c0.1,0.3,0.2,0.6,0.2,1c0.1,0,0.2-0.1,0.3-0.1s0.1-0.1,0.1-0.2c-0.1-0.4-0.2-0.8-0.3-1.3
	c-0.3-1.2-0.5-2.5-0.6-3.8c-0.1-1.1-0.1-2.1,0.1-3.2c0.2-1,0.5-2,1.2-2.8c0.3-0.4,0.7-0.7,1.1-0.8c0.7-0.2,1.2,0.1,1.2,0.8
	c0.1,0.5,0,1-0.3,1.5c-0.2,0.4-0.3,0.8-0.2,1.2c0.1,0.3,0.1,0.6,0.2,0.8c0.1,0.2,0.1,0.4-0.1,0.5c0.1,0.1,0,0.2,0,0.4
	c-0.2,0.4-0.2,0.9,0,1.3c0.1,0.3,0.1,0.6-0.1,0.8c-0.3,0.4-0.3,0.8-0.3,1.3c0,0.3,0.1,0.6,0.2,0.8c0.1-0.1,0.2-0.1,0.3-0.2
	c0.7-0.5,1.2-1.1,0.9-2.1c-0.1-0.2,0-0.4,0.1-0.6c0.1-0.1,0.1-0.2,0.2-0.3c0.2-0.5,0.2-1,0-1.5c-0.1-0.3-0.1-0.5,0-0.8
	c0.1-0.2,0.2-0.4,0.2-0.6c0.1-0.5,0-1-0.2-1.4c-0.2-0.4-0.3-0.8-0.5-1.2c-0.1-0.2-0.1-0.4-0.2-0.6c0.1,0,0.1,0,0.1,0.1
	c0.4,0.4,0.6,0.8,0.7,1.3c0,0.4,0.2,0.8,0.4,1s0.4,0.3,0.6,0.5c0.2,0.1,0.3,0.3,0.2,0.5c0,0.1,0,0.1,0,0.2c0,0.4,0.1,0.7,0.4,1
	c0.1,0.1,0.2,0.2,0.4,0.3c0.1,0.1,0.2,0.2,0.2,0.3c0,0.1,0,0.2,0.1,0.3c0.1,0.7,0.5,1.2,1.1,1.6c0.2-0.3,0.3-0.7,0.3-1
	c0-0.5-0.2-0.9-0.5-1.2c-0.2-0.2-0.3-0.4-0.3-0.7c0-0.2,0-0.3-0.1-0.5c-0.1-0.4-0.4-0.6-0.7-0.8c-0.3-0.2-0.4-0.4-0.4-0.7
	c0-0.3-0.2-0.6-0.4-0.9c-0.2-0.3-0.5-0.5-0.8-0.6c-0.4-0.2-0.7-0.5-1.1-0.8s-0.8-0.4-1.3-0.4c-0.1,0-0.2,0-0.2,0.1l0,0l0.1-0.1
	c0.6-0.4,1.2-0.8,1.8-1.1c0.9-0.4,1.9-0.9,2.8-1.3c0.2-0.1,0.4-0.2,0.7-0.3c0.3-0.1,0.6,0,0.9,0.2c0.3,0.3,0.5,0.7,0.7,1.1
	c0.1,0.2,0.2,0.5,0.3,0.7c0.5,0.9,1.4,1.1,2.3,1.1c0.6,0,1.1-0.2,1.6-0.4c0.5-0.2,0.9-0.4,1.4-0.5c0.2-0.1,0.3-0.1,0.5-0.1
	c-0.1-0.2-0.3-0.3-0.4-0.5c-0.3-0.4-0.6-0.8-0.8-1.2c-0.3-0.5-0.7-1-1.2-1.3c-0.4-0.3-0.9-0.5-1.4-0.5s-1,0.2-1.5,0.5
	c-0.3,0.2-0.6,0.4-1,0.5c-0.3,0.1-0.6,0.1-1,0c0.1-0.1,0.3-0.2,0.4-0.3c0.5-0.4,0.9-0.8,1.5-1c0.4-0.2,0.8-0.3,1.3-0.2
	c0.3,0,0.6,0.1,0.9,0.2c1,0.2,1.9-0.1,2.5-0.8c0.5-0.5,0.7-1.1,0.9-1.8c0.1-0.4,0.2-0.9,0.3-1.3c0.1-0.5,0.3-1,0.6-1.4
	c0.1-0.2,0.2-0.3,0.3-0.5c-0.2,0.1-0.4,0.1-0.6,0.2c-0.7,0.2-1.5,0.3-2.2,0.3s-1.3,0.1-2,0.3c-1,0.4-1.7,1.1-1.8,2.2
	c-0.1,0.4,0,0.7,0,1.1c0,0.4-0.1,0.8-0.3,1.2c-0.5,0.7-1.1,1.2-1.7,1.8c0,0,0,0-0.1,0c0-0.3,0-0.6,0.1-0.8c0.1-0.3,0.4-0.6,0.6-0.8
	s0.4-0.4,0.6-0.6c0.5-0.8,0.5-1.6,0.1-2.4c-0.2-0.6-0.7-1-1.1-1.4s-0.7-0.7-1-1.1C19.1,8.1,19,7.9,19,7.7c0,0.1-0.1,0.2-0.1,0.3
	c-0.2,0.5-0.5,0.9-0.8,1.4c-0.2,0.4-0.4,0.7-0.6,1.1c-0.2,0.5-0.3,1-0.2,1.6c0,0.5,0.2,0.9,0.5,1.2c0.2,0.3,0.5,0.5,0.8,0.6
	c0.4,0.2,0.8,0.6,1,1c0.1,0.2,0.1,0.5-0.1,0.7S19.2,15.9,19,16c-0.4,0.2-0.8,0.4-1.2,0.6c-1,0.4-2,0.9-2.9,1.4h-0.1
	c0-0.1,0.1-0.1,0.1-0.1c0.6-1,1.1-2,1.2-3.1c0.1-0.7,0-1.5-0.2-2.2c-0.1-0.4-0.3-0.8-0.4-1.3c-0.2-0.6-0.1-1.1,0.2-1.6
	c0.1-0.1,0.1-0.2,0.2-0.3c0.1-0.3,0.2-0.3,0.5-0.2c0.1,0,0.2,0.1,0.3,0.2c0.3,0.2,0.7,0.1,1-0.2C17.8,9,17.9,8.8,18,8.6
	c-0.2-0.1-0.3-0.1-0.5-0.2c-0.1,0-0.2-0.1-0.3-0.1c-0.4-0.1-0.7,0.1-0.8,0.4c0,0.1-0.1,0.2-0.2,0.3c0,0.1-0.1,0.1-0.2,0.1l0,0
	c0.1-0.4,0.2-0.8,0.7-0.9c0.2-0.1,0.4-0.2,0.5-0.5c0.1-0.2,0-0.4,0-0.6C17.1,6.8,17,6.5,17,6.2c-0.2,0.1-0.3,0.3-0.4,0.4
	s-0.2,0.2-0.3,0.3c-0.4,0.3-0.5,0.8-0.2,1.2c0.2,0.3,0.2,0.8,0,1.1C16.1,9.1,16,9,16,9c0-0.1,0-0.2,0-0.3c0.1-0.4-0.1-0.7-0.4-0.8
	c-0.3-0.1-0.6-0.2-0.9-0.3c0,0.1,0,0.3,0,0.4c0,0.2,0,0.4,0.1,0.6c0.1,0.4,0.4,0.5,0.7,0.5c0.1,0,0.2,0,0.3,0c0.2,0,0.3,0.2,0.2,0.4
	c0,0.1-0.1,0.2-0.2,0.3c-0.2,0.3-0.3,0.7-0.3,1.1V11l0,0c-0.1-0.1-0.3-0.2-0.4-0.3c-0.4-0.4-0.7-0.8-1.1-1.2
	c-0.4-0.4-0.7-0.9-0.9-1.5c-0.1-0.3,0-0.5,0.2-0.7c0.3-0.2,0.6-0.2,0.9-0.2c0.6,0,1-0.3,1.3-0.9c0.2-0.5,0.3-1,0.2-1.6
	c-0.1-0.4-0.1-0.8-0.1-1.2c-0.2,0.1-0.4,0.2-0.6,0.3c-0.2,0.1-0.4,0.1-0.6,0.2c-0.3,0.1-0.7,0.2-1,0.5c-0.6,0.5-0.8,1.1-0.5,1.8
	C13,6.4,13,6.5,13,6.7c0,0.3,0,0.5-0.2,0.7c-0.1-0.3-0.3-0.7-0.4-1c-0.1-0.4-0.2-0.8-0.1-1.1c0.1-0.2,0.2-0.4,0.3-0.6
	c0.2-0.5,0.2-1,0-1.5c-0.3-0.5-0.7-0.8-1.2-1C10.3,1.8,9.7,1.5,9.3,1l0,0v0.1c0.1,0.5,0,1-0.1,1.5C9,3,8.9,3.5,8.9,4
	s0.2,0.9,0.6,1.2c0.3,0.2,0.6,0.3,0.9,0.4c0.5,0.1,0.8,0.3,1.1,0.8c0.2,0.2,0.3,0.5,0.4,0.8C12,7.3,12,7.4,12,7.5
	c-0.3,0-0.5-0.1-0.6-0.3C11.3,7,11.1,6.9,11,6.7c-0.1-0.5-0.5-0.8-1.1-0.9c-0.3,0-0.7,0.1-1,0.2c-0.6,0.3-1,0.7-1.6,0.8
	C7.4,6.9,7.5,7,7.5,7.1c0.2,0.2,0.4,0.5,0.7,0.7c0.3,0.3,0.6,0.6,1,0.7c0.7,0.2,1.3,0.1,1.7-0.4c0.2-0.2,0.4-0.4,0.8-0.5
	c0.3-0.1,0.5,0,0.6,0.3c0.5,1,1.2,1.9,2,2.7c0.2,0.2,0.4,0.4,0.5,0.6c0.3,0.7,0.5,1.4,0.6,2.1c0,0.1,0,0.3,0,0.4l0,0c0,0,0,0,0-0.1
	c-0.1-0.5-0.3-1-0.6-1.4c-0.5-0.7-1.4-1-2.2-0.7c-0.6,0.2-1.1,0.6-1.4,1.2c-0.1,0.3-0.2,0.6-0.4,0.8c-0.3,0.8-0.8,1.3-1.7,1.6
	c-0.4,0.1-0.8,0.4-1.1,0.7c-0.1,0.2-0.3,0.4-0.4,0.6C7.5,16.9,7.3,17,7,17c-0.4,0-0.7,0.2-1,0.6c-0.1,0.1-0.2,0.3-0.3,0.5
	c-0.1,0.3-0.3,0.4-0.6,0.5c-0.4,0.1-0.8,0.3-1.1,0.6c-0.3,0.3-0.5,0.6-0.6,1c0.3,0.1,0.5,0.1,0.8,0.1c0.7,0.1,1.2-0.1,1.6-0.7
	c0-0.1,0.1-0.2,0.1-0.3C6.1,19.1,6.2,19,6.4,19c0.5-0.1,0.9-0.3,1.2-0.7c0.1-0.2,0.2-0.4,0.3-0.5c0.1-0.2,0.2-0.3,0.4-0.4
	c0.1,0,0.2-0.1,0.3-0.1C9,17.2,9.2,17,9.5,16.7s0.4-0.7,0.6-1.1c0.2-0.5,0.5-1,0.7-1.5c0,0,0,0,0.1,0c0,0.1,0,0.1,0,0.2
	c0,0.5-0.2,1-0.5,1.4c-0.2,0.3-0.4,0.6-0.4,1c0,0.3,0,0.5,0,0.8c0.1,0.3,0,0.5-0.2,0.7c-0.3,0.2-0.4,0.5-0.5,0.9c0,0.2,0,0.5,0,0.7
	s0,0.3-0.2,0.5c-0.1,0.1-0.2,0.2-0.3,0.3C8.5,21.1,8.4,21.6,8.5,22.3C8.5,22.2,8.5,22.2,8.5,22.3z"/>
</svg>
