<?xml version="1.0" encoding="utf-8"?>
<!-- Generator: Adobe Illustrator 25.4.1, SVG Export Plug-In . SVG Version: 6.00 Build 0)  -->
<svg version="1.1" id="human37" xmlns="http://www.w3.org/2000/svg" xmlns:xlink="http://www.w3.org/1999/xlink" x="0px" y="0px"
	 viewBox="0 0 32 32" style="enable-background:new 0 0 32 32;" xml:space="preserve">
<style type="text/css">
	.st0{fill:#FFFFFF;}
</style>
<g id="palm_1_">
	<g id="palm">
		<path d="M6.1,21.2c-0.4,0.8-1.7,0.4-2.5-0.6s-1.4-1.9-1.8-2.2c-0.5-0.3-0.4-1.7,0.8-1.7s2.7,0.7,3.2,1.2
			C6.1,18.4,6.9,19.9,6.1,21.2z"/>
		<path d="M16.1,11.2c0-1.2,0.6-2.2,0.8-2.8c0.1-0.6-0.3-2.1-0.4-3.3s0.2-4,1.2-4.1s1.4,0.9,1.4,1.5s-0.1,3.2,0,3.8s-0.1,1.4-0.5,2
			c-0.4,0.5-0.2,1,0.1,1.4c0.3,0.4,0.6,1.7,0.2,2.5C18.5,13,17.6,13,17,12.9C16.5,12.8,16.1,11.7,16.1,11.2z"/>
		<path d="M21.4,13.6c-0.2-0.5-0.3-1,0-1.6c0.3-0.5,2-2.2,2.2-3.2s-0.2-3.6,0.8-4.2c0.9-0.6,2.2-1,2.3-0.3c0.1,0.8,0.1,2.3-0.7,3.5
			c-0.8,1.2-0.6,1.8-0.8,2.7s-0.6,2.9-1.2,3.4s-1.2,1-2,0.8C21.2,14.3,21.6,14,21.4,13.6z"/>
		<path d="M29.6,10.8c-0.7-0.1-1,0.5-1.3,1c-0.3,0.4-0.7,1.2-0.8,1.5c-0.1,0.3-0.5,0.8-0.7,1.4s-0.2,1.8,0.4,1.6
			c0.5-0.2,1-0.6,1.2-1s0.2-0.8,0.5-0.9c0.3-0.1,1.4-1.2,1.5-1.6C30.6,12.1,30.8,11,29.6,10.8z"/>
		<path d="M25.8,17.1c-0.2,0.3-0.8,1.2,0,0.8c0.8-0.4,0.7-0.7,0.9-1.2C27,16.1,26.1,16.5,25.8,17.1z"/>
		<path d="M25.3,20.5c-0.2-1.4-1.1-2.1-1.7-2.8c-0.6-0.7-1.2-1.3-2.3-1c-1.1,0.3-1.9-1.4-3.2-1.7c-1.3-0.3-2.5,0.3-3.4-0.8
			c-0.8-1.2,0.2-1.7-0.5-2.6c-0.6-0.9-1-1.8-1.2-2.8S12.5,7,12.4,6.1c-0.1-0.8,0.1-2.4-0.9-2.8c-1-0.3-1.8,0-2.2,0.5
			C8.9,4.4,9.1,6.4,9.3,7s0.3,2.2,0.6,2.9s0.5,1.9,1,3s1.4,1.4,1.2,2.1c-0.2,0.6-0.5,1.7-0.1,2.9c0.4,1.2,0.3,2.3-0.2,2.8
			c-0.4,0.4-2.3,1.5-2.6,2.8C9,24.1,8.7,25,8.8,25.9s1.2,2.3,1.5,2.7c0.3,0.4,1.8,1.6,3.2,1.6s3.1-0.6,4.2,0
			c1.2,0.6,2.4,1.2,3.7,0.3c1.2-0.9,1.7-2.2,2.4-4.5C24.4,23.7,25.5,21.9,25.3,20.5z"/>
	</g>
</g>
<g>
	<path class="st0" d="M15.2599,19.5551c0.3335,0,0.6343,0.0469,0.9023,0.1426c0.2686,0.0947,0.4976,0.2266,0.6875,0.3945
		c0.1899,0.1689,0.3359,0.3662,0.4375,0.5928s0.1523,0.4717,0.1523,0.7354c0,0.2295-0.0254,0.4316-0.0771,0.6074
		c-0.0518,0.1748-0.127,0.3271-0.2251,0.457c-0.0981,0.1299-0.2183,0.2402-0.3599,0.3301c-0.1416,0.0899-0.3027,0.165-0.4824,0.2246
		c0.4331,0.1367,0.7563,0.3457,0.9697,0.625c0.2129,0.2803,0.3203,0.6318,0.3203,1.0557c0,0.3594-0.0674,0.6777-0.2002,0.9551
		c-0.1333,0.2764-0.3135,0.5088-0.54,0.6973s-0.4893,0.3311-0.7876,0.4268c-0.2983,0.0967-0.6143,0.1455-0.9473,0.1455
		c-0.3633,0-0.6802-0.042-0.9502-0.125s-0.5049-0.2061-0.7051-0.3701c-0.1997-0.1631-0.3696-0.3633-0.5098-0.5996
		c-0.1402-0.2363-0.2603-0.5098-0.3599-0.8203l0.5449-0.2246c0.0933-0.04,0.188-0.0605,0.2847-0.0605
		c0.0869,0,0.1646,0.0186,0.2329,0.0557c0.0679,0.0361,0.1206,0.0898,0.1572,0.1602c0.0601,0.1162,0.126,0.2314,0.1978,0.3447
		c0.0713,0.1133,0.1572,0.2139,0.2573,0.3027c0.1001,0.0879,0.2173,0.1592,0.3525,0.2148c0.1348,0.0547,0.2959,0.082,0.4824,0.082
		c0.21,0,0.3936-0.0342,0.5498-0.1025c0.1567-0.0684,0.2876-0.1572,0.3926-0.2676c0.105-0.1094,0.1836-0.2324,0.2354-0.3672
		c0.0513-0.1348,0.0771-0.2705,0.0771-0.4072c0-0.1738-0.0181-0.3311-0.0547-0.4727c-0.0371-0.1416-0.1133-0.2627-0.23-0.3623
		c-0.1167-0.1006-0.2842-0.1787-0.5024-0.2354c-0.2188-0.0566-0.5112-0.085-0.8779-0.085v-0.8848
		c0.3037,0,0.5552-0.0273,0.7554-0.0801c0.1997-0.0537,0.3589-0.1279,0.4775-0.2227c0.1182-0.0947,0.2007-0.209,0.2471-0.3428
		c0.0469-0.1328,0.0703-0.2793,0.0703-0.4395c0-0.3438-0.0933-0.6025-0.2803-0.7773c-0.1865-0.1758-0.4414-0.2627-0.7646-0.2627
		c-0.2935,0-0.5371,0.0771-0.73,0.2324c-0.1934,0.1543-0.3286,0.3535-0.4053,0.5967c-0.04,0.126-0.0947,0.2168-0.165,0.2715
		c-0.0698,0.0557-0.1616,0.083-0.2749,0.083c-0.0532,0-0.1099-0.0049-0.1699-0.0146l-0.6499-0.1133
		c0.0498-0.3467,0.1465-0.6514,0.29-0.9131c0.1431-0.2617,0.3223-0.4805,0.5371-0.6553c0.2153-0.1748,0.4619-0.3066,0.7402-0.3945
		C14.6408,19.5991,14.9401,19.5551,15.2599,19.5551z"/>
	<path class="st0" d="M23.4151,19.6352v0.5352c0,0.1592-0.0176,0.2891-0.0527,0.3867c-0.0352,0.0986-0.0693,0.1816-0.1025,0.248
		l-2.7354,5.6396c-0.0566,0.1162-0.1367,0.2158-0.2402,0.2979c-0.1025,0.0811-0.2432,0.1221-0.4189,0.1221h-0.8956l2.7998-5.5244
		c0.1162-0.2266,0.2471-0.4219,0.3896-0.585h-3.46c-0.0762,0-0.1436-0.0283-0.2002-0.085c-0.0566-0.0567-0.085-0.124-0.085-0.2002
		v-0.835L23.4151,19.6352L23.4151,19.6352z"/>
</g>
</svg>
