<?xml version="1.0" encoding="utf-8"?>
<!-- Generator: Adobe Illustrator 25.2.3, SVG Export Plug-In . SVG Version: 6.00 Build 0)  -->
<svg version="1.1" id="human38" xmlns="http://www.w3.org/2000/svg" xmlns:xlink="http://www.w3.org/1999/xlink" x="0px" y="0px"
	 viewBox="0 0 32 32" style="enable-background:new 0 0 32 32;" xml:space="preserve">
<style type="text/css">
	.st0{fill:#FFFFFF;}
</style>
<g id="palm_1_">
	<g id="palm">
		<path class="st0" d="M6.1,21.2c-0.4,0.8-1.7,0.4-2.5-0.6s-1.4-1.9-1.8-2.2c-0.5-0.3-0.4-1.7,0.8-1.7s2.7,0.7,3.2,1.2
			C6.1,18.4,6.9,19.9,6.1,21.2z"/>
		<path class="st0" d="M16.1,11.2c0-1.2,0.6-2.2,0.8-2.8c0.1-0.6-0.3-2.1-0.4-3.3s0.2-4,1.2-4.1s1.4,0.9,1.4,1.5s-0.1,3.2,0,3.8
			s-0.1,1.4-0.5,2c-0.4,0.5-0.2,1,0.1,1.4c0.3,0.4,0.6,1.7,0.2,2.5C18.5,13,17.6,13,17,12.9C16.5,12.8,16.1,11.7,16.1,11.2z"/>
		<path class="st0" d="M21.4,13.6c-0.2-0.5-0.3-1,0-1.6c0.3-0.5,2-2.2,2.2-3.2s-0.2-3.6,0.8-4.2c0.9-0.6,2.2-1,2.3-0.3
			c0.1,0.8,0.1,2.3-0.7,3.5c-0.8,1.2-0.6,1.8-0.8,2.7s-0.6,2.9-1.2,3.4s-1.2,1-2,0.8C21.2,14.3,21.6,14,21.4,13.6z"/>
		<path class="st0" d="M29.6,10.8c-0.7-0.1-1,0.5-1.3,1c-0.3,0.4-0.7,1.2-0.8,1.5c-0.1,0.3-0.5,0.8-0.7,1.4s-0.2,1.8,0.4,1.6
			c0.5-0.2,1-0.6,1.2-1s0.2-0.8,0.5-0.9c0.3-0.1,1.4-1.2,1.5-1.6C30.6,12.1,30.8,11,29.6,10.8z"/>
		<path class="st0" d="M25.8,17.1c-0.2,0.3-0.8,1.2,0,0.8c0.8-0.4,0.7-0.7,0.9-1.2C27,16.1,26.1,16.5,25.8,17.1z"/>
		<path class="st0" d="M9.2,23.5C9,24.1,8.7,25,8.8,25.9s1.2,2.3,1.5,2.7c0.3,0.4,1.8,1.6,3.2,1.6s3.1-0.6,4.2,0
			c1.2,0.6,2.4,1.2,3.7,0.3c1.2-0.9,1.7-2.2,2.4-4.5c0.6-2.3,1.7-4.1,1.5-5.5s-1.1-2.1-1.7-2.8c-0.6-0.7-1.2-1.3-2.3-1
			c-1.1,0.3-1.9-1.4-3.2-1.7c-1.3-0.3-2.5,0.3-3.4-0.8c-0.8-1.2,0.2-1.7-0.5-2.6c-0.6-0.9-1-1.8-1.2-2.8S12.5,7,12.4,6.1
			c-0.1-0.8,0.1-2.4-0.9-2.8c-1-0.3-1.8,0-2.2,0.5C8.9,4.4,9.1,6.4,9.3,7s0.3,2.2,0.6,2.9s0.5,1.9,1,3s1.4,1.4,1.2,2.1
			c-0.2,0.6-0.5,1.7-0.1,2.9c0.4,1.2,0.3,2.3-0.2,2.8C11.4,21.1,9.5,22.2,9.2,23.5z"/>
	</g>
</g>
<g id="_x33_8">
	<g id="_x33_8_1_">
		<g>
			<path d="M15,19.6c0.3,0,0.6,0,0.9,0.1c0.3,0.1,0.5,0.2,0.7,0.4c0.2,0.2,0.3,0.4,0.4,0.6c0.1,0.2,0.2,0.5,0.2,0.7
				c0,0.2,0,0.4-0.1,0.6c-0.1,0.2-0.1,0.3-0.2,0.5c-0.1,0.1-0.2,0.2-0.4,0.3c-0.1,0.1-0.3,0.2-0.5,0.2c0.4,0.1,0.8,0.3,1,0.6
				c0.2,0.3,0.3,0.6,0.3,1.1c0,0.4-0.1,0.7-0.2,1c-0.1,0.3-0.3,0.5-0.5,0.7s-0.5,0.3-0.8,0.4c-0.3,0.1-0.6,0.1-0.9,0.1
				c-0.4,0-0.7,0-1-0.1s-0.5-0.2-0.7-0.4c-0.2-0.2-0.4-0.4-0.5-0.6c-0.1-0.2-0.3-0.5-0.4-0.8l0.5-0.2c0.1,0,0.2-0.1,0.3-0.1
				c0.1,0,0.2,0,0.2,0.1c0.1,0,0.1,0.1,0.2,0.2c0.1,0.1,0.1,0.2,0.2,0.3c0.1,0.1,0.2,0.2,0.3,0.3c0.1,0.1,0.2,0.2,0.4,0.2
				c0.1,0.1,0.3,0.1,0.5,0.1c0.2,0,0.4,0,0.5-0.1c0.2-0.1,0.3-0.2,0.4-0.3s0.2-0.2,0.2-0.4c0.1-0.1,0.1-0.3,0.1-0.4
				c0-0.2,0-0.3-0.1-0.5s-0.1-0.3-0.2-0.4c-0.1-0.1-0.3-0.2-0.5-0.2c-0.2-0.1-0.5-0.1-0.9-0.1v-0.9c0.3,0,0.6,0,0.8-0.1
				c0.2-0.1,0.4-0.1,0.5-0.2c0.1-0.1,0.2-0.2,0.2-0.3c0-0.1,0.1-0.3,0.1-0.4c0-0.3-0.1-0.6-0.3-0.8c-0.2-0.2-0.4-0.3-0.8-0.3
				c-0.3,0-0.5,0.1-0.7,0.2c-0.2,0.2-0.3,0.4-0.4,0.6c0,0.1-0.1,0.2-0.2,0.3c-0.1,0.1-0.2,0.1-0.3,0.1c-0.1,0-0.1,0-0.2,0l-0.6-0.1
				c0-0.3,0.1-0.7,0.3-0.9c0.1-0.3,0.3-0.5,0.5-0.7c0.2-0.2,0.5-0.3,0.7-0.4C14.4,19.6,14.7,19.6,15,19.6z"/>
			<path d="M20.6,27c-0.4,0-0.7,0-1-0.2c-0.3-0.1-0.6-0.2-0.8-0.4s-0.4-0.4-0.5-0.7c-0.1-0.3-0.2-0.5-0.2-0.9c0-0.4,0.1-0.8,0.3-1.1
				s0.5-0.5,1-0.7c-0.4-0.1-0.6-0.4-0.8-0.6c-0.2-0.3-0.3-0.6-0.3-1c0-0.3,0.1-0.5,0.2-0.8c0.1-0.2,0.3-0.4,0.5-0.6
				c0.2-0.2,0.4-0.3,0.7-0.4c0.3-0.1,0.6-0.1,0.9-0.1c0.3,0,0.6,0,0.9,0.1c0.3,0.1,0.5,0.2,0.7,0.4s0.4,0.4,0.5,0.6
				c0.1,0.2,0.2,0.5,0.2,0.8c0,0.4-0.1,0.7-0.3,1c-0.2,0.3-0.4,0.5-0.8,0.6c0.4,0.1,0.8,0.4,1,0.7s0.3,0.7,0.3,1.1
				c0,0.3-0.1,0.6-0.2,0.9s-0.3,0.5-0.5,0.7s-0.5,0.3-0.8,0.4C21.3,26.9,21,27,20.6,27z M20.6,26c0.2,0,0.4,0,0.5-0.1
				s0.3-0.1,0.4-0.2c0.1-0.1,0.2-0.2,0.2-0.4c0.1-0.1,0.1-0.3,0.1-0.5c0-0.4-0.1-0.7-0.3-0.9c-0.2-0.2-0.5-0.3-0.9-0.3
				s-0.7,0.1-0.9,0.3c-0.2,0.2-0.3,0.5-0.3,0.9c0,0.2,0,0.3,0.1,0.5c0.1,0.1,0.1,0.3,0.2,0.4c0.1,0.1,0.2,0.2,0.4,0.2
				S20.4,26,20.6,26z M20.6,22.7c0.2,0,0.4,0,0.5-0.1s0.2-0.1,0.3-0.3c0.1-0.1,0.1-0.2,0.2-0.4c0-0.1,0.1-0.3,0.1-0.4
				c0-0.1,0-0.3-0.1-0.4c0-0.1-0.1-0.2-0.2-0.3c-0.1-0.1-0.2-0.2-0.3-0.2c-0.1-0.1-0.3-0.1-0.5-0.1c-0.2,0-0.3,0-0.5,0.1
				c-0.1,0.1-0.2,0.1-0.3,0.2c-0.1,0.1-0.2,0.2-0.2,0.3s-0.1,0.3-0.1,0.4c0,0.1,0,0.3,0.1,0.4s0.1,0.3,0.2,0.4
				c0.1,0.1,0.2,0.2,0.3,0.3S20.4,22.7,20.6,22.7z"/>
		</g>
	</g>
</g>
</svg>
