<?xml version="1.0" encoding="utf-8"?>
<!-- Generator: Adobe Illustrator 25.4.1, SVG Export Plug-In . SVG Version: 6.00 Build 0)  -->
<svg version="1.1" id="human38" xmlns="http://www.w3.org/2000/svg" xmlns:xlink="http://www.w3.org/1999/xlink" x="0px" y="0px"
	 viewBox="0 0 32 32" style="enable-background:new 0 0 32 32;" xml:space="preserve">
<style type="text/css">
	.st0{enable-background:new    ;}
	.st1{fill:#FFFFFF;}
</style>
<g id="palm_1_">
	<g id="palm">
		<path d="M6.1,21.2c-0.4,0.8-1.7,0.4-2.5-0.6s-1.4-1.9-1.8-2.2c-0.5-0.3-0.4-1.7,0.8-1.7s2.7,0.7,3.2,1.2
			C6.1,18.4,6.9,19.9,6.1,21.2z"/>
		<path d="M16.1,11.2c0-1.2,0.6-2.2,0.8-2.8c0.1-0.6-0.3-2.1-0.4-3.3s0.2-4,1.2-4.1s1.4,0.9,1.4,1.5s-0.1,3.2,0,3.8s-0.1,1.4-0.5,2
			c-0.4,0.5-0.2,1,0.1,1.4c0.3,0.4,0.6,1.7,0.2,2.5C18.5,13,17.6,13,17,12.9C16.5,12.8,16.1,11.7,16.1,11.2z"/>
		<path d="M21.4,13.6c-0.2-0.5-0.3-1,0-1.6c0.3-0.5,2-2.2,2.2-3.2s-0.2-3.6,0.8-4.2c0.9-0.6,2.2-1,2.3-0.3c0.1,0.8,0.1,2.3-0.7,3.5
			c-0.8,1.2-0.6,1.8-0.8,2.7s-0.6,2.9-1.2,3.4s-1.2,1-2,0.8C21.2,14.3,21.6,14,21.4,13.6z"/>
		<path d="M29.6,10.8c-0.7-0.1-1,0.5-1.3,1c-0.3,0.4-0.7,1.2-0.8,1.5c-0.1,0.3-0.5,0.8-0.7,1.4s-0.2,1.8,0.4,1.6
			c0.5-0.2,1-0.6,1.2-1s0.2-0.8,0.5-0.9c0.3-0.1,1.4-1.2,1.5-1.6C30.6,12.1,30.8,11,29.6,10.8z"/>
		<path d="M25.8,17.1c-0.2,0.3-0.8,1.2,0,0.8c0.8-0.4,0.7-0.7,0.9-1.2C27,16.1,26.1,16.5,25.8,17.1z"/>
		<path d="M9.2,23.5C9,24.1,8.7,25,8.8,25.9s1.2,2.3,1.5,2.7c0.3,0.4,1.8,1.6,3.2,1.6s3.1-0.6,4.2,0c1.2,0.6,2.4,1.2,3.7,0.3
			c1.2-0.9,1.7-2.2,2.4-4.5c0.6-2.3,1.7-4.1,1.5-5.5s-1.1-2.1-1.7-2.8c-0.6-0.7-1.2-1.3-2.3-1c-1.1,0.3-1.9-1.4-3.2-1.7
			c-1.3-0.3-2.5,0.3-3.4-0.8c-0.8-1.2,0.2-1.7-0.5-2.6c-0.6-0.9-1-1.8-1.2-2.8S12.5,7,12.4,6.1c-0.1-0.8,0.1-2.4-0.9-2.8
			c-1-0.3-1.8,0-2.2,0.5C8.9,4.4,9.1,6.4,9.3,7s0.3,2.2,0.6,2.9s0.5,1.9,1,3s1.4,1.4,1.2,2.1c-0.2,0.6-0.5,1.7-0.1,2.9
			c0.4,1.2,0.3,2.3-0.2,2.8C11.4,21.1,9.5,22.2,9.2,23.5z"/>
	</g>
</g>
<g class="st0">
	<path class="st1" d="M15.2949,19.5552c0.3335,0,0.6343,0.0469,0.9023,0.1416c0.2686,0.0957,0.4976,0.2275,0.6875,0.3955
		c0.1895,0.168,0.3359,0.3662,0.4375,0.5928s0.1523,0.4717,0.1523,0.7344c0,0.2305-0.0254,0.4326-0.0771,0.6074
		c-0.0518,0.1758-0.127,0.3281-0.2256,0.458c-0.0977,0.1299-0.2178,0.2402-0.3594,0.3301s-0.3027,0.165-0.4824,0.2246
		c0.4331,0.1367,0.7559,0.3447,0.9697,0.625c0.2129,0.2803,0.3203,0.6318,0.3203,1.0557c0,0.3594-0.0674,0.6777-0.2002,0.9541
		c-0.1338,0.2773-0.3135,0.5098-0.54,0.6982s-0.4893,0.3301-0.7876,0.4268s-0.6143,0.1455-0.9473,0.1455
		c-0.3633,0-0.6802-0.042-0.9502-0.125s-0.5049-0.207-0.7051-0.3701c-0.1997-0.1631-0.3696-0.3633-0.5098-0.5996
		c-0.1401-0.2373-0.2603-0.5107-0.3599-0.8203l0.5449-0.2246c0.0933-0.04,0.188-0.0605,0.2847-0.0605
		c0.0869,0,0.1646,0.0186,0.2329,0.0547c0.0679,0.0371,0.1206,0.0908,0.1572,0.1602c0.0601,0.1172,0.126,0.2324,0.1978,0.3457
		c0.0713,0.1133,0.1572,0.2139,0.2573,0.3018c0.1001,0.0889,0.2173,0.1602,0.3525,0.2148c0.1348,0.0557,0.2959,0.083,0.4824,0.083
		c0.21,0,0.3936-0.0342,0.5498-0.1025c0.1567-0.0684,0.2876-0.1572,0.3926-0.2676s0.1836-0.2324,0.2354-0.3672
		c0.0513-0.1348,0.0771-0.2715,0.0771-0.4082c0-0.1729-0.0181-0.3301-0.0547-0.4717c-0.0371-0.1416-0.1133-0.2627-0.23-0.3633
		c-0.1167-0.0996-0.2842-0.1777-0.5024-0.2344c-0.2188-0.0566-0.5112-0.085-0.8779-0.085v-0.8848
		c0.3037,0,0.5552-0.0273,0.7554-0.0801c0.1997-0.0537,0.3589-0.1279,0.4775-0.2227c0.1182-0.0957,0.2007-0.209,0.2471-0.3428
		c0.0469-0.1328,0.0703-0.2803,0.0703-0.4404c0-0.3428-0.0933-0.6016-0.2803-0.7773c-0.1865-0.1748-0.4414-0.2617-0.7646-0.2617
		c-0.2935,0-0.5371,0.0771-0.73,0.2314c-0.1934,0.1553-0.3286,0.3545-0.4053,0.5967c-0.04,0.127-0.0947,0.2178-0.165,0.2725
		c-0.0698,0.0547-0.1616,0.083-0.2749,0.083c-0.0532,0-0.1099-0.0059-0.1699-0.0156l-0.6499-0.1133
		c0.0498-0.3467,0.1465-0.6504,0.29-0.9121c0.1431-0.2617,0.3223-0.4805,0.5371-0.6553c0.2153-0.1748,0.4619-0.3066,0.7402-0.3955
		C14.6758,19.5991,14.9751,19.5552,15.2949,19.5552z"/>
	<path class="st1" d="M20.8691,26.9448c-0.373,0-0.7139-0.0498-1.0225-0.1504c-0.3076-0.0996-0.5723-0.2412-0.792-0.4248
		s-0.3906-0.4053-0.5127-0.665s-0.1826-0.5498-0.1826-0.8701c0-0.4268,0.1055-0.7871,0.3154-1.082s0.5361-0.5146,0.9795-0.6572
		c-0.3535-0.1475-0.6172-0.3555-0.792-0.625c-0.1758-0.2705-0.2627-0.5957-0.2627-0.9756c0-0.2734,0.0557-0.5283,0.167-0.7646
		c0.1123-0.2373,0.2676-0.4424,0.4678-0.6182c0.2002-0.1748,0.4395-0.3115,0.7178-0.4092c0.2783-0.0986,0.584-0.1475,0.917-0.1475
		c0.334,0,0.6396,0.0488,0.918,0.1475c0.2783,0.0977,0.5176,0.2344,0.7178,0.4092c0.1992,0.1758,0.3555,0.3809,0.4668,0.6182
		c0.1123,0.2363,0.168,0.4912,0.168,0.7646c0,0.3799-0.0889,0.7051-0.2656,0.9756c-0.1758,0.2695-0.4395,0.4775-0.7891,0.625
		c0.4424,0.1426,0.7695,0.3623,0.9795,0.6572s0.3154,0.6553,0.3154,1.082c0,0.3203-0.0615,0.6104-0.1826,0.8701
		c-0.1221,0.2598-0.293,0.4814-0.5127,0.665s-0.4844,0.3252-0.793,0.4248C21.584,26.895,21.2432,26.9448,20.8691,26.9448z
		 M20.8691,25.98c0.2041,0,0.3818-0.0293,0.5352-0.0879s0.2822-0.1387,0.3877-0.2422s0.1846-0.2266,0.2373-0.3701
		c0.0537-0.1436,0.0801-0.2979,0.0801-0.4648c0-0.3965-0.1104-0.6973-0.3301-0.9004s-0.5234-0.3047-0.9102-0.3047
		s-0.6895,0.1016-0.9092,0.3047c-0.2207,0.2031-0.3301,0.5039-0.3301,0.9004c0,0.167,0.0264,0.3213,0.0801,0.4648
		c0.0527,0.1436,0.1318,0.2666,0.2373,0.3701c0.1045,0.1035,0.2334,0.1836,0.3877,0.2422
		C20.4873,25.9507,20.666,25.98,20.8691,25.98z M20.8691,22.6401c0.2002,0,0.3682-0.0322,0.5049-0.0957
		c0.1367-0.0625,0.2471-0.1475,0.3301-0.252c0.084-0.1055,0.1426-0.2256,0.1777-0.3604s0.0527-0.2744,0.0527-0.417
		c0-0.1367-0.0215-0.2666-0.0654-0.3906c-0.043-0.123-0.1084-0.2324-0.1943-0.3271c-0.0869-0.0947-0.1973-0.1709-0.3301-0.2275
		c-0.1338-0.0566-0.292-0.085-0.4756-0.085c-0.1826,0-0.3418,0.0283-0.4746,0.085c-0.1338,0.0566-0.2441,0.1328-0.333,0.2275
		c-0.0879,0.0947-0.1533,0.2041-0.1943,0.3271c-0.042,0.124-0.0625,0.2539-0.0625,0.3906c0,0.1426,0.0176,0.2822,0.0527,0.417
		c0.0342,0.1348,0.0938,0.2549,0.1768,0.3604c0.084,0.1045,0.1934,0.1895,0.3301,0.252
		C20.501,22.6079,20.6699,22.6401,20.8691,22.6401z"/>
</g>
</svg>
