<?xml version="1.0" encoding="utf-8"?>
<!-- Generator: Adobe Illustrator 25.4.1, SVG Export Plug-In . SVG Version: 6.00 Build 0)  -->
<svg version="1.1" id="macaque" xmlns="http://www.w3.org/2000/svg" xmlns:xlink="http://www.w3.org/1999/xlink" x="0px" y="0px"
	 viewBox="0 0 32 32" style="enable-background:new 0 0 32 32;" xml:space="preserve">
<path d="M29.8887,3.5075c0,0-0.3987-1.0963-0.598-1.196c-0.299-0.0997-1.2957-0.7973-1.6943-0.897s-0.7973-0.4983-1.5946-0.3987
	c-0.7973,0.0997-1.6943,0.299-1.9933,0.598c-0.299,0.3987-1.2957,1.3953-1.2957,1.3953s-0.299,1.495-0.4983,1.6943
	c-0.1993,0.299-0.9967,1.0963-1.2957,1.2957s-2.8903,0.7973-5.1826,2.7906s-3.887,5.1826-4.3853,6.8769
	c-0.3987,1.6943-1.0963,5.1826-1.0963,5.1826s-0.3987,3.887-0.0997,4.6843c0.299,0.7973,0.1993,1.5946-0.0997,2.1926
	s-2.691,1.3953-3.7873,0.598c-0.9967-0.7973-2.093-2.093-0.9967-6.8769s0.7973-6.0796-0.0997-7.0763s-2.8903-1.2957-3.3886-1.0963
	c-0.3987,0.1993-0.598,0.7973,1.196,1.0963c1.3953,0.299,1.6943,1.3953,1.6943,2.4916c-0.0997,4.5846-1.2957,5.9799-1.0963,8.7706
	c0.1993,2.7906,1.9933,4.2856,3.6876,4.5846s3.887-0.4983,4.186-0.4983s1.2957,0.299,1.2957,0.299s0.4983,0.1993,1.0963,0.1993
	c0.598,0,0.9967,0.299,1.0963,0.299c0.1993,0-0.0997,0.598,0.897,0.3987c0.9967-0.1993,2.4916-0.299,2.4916-0.299
	s0.897-0.1993,1.495-0.0997c0.598,0.0997,1.8144,0.4393,1.8144,0.4393s1.2246-0.0997,1.6232,0
	c0.3987,0.0997,0.848,0.059,0.848-0.4393c-0.0997-0.4983-0.3987-1.2957-0.3987-1.2957s0.3987-0.4983,0.299-1.0963
	c-0.1993-0.598-1.0963-1.495-1.0963-1.495l-0.299-0.598c0,0,0.299-0.598,0.0997-1.495c-0.1993-0.7973-0.0997-2.392-0.0997-2.392
	l0.3987-1.0963c0,0,0.598,0.4983,0.6977,0.4983c0.0997,0,0.299,0.7973,0.3987,0.9967c0.0997,0.1993-0.3987,0.1993-0.299,0.598
	c0.0997,0.3987,0.299,0.7973,0.299,0.7973s-0.3987-0.598-0.7973-0.598c-0.299,0.0997-0.4983,0.4983-0.299,0.7973
	c0.299,0.299,0.7973,0.897,1.196,0.7973c0.3987-0.0997,1.196-1.0963,1.2957-1.2957c0.0997-0.299-0.1993-1.2957-0.0997-1.794
	c0.0997-0.4983,0.4983-1.0963,0.0997-1.8936c-0.3987-0.7973-0.9967-0.6977-1.2957-1.3953c0,0-0.4983-0.7973,0.0997-1.2957
	c0.598-0.598,1.2957-2.392,1.6943-2.8903c0.299-0.598,0.598-1.196,0.6977-1.794s0-1.495,0-1.495l0.1993-0.3987l0.897-0.299
	c0,0,0.598-0.0997,0.7973-0.299c0.1993-0.299,0.3987-0.598,0.3987-0.598s0.598-0.299,0.6977-0.7973c0.0997-0.3987,0-0.7973,0-0.7973
	s-0.1993-0.7973-0.0997-1.0963l0.299-1.2957c0,0,0.598-0.0997,0.598-0.598C30.2874,4.3048,29.8887,3.5075,29.8887,3.5075
	L29.8887,3.5075z"/>
</svg>
