<?xml version="1.0" encoding="utf-8"?>
<!-- Generator: Adobe Illustrator 25.2.3, SVG Export Plug-In . SVG Version: 6.00 Build 0)  -->
<svg version="1.1" id="macaque" xmlns="http://www.w3.org/2000/svg" xmlns:xlink="http://www.w3.org/1999/xlink" x="0px" y="0px"
	 viewBox="0 0 32 32" style="enable-background:new 0 0 32 32;" xml:space="preserve">
<style type="text/css">
	.st0{fill:#FFFFFF;}
</style>
<path class="st0" d="M30.1,3.5c0,0-0.4-1.1-0.6-1.2c-0.3-0.1-1.3-0.8-1.7-0.9S27,0.9,26.2,1s-1.7,0.3-2,0.6C23.9,2,22.9,3,22.9,3
	s-0.3,1.5-0.5,1.7c-0.2,0.3-1,1.1-1.3,1.3c-0.3,0.2-2.9,0.8-5.2,2.8S12,14,11.5,15.7c-0.4,1.7-1.1,5.2-1.1,5.2s-0.4,3.9-0.1,4.7
	c0.3,0.8,0.2,1.6-0.1,2.2s-2.7,1.4-3.8,0.6c-1-0.8-2.1-2.1-1-6.9s0.8-6.1-0.1-7.1s-2.9-1.3-3.4-1.1c-0.4,0.2-0.6,0.8,1.2,1.1
	c1.4,0.3,1.7,1.4,1.7,2.5c-0.1,4.6-1.3,6-1.1,8.8s2,4.3,3.7,4.6s3.9-0.5,4.2-0.5s1.3,0.3,1.3,0.3s0.5,0.2,1.1,0.2s1,0.3,1.1,0.3
	c0.2,0-0.1,0.6,0.9,0.4s2.5-0.3,2.5-0.3s0.9-0.2,1.5-0.1s1.5,0,1.5,0s1.3,0,1.7,0.1c0.4,0.1,1.1,0.4,1.1-0.1
	c-0.1-0.5-0.4-1.3-0.4-1.3s0.4-0.5,0.3-1.1c-0.2-0.6-1.1-1.5-1.1-1.5l-0.3-0.6c0,0,0.3-0.6,0.1-1.5c-0.2-0.8-0.1-2.4-0.1-2.4
	l0.4-1.1c0,0,0.6,0.5,0.7,0.5s0.3,0.8,0.4,1s-0.4,0.2-0.3,0.6s0.3,0.8,0.3,0.8s-0.4-0.6-0.8-0.6c-0.3,0.1-0.5,0.5-0.3,0.8
	c0.3,0.3,0.8,0.9,1.2,0.8s1.2-1.1,1.3-1.3c0.1-0.3-0.2-1.3-0.1-1.8s0.5-1.1,0.1-1.9s-1-0.7-1.3-1.4c0,0-0.5-0.8,0.1-1.3
	c0.6-0.6,1.3-2.4,1.7-2.9c0.3-0.6,0.6-1.2,0.7-1.8s0-1.5,0-1.5l0.2-0.4l0.9-0.3c0,0,0.6-0.1,0.8-0.3c0.2-0.3,0.4-0.6,0.4-0.6
	s0.6-0.3,0.7-0.8c0.1-0.4,0-0.8,0-0.8s-0.2-0.8-0.1-1.1l0.3-1.3c0,0,0.6-0.1,0.6-0.6C30.5,4.3,30.1,3.5,30.1,3.5L30.1,3.5z"/>
</svg>
