<?xml version="1.0" encoding="utf-8"?>
<!-- Generator: Adobe Illustrator 25.4.1, SVG Export Plug-In . SVG Version: 6.00 Build 0)  -->
<svg version="1.1" id="barell_x5F_medic" xmlns="http://www.w3.org/2000/svg" xmlns:xlink="http://www.w3.org/1999/xlink" x="0px"
	 y="0px" viewBox="0 0 32 32" style="enable-background:new 0 0 32 32;" xml:space="preserve">
<path id="McGwXH_1_" d="M30.6,30.6c-0.4-0.3-0.7-0.7-1.1-1c-0.6-0.4-1.2-0.7-1.9-0.7c-0.1,0-0.2,0-0.3,0.2c-0.2,0.4-0.4,0.7-0.7,1
	c-0.2,0.1-0.4,0.2-0.5,0.4c0,0-0.1,0-0.2,0s-0.1-0.1,0-0.1l0,0c0-0.1,0-0.3,0-0.4c0.2-0.3,0.4-0.7,0.7-1c0.3-0.3,0.6-0.4,1-0.3
	c0.2,0,0.4,0.1,0.6,0.1c-0.2-0.2-0.4-0.3-0.7-0.4c-0.2-0.1-0.3-0.1-0.5-0.2c0,0,0,0,0-0.1c0,0,0,0,0.1,0c0.2,0.1,0.4,0.2,0.6,0.2
	c-0.2-0.1-0.3-0.2-0.5-0.3c-0.3-0.2-0.6-0.3-1-0.3c0,0,0,0-0.1,0v-0.1h0.1c0,0,0.1,0,0.1-0.1c0,0,0-0.1-0.1-0.1
	c-0.2-0.1-0.4-0.1-0.5-0.2c-0.1,0-0.3-0.1-0.4-0.2c-0.7-0.2-1.3-0.5-2-0.7c-0.5-0.2-1.1-0.4-1.6-0.5c-0.2,0-0.4-0.1-0.6-0.1
	s-0.3-0.1-0.5-0.1c-0.3-0.1-0.6-0.1-0.9-0.2c-0.2-0.1-0.5-0.1-0.7-0.2c-0.1,0-0.1,0-0.2,0c-0.3-0.1-0.7-0.1-1-0.2
	c-0.1,0-0.3-0.1-0.4-0.1c-0.2,0-0.3,0-0.5-0.1c-0.2,0-0.3,0-0.5-0.1c-0.2,0-0.3,0-0.5,0c-1.2-0.1-2.5-0.1-3.7-0.2
	c-0.7,0-1.4,0-2.1,0.1c-0.7,0-1.4,0.1-2.1,0.1c-0.4,0-0.9,0-1.3,0.1c-0.1,0-0.3,0.3-0.2,0.4c0.4,0.6,0.5,1.3,0.7,2l0,0
	c-0.1,0.2-0.1,0.4-0.2,0.6l0,0c-0.2,0-0.2,0.1-0.3,0.3c0,0.1-0.1,0.1-0.1,0c-0.1-0.1-0.3,0-0.3,0.1c-0.1,0.1-0.1,0.1-0.2,0
	S5.8,28.1,5.6,28H5.5c-0.1,0.1-0.2,0.1-0.2,0c0,0.1-0.2,0-0.3,0s-0.1,0-0.2-0.1c0-0.1-0.1-0.3-0.3-0.3l-0.1-0.1
	c0-0.1,0.1-0.3-0.1-0.3v-0.1c0-0.1,0.2-0.2,0-0.3v-0.1c0.5-0.6,0.9-1.1,1.5-1.6c0.2,0,0.3-0.1,0.4-0.2c-0.3,0-0.7,0.1-1,0.1
	c-0.2,0-0.3,0.1-0.5,0.2c-0.5,0.4-1,0.8-1.5,1.3c-0.1,0.1-0.2,0.2-0.3,0.2c-0.1,0.1-0.2,0.2-0.4,0.1l0,0c-0.1,0-0.3,0.2-0.3,0.1
	c-0.1-0.1-0.2-0.1-0.3-0.1H1.8c0-0.2-0.2-0.2-0.3-0.3c0,0,0,0,0-0.1c0.1-0.2-0.1-0.2-0.1-0.3c-0.1-0.1-0.1-0.3-0.2-0.3v-0.1
	c0-0.2,0.2-0.4-0.1-0.5l0,0c0.2-0.1,0.1-0.3,0.1-0.4c0-0.2-0.1-0.3,0.1-0.4c0,0,0-0.2,0-0.3c0-0.1,0.1-0.1,0.1-0.2s0-0.1,0.1-0.2
	c0.1,0,0.1-0.1,0.2-0.1c0.1-0.2,0.2-0.2,0.4-0.2h0.1c0.1-0.2,0.3-0.1,0.4,0c0.8,0.3,1.5,0.8,2.2,1.2c0.2,0.2,0.4,0.2,0.7,0.2
	c0.3,0,0.7-0.1,1-0.1c-0.5,0-0.7-0.4-1.1-0.6L5.3,24c-0.4-0.2-0.7-0.6-1-0.9c-0.1,0-0.1-0.1,0-0.2c0,0,0-0.2,0-0.3
	c0-0.1-0.1-0.2,0.1-0.2c0.1,0,0.1-0.1,0.1-0.2c-0.1-0.2,0-0.2,0.2-0.3c0.1,0,0.1-0.1,0.2-0.1s0.2,0,0.2-0.2l0.1-0.1
	c0.1,0.1,0.2,0.1,0.3,0c0.1-0.1,0.3,0,0.4-0.2L6,21.4c0.1,0,0.2,0.1,0.3,0c0.1-0.2,0.2,0,0.2,0c0.1,0.1,0.1,0.2,0.3,0.1
	c0,0,0.1,0,0.1,0.1C6.8,21.8,6.8,22,7,22v0.1c0.1,0.7,0,1.3-0.2,1.9c0,0.1-0.1,0.2-0.2,0.4c-0.1,0.1,0,0.2,0.1,0.2
	c0.3,0,0.6,0,0.9,0c1.3-0.1,2.7-0.1,4-0.2c0.5,0,1,0,1.5,0c0.2,0,0.3,0,0.5,0c0.1,0,0.2,0,0.3-0.1c0,0,0,0,0.1,0
	c0.1,0.2,0.3,0.1,0.5,0.1c0.4,0,0.7,0.1,1.1,0.1s0.7,0.1,1.1,0.1s0.9,0.1,1.3,0.1c0.4,0.1,0.9,0.2,1.3,0.3c0.4,0.1,0.7,0.1,1.1,0.2
	c0.1,0,0.2,0.1,0.3,0.1c0.1,0,0.2,0.1,0.3,0.1c0.1,0,0.2,0,0.2,0c0.1,0.1,0.2,0,0.3,0.1c0.1,0,0.2,0.1,0.3,0.2
	c0.5,0.2,1,0.3,1.5,0.5c0.2,0.1,0.5,0.1,0.7,0.2c0.3,0.2,0.7,0.2,1,0.4c0.1,0,0.2,0.1,0.3,0l-0.1-0.1c-0.3-0.2-0.5-0.4-0.8-0.7
	c-0.2-0.2-0.4-0.3-0.7-0.3v-0.1c0.1,0,0.2,0,0.3,0c0.2,0.1,0.2-0.1,0.2-0.1s0,0-0.1,0H24c-0.1-0.1-0.1-0.2-0.3-0.2
	c-0.1,0-0.2-0.1-0.3-0.2c-0.1-0.1-0.2-0.2-0.3-0.1c-0.1,0-0.1-0.1-0.2-0.2s-0.2-0.2-0.3-0.2c-0.1,0.1-0.1-0.2-0.2-0.1
	c-0.1-0.3-0.3-0.3-0.5-0.4c-0.2-0.2-0.5-0.3-0.7-0.4c-0.1-0.1-0.2-0.2-0.3,0l0,0c0-0.1-0.1-0.2-0.1-0.2c-0.1,0.1-0.1,0-0.2-0.1
	c-0.3-0.2-0.6-0.4-0.9-0.5h-0.1c-0.1,0-0.1,0-0.1-0.1c0,0,0-0.1-0.1-0.1c-0.3-0.1-0.6-0.3-0.9-0.4c-0.2-0.1-0.3-0.2-0.4-0.2
	c-0.2-0.1-0.4-0.1-0.5-0.2c-0.1,0-0.2,0-0.2,0c-0.1,0-0.1-0.1-0.2-0.1c-0.2-0.1-0.5-0.2-0.7-0.3c-0.2-0.1-0.4-0.1-0.6-0.2
	c-0.1,0-0.2-0.1-0.4-0.2c-0.1-0.1-0.3-0.1-0.4-0.2c-0.8-0.3-1.6-0.6-2.4-0.9c-0.4-0.1-0.8-0.3-1.2-0.4c-0.2-0.1-0.3-0.1-0.5-0.2
	c-0.1,0-0.1-0.1-0.1-0.1h-0.1c0,0,0,0-0.1,0s-0.2,0-0.2,0c-0.1,0,0.1-0.1-0.1-0.2c-0.2,0-0.4-0.1-0.6-0.2c-0.2-0.1-0.4,0-0.5-0.3
	c-0.2,0-0.3-0.2-0.6-0.2c-0.1,0-0.2-0.1-0.3-0.2l-0.1-0.1c-0.1,0-0.2,0.1-0.2-0.1c-0.3-0.1-0.5-0.4-0.9-0.4c-0.1,0-0.2,0.1-0.2,0.2
	c-0.1,0.4-0.4,0.7-0.6,1.1c-0.1,0.2-0.2,0.4-0.4,0.6c-0.1,0.1-0.2,0.2-0.3,0.3c-0.1,0.1-0.1,0.1-0.3,0.1c-0.1,0-0.3,0.1-0.4,0.2
	c-0.1,0-0.1,0.1-0.2,0c0,0-0.1,0-0.2,0s-0.2,0.2-0.3,0c0.2,0,0.2-0.1,0.1-0.1l0,0c-0.2,0-0.3,0-0.3-0.3l0,0
	c-0.3,0.1-0.2-0.2-0.2-0.3c0-0.1-0.1-0.2-0.3-0.2H3.5v-0.1c0.1-0.1,0.1-0.3,0-0.4c0,0,0-0.2-0.1-0.2c0,0,0-0.1,0.1-0.1
	c0.1-0.1,0.2-0.2,0-0.3c-0.1-0.1,0-0.1,0-0.2c0.2-0.1,0.1-0.2,0.1-0.3v-0.1c0.3,0,0.4-0.3,0.7-0.3c0.4-0.1,0.7-0.1,1.1-0.1
	c0.3,0,0.5,0,0.8,0h0.1c0-0.1,0-0.2-0.1-0.2c-0.2,0-0.3-0.2-0.4-0.1c-0.1,0-0.1,0-0.2,0.1c0.1-0.1,0-0.1-0.1-0.2
	c-0.2-0.1-0.4-0.2-0.6-0.2c0,0,0-0.1-0.1-0.1c-0.2-0.1-0.5-0.2-0.7-0.3c-0.3-0.1-0.6-0.2-0.8-0.3c0-0.3-0.5-0.2-0.4-0.5
	c0,0,0-0.1-0.1-0.1c-0.1-0.1-0.1-0.1,0-0.2l0,0c0-0.1,0-0.3,0-0.4C3,14.5,3,14.4,3,14.2c0-0.1,0-0.1,0.1-0.2l0.1-0.1
	c-0.1-0.3,0.2-0.3,0.3-0.4c0.1-0.1,0.1-0.1,0.1-0.2c0-0.1-0.1-0.2,0.1-0.1c0.2,0.1,0.2,0,0.3-0.2c0-0.1,0.1-0.2,0.2-0.1l0,0
	c0.1,0,0.2-0.1,0.3-0.1c0.1,0,0.2,0.1,0.2,0c0.1-0.1,0.1-0.1,0.2,0c0.1,0,0.2,0.1,0.2,0c0.1-0.2,0.2-0.1,0.3,0l0.1,0.1
	C5.7,12.8,5.7,13,5.8,13C6,12.8,6,13,6,13.2v0.1c0.2,0.2,0.1,0.5,0.2,0.7c0.1,0.5,0.1,1,0.2,1.4s0,0.7,0,1.1c0,0.1,0,0.1,0.1,0.2
	c0.2,0.1,0.4,0.2,0.6,0.3c0,0,0.1,0,0.2,0v-0.1c-0.1-0.2-0.2-0.4-0.2-0.6c0-0.1,0-0.2-0.1-0.1l0.1-0.1c0-0.1,0-0.1,0-0.2
	c0-0.2-0.1-0.4-0.1-0.6c0-0.1,0-0.2,0-0.3c0-0.2-0.1-0.3-0.1-0.5c0-0.1-0.1-0.2,0-0.3c0,0,0-0.2,0-0.3s0-0.2,0-0.2
	c0.2,0,0.2-0.1,0.2-0.3l0.1-0.1c0.1,0.1,0.2,0,0.2-0.1s0.1-0.1,0.2-0.1c0.1,0.1,0.2,0,0.2-0.1s0.1-0.1,0.2,0c0.2,0,0.3,0,0.5,0.1
	h0.1c0.1-0.1,0.2-0.2,0.2,0.1c0,0,0.1,0.1,0.2,0.1c0.1,0,0.2,0,0.3,0c0,0,0.1,0,0.1,0.1c0,0.2,0.1,0.2,0.2,0.2c0.1,0,0.1,0,0.1,0.1
	c0,0.2,0.1,0.3,0.3,0.3l0.1,0.1c0,0.1,0,0.3,0.1,0.4v0.1c-0.2,0.2-0.1,0.5-0.3,0.8c-0.2,0.4-0.6,0.7-0.9,1c-0.3,0.4-0.7,0.6-1,0.8
	c0,0-0.1,0.1,0,0.1c0.1,0.1,0.1,0.3,0.3,0.4c0.1,0,0.2,0.1,0.2,0.1c0.5,0.4,1.2,0.6,1.7,1c0.1,0.1,0.2-0.1,0.3,0
	c0,0.2,0.2,0.1,0.3,0.1c0.2,0.1,0.4,0.2,0.7,0.3c0.5,0.2,1,0.4,1.6,0.6c0.1,0.1,0.3,0,0.4,0.2c0.1,0.1,0.3,0.1,0.4,0.1H14
	c0.1-0.2,0.2,0,0.3,0.1s0.2,0.1,0.3,0.2l0,0c0.1-0.2,0-0.4-0.1-0.4c-0.2,0-0.2-0.1-0.2-0.2c0,0,0,0,0-0.1c0-0.2-0.3-0.3-0.2-0.4
	c0.1-0.2,0.1-0.3,0-0.5c-0.1-0.1,0-0.1,0-0.2c0.1-0.1,0.2-0.1,0.1-0.2c0,0,0-0.1,0.1-0.1c0.1-0.1,0.2,0,0.2-0.2l0,0
	c0.2,0,0.3,0,0.5,0s0.4,0.2,0.7,0.1c0.3,0.2,0.7,0.3,1,0.4c-0.1-0.2-0.2-0.4-0.3-0.6l-0.1-0.1c-0.5,0.1-0.9-0.1-1.3-0.3
	c-0.3-0.1-0.6-0.2-0.9-0.4c-0.1,0-0.3-0.4-0.3-0.5l0,0c0-0.1-0.1-0.2-0.1-0.3c0-0.1,0.1-0.1,0.2-0.2c0.1-0.1,0.2-0.2,0.1-0.3
	l0.1-0.1c0.2,0,0.4-0.1,0.4-0.3l0.1-0.1c0.3,0.1,0.3-0.1,0.4-0.3c0-0.1,0.1-0.1,0.2-0.1c0.1,0.1,0.2,0.1,0.3-0.1
	c0.1-0.1,0.1-0.1,0.2,0c0.1,0.1,0.2,0.2,0.3,0.1h0.1c0,0.2,0.3,0.2,0.3,0.5c0,0.2,0.1,0.3,0.1,0.5s0,0.4,0.1,0.6c0,0.2,0,0.4,0,0.6
	c0,0.1,0,0.2-0.1,0.3c-0.1,0.2,0,0.4,0.1,0.6c0.1-0.4,0.3-0.7,0.4-1.1c0-0.1,0.1-0.1,0.1-0.2c0-0.3,0.3-0.5,0.4-0.7h0.1
	c0.1,0.1,0.2,0,0.3,0c0,0,0.1,0,0.1,0.1c0.1,0.2,0.1,0.2,0.3,0.1c0.1-0.1,0.1,0,0.1,0.1c0,0,0,0.1,0,0.2c0,0.2,0.3,0,0.3,0.2
	s0.1,0.2,0.2,0.3c0.1,0,0.2,0.1,0.1,0.2c0,0,0,0.1,0,0.2c0.2,0.1,0.1,0.2,0.1,0.3c0,0.3-0.2,0.3-0.4,0.5c-0.2,0.2-0.5,0.3-0.7,0.3
	c-0.3,0-0.5,0.1-0.8,0.1h-0.1c0,0.1,0,0.1,0.1,0.2c0.2,0.2,0.4,0.4,0.7,0.6c1,0.8,2,1.6,3.1,2.5c0.2,0.2,0.5,0.3,0.7,0.5h0.1
	c0,0,0,0,0-0.1c-0.3-0.3-0.4-0.6-0.3-1c0-0.2,0-0.4,0-0.6v-0.1c0.1,0,0.2,0,0.3,0c0.1,0.1,0.3,0.1,0.4,0.1c0.2,0,0.2-0.1,0.1-0.3
	c-0.1-0.2-0.3-0.5-0.4-0.7c-0.3-0.4-0.6-0.9-0.8-1.3c-0.3-0.4-0.5-0.9-0.8-1.3s-0.5-0.8-0.8-1.2c-0.2-0.2-0.2-0.5-0.4-0.7
	c-0.2-0.2-0.3-0.5-0.5-0.7s-0.3-0.5-0.5-0.7s-0.4-0.5-0.5-0.7c-0.2-0.2-0.3-0.5-0.5-0.7c-0.3-0.3-0.6-0.7-0.9-1
	c-0.4-0.5-0.7-0.9-1.1-1.4c-0.4-0.5-0.9-1.1-1.3-1.6c-0.1-0.2-0.3-0.3-0.4-0.5c-0.1-0.2-0.3-0.3-0.4-0.5c-0.1-0.1-0.1-0.1-0.2-0.2
	c-0.1-0.1-0.1-0.1-0.2,0.1c-0.2,0.4-0.4,0.8-0.6,1.2c-0.1,0.2-0.3,0.5-0.4,0.7c-0.1,0.2-0.3,0.3-0.5,0.5H11h-0.1
	c-0.1,0-0.3,0.1-0.4,0.1c-0.1,0-0.1,0-0.2,0c-0.1,0.1-0.1,0-0.2-0.1c-0.7-0.1-0.8-0.3-1-0.2c0,0,0,0-0.1,0c0-0.1-0.1-0.2-0.1-0.2
	C8.7,9.5,8.8,9.3,8.7,9.2c0-0.1,0-0.2-0.2-0.2C8.4,9,8.4,9,8.4,8.9c0.1-0.1,0-0.2-0.1-0.3c0-0.1-0.2-0.2,0-0.3C8.5,8.2,8.4,8,8.4,8
	c-0.1-0.1,0-0.1,0-0.2c0.1-0.1,0.1-0.2,0.1-0.3c-0.1-0.2,0-0.2,0.1-0.2s0.2-0.1,0.2-0.2C8.8,7,8.9,7,8.9,7c0.5-0.2,1,0,1.5-0.1
	c0.4,0,0.7,0,1.1,0c0.1,0,0.3,0,0.4,0.1H12V6.9c-0.2-0.5-0.5-0.9-0.8-1.4c0,0,0,0-0.1,0C10.5,5.3,10,5,9.4,4.8
	C9.2,4.7,9.1,4.7,9,4.6C8.8,4.5,8.5,4.5,8.3,4.3c0-0.1-0.1-0.1-0.2-0.1C8,4.2,7.9,4.1,7.8,4C7.7,3.8,7.6,3.7,7.7,3.5V3.4
	c0-0.1,0-0.1,0-0.2c0-0.3,0.3-0.4,0.1-0.7c0,0,0-0.1,0.1-0.1S8.1,2.3,8,2.1L8.1,2c0.1-0.1,0.3-0.2,0.4-0.3c0.1-0.1,0.2-0.2,0.4-0.3
	c0.1,0,0.2,0,0.2,0C8.9,1.6,8.9,1.7,9,1.9L9.1,2c0-0.1,0-0.1,0-0.2s0-0.3,0-0.4c0.1-0.1,0.1-0.2,0.3-0.1h0.1c0.1,0,0.3-0.1,0.4-0.1
	H10c0.1,0,0.1,0.1,0.1,0.1c0.2-0.1,0.4,0,0.5,0.2c0,0.1,0.2,0.1,0.2,0.1c0.1,0.1,0,0.2,0.1,0.3c0.2,0.2,0.1,0.5,0.2,0.7
	c0.1,0.6,0.1,1.1,0.2,1.7c0,0.3,0.1,0.6,0.1,0.9c0,0.2,0.1,0.2,0.1,0.4c0.2,0.4,0.4,0.7,0.6,1.1c-0.1-0.7,0-1.5,0-2.2
	c0-0.3,0.1-0.6,0.2-0.9l0.1-0.1h0.1c0.1-0.2,0.2-0.3,0.4-0.1c0,0,0.1-0.1,0.2-0.1c0.1-0.1,0.1-0.1,0.2,0c0.1,0.1,0.2,0.1,0.2,0
	s0.1-0.1,0.2,0c0.2,0.1,0.3,0.3,0.5,0.3c0.1,0,0.1,0.1,0.2,0.2c0.1,0.1,0.3,0,0.3,0.3C15.1,4,15,4.4,15.3,4.5v0.1
	c0,0.1-0.1,0.2,0,0.3V5c-0.1,0.1-0.2,0.2-0.2,0.4c0,0,0,0.1-0.1,0.1c-0.5,0.4-1.1,0.9-1.7,1.2c-0.1,0.1-0.3,0.1-0.4,0.1
	c-0.2,0.1-0.3,0.3-0.2,0.5C13,7.7,13.3,8,13.6,8.4c1,1.3,2.1,2.5,3.1,3.8c0.6,0.7,1.1,1.5,1.7,2.2c0.1,0.1,0.2,0.3,0.3,0.4
	c0.1,0.1,0.2,0.3,0.3,0.5c0.1,0.1,0.2,0.3,0.3,0.4c0.1,0.2,0.2,0.3,0.3,0.5c0.2,0.4,0.5,0.7,0.7,1.1c0.1,0.1,0.1,0.1,0.2,0.1
	c0,0.1-0.1,0.1,0,0.3c0.1,0.1,0.2,0.3,0.3,0.4c0,0.1,0.1,0.1,0.2,0.2c-0.1,0.1,0,0.2,0.1,0.2c0.1,0.3,0.3,0.4,0.4,0.7
	c0,0.1,0.1,0.2,0.2,0.3c0-0.1,0-0.2-0.1-0.4c0-0.2-0.1-0.3,0.1-0.4c0,0,0,0,0.1-0.1c0-0.2,0.2-0.3,0.4-0.4c0.1-0.1,0.2-0.2,0.4-0.2
	c0.1,0,0.2-0.1,0.3-0.2c0.1-0.1,0.1-0.1,0.2-0.1h0.1c0.3-0.1,0.5,0,0.8,0c0.2,0,0.3,0,0.4,0.1s0.3,0.3,0.5,0.3l0.1,0.1
	c0.1,0.1,0.1,0.1,0.2,0.2c0.2,0.1,0.3,0.3,0.3,0.5c0,0.3,0.1,0.7,0.2,1V20c-0.1,0.1,0,0.2,0,0.3c0.1,0.1,0.1,0.2,0,0.3
	c-0.1,0.1-0.2,0.1-0.1,0.3c0,0.1-0.2,0.2-0.3,0.1c-0.2,0-0.4-0.1-0.6-0.1s-0.4,0-0.5,0c-0.3,0.1-0.5,0-0.7-0.1c-0.1,0-0.1,0-0.2-0.1
	c0,0.1,0,0.2,0,0.3c0.1,0.4,0.3,0.7,0.5,1.1c0.6,1,1.3,2,2,2.9c0.2,0.2,0.3,0.4,0.5,0.6c0.1,0.1,0.2,0.2,0.3,0.3
	c0.1,0.1,0.2,0.2,0.3,0.3c0.1,0.1,0.2,0.2,0.3,0.4c0.2,0.3,0.6,0.4,0.9,0.6C28,27,28,26.9,27.9,26.8l0,0c0.1,0.1,0.1,0.2,0.2,0.3
	c0.1,0.2,0.1,0.3,0.3,0.4c0,0,0,0,0.1,0.1v-0.1c0-0.2-0.1-0.3-0.1-0.5c0,0,0,0,0.1,0c0.1,0.2,0.2,0.5,0.2,0.7
	c0.1,0.2,0.1,0.3,0.2,0.5c0,0,0,0,0,0.1c0,0,0,0,0.1-0.1c0.1-0.2,0.1-0.4,0-0.6c-0.1-0.6-0.3-1.2-0.4-1.7c-0.1-0.3-0.2-0.7-0.2-1
	c0-0.4,0.2-0.6,0.5-0.8c0.3-0.1,0.7-0.1,0.9,0.2c0.1,0.1,0.1,0.3,0.2,0.4c0,0.1,0,0.3,0,0.5v0.1c0.1,0.6-0.2,1.1-0.3,1.7v0.1
	c-0.3,0.7-0.1,1.2,0.2,1.8c0.3,0.5,0.7,0.9,1.1,1.2C31,30.5,31.3,31.1,30.6,30.6z M22.6,24h0.1v-0.1c-0.1-0.1,0-0.3-0.2-0.2
	c0-0.2-0.1-0.2-0.2-0.3c-0.7-0.5-1.4-1.1-2.1-1.6c-0.2-0.1-0.3-0.2-0.5-0.3c-0.2-0.1-0.3-0.3-0.5-0.5c-0.5-0.4-1.1-0.9-1.6-1.3
	c-0.3-0.3-0.7-0.6-1-0.9c-0.1-0.1-0.1-0.1-0.1,0c-0.2,0.5-0.5,0.8-0.9,1.1C15.2,20,15,20,14.9,20.1h-0.1c-0.1,0-0.2,0-0.3,0v0.1
	c0.1,0.1,0.2,0.2,0.2,0.2c0.1,0.1,0.3,0,0.4,0.1c0.3,0.2,0.7,0.3,1,0.3h0.1c0.1,0.2,0.3,0.1,0.4,0.2c0.1,0,0.2,0,0.2,0
	c0.1,0.2,0.3,0.2,0.4,0.2s0.2,0.1,0.3,0.1c0.1,0,0.1,0.2,0.3,0.1c0.1,0.2,0.3,0.1,0.4,0.2c0.1,0,0.2,0.1,0.2,0.1c0.1,0,0.1,0,0.1,0
	l0.1,0.1c0.2,0,0.3,0.1,0.4,0.2c0.2,0.1,0.4,0.1,0.5,0.3c0.1,0.1,0.2,0.2,0.3,0.1c0.2-0.1,0.2,0.1,0.3,0.2h0.1
	c0.2,0.1,0.5,0.1,0.6,0.3l0,0c0.4,0.2,0.8,0.4,1.1,0.6C22.2,23.8,22.4,23.9,22.6,24z M24.4,24.5c-0.2-0.4-0.5-0.7-0.7-1
	c-0.3-0.5-0.6-1-0.9-1.5h-0.1v0.1c0,0,0.1,0,0.1,0.1c0.1,0.2,0.3,0.3,0.2,0.5c0,0.3,0.2,0.5,0.3,0.7c0.1,0.3,0.4,0.6,0.6,0.8
	C24.1,24.3,24.2,24.5,24.4,24.5z M11.1,5C11,4.9,11,4.8,10.9,4.7c-0.1-0.1-0.2-0.3-0.3-0.4c-0.1-0.2-0.1-0.2-0.3-0.2l0,0
	c0-0.1-0.1-0.2-0.1-0.2c0-0.2-0.1-0.3-0.3-0.4H9.8H9.7v0.1c0,0.3,0.3,0.4,0.4,0.6c0.2,0.2,0.4,0.5,0.6,0.7C10.8,5,10.8,5,10.9,5.1
	C11,5,11,5,11.1,5z M3.9,25c0-0.1,0-0.2-0.2-0.1H3.6C3.2,24.7,3,25,2.7,25.1l-0.1,0.1c0.1,0,0.1,0,0.2,0h0.1
	c0.2-0.1,0.4-0.1,0.6-0.2c0,0,0,0,0,0.1c0,0,0,0,0,0.1C3.7,25.2,3.8,25.1,3.9,25z M22.2,22.7c0,0.1,0,0.1,0,0.2
	c0.1,0.1,0.1,0.2,0.2,0.3c0.1,0.1,0.2,0.2,0.3,0.2h0.1v-0.1c-0.1-0.2-0.1-0.3-0.2-0.5c0-0.2,0-0.2-0.2-0.1H22.2L22.2,22.7z
	 M22.9,21.7C22.9,21.7,23,21.6,22.9,21.7c0-0.2-0.1-0.4-0.1-0.6c-0.1-0.3-0.3-0.5-0.5-0.7h-0.1v0.1l0.1,0.1
	C22.5,20.9,22.7,21.3,22.9,21.7z M25.2,25.1C25.2,25.1,25.1,25.1,25.2,25.1c0.1,0.2,0.2,0.3,0.2,0.5c0,0.1,0.1,0.2,0.2,0.2
	c0,0,0.1,0.1,0.1,0v-0.1C25.5,25.4,25.3,25.2,25.2,25.1z M25.2,26.2c0-0.1,0-0.1-0.1-0.1C25,26,24.9,26,24.8,25.9l0,0
	c-0.1,0-0.1,0-0.1-0.1h-0.1v0.1c0.2,0.1,0.4,0.2,0.5,0.4C25.1,26.3,25.1,26.2,25.2,26.2z M8.9,2.4L8.9,2.4c0-0.2,0-0.4-0.2-0.5H8.6
	V2C8.7,2.1,8.8,2.3,8.9,2.4z M6,26.2c0,0.1,0,0.1,0,0.2c0,0,0,0.1,0.1,0.1c0,0,0.1,0,0.1-0.1s0-0.2,0.1-0.3c0,0,0-0.1-0.1-0.1
	C6.1,26,6,26,6,26.2C6,26.1,6,26.2,6,26.2z M5.9,23.4L5.9,23.4c-0.1,0.1-0.1,0.1-0.1,0.1c0.1,0,0.2,0.1,0.2,0.2c0,0,0,0,0.1,0h0.1
	C6.1,23.6,6,23.4,5.9,23.4z"/>
</svg>
