<?xml version="1.0" encoding="utf-8"?>
<!-- Generator: Adobe Illustrator 25.4.1, SVG Export Plug-In . SVG Version: 6.00 Build 0)  -->
<svg version="1.1" id="tilapia" xmlns="http://www.w3.org/2000/svg" xmlns:xlink="http://www.w3.org/1999/xlink" x="0px" y="0px"
	 viewBox="0 0 32 32" style="enable-background:new 0 0 32 32;" xml:space="preserve">
<g>
	<path d="M4.0775,14.3919c-0.0483-0.0454-0.0723-0.0655-0.0718-0.0606c-0.0652-0.0169-0.1098-0.0263-0.1339-0.0284
		c-0.0357-0.0043-0.0947,0.0113-0.1769,0.0468c-0.0152,0.0065-0.061,0.0395-0.1374,0.0989
		c-0.0286,0.0284-0.051,0.0591-0.0673,0.0921c-0.0307,0.0732-0.0449,0.1191-0.0427,0.1378c0.0092,0.117,0.0646,0.2261,0.1663,0.3273
		c0.0656,0.0621,0.1483,0.0961,0.2483,0.1018c0.0886-0.0332,0.1561-0.0806,0.2026-0.1421c0.0458-0.0686,0.0739-0.1206,0.0841-0.1559
		c0.0157-0.0432,0.0246-0.0856,0.0267-0.1271c0.0006-0.0766-0.0021-0.1251-0.0082-0.1455
		C4.1361,14.4729,4.1062,14.4245,4.0775,14.3919z"/>
	<polygon points="3.2929,17.8377 3.2945,17.8357 3.2942,17.8357 	"/>
	<polygon points="3.3564,17.794 3.3546,17.7936 3.3543,17.7936 3.3559,17.7944 3.3576,17.7952 3.3592,17.7956 3.3578,17.7945 	"/>
	<path d="M4.5355,19.8928c0.378,0.0411,1.1323-0.0766,1.4833-0.2203c0.99-0.6615,1.6054-1.047,2.0417-2.7222
		c0.2736-1.0979-0.0043-2.4526-0.5703-3.5479c0.1415,0.058,0.4411,0.7093,0.8988,1.954c0.1137,1.4218,0.0468,2.3435-0.2009,2.765
		c-0.7644,1.4595-1.8668,2.1971-3.3073,2.2128c0.825,0.5962,2.1375,1.2753,3.9375,2.0372c0.371,0.0945,0.7177,0.179,1.0403,0.2535
		c0.0501,0.0594,0.1011,0.1186,0.1537,0.1773c0.4479,0.4674,0.7323,0.7433,0.8531,0.8278c0.4183,0.3567,0.8888,0.6984,1.4115,1.0252
		c0.1741,0.1053,0.355,0.2008,0.5427,0.2864c0.4812,0.197,0.7782,0.3034,0.8908,0.3192c0.4025,0.1119,0.86,0.1856,1.3726,0.221
		c0.1168-0.0035,0.1499-0.0254,0.0995-0.0657l-0.5622-0.2955l0.0847-0.1547l-0.1839-0.1463l0.0561-0.234
		c-0.0014-0.0108-0.0476-0.0531-0.1385-0.1269c0.024-0.1586,0.0141-0.2331-0.0298-0.2235l0.0691-0.151
		c-0.0015-0.0224-0.071-0.0668-0.2084-0.1333l-0.0222-0.2792c0.048-0.0906,0.11-0.1404,0.1859-0.1494
		c-0.0046-0.0191,0.2383,0.0127,0.7286,0.0952c0.0748,0.0074,0.159,0.0114,0.2525,0.0121c0.3375-0.0146,0.5391-0.0508,0.6051-0.1088
		c0.176-0.0996,0.2641-0.2014,0.2641-0.3056c-0.0068-0.0193-0.0238-0.0377-0.051-0.0554c-0.1831-0.0633-0.2794-0.1023-0.289-0.1171
		l-0.0934-0.2335l0.0507-0.0067l-3.3515-0.2307c-0.1631-0.0253-0.3243-0.0531-0.4834-0.0836l-1.4415-0.3712
		c0.6814,0.0591,1.2641,0.1073,1.7483,0.1447l0.0449,0.0042l0.1454,0.0103c0.8044,0.0605,1.3049,0.0875,1.5002,0.0808
		c0,0,0.0002,0,0.0003,0c0.0018,0.0002,0.004,0.0004,0.0058,0.0006c0.6084,0.0654,1.3614,0.1839,2.2591,0.3557l0.7334-0.1815
		l0.4247-0.0245c0.2868-0.0345,0.7074-0.1022,1.2618-0.2031c0.1607-0.0196,0.2984-0.0273,0.413-0.0231
		c0.1053,0.0082,0.2161,0.0272,0.3324,0.0568c0.6883,0.261,1.2219,0.4513,1.601,0.5708c0.197,0.0595,0.5735,0.1436,1.1295,0.2523
		c0.6913,0.1442,1.4636,0.2012,2.3168,0.1711c0.3678-0.012,0.8664-0.1005,1.4957-0.2658c0.2532-0.0734,0.4025-0.1724,0.4479-0.297
		l-0.0273-0.0433c-0.3915-0.1496-0.6147-0.2591-0.6696-0.3286c-0.0446-0.0584-0.0965-0.1946-0.1558-0.4087l-0.2433-0.2708
		c-0.0138-0.1992-0.0285-0.3124-0.044-0.3398c-0.2772-0.1663-0.417-0.2663-0.4195-0.3c-0.1011-0.114-0.1607-0.2327-0.1788-0.3562
		c-0.0546,0.022-0.1476-0.0851-0.279-0.3213l-0.1627-0.0899l-0.0522-0.1437c-0.0122-0.0125-0.1114-0.0221-0.2977-0.029
		c-0.0461-0.122-0.1141-0.1769-0.204-0.1647c0.0528-0.0942,0.023-0.2282-0.0893-0.402c-0.0769-0.0591-0.151-0.0914-0.2221-0.0969
		c-0.0272-0.1075-0.0746-0.1705-0.1423-0.1888l-0.0873,0.0043c-0.3533,0.014-0.5557,0.0196-0.6073,0.0168
		c-0.039,0.0128-0.0752,0.0284-0.1086,0.0469c-0.0884,0.0168-0.637,0.4212-1.6428,1.2105c-0.0579,0.0411-0.1146,0.0807-0.1718,0.121
		l-0.3448,0.1975c0.0051-0.0094,0.0143-0.0221,0.0275-0.0379c0.0428-0.045,0.0853-0.0892,0.1277-0.1329
		c0.2485-0.241,0.7859-0.7093,1.611-1.4039c0.0083-0.0057,0.0167-0.0121,0.0249-0.0178l-0.0034-0.0004
		c0.0096-0.0081,0.0189-0.0159,0.0286-0.024c0.5385-0.267,1.2414-0.5547,2.1085-0.863c0.5386-0.032,0.9097-0.0114,1.1131,0.0618
		l2.6618,1.8059c0.2618,0.1166,1.1255,0.3771,2.5911,0.7816L31,19.2058c-0.0238,0.0477-0.0535-0.1545-0.0891-0.6065l-0.0326-2.3117
		c-0.5785-0.4871-0.9404-0.7584-1.0856-0.814c0.2008,0.0235,0.5228,0.008,0.964-0.0456l0.0165,0.0385
		c0.0002-0.0137-0.0001-0.0268,0-0.0404c0.006-0.0007,0.0115-0.0013,0.0176-0.0021l-0.0177-0.1207
		c-0.0014-0.2634-0.0131-0.5134-0.0364-0.7486c-0.0164-0.1611-0.0987-0.6294-0.2468-1.405
		c-0.0152-0.1077-0.0339-0.3088-0.056-0.6034c-0.0119-0.2179-0.0126-0.3474-0.0021-0.3883c0.016-0.1495,0.0493-0.327,0.0999-0.5326
		c0.001-0.0112,0.0011-0.0197,0.0005-0.0264l0.0039-0.005c-0.0654-0.2657-0.9639-0.1715-2.6955,0.2828
		c-0.4275,0.1959-1.5191,0.8331-3.2749,1.9116c-0.2199,0.0824-0.4661,0.1169-0.7386,0.1033l-0.8239-0.2289l-0.0438-0.0357
		c0.048-0.0042,0.0942-0.0096,0.1366-0.0173c0.1707-0.0558,0.4989-0.2482,0.9846-0.5771L24.5287,11.9
		c0.26-0.202,0.6902-0.8765,1.2907-2.0234c-0.0832-0.1865-0.152-0.304-0.2065-0.3525l-0.7626-0.1554L23.6093,9.297l-0.9568-0.3943
		l-0.1587-0.2001c-0.1217,0.0635-0.2408-0.0036-0.3574-0.2014c-0.2568,0.009-0.4415-0.045-0.5541-0.162l-0.3421,0.0236
		L21.0069,8.221l-0.4596,0.0544l-0.2796-0.1299c-0.0707-0.0041-0.1779,0.0065-0.3216,0.0318
		c0.0417-0.0889-0.1678-0.1218-0.6283-0.0988l-0.215-0.1614c-0.0933-0.0076-0.2633,0.0147-0.51,0.0669
		c-0.0427-0.1447-0.2465-0.1957-0.6113-0.153l-0.2588-0.1995c-0.1048-0.0136-0.2251-0.0108-0.361,0.0086
		c-0.0367-0.1478-0.2143-0.1994-0.5329-0.1551c-0.162-0.1563-0.3149-0.2269-0.4586-0.2119l-0.1078-0.1434
		c-0.0964-0.0102-0.1984-0.0119-0.3058-0.0052c0.0513-0.0443-0.0817-0.0944-0.399-0.15l-0.1512-0.1357l-0.2739-0.0514l-0.146-0.121
		c-0.2382,0.0081-0.4076-0.0407-0.5081-0.1463L14.393,6.5358c-0.3772,0.031-0.5517,0.0251-0.5235-0.0177l-0.3718,0.1337
		c0.0884-0.0414-0.0288-0.0349-0.3517,0.0198l-0.7793,0.2422c-0.8906,0.4615-1.8205,1.0009-2.7898,1.6181
		C9.1105,8.8867,8.6959,9.2308,8.3309,9.5648c-0.3598,0.1414-0.7396,0.3027-1.1413,0.486l-4.265,4.1742l-1.4577,1.1207
		c-0.0114,0.2637,0.0262,0.6497,0.1126,1.158L1,16.6381l0.9723,1.4513l2.2033,1.6561 M4.4197,14.7903
		c-0.0282,0.1038-0.054,0.1843-0.0776,0.2413c-0.0888,0.1102-0.1455,0.1774-0.1701,0.2017
		c-0.1294,0.1163-0.2824,0.1666-0.4592,0.1508c-0.0909-0.0239-0.1492-0.0444-0.1748-0.0615
		c-0.0404-0.0283-0.111-0.0935-0.2118-0.1956l-0.0445-0.0875c-0.0142-0.0489-0.0242-0.0902-0.0301-0.1241l-0.0154-0.0317
		L3.196,14.7545l0.0054-0.2034c0.0252-0.0814,0.0624-0.1694,0.1116-0.264c0.0327-0.042,0.0856-0.1022,0.1588-0.1806
		c0.0791-0.0416,0.1673-0.0832,0.2647-0.1247c0.1102-0.0124,0.1847-0.0183,0.2235-0.0177l0.0491,0.0043
		c0.0405-0.0069,0.1126,0.024,0.2165,0.0925c0.0714,0.0938,0.11,0.1495,0.1158,0.167c0.0289,0.0747,0.0572,0.1615,0.0849,0.2601
		C4.4331,14.5381,4.4309,14.6389,4.4197,14.7903z M21.453,11.7146c0.3946,0.2802,0.7658,0.6385,1.1137,1.0748
		c-0.632-0.4406-1.1305-0.7659-1.4955-0.9758l-0.7283-0.3156l-0.0222-0.0181c-0.1485-0.0617-0.2933-0.1215-0.4362-0.1806
		l-1.7917-0.7764c-0.2403-0.0823-0.4851-0.1626-0.7336-0.2412c-0.3938-0.1534-0.7494-0.2885-1.0656-0.4048
		c-0.3449-0.0699-0.6853-0.1319-1.0218-0.1866c-0.1549-0.0392-0.3108-0.0779-0.4684-0.1159
		c-0.716-0.1395-1.6923-0.2112-2.929-0.2151c-0.2302,0.0122-0.4745,0.0279-0.7315,0.0468
		c-0.8612,0.0311-1.6881,0.1245-2.4806,0.2804c0.0683-0.0324,0.1379-0.0638,0.209-0.0942c0.0829-0.0229,0.1818-0.0491,0.2976-0.0789
		c0.1723-0.0502,0.9154-0.2273,2.2287-0.5314c0.4997-0.0531,1.0347-0.0804,1.6051-0.0817l0.2849,0.0101
		c0.3054-0.0126,0.7634,0.0371,1.3727,0.1488c0.1851,0.0402,0.3748,0.0846,0.5703,0.1345
		c-0.0633-0.0217-0.1385-0.0443-0.2244-0.0677c0.165,0.0333,0.3387,0.0702,0.5224,0.1112c0.3562,0.1041,0.6886,0.2032,0.9996,0.2976
		c-0.3994-0.1115-0.8296-0.2246-1.2912-0.3396l0.165,0.0428c0.3758,0.0979,0.8002,0.2118,1.2717,0.3411
		c0.9783,0.2993,1.7229,0.5489,2.232,0.7483C19.2091,10.4333,20.0581,10.8956,21.453,11.7146z M13.9411,20.6591l-1.4893,0.5687
		c-0.3118,0.0267-0.8693,0.0028-1.6726-0.0718c-0.3572-0.0719-0.6096-0.126-0.7571-0.162
		c-0.5245-0.1951-0.8718-0.3316-1.0419-0.4096c0.3976,0.0941,1.1227,0.1342,2.1753,0.1202c0.6183-0.0799,1.0136-0.1452,1.1862-0.196
		c0.122-0.0393,0.4105-0.1589,0.8655-0.3591l0.422-0.3821c0.0394-0.0212,0.0193-0.2507-0.0601-0.6886
		c-0.0554-0.0503-0.3346-0.1748-0.8375-0.3733l-0.3082-0.0496l-0.3198-0.0175l-2.3861-0.2764
		c0.4581,0.0463,1.1051,0.0734,1.9411,0.0813l0.6928-0.0331l1.1896-0.1577l0.034,0.0042c0.0416-0.0041,0.4037,0.1435,0.4573,0.1864
		l0.2492,0.5139l0.3665,0.7884C14.7086,20.3443,13.9411,20.6591,13.9411,20.6591z M23.354,19.8921l0.0022-0.0006
		c0.0003-0.0001,0.0008-0.0002,0.0015-0.0004l0.0024-0.0005c0.0009-0.0001,0.0018-0.0002,0.0027-0.0003l0.0005,0l-0.0039,0.0007
		l-0.0026,0.0005l-0.0026,0.0006l-0.002,0.0006L23.354,19.8921z M20.7724,20.6259c-0.0095,0.0075-0.0184,0.0144-0.028,0.022
		l-0.0195,0.0112C20.7406,20.6481,20.7563,20.6372,20.7724,20.6259z"/>
</g>
</svg>
