<?xml version="1.0" encoding="utf-8"?>
<!-- Generator: Adobe Illustrator 23.1.1, SVG Export Plug-In . SVG Version: 6.00 Build 0)  -->
<svg version="1.1" id="tilapia" xmlns="http://www.w3.org/2000/svg" xmlns:xlink="http://www.w3.org/1999/xlink" x="0px" y="0px"
	 viewBox="0 0 32 32" style="enable-background:new 0 0 32 32;" xml:space="preserve">
<style type="text/css">
	.st0{fill:#FFFFFF;}
</style>
<path class="st0" d="M4.1,14.4C4,14.3,4,14.3,4.1,14.4c-0.1-0.1-0.2-0.1-0.2-0.1c0,0-0.1,0-0.2,0c0,0-0.1,0-0.1,0.1
	c0,0-0.1,0.1-0.1,0.1c0,0.1,0,0.1,0,0.1c0,0.1,0.1,0.2,0.2,0.3c0.1,0.1,0.1,0.1,0.2,0.1C4,15.1,4,15,4.1,15c0-0.1,0.1-0.1,0.1-0.2
	c0,0,0-0.1,0-0.1c0-0.1,0-0.1,0-0.1C4.1,14.5,4.1,14.4,4.1,14.4z M30.9,18.6l0-2.3c-0.6-0.5-0.9-0.8-1.1-0.8c0.2,0,0.5,0,1,0l0,0
	c0,0,0,0,0,0c0,0,0,0,0,0l0-0.1c0-0.3,0-0.5,0-0.7c0-0.2-0.1-0.6-0.2-1.4c0-0.1,0-0.3-0.1-0.6c0-0.2,0-0.3,0-0.4
	c0-0.1,0-0.3,0.1-0.5c0,0,0,0,0,0l0,0c-0.1-0.3-1-0.2-2.7,0.3c-0.4,0.2-1.5,0.8-3.3,1.9c-0.2,0.1-0.5,0.1-0.7,0.1L23,13.7l0,0
	c0,0,0.1,0,0.1,0c0.2-0.1,0.5-0.2,1-0.6l0.4-1.1c0.3-0.2,0.7-0.9,1.3-2c-0.1-0.2-0.2-0.3-0.2-0.4l-0.8-0.2l-1.2-0.1l-1-0.4l-0.2-0.2
	c-0.1,0.1-0.2,0-0.4-0.2c-0.3,0-0.4,0-0.6-0.2l-0.3,0L21,8.2l-0.5,0.1l-0.3-0.1c-0.1,0-0.2,0-0.3,0c0-0.1-0.2-0.1-0.6-0.1l-0.2-0.2
	c-0.1,0-0.3,0-0.5,0.1c0-0.1-0.2-0.2-0.6-0.2l-0.3-0.2c-0.1,0-0.2,0-0.4,0c0-0.1-0.2-0.2-0.5-0.2c-0.2-0.2-0.3-0.2-0.5-0.2l-0.1-0.1
	c-0.1,0-0.2,0-0.3,0C16,7.1,15.9,7,15.6,7l-0.2-0.1l-0.3-0.1L15,6.7c-0.2,0-0.4,0-0.5-0.1l-0.1,0c-0.4,0-0.6,0-0.5,0l-0.4,0.1
	c0.1,0,0,0-0.4,0l-0.8,0.2c-0.9,0.5-1.8,1-2.8,1.6c-0.5,0.4-0.9,0.7-1.2,1C8,9.7,7.6,9.9,7.2,10.1l-4.3,4.2l-1.5,1.1
	c0,0.3,0,0.6,0.1,1.2L1,16.6l1,1.5c0,0,1.3,1.6,6.8,4.3c0.4,0.1,0.7,0.2,1,0.3c0.1,0.1,0.1,0.1,0.2,0.2c0.4,0.5,0.7,0.7,0.9,0.8
	c0.4,0.4,0.9,0.7,1.4,1c0.2,0.1,0.4,0.2,0.5,0.3c0.5,0.2,0.8,0.3,0.9,0.3c0.4,0.1,0.9,0.2,1.4,0.2c0.1,0,0.1,0,0.1-0.1l-0.6-0.3
	l0.1-0.2l-0.2-0.1l0.1-0.2c0,0,0-0.1-0.1-0.1c0-0.2,0-0.2,0-0.2l0.1-0.2c0,0-0.1-0.1-0.2-0.1l0-0.3c0-0.1,0.1-0.1,0.2-0.1
	c0,0,0.2,0,0.7,0.1c0.1,0,0.2,0,0.3,0c0.3,0,0.5-0.1,0.6-0.1c0.2-0.1,0.3-0.2,0.3-0.3c0,0,0,0-0.1-0.1C16,23.1,16,23.1,15.9,23
	l-0.1-0.2l-0.6-0.1l-2-0.2c-0.2,0,0.6-0.2,0.8-0.2c0,0,0,0,0,0c0.6,0.1,3,0.2,3,0.2s1.1-0.1,1.7-0.2c0.2,0,0.3,0,0.4,0
	c0.1,0,0.2,0,0.3,0.1c0.7,0.3,1.2,0.5,1.6,0.6c0.2,0.1,0.6,0.1,1.1,0.3c0.7,0.1,1.5,0.2,2.3,0.2c0.4,0,0.9-0.1,1.5-0.3
	c0.3-0.1,0.4-0.2,0.4-0.3l0,0c-0.4-0.1-0.6-0.3-0.7-0.3c0-0.1-0.1-0.2-0.2-0.4l-0.2-0.3c0-0.2,0-0.3,0-0.3c-0.3-0.2-0.4-0.3-0.4-0.3
	c-0.1-0.1-0.2-0.2-0.2-0.4c-0.1,0-0.1-0.1-0.3-0.3l-0.2-0.1l-0.1-0.1c0,0-0.1,0-0.3,0c0-0.1-0.1-0.2-0.2-0.2c0.1-0.1,0-0.2-0.1-0.4
	c-0.1-0.1-0.2-0.1-0.2-0.1c0-0.1-0.1-0.2-0.1-0.2l-0.1,0c-0.4,0-0.6,0-0.6,0c0,0-0.1,0-0.1,0c-0.1,0-0.6,0.4-1.6,1.2
	c-0.1,0-0.1,0.1-0.2,0.1l-0.3,0.2c0,0,0,0,0,0c0,0,0.1-0.1,0.1-0.1c0.2-0.2,1.6-1.4,1.6-1.4l0,0c0,0,0,0,0,0
	c0.5-0.3,1.2-0.6,2.1-0.9c0.5,0,0.9,0,1.1,0.1l2.7,1.8c0.3,0.1,1.1,0.4,2.6,0.8l0.4-1.8C31,19.3,30.9,19.1,30.9,18.6z M4.4,14.8
	c0,0.1-0.1,0.2-0.1,0.2c-0.1,0.1-0.1,0.2-0.2,0.2c-0.1,0.1-0.3,0.2-0.5,0.2c-0.1,0-0.1,0-0.2-0.1c0,0-0.1-0.1-0.2-0.2l0-0.1
	c0,0,0-0.1,0-0.1l0,0l0-0.1l0-0.2c0-0.1,0.1-0.2,0.1-0.3c0,0,0.1-0.1,0.2-0.2c0.1,0,0.2-0.1,0.3-0.1c0.1,0,0.2,0,0.2,0l0,0
	c0,0,0.1,0,0.2,0.1c0.1,0.1,0.1,0.1,0.1,0.2c0,0.1,0.1,0.2,0.1,0.3C4.4,14.5,4.4,14.6,4.4,14.8z M17,9.6c1,0.3,1.4,0.5,1.9,0.7
	c0.3,0.1,1.2,0.6,2.5,1.4c0.4,0.3,0.8,0.6,1.1,1.1c-0.6-0.4-1.1-0.8-1.5-1l-0.7-0.3l0,0c-0.1-0.1-0.3-0.1-0.4-0.2l-1.8-0.8
	c-0.2-0.1-0.5-0.2-0.7-0.2c-0.4-0.2-0.7-0.3-1.1-0.4c-0.3-0.1-0.7-0.1-1-0.2c-0.2,0-0.3-0.1-0.5-0.1c-0.7-0.1-1.7-0.2-2.9-0.2
	c-0.2,0-0.5,0-0.7,0c-0.9,0-1.7,0.1-2.5,0.3c0.1,0,0.1-0.1,0.2-0.1c0.1,0,0.2,0,0.3-0.1c0.2-0.1,0.9-0.2,2.2-0.5
	c0.5-0.1,1-0.1,1.6-0.1l0.3,0c0.3,0,0.8,0,1.4,0.1c0.2,0,0.7,0.1,0.9,0.2L17,9.6z M15.8,20.8L14.5,21l-0.4,0.1l-1.6,0.2
	c-0.3,0-0.9,0-1.7-0.1C10.4,21.1,10.2,21,10,21c-0.5-0.2-0.9-0.3-1-0.4c0.4,0.1,1.1,0.1,2.2,0.1c0.6-0.1,1-0.1,1.2-0.2
	c0.1,0,0.4-0.2,0.9-0.4l0.4-0.4c0,0,0-0.3-0.1-0.7c-0.1-0.1-0.3-0.2-0.8-0.4l-0.3,0l-0.3,0l-2.4-0.3c0.5,0,1.1,0.1,1.9,0.1l0.7,0
	l1.2-0.2l0,0c0,0,0.1,0,0.1,0.1l0,0.3l0.4,0.4c0.3,0.2,0.7,0.5,1.1,0.8l0.6,0.6c0.1,0.1,0.3,0.2,0.4,0.3l0,0
	C16.3,20.7,16.1,20.7,15.8,20.8z M23.4,19.9L23.4,19.9C23.4,19.9,23.4,19.9,23.4,19.9L23.4,19.9C23.4,19.9,23.4,19.9,23.4,19.9
	L23.4,19.9L23.4,19.9L23.4,19.9L23.4,19.9L23.4,19.9L23.4,19.9z M20.8,20.6C20.8,20.6,20.8,20.6,20.8,20.6L20.8,20.6
	C20.7,20.6,20.8,20.6,20.8,20.6z"/>
</svg>
