<?xml version="1.0" encoding="utf-8"?>
<!-- Generator: Adobe Illustrator 25.4.1, SVG Export Plug-In . SVG Version: 6.00 Build 0)  -->
<svg version="1.1" id="rabbit" xmlns="http://www.w3.org/2000/svg" xmlns:xlink="http://www.w3.org/1999/xlink" x="0px" y="0px"
	 viewBox="0 0 32 32" style="enable-background:new 0 0 32 32;" xml:space="preserve">
<path d="M30.6,25.1c0,0,0.5-1,0.4-1.3s-0.4,0-0.4,0s0.1-0.5-0.2-0.9s-0.6,0-0.6,0s0.1-0.6-0.3-0.8c-0.4-0.2-0.7,0-0.7,0
	s-0.5-2.7-0.7-3.4c-0.2-0.7-2.2-4.6-2.2-4.6s-2.1-2.3-3.6-2.4s-2.1-0.4-2.7-0.5c-2.2-0.1-3.6,0.7-3.6,0.7s-1-0.1-1.6-0.2
	c-0.6-0.1-1.7,0.1-1.9,0.3s-1,0.3-1,0.2s-0.1-0.3-0.6-0.4c-0.2,0,0.1-0.9,0.1-0.9s0.1-0.4,0.4-0.6c0.3-0.2,1.1-1.2,1.4-1.8
	s0.3-1.7,0.3-1.7s0.3-2,0-2.2S12.5,4.1,12,4.3c-0.6,0.2-1.8,0.5-2,0.8s-1,0.8-1.2,2S8.3,8.3,8.3,8.5C8.2,8.7,8.1,9,8,9.4
	S7.7,9.9,7.3,9.9c0,0-0.7,0.3-1.1,0.3S4.3,11,4,11.2S3.7,11.8,3.3,12S2,13.5,1.8,13.7S1,14.6,1,15.4S1.4,16,1.4,16s0,0.3,0.1,0.6
	c0.1,0.3,0.4,0.5,0.9,0.6s1.2,0.1,1.2,0.1s0.6,0.1,1.6,0.3s1.6,0.2,1.6,0.2s0.4271,0.1578,0.6271,0.4578
	c0.0814,0.3868,0.2239,0.8551,0.2239,0.8551C8.2211,20.1918,9,21,9.6,21.2s1.9,1.2,1.9,1.2s1.6,0.6,1.8,0.9s0.2,0.7,0.2,0.7
	s-0.7,0.1-1,0.4S12.2,25,12.2,25s-0.2,0.5-0.1,0.6c0.1,0.1,0.5,0.1,0.5,0.1s-0.5,0.8-0.5,1c0.1,0.3,0.9,0.2,1,0.2s1.2,0.4,1.7,0.4
	c0.4,0,1.6-0.1,1.9,0s2.9,0.5,3.2,0.4s1.5,0.1,1.5,0.1s2.6-0.1,3.3-0.2c0.7-0.1,2.2-0.3,2.2-0.3s2.2,0.1,2.8-0.1
	c0.6-0.3,1.1-1,1.4-1.6C31.2,24.8,30.6,25.1,30.6,25.1z M6.1446,12.8396c0,0.2189-0.3649,0.5838-0.5838,0.6568
	c-0.2189,0.073-0.5838-0.073-0.5838-0.073s-0.3649-0.2919-0.3649-0.4378s0.3649-0.4378,0.3649-0.4378
	c0.2189-0.073,0.5108-0.1459,0.7297-0.1459C5.9256,12.4018,6.1446,12.6207,6.1446,12.8396L6.1446,12.8396z"/>
</svg>
