<?xml version="1.0" encoding="utf-8"?>
<!-- Generator: Adobe Illustrator 25.4.1, SVG Export Plug-In . SVG Version: 6.00 Build 0)  -->
<svg version="1.1" id="medaka" xmlns="http://www.w3.org/2000/svg" xmlns:xlink="http://www.w3.org/1999/xlink" x="0px" y="0px"
	 viewBox="0 0 32 32" style="enable-background:new 0 0 32 32;" xml:space="preserve">
<path d="M2.7,16.1c0.7,0.4,1.2,0.7,1.9,1c2.8,1.2,5.7,1.6,8.8,1.3c0.2,0,0.3,0,0.3,0.2c0.2,0.8,0.7,1.3,1.4,1.6
	c0.3,0.1,0.4,0,0.5-0.3c0-0.1,0-0.2,0-0.3c0-0.4,0.1-0.6,0.3-0.9c0.3-0.2,0.2-0.4-0.1-0.6c-0.1,0-0.1-0.1-0.2-0.1v-0.1
	c0.1,0,0.2,0,0.2,0c0.5-0.1,1-0.2,1.5-0.3c0.5,0.5,1,1,1.5,1.5c0.1,0.1,0.3,0.1,0.4,0c0.6-0.5,1.4-0.7,2.2-0.8
	c0.7-0.1,1.4-0.2,2-0.4c0.4-0.1,0.8-0.3,1.1-0.5c0.1,0,0.1-0.2,0.1-0.3c0-0.1-0.2-0.2-0.3-0.2c-0.1,0-0.3,0-0.4,0
	c-0.2,0-0.4-0.1-0.6-0.2v-0.1c0.3,0,0.5-0.1,0.8-0.1c0.5,0,1,0,1.5,0.1c0.1,0,0.6,0.1,1.1,0.3c0.8,0.3,1.5,0.7,2.2,1.1
	c0.4,0.2,0.8,0.6,1.2,0.8c0.3,0.2,0.5,0.1,0.6-0.2c0.2-0.4,0.2-0.8,0.1-1.2c-0.1-1-0.2-1.9,0.1-2.8c0.2-0.7-0.1-1.3-0.2-1.9
	c-0.1-0.2-0.2-0.2-0.4-0.1s-0.3,0.2-0.5,0.3c-1.4,0.6-2.8,1.3-4.4,1.2c-0.6-0.1-1.2-0.2-1.9-0.3c0.1,0,0.3-0.1,0.4-0.1
	c0.4-0.2,0.8-0.3,1-0.7c0.2-0.3,0.4-0.6,0.6-0.8c0.1-0.1,0.1-0.2,0.1-0.2c-0.1,0-0.2-0.1-0.3-0.1c-0.5,0-1,0-1.5,0.1
	c-1.5,0.2-2.9,0.5-4.3,1c-0.1,0-0.3-0.1-0.4-0.1c-1.3-0.2-2.6-0.4-3.9-0.4c-2.4-0.1-4.8,0-7.2,0.4c-1.5,0.3-2.8,0.4-4.3,0.7
	c-1,0.1-1.8,0.3-2.5,0.6c-0.2,0-0.2,0-0.2,0.2c0,0.3,0.2,0.6,0.4,0.8C1.8,15.5,2.7,16.1,2.7,16.1z M1.5,15c-0.2-0.2-0.4-0.6-0.2-0.8
	c0,0,0.4-0.2,0.7-0.3c0.4-0.1,1-0.2,1-0.2c1.2-0.2,2-0.3,3.2-0.3c1.1,0,2.1,0,3.5,0.1c1,0.1,3.2,0,5.6,0.3c1.7,0.2,5.8,0.5,7.4,0.7
	c1.9,0.1,2.8,0.1,4.4,0c0,0,0.1,0.1,0.1,0.3c0,0.1,0,0.2,0,0.3c0,0.3,0,0.3-0.3,0.3c-1.1-0.1-3.8-0.5-4.9-0.6
	c-0.6-0.1-5.6-0.4-6.7-0.5c-1.3,0-4.4-0.1-6-0.1c-1.3,0-2.2,0.2-2.7,0.4c-0.3,0.2-0.8,0.6-1,0.9c-0.1,0.2-0.4,0.9-0.6,1
	c-0.4,0.1-1.5-0.5-1.9-0.7C2.9,15.9,1.8,15.3,1.5,15z M4,13.9c-0.5,0-0.8,0.4-0.8,0.8c0,0.4,0.3,0.8,0.8,0.8c0.4,0,0.8-0.3,0.8-0.8
	C4.8,14.3,4.5,13.9,4,13.9z M4,15.1c-0.3,0-0.4-0.2-0.4-0.4s0.2-0.4,0.4-0.4c0.2,0,0.4,0.2,0.4,0.4C4.4,15,4.2,15.1,4,15.1z"/>
</svg>
