<?xml version="1.0" encoding="utf-8"?>
<!-- Generator: Adobe Illustrator 25.4.1, SVG Export Plug-In . SVG Version: 6.00 Build 0)  -->
<svg version="1.1" id="sheep" xmlns="http://www.w3.org/2000/svg" xmlns:xlink="http://www.w3.org/1999/xlink" x="0px" y="0px"
	 viewBox="0 0 32 32" style="enable-background:new 0 0 32 32;" xml:space="preserve">
<path d="M21.8,30.3c0,0,0.7,0,0.7-0.4s-0.1-0.8-0.1-0.8s-0.3-0.7-0.3-1.2s0-3.1,0-3.1s0.3-0.7,0.3-1.2s0.1-2.3,0.1-2.3
	s0.4-0.4,0.8-0.4s1.1-0.2,1.5-0.5c0.3-0.3,1.6-2.1,1.8-2.6c0.1-0.5,0.7-0.9,0.7-1.5s0-2.6-0.3-3.3s-0.9-4.4-1.1-5s-0.1-1.3-0.1-1.4
	s0-1.3-0.3-2C25.1,3.9,25,3.1,25,3.1s0.4,0,1.2,0C27,3,27.1,2.7,27.3,2.3s0.2-0.8-0.1-0.8c-0.3,0-1.2-0.2-1.5-0.1s-1.1,0.5-1.1,0.5
	s-1-0.1-1.3-0.2c-0.2-0.1-0.4-0.3-0.8-0.3c-0.3,0-0.7,0.4-1,0.4s-1.1,0-1.1,0S20,1.6,19.7,1.3s-1-0.4-1.5-0.3
	c-0.4,0.1-0.8,0-0.8,0.2s0,0.4,0.1,0.7c0.2,0.3,0.6,0.6,0.9,0.7c0.4,0.1,1.1,0.2,1.1,0.3S19.1,3.7,18.8,4C18.6,4.5,18,6,18,6
	s-2.7-0.4-3.5-0.5s-3,0-3.4,0.1S8.2,6.4,7.6,7.1s-1.9,2.5-2.1,4.2s-0.9,5.2-0.8,6.1s0.2,2.8,0.6,3.3c0.4,0.6,0.6,0.9,0.7,1.1
	s0.2,0.7,0.2,0.7s0.3,1.1,0.3,1.8c0,0.6,0.1,1.9-0.1,2.6s-0.4,1-0.3,1.5s0,0.8,0.2,1C6.6,29.8,7.7,30,8,29.8s0-1.3,0-1.3
	s0-0.5-0.1-0.9c-0.2-0.3-0.4-2-0.1-2.4C8,24.8,8.3,23.6,8.3,23s0.1-1.4,0.1-1.4s0.4-0.6,0.4-1s0.3-0.9,0.3-0.9s0.6,1.1,1.2,1.5
	c0.6,0.3,1.2,0.6,1.5,0.8c0.3,0.2,0.8,0.3,0.8,0.3s0.3,0.9,0.5,1.6c0.1,0.7,0.1,3.3-0.1,3.7c-0.2,0.4-0.5,1.2-0.5,1.5s0,0.7,0.3,0.8
	s1,0.2,1.5,0c0.2-0.1,0.1-0.4,0-0.8s-0.1-0.4-0.1-0.9s0-3.5,0.1-4c0.1-0.4,0.4-1.9,0.4-1.9H17c0,0,0.3,1.2,0.3,1.8
	c0,0.5,0.1,0.8,0.2,1.3c0.1,0.4,0,2.5,0,3.2s0.1,0.7,0,0.9c-0.1,0.4-0.4,0.7-0.1,1.3c0.1,0.2,0.5,0.5,1.1,0.4
	c0.4-0.1,0.7-0.4,0.7-0.8s-0.3-1.1-0.3-1.1s0.1-0.3,0-0.7c-0.1-0.4-0.5-2.6-0.4-3s0.5-1.5,0.3-2.2s0-1.5,0-1.5l1.6-0.3
	c0,0,0.1,0.7,0.1,1.2c0,0.3,0.1,1.5,0.2,1.9c0,0.4,0.2,1.1,0.1,1.5c0,0.4-0.1,2.8-0.1,2.8s-0.3,0.9-0.2,1.2
	C20.9,30.3,21.8,30.3,21.8,30.3L21.8,30.3z"/>
</svg>
