<?xml version="1.0" encoding="utf-8"?>
<!-- Generator: Adobe Illustrator 25.4.1, SVG Export Plug-In . SVG Version: 6.00 Build 0)  -->
<svg version="1.1" id="chimp" xmlns="http://www.w3.org/2000/svg" xmlns:xlink="http://www.w3.org/1999/xlink" x="0px" y="0px"
	 viewBox="0 0 32 32" style="enable-background:new 0 0 32 32;" xml:space="preserve">
<path d="M26.6,28.8c-0.3-0.2-0.4-1.4-0.4-1.7s0.2-2.8,0.5-3.6c0.3-0.8,0.5-4.9,0.2-5.5c-0.2-0.5-3.4-5.9-3.5-6.5S22,9,21.9,8.2
	c-0.2-0.8-1.1-1.4-1.6-1.8s-1.2-0.7-1.2-0.7s0.4-1.7,0.2-2.5S18.7,2,18.4,1.8C18.1,1.5,17.1,2,17.1,2S16,1,14.2,1s-2.5,1.2-2.5,1.2
	s-0.9-0.5-1.5-0.3C9.7,2.1,9.1,2.5,9.4,3.1c0.3,0.5,1,1.1,1.1,1.8s0,2.2,0,2.2s-1.8,3.4-1.9,4S6.3,15,6.3,15S5.1,16.5,5,17.2
	s0.3,2.9,0.3,3.8s0.1,4.5,0,4.8c-0.1,0.4,0.1,2.2,0.4,2.8c0.3,0.6,1.2,0.6,1.8,0.9c0.7,0.3,1.6,0.4,2,0s0.8-0.7,0.7-1S9.8,28,9.6,28
	s-0.8-0.2-0.8-0.5s0.6-0.9,0.6-0.9s0.8-0.3,1.2-0.3s1.3,0.5,1.3,0.5s0.3,0.8,0.7,0.8s-0.7,0.9-0.5,1.4s0.2,0.6,0.7,0.6
	s0.8-0.5,1.2-0.4c0.4,0.2,0.2,0.5,0.6,0.5c0.5,0.1,1.1-0.2,1.1-0.2s0.7,0.2,1.2,0.1c0.5-0.2,1.5-0.4,1.5-0.4s1.2,0.4,1.6,0
	s0.5-0.6,0.8-0.7c0.2-0.1,0.9,0.2,1.2,0.2c0.2,0.1,0.8,0.7,0.8,0.7s-0.4,1,0.2,1.1c0.5,0.1,1,0.2,1.7,0.2s1.3-0.1,1.7-0.4
	c0.4-0.3,0.6-0.5,0.7-0.9C27,29.2,26.9,29,26.6,28.8L26.6,28.8z M11.3,18.3c-0.2,1.1-0.2,2.8-0.7,2.5c-0.5-0.2-2-0.9-2.1-1.3
	s0.5-1.8,0.8-2c0.2-0.2,1.6-2.8,1.6-2.8C11.9,16.2,11.5,17.2,11.3,18.3z"/>
</svg>
