<?xml version="1.0" encoding="utf-8"?>
<!-- Generator: Adobe Illustrator 25.4.1, SVG Export Plug-In . SVG Version: 6.00 Build 0)  -->
<svg version="1.1" id="Layer_1" xmlns="http://www.w3.org/2000/svg" xmlns:xlink="http://www.w3.org/1999/xlink" x="0px" y="0px"
	 viewBox="0 0 32 32" style="enable-background:new 0 0 32 32;" xml:space="preserve">
<path d="M30.9,10.1c-0.1-0.2-0.4-0.4-0.8-0.5c-0.1,0-0.3-0.1-0.3-0.1c-0.1,0-0.3-0.1-0.5-0.2c-0.2-0.1-0.4-0.2-0.6-0.3
	c-1.4-0.7-1.8-0.9-3.1-0.9c-1.2,0-1.4-0.1-1.5-0.5c-0.1-0.5-0.5-0.9-0.9-0.9l0,0c-0.1,0-0.1,0-0.2,0c-0.2,0.1-0.4,0.3-0.4,0.4
	c0,0-0.1,0.1-0.3,0.2C22.2,7.6,22,7.7,22,7.8c-0.1,0.2-0.3,0.4-0.4,0.4s-0.1,0-0.1,0.1c0,0-0.2,0.1-0.5,0.1c-0.2,0-0.4,0-0.4,0.1
	h-0.1c-0.1,0-0.1,0-0.1,0.1s-0.1,0.2-0.3,0.2c-0.1,0-0.3,0.1-0.4,0.3c-0.1,0.1-0.1,0.1-0.3,0.1c-0.1,0-0.2,0-0.2,0.1
	c0,0-0.1,0.1-0.1,0c0,0-0.3,0.1-0.3,0.2c0,0.1-0.1,0.1-0.3,0.1c-0.1,0-0.1,0-0.2,0c0,0.1-0.3,0.2-0.4,0.2s-0.1,0-0.2,0
	c0,0-0.1,0-0.2,0s-0.2,0-0.2,0s-0.2,0.1-0.4,0.1c-0.3,0-0.4,0-0.8-0.2c-0.3-0.1-0.5-0.2-0.6-0.2s-0.3,0-0.5-0.1
	c-0.2,0-0.4-0.1-0.6-0.1c-0.2,0-0.6-0.1-0.9-0.2c-0.1,0-0.3-0.1-0.4,0c-0.1,0-0.2,0-0.3,0C12.6,9,12.3,9,12,9.1c-0.2,0-0.3,0-0.3,0
	c-0.1-0.1-0.1-0.1-0.1,0C11.7,9,11.6,9,10.9,9c-0.6,0-0.9,0-1-0.1s-0.1-0.1-0.3,0C9.6,9,9.5,9,9.4,9.1c-0.1,0-0.3,0-0.4,0.1
	c-0.1,0-0.3,0.1-0.3,0.1S8.5,9.4,8.4,9.4C8.3,9.5,8.1,9.5,8,9.5c-0.1,0-0.3,0.1-0.4,0.1C7.5,9.7,7.4,9.8,7.3,9.8s-0.1,0-0.1,0
	s0,0.1-0.1,0.1C7,9.9,7,10,7,10c0,0.1,0,0.2-0.4,0.3c-0.1,0.1-0.3,0.1-0.3,0.2l-0.1,0.1c0,0-0.1,0.1-0.2,0.2
	c-0.1,0.1-0.4,0.2-0.6,0.4c-0.5,0.2-0.6,0.3-0.5,0.3l-0.1,0.1C4.6,11.7,4.2,12,4.2,12S4.1,12.1,4,12.1c-0.2,0.1-0.4,0.4-0.3,0.4
	c0.1,0,0.1,0.1-0.2,0.3C3.4,12.9,3.2,13,3.2,13S3,13.1,2.9,13.2c-0.2,0.1-0.2,0.2-0.2,0.3s0,0.1-0.1,0.2c-0.1,0-0.1,0.1-0.1,0.1v0.1
	V14v0.1l-0.1,0.1c0,0-0.1,0.2-0.1,0.3c-0.1,0.2-0.1,0.2-0.1,0.2S2.1,14.8,1.9,15s-0.3,0.4-0.4,0.5s-0.1,0.2,0,0.2
	c0.1,0.1,0.1,0.1,0,0.2C1.4,16,1.4,16,1.4,16.1s0,0.1,0,0.1s-0.1,0.1-0.2,0.2C1,16.8,1,16.8,1.1,16.8s0.2,0.1,0,0.2s0,0.1,0.2,0
	c0.1-0.1,0.2-0.1,0.2-0.1s-0.1,0.2-0.2,0.3c-0.2,0.2-0.2,0.3-0.2,0.3c0.1,0,0.1,0.1,0,0.2C1,17.9,1,18.2,1,18.2
	c0.1,0,0.1-0.1,0.2-0.1c0.1-0.1,0.2-0.1,0.2,0c0,0,0,0.1,0,0.2c-0.1,0.1-0.1,0.1,0.1,0.1c0.1,0,0.1,0,0.1,0.1
	c-0.1,0.5-0.1,1.4,0,1.5c0,0,0.1,0.1,0,0.1c0,0.1,0,0.1,0.1,0.1s0.1,0,0.1,0.2c0,0.3,0,0.4,0.1,0.3c0,0,0.1,0,0.1,0.1s0,0.2,0,0.3
	c0,0.1,0,0.1,0,0.2c0,0,0,0.1,0,0.2s0,0.2,0,0.2s0,0.3,0,0.5C2,22.9,2,23,1.9,23s0,0.1,0.1,0.1c0.1,0,0.1,0,0,0.1
	c0,0.1,0.5,0.5,0.6,0.7c0.1,0.1,0.2,0.6,2.5,0.8c15.2,1.2,24.5,0.2,24.9-0.1c0.5-0.1,0.5-0.2,0-0.2c0,0-4.6,0.6-16.8-0.2l-3.5-0.4
	c0,0,3.5,0.1,4.1,0.1c0.1,0,0.3,0,0.5,0s0.9,0,1.2,0c0.6-0.1,0.7-0.1,0.7-0.3c0-0.1,0.1-0.1,0.1-0.2c0.1-0.1,0.1-0.1,0.1-0.1
	l-0.3-0.2L15.9,23c-0.1,0-0.7-0.1-0.7-0.1s-0.2,0-0.4,0.1c-0.2,0-0.1,0.1-0.2,0.1c-0.2,0-0.6,0-0.6-0.2c0-0.3,0-0.3,0-0.4
	c0-0.4,0-0.5,0-0.8s0-0.4,0.1-0.3s0.1,0,0.1-0.1s0-0.2,0.1-0.1s0.3-0.1,0.5-0.3c0.2-0.3,0.2-0.3,0.6-0.3c0.2,0,0.3,0,0.5-0.2
	c0.2-0.2,0.3-0.2,0.5-0.2c0.1,0,0.2,0,0.2,0s0.2,0,0.3,0c0.2,0,0.3,0,0.4-0.1s0.1-0.1,0.2-0.1s0.2,0,0.3-0.1
	c0.2-0.1,0.2-0.1,0.3-0.1c0.1,0.1,0.3,0.1,0.4,0.1c0,0,0.1,0,0.2,0s0.2,0.1,0.4,0.3c0.1,0.1,0.3,0.2,0.3,0.2l0.1,0.1
	c0,0.1,0.1,0.2,0.2,0.2C20,21,20,21,20.1,21.1c0.1,0.2,0.5,0.8,0.7,0.9s0.7,0.8,0.9,0.9c0.2,0.1,0.6,0,0.9,0.1l0.2,0.2
	c0.1,0.1,0.1-0.1,0.2-0.1c0.2,0.1,0.3,0.4,0.5,0.4h0.9c0.5,0,0.9,0.1,1.3,0c0.3-0.1-0.1-0.4-0.4-0.5c-0.5-0.1-0.8-0.7-0.9-0.7
	c-1.2-0.5-1-0.3-1.4-1.1c-0.1-0.2-0.2-0.4-0.3-0.6c-0.1-0.2-0.2-0.3-0.2-0.3c-0.1-0.1-0.1-0.3-0.1-0.5c0-0.4-0.1-0.7-0.1-1.1
	c0-0.1,0-0.3,0-0.5l0.1-0.4c0-0.1,0-0.1,0.1-0.2l0.1-0.1c0,0,0.1-0.1,0.2-0.3s0.2-0.4,0.2-0.5s0.1-0.2,0.2-0.2s0.1,0,0.1-0.1
	s0-0.1,0-0.1s0,0,0-0.1s0-0.1,0.1-0.1s0.1,0,0.1-0.1c0,0,0-0.2,0.1-0.3c0-0.2,0.1-0.2,0.1-0.2c0.1,0,0.1,0,0.1-0.1s0.1-0.2,0.1-0.2
	C24,15.1,24,15,24,14.9c-0.1-0.2-0.1-0.2,0.1-0.2c0.1,0,0.1,0,0.1-0.1c-0.1-0.2-0.1-0.3,0.1-0.3c0.1,0,0.2,0,0.3-0.1
	c0.1-0.2,0.5-0.3,0.5-0.3s0.2,0,0.3-0.1c0.2-0.1,0.4-0.1,0.6-0.1s0.4,0,0.5-0.1c0.1,0,0.1,0,0.2,0s0.1,0,0.2-0.1s0.1-0.1,0.4-0.1
	c0.6,0,0.6-0.2,0.7-0.2c0.3-0.1,0.6-0.1,0.7-0.3c0-0.1,0-0.2,0-0.2s0.3,0,0.4-0.1c0.2,0,0.3-0.1,0.4-0.1s0.2-0.1,0.2-0.1
	c0.1,0,0.1-0.1,0.2-0.1l0.1-0.1c0.1,0,0.8-0.4,0.8-0.9c0-0.1,0.1-0.2,0.2-0.3l0,0C31,10.8,31,10.3,30.9,10.1z M26.3625,10.3069
	c-0.2687,0-0.6046-0.1344-0.5374-0.4031c0.1344-0.5374,0.6718-0.4031,0.8061-0.3359c0.1344,0.0672,0.2156,0.1828,0.2687,0.3359
	C26.8361,10.151,26.8328,10.3069,26.3625,10.3069z"/>
</svg>
