<?xml version="1.0" encoding="utf-8"?>
<!-- Generator: Adobe Illustrator 25.2.3, SVG Export Plug-In . SVG Version: 6.00 Build 0)  -->
<svg version="1.1" id="salmon" xmlns="http://www.w3.org/2000/svg" xmlns:xlink="http://www.w3.org/1999/xlink" x="0px" y="0px"
	 viewBox="0 0 32 32" style="enable-background:new 0 0 32 32;" xml:space="preserve">
<style type="text/css">
	.st0{fill:#FFFFFF;}
</style>
<path class="st0" d="M27.1,9.3c-0.6-0.7-1.3-1.4-2-1.9h0.8c0.1,0,0.2-0.1,0.2-0.2s0-0.2-0.1-0.3c-2.1-1-2-4.8-2-4.9
	c0-0.1,0-0.2-0.1-0.2s-0.2,0-0.3,0c-0.9,0.6-5.9,1.3-7.7,1.5c-1.4-0.3-2.8-0.4-4-0.5C7,2.5,3,3.4,2.9,3.4C2.2,3.6,0.9,4.3,1,5.6l0,0
	l0,0l0,0c0,0,0,0,0,0.1l0,0l0,0l0,0l0,0c0.1,0.1,2.3,2.7,8.1,5.5c0.1,1,0.5,2.1,1.2,3c0,0.1,0.1,0.1,0.2,0.1c0,0,0,0,0.1,0
	s0.2-0.1,0.2-0.2c0.1-0.4,0.2-1.3,0.4-2c2,0.9,4.1,1.7,6.4,2.4c0.3,0.7,1.4,3.4,2.6,3.7l0,0h0.1c0.1,0,0.1-0.1,0.1-0.1
	c0-0.1,0.3-1.5-0.1-2.7c1.6,0.4,3.3,0.8,5,1.2c0.4,0.3,2.9,2.2,2.2,3.8c-0.9-0.6-4.1-2.5-7.1-0.9c-0.1,0-0.1,0.1-0.1,0.3
	c0,0.1,0.1,0.2,0.2,0.2c0.2,0,4.1,1,3.7,4.5c-0.2,0.7-0.2,1.4-0.2,2c-0.1,1.9-0.1,2.4-1.6,3.2c-0.1,0-0.1,0.1-0.1,0.3
	c0,0.1,0.1,0.2,0.2,0.2c0,0,0.2,0,0.5,0c1.1,0,3.5-0.5,4.7-4.5c0.4-0.4,3-2.9,3.3-6.9C31.2,15.7,29.9,12.5,27.1,9.3z"/>
</svg>
