<?xml version="1.0" encoding="utf-8"?>
<!-- Generator: Adobe Illustrator 25.4.1, SVG Export Plug-In . SVG Version: 6.00 Build 0)  -->
<svg version="1.1" id="tomato" xmlns="http://www.w3.org/2000/svg" xmlns:xlink="http://www.w3.org/1999/xlink" x="0px" y="0px"
	 viewBox="0 0 32 32" style="enable-background:new 0 0 32 32;" xml:space="preserve">
<path d="M10.7,8.2c0.5,0.3,1,0.6,1.5,1c2.3,0.1,4.8,0.3,6-1.2c0.7-0.5,1.2-0.9,1.8-1.4h0.1c1.6-0.1,2.6,0.2,4.2,0.8
	c8,3.9,7.6,17.5-2.4,21.6c-0.8,0.3-1.7,0.7-2.4,0.8c-2.5,0.3-5.4,0.3-7.9-0.2c-8-1.7-12.5-12.1-7-18.2C5.8,9.9,7.9,8.8,10.7,8.2
	L10.7,8.2z"/>
<path d="M20.1,4.9c-0.5,0.5-1.3,0.8-2.3,1.1C17.9,5.8,18,5.5,18,5.3l0,0c0.3-0.2,0.7-0.4,1-0.5c-0.1,0-0.2,0-0.2,0
	c-0.3,0-0.5,0.1-0.7,0.1c0.2-0.7,0.4-1.5,0.6-2.2c0.3,2,0.7,2,1.1,1.4c-0.9,0.5-0.5-2.2-1-2.2l0,0l0,0c-0.7,1.5-1.6,3.4-3.1,5.1l0,0
	l0,0c-0.3-1.2-0.6-2.3-1.3-3.7c-0.2-0.2-1.2-0.3-1.3,0.2c0.3,0.6,0.4,1.6,0.4,3c-0.9-0.4-2.6-0.8-2.4,0.1c-0.2,0-0.5-0.1-0.7-0.1
	C8.2,6,6,5.4,4.4,8.2C4.3,8.2,4.1,8.3,4,8.4c0.1-0.1,0.2-0.1,0.4-0.1c-0.2,0.4-0.5,1-0.7,1.6c0.4-0.7,0.8-1.3,1.2-1.8
	c4.9-1.9,5.8-0.8,7.3,0.3c2.2,0.1,4.5,0.3,5.8-1.1c1-0.6,1.5-1.3,2.3-1.9C20.3,5.1,20.2,5,20.1,4.9z"/>
</svg>
