<?xml version="1.0" encoding="utf-8"?>
<!-- Generator: Adobe Illustrator 23.1.1, SVG Export Plug-In . SVG Version: 6.00 Build 0)  -->
<svg version="1.1" id="potato" xmlns="http://www.w3.org/2000/svg" xmlns:xlink="http://www.w3.org/1999/xlink" x="0px" y="0px"
	 viewBox="0 0 32 32" style="enable-background:new 0 0 32 32;" xml:space="preserve">
<style type="text/css">
	.st0{fill:#FFFFFF;}
</style>
<path class="st0" d="M9.7,12.7c-0.1,0.1-0.2,0.2-0.2,0.2C9.4,13,9.4,13,9.2,13c-0.1,0.1-0.2,0.1-0.4,0.1c-0.1,0-0.2,0-0.4,0
	c-0.1,0-0.2,0-0.3,0.1c-0.2,0.1-0.3,0.1-0.3-0.2c0-0.3,0-0.6,0.1-1c0.1-0.4,0.3-0.6,0.6-0.9c0.3-0.1,0.5-0.1,0.9-0.1
	c0.2,0,0.4,0,0.6,0.1c0.2,0,0.4,0,0.8-0.1c0.1,0,0.1-0.1,0-0.2c-0.2-0.3-0.4-0.6-0.3-1.1c0-0.2,0-0.3,0-0.5c0-0.1,0-0.1,0.1-0.1
	c0.3,0.1,0.8,0.3,1.1,0.4c0.3,0.1,0.5,0.2,0.6,0.5c0.1,0.2,0.2,0.4,0,0.6c0,0.1-0.1,0.1-0.2,0.2l-0.1,0.1c0,0,0,0.1,0.1,0.1
	c0.2,0.1,0.2,0.1,0.2-0.1V11h0.1l0.1,0.1h0.1c0,0,0,0,0-0.1c0-0.2,0.1-0.4,0.1-0.5c0-0.1,0-0.3,0-0.4V9.9h0.1
	c0.1,0.1,0.3,0.3,0.4,0.4c0.2,0.2,0.3,0.5,0.3,0.9c0,0.2-0.1,0.4-0.3,0.4c-0.1,0-0.1,0.1,0,0.1s0.1,0.1,0.2,0.1
	c0-0.1,0.1-0.1,0.1-0.2c0.1-0.1,0.1-0.3,0.2-0.5c0.1,0.1,0.2,0.2,0.2,0.3c0,0.1,0,0.3,0,0.4l-0.1,0.1c0,0-0.1,0.1,0,0.1
	c0.1,0.1,0.2,0.1,0.3,0.2v-0.1c0-0.3,0-0.6-0.1-0.9c0-0.2-0.1-0.4-0.1-0.6c0-0.2-0.1-0.4-0.1-0.5c-0.1-0.3-0.2-0.5-0.2-0.9
	c0.1,0.3,0,0.1-0.1-0.1s-0.1-0.4-0.2-0.5c-0.1-0.2-0.1-0.3-0.2-0.5c-0.1-0.3-0.2-0.5-0.3-0.9c-0.1-0.1-0.2-0.2-0.3-0.3
	c-0.2-0.1-0.4-0.1-0.5-0.2c-0.1,0-0.2,0-0.2,0c-0.2-0.1-0.2,0-0.2,0c-0.1,0.2-0.1,0.4-0.2,0.8c-0.1,0.3-0.2,0.6-0.3,1
	c-0.1,0.1-0.2,0.3-0.3,0.4h-0.1c0-0.2-0.1-0.3-0.2-0.5c-0.1-0.2-0.2-0.4-0.1-0.6c0-0.2,0.1-0.3,0.2-0.5c0,0,0,0,0-0.1
	c-0.1,0.1-0.1,0.1-0.2,0.2c-0.1,0-0.1,0.1-0.2,0.1H9.9V7.2c0-0.2,0-0.3,0-0.5c0-0.1-0.1-0.1-0.1-0.1c-0.1,0-0.2,0.1-0.2,0.1
	C9.5,6.8,9.5,6.8,9.4,6.9C9.1,7,9,7.1,8.8,7.3c0,0,0,0-0.1,0.1c-0.1,0-0.1,0.1,0,0.1c0,0,0.1,0.1,0.1,0l0.1-0.1c0,0,0,0,0.1,0
	c0.2-0.1,0.5-0.1,0.8,0c0.1,0.1,0.2,0.2,0.3,0.3c0.1,0.3,0.1,0.6,0,1.1C9.9,9.1,9.8,9.5,9.7,9.9V10c0,0.1-0.1,0.1-0.2,0
	C9.4,9.9,9.2,9.8,9.1,9.6C9,9.5,9,9.4,8.9,9.3c0-0.1-0.1,0-0.2,0C8.6,9.4,8.5,9.5,8.4,9.6C8.2,9.8,8.1,9.9,7.9,10
	c-0.2,0-0.4,0.1-0.5,0.2H7.2c0,0,0,0,0-0.1c0-0.3-0.1-0.8-0.1-1.1c0-0.2,0-0.5,0-0.8c0-0.1,0.1-0.2,0.1-0.4c0-0.1,0-0.1-0.1-0.1
	c-0.2,0-0.3-0.1-0.5-0.1C6.5,7.5,6.2,7.4,6.1,7.3H6c-0.1,0-0.1-0.1-0.1-0.1c0.2-0.4,0.4-0.7,0.8-1.1C7,5.9,7.2,5.9,7.5,5.9
	c0.4,0,0.9,0.3,1.2,0.6c0.1,0.1,0.2,0.2,0.2,0.2H8.8H8.7c-0.2,0-0.3,0-0.4,0.2c0.1,0,0,0.1-0.1,0.2c0,0.1,0,0.1,0,0.2
	c0.1,0,0.1,0,0.1,0c0.1,0,0.1,0,0.2,0C8.6,7.3,8.8,7.2,8.9,7C9,6.9,9.2,6.8,9.5,6.7c0.1-0.1,0.1-0.1,0-0.2c-0.1,0-0.2-0.1-0.3-0.2
	V6.1c0,0,0.1,0,0.1-0.1c0.1,0,0.2,0,0.4,0s0.4,0,0.5,0.2c0,0,0,0,0.1,0s0.3,0,0.4,0c0-0.1-0.1-0.1-0.1-0.1c-0.2-0.1-0.3-0.3-0.4-0.5
	C10.1,5.4,10,5.3,10,5.1c-0.1-0.2,0-0.4,0-0.6c0-0.2,0.1-0.4,0.1-0.5c0-0.1,0-0.1,0.1,0c0.3,0.2,0.6,0.4,1,0.6
	c0.2,0.1,0.4,0.2,0.5,0.4c0.1,0.2,0.2,0.5,0,0.9c-0.1,0.1-0.2,0.1-0.3,0.2c-0.1,0-0.1,0.1,0,0.2c0,0.1,0.2,0.1,0.4,0.2
	c0.2,0.1,0.4,0.1,0.6,0.2h0.1V6.6c-0.2-0.4-0.3-0.9-0.5-1.2c-0.1-0.3-0.2-0.6-0.4-0.9c-0.1-0.2-0.2-0.3-0.4-0.4
	C11,4,10.6,3.9,10.4,3.7C10.2,3.6,10,3.5,9.9,3.4C9.7,3.1,9.5,2.9,9.4,2.7V2.6c0.1,0,0.3,0,0.4,0c0.1,0,0.2-0.1,0.2-0.1
	c0.2,0,0.2-0.1,0.2-0.3c0-0.2,0.1-0.3,0.1-0.5c0-0.1,0.1-0.2,0.1-0.3c0,0,0,0,0.1,0c0.3,0.2,0.5,0.4,0.9,0.6
	c0.2,0.2,0.4,0.4,0.3,0.8c0,0.1-0.1,0.2-0.1,0.3c0,0.1,0,0.1,0,0.1c0.1,0.1,0.1,0.2,0.1,0.4c0,0.1,0,0.2,0,0.3
	c-0.1,0.2,0,0.3,0.1,0.5V4.3c0.1-0.3,0.1-0.6,0.2-1c0-0.1,0.1-0.1,0.1-0.1c0.2,0.1,0.3,0.3,0.4,0.5l0.1,0.1c0,0,0.1-0.2,0-0.2
	c-0.1-0.1-0.1-0.1-0.2-0.2c0.1,0,0.1-0.1,0.1-0.2c-0.1-0.3-0.1-0.5,0-0.9c0.1-0.4,0.3-0.7,0.7-1c0.1,0,0.2-0.1,0.3-0.1
	c0.2,0,0.5,0,0.8-0.3c0,0.1,0,0.1,0,0.1c0,0.1,0,0.2,0,0.2c0,0.1,0,0.1,0.1,0.1c0.2-0.2,0.5-0.2,0.9-0.2c0.2,0,0.5,0,0.7,0
	c0.1,0,0.3,0,0.4,0c0,0,0.1,0,0.2,0c-0.2,0.2-0.2,0.5-0.3,0.8c-0.1,0.2-0.2,0.4-0.4,0.6c-0.2,0.2-0.4,0.3-0.8,0.4
	C15.1,3,15,3,15,3.1l0.1,0.1c0.3,0.1,0.6,0.3,1,0.5c0.1,0.1,0.1,0.1,0,0.2H16c-0.4,0.1-0.8,0.2-1.1,0.4c-0.3,0.1-0.5,0.2-0.9,0.1
	c-0.2,0-0.3-0.1-0.4-0.2c-0.1-0.1-0.1-0.2-0.1-0.3c0-0.1-0.1-0.2-0.2-0.1c-0.1,0.1-0.2,0.2-0.2,0.4c0,0.1,0,0.2,0,0.3
	c0.1,0,0.3-0.1,0.4-0.1c0.2,0,0.3,0,0.5,0c0.1,0,0.1,0.1,0.1,0.2c-0.3,0.2-0.4,0.4-0.5,0.5c-0.2,0.1-0.4,0.2-0.6,0.1
	c-0.1,0-0.2-0.1-0.3,0c-0.1,0.1-0.2,0.2-0.1,0.4c0.1,0.2,0.2,0.4,0.2,0.5v0.1c0,0,0,0.1,0.1,0.1V6.5c0,0,0-0.1,0-0.2
	c0-0.2,0-0.3,0.1-0.5c0-0.1,0.1-0.1,0.2-0.1c0.2,0.1,0.3,0.2,0.5,0.3C13.9,6,14,6,14.1,6.1c0.1,0.1,0.2,0.3,0.2,0.5v0.1
	c0,0,0.1,0,0.1-0.1c0-0.1,0.1-0.1,0.1-0.2V6.4c-0.1-0.2-0.1-0.4,0-0.6c0.1-0.1,0.2-0.2,0.4-0.2c0.1,0,0.1,0,0.2,0
	c0,0.2-0.1,0.3-0.2,0.5H15c0.2-0.1,0.3-0.2,0.5-0.3c0.1-0.1,0.2-0.1,0.3-0.2c0.1-0.1,0.1-0.1,0-0.2c-0.2-0.2-0.3-0.5-0.1-0.9
	c0.1-0.2,0.3-0.3,0.5-0.5c0.2-0.1,0.4-0.2,0.5-0.4c0.1,0,0.1-0.1,0.2-0.1c0,0.1,0.1,0.1,0.1,0.2c0,0.3,0.1,0.5,0.1,0.9v0.1
	c0,0.1,0,0.1,0.1,0c0.4-0.2,0.5-0.3,0.8-0.4C18.3,4,18.4,4,18.5,4c0.3,0,0.5,0,0.9,0.1c0.2,0.1,0.4,0.3,0.5,0.4
	c0.2,0.2,0.3,0.4,0.4,0.6c0.1,0.1,0.1,0.1,0,0.1c-0.2,0.1-0.4,0.2-0.6,0.3C19,5.9,18.5,5.8,18,5.3c-0.1-0.2-0.1-0.3-0.2-0.4
	c-0.1-0.1-0.3-0.1-0.4,0c-0.1,0.1-0.1,0.2-0.2,0.3v0.1c0.3,0.2,0.6,0.5,1,0.9c0.1,0.1,0.2,0.2,0.4,0.3c0.1,0,0.1,0.1,0,0.1
	c-0.2,0.1-0.4,0.2-0.8,0.3C17.6,7,17.3,7,17,7c-0.2,0-0.3-0.1-0.5-0.1c-0.2-0.1-0.4-0.2-0.5-0.3c-0.1-0.1-0.1-0.2,0-0.3
	C15.9,6,16,5.9,16,5.7V5.6h-0.1c-0.1,0.1-0.2,0.2-0.3,0.3c0,0,0,0,0,0.1c0,0,0,0,0,0.1c0,0,0,0,0.1,0c0.1,0,0.2,0,0.2,0
	c-0.2,0.1-0.4,0.1-0.6,0.3c0.1,0,0.3,0.1,0.4,0.1c0.1,0.1,0.2,0.2,0.3,0.3c-0.1,0-0.1,0-0.1,0c-0.3,0-0.5,0-0.9,0
	c-0.1,0-0.2,0-0.2,0.1c-0.1,0.2-0.3,0.4-0.4,0.7v0.1h0.1l0.1-0.1c-0.1-0.4,0.1-0.4,0.4-0.3c0.1,0,0.3,0.1,0.4,0.2
	c0.1,0.1,0.2,0.2,0.2,0.3c0.1,0.3,0.1,0.6,0.2,1C15.9,9,16,9.1,16,9.3v0.1c-0.2,0-0.3,0-0.5,0c-0.5,0-0.9-0.2-1.2-0.5
	c-0.1-0.1-0.2-0.2-0.2-0.3C14,8.4,14,8.3,13.9,8.2c0,0.1,0,0.1,0,0.1c0,0.3,0,0.8,0.1,1.1c0,0.1,0.1,0.2,0.1,0.3
	c0.1,0.3,0.1,0.5,0.2,0.9c0.1,0.2,0.1,0.4,0.2,0.7v0.1c0,0,0.1,0,0.1-0.1c0.2-0.2,0.4-0.2,0.6-0.3c0.4-0.1,0.8-0.2,1.2-0.3
	c0,0,0,0,0.1,0v0.1c0,0.1,0,0.2,0,0.3s0,0.1,0,0.2c0,0.3-0.1,0.6-0.3,0.9c-0.2,0.2-0.4,0.4-0.6,0.5c0,0,0,0-0.1,0.1
	c0.1,0,0.2,0.1,0.3,0.1c0,0,0.1,0,0.1-0.1c0.1-0.2,0.3-0.2,0.5-0.2s0.3,0.1,0.5,0.1c-0.1,0.2-0.3,0.2-0.5,0.3
	c0.1,0.1,0.2,0.2,0.3,0.2c0.3-0.1,0.6-0.1,1-0.1c0.4,0,0.8,0.1,1,0.5c0.1,0.1,0.2,0.3,0.2,0.4c0.1,0.3,0.1,0.6,0.1,1
	c0,0.1,0,0.1-0.1,0.1c-0.2,0-0.4,0-0.8-0.1H18v0.1c0.1,0.1,0.1,0.2,0.2,0.3c0.1,0.3,0.1,0.5,0,0.9c0,0.2-0.1,0.4-0.2,0.6
	c0,0.1-0.1,0.2-0.1,0.3s0,0.2,0,0.2c0,0.1-0.1,0.3-0.1,0.4c-0.2-0.1-0.3-0.3-0.5-0.4c-0.1-0.1-0.3-0.2-0.4-0.3
	c-0.1-0.1-0.2-0.3-0.3-0.4c-0.1-0.4-0.2-0.9-0.2-1.3c0-0.1,0-0.2,0.1-0.3c-0.1,0-0.1,0-0.1,0.1c-0.2,0.2-0.4,0.3-0.7,0.4
	c-0.1,0-0.2,0.1-0.2,0.1h-0.1v-0.1c0-0.1,0.1-0.3,0.1-0.4s0-0.1-0.1-0.2c-0.1-0.2-0.2-0.4-0.3-0.6v-0.1c0,0,0,0.1-0.1,0.1
	c-0.1,0.4-0.2,0.8-0.3,1.2c-0.2,0.6-0.3,0.9-0.4,1.2C14,17,13.7,18,13.6,18.3c-0.1,0.2-0.3,1-0.3,1.3s0,0.9,0,1.2
	c0,0.1,0.2,0.9,0.2,1.3c0,0.2,0.2,0.2,0.3,0.2c0.4,0.1,1,0.3,1.4,0.4S16,23,16.4,23c0.3,0,0.6-0.1,0.9-0.2c0,0,0,0,0.1,0
	c-0.1,0-0.1-0.1-0.2-0.1C17,22.5,16.9,22.2,17,22s0.3-0.3,0.5-0.3c0.3,0,0.6,0.1,0.9,0.3c0.1,0.1,0.1,0.2,0.1,0.3
	c0,0.1,0,0.1,0.1,0.1c0.3-0.1,0.6-0.2,1-0.2c0.2,0,0.3,0,0.6,0c0.2,0,0.3,0.1,0.5,0.2c0.1,0,0.1,0,0.2-0.1c-0.1-0.4,0.4-0.6,0.6-0.8
	c0.4-0.2,1-0.2,1.4-0.2c0.2,0,0.6,0.1,0.9,0.3c0.2,0.1,0.4,0.5,0.3,0.8c0,0.1,0.2,0.1,0.3,0.1c0.3,0,1,0.2,1.3,0.3
	c0.1,0,0.2,0,0.3,0.1c-0.2,0-0.3,0-0.5,0c-0.3,0-0.5-0.1-0.9-0.1c0,0-0.4-0.2-0.5-0.1c-0.2,0.2-0.3,0.6-0.6,0.8
	c-0.4,0.2-1,0.3-1.7,0.2c-0.2,0-0.8-0.4-0.9-0.6c0-0.1,0-0.2,0-0.3s-0.1-0.1-0.3-0.1c-0.1,0-0.3-0.1-0.4-0.1c-0.2,0-0.3,0-0.5,0
	s-0.3,0.1-0.5,0.1c0,0-0.1,0-0.1,0.1l0.1,0.1c0.3,0.2,0.5,0.4,0.9,0.8c0,0,0,0,0,0.1h-0.1c-0.1-0.1-0.1-0.1-0.2-0.2
	c-0.2-0.2-0.4-0.4-0.8-0.5c-0.1-0.1-0.2-0.1-0.3-0.1c-0.4,0.1-0.8,0.2-1.2,0.3c-0.6,0.2-1.2,0.2-1.8,0.1c-0.2,0-0.4-0.1-0.6-0.1
	c-0.1,0-0.2,0,0,0.2c0.4,0.3,1.2,0.5,1.6,0.6c0.4,0.1,0.6,0.1,0.9,0.2c0.4,0.1,0.9,0.2,1.2,0.2c0.6,0.1,1.2,0.1,1.6,0.1
	c0.3,0,0.6,0,1,0.1c0.1,0,0.2,0.1,0.3,0.1c0.2,0.1,0.3,0,0.5,0c0,0,0.1-0.1,0.2-0.2c0.2-0.1,0.4-0.2,0.6-0.2s0.4,0,0.6,0.1
	c0.2,0.1,0.3,0.2,0.4,0.4c0,0.1,0,0.5-0.1,0.6c-0.1,0.2-0.3,0.4-0.5,0.5c-0.1,0,0.2,0.2,0.2,0.3s0.1,0.2,0.1,0.2v0.1
	c-0.1-0.1-0.1-0.2-0.2-0.2c0,0-0.1-0.2-0.2-0.3c-0.1-0.2-0.3-0.1-0.5,0s-0.4,0-0.8,0c-0.1,0-0.4-0.2-0.4-0.3c-0.1-0.1-0.1-0.5,0-0.6
	s0.1-0.1-0.1-0.2c-0.5-0.2-0.8-0.2-1.3-0.2c-0.3,0-1.4-0.1-1.7-0.1c-0.2,0-0.1,0.3,0.1,0.2c0.5-0.1,1.2,0.2,1.4,0.6
	c0.1,0.2,0.3,0.6,0.1,0.9c-0.3,0.4-0.9,0.4-1.7,0.3c-0.9-0.3-1.3-0.8-1.4-1c-0.1-0.2-0.2-0.8,0.1-1c0.3-0.3,0.8,0,1,0
	s0.2-0.2,0.2-0.2c-0.2-0.2-1.1-0.3-1.6-0.4c-0.2,0-1.3-0.5-1.6-0.8c-0.3-0.1-0.1-0.5-0.4-0.6c-0.2-0.1-0.3-0.2-0.7-0.2h-0.1v0.1
	c0,0.2,0.1,0.3,0.2,0.5c0.4,0.5,1,1,1.4,1.4c0.4,0.4,1,0.8,1.4,1.2c0.3,0.3,1,1.3,1.1,1.3c0.2,0.1,0.4,0,0.5-0.1
	c0.3-0.1,0.5,0.1,0.6,0.3c0.1,0.1-0.2,0.8-0.3,0.9c-0.2,0.2-0.6,0.3-0.9,0.2c-0.1,0-0.3-0.3-0.3-0.4s0.2-0.3,0.2-0.4v-0.1
	c-0.3-0.5-0.8-1-1.2-1.4c-0.3-0.2-0.6-0.5-1-0.8H15v0.1c0,0.2,0.1,0.3,0.1,0.5c0.1,0.2,0.1,0.4,0.2,0.5v0.1
	c-0.1-0.1-0.1-0.2-0.2-0.3c-0.1-0.3-0.2-0.6-0.3-1.1c0-0.2-0.1-0.3-0.2-0.4c-0.4-0.3-0.9-0.6-1.2-1.1c-0.1-0.1-0.2-0.2-0.3-0.4
	c0,0.1,0,0.1,0,0.1c0,0.6,0,1.4,0,1.9c0,0-0.2,1.3-0.1,2.1c0,0.3,0,0.6,0.1,0.9c0.1,0.2,0.2,0.4,0.3,0.6c0,0.1,0.1,0.1,0.2,0.1
	c0.3,0,0.6,0,1,0.1c0.4,0,0.8,0.2,1,0.6c0.1,0.2,0,0.5-0.2,0.8c-0.1,0.1-0.3,0.2-0.4,0.3C15,31,14.7,31,14.5,31
	c-0.1,0-0.2-0.1-0.3-0.1c-0.3-0.1-0.5-0.2-0.8-0.4S13,30,13,29.7c0-0.2,0.1-0.4,0.3-0.5c0-0.1-0.1-0.2-0.1-0.3
	c-0.2-0.4-0.4-1-0.4-1.4c0-0.6-0.1-0.4-0.1-1l-0.1-0.2l-0.1,0.2c0,0.1-0.2,0.2-0.2,0.2c-0.2,0.1-0.3,0.2-0.5,0.2
	c-0.2,0-0.3,0.1-0.4,0.2c-0.2,0.1-0.4,0.4-0.6,0.6c-0.2,0.3-0.8,0.5-1.1,0.6c-0.1,0-0.5,0.2-0.5,0.1c0.1,0.1,0.4,0,0.6,0.1
	c0.3,0,0.5,0.2,0.5,0.3c0.1,0.2,0,0.5-0.2,0.8C9.8,29.9,9.4,30,9,30c-0.4,0-0.8-0.1-1.1-0.4c-0.2-0.2-0.1-0.5,0.1-0.8l0.5-0.2v-0.1
	c-0.1,0-0.9,0.1-0.9,0.1c0.1,0,0.2-0.1,0.3-0.1c0.4-0.1,0.9-0.1,1.3-0.2c0.2,0,0.5-0.1,0.7-0.2c0.1,0,0.2-0.1,0.2-0.2
	c0.1,0-0.2,0-0.2,0c-0.1,0-0.3-0.1-0.4,0.1c-0.1,0.2-0.3,0.2-0.6,0.1c-0.1,0-0.2-0.2-0.2-0.3c0-0.1-0.1-0.1-0.1-0.1
	c-0.4,0-1-0.1-1.4-0.1c-0.1,0-0.1,0-0.2,0h0.1c0.4,0,0.9,0,1.3,0c0.1,0,0.1,0,0.2,0c0.1,0,0.2-0.1,0.3-0.2c0.2-0.2,0.5-0.2,0.6,0
	c0,0,0.1,0.1,0.1,0.2l0.1,0.1c0,0,0.1,0.1,0.2,0.1c0.2,0.1,0.3,0,0.5-0.1c0.2-0.3,0.5-0.5,0.7-0.8v-0.1L10.7,27
	c-0.2,0-1-0.2-1.1-0.4c-0.1-0.2-0.1-0.8,0-0.9c0.1-0.2,1.1-0.2,1.3-0.3c0.2-0.1,0.9-0.4,1.2-0.2c0.1,0.2,0.2,0.6,0.1,0.9l-0.6,0.6
	c0.1,0.1,0.5-0.2,0.6-0.2c0.1-0.2,0.6-1,0.8-1.4c0-0.8-0.1-1.4-0.1-2c0-0.2,0.1-0.3,0.1-0.5l-0.1-0.1c-0.2,0.2-0.4,0.4-0.5,0.6
	c-0.1,0.1-0.1,0.2-0.2,0.3c0,0.1-0.1,0.2-0.1,0.4c0,0.1-0.1,0.2-0.1,0.3c-0.1,0.3-0.3,0.5-0.6,0.6c0,0,0,0-0.1,0
	c0.1-0.1,0.1-0.1,0.2-0.2c0.2-0.1,0.3-0.3,0.4-0.5c0.1-0.2,0.2-0.4,0.2-0.6v-0.1v-0.1h-0.1c-0.2,0.1-0.3,0.2-0.5,0.3
	c-0.2,0.1-0.3,0.2-0.3,0.3c-0.1,0.2-0.2,0.4-0.4,0.6c0,0,0,0-0.1,0c0.1-0.2,0.3-0.3,0.3-0.5c-0.1,0-0.2,0.1-0.2,0.1
	c-0.2,0.1-0.4,0.2-0.6,0.1c-0.3,0-0.5-0.1-0.7-0.3H9.1c-0.2,0-0.3,0.1-0.4,0.2c-0.1,0.2-0.2,0.3-0.3,0.5c-0.1,0.1-0.1,0.2-0.1,0.3
	c-0.1,0.1-0.1,0.3-0.2,0.4c0,0.1,0,0.1,0.1,0.1c0.1,0,0.3,0.1,0.3,0.2c0.1,0.1,0.1,0.3,0,0.4c-0.1,0.3-0.3,0.4-0.6,0.4
	c-0.1,0-0.3,0.1-0.4,0.1c-0.2,0-0.3,0-0.4-0.2c-0.1-0.2-0.2-0.3-0.1-0.4c0-0.2,0.1-0.3,0.4-0.4c0.1-0.1,0.5,0,0.5-0.1
	C8,25.2,8,25.2,8.1,25L8,24.9H7.9c-0.2,0.1-0.4,0.2-0.6,0.3H7.1c0.1,0,0.1-0.1,0.2-0.1c0.2-0.1,0.3-0.2,0.5-0.3
	c0.2-0.1,0.4-0.3,0.6-0.6V24H8.4c-0.2,0.1-0.5,0.1-0.7,0.2c-0.3,0.1-0.5,0.3-0.8,0.4c-0.1,0.1-0.2,0.2-0.4,0.3H6.4
	c0.2-0.2,0.4-0.4,0.7-0.6c0.3-0.2,0.6-0.4,1-0.5c0.2-0.2,0.5-0.2,0.7-0.3c0.1,0,0.1-0.1,0.1-0.1C9,23,9.4,22.6,9.8,22.8
	c0.1,0,0.2,0.1,0.3,0.1c0.2,0.1,0.3,0.1,0.5,0.2c0.1,0,0.1,0.1,0.2,0.1c0.1,0.1,0.1,0.1,0.3,0.1c0.4-0.1,0.8-0.4,1-0.8
	c0.2-0.2,0.4-0.4,0.5-0.6c0,0,0-1.4,0-1.5c0-0.3,0.1-1.3,0.1-1.5c0.1-0.6,0.5-1.5,0.8-2.4c0.1-0.2,0.8-2.1,0.8-2.1
	c0-0.4,0.1-0.7,0-1.2c0-0.1-0.1-0.2-0.2-0.3c-0.1-0.1-0.2-0.2-0.3-0.4c-0.1-0.1-0.2-0.2-0.3-0.1c-0.1,0-0.1,0.1,0,0.1
	c0.2,0.2,0.1,0.4,0,0.5c-0.2,0.3-0.5,0.5-0.9,0.6c-0.2,0.1-0.4,0.1-0.5,0c-0.1,0-0.2,0-0.4,0c-0.1,0-0.1,0-0.1-0.1
	c0.1-0.2,0.2-0.4,0.3-0.8c0.1-0.3,0.2-0.5,0.4-0.7c0.1-0.1,0.3-0.2,0.5-0.2c0.1,0,0.1,0,0.2,0c-0.1,0-0.1-0.1-0.2-0.1s-0.1,0-0.2,0
	c0,0.1-0.1,0.1-0.2,0.1c-0.1-0.1-0.3-0.1-0.4-0.2c0.1,0.3-0.1,0.4-0.2,0.6c-0.3,0.2-0.6,0.4-1,0.5c-0.2,0-0.4,0-0.6-0.1
	c-0.1,0-0.2,0-0.3,0C9.7,12.8,9.7,12.8,9.7,12.7c0.1-0.1,0.2-0.2,0.3-0.3c0.1-0.2,0.2-0.4,0.3-0.6c0-0.1,0.1-0.2,0.2-0.3
	c-0.1,0-0.1,0-0.1,0c-0.3,0-0.5,0.1-0.5,0.5c0,0.1,0,0.3,0,0.4C9.7,12.5,9.7,12.6,9.7,12.7z M13.6,8.4C13.8,8.4,13.8,8.4,13.6,8.4
	c0.1,0,0.1-0.1,0.1-0.1c0-0.1,0.1-0.2,0.1-0.4C14,7.6,14,7.4,14,7.3c0-0.1,0-0.1-0.1-0.1c-0.1,0.1-0.2,0.1-0.4,0
	c0,0-0.2-0.1-0.2-0.2l0,0C13.3,7.5,13.5,8,13.6,8.4z M13.1,3.5L13.1,3.5C13.4,3.2,13.8,3,14,2.7c0.2-0.1,0.2-0.1,0-0.3
	c-0.1-0.2-0.1-0.2-0.3,0c-0.2,0.2-0.3,0.5-0.5,0.8C13.2,3.4,13.2,3.4,13.1,3.5z M11,6.5L11,6.5c-0.2,0-0.3,0-0.5,0l-0.1,0.1
	c0,0.1,0,0.2,0,0.3V7h0.1C10.5,6.8,10.7,6.7,11,6.5C11,6.6,11,6.5,11,6.5z M14.5,3c0-0.1-0.1-0.2-0.1-0.3c0,0-0.1-0.1-0.1,0
	c-0.1,0.1-0.2,0.1-0.3,0.2c0,0,0,0-0.1,0.1H14C14.1,3.1,14.3,3,14.5,3C14.4,3,14.5,3,14.5,3z M17.1,14.9c0,0.2,0,0.2,0.2,0.1l0,0
	c0.1,0,0.1-0.1,0-0.2c-0.1-0.1-0.1-0.2-0.2-0.2C17.1,14.5,17.1,14.8,17.1,14.9z M12,4.9c0.1,0.1,0.1,0.3,0.2,0.4c0,0,0,0,0.1,0
	c0,0,0,0,0-0.1c0-0.1,0-0.1,0-0.2V4.9C12.2,5,12.2,5,12,4.9z M16.9,14.8L16.9,14.8c-0.2,0.1-0.2,0.2-0.3,0.4c0.1,0,0.2,0,0.3-0.1
	c0,0,0,0,0-0.1C16.9,15,16.9,14.9,16.9,14.8z M10.9,6.2c0.1,0,0.2,0,0.2,0s0.1,0,0.1-0.1c0-0.1-0.1-0.1-0.1-0.2
	C11.1,6,10.9,6.1,10.9,6.2z M15.4,13c0,0.1,0.1,0.2,0.1,0.2h0.1v-0.1C15.6,13,15.5,13,15.4,13z M14.1,7.4c0-0.1,0.1-0.1,0.1-0.2
	c0,0,0-0.1-0.1-0.1C14.1,7.1,14,7.2,14.1,7.4z M13.3,12.4C13.3,12.4,13.4,12.4,13.3,12.4c0-0.1,0-0.1-0.1-0.2l0,0
	C13.2,12.4,13.2,12.4,13.3,12.4z M14.1,8C14.1,8,14.1,8.1,14.1,8c0.1,0,0.1-0.1,0.1-0.1s0,0,0-0.1l0,0C14.2,7.8,14.1,7.8,14.1,8
	L14.1,8z M13.2,3.8c0-0.1,0.1-0.1,0.1-0.1s0,0-0.1-0.1c0,0-0.1,0-0.1,0.1C13.2,3.7,13.2,3.8,13.2,3.8z"/>
</svg>
