<?xml version="1.0" encoding="utf-8"?>
<!-- Generator: Adobe Illustrator 23.1.1, SVG Export Plug-In . SVG Version: 6.00 Build 0)  -->
<svg version="1.1" id="sorghum" xmlns="http://www.w3.org/2000/svg" xmlns:xlink="http://www.w3.org/1999/xlink" x="0px" y="0px"
	 viewBox="0 0 32 32" style="enable-background:new 0 0 32 32;" xml:space="preserve">
<style type="text/css">
	.st0{fill:#FFFFFF;}
</style>
<path class="st0" d="M18.1,31c0-0.6,0.1-1.2,0.1-1.2c0.1,0,0.1,0.6,0.1,1.2L18.1,31z M10.8,27.5c0-1.4,0-1.7,0.1-1.4
	c0.1,0.2,0.1,1.3,0,1.4C10.8,27.5,10.8,27.5,10.8,27.5L10.8,27.5z M14.3,31C14.3,31,14.3,31,14.3,31l-0.4,0c0-0.1,0-0.2,0.1-0.4
	c0.1-0.3,0.1-0.7,0.1-0.8c0-0.1,0.1-0.3,0.1-0.5c0-0.2,0.1-0.4,0.1-0.5c0-0.1,0.1-0.4,0.1-0.6c0.1-0.5,0.1-0.9,0.2-1.2
	c0-0.1,0.1-0.6,0.1-1c0-0.5,0.1-0.9,0.1-1c0-0.1,0.1-0.3,0.1-0.4c0-0.1,0.1-0.3,0.2-0.4c0.5-0.7,0.4-0.8-0.3-0.1
	c-0.2,0.2-0.5,0.6-0.5,0.7c0,0-0.1,0.1-0.2,0.3c-0.1,0.1-0.2,0.3-0.2,0.3c0,0.1-0.2,0.4-0.6,0.9c-0.2,0.2-0.4,0.5-0.5,0.8
	c-0.1,0.2-0.2,0.4-0.2,0.4c0,0-0.1,0.1-0.1,0.3c0,0.2-0.1,0.4-0.2,0.5c-0.1,0.1-0.1,0.3-0.2,0.3c0,0.1-0.1,0.1-0.1,0.2
	c0,0-0.1,0.1-0.1,0.3S12,29.3,12,29.4c-0.3,0.7-0.3,1.3-0.1,1.2c0,0,0.1,0,0.1,0.1c0.1,0.3,0.2,0.1,0.3-0.7c0-0.3,0.1-0.7,0.2-0.9
	c0.1-0.3,0.1-0.6,0.2-0.8c0-0.2,0.1-0.3,0.1-0.3c0.1,0,0.1,0.4,0,0.6c0,0.1-0.1,0.3-0.1,0.4c0,0.2-0.1,0.4-0.1,0.5
	c-0.1,0.8-0.2,1.2-0.1,1.4l-1,0l0-0.2c0-0.4,0.1-1,0.1-1.5c0-0.4,0-1.1,0-1.5c0-1,0-1-0.1-1c-0.2,0-0.3-0.9-0.1-0.9
	c0.1,0,0.1,0,0.1,0.1c0,0.1,0,0.1,0.1,0c0,0,0.1-0.2,0-0.3c0-0.2,0-0.3,0.1-0.5c0.1-0.2,0.1-0.2,0-0.3c0-0.1-0.1-0.2-0.1-0.3
	c0-0.1,0-0.1-0.1-0.2c-0.1,0-0.1,0.3,0,0.4c0.1,0.3-0.7,0.7-1,0.5c-0.2-0.1-0.3-0.1-0.3,0.1c0,0.2,0.1,0.2,0.2,0.1
	c0.2-0.2,0.4,1.4,0.2,2.2c-0.1,0.3-0.1,0.5,0,1.2c0,0.4,0,1.3,0,1.9l-0.3,0c0-2.1,0.1-2.6-0.2-3.8c0-0.2-0.1-0.4-0.1-0.5
	c0-0.2-0.1-0.6-0.2-0.9c-0.1-0.2-0.1-0.4,0-0.6l0.1-0.2l-0.1-0.1c-0.1-0.1-0.1-0.2-0.1-0.3c-0.2-0.8-0.5-1.5-0.8-1.7
	c-0.4-0.2-0.8-0.9-1.2-1.9c-0.7-1.7-1.1-2-1.3-0.9c0,0.1-0.1,0.2-0.1,0.3C6.1,20.4,6,20.6,6,20.7c-0.1,0.3-0.4,0.7-0.8,1.2
	c-0.1,0.1-0.3,0.4-0.4,0.5c-0.1,0.3-0.2,0.4-0.4,1.1c-0.2,0.7-0.4,0.2-0.2-0.5c0.2-0.7,0.4-1.2,1.1-1.8c0.1-0.2,0.3-0.4,0.4-0.6
	c0.1-0.2,0.2-0.5,0.2-0.6c0.3-0.6,0.5-1.9,0.4-1.9c-0.1,0-0.6,0.1-0.7,0.2c-0.1,0.1-0.2,0.1-0.3,0.2c-0.1,0-0.1,0.1-0.2,0.2
	c0,0-0.1,0.2-0.1,0.2c0,0.1-0.1,0.4-0.1,0.8c0,0.5-0.1,0.7-0.2,1.1c-0.2,0.6-0.3,0.9-0.4,1.2c0,0.2-0.1,0.4-0.1,0.6
	c0,0.1-0.1,0.4-0.1,0.5c0,0.2,0,0.3-0.1,0.3c-0.1,0-0.2-0.3-0.1-0.5c0-0.1,0-0.4,0.1-0.6c0-0.4,0.2-1.1,0.5-1.9
	c0.1-0.1,0.1-0.3,0-0.7c0-0.6,0.1-0.9,0.3-1.2c0.1-0.1,0.1-0.2,0.1-0.2s0.1-0.1,0.2-0.2c0.1-0.1,0.2-0.2,0.3-0.2
	c0.1,0,0.3-0.1,0.4-0.1c0.2,0,0.4-0.1,0.5-0.1c0.1,0,0.2-0.1,0.3-0.1c0.1,0,0.3-0.1,0.5-0.2c0.8-0.4,1.5-0.2,1.9,0.4
	C9,18,9.1,18.1,9.1,18.1s0.1,0.1,0.1,0.2s0.2,0.3,0.2,0.4c0.1,0.1,0.1,0.3,0.2,0.4c0,0.2,0.1,0.4,0.8,1.1c0.3,0.4,0.4,0.3,0.4-0.5
	c0.1-1.4,0.2-2.4,0.4-2.7c0,0,0.1-0.3,0.1-0.6c0-0.3,0-0.6,0.1-0.7c0-0.1,0.1-0.3,0.1-0.5c0-0.2,0.1-0.3,0.1-0.4
	c0-0.1,0.1-0.2,0.1-0.2c0-0.1,0-0.2,0.1-0.2c0,0,0-0.1-0.1-0.1c-0.1,0-0.1-0.1-0.1-0.2c0-0.1-0.1-0.3-0.1-0.5
	c-0.3-0.6,0-0.8,0.4-0.3c0.1,0.1,0.2,0.3,0.3,0.4c0.1,0.2,0.1,0.2,0.3,0c0.2-0.2,0.2-0.4,0-0.4c-0.1,0-0.4-0.6-0.4-0.7
	c0.1-0.2,0.5,0.3,0.5,0.6c0,0.1,0,0.1,0.1,0c0.1-0.1,0.1-0.3-0.1-0.6c-0.1-0.1-0.1-0.2-0.1-0.3c0-0.1-0.1-0.1-0.2-0.1
	c-0.1,0-0.2,0-0.2-0.1c0-0.1-0.1-0.2-0.2-0.2c-0.1-0.1-0.2-0.3-0.4-0.6c0-0.1-0.1-0.1-0.1-0.1c0,0,0,0.1,0.1,0.2
	c0,0.1,0.1,0.3,0.1,0.5c0,0.2,0.1,0.5,0.2,0.6c0.1,0.1,0.1,0.3,0.1,0.4c0,0.2-0.1,0.1-0.3-0.2c-0.2-0.4-0.2-0.4-0.3-0.3
	c-0.2,0.2-0.5-0.2-0.6-0.7c-0.1-0.3,0.2-0.3,0.4,0.1c0.1,0.2,0.2,0.3,0.3,0.1c0-0.2-0.1-0.6-0.3-0.8c-0.2-0.1-0.2-0.3-0.1-0.3
	c0.2,0,0.1-0.1-0.2-0.4c-0.5-0.4-0.6-0.6-0.4-0.8c0.1-0.2,0.2-0.2,0.4,0.1c0.4,0.5,0.4,0.2,0.1-0.4c-0.2-0.3-0.2-0.4-0.2-0.7
	c0-0.5,0.2-0.6,0.3-0.1c0.1,0.3,0.3,0.5,0.4,0.4c0.1-0.1,0.2-0.1,0.3,0.2c0.1,0.3,0.2,0.4,0.2,0.1c0-0.3-0.2-0.6-0.4-1.2
	c-0.2-0.5-0.3-0.7-0.1-0.8c0.1-0.1,0.2,0,0.3,0.2c0.2,0.7,0.5,1.3,0.4,0.7c0-0.1,0-0.3-0.1-0.4c0-0.1-0.1-0.3-0.1-0.3
	c0,0-0.1-0.2-0.1-0.3c0-0.1-0.1-0.3-0.2-0.3c-0.1-0.1-0.1-0.2-0.1-0.4c0-0.1-0.1-0.3-0.2-0.5c-0.2-0.4-0.1-0.6,0.2-0.4
	c0.1,0.1,0.2,0.1,0.3,0.1c0.1,0,0.2,0,0.3,0c0.2,0.2,0.2-0.1-0.2-1.1c-0.2-0.7-0.2-0.9-0.1-0.9c0.1-0.1,0.2,0,0.3,0.4
	c0.1,0.2,0.1,0.4,0.1,0.4c0,0.1,0.1,0.2,0.2,0.4C12.4,5,12.5,5,12.6,5.1c0.2,0,0.1,0,0.1-0.6c-0.1-0.3-0.1-0.5,0-0.7
	c0-0.1,0-0.2,0-0.3c0-0.1,0-0.2,0.1-0.3c0-0.1,0.1-0.3,0.1-0.4c0-0.2,0.1-0.4,0.2-0.3c0.1,0,0.2,0.4,0.2,0.6c0,0.1,0.2,0.2,0.3,0.1
	c0.1-0.1,0.2-0.2,0.1-0.5c-0.1-0.6-0.1-0.8,0-0.9c0.1-0.2,0.2-0.1,0.3,0.4c0,0.5,0.2,0.4,0.4-0.3c0-0.1,0.1-0.3,0.2-0.4
	c0.1-0.1,0.2-0.2,0.2-0.3c0.1-0.1,0.2-0.2,0.2,0c0,0,0,0.2,0,0.3c0,0.4,0.1,0.5,0.3,0.3c0.2-0.2,0.3-0.1,0.1,0.2
	c-0.1,0.3-0.2,0.4-0.1,0.5c0.1,0.1,0.1,0.1-0.1,0.4c-0.1,0.3-0.1,0.3,0,0.4c0.2,0.1,0.2,0.1,0.4-0.2c0.2-0.3,0.3-0.3,0.4-0.2
	c0.1,0.1-0.1,0.4-0.5,0.7c-0.4,0.3-0.6,0.7-0.5,0.9c0.1,0.1,0.5-0.3,0.7-0.6c0.1-0.1,0.2-0.1,0.2,0c0,0.1-0.1,0.5-0.3,0.6
	c-0.1,0.1-0.1,0.2,0,0.3C15.8,4.8,15.4,6,15.1,6c-0.1,0-0.3,0.2-0.3,0.3c0,0.1,0.4,0.1,0.5-0.1c0.2-0.2,0.3-0.2,0.3-0.1
	c0,0.1-0.3,0.6-0.4,0.7C15.1,6.9,15,7,15,7.1c0,0.1-0.1,0.4-0.2,0.5C14.7,7.8,14.6,8,14.6,8c0,0-0.1,0.2-0.2,0.4
	c-0.2,0.4-0.2,0.6,0,0.7c0.2,0.1,0.4-0.6,0.3-0.8C14.7,8.1,15.3,7,15.5,7c0.1,0,0.1,0.1,0,0.3c-0.1,0.1-0.1,0.1-0.1,0.2
	c0,0-0.1,0.2-0.2,0.3C15.1,8,15,8.1,15.1,8.2c0,0.1,0,0.3,0,0.4C15,8.8,15,8.9,15.1,9c0.1,0.1,0.1,0.1,0.1,0.2c-0.1,0.2,0,0.2,0.3,0
	c0.2-0.2,0.2-0.2,0.3-0.2c0.1,0,0.1,0.2-0.1,0.4c-0.1,0.1-0.2,0.4-0.2,0.8c0,0.3,0,0.2-0.6,0.8c-0.4,0.3-0.6,0.7-0.2,0.4
	c0.3-0.2,0.5-0.1,0.3,0.1c-0.4,0.4-0.6,0.6-0.6,0.7c0,0.1,0,0.2-0.1,0.3c-0.1,0.1-0.1,0.2-0.1,0.2c0,0.1,0.5,0.6,0.7,0.8
	c0,0,0.2,0.1,0.3,0.3c0.3,0.3,0.3,0.3,0.3,0.1c0-0.2,0.2-0.2,0.3,0c0.1,0.1,0.1,0.2,0.2,0.2c0.1,0,0.1-0.1-0.1-0.2
	c-0.1-0.1-0.2-0.2-0.3-0.6c-0.2-0.9-0.7-1.5-0.7-1c0,0.1-0.1,0.2-0.2,0.3c-0.2,0.2-0.4,0.2-0.2-0.1c0-0.1,0.1-0.2,0.1-0.3
	c0-0.5,0.6-0.6,0.9-0.1c0.2,0.4,0.5,0.8,0.6,0.8c0.1,0,0.1-0.1,0-0.2c-0.1-0.1-0.4-0.6-0.4-0.8c0-0.1,0.1-0.1,0.2,0
	c0,0.1,0.1,0.2,0.1,0.2c0.1,0,0-0.2-0.1-0.5c-0.1-0.1-0.1-0.3-0.1-0.4c0-0.1-0.1-0.2-0.1-0.4c-0.2-0.3-0.1-0.5,0.1-0.2
	c0.2,0.3,0.3-0.4,0.1-0.9c-0.1-0.4-0.1-0.5,0.1-0.4c0.1,0.1,0.1,0,0.1-0.1c0-0.1,0-0.2,0.1-0.3c0.1-0.1,0.1-0.1,0-0.3
	c-0.2-0.3-0.2-0.6-0.2-0.6c0.1-0.1,0.2,0,0.2,0.1c0,0.2,0.1,0.2,0.1-0.1c0-0.4,0.1-0.4,0.2,0.1c0.1,0.2,0.1,0.4,0.2,0.4
	c0,0,0.1,0.2,0.1,0.3c0.1,0.7,0.2,0.9,0.3,0.8c0.1-0.1,0.1-0.2,0-0.6c-0.1-0.2-0.1-0.4-0.1-0.5c0-0.1,0-0.2-0.1-0.3
	C16.9,8.1,16.8,8,16.8,8c0,0-0.1-0.3-0.2-0.5c-0.1-0.2-0.2-0.5-0.2-0.5c0-0.1,0-0.2-0.1-0.2c-0.2-0.3,0-0.4,0.2-0.2
	c0.1,0.2,0.1,0.1,0-0.2C16.5,6.1,16.6,6,16.9,6l0.2,0l0-0.2c0-0.1-0.1-0.3-0.1-0.5c-0.1-0.3-0.2-0.5-0.1-0.5c0.1,0,0.3,0.5,0.4,0.9
	c0,0.3,0.2,0.7,0.2,0.6c0.1,0,0-0.4-0.1-0.8c-0.2-0.5,0-0.7,0.2-0.2c0,0.1,0.1,0.2,0.1,0.2c0.1,0,0.1-0.2,0.1-0.9
	c0-0.9,0-1.1,0.2-0.9c0.2,0.3,0.2,0.3,0.3,1.1c0,0.8,0,0.8,0.1,0.8c0,0,0.2-0.6,0.2-0.8c0-0.3,0.4-0.8,0.5-0.6
	c0,0.1-0.1,0.5-0.1,0.7c0,0.1-0.1,0.1-0.1,0.2c0,0,0,0.1-0.1,0.2c-0.1,0.1-0.1,0.3-0.2,0.7c0,0,0,0.1,0,0.1c0,0,0.1,0,0.1-0.1
	c0-0.2,0.2-0.7,0.4-1c0.1-0.1,0.1-0.3,0.1-0.3c0-0.1,0-0.1,0.1-0.1c0.1,0,0.1,0.3,0,0.5c-0.1,0.2-0.2,0.6-0.2,0.7
	c0,0.1,0,0.1,0.1-0.1c0.2-0.3,0.4-0.1,0.2,0.2c0,0.1,0,0.1,0.1,0.1c0.2,0,0.2,0.3-0.1,0.6c-0.1,0.1-0.2,0.3-0.2,0.3
	c0,0-0.1,0.1-0.1,0.2S19,7.3,19,7.4c-0.2,0.4-0.5,0.2-0.6-0.5c0-0.2,0-0.5-0.1-0.5c0-0.1,0-0.1,0-0.2c0-0.2-0.3,0.3-0.3,0.5
	c0,0.1,0,0.1,0.1,0.2c0.3,0.3,0.2,1-0.2,1.2c-0.2,0.1-0.2,0.1-0.2,0.3c0,0.1,0,0.2-0.1,0.3c-0.1,0.1-0.1,0.2,0,0.4
	c0,0.2,0,0.3,0,0.4c-0.1,0.2,0,0.5,0.2,0.4c0.1-0.1,0.2,0,0.2,0.2c0,0.3,0.1,0.3,0.2,0.1c0.1-0.3,0.1-0.1,0.1,0.3
	c0,0.3,0,0.4,0.1,0.4c0.1,0,0.3-0.2,0.3-0.4c0-0.2,0.1-0.3,0.2-0.2c0,0,0,0.2,0,0.3c0,0.3,0,0.3,0.1,0.4c0.2,0.1,0.2,0.1,0.2-0.4
	c0-0.5,0-0.6,0.2-0.5c0.1,0,0.2,0.1,0.2,0c0.2,0,0.2,0.1,0.1,0.3c-0.1,0.2-0.1,0.4,0,0.4c0.1,0,0.3-0.4,0.4-0.6
	c0-0.2,0.2-0.3,0.3-0.3c0.1,0,0.1,0.4,0,0.5c0,0-0.1,0.1-0.1,0.2c0,0,0,0.1-0.1,0.2c0,0.1-0.1,0.2-0.1,0.3c0,0.1,0,0.3-0.1,0.3
	c0,0.1-0.2,0.3-0.2,0.5c-0.1,0.2-0.2,0.4-0.3,0.5c-0.1,0.1-0.2,0.3-0.3,0.4c-0.1,0.1-0.2,0.3-0.2,0.4c-0.1,0.2-0.8,2.1-0.7,2.1
	c0.1,0,0.2-0.1,0.2-0.2c0-0.2,0.3-0.5,0.4-0.6c0.2,0,0.2-0.4,0.1-0.4c-0.1,0-0.1-0.1,0.3-0.9c0.2-0.4,0.5-0.9,0.6-1.2
	c0.3-0.5,0.3-0.6,0.4-0.6c0.1,0,0.1,0.2-0.1,0.4c-0.1,0.3-0.1,0.4,0,0.2c0.2-0.2,0.2-0.1,0.1,0.2c-0.1,0.2-0.1,0.2-0.3,0.2
	c-0.3,0.1-0.3,0.1-0.5,0.5c-0.2,0.3-0.2,0.6-0.1,0.6c0.1,0,0.2-0.3,0.3-0.5c0-0.1,0.1-0.1,0.1-0.1c0.1,0,0.1,0.4,0,0.5
	c0,0.1-0.1,0.2-0.1,0.2s-0.1,0.2-0.1,0.2c-0.1,0.1-0.1,0.2-0.1,0.4c0,0.1,0,0.3-0.1,0.3c0,0-0.1,0.2-0.1,0.3
	c-0.1,0.3-0.2,0.4-0.3,0.4c-0.1,0-0.1,0,0-0.2c0.1-0.2,0.1-0.3,0-0.3c0,0-0.1,0.2-0.3,0.4c-0.1,0.2-0.3,0.4-0.4,0.5
	C18,16.2,18,16.3,18,16.5l0.1,0.1l0.1-0.2c0.1-0.1,0.1-0.2,0.2-0.3c0.1-0.3,0.1-0.4,0.2-0.4c0.1,0,0.1,0.1,0,0.4
	c-0.1,0.4,0.1,0.3,0.4-0.2c0.1-0.2,0.2-0.3,0.2-0.3c0.2,0,0,0.7-0.2,0.8c-0.2,0.1-0.4,0.4-0.3,0.6c0.1,0.3-0.5,0.9-0.7,0.7
	c-0.1-0.1-0.2,0.1-0.2,0.3c0.3,0.7,0.3,1,0.3,1.1c0,0.2,0,0.7,0.1,0.8c0,0,0,0.9,0,2.1l0,2l0.2,0.1c0.3,0.2,0.3,0.5,0,0.3
	c-0.2-0.1-0.2-0.1-0.2,0.3c0,0.2,0,0.4,0,0.4c0.1,0,1.2-1.4,1.3-1.7c0-0.1,0.1-0.2,0.1-0.2c0.1-0.1,0.2-0.3,0.3-0.5
	c0.1-0.2,0.3-0.4,0.3-0.5c0.1-0.1,0.2-0.3,0.3-0.4c0.2-0.3,1-1.1,1.1-1.1c0,0,0.1-0.1,0.2-0.2c0.3-0.3,0.9-0.5,1.3-0.5
	c0.2,0,1.1,0.2,1.2,0.2c0,0,0.2,0,0.3,0s0.3,0,0.4,0.1c0.1,0,0.3,0.1,0.4,0.1c0.3,0,0.8,0.3,0.8,0.4c0,0.1,0.1,0.2,0.1,0.2
	c0.1,0.1,0.2,0.3,0.2,0.6c0.1,0.2,0.1,0.5,0.1,0.6c0.1,0.2,0.4,0.8,0.7,1.2c0.5,0.6,0.7,1.4,0.5,1.9c0,0.1-0.1,0.3-0.1,0.3
	c0,0.1-0.3,0.4-0.4,0.4c-0.1,0-0.2-0.1-0.2-0.4c-0.2-0.5-0.6-1.1-1.2-1.4c-0.2-0.1-0.7-0.6-0.8-0.8c0-0.1-0.1-0.2-0.1-0.2
	c-0.1-0.1-0.3-0.6-0.3-0.9C25,22,24.5,21.8,24.3,22c0,0-0.1,0.1-0.3,0.1c-0.2,0.1-0.3,0.2-0.5,0.4c-0.2,0.2-0.3,0.3-0.4,0.3
	c-0.1,0-0.1,0.1-0.2,0.2c0,0.1-0.2,0.3-0.4,0.5c-0.3,0.3-0.6,0.8-0.6,0.9c0,0-0.1,0.1-0.1,0.2c-0.1,0.1-0.2,0.2-0.2,0.4
	c-0.1,0.3-0.3,0.5-0.5,0.7c-0.1,0.1-0.2,0.2-0.2,0.3c0,0.1-0.2,0.6-0.5,0.8c-0.1,0.1-0.2,0.3-0.2,0.4c0,0.1-0.2,0.2-0.2,0.3
	c-0.1,0.1-0.2,0.3-0.4,0.5c-0.1,0.2-0.3,0.3-0.4,0.4c-0.4,0.2-0.4,0.3-0.4,0.8c0.1,0.6,0.1,1.3,0,1.8l-0.4,0c0-0.1,0-0.3,0-0.4
	c0-1.6,0-1.6-0.3-1.4c-0.1,0.1-0.2,0.2-0.2,0.2c-0.1,0-0.2,0.1-0.1,0.3c0,0.1,0.1,0.7,0.1,1.3l-0.5,0c0-0.1,0-0.1,0-0.2
	c0-0.2-0.1-0.5-0.2-0.8c-0.2-0.5-0.3-1.3-0.1-1.6c0.1-0.1,0.1-0.2,0-0.5c-0.1-0.4,0-0.9,0.2-1.4c0-0.1,0-0.2,0-0.5
	c0-0.2,0-0.4,0-0.4c0.1-0.5-0.1-1.2-0.4-1.2c-0.2,0-0.3,0-0.5-0.1c-0.7-0.3-1.2-0.1-1.3,0.4c0,0.2-0.1,0.4-0.1,0.5
	c0,0.1-0.1,0.5-0.1,0.9c0,0.4,0,0.8-0.1,0.9c0,0.2-0.1,0.4-0.1,0.6c0,0.1-0.1,0.4-0.1,0.6c0,0.2-0.1,0.4-0.1,0.5
	c0,0.1,0,0.3-0.1,0.4c0,0.1-0.1,0.4-0.1,0.5c0,0.1-0.1,0.4-0.1,0.6C14.4,30.6,14.3,30.8,14.3,31 M13.1,31c0-0.1,0.1-0.3,0.1-0.5
	c0.2-1.2,0.4-1.8,0.5-1.8c0.1,0,0.1,0,0,0.1c-0.1,0.4-0.1,0.7,0,0.7c0.2-0.2,0.2,0,0.1,0.7c-0.1,0.7-0.1,0.6-0.2,0.6
	c-0.1,0-0.2,0.1-0.2,0.2L13.1,31z M12.6,30.8c0,0,0-0.2,0-0.3c0-0.1,0.1-0.4,0.1-0.5c0-0.2,0-0.4,0.1-0.5c0-0.1,0.1-0.3,0.1-0.4
	c0-0.2,0.1-0.4,0.2-0.5c0.1-0.1,0.1-0.2,0.1-0.2c0.2-0.8,0.2-0.9,0.1-1c-0.1-0.1-0.1-0.2,0.1-0.3c0.1,0,0.2-0.2,0.4-0.6
	c0.3-0.6,0.5-0.8,0.6-0.8c0.1,0,0.1,0.2,0,0.3c-0.4,0.8-0.7,1.3-0.7,1.7c0,0.3-0.1,0.6-0.3,1.2c-0.1,0.2-0.1,0.5-0.2,0.7
	C13,30.5,12.7,31.1,12.6,30.8L12.6,30.8z M13.5,30.4c0.1-0.3,0-0.4,0-0.2c-0.1,0.2-0.1,0.4,0,0.4C13.4,30.5,13.4,30.5,13.5,30.4z
	 M13.6,29.8c0.1-0.2,0-0.3,0-0.2c-0.1,0.1-0.1,0.3,0,0.3C13.5,29.9,13.5,29.9,13.6,29.8L13.6,29.8z M17.6,29.5c0-0.3,0-0.2,0.3-0.5
	c0.2-0.1,0.2-0.2,0.1-0.3c-0.2-0.2-0.1-0.3,0.2-0.3c0.4,0,0.8-0.3,1.1-0.8c0.1-0.1,0.2-0.3,0.3-0.4c0.2-0.2,0.3-0.3,0.6-0.7
	c0.2-0.2,0.3-0.5,1-1.6c0.2-0.3,0.4-0.7,0.5-0.8c0.1-0.1,0.2-0.3,0.3-0.4c0-0.1,0.1-0.2,0.2-0.2c0.1-0.1,0.1-0.1,0.1-0.2
	c0-0.1,0.1-0.2,0.7-0.9c0.7-0.7,0.8-0.8,0.6-0.8c-0.1,0-1.1,0.8-1.7,1.4c-0.3,0.3-0.5,0.3-0.2-0.1c0.1-0.2,0.1-0.2-0.1,0
	c-0.3,0.2-1.1,1.1-1.1,1.2c0,0-0.3,0.4-0.5,0.6c-0.1,0.1-0.2,0.2-0.2,0.3c0,0.1-0.1,0.3-0.3,0.5c-0.1,0.2-0.2,0.5-0.3,0.6
	c0,0.1-0.1,0.2-0.1,0.3c-0.1,0.1-0.2,0.4-0.4,0.7c-0.3,0.5-0.4,0.7-0.8,1.1c-0.1,0.1-0.2,0.2-0.2,0.3c0,0.1-0.1,0.2-0.2,0.2
	l-0.1,0.1l0,0.4c0,0.4,0.1,0.6,0.2,0.6C17.6,29.7,17.6,29.7,17.6,29.5L17.6,29.5z M12,28.1c0.1-0.2,0.2-0.5,0.2-0.6
	c0.1-0.5,0.7-1.4,1.3-2.1c0.1-0.1,0.2-0.3,0.3-0.4s0.1-0.3,0.2-0.4s0.2-0.2,0.2-0.3c0-0.1,0.7-0.8,0.7-0.8c0,0,0.1-0.1,0.3-0.2
	c0.3-0.2,0.8-0.2,1.4,0c0.2,0.1,0.5,0.2,0.5,0.2l0.2,0l0-0.8c0-0.4,0-0.8,0-0.8c0,0-0.1-0.9-0.1-2.1c0-0.3,0-0.3-0.1-0.4
	c-0.1-0.1-0.3-0.3-0.6-0.6c-0.1-0.2-0.5-0.9-0.6-1.2c0-0.1-0.1-0.3-0.2-0.4c-0.1-0.1-0.1-0.1-0.1-0.2c0,0,0-0.1-0.1-0.1
	c-0.1,0-0.2-0.3-0.4-0.5c-0.7-1-1.5-2-1.5-2c0,0-0.2,0.8-0.2,0.9c0,0.3-0.2,0.8-0.3,0.9c-0.1,0.1-0.1,0.1-0.1,0.2
	c0,0-0.1,0.2-0.2,0.3c-0.2,0.3-0.5,1-0.5,1.3c0,0.1,0,0.2-0.1,0.3c0,0.1-0.1,0.4-0.1,0.8c0,0.4,0,0.7-0.1,0.9c0,0.2-0.1,1.3-0.1,1.8
	c0,0.1,0,0.3,0.1,0.4c0.1,0.2,0.2,0.6,0.3,1c0,0.2,0,0.4,0.1,0.5c0,0.1,0,0.2,0,0.3c0,0.1,0,0.2,0,0.2s-0.1,0.2-0.1,0.3
	C12,24.6,12,24.7,12,24.8c0,0.2-0.1,0.6-0.2,0.7c0,0.1-0.1,0.3-0.1,1.1c0,0.6,0,1.2,0,1.4c0,0.3,0,0.4,0,0.4
	C11.8,28.4,11.9,28.3,12,28.1L12,28.1z M17.7,27.9c0.1-0.1,0.1-0.2,0.2-0.3c0.1-0.1,0.2-0.2,0.3-0.4c0.4-0.7,0.7-1.3,0.7-1.4
	c0-0.3,1.6-2.6,2-2.8c0.1,0,0.2-0.1,0.2-0.2c0-0.1,0.1-0.1,0.2-0.2c0.1-0.1,0.2-0.2,0-0.2c-0.1-0.1-0.2,0-0.8,0.7
	c-0.2,0.3-0.5,0.6-0.6,0.7c-0.1,0.1-0.3,0.3-0.3,0.4c-0.1,0.2-0.3,0.5-0.6,0.8c-0.4,0.4-0.6,0.6-0.8,0.9c-0.1,0.2-0.3,0.4-0.4,0.5
	c-0.5,0.6-0.6,1.1-0.5,1.6C17.5,28.1,17.6,28.1,17.7,27.9L17.7,27.9z M17.9,25.8l0.1-0.1l0-1.1c0-4.8,0-4.7-0.5-4.7
	c-0.1,0-0.1,0.1,0,0.2c0.1,0,0.2,0.2,0.2,1c0,0.4,0.1,0.9,0.1,1c0,0.2,0,0.2-0.1,0.3c-0.1,0.1-0.1,0.1-0.1,0.5c0,0.2,0,0.4,0,0.5
	c0,0.7,0,2.4,0,2.5C17.7,25.9,17.7,25.9,17.9,25.8L17.9,25.8z M27.8,25.2c0-0.1,0-0.2,0-0.3c0-0.1,0-0.2,0-0.3c0-0.1,0-0.2-0.1-0.3
	c0,0-0.1-0.2-0.2-0.3c-0.2-0.4-0.3-0.6-0.4-0.7c-0.2-0.2-0.5-0.8-0.6-1.1c-0.1-0.7-0.3-1.1-0.5-1.3c-0.3-0.2-0.6-0.1-0.4,0.1
	c0.2,0.2,0.2,0.5,0.1,0.5c0,0-0.5-0.6-0.7-0.8c-0.1-0.1-0.3-0.2-0.3-0.1c0,0.1,0,0.1,0.4,0.7c0.1,0.1,0.2,0.3,0.2,0.3
	c0,0.1,0,0.2,0.1,0.4c0,0.2,0.1,0.4,0.1,0.5c0.1,0.6,0.4,1,1.1,1.5c0.4,0.3,1,0.9,1.1,1.1C27.7,25.4,27.8,25.4,27.8,25.2L27.8,25.2z
	 M26.5,23.6c-0.4-0.4-0.4-0.4-0.5-0.9c-0.1-0.4-0.1-0.6,0-0.6c0.1,0,0.2,0.2,0.3,0.5c0.1,0.4,0.3,0.8,0.5,0.9
	c0.2,0.2,0.2,0.2,0.2,0.4C26.9,24,26.8,23.9,26.5,23.6L26.5,23.6z M11,25.1c0.1-0.1,0.1-0.1,0-0.2c-0.1-0.1-0.2-0.1-0.2,0
	C10.7,25.2,10.8,25.2,11,25.1z M10.4,24.6c0,0-0.1-0.3-0.1-0.6c-0.2-0.6-0.2-0.7-0.1-0.8c0.1-0.1,0-0.5-0.2-0.7
	c0-0.1-0.1-0.2-0.2-0.3c-0.1-0.3-0.5-0.9-0.6-1C9.2,21.2,9.1,21,9,20.8c-0.1-0.2-0.2-0.3-0.2-0.4c-0.1-0.1-0.2-0.3-0.4-0.6
	c-0.3-0.6-0.9-0.9-0.7-0.3c0,0.1-0.1,0.1-0.2,0c0-0.1-0.2-0.3-0.3-0.4c-0.4-0.4-0.3-0.6,0.1-0.2C7.4,19,7.5,19.1,7.5,19
	c0,0-0.1-0.3-0.2-0.4c-0.2-0.1,0-0.3,0.2-0.2c0.1,0,0.9,0.9,1.1,1.3c0,0.1,0.1,0.2,0.2,0.3c0.1,0.1,0.2,0.3,0.2,0.3
	c0,0.1,0.2,0.3,0.3,0.5c0.4,0.6,0.7,1.2,0.9,1.5c0.1,0.2,0.2,0.4,0.3,0.6c0.1,0.1,0.1,0.2,0.1,0.3c0,0.1,0.2,0.4,0.3,0.4
	c0,0,0-0.1,0-0.2c0-0.2,0-0.2,0.1-0.3c0.1-0.1,0.1-0.2,0-0.4c-0.1-0.2-0.1-0.4,0-0.4c0.2,0,0.4,0.8,0.5,1.6c0,0.3,0,0.3,0.2,0.3
	c0.4,0,0.1-1.5-0.5-2.2c-0.1-0.1-0.2-0.3-0.3-0.4c-0.1-0.1-0.4-0.5-0.6-0.7c-0.6-0.7-0.9-1.2-1.2-1.9c0-0.1-0.2-0.3-0.2-0.5
	s-0.2-0.3-0.2-0.4c-0.2-0.4-0.9-0.6-1.5-0.4C6.5,18,6.3,18.6,6.9,19c0.1,0.1,0.2,0.2,0.3,0.3c0.2,0.3,0.7,1.4,0.7,1.5
	c0,0.3,0.6,1.2,0.9,1.5c0.5,0.3,0.7,0.7,0.9,1.5C10,24.5,10.3,25,10.4,24.6L10.4,24.6z M10.7,24.2c0-0.2-0.3-0.9-0.3-0.8
	c0,0,0.2,0.7,0.2,0.8C10.6,24.3,10.7,24.3,10.7,24.2L10.7,24.2z M17.1,24.1c0.1-0.1-0.6-0.4-0.9-0.4c-0.4,0-0.3,0.2,0.1,0.3
	c0.2,0,0.3,0.1,0.3,0.1C16.7,24.2,17,24.2,17.1,24.1L17.1,24.1z M22.1,22c0.3-0.3,0.8-0.5,1.3-0.7c0.2-0.1,0.8-0.4,0.8-0.4
	c0.1-0.2-0.3-0.3-0.6-0.1c-0.1,0.1-0.3,0.2-0.5,0.3c-0.4,0.2-0.5,0.3-1,0.7c-0.3,0.3-0.4,0.4-0.3,0.4C21.8,22.2,21.9,22.1,22.1,22
	L22.1,22z M21.3,21.9c0.4-0.4,0.5-0.6,0.4-0.6c-0.1,0-0.6,0.6-0.7,0.8C20.9,22.2,21.1,22.1,21.3,21.9L21.3,21.9z M22.1,21.5
	c0.2-0.2,0.9-0.7,1.2-0.8c0.2-0.1,0.3-0.2,0.2-0.3c-0.1-0.1-0.6,0.1-0.9,0.4c-0.2,0.1-0.3,0.2-0.3,0.2c0,0-0.1,0.1-0.2,0.3
	s-0.2,0.3-0.2,0.3c0,0-0.1,0.1-0.1,0.1C21.8,21.8,21.9,21.8,22.1,21.5L22.1,21.5z M24.4,21.6c0.1,0,0.2-0.1,0.2-0.1
	c0.1,0,0.1-0.2,0-0.3c-0.1-0.1-0.3,0-0.4,0.2c0,0.1-0.1,0.2-0.1,0.2C24.1,21.7,24.1,21.7,24.4,21.6L24.4,21.6z M11.6,21.5
	c0-0.1,0.1-0.4,0.1-0.7c0-0.3,0.1-0.9,0.1-1.3c0-0.4,0.1-0.8,0.1-0.9l0-0.2l-0.2,0c-0.3,0-0.3,0.1-0.4,0.8c0,0.7-0.1,0.9-0.2,1.3
	C10.9,20.9,11.4,21.8,11.6,21.5L11.6,21.5z M17.8,19.3c0-0.1,0-0.2-0.1-0.2c-0.1,0-0.1,0.1-0.1,0.2C17.7,19.4,17.8,19.4,17.8,19.3
	L17.8,19.3z M17.5,19c0,0-0.1-0.2-0.2-0.4c-0.3-0.3-0.5-0.6-0.8-1.2c-0.1-0.3-0.3-0.5-0.3-0.5c0,0-0.1-0.1-0.1-0.2
	c-0.1-0.2-0.3-0.6-1-1.3c-0.3-0.3-0.7-0.7-0.8-0.9c-0.1-0.1-0.2-0.3-0.3-0.3c-0.1-0.1-0.4-0.6-0.7-1.1c-0.3-0.5-0.5-0.9-0.7-1.1
	c-0.1-0.1-0.1-0.2-0.1-0.4c0-0.3-0.1-0.5-0.3-0.5c-0.1,0-0.1,0.2,0.1,0.6c0.1,0.1,0.2,0.4,0.2,0.5c0.1,0.4,0.3,0.7,0.5,1
	c0.1,0.2,0.3,0.5,0.4,0.6c0.2,0.3,0.4,0.6,0.9,1.1c0.4,0.4,0.8,1,1.2,1.6c0.3,0.5,0.4,0.7,0.5,1.1c0.1,0.2,0.2,0.4,0.6,1
	c0.2,0.2,0.2,0.3,0.4,0.3C17.4,19.1,17.5,19.1,17.5,19L17.5,19z M17.7,18.5c0-0.1-0.3-0.5-0.5-0.7c-0.1-0.1-0.2-0.2-0.2-0.3
	c0-0.1,0-0.2-0.1-0.2c-0.1-0.1-0.2-0.3-0.4-0.7c-0.4-1-0.6-1.3-1.8-2.5c-1-1-1.1-1.1-1.1-0.9c0,0.2,0.4,0.7,1.5,1.9
	c0.7,0.8,0.9,0.9,1.3,1.8c0,0.1,0.1,0.2,0.1,0.3c0,0.1,0.1,0.3,0.2,0.4c0.1,0.1,0.2,0.3,0.3,0.5C17.3,18.3,17.7,18.6,17.7,18.5
	L17.7,18.5z M11.7,17.9c0-0.1,0-0.1,0-0.2c-0.2-0.1-0.1-0.3,0.1-0.4c0.1-0.1,0.3-0.2,0.3-0.3c0.1-0.1,0.2-0.3,0.3-0.4
	c0.3-0.3,0.4-0.6,0.5-1c0-0.2,0.1-0.4,0.1-0.5c0-0.1,0-0.2,0.1-0.3c0.1-0.4-0.2-0.1-0.5,0.6c-0.4,0.8-0.4,0.9-0.5,1.2
	c-0.1,0.3-0.2,0.4-0.2,0.2c0-0.2,0.2-0.9,0.4-1.2c0.1-0.1,0.2-0.3,0.3-0.6c0.3-0.5,0.4-0.7,0.6-0.9c0.2-0.2,0.2-0.2,0.1-0.4
	c-0.1-0.2-0.3-0.2-0.4,0c0,0.1-0.2,0.3-0.3,0.4c-0.1,0.1-0.2,0.3-0.2,0.3c0,0-0.1,0.1-0.1,0.2c-0.1,0.1-0.1,0.3-0.2,0.4
	c0,0.1-0.1,0.3-0.1,0.3c-0.1,0.1-0.1,0.7-0.1,1c0,0.2,0,0.3-0.1,0.5c-0.1,0.1-0.1,0.3-0.1,0.3c0,0,0,0.2,0,0.4
	C11.3,18,11.5,18.2,11.7,17.9L11.7,17.9z M17.1,16.3c0-0.1,0-0.2-0.1-0.3c0,0,0-0.2,0-0.2c0-0.1,0-0.2-0.1-0.2
	c-0.1-0.1-0.2-0.2-0.3-0.6c0-0.1-0.1-0.2-0.1-0.3c0-0.2-0.1-0.3-0.3-0.3c-0.4-0.1-0.3,0.4,0.1,0.7c0.1,0,0.1,0.1,0.1,0.1
	c0,0,0.1,0.1,0.1,0.2c0.1,0.1,0.1,0.2,0.1,0.3c0,0.1,0,0.2,0.1,0.2c0,0.1,0.1,0.2,0.1,0.3c0,0.1,0.1,0.2,0.1,0.2
	C17.1,16.5,17.1,16.5,17.1,16.3L17.1,16.3z M17.3,16c0,0,0-0.1,0.1-0.2c0.1-0.2,0.1-0.3,0-0.4c-0.3-0.4-0.3-1.2,0-0.9
	c0.1,0.1,0.1,0.1,0.1,0.1c0.1-0.1,0-0.5,0-0.5c0,0-0.1-0.1-0.1-0.2c0-0.1,0-0.1-0.1-0.1c0,0,0,0.1,0,0.1c0.1,0.1,0,0.3-0.1,0.3
	c-0.1,0-0.1-0.1-0.1-0.3c0-0.4-0.3-0.8-0.5-0.7c-0.1,0-0.1,0.2,0,0.3c0,0,0.1,0.1,0.1,0.2c0,0.1,0.1,0.3,0.1,0.5
	c0.2,0.4,0.1,0.6-0.1,0.6c-0.1,0-0.1,0-0.1,0c0,0.1,0.2,0.4,0.3,0.5c0.2,0.2,0.3,0.4,0.2,0.6c0,0.1,0,0.2,0,0.3
	C17.3,16.1,17.3,16.1,17.3,16L17.3,16z M18,15.3c0.1-0.2,0.2-0.7,0.2-0.7c-0.1,0-0.3,0.5-0.4,0.7C17.8,15.6,17.9,15.6,18,15.3
	L18,15.3z M16.8,14.5c0.1-0.1,0.1-0.3,0-0.3c0,0-0.2,0.3-0.2,0.4C16.6,14.6,16.7,14.6,16.8,14.5L16.8,14.5z M18.2,13.7
	c0-0.2,0.1-0.4,0.2-0.6c0.1-0.3,0.1-0.3,0-0.5c-0.1-0.2-0.1-0.2,0-0.3c0.2-0.2,0.3-0.5,0.2-0.7c0-0.1-0.1-0.2-0.1-0.2
	c0-0.2-0.1-0.1-0.2,0c0,0.1-0.1,0.2-0.2,0.3c-0.2,0.2-0.3,2.4-0.1,2.3C18.1,14,18.2,13.9,18.2,13.7L18.2,13.7z M16.2,13.6
	c0-0.1-0.1-0.3-0.2-0.3c-0.1,0-0.1,0,0,0.2C16.1,13.7,16.2,13.8,16.2,13.6L16.2,13.6z M19,12.8c0.1-0.2,0.2-0.4,0.3-0.4
	c0.1-0.1,0.1-0.1,0-0.3c-0.1-0.1-0.1-0.1-0.1-0.2c0-0.1-0.1,0-0.2,0.1c-0.2,0.4-0.3,0.7-0.2,0.8C18.8,13.1,18.8,13.1,19,12.8
	L19,12.8z M16.6,12.7c0-0.2,0-0.2,0.1-0.3c0.2-0.2-0.1-1-0.3-0.9c-0.1,0-0.1,0.2,0,0.4c0.1,0.2,0.1,0.2,0.1,0.3
	c-0.1,0.2,0,0.5,0,0.6C16.6,12.9,16.7,12.9,16.6,12.7L16.6,12.7z M17.3,12.4c0-0.4-0.1-0.5-0.2-0.4c0,0-0.1,0.1-0.1,0.2
	s0,0.2-0.1,0.2c-0.1,0.2-0.1,0.2,0.1,0.3C17.3,12.8,17.3,12.8,17.3,12.4z M17.8,12.2c0-0.3,0.1-0.6,0.1-0.7c0.1-0.2,0-0.4-0.1-0.4
	c-0.1,0-0.2-0.1-0.2-0.5c0-0.3,0-0.4-0.1-0.4c-0.1,0-0.2-0.1-0.3-0.3c-0.1-0.3-0.2-0.2-0.2,0.2c0,0.2,0,0.5,0,0.6
	c0,0.2,0.2,0.7,0.2,0.7c0,0,0-0.2,0-0.4c0-0.3,0-0.5,0.1-0.4c0.1,0.1,0.2,0.9,0.3,1.6C17.7,13,17.8,13,17.8,12.2L17.8,12.2z
	 M14,12.4c0-0.1,0.1-0.3,0.1-0.5c0-0.2,0.1-0.5,0.1-0.7c0.1-0.5-0.1-0.9-0.2-0.5c0,0.1-0.1,0.2-0.1,0.4c-0.3,0.9-0.3,1-0.2,1.1
	c0.1,0,0.1,0.1,0.1,0.2C13.8,12.6,13.9,12.6,14,12.4L14,12.4z M12.1,11.6c-0.1-0.2-0.2-0.5-0.3-0.7l-0.2-0.4l-0.2,0
	c-0.2,0-0.2,0.1-0.1,0.2c0,0.1,0.1,0.2,0.1,0.3c0,0.1,0.2,0.2,0.3,0.4c0.1,0.1,0.2,0.3,0.2,0.3c0,0.1,0.2,0.3,0.2,0.3
	C12.2,11.9,12.1,11.7,12.1,11.6L12.1,11.6z M13.3,11.4c0-0.1,0-0.2-0.1-0.2c-0.1,0-0.1-0.1-0.1-0.2c0-0.1,0-0.2-0.1-0.2
	c0,0-0.1-0.2-0.1-0.5c0-0.2,0-0.5-0.1-0.6c0-0.1-0.1-0.2-0.1-0.3c0-0.1-0.1-0.2-0.1-0.3c-0.1-0.1-0.1-0.2-0.1-0.4
	c0-0.2-0.1-0.3-0.1-0.4c-0.1-0.1-0.2,0-0.2,0.1c0.1,0.5,0.1,0.6,0.3,0.8c0.2,0.2,0.2,0.2,0.2,0.5c0,0.2,0,0.4,0,0.4
	c0,0.1,0,0.2-0.1,0.3c-0.1,0.2-0.1,0.2,0.1,0.5c0.1,0.2,0.3,0.3,0.3,0.4C13.2,11.7,13.3,11.6,13.3,11.4L13.3,11.4z M13.7,10.5
	c0.1-0.4,0.1-0.5,0-0.4c-0.2,0.1-0.3,0.6-0.2,0.7C13.5,11,13.6,10.8,13.7,10.5L13.7,10.5z M15,10.1c0.1-0.1,0-0.2-0.1-0.1
	c-0.1,0.1-0.2,0.1-0.1-0.1c0.1-0.2-0.2-0.1-0.3,0.2C14.3,10.7,14.7,10.7,15,10.1L15,10.1z M12.4,10.4c0-0.1-0.1-0.3-0.1-0.4
	c-0.1-0.3-0.1-0.3-0.2-0.1C12,10,12,10,12.1,10.2C12.3,10.5,12.4,10.6,12.4,10.4z M11.5,9.9c0-0.1,0-0.2,0-0.2c0-0.1-0.2,0-0.2,0
	c0,0.1,0.1,0.4,0.2,0.4C11.5,10.1,11.5,10,11.5,9.9L11.5,9.9z M13.4,9.8c0-0.1,0.1-0.3,0.1-0.3c0.1-0.1,0.3-0.8,0.3-0.9
	c0-0.2-0.4,0.4-0.5,0.7l0,0.1l-0.1-0.1c-0.2-0.2-0.3,0.1-0.1,0.4c0,0.1,0.1,0.1,0.1,0.2C13.2,10.1,13.3,10.1,13.4,9.8L13.4,9.8z
	 M17.6,7.9c0-0.1,0-0.3-0.1-0.5c-0.1-0.3,0-0.4,0.1-0.4c0.1,0,0.2-0.2,0.1-0.3c-0.1-0.2-0.1-0.2-0.2-0.1c-0.1,0.2-0.3,0.1-0.3-0.2
	c0-0.1-0.1-0.1-0.1-0.1c0,0,0,0,0,0.1c0,0,0,0.1,0.1,0.2c0,0.1,0.1,0.2,0.1,0.3c0.1,0.2-0.1,0.3-0.2,0.1c-0.2-0.3-0.3-0.2-0.3,0.1
	c0,0.4,0.3,0.7,0.3,0.5c0.1-0.2,0.3,0,0.3,0.3c0,0.1,0,0.2,0.1,0.2C17.6,8.1,17.6,8,17.6,7.9L17.6,7.9z M13.7,7.8
	c0,0,0.1-0.2,0.1-0.4C14,7,14,6.8,13.8,6.8c-0.2,0-0.2-0.1,0-0.5c0.3-0.6,0.3-0.7,0.2-0.9c-0.2-0.3-0.3-0.1-0.4,0.5
	c0,0.2-0.1,0.5-0.1,0.7c-0.1,0.2-0.1,0.3,0,0.7c0,0.3,0,0.5,0,0.5C13.5,7.9,13.7,7.9,13.7,7.8L13.7,7.8z M14.4,7.6
	c0.1-0.2,0.1-0.4,0-0.4c-0.1,0-0.3,0.3-0.3,0.4C14.2,7.9,14.3,7.9,14.4,7.6L14.4,7.6z M13.2,7.4c0-0.3,0-0.4-0.2-0.2
	c-0.1,0.1-0.2,0.5-0.1,0.6C13.1,7.9,13.2,7.7,13.2,7.4L13.2,7.4z M12.2,7.3c0-0.3-0.1-0.5-0.2-0.5c-0.1,0-0.1,0.2,0.1,0.7
	C12.2,7.8,12.2,7.6,12.2,7.3L12.2,7.3z M12.7,7.3c0-0.3-0.1-0.4-0.3-0.2c-0.1,0.1-0.1,0.1,0,0.2C12.6,7.7,12.7,7.7,12.7,7.3
	L12.7,7.3z M18,7.4c0-0.2,0-0.2-0.1-0.2c-0.1,0-0.1,0.2,0,0.3C17.9,7.6,18,7.6,18,7.4L18,7.4z M18.8,6.7C18.8,6.7,18.8,6.7,18.8,6.7
	c-0.1,0-0.1,0.1-0.1,0.2C18.8,6.9,18.8,6.8,18.8,6.7L18.8,6.7z M13.2,6.5c0-0.7-0.1-0.8-0.3-0.5c-0.1,0.1-0.2,0.2-0.3,0.2
	c-0.1,0.1-0.2,0.2-0.1,0.3c0,0.1,0,0,0.1-0.1c0.1-0.3,0.4-0.1,0.4,0.2c0,0.1,0.1,0.2,0.2,0.2C13.2,6.9,13.3,6.9,13.2,6.5L13.2,6.5z
	 M14.6,6.2c0.1-0.1,0.1-0.2,0-0.2c-0.1-0.1-0.2,0-0.3,0.1C14.3,6.3,14.5,6.4,14.6,6.2L14.6,6.2z M14.6,5.5c0,0,0.1-0.2,0-0.3
	c0-0.1,0-0.3,0-0.3c0-0.1,0-0.1,0-0.1c-0.1,0-0.2,0.6-0.2,0.7C14.5,5.6,14.6,5.6,14.6,5.5L14.6,5.5z M13.1,5.3C13.1,5.2,13,5.1,13,5
	l-0.1-0.1l0,0.2c0,0.2,0.1,0.5,0.1,0.5C13.1,5.5,13.1,5.5,13.1,5.3L13.1,5.3z M13.4,5.3c0-0.1,0-0.3-0.1-0.3c-0.1,0-0.1,0.2,0,0.3
	C13.3,5.4,13.4,5.4,13.4,5.3L13.4,5.3z M13.8,4.6c0.2-0.4,0.3-0.8,0.4-0.9c0-0.1,0.1-0.4,0.1-0.6c0.1-0.3,0.1-0.6,0.2-0.7
	c0.1-0.2,0.1-0.5,0-0.5c-0.1,0-0.2,0.2-0.2,0.6c-0.1,0.4-0.3,1.1-0.4,1.2c-0.1,0.1-0.1,0.1-0.1,0.3c0,0.3-0.1,0.4-0.3,0.4
	c-0.1,0-0.1,0,0,0.1c0,0.1,0.1,0.2,0.1,0.2C13.6,5,13.7,4.9,13.8,4.6L13.8,4.6z M14.6,4.1C14.6,4.1,14.6,4,14.6,4.1
	c-0.1,0-0.1,0.2-0.1,0.3C14.5,4.4,14.6,4.2,14.6,4.1L14.6,4.1z M13.1,3.8c0-0.2-0.1-0.4-0.2-0.4c-0.1,0-0.1,0.2,0,0.4
	C13,4,13.1,4,13.1,3.8L13.1,3.8z M14.9,2.7c0-0.2-0.2-0.1-0.2,0.1l0,0.2l0.1-0.1C14.9,2.8,14.9,2.7,14.9,2.7L14.9,2.7z M5.2,20.2
	c0,0,0-0.2,0.1-0.4c0.1-0.2,0.2-0.4,0.2-0.6c0-0.6,0.2-0.9,0.3-0.5C5.8,19.2,5.3,20.6,5.2,20.2L5.2,20.2z M19.5,10
	c-0.3-0.1-0.3-0.1-0.2-0.5c0-0.2,0-0.3,0-0.4c-0.1-0.1-0.1-0.2,0-0.7c0-0.3,0-0.6,0-0.6c0-0.1,0-0.2,0-0.3c0.4-1,0.5-1.2,0.7-1.2
	c0.1,0,0.1,0.1-0.1,0.3c-0.1,0.2-0.1,0.3,0,0.4c0.1,0.1,0.1,0.1,0.1,0.3c0,0.2,0,0.2,0.1,0.3c0.1,0.1,0.2,0.2,0,0.3
	c0,0-0.1,0.1-0.2,0.3c-0.1,0.1-0.2,0.3-0.2,0.4c-0.1,0.1-0.1,0.6-0.1,0.7c0,0,0.1-0.1,0.3-0.2C20,8.8,20.2,8.8,20.2,9
	c0,0.1,0,0.1,0,0.1c0.1,0.1,0,0.4-0.3,0.7c-0.1,0.1-0.1,0.1-0.2,0.2C19.7,10,19.7,10,19.5,10L19.5,10z M19.6,7.6
	c0.1-0.2,0-0.3-0.1-0.2C19.4,7.5,19.4,7.7,19.6,7.6C19.5,7.7,19.5,7.6,19.6,7.6L19.6,7.6z M18.5,9.8c0-0.1,0-0.2,0-0.5
	c0.1-0.5,0.1-0.5,0-0.6c0,0-0.1,0.1-0.3,0.4c-0.1,0.2-0.2,0.2-0.2,0.1c0,0,0-0.1,0-0.2c0-0.1,0.1-0.2,0.1-0.3c0-0.1,0.1-0.3,0.1-0.3
	c0.1-0.1,0.1-0.2,0.2-0.4c0.1-0.9,0.4-0.1,0.3,0.9c0,0.3,0,0.5,0,0.6C18.9,9.8,18.7,10,18.5,9.8L18.5,9.8z M18.5,3.7
	c0,0-0.1-0.1-0.1-0.1c0,0,0-0.1,0.1-0.2c0.1-0.3,0.2-0.2,0.2,0.1C18.7,3.8,18.6,3.8,18.5,3.7z"/>
</svg>
