<?xml version="1.0" encoding="utf-8"?>
<!-- Generator: Adobe Illustrator 25.4.1, SVG Export Plug-In . SVG Version: 6.00 Build 0)  -->
<svg version="1.1" id="pig" xmlns="http://www.w3.org/2000/svg" xmlns:xlink="http://www.w3.org/1999/xlink" x="0px" y="0px"
	 viewBox="0 0 32 32" style="enable-background:new 0 0 32 32;" xml:space="preserve">
<path d="M29.5,10.8c0.1,0,0.2,0,0.3,0c1.4,0,1.4-0.8,0.9-0.6c-0.2,0.1-0.6,0.1-1,0c0-0.3-0.1-0.7-0.4-1.2c-0.9-1.1-1.4,0.1-1.3,0.6
	c0,0-2.1-2.4-4.7-2.3S19,7.3,17,8s-4.6,0.6-4.5,0.4c0,0,0.8-0.2,1-1.6c0,0,0.3-1.1,0.2-1.3c-0.1-0.3-0.9,0.1-1.5,0.2
	c-0.5,0.2-2.2,0.2-3,1.5c0,0-2.7-0.9-4,0.5c0,0-1.3-1.4-2.2-1.8C2.2,5.6,1.6,5,1.2,4.7c-0.3-0.2-0.3,0.2,0,1S1.1,7.1,1.1,8.1
	c0,0.6,0.6,1.3,1,2c0.3,0.5,0.9,0.4,1.5,0.2c0,0-0.2,0.5-0.2,1.1c-0.4,0.1-0.8,0.2-1.1,0.3c-0.7,0.1-0.2,0.7-0.1,1.2
	c0.1,0.4,0.2,1.3,0.7,1.6c0.4,0.2,1,0.3,1.5,0.3c0.3,0.3,0.6,0.5,1.1,0.6c1.8,0.6,1.7,1.1,2.2,2s1.2,2.1,1.1,3.7
	c-0.1,1.6-0.2,4.3-0.6,5c-0.5,0.7-0.2,0.6,0.3,0.6s0.7-0.1,1-0.1s0.2-0.5,0.2-0.9s0.3,0.2,0.4,0.1c0.1-0.1,0.2-0.5,0.3-1
	c0-0.5-0.2-0.9,0-1.6s0.8-3.9,0.5-4.8c0,0,0.7,0,0.7,0.8s-0.5,2.6-0.5,3s-0.1,2.5-0.2,3.1c-0.1,0.6-0.6,1.6-0.7,1.7
	c-0.1,0.2,0.4,0.4,0.9,0.3c0.6-0.1,0.3-0.3,0.6-0.5c0.2-0.2,0.2,0.1,0.4,0s0.2-0.5,0.4-0.7s0-1,0.4-1.9c0.4-0.8,0.6-2.6,0.9-3.5
	c0.3-0.8,0.8-1.8,1-2.1c0,0,5.4,1.5,8-0.8c0,0,0.7,1.3,1,1.7c0.3,0.3,0.6,2.6,0.5,3.7c-0.2,1.2-0.8,2.6-1.2,3.1
	c-0.4,0.5,0.2,0.5,0.7,0.5c0.6,0,0.9-0.3,1-0.8c0,0,0.3,0.4,0.4,0.2c0.1-0.1,0.3-0.9,0.4-1.2c0.1-0.3,0.2-0.4,0.2-1.3
	s0.1-2.8,0.3-3.3c0.2-0.5-1.1-3-0.6-3.9c0,0,1.7,2.6,1.8,4c0.1,1.5,0.5,1.4,0.8,2.4s0.5,3.2,0.3,3.7c-0.1,0.5,0.8,0.3,1,0.1
	c0.6-0.5,0.7-0.8,0.6-1.2c0,0,0.4-0.1,0.3-0.6s-0.5-1.5-0.7-1.9s-0.2-2.6-0.2-3.2s-0.6-0.8-0.6-1.1c0-0.4,0.3-3.9-0.2-7.6
	C28.9,11.2,29.2,11.1,29.5,10.8z M28.6,9.8c-0.1-0.3-0.1-0.7,0.1-0.7S29,9.5,29,9.8C29,10,28.7,10,28.6,9.8z"/>
</svg>
