<?xml version="1.0" encoding="utf-8"?>
<!-- Generator: Adobe Illustrator 25.4.1, SVG Export Plug-In . SVG Version: 6.00 Build 0)  -->
<svg version="1.1" id="vine" xmlns="http://www.w3.org/2000/svg" xmlns:xlink="http://www.w3.org/1999/xlink" x="0px" y="0px"
	 viewBox="0 0 32 32" style="enable-background:new 0 0 32 32;" xml:space="preserve">
<g>
	<path d="M29.4374,11.6138c-0.0301-0.0435-0.0552-0.0842-0.077-0.1229c-0.2054-0.3653-0.0651-0.5268,0.0127-0.6346
		c0.0043-0.0059,0.0083-0.0116,0.0121-0.0172c0.0014-0.0021,0.0029-0.0043,0.0042-0.0064c0.0045-0.0068,0.0086-0.0135,0.0121-0.02
		c0.0006-0.0012,0.0012-0.0024,0.0018-0.0035c0.0035-0.0069,0.0065-0.0137,0.0085-0.0203c0.0002-0.0007,0.0003-0.0013,0.0005-0.002
		c0.002-0.007,0.0032-0.0139,0.003-0.0208l0,0v0c-0.0006-0.0292-0.0252-0.0553-0.0641-0.0798
		c-0.0849-0.0535-0.2414-0.0995-0.3906-0.1514c-0.0137-0.0048-0.0272-0.0096-0.0406-0.0145
		c-0.0103-0.0037-0.0206-0.0074-0.0307-0.0112c-0.0229-0.0086-0.0451-0.0174-0.0666-0.0265
		c-0.0064-0.0027-0.0124-0.0055-0.0187-0.0083c-0.0166-0.0073-0.0325-0.0148-0.0477-0.0225
		c-0.0063-0.0032-0.0125-0.0063-0.0185-0.0096c-0.0192-0.0104-0.0375-0.021-0.0534-0.0323
		c-0.0003-0.0002-0.0007-0.0004-0.0009-0.0006c-0.0521-0.0368-0.1173-0.0963-0.1672-0.1508
		c-0.0188-0.0206-0.0356-0.0404-0.0484-0.058c-0.015-0.0205-0.0272-0.0375-0.0372-0.0527c-0.0005-0.0007-0.001-0.0015-0.0015-0.0022
		c-0.0004-0.0006-0.0007-0.0011-0.001-0.0017c-0.0431-0.067-0.0393-0.0996-0.016-0.2495c0.011-0.0706,0.019-0.1348,0.022-0.1717
		c0.0014-0.0175,0.0018-0.0295,0.0006-0.032c-0.0028-0.0059-0.0377-0.0098-0.0847-0.0103
		c-0.0157-0.0002-0.0327,0.0001-0.0503,0.0007c-0.019,0.0007-0.0377,0.0003-0.056-0.0012c-0.1101-0.0091-0.206-0.0572-0.2592-0.13
		c-0.0089-0.0121-0.0166-0.025-0.0229-0.0384c-0.0054-0.0113-0.0117-0.0214-0.0184-0.0309
		c-0.0236-0.0333-0.0551-0.0557-0.0931-0.0649c-0.0648-0.0157-0.0749-0.0281-0.0759-0.0937
		c-0.0004-0.0278,0.0141-0.0661,0.0366-0.1055c0.004-0.0069,0.0075-0.0138,0.012-0.0207c0.0009-0.0014,0.0015-0.0028,0.0024-0.0042
		c0.0106-0.0159,0.0226-0.0318,0.0356-0.0469c0.0081-0.0094,0.0154-0.0184,0.022-0.0271c0.0712-0.0939,0.057-0.151-0.0513-0.1832
		c-0.0022-0.0007-0.0041-0.0014-0.0064-0.0021c-0.001-0.0003-0.0023-0.0005-0.0033-0.0008
		c-0.0413-0.0111-0.0947-0.019-0.1613-0.0241c-0.1102-0.0085-0.1783-0.0292-0.192-0.0583c-0.0071-0.015-0.0207-0.0252-0.0408-0.0307
		c-0.0201-0.0055-0.0465-0.0062-0.0793-0.0022c-0.0807,0.01-0.1044,0.0002-0.1301-0.0541c-0.0173-0.0365-0.0492-0.0727-0.071-0.0805
		c-0.0188-0.0067-0.0134-0.0362,0.0124-0.0839c0.0305-0.0564,0.09-0.1386,0.1781-0.2442c0.119-0.1426,0.0857-0.1809-0.1629-0.1868
		c-0.018-0.0004-0.0346-0.0011-0.0505-0.0019C27.12,8.165,27.116,8.1648,27.112,8.1645c-0.0115-0.0006-0.0223-0.0014-0.0327-0.0023
		c-0.0042-0.0004-0.0086-0.0007-0.0127-0.0011c-0.0119-0.0011-0.023-0.0025-0.0336-0.004
		c-0.0056-0.0008-0.0107-0.0017-0.0159-0.0026c-0.005-0.0009-0.0099-0.0018-0.0146-0.0027
		c-0.0058-0.0012-0.0115-0.0024-0.0169-0.0037c-0.0027-0.0007-0.0052-0.0015-0.0079-0.0022
		c-0.0112-0.0031-0.0215-0.0065-0.0309-0.0104c-0.021-0.0087-0.0385-0.0192-0.0533-0.0325
		c-0.0181-0.0162-0.046-0.0321-0.0765-0.0447c-0.0076-0.0031-0.0154-0.0061-0.0232-0.0088
		c-0.0234-0.0081-0.0472-0.0138-0.0683-0.016c-0.0499-0.0052-0.0754-0.0083-0.0871-0.0199
		c-0.0116-0.0116-0.0095-0.0317-0.0041-0.0708c0.0138-0.0995-0.0289-0.1445-0.1515-0.1605
		c-0.0025-0.0003-0.0045-0.0008-0.0071-0.0011c-0.1588-0.0186-0.195-0.1051-0.1067-0.255c0.101-0.1715,0.2018-0.3008,0.3214-0.4124
		c0.1224-0.1142,0.3012-0.3824,0.2581-0.3872c-0.0038-0.0004-0.009-0.0006-0.0154-0.0005
		c-0.0278,0.0003-0.0786,0.0052-0.1392,0.0128c-0.1472,0.0183-0.3543,0.0525-0.4447,0.0764
		c-0.0259,0.0069-0.0495,0.0127-0.0719,0.018c-0.0131,0.0031-0.0257,0.0059-0.0377,0.0085
		c-0.0301,0.0064-0.057,0.0111-0.0808,0.0139c-0.0058,0.0007-0.0115,0.0013-0.0169,0.0018
		c-0.0886,0.0077-0.1336-0.0131-0.1633-0.0678c0,0,0,0,0,0c-0.0065-0.012-0.0123-0.0255-0.0177-0.0408c0,0,0,0,0-0.0001
		c-0.0031-0.0089-0.0063-0.0166-0.0096-0.0234c-0.0092-0.0191-0.0193-0.03-0.0327-0.033c-0.0182-0.0041-0.0423,0.006-0.0783,0.0291
		c-0.0253,0.0162-0.0767,0.0293-0.1275,0.0363c-0.0645,0.0089-0.128,0.0081-0.1358-0.0083
		c-0.002-0.0041-0.0035-0.0101-0.0046-0.0174c-0.0014-0.0092-0.0018-0.0207-0.0017-0.0328
		c0.0001-0.0167,0.0013-0.0349,0.0043-0.0522c0.0045-0.0266,0.0027-0.0527-0.0031-0.0704c-0.0029-0.0087-0.0064-0.016-0.0112-0.0191
		c-0.0067-0.0043-0.035,0.0024-0.0755,0.0164c-0.0087,0.003-0.0178,0.0063-0.0276,0.01c-0.0458,0.0172-0.1022,0.0411-0.1621,0.0695
		c-0.206,0.0977-0.2476,0.1094-0.3045,0.0858c-0.0278-0.0115-0.0483-0.0315-0.0623-0.0552c-0.0294-0.05-0.027-0.118,0.0162-0.1692
		c0.0881-0.1044,0.0107-0.1031-0.2559,0.0042c-0.1071,0.0431-0.221,0.0967-0.3432,0.1606
		c-0.1705,0.0892-0.3577,0.1992-0.5693,0.3351c-0.1269,0.0815-0.2242,0.1298-0.3238,0.1562
		c-0.0597,0.0158-0.1203,0.0238-0.1886,0.0264c-0.1126,0.0042-0.1597-0.0116-0.1806-0.0822
		c-0.0069-0.0236-0.0109-0.0532-0.0135-0.0902c-0.0023-0.034-0.004-0.0596-0.0011-0.0816c0.0087-0.0661,0.0589-0.1008,0.2584-0.2383
		c0.2363-0.1629,0.3951-0.2434,0.5111-0.2592c0.028-0.0038,0.0872-0.0209,0.154-0.0436c0.0401-0.0136,0.083-0.0293,0.1234-0.0453
		c0.1612-0.0639,0.1899-0.0776,0.1916-0.1208c0-0.0008,0.0001-0.0016,0.0002-0.0024c0-0.0003,0-0.0006,0-0.0008
		c0.0001-0.0062-0.0003-0.0131-0.0009-0.0208c-0.002-0.0246,0.0079-0.0533,0.0255-0.0823c0.0122-0.0201,0.0276-0.0403,0.0477-0.0593
		c0.0432-0.041,0.0947-0.1008,0.1145-0.133c0.0156-0.0253,0.0713-0.0677,0.1427-0.1101c0.0238-0.0141,0.0493-0.0283,0.0757-0.0418
		c0.1024-0.0525,0.1643-0.0931,0.1899-0.1274c0.0128-0.0172,0.0165-0.0327,0.0117-0.0475
		c-0.0048-0.0147-0.0182-0.0286-0.0396-0.0423c-0.0572-0.0366-0.0836-0.095-0.0845-0.1545
		c-0.0011-0.075,0.0391-0.1521,0.1198-0.1906c0.0447-0.0213,0.0657-0.0571,0.0704-0.1201c0.0004-0.0057,0.0015-0.0124,0.003-0.0195
		c0.0006-0.0026,0.0013-0.0055,0.002-0.0083c0.001-0.0043,0.0022-0.0086,0.0035-0.0133c0.0016-0.0053,0.0033-0.0108,0.0052-0.0166
		c0.0005-0.0015,0.001-0.003,0.0015-0.0044c0.0136-0.0395,0.035-0.0871,0.0595-0.1321l0,0
		c-0.0003,0.0003-0.0006,0.0005-0.0009,0.0008c0.0085-0.0156,0.0172-0.031,0.0263-0.0455c0.036-0.0576,0.0701-0.1272,0.09-0.1807
		c0.0084-0.0227,0.0146-0.0428,0.0167-0.0574c0.0244-0.1628,0.1039-0.3481,0.1766-0.4119c0.0368-0.0323,0.0534-0.0535,0.0553-0.0809
		c0.0001-0.0009,0.0004-0.0016,0.0004-0.0025c0-0.0004-0.0001-0.0008-0.0001-0.0012c0.0003-0.017-0.0047-0.0365-0.0141-0.0626
		c-0.0373-0.1035-0.0125-0.1337,0.3833-0.4646c0.0311-0.026,0.0624-0.0528,0.0933-0.0794c0.1267-0.1093,0.2436-0.2168,0.2823-0.2607
		c0.0481-0.0545,0.1239-0.1256,0.1686-0.1579c0.1365-0.0987,0.3968-0.4765,0.3689-0.5354c-0.0098-0.0207-0.0449-0.0369-0.096-0.0488
		c-0.0093-0.0022-0.0193-0.0041-0.0297-0.006c-0.0136-0.0025-0.0278-0.0047-0.043-0.0066c-0.1794-0.023-0.4639-0.0103-0.6765,0.0426
		c-0.0305,0.0076-0.0798,0.0179-0.1308,0.0275c-0.0349,0.0066-0.0706,0.0129-0.1016,0.0179
		c-0.3112,0.0496-0.4087,0.0602-0.4575,0.0392c-0.0103-0.0045-0.0186-0.0103-0.0262-0.0175
		c-0.0125-0.012-0.0249-0.0205-0.0382-0.0266c-0.0022-0.001-0.0042-0.0025-0.0064-0.0034c-0.0014-0.0005-0.003-0.0005-0.0044-0.001
		c-0.0067-0.0021-0.0134-0.004-0.0209-0.0047c-0.0153-0.0014-0.0333,0.001-0.0538,0.0059
		c-0.0039,0.0009-0.0071,0.0012-0.0112,0.0024c-0.0069,0.0019-0.0152,0.0051-0.0229,0.0077
		c-0.0067,0.0023-0.0127,0.0039-0.02,0.0067c-0.0054,0.0021-0.0121,0.0051-0.0179,0.0074
		c-0.0278,0.0112-0.0589,0.0249-0.0968,0.0429c-0.0731,0.0347-0.1234,0.0526-0.171,0.0584
		c-0.0298,0.0036-0.0585,0.0025-0.0912-0.0024c-0.133-0.02-0.1694-0.0696-0.1647-0.224c0.0011-0.0362-0.0016-0.0707-0.0066-0.0961
		c-0.004-0.0202-0.0094-0.0347-0.0157-0.0388c0,0,0,0,0,0c0,0,0,0,0,0c-0.0326-0.0211-0.2089,0.0883-0.3307,0.2053
		c-0.1211,0.1163-0.2549,0.1873-0.3997,0.2121L23.6239,2.777l-0.0657,0.0112L23.551,2.7895l-0.0619-0.1305
		c-0.0294-0.0619-0.0536-0.1007-0.0798-0.1162c-0.0175-0.0103-0.0358-0.0104-0.057-0.0001
		c-0.0045,0.0022-0.0092,0.0051-0.014,0.0082c-0.0009,0.0006-0.0016,0.0009-0.0025,0.0015
		c-0.0285,0.0193-0.0624,0.0547-0.1057,0.1062c-0.0445,0.0529-0.0837,0.0947-0.1188,0.1277
		c-0.0691,0.065-0.1208,0.0927-0.1544,0.081c-0.0072-0.0025-0.0136-0.0068-0.0193-0.0129c-0.0196-0.0212-0.055-0.0529-0.0785-0.0703
		c-0.0177-0.0131-0.0315-0.0258-0.0417-0.04c-0.0006-0.0008-0.0009-0.0017-0.0014-0.0025
		c-0.0288-0.0422-0.0268-0.0976-0.0019-0.2148c0.0335-0.1578,0.026-0.2654-0.0217-0.3109
		c-0.0225-0.0214-0.0635-0.0032-0.2184,0.0972c-0.0319,0.0207-0.0686,0.0425-0.1063,0.0638
		c-0.0675,0.0381-0.1383,0.0741-0.1941,0.0984c-0.0156,0.0068-0.0303,0.0129-0.043,0.0176l-0.045,0.0165l-0.0299,0.011
		L22.0783,2.549l-0.0235-0.0415l-0.0001-0.0001l-0.0333-0.059l-0.0402-0.0711l-0.0166-0.0295l0,0v0l0,0l0,0l-0.0353,0.0214
		L21.82,2.4353c-0.1043,0.0632-0.1632,0.0864-0.2063,0.0597c-0.0335-0.0207-0.0574-0.0717-0.0857-0.1574
		c-0.0089-0.027-0.017-0.0565-0.0237-0.0852c-0.0121-0.0516-0.0196-0.1003-0.0185-0.1265c0.0011-0.0263,0.0044-0.093,0.0084-0.1708
		c0.0022-0.0426,0.0046-0.0884,0.007-0.133c0.0014-0.0263,0.0023-0.0519,0.0029-0.0772c0.0001-0.0045,0.0002-0.009,0.0003-0.0135
		c0.0005-0.0254,0.0007-0.0502,0.0004-0.0742c0-0.0007,0-0.0013,0-0.002c-0.0022-0.1937-0.0281-0.3403-0.0676-0.3664
		c-0.0034-0.0022-0.0068-0.0036-0.0104-0.004c-0.0929-0.0115-0.1806,0.0791-0.404,0.4169
		c-0.0293,0.0444-0.0653,0.0906-0.1048,0.1364c-0.085,0.0986-0.1879,0.1953-0.2869,0.2666
		c-0.0294,0.0212-0.0681,0.0583-0.0859,0.0823c-0.0475,0.0643-0.0928,0.079-0.1344,0.0439c-0.0059-0.005-0.0118-0.011-0.0176-0.0181
		c-0.0061-0.0074-0.0122-0.0144-0.018-0.0206c-0.0115-0.0124-0.0218-0.0218-0.0285-0.0262
		c-0.0034-0.0022-0.0058-0.0031-0.0071-0.0025c-0.0051,0.0024-0.0412,0.0661-0.0801,0.1416
		c-0.1549,0.3004-0.3146,0.4183-0.5172,0.3823c-0.0387-0.0069-0.0684-0.0103-0.088-0.0103
		c-0.0196-0.0001-0.0292,0.0032-0.0279,0.0097c0.0009,0.0043,0.0067,0.0101,0.0177,0.0172c0.023,0.0149,0.0358,0.0408,0.0388,0.0752
		c0.0049,0.0574-0.0175,0.1385-0.0664,0.2319c-0.0988,0.1886-0.1789,0.2639-0.2294,0.2157
		c-0.0131-0.0125-0.0236-0.0282-0.0287-0.0412c-0.0024-0.006-0.0039-0.0116-0.0035-0.0157c0.0046-0.0415-0.0654-0.286-0.1275-0.4518
		c-0.0046-0.0123-0.0092-0.0241-0.0136-0.0355c-0.0018-0.0044-0.0035-0.0091-0.0053-0.0134
		c-0.0021-0.0051-0.0041-0.0107-0.0062-0.0161c-0.0299-0.077-0.059-0.1767-0.0716-0.2447c-0.0019-0.0104-0.0035-0.02-0.0046-0.0287
		c-0.0088-0.0694-0.0347-0.1845-0.0576-0.2558c-0.017-0.053-0.0301-0.159-0.0344-0.2645c-0.0015-0.0364-0.0019-0.0728-0.001-0.1069
		c0.0012-0.0482,0.0018-0.087,0.0014-0.12c-0.0016-0.1172-0.0171-0.1568-0.0703-0.2417c-0.031-0.0495-0.0482-0.0801-0.0553-0.1079
		C18.9,1.2481,18.9072,1.2176,18.9266,1.161c0.0385-0.112,0.0376-0.1421-0.0047-0.1572l0,0
		c-0.0037-0.0013-0.0073-0.002-0.011-0.0027c-0.0057-0.0011-0.0113-0.0016-0.017-0.0008c-0.0045,0.0006-0.009,0.002-0.0136,0.0039
		c-0.0013,0.0005-0.0026,0.0014-0.004,0.002c-0.0032,0.0016-0.0065,0.0034-0.0098,0.0056
		c-0.0018,0.0012-0.0036,0.0027-0.0054,0.0042c-0.003,0.0023-0.006,0.0049-0.0091,0.0078c-0.002,0.0019-0.0041,0.0041-0.0062,0.0063
		c-0.003,0.0032-0.0061,0.0067-0.0092,0.0104c-0.0022,0.0027-0.0045,0.0054-0.0068,0.0084
		c-0.0032,0.0042-0.0066,0.0088-0.0099,0.0136c-0.0024,0.0034-0.0047,0.0066-0.0071,0.0103
		c-0.0037,0.0055-0.0075,0.0117-0.0114,0.018c-0.0023,0.0038-0.0046,0.0073-0.007,0.0113c-0.0054,0.0091-0.011,0.0191-0.0168,0.0296
		c-0.0022,0.004-0.0045,0.0082-0.0068,0.0125c-0.0057,0.0107-0.0116,0.0218-0.0178,0.034c-0.0031,0.006-0.0064,0.0128-0.0096,0.0192
		c-0.0047,0.0094-0.0094,0.0189-0.0144,0.0291c-0.0037,0.0076-0.0076,0.0158-0.0114,0.0238
		c-0.0049,0.0104-0.0099,0.0209-0.0151,0.0321c-0.004,0.0087-0.0082,0.0178-0.0125,0.0269
		c-0.0054,0.0117-0.0109,0.0238-0.0165,0.0362c-0.0045,0.01-0.0091,0.0201-0.0138,0.0306c-0.006,0.0133-0.0122,0.0274-0.0185,0.0415
		c-0.0047,0.0106-0.0093,0.021-0.0142,0.0321c-0.0072,0.0163-0.0147,0.0337-0.0223,0.0511
		c-0.0046,0.0105-0.009,0.0205-0.0137,0.0314c-0.0094,0.0217-0.0193,0.0448-0.0294,0.0682
		c-0.0031,0.0073-0.006,0.0139-0.0092,0.0214c-0.0001,0.0002-0.0002,0.0003-0.0002,0.0005c-0.0107,0.0249-0.022,0.0494-0.0337,0.073
		c-0.0201,0.0406-0.0415,0.0789-0.0632,0.1138c-0.0692,0.1115-0.1421,0.1883-0.1897,0.1919
		c-0.0122,0.0009-0.0288-0.0056-0.0457-0.0167c-0.0175-0.0115-0.0354-0.0279-0.0493-0.0466
		c-0.0356-0.0478-0.0576-0.0642-0.071-0.0498c-0.0096,0.0103-0.0149,0.0357-0.017,0.0788c-0.0033,0.0671-0.0262,0.137-0.0582,0.1921
		c-0.028,0.0483-0.0629,0.0853-0.0984,0.0973c-0.0189,0.0064-0.0368,0.0083-0.0561,0.0048
		c-0.0322-0.0058-0.0681-0.0264-0.1184-0.0656c-0.042-0.0326-0.085-0.0576-0.1124-0.0666
		c-0.0015-0.0005-0.0033-0.0013-0.0047-0.0017c-0.0011-0.0003-0.0019-0.0003-0.0029-0.0006
		c-0.0032-0.0008-0.0064-0.0015-0.009-0.0017c-0.0034-0.0002-0.0061,0.0002-0.0082,0.0011
		c-0.0164,0.0078-0.0384,0.1257-0.049,0.2621c-0.019,0.2464-0.0198,0.2483-0.1214,0.3013
		c-0.0237,0.0124-0.0423,0.0216-0.0579,0.0275c-0.0468,0.0178-0.0666,0.0057-0.1178-0.0404
		c-0.0164-0.0148-0.0339-0.0342-0.0506-0.0545c-0.0244-0.0297-0.0466-0.0614-0.058-0.0856
		c-0.0107-0.0225-0.0208-0.037-0.0312-0.0466c-0.0017-0.0016-0.0034-0.0043-0.0051-0.0056
		c-0.002-0.0015-0.0042-0.0014-0.0063-0.0024c-0.0041-0.002-0.0082-0.0045-0.0125-0.0048
		c-0.0065-0.0004-0.0132,0.0011-0.0204,0.0045c-0.0663,0.0314-0.2517,0.6427-0.2453,0.8088
		c0.0023,0.0598-0.0073,0.0892-0.0365,0.0943c-0.0203,0.0036-0.0498-0.0042-0.0925-0.0229
		c-0.0499-0.0219-0.0784-0.0281-0.0896-0.0127c-0.0112,0.0153-0.0053,0.0523,0.0135,0.1167
		c0.0162,0.0556,0.0168,0.1318,0.0013,0.1692c-0.0001,0.0003-0.0002,0.0005-0.0003,0.0008c-0.008,0.0006-0.0161,0.0011-0.024,0.0021
		c-0.0437,0.0054-0.0867,0.0166-0.1307,0.0199c-0.001,0.0001-0.0018,0.0001-0.0028,0.0002
		C16.4241,3.634,16.35,3.5916,16.2919,3.5511c-0.0856-0.0596-0.1335-0.081-0.1589-0.0643c-0.0012,0.0008-0.0029,0.0008-0.004,0.0018
		c-0.0146,0.0129-0.0203,0.0413-0.0206,0.0855c-0.0004,0.0497-0.0007,0.0956-0.0011,0.1388
		c-0.1295,0.0424-0.2646,0.0815-0.3967,0.0986c-0.0435,0.0056-0.0885-0.0018-0.1316,0.0066
		c-0.042,0.0082-0.0808,0.0286-0.1212,0.0429c-0.2446,0.1102,0.0139,0.0072-0.2452,0.0698
		c-0.0407,0.0098-0.0781,0.0307-0.1183,0.0425c-0.0399,0.0117-0.0824,0.0142-0.1216,0.028c-0.0774,0.0272-0.1437,0.081-0.223,0.104
		c-0.0436-0.002-0.0884-0.0165-0.1308-0.0061c-0.0389,0.0095-0.067,0.0441-0.1022,0.0632
		c-0.0339,0.0184-0.0689,0.0349-0.1047,0.0493c-0.035,0.0142-0.0755,0.0161-0.1073,0.0364
		c-0.0326,0.0208-0.046,0.0662-0.0806,0.0835c-0.033,0.0164-0.0732,0.0075-0.1098,0.0113c-0.0265,0.0216-0.0503,0.047-0.0795,0.0649
		c-0.2703,0.1662,0.0868-0.0887-0.1723,0.0856c-0.0288,0.0194-0.1127,0.0949-0.1448,0.1111
		c-0.0271,0.0137-0.0579,0.0182-0.0868,0.0273c-0.0298,0.0058-0.0621,0.0041-0.0894,0.0174
		c-0.0255,0.0123-0.0417,0.0383-0.0633,0.0566c-0.0207,0.0176-0.0417,0.0348-0.0634,0.0511
		c-0.0205,0.0153-0.0422,0.0289-0.0634,0.0434c-0.0231,0.0109-0.0484,0.018-0.0693,0.0327
		c-0.021,0.0148-0.0363,0.0364-0.0545,0.0546c-0.1525,0.0391-0.0112-0.0128-0.1247,0.076c-0.0184,0.0144-0.0426,0.0193-0.063,0.0306
		c-0.0618,0.034-0.1169,0.0803-0.1872,0.0971c-0.0566,0.0582-0.0352,0.0463-0.1075,0.0815
		c-0.0199,0.0097-0.0429,0.0136-0.0607,0.0267c-0.0532,0.0392-0.0685,0.1087-0.1476,0.1103
		c-0.0103,0.0062-0.0879,0.0531-0.1007,0.0581c-0.0179,0.007-0.0385,0.0055-0.0559,0.0136c-0.0527,0.0246-0.08,0.0817-0.1475,0.0728
		c-0.0895,0.116,0.0276-0.0061-0.1022,0.0309C12.1126,5.4903,12.1109,5.5183,12.096,5.53c-0.013,0.0103-0.0309,0.0117-0.0459,0.0186
		c-0.0678,0.031-0.0213,0.0255-0.1024,0.0165c-0.0197,0.0243-0.0386,0.0617-0.0776,0.0608
		C11.8506,5.6254,11.834,5.602,11.815,5.6063c-0.0167,0.0038-0.0169,0.0331-0.0328,0.0394
		c-0.1105,0.0438,0.0015-0.0683-0.0819,0.0307c-0.025,0.0226-0.0363,0.0337-0.0408,0.0384
		c0.0093-0.0107,0.0357-0.0472-0.0458-0.0228c-0.0179,0.0054-0.0197,0.0338-0.0359,0.0431
		c-0.0474,0.0273-0.0998-0.0346-0.1356,0.0244c-0.0604,0.0176-0.0288,0.0169-0.0949-0.0034
		C11.331,5.758,11.322,5.7794,11.306,5.7829c-0.015,0.0032-0.03-0.0091-0.0453-0.0084c-0.015,0.0007-0.0288,0.0084-0.0432,0.0126
		c-0.0143-0.0004-0.0286-0.0007-0.0428-0.0011c-0.0246,0.0144-0.0382,0.0228-0.0455,0.0274
		c0.0149-0.0112,0.0418-0.0368-0.0431-0.0204c-0.0163,0.0032-0.0207,0.0296-0.0369,0.0334
		c-0.0142,0.0034-0.0269-0.0175-0.0413-0.0149c-0.0155,0.0028-0.0249,0.0193-0.0374,0.029
		c-0.013,0.0002-0.0261,0.0005-0.0391,0.0007c-0.0139,0.0019-0.0278,0.0055-0.0418,0.0056
		c-0.0143,0.0001-0.0288-0.0087-0.0425-0.0048c-0.015,0.0043-0.0228,0.0234-0.0378,0.0277
		c-0.0134,0.0038-0.0277-0.0065-0.0416-0.0051c-0.0135,0.0013-0.0256,0.0087-0.0385,0.013c-0.013,0.0005-0.0261,0.001-0.0391,0.0015
		c-0.0133-0.0044-0.026-0.0132-0.04-0.0132c-0.0364-0.0001-0.0715,0.0451-0.1086,0.0392c-0.0144-0.0023-0.024-0.0176-0.0379-0.0219
		c-0.0114-0.0035-0.0239-0.0005-0.0358-0.0007c-0.0135,0.0106-0.0444,0.0399-0.066,0.0386
		c-0.0456-0.0027-0.0621-0.0581-0.134-0.0174c-0.0112,0.0018-0.0231,0.001-0.0335,0.0056c-0.0126,0.0055-0.02,0.0258-0.0337,0.024
		c-0.015-0.002-0.0164-0.033-0.0315-0.0326c-0.0144,0.0004-0.012,0.0325-0.0264,0.0344c-0.0135,0.0017-0.0204-0.018-0.0306-0.027
		c-0.0093,0.0029-0.0186,0.0059-0.0278,0.0088c-0.0186,0.0037-0.0292,0.0061-0.035,0.0075
		c0.0109-0.0034,0.0287-0.0116-0.0238-0.0156c-0.0183-0.0014-0.0328,0.0197-0.0511,0.0203
		C9.9642,5.9295,9.9548,5.9199,9.9446,5.9213C9.9368,5.9224,9.932,5.931,9.9257,5.9358C9.8885,5.9255,9.8944,5.955,9.8635,5.9451
		C9.8539,5.942,9.8475,5.9317,9.8376,5.9297c-0.019-0.0039-0.0175,0.0059-0.016,0.0099C9.8204,5.9371,9.8164,5.93,9.8043,5.9127
		c-0.0129,0.0102-0.018,0.0146-0.0196,0.0161c0.0038-0.0037,0.0187-0.02-0.0218-0.0076C9.7566,5.923,9.7566,5.9328,9.7516,5.9371
		C9.7398,5.9473,9.7324,5.9394,9.7184,5.9424c-0.0032,0.0007-0.0052,0.004-0.0078,0.006c-0.004-0.001-0.009,0-0.0119-0.0029
		C9.691,5.9378,9.6908,5.9137,9.681,5.9182C9.6704,5.923,9.6819,5.9414,9.6823,5.953C9.6796,5.9488,9.6757,5.9404,9.6738,5.9398
		C9.6645,5.9372,9.6546,5.941,9.6451,5.9416l0,0c-0.7217,0.0266-0.684,1.0472,0.0377,1.0206
		C9.6246,6.9776,9.6968,6.9998,9.6974,6.9996c0.0106-0.0051,0.0118-0.021,0.0208-0.0287c0.0021-0.0018,0.0041,0.0042,0.0068,0.005
		C9.7293,6.9772,9.7339,6.9766,9.7383,6.977c0.0063-0.0036,0.0122-0.0137,0.0188-0.0108C9.765,6.9696,9.7591,6.9879,9.7675,6.9898
		c0.0017,0.0004,0.0293-0.0362,0.0395-0.0237C9.8371,7.0033,9.8024,7.054,9.8392,6.977C9.8909,6.9321,9.8316,6.9701,9.8875,6.986
		c0.0219,0.0062,0.0101-0.0444,0.0403-0.0247c0.0499,0.0325,0.004,0.0716,0.0529,0.0053c0.0573,0.0351,0.0361,0.0184,0.0809-0.0008
		c0.0219-0.0094,0.0599-0.007,0.0835-0.0064c0.0856,0.0198-0.0258,0.0026,0.0625-0.0159c0.1405-0.0294-0.0701,0.0525,0.0694,0.0045
		c0.0107-0.0037,0.0185-0.0199,0.0295-0.0171c0.0158,0.004,0.0238,0.0225,0.0357,0.0337c0.0111-0.0119,0.0176-0.0313,0.0332-0.0358
		c0.013-0.0037,0.0241,0.0134,0.0374,0.0155c0.0606,0.0097,0.016-0.0139,0.0743-0.024c0.0262-0.0045,0.0525,0.0088,0.0789,0.0118
		c0.0432-0.0567,0.0709,0.0005,0.1205-0.0073c0.0147-0.0023,0.024-0.0189,0.0382-0.0231c0.0203-0.006,0.0653,0.003,0.0846,0.0059
		c0.0453,0.0063,0.0833-0.028,0.1266-0.0311c0.0151-0.0011,0.03,0.0074,0.0451,0.0057c0.0775-0.0087,0.0506-0.0146,0.0381-0.0164
		c0.0067,0.0007,0.0213,0.0019,0.051,0.004c0.0303-0.0223,0.0653,0.0014,0.0966-0.0065c0.0176-0.0044,0.0299-0.0234,0.0479-0.0262
		c0.0172-0.0027,0.0338,0.0119,0.0511,0.0107c0.0162-0.0011,0.0304-0.0115,0.0457-0.0172c0.0162,0.0003,0.0325,0.0006,0.0487,0.0009
		c0.1237-0.087-0.0321,0.0045,0.1009-0.0178c0.0191-0.0032,0.0293-0.0283,0.0482-0.0323c0.0182-0.0037,0.0363,0.0147,0.0546,0.0112
		c0.0849-0.0161,0.0535-0.0283,0.0391-0.0319c0.0079,0.0015,0.0257,0.0044,0.0625,0.0092c0.004-0.0028,0.087-0.0619,0.0954-0.0628
		c0.0198-0.0019,0.0368,0.0198,0.0567,0.0187c0.0184-0.0011,0.0312-0.0214,0.0493-0.0248c0.0962-0.0188,0.0591,0.0038,0.0524,0.0075
		c0.0028-0.0015,0.0167-0.0086,0.0579-0.0274c0.0676,0.0163,0.1084-0.0409,0.1683-0.0533c0.0206-0.0043,0.0424,0.004,0.0631,0.0002
		c0.0244-0.0045,0.0412-0.0119,0.0567-0.0215c-0.001,0.0019-0.0019,0.0037-0.0029,0.0056
		c-0.0272,0.0527-0.0562,0.1045-0.0849,0.1564C12.1454,6.824,12.1142,6.88,12.0836,6.9362
		c-0.0328,0.0602-0.0644,0.121-0.0954,0.1821c-0.0326,0.0648-0.0616,0.1313-0.0906,0.1978
		c-0.0209,0.0202-0.0366,0.0486-0.0423,0.0869c0,0.0035-0.0015,0.0088-0.0019,0.0104c0,0.0002-0.0053,0.0102-0.0074,0.0138
		c-0.0088,0.0163-0.0197,0.0314-0.0308,0.0462c-0.0186,0.0244-0.0398,0.0466-0.0612,0.0686
		c-0.0324,0.0337-0.0685,0.0634-0.1053,0.092c-0.0547,0.0431-0.114,0.0796-0.1739,0.1149
		c-0.0859,0.0495-0.1757,0.0916-0.2663,0.1315c-0.117,0.0507-0.238,0.0909-0.3597,0.1282c-0.1414,0.043-0.2851,0.0774-0.4299,0.1067
		c-0.1618,0.0325-0.3259,0.0501-0.4905,0.0613C9.7413,8.1884,9.5539,8.1809,9.3672,8.165C9.1649,8.1467,8.9658,8.1055,8.7691,8.0561
		c-0.2024-0.0518-0.3973-0.127-0.5885-0.2103C7.9925,7.7635,7.816,7.6588,7.646,7.5444c-0.128-0.0861-0.2432-0.1878-0.3512-0.297
		C7.3355,7.2234,7.3755,7.1981,7.414,7.1704c0.132-0.0972,0.256-0.2046,0.3625-0.3297c0.1037-0.1229,0.2012-0.2512,0.2798-0.3919
		C8.1301,6.3139,8.196,6.1746,8.2386,6.0264C8.2769,5.892,8.3088,5.7553,8.3156,5.6152c0.004-0.1267-0.0013-0.254-0.0414-0.3754
		c-0.041-0.1109-0.0966-0.214-0.1865-0.2934c-0.084-0.071-0.1763-0.129-0.2832-0.159C7.6962,4.7588,7.5854,4.744,7.4733,4.7567
		c-0.12,0.0161-0.2369,0.0463-0.3445,0.1036C7.016,4.9216,6.9089,4.9929,6.8194,5.086C6.725,5.1864,6.6402,5.2951,6.5748,5.417
		C6.5013,5.5555,6.439,5.7,6.416,5.8564c-0.02,0.1693-0.0148,0.3383,0.0347,0.5029c0.0536,0.1748,0.1252,0.343,0.2179,0.501
		c0.0599,0.1013,0.1238,0.2002,0.1932,0.2951C6.7218,7.2086,6.575,7.237,6.4271,7.2567C6.2685,7.2755,6.1088,7.2729,5.9498,7.263
		C5.7911,7.2529,5.635,7.224,5.4813,7.1845C5.3342,7.1454,5.1942,7.0861,5.0578,7.0195C4.927,6.9554,4.8048,6.8766,4.6866,6.7922
		C4.6343,6.755,4.5847,6.7146,4.5369,6.6721C4.5785,6.6089,4.6145,6.5423,4.639,6.4702c0.0298-0.0863,0.0539-0.1744,0.0685-0.2646
		C4.7219,6.117,4.7332,6.0278,4.7347,5.9379c0.0007-0.0867-0.0028-0.1733-0.0144-0.2593C4.7082,5.5967,4.6931,5.5148,4.664,5.4369
		C4.6354,5.3647,4.601,5.2947,4.5493,5.2358C4.5027,5.1845,4.451,5.1379,4.3886,5.1064C4.3267,5.077,4.2618,5.0559,4.1925,5.0559
		C4.1243,5.057,4.057,5.0668,3.9947,5.0964C3.9284,5.1299,3.8692,5.1733,3.8262,5.2351C3.7814,5.3029,3.7484,5.3764,3.7346,5.4571
		c-0.0153,0.0902-0.0215,0.1816-0.0128,0.273C3.733,5.8366,3.7527,5.942,3.7872,6.0436c0.0411,0.117,0.0906,0.2308,0.1558,0.3367
		c0.0674,0.1091,0.1413,0.2141,0.2277,0.3091c-0.0163,0.016-0.0322,0.0322-0.0488,0.0478C4.0573,6.797,3.9856,6.848,3.9126,6.8969
		C3.8191,6.9582,3.7228,7.0151,3.6272,7.073C3.5137,7.1414,3.4,7.2097,3.287,7.279C3.163,7.3554,3.0417,7.4361,2.9228,7.5204
		c-0.122,0.0869-0.237,0.1828-0.3476,0.2836C2.4633,7.9054,2.3665,8.021,2.2789,8.1436c-0.0892,0.1272-0.154,0.268-0.2088,0.4127
		C2.0142,8.7069,1.9862,8.8642,1.9726,9.0236C1.9588,9.1945,1.9886,9.361,2.0396,9.5233C2.0981,9.6934,2.2042,9.837,2.3217,9.9707
		c0.1191,0.1303,0.2607,0.236,0.4045,0.3372c0.0667,0.0471,0.1356,0.0909,0.2044,0.1347c0.1607,0.1025,0.3056-0.1248,0.1449-0.2273
		c-0.0654-0.0417-0.1309-0.0832-0.1943-0.1279c-0.1266-0.089-0.2519-0.181-0.3575-0.2951c-0.0933-0.105-0.1794-0.2172-0.2274-0.351
		c-0.0417-0.1282-0.0654-0.26-0.0551-0.3955C2.252,8.9113,2.2756,8.7785,2.3224,8.6514c0.0461-0.1232,0.1007-0.2431,0.1761-0.3514
		c0.0761-0.1074,0.1608-0.2082,0.2584-0.2969c0.1023-0.0935,0.2089-0.1822,0.3218-0.2628C3.1926,7.6594,3.309,7.5821,3.4279,7.5088
		C3.5405,7.4397,3.6538,7.3717,3.767,7.3035C3.8661,7.2434,3.966,7.1843,4.063,7.1206c0.0849-0.0571,0.1681-0.117,0.2432-0.1868
		c0.0194-0.0182,0.0386-0.0367,0.0575-0.0554c0.0532,0.047,0.1083,0.0919,0.1664,0.1331c0.1305,0.093,0.2654,0.1797,0.4096,0.2502
		c0.1529,0.0744,0.31,0.1404,0.4748,0.1839C5.5847,7.489,5.7576,7.521,5.9333,7.532c0.1766,0.0107,0.3539,0.0133,0.5298-0.0082
		c0.1718-0.0233,0.3423-0.0569,0.5045-0.1201c0.0248-0.0099,0.0493-0.0205,0.0739-0.031C7.1799,7.5189,7.328,7.6555,7.4957,7.7681
		C7.6793,7.8913,7.87,8.0043,8.0731,8.093c0.2049,0.089,0.4137,0.1694,0.6305,0.2246c0.2109,0.0527,0.4242,0.0967,0.641,0.116
		c0.2003,0.0168,0.4014,0.0247,0.6023,0.0117c0.1763-0.0121,0.3522-0.0311,0.5257-0.0661c0.1533-0.0312,0.3056-0.0675,0.4553-0.1131
		c0.1318-0.0405,0.2627-0.0842,0.3893-0.1392c0.1004-0.0442,0.1998-0.0911,0.2948-0.1461c0.0264-0.0156,0.0524-0.0319,0.0783-0.0483
		c-0.0063,0.0231-0.0131,0.0462-0.0195,0.0693c-0.0222,0.0805-0.0428,0.1614-0.0628,0.2424
		c-0.0214,0.0859-0.0424,0.172-0.0622,0.2583c-0.0204,0.0906-0.0396,0.1815-0.0584,0.2724
		c-0.0186,0.0914-0.0372,0.1827-0.0563,0.274c-0.0192,0.0917-0.0389,0.1833-0.0589,0.2748
		c-0.0206,0.0938-0.0419,0.1875-0.0633,0.2811c-0.0215,0.0942-0.0436,0.1883-0.0659,0.2823
		c-0.0063,0.0273-0.0125,0.0547-0.0187,0.082c-0.0187,0.0502-0.0374,0.1004-0.0566,0.1505
		c-0.0318,0.0822-0.0646,0.1639-0.098,0.2455c-0.0334,0.0831-0.0693,0.1652-0.1053,0.2472
		c-0.0375,0.0848-0.0738,0.1702-0.111,0.2552c-0.0388,0.0878-0.0771,0.1759-0.1139,0.2645
		c-0.0191,0.0448-0.0369,0.0901-0.0541,0.1356c-0.0153-0.0034-0.0311-0.0078-0.0473-0.0131
		c-0.0533-0.0173-0.1135-0.0448-0.1934-0.087c-0.1002-0.0528-0.1751-0.0835-0.219-0.091c-0.0439-0.0075-0.057,0.008-0.0336,0.0477
		c0.0397,0.0675,0.0044,0.176-0.0757,0.2324c-0.0604,0.0425-0.0985,0.0492-0.2601,0.0125c0.0059-0.0115,0.0121-0.0229,0.0177-0.0346
		c0.3621-0.754,0.0443-1.6588-0.7097-2.0208c-0.754-0.3621-1.6588-0.0443-2.0208,0.7097c-0.137,0.2853-0.1765,0.5922-0.132,0.8831
		c-0.023-0.001-0.046-0.0026-0.069-0.0035c-0.1385-0.0049-0.2771-0.0052-0.4156-0.0041c-0.1173-0.7143-0.7605-1.2359-1.4976-1.1866
		c-0.7835,0.0524-1.3763,0.73-1.3239,1.5135c0.034,0.5082,0.3312,0.9359,0.7496,1.1596c-0.3885,0.7603-0.1016,1.6957,0.6532,2.1048
		c0.114,0.0618,0.2323,0.1077,0.3524,0.1392c-0.1043,0.1557-0.1806,0.3337-0.2209,0.5281
		c-0.2816-0.3642-0.7352-0.5841-1.2285-0.5456c-0.7781,0.0607-1.3597,0.7406-1.299,1.5187c0.0538,0.6902,0.595,1.2254,1.2597,1.2952
		c-0.0388,0.0544-0.0748,0.1118-0.1069,0.1726c-0.3871,0.7337-0.1062,1.6424,0.6276,2.0295
		c0.7078,0.3734,1.5781,0.1251,1.9863-0.5515C6.494,19.1986,6.524,19.318,6.5683,19.432c-0.1444,0.0737-0.2845,0.1557-0.423,0.2399
		c-0.0884,0.0551-0.1758,0.1117-0.2627,0.1691c-0.1377,0.0659-0.2633,0.1522-0.3734,0.2547
		c-0.0005,0.0003-0.001,0.0007-0.0015,0.0011c-0.6735-0.4285-1.5717-0.256-2.0363,0.4035
		c-0.4785,0.6792-0.3157,1.6177,0.3636,2.0962c0.5946,0.4188,1.3879,0.3463,1.8973-0.134c0.1051,0.0662,0.2188,0.1197,0.3389,0.1583
		c-0.257,0.1257-0.4794,0.3286-0.6281,0.5981c-0.1249,0.2262-0.1822,0.4713-0.1794,0.7125c-0.6368-0.2541-1.3836-0.026-1.761,0.5754
		c-0.425,0.6772-0.2206,1.5707,0.4565,1.9957c0.0997,0.0626,0.2041,0.1111,0.311,0.1469c-0.0511,0.5576,0.2367,1.115,0.7675,1.3809
		c0.1388,0.0695,0.2836,0.1134,0.4292,0.1343c-0.0264,0.0849-0.0454,0.173-0.0553,0.2641c-0.084,0.7714,0.4878,1.4516,1.2818,1.5342
		c0.0532,0.2811,0.2008,0.546,0.4381,0.743c0.5418,0.4499,1.3458,0.3754,1.7957-0.1664c0.4499-0.5418,0.3755-1.3458-0.1664-1.7957
		c-0.1243-0.1032-0.2626-0.1775-0.407-0.2262c-0.0004-0.0954-0.0107-0.1888-0.0302-0.2792
		c0.1686-0.0336,0.3282-0.0968,0.4725-0.1844c0.1345,0.1061,0.2896,0.1905,0.4622,0.2461c0.777,0.2503,1.6097-0.1767,1.86-0.9537
		c0.2059-0.6392-0.0469-1.3159-0.5755-1.6752c0.0773-0.0671,0.149-0.143,0.2134-0.2278c0.2153-0.2838,0.3141-0.6194,0.3049-0.9498
		c0.1293,0.0775,0.2727,0.1366,0.4275,0.1722c0.7943,0.1829,1.5865-0.3127,1.7694-1.107c0.1829-0.7943-0.3127-1.5865-1.107-1.7694
		c-0.1389-0.032-0.2777-0.0428-0.4133-0.0353c0.036-0.0479,0.0683-0.0973,0.0974-0.148c0.0517-0.0058,0.0762-0.0291,0.1147-0.0991
		c0.0028-0.0051,0.0054-0.0095,0.0084-0.0151c0.0214-0.0402,0.0437-0.0744,0.0668-0.1025c0.0116-0.014,0.0233-0.0265,0.0353-0.0375
		c0.0017-0.0016,0.0035-0.0025,0.0052-0.0041c0.0223-0.0196,0.0452-0.0344,0.0688-0.0434c0.0381-0.0145,0.0779-0.0152,0.1191-0.0018
		c0.0807,0.0262,0.113,0.0098,0.3136-0.1596c0.2623-0.2215,0.306-0.2423,0.4307-0.2054l0.0936,0.0277l0.0619-0.1716
		c0.0254-0.0705,0.0615-0.155,0.091-0.2149c0.0001-0.0003,0.0003-0.0006,0.0004-0.0009c0.0001-0.0001,0.0001-0.0002,0.0002-0.0003
		c0.0098-0.0199,0.0189-0.037,0.0266-0.0499c0.0973-0.163,0.176-0.2895,0.2405-0.3837c0.105,0.0244,0.2134,0.0372,0.3236,0.0384
		c0.0055,0.0277,0.01,0.0528,0.0134,0.0757c0.0179,0.1211,0.0068,0.1884-0.032,0.3311c-0.0332,0.1221-0.0409,0.2126-0.023,0.2735
		c0.0001,0.0002,0.0001,0.0005,0.0001,0.0007c0.0109,0.0366,0.0311,0.0625,0.0606,0.078c0.031,0.0163,0.0533,0.037,0.0666,0.0611
		c0.0223,0.0402,0.0197,0.0898-0.0089,0.1448c-0.0697,0.1339-0.0746,0.1947-0.0096,0.2421c0.0093,0.0068,0.02,0.0133,0.0321,0.0197
		c0.0075,0.0039,0.0147,0.0082,0.0217,0.0128c0.0025,0.0017,0.0049,0.0036,0.0073,0.0053c0.0043,0.0031,0.0088,0.006,0.0129,0.0094
		c0.0433,0.0349,0.0764,0.086,0.1027,0.1608c0.0292,0.083,0.0502,0.1954,0.0672,0.3494c0.0188,0.1704,0.0468,0.2977,0.0816,0.378
		c0.0284,0.0656,0.0612,0.1,0.0974,0.0996c0.0028,0,0.0056-0.0009,0.0084-0.0014c0.003-0.0005,0.006-0.0005,0.0091-0.0015
		c0.0059-0.0018,0.0119-0.0045,0.018-0.0081c0.0058-0.0034,0.0198-0.0194,0.0384-0.043c0.0372-0.0471,0.0943-0.1269,0.1526-0.2143
		c0.0718-0.1077,0.1385-0.1899,0.199-0.2476c0.0711-0.0678,0.1335-0.1012,0.1836-0.0952c0.0066,0.0008,0.014,0.0035,0.0218,0.0079
		c0.0129,0.0072,0.027,0.0196,0.0413,0.0342c0.0463,0.0474,0.0943,0.1253,0.1071,0.1857c0.0177,0.0842,0.0633,0.1032,0.1401,0.0585
		c0.0328-0.0191,0.0576-0.0277,0.0756-0.0246c0.0301,0.0051,0.0416,0.0426,0.0411,0.1174
		c-0.0004,0.0562,0.0271,0.1268,0.0616,0.1577c0.0479,0.043,0.0591,0.1074,0.0483,0.2777c-0.0077,0.122-0.0039,0.2272,0.0086,0.2338
		c0,0,0,0,0,0l0,0c0.0054,0.0029,0.0194-0.0006,0.0378-0.0083c0.0236-0.0098,0.0546-0.0267,0.0858-0.0477
		c0.0555-0.0373,0.1788-0.0937,0.2739-0.1252c0.0775-0.0257,0.1222-0.0384,0.1581-0.0371c0.0009,0,0.0021-0.0002,0.003-0.0001
		c0.0364,0.002,0.064,0.019,0.1084,0.0523c0.0187,0.014,0.0369,0.0249,0.0543,0.0342c0.0275,0.0146,0.0505,0.022,0.0648,0.0204
		c0.0031-0.0003,0.0073,0.0004,0.0094-0.0009c0.0122-0.0072,0.027-0.0106,0.0433-0.0106c0.0048,0,0.0099,0.001,0.015,0.0016
		c0.0035,0.0004,0.0069,0.0004,0.0105,0.0011c0.0226,0.0046,0.0467,0.0155,0.0703,0.0311c0.0954,0.0631,0.18,0.2123,0.1012,0.421
		l-0.097,0.2569h0l0,0l0.1012-0.0701l0.1482-0.1026c0.1682-0.0492,0.2468-0.0085,0.2665,0.138
		c0.0048,0.0355,0.0133,0.0628,0.0252,0.086c0.0019,0.0037,0.0031,0.0084,0.0052,0.0119c0.0039,0.0064,0.0094,0.0113,0.0141,0.0169
		c0.0046,0.0054,0.0083,0.0116,0.0137,0.0164c0.0062,0.0055,0.0143,0.01,0.0217,0.0148c0.0056,0.0036,0.0101,0.0078,0.0164,0.0111
		c0.0637,0.0336,0.0841,0.0745,0.0959,0.1923c0.0056,0.0558,0.0165,0.1083,0.028,0.14c0.0054,0.015,0.011,0.0258,0.0162,0.0293
		c0.0637,0.0427,0.1222,0.0511,0.2037,0.0292c0.0469-0.0126,0.1068-0.0115,0.1331,0.0023c0.0731,0.0385,0.1224,0.5214,0.2388,0.774
		c0.012,0.026,0.0239,0.0445,0.0361,0.0573c0.0847,0.0893,0.176-0.1046,0.3165-0.0155c0.1416,0.0898,0.2061,0.1569,0.326,0.3393
		c0.0822,0.1251-0.1891,0.3622-0.1966,0.3764c-0.0075,0.0142,0.3614-0.0749,0.4134-0.0475
		c0.0894,0.0471,0.4386,0.4454,0.4658,0.5313c0,0.0001,0.0002,0.0003,0.0002,0.0004c0.0013,0.0041,0.0039,0.0097,0.0072,0.0162
		c0.0012,0.0023,0.0028,0.0051,0.0042,0.0076c0.0027,0.005,0.0057,0.0103,0.0093,0.0162c0.002,0.0034,0.0042,0.0069,0.0065,0.0107
		c0.0039,0.0063,0.0081,0.0129,0.0127,0.0199c0.0026,0.004,0.005,0.0078,0.0078,0.012c0.0058,0.0087,0.0121,0.0179,0.0186,0.0273
		c0.0024,0.0035,0.0046,0.0067,0.0071,0.0103c0.0084,0.0119,0.0173,0.0244,0.0266,0.0372c0.0041,0.0057,0.0085,0.0115,0.0128,0.0173
		c0.006,0.0082,0.0121,0.0163,0.0185,0.0247c0.0051,0.0067,0.0102,0.0133,0.0154,0.0201c0.0061,0.008,0.0124,0.0159,0.0187,0.024
		c0.0055,0.007,0.0109,0.0139,0.0165,0.0209c0.0065,0.0081,0.0131,0.0162,0.0198,0.0243c0.007,0.0085,0.0139,0.017,0.021,0.0254
		c0.0097,0.0116,0.0195,0.0231,0.0294,0.0343c0.0061,0.0069,0.0121,0.0135,0.0181,0.0203c0.0062,0.007,0.0124,0.0139,0.0186,0.0206
		c0.0063,0.0069,0.0126,0.0134,0.0188,0.02c0.006,0.0063,0.0119,0.0123,0.0178,0.0183c0.0062,0.0063,0.0123,0.0124,0.0184,0.0183
		c0.006,0.0058,0.0118,0.0111,0.0177,0.0165c0.0057,0.0052,0.0115,0.0107,0.017,0.0155c0.0101,0.0088,0.0199,0.0168,0.0294,0.024
		c0,0,0-0.0001,0-0.0001c0.0358,0.0271,0.0665,0.0419,0.0873,0.0368c0.1504-0.0364,0.0082-0.5723,0.1375-0.9585
		c0.0196-0.0584,0.0399-0.1104,0.0608-0.1578c0.2134-0.4834,0.4876-0.4207,0.6366-0.4316c0.0012-0.0001,0.0025-0.0002,0.0037-0.0003
		c0.0043-0.0004,0.0084-0.0008,0.0124-0.0013c0.0017-0.0002,0.0035-0.0004,0.0052-0.0007c0.0035-0.0005,0.0069-0.0012,0.0102-0.0018
		c0.0019-0.0004,0.0038-0.0007,0.0056-0.0011c0.0031-0.0007,0.006-0.0016,0.0089-0.0025c0.0018-0.0005,0.0036-0.001,0.0054-0.0016
		c0.003-0.0011,0.0057-0.0024,0.0085-0.0036c0.0014-0.0007,0.0029-0.0012,0.0043-0.0019c0.0038-0.002,0.0075-0.0043,0.0108-0.0069
		c0.0001-0.0001,0.0003-0.0002,0.0004-0.0003c0.1266-0.0987-0.17-0.6331-0.1785-0.9293c-0.0029-0.1021,0.0168-0.2578,0.0439-0.346
		c0.0483-0.1576,0.0527-0.1623,0.2457-0.2651c0.0689-0.0367,0.1311-0.072,0.1686-0.0951c0.0214-0.0132,0.0349-0.0226,0.0366-0.0259
		c0.0047-0.009-0.0336-0.0685-0.0852-0.1321c-0.0112-0.0139-0.0211-0.0283-0.0306-0.0428
		c-0.0725-0.1098-0.0977-0.2351-0.0679-0.3379c0.0053-0.0181,0.0119-0.0356,0.0206-0.0521
		c0.0057-0.0108,0.0095-0.0216,0.0133-0.0325c0.0167-0.0472,0.0168-0.0944-0.002-0.138c-0.0305-0.0712-0.026-0.0892,0.0342-0.1358
		c0.0332-0.0257,0.0991-0.0417,0.1717-0.0438c0.0176-0.0005,0.0355-0.0004,0.0535,0.0008c0.122,0.0084,0.1849-0.0162,0.1917-0.0812
		c0.006-0.057-0.0309-0.145-0.1107-0.2704c-0.0689-0.1084-0.0971-0.1861-0.0797-0.2192c0.009-0.017,0.009-0.0369,0.0001-0.0593
		c-0.0089-0.0225-0.0266-0.0476-0.0532-0.0752c-0.0655-0.068-0.0729-0.097-0.0404-0.1587c0.0219-0.0415,0.0333-0.0965,0.0254-0.1221
		c-0.007-0.0226,0.0245-0.0387,0.0898-0.0478c0.074-0.0104,0.1916-0.0119,0.3481-0.0037c0.2156,0.0113,0.2279-0.0464,0.0602-0.2817
		c-0.0675-0.0947-0.1065-0.1609-0.1247-0.2158c-0.0109-0.0329-0.0143-0.0618-0.0118-0.0902
		c0.0025-0.0281-0.0022-0.0652-0.0117-0.1022c-0.0095-0.0371-0.0238-0.0742-0.0407-0.1024c-0.0231-0.0386-0.037-0.0627-0.041-0.0805
		c-0.0064-0.0283,0.0126-0.0402,0.0619-0.0675c0.0651-0.0361,0.0939-0.0779,0.0878-0.1359
		c-0.0036-0.0348-0.0198-0.0755-0.0481-0.1242c-0.0934-0.1607-0.0382-0.2546,0.1628-0.2769
		c0.2299-0.0256,0.4203-0.022,0.6075,0.0115c0.1915,0.0342,0.5655,0.0136,0.54-0.0298c-0.0023-0.0039-0.0057-0.0088-0.0102-0.0146
		c-0.0122-0.0159-0.0326-0.0392-0.0578-0.0665c-0.1137-0.1231-0.3335-0.3364-0.4321-0.4143
		c-0.2561-0.2023-0.2952-0.2786-0.2089-0.4075c0.0465-0.0695,0.0344-0.0965-0.0586-0.1311
		c-0.0441-0.0164-0.1156-0.0809-0.163-0.1376c-0.0075-0.009-0.0146-0.0179-0.0207-0.0263c-0.0202-0.0278-0.0313-0.051-0.0259-0.0614
		c0.0056-0.0106,0.0217-0.0255,0.0417-0.0404c0.0158-0.0117,0.0338-0.0234,0.0521-0.0329c0.039-0.0201,0.0693-0.0508,0.072-0.0713
		c0.0002-0.0014,0.0013-0.0031,0.0013-0.0044v0v0c-0.001-0.0139-0.0586-0.0557-0.1426-0.106
		c-0.0392-0.0234-0.0835-0.0485-0.1315-0.0738c-0.2344-0.1235-0.2743-0.1541-0.2921-0.2234
		c-0.0169-0.066,0.0115-0.1299,0.0632-0.167c0.031-0.0222,0.0704-0.0348,0.1134-0.0323c0.0693,0.004,0.0978-0.0073,0.084-0.0358
		c-0.0178-0.0366-0.1055-0.1017-0.2662-0.199c-0.2749-0.1666-0.6268-0.328-1.0968-0.5031c-0.2628-0.0979-0.3937-0.1846-0.527-0.3492
		c-0.0353-0.0435-0.0574-0.078-0.0687-0.1092c-0.024-0.0658,0.0052-0.115,0.094-0.1915c0.12-0.1035,0.1209-0.1034,0.4767,0.0162
		c0.3162,0.1063,0.5017,0.1978,0.5973,0.2946c0.0158,0.016,0.0482,0.0416,0.0885,0.0709c0.0537,0.039,0.1219,0.0849,0.1875,0.1251
		c0.2001,0.1227,0.2116,0.126,0.2677,0.0765c0.0365-0.0322,0.1053-0.0437,0.1826-0.0306c0.0682,0.0116,0.1598,0.0178,0.2034,0.0138
		c0.0287-0.0026,0.0878,0.0124,0.1583,0.0388c0.0423,0.0158,0.0887,0.0358,0.1352,0.0584c0.1029,0.0502,0.1768,0.0787,0.2272,0.0859
		c0.0085,0.0012,0.0165,0.002,0.0236,0.0019c0.0497-0.0001,0.0684-0.0296,0.064-0.0885c-0.0044-0.0595,0.0147-0.1118,0.0477-0.1522
		c0.0658-0.0805,0.1879-0.113,0.2978-0.0555c0.051,0.0267,0.0989,0.0213,0.1608-0.0182c0.0485-0.031,0.1798-0.064,0.2919-0.0735
		c0.0789-0.0067,0.1677-0.0236,0.2313-0.0425c0.0267-0.0079,0.0495-0.0162,0.0645-0.0243c0.1684-0.0907,0.3961-0.146,0.5061-0.1228
		c0.0519,0.0109,0.0825,0.0119,0.1081-0.0019c0.0198-0.0107,0.0367-0.0301,0.0577-0.062c0.0395-0.0601,0.0712-0.0857,0.1951-0.0722
		c0.0138,0.0015,0.0287,0.0035,0.0449,0.006c0.0193,0.003,0.0412,0.0069,0.0644,0.0112c0.031,0.0058,0.0658,0.0129,0.1046,0.0213
		c0.0122,0.0026,0.025,0.0054,0.038,0.0083c0.0707,0.0156,0.1531,0.0347,0.2521,0.058c0.2337,0.055,0.4938,0.1055,0.578,0.1122
		c0.0842,0.0067,0.2032,0.0277,0.2644,0.0467c0.1869,0.0581,0.7196,0.0369,0.7549-0.0301c0.0142-0.0269-0.0001-0.0805-0.0333-0.1484
		c-0.0896-0.1833-0.3217-0.4741-0.5382-0.6506c-0.0477-0.0389-0.1396-0.1219-0.2041-0.1844
		c-0.3189-0.3088-0.3657-0.3658-0.3573-0.4348c0.0036-0.0291,0.0019-0.0533-0.0084-0.0762
		c-0.0226-0.0504-0.0872-0.0943-0.2303-0.1698c-0.0936-0.0493-0.1472-0.0866-0.1872-0.1339
		c-0.0178-0.021-0.0331-0.0438-0.0477-0.0708c-0.0741-0.1376-0.0534-0.2061,0.0935-0.3092
		c0.0618-0.0434,0.1113-0.0951,0.1099-0.1148c-0.0031-0.0451-0.2277-0.1327-0.4214-0.1645
		c-0.1926-0.0316-0.3519-0.1065-0.4758-0.2239l-0.036-0.0341l-0.0645-0.0611l0.0783-0.1485
		c0.0371-0.0704,0.0562-0.1199,0.0524-0.155c-0.0063-0.0587-0.0762-0.0773-0.2324-0.086c-0.2723-0.0152-0.3997-0.0599-0.3859-0.1355
		c0.0011-0.0058,0.002-0.0128,0.003-0.0197c0.0035-0.0247,0.0061-0.054,0.0071-0.0795c0.0081,0.0103,0.0158,0.0218,0.0224,0.0355
		c0.0643,0.1338,0.1064,0.1601,0.1919,0.1196c0.0621-0.0294,0.1317-0.0287,0.2288,0.0063c0.0677,0.0244,0.1483,0.0648,0.2508,0.1253
		c0.1319,0.0778,0.2372,0.1252,0.3109,0.1411c0.0737,0.0159,0.1158,0.0003,0.1212-0.0479l0,0c0,0,0,0,0,0
		c0.0008-0.0071-0.0048-0.0315-0.0145-0.0659c-0.0142-0.0503-0.0373-0.1225-0.0641-0.1985
		c-0.039-0.1103-0.0619-0.2028-0.0693-0.2759c-0.0079-0.0783,0.002-0.1344,0.0307-0.1645c0.0136-0.0142,0.0475-0.022,0.0871-0.024
		c0.053-0.0027,0.1163,0.0052,0.1575,0.0244c0.0671,0.0312,0.1038,0.0097,0.1126-0.0663c0.0038-0.0325,0.0106-0.0539,0.0221-0.0648
		c0.0191-0.0181,0.0508-0.0067,0.1021,0.0323c0.0385,0.0293,0.1013,0.0468,0.1404,0.039c0.0543-0.0108,0.1044,0.0147,0.2162,0.1101
		c0.08,0.0683,0.1545,0.1199,0.1654,0.1147l0,0h0c0.0056-0.0027,0.0113-0.0176,0.016-0.0391
		c0.0044-0.0204,0.0079-0.0468,0.0093-0.0748c0.003-0.0575,0.0278-0.1714,0.0551-0.2533c0.0458-0.1368,0.0578-0.1511,0.1494-0.1778
		c0.027-0.0079,0.0511-0.018,0.0693-0.0284c0.0152-0.0086,0.0264-0.0175,0.0313-0.0253c0.0015-0.0025,0.0024-0.0048,0.0027-0.0071
		c0.0014-0.0121,0.0066-0.0241,0.0151-0.0353c0.0033-0.0044,0.0075-0.0086,0.0118-0.0127c0.0012-0.0011,0.002-0.0023,0.0032-0.0034
		c0.0044-0.0039,0.0095-0.0074,0.0147-0.011c0.0016-0.0011,0.003-0.0024,0.0047-0.0035c0.0061-0.0039,0.0129-0.0073,0.0199-0.0106
		c0.0011-0.0005,0.0021-0.0012,0.0032-0.0017c0.006-0.0027,0.0125-0.0048,0.019-0.007c0.0025-0.0009,0.0048-0.002,0.0074-0.0027
		c0.0038-0.0011,0.008-0.0018,0.012-0.0027c0.0927-0.0222,0.2241,0.0055,0.3188,0.1545l0.1067,0.1677l0.0201,0.0316l0.0024-0.0652
		l0.0073-0.1956c0.0529-0.1412,0.1215-0.1743,0.2326-0.1123c0.0405,0.0226,0.0733,0.031,0.1053,0.0284
		c0.005-0.0004,0.0101,0.0002,0.0151-0.0008c0.0046-0.0009,0.0093-0.0033,0.0139-0.0048c0.0078-0.0024,0.0155-0.0043,0.0236-0.0081
		c0.056-0.0265,0.0948-0.0195,0.1819,0.0332c0.0457,0.0276,0.0924,0.0489,0.1195,0.0555c0.0045,0.0011,0.0085,0.0018,0.0118,0.002
		c0.0033,0.0002,0.006,0,0.008-0.0006c0.0623-0.0218,0.0983-0.0578,0.1253-0.1252c0.0155-0.0388,0.0472-0.0795,0.0703-0.0905
		c0.0643-0.0305,0.4222,0.1848,0.6562,0.2351c0.0245,0.0053,0.0436,0.0064,0.0588,0.0045c0.1038-0.0131,0.0184-0.1751,0.1519-0.2258
		c0.1349-0.0512,0.2144-0.0609,0.4019-0.0493c0.1285,0.008,0.1518,0.3171,0.1577,0.3296c0.0059,0.0125,0.1349-0.2875,0.1807-0.3092
		c0.0786-0.0373,0.533-0.0722,0.6062-0.0466c0.0001,0,0.0002,0,0.0002,0.0001c0.0035,0.0012,0.0088,0.0023,0.0151,0.0034
		c0.0022,0.0004,0.0048,0.0007,0.0073,0.0011c0.0049,0.0007,0.0101,0.0014,0.0161,0.002c0.0034,0.0004,0.0069,0.0007,0.0106,0.001
		c0.0063,0.0006,0.013,0.0011,0.0202,0.0015c0.0042,0.0003,0.0082,0.0006,0.0126,0.0008c0.0091,0.0005,0.0188,0.0009,0.0289,0.0013
		c0.0031,0.0001,0.0058,0.0003,0.0089,0.0004c0.0129,0.0004,0.0265,0.0007,0.0406,0.0009c0.006,0.0001,0.0123,0.0001,0.0186,0.0001
		c0.0088,0.0001,0.0175,0.0001,0.0266,0c0.0072,0,0.0145-0.0001,0.0219-0.0002c0.0085-0.0001,0.017-0.0003,0.0256-0.0005
		c0.0079-0.0002,0.0156-0.0004,0.0236-0.0006c0.0087-0.0003,0.0175-0.0007,0.0263-0.0011c0.0097-0.0004,0.0194-0.0009,0.0291-0.0014
		c0.0129-0.0007,0.0258-0.0015,0.0386-0.0025c0.0078-0.0006,0.0154-0.0013,0.0231-0.002c0.008-0.0007,0.016-0.0014,0.0239-0.0022
		c0.008-0.0008,0.0158-0.0017,0.0236-0.0027c0.0073-0.0009,0.0144-0.0018,0.0214-0.0028c0.0076-0.001,0.0152-0.0021,0.0225-0.0033
		c0.007-0.0011,0.0135-0.0024,0.0201-0.0036c0.0066-0.0012,0.0135-0.0024,0.0197-0.0037c0.0113-0.0024,0.0219-0.005,0.0317-0.0079
		c0,0,0,0-0.0001,0c0.0371-0.0107,0.0631-0.0242,0.0704-0.0411C30.079,12.0808,29.6366,11.9021,29.4374,11.6138z M3.9898,5.7024
		C3.984,5.6356,3.9883,5.5689,4.0001,5.5031c0.0079-0.0423,0.0238-0.0817,0.049-0.1165c0.0166-0.0225,0.0393-0.037,0.0643-0.0483
		C4.139,5.3277,4.1662,5.3248,4.1937,5.3254c0.0275,0.0007,0.0525,0.0107,0.0766,0.0232c0.0302,0.0168,0.0556,0.0407,0.078,0.0667
		C4.3777,5.4506,4.3967,5.4925,4.413,5.5351C4.434,5.5941,4.4446,5.656,4.4536,5.7178C4.4629,5.79,4.4659,5.8628,4.4651,5.9355
		C4.4636,6.0116,4.4539,6.087,4.4415,6.162C4.4292,6.2369,4.4095,6.31,4.3844,6.3816C4.3732,6.4146,4.3586,6.4459,4.3417,6.476
		c-0.063-0.0741-0.1183-0.1543-0.1693-0.2372C4.1176,6.1494,4.076,6.0534,4.0416,5.9546C4.0143,5.8727,3.9985,5.788,3.9898,5.7024z
		 M6.6835,5.8893C6.7032,5.7662,6.7541,5.6529,6.8125,5.544c0.0543-0.1006,0.1244-0.1904,0.2028-0.273
		c0.07-0.0718,0.1535-0.1265,0.2414-0.1735c0.0785-0.0412,0.1636-0.0628,0.251-0.0736C7.5847,5.0164,7.6605,5.027,7.7344,5.0476
		c0.0675,0.0199,0.1255,0.0573,0.1778,0.1033C7.9656,5.2,7.9972,5.2636,8.0206,5.3311c0.0271,0.0892,0.0291,0.1824,0.0256,0.2748
		C8.0397,5.724,8.012,5.8391,7.9795,5.9523C7.9421,6.0811,7.8844,6.2021,7.82,6.3192C7.7498,6.4439,7.663,6.5577,7.5707,6.6666
		c-0.093,0.1087-0.2009,0.2023-0.3161,0.2864C7.209,6.9856,7.1609,7.014,7.112,7.0406C7.0343,6.9399,6.9652,6.8328,6.9006,6.7232
		C6.8192,6.5835,6.7551,6.4354,6.7085,6.2808C6.6705,6.1524,6.6664,6.021,6.6835,5.8893z M13.7277,5.8633
		c0.0618-0.0145,0.1244-0.0257,0.1871-0.0359c0.0715-0.0113,0.1434-0.0196,0.2156-0.0253c0.0802-0.0067,0.1606-0.005,0.2408-0.0009
		c0.0888,0.0049,0.177,0.0162,0.2649,0.0297c0.0885,0.0131,0.1754,0.0341,0.261,0.0595c0.0921,0.0274,0.1782,0.0695,0.2621,0.1156
		c0.0671,0.0371,0.13,0.0805,0.1909,0.1267c0.0037,0.0165,0.0068,0.0319,0.009,0.0446c0.0166,0.0969,0.0117,0.1078-0.0544,0.1219
		c-0.1329,0.0283-0.149,0.0383-0.1376,0.0851c0.0062,0.0256,0.1214,0.1323,0.256,0.2371c0.2088,0.1626,0.3495,0.3144,0.3824,0.408
		c-0.1156,0.0258-0.2283,0.0619-0.3327,0.1202c-0.1101,0.0628-0.2153,0.1344-0.2983,0.2316
		c-0.0299,0.0362-0.058,0.0738-0.0838,0.1127c-0.0022-0.0014-0.0042-0.0027-0.0064-0.0041
		c-0.2652-0.1723-0.5654-0.3735-0.8381-0.5602c-0.2961-0.2027-0.553-0.3838-0.7331-0.5164
		c0.0028-0.0176,0.0054-0.0338,0.0076-0.0473c0.0005-0.0028-0.0513-0.0166-0.115-0.0329c-0.1175-0.089-0.1942-0.152-0.2467-0.1978
		c0.0035-0.0022,0.0062-0.0042,0.0101-0.0066c0.0214-0.0132,0.0522-0.0032,0.0735-0.0166c0.0211-0.0133,0.023-0.0497,0.0462-0.0588
		c0.1481-0.0582,0.0422,0.0961,0.1243-0.068c0.0662-0.0117,0.1146-0.0429,0.1592-0.0791
		C13.6235,5.8897,13.6755,5.8759,13.7277,5.8633z M13.9374,7.3966c0.2805,0.1789,0.5942,0.3744,0.8704,0.5383
		c0.0542,0.0322,0.1064,0.0625,0.1582,0.0925c0.0081,0.0653,0.0226,0.1294,0.0493,0.1903c0.0366,0.0789,0.0822,0.1527,0.1449,0.2138
		c0.0042,0.004,0.0087,0.0076,0.013,0.0115c-0.0026,0.0037-0.0048,0.0067-0.0075,0.0106c-0.0519,0.075-0.1332,0.1774-0.1806,0.2275
		c-0.0785,0.0829-0.0921,0.086-0.1512,0.0344c-0.119-0.1038-0.1394-0.1119-0.175-0.0686c-0.0195,0.0236-0.0384,0.2051-0.042,0.4032
		c-0.0069,0.3747-0.0694,0.6447-0.1579,0.6821c-0.0331,0.014-0.0775-0.0013-0.134-0.0461
		c-0.0819-0.0649-0.0845-0.0645-0.0849,0.0146c-0.0002,0.0449,0.0251,0.1748,0.0562,0.2887
		c0.0311,0.1139,0.0534,0.3011,0.0496,0.4161c-0.0106,0.3229,0.0329,0.5801,0.1278,0.7643
		c-0.0019,0.0015-0.0035,0.0029-0.0055,0.0044c-0.0697,0.0563-0.0942,0.1257-0.0579,0.1471
		c0.0052,0.0031,0.0116,0.0052,0.0193,0.0061c0.0235,0.0029,0.0545-0.0004,0.072-0.0071c0.0011-0.0004,0.0027-0.0007,0.0037-0.0012
		c0.0058-0.0027,0.012-0.0034,0.0184-0.0025c0.0103,0.0015,0.021,0.0085,0.0317,0.0179c0.0247,0.056,0.0442,0.1082,0.0515,0.1407
		c0.0091,0.0405,0.0168,0.085,0.0236,0.1318c-0.005,0.0235-0.0138,0.047-0.0256,0.0705c-0.0399,0.0795-0.1191,0.1615-0.2517,0.2645
		c-0.033,0.0256-0.0548,0.0575-0.0485,0.0709c0,0,0,0,0,0s0,0,0,0c0.0053,0.0111,0.109,0.0219,0.2438,0.0266
		c0.0268,0.0009,0.0543,0.0017,0.083,0.0021c0.0108,0.0002,0.0205,0.0003,0.0308,0.0005c0.0099,0.5437-0.0699,1.1493-0.1864,1.1325
		c-0.0062-0.0009-0.0183-0.0157-0.0345-0.0411c-0.0141-0.0408-0.0283-0.0816-0.0424-0.1226
		c-0.2322-0.6764-0.4552-1.3823-0.5913-1.9528c-0.0698-0.2928-0.116-0.5466-0.1508-0.81c-0.0362-0.2743-0.0608-0.5646-0.0838-0.9079
		c-0.0246-0.3667-0.0468-0.786-0.0632-1.1698c-0.0181-0.4219-0.0288-0.7915-0.0309-1.0519c-0.0001-0.0066,0-0.0123-0.0001-0.0188
		C13.617,7.1906,13.7721,7.2911,13.9374,7.3966z M5.2989,16.8012c0.0912-0.1375,0.1589-0.2913,0.1977-0.4555
		c0.0608,0.0832,0.13,0.1603,0.2069,0.2297c-0.0699,0.0845-0.1401,0.1688-0.2115,0.2521
		C5.4278,16.8144,5.3634,16.8057,5.2989,16.8012z M13.7995,12.6194c0.0681,0.1799,0.138,0.3597,0.2083,0.5364
		c0.0041,0.0104,0.0083,0.0206,0.0124,0.0309c-0.1029-0.0827-0.2183-0.1533-0.3456-0.2078
		c-0.0013-0.0005-0.0026-0.001-0.0039-0.0015C13.7288,12.8665,13.7726,12.7464,13.7995,12.6194z M7.0913,25.6896
		c-0.102,0.0866-0.1923,0.1872-0.2679,0.2996c-0.13-0.1913-0.309-0.3532-0.5305-0.4642c-0.0426-0.0213-0.0858-0.0403-0.1293-0.0569
		c0.0008-0.0057,0.0017-0.0115,0.0024-0.0172c0.0043-0.0017,0.0086-0.0036,0.0129-0.0053c0.0939-0.0367,0.1881-0.0726,0.2827-0.1076
		c0.254,0.0437,0.5124,0.0177,0.749-0.0704c-0.0353,0.1257-0.0704,0.2515-0.1061,0.3771
		C7.1001,25.6597,7.0956,25.6746,7.0913,25.6896z M8.7659,20.4769c-0.0158-0.0109-0.0316-0.0218-0.0471-0.033
		c0.0226-0.1093,0.0442-0.2188,0.0651-0.3284c0.1995-0.1367,0.3683-0.3242,0.4844-0.5557c0.0884-0.176,0.1379-0.3613,0.1525-0.5463
		c0.0868,0.0078,0.1734,0.0074,0.2589-0.0002c-0.0041,0.1079-0.0342,0.2368-0.0897,0.3642
		c-0.0673,0.1544-0.0772,0.2077-0.0469,0.2525c0.0247,0.0366,0.0537,0.0452,0.1359,0.0286
		c0.0236-0.0048,0.0508-0.0113,0.0844-0.0202c0.0214-0.0057,0.0421-0.0101,0.0623-0.014c0.0047,0.015,0.0097,0.03,0.0149,0.0448
		c-0.1371,0.0839-0.2631,0.1909-0.3696,0.3233c-0.1367,0.1699-0.2268,0.3617-0.2752,0.5604
		c-0.1231-0.0279-0.2469-0.0396-0.369-0.0363C8.8067,20.5033,8.7861,20.4905,8.7659,20.4769z M16.2227,8.6269
		c0.0299,0.0111,0.0617,0.0223,0.0925,0.0334c-0.0191,0.0034-0.0379,0.0045-0.0554,0.0011
		c-0.0109-0.0022-0.0214-0.0058-0.0311-0.0109c-0.0132-0.0069-0.0257-0.0192-0.0376-0.0352
		c0.0065,0.0023,0.0132,0.0047,0.0199,0.0071C16.215,8.6239,16.2187,8.6254,16.2227,8.6269z M8.5152,20.2611
		c-0.021,0.105-0.0429,0.2099-0.0654,0.3146c-0.1693,0.0493-0.329,0.1279-0.4711,0.2326c-0.0423-0.1599-0.1103-0.3086-0.1989-0.4423
		C8.032,20.3948,8.2852,20.3568,8.5152,20.2611z M8.0182,23.2451c0.0763,0.0525,0.1586,0.0983,0.2461,0.1367
		c0.0055,0.0087,0.0109,0.0175,0.0164,0.0262c0.0374,0.059,0.0757,0.1175,0.1139,0.1761C8.3833,23.598,8.372,23.6117,8.3612,23.626
		c-0.0938,0.1236-0.1655,0.2571-0.2159,0.3957c0.0184-0.253-0.0306-0.5056-0.1394-0.7319C8.01,23.2749,8.0141,23.26,8.0182,23.2451z
		 M16.4637,7.8903c0.005-0.0694,0.0069-0.1389,0.0049-0.2083c0.1302,0.0754,0.2522,0.1212,0.364,0.1361
		c0.0924,0.0123,0.2073,0.04,0.2553,0.0616c0.0685,0.0309,0.1451,0.0733,0.2251,0.1234c-0.0866,0.0517-0.1172,0.0517-0.1678,0.0471
		c-0.1031-0.0092-0.1126-0.0017-0.232,0.1814c-0.0463,0.071-0.0792,0.1204-0.1054,0.1536C16.6595,8.328,16.518,8.271,16.3882,8.2147
		c-0.0016-0.0007-0.003-0.0013-0.0046-0.002C16.427,8.1098,16.4559,8.0025,16.4637,7.8903z M15.4709,8.3015
		c-0.0078,0.0047-0.0156,0.0095-0.0228,0.0135c-0.0355-0.0207-0.0676-0.0463-0.0976-0.0747
		C15.3909,8.2614,15.4309,8.2814,15.4709,8.3015z M7.496,25.1237c0.1912-0.1248,0.3556-0.2966,0.4736-0.5104
		c0.0358-0.0648,0.066-0.1312,0.0909-0.1986c-0.0263,0.3328,0.0584,0.6695,0.2463,0.9522
		c-0.0114-0.0021-0.0228-0.0046-0.0343-0.0065c-0.312-0.0507-0.6167,0.0017-0.8801,0.1316
		C7.427,25.3693,7.4616,25.2466,7.496,25.1237z M15.8368,7.2985c0.0223,0.0097,0.0452,0.0193,0.0676,0.0282
		c0.0799,0.0316,0.1924,0.0946,0.2721,0.1508c0.0033,0.0193,0.0067,0.0386,0.0096,0.058c0.0164,0.1111,0.0174,0.2231,0.0088,0.3348
		c-0.006,0.0802-0.0252,0.1573-0.0563,0.2308c-0.0172-0.0082-0.034-0.0165-0.0509-0.0248
		c-0.0002-0.0127-0.0007-0.0248-0.0013-0.0364c-0.0046-0.0867-0.0195-0.1446-0.0407-0.1512h0l0,0
		c-0.0036-0.0011-0.0102,0.0004-0.018,0.0032c-0.027,0.0095-0.0768,0.0405-0.1364,0.0844
		c-0.0465-0.0247-0.0926-0.0499-0.1386-0.0757c-0.1395-0.0784-0.2823-0.1651-0.4357-0.2619
		c0.0197-0.0295,0.0415-0.0576,0.0644-0.0848c0.0626-0.0717,0.1419-0.1237,0.2242-0.1698
		C15.6785,7.3437,15.7567,7.3178,15.8368,7.2985z M5.8909,16.7189c0.1564,0.1014,0.3341,0.1754,0.5283,0.2132
		c0.6529,0.1271,1.289-0.1912,1.5952-0.743c0.0043,0.0075,0.0089,0.0148,0.0134,0.0223c-0.0017,0.091-0.0322,0.216-0.0916,0.3687
		c-0.0281,0.0723-0.0459,0.1484-0.0395,0.1691c0.0027,0.0087,0.0446,0.0037,0.1063-0.0094c0.0309-0.0066,0.0667-0.0152,0.105-0.0251
		c0.0171-0.0044,0.0348-0.0092,0.0527-0.0141c0.0049-0.0014,0.0099-0.0027,0.0148-0.0041c0.0791-0.0219,0.1624-0.0473,0.2321-0.0711
		c0.007,0.005,0.0137,0.0102,0.0208,0.0151c-0.0888,0.1079-0.1636,0.2303-0.22,0.366c-0.0571,0.1373-0.0915,0.2784-0.1051,0.4191
		c-0.556-0.0591-1.115,0.2027-1.418,0.6993c-0.056-0.4743-0.3365-0.9141-0.7908-1.1538c-0.0511-0.027-0.1032-0.0504-0.1558-0.0709
		C5.7899,16.8401,5.8407,16.7798,5.8909,16.7189z M7.4216,22.3984c0.0342,0.1276,0.085,0.25,0.151,0.364
		c-0.0531-0.0398-0.1093-0.0766-0.169-0.1095c-0.0763-0.0421-0.1549-0.0762-0.2347-0.1033
		C7.2585,22.5074,7.343,22.4566,7.4216,22.3984z M10.3818,22.8965c-0.0275,0.1196-0.0394,0.239-0.0375,0.3564
		c-0.1339-0.0823-0.2767-0.1411-0.4231-0.1774c0.154-0.1525,0.2772-0.3409,0.3551-0.5585c0.0249-0.0696,0.0441-0.1398,0.0583-0.2102
		c0.1048,0.0189,0.2109,0.0246,0.3164,0.0201C10.525,22.4901,10.4311,22.6823,10.3818,22.8965z M7.8245,12.0297
		c-0.1527,0.1914-0.2608,0.4227-0.3056,0.6809c-0.1085,0.6264,0.1871,1.229,0.6984,1.5418
		c-0.0068,0.0215-0.023,0.0463-0.0495,0.0835c-0.0509,0.0715-0.1209,0.1198-0.2231,0.1541
		c-0.0252,0.0084-0.0517,0.0184-0.0774,0.0288c-0.1839-0.2268-0.4346-0.4012-0.7298-0.4898c0.0398-0.055,0.0768-0.1129,0.11-0.1742
		c0.3387-0.625,0.2117-1.3772-0.2622-1.8587c0.094-0.0575,0.1881-0.1146,0.282-0.1721c0.0505-0.0309,0.1009-0.062,0.1513-0.093
		C7.5333,11.8497,7.6694,11.9512,7.8245,12.0297z M14.1578,5.5058c0.044-0.0281,0.0981-0.0341,0.1435-0.0588
		c0.0235-0.0128,0.0415-0.0344,0.0652-0.0469c0.0243-0.0128,0.0523-0.0169,0.0774-0.0281c0.088-0.0393,0.0706-0.0356,0.1375-0.1082
		c0.0199-0.0035,0.161-0.0279,0.181-0.0345c0.0488-0.0159,0.1194-0.0597,0.1644-0.0823c0.0921-0.0463,0.0841-0.0397,0.1827-0.0731
		c0.0312-0.0149,0.0613-0.0325,0.0936-0.0447c0.0811-0.0307,0.1249-0.0309,0.2089-0.0517c0.1085-0.0268,0.2136-0.0641,0.3222-0.0911
		c0.0378-0.0075,0.0779-0.0075,0.1133-0.0226c0.0381-0.0162,0.0639-0.0556,0.1029-0.0696c0.0375-0.0134,0.0799-0.0026,0.119-0.0098
		c0.0096-0.0018,0.019-0.0043,0.0284-0.0072c0.0039,0.0161,0.0062,0.0295,0.0065,0.0405c0,0.0003,0.0001,0.0007,0.0001,0.001
		c0,0.0002,0,0.0004,0,0.0007c0.0001,0.0068-0.0008,0.0126-0.0022,0.0178c-0.0057,0.0217-0.0235,0.0327-0.0534,0.0469
		c-0.0232,0.011-0.0385,0.0252-0.0459,0.0441c-0.0002,0.0004-0.0002,0.001-0.0003,0.0014
		c-0.0022,0.0059-0.0038,0.0122-0.0045,0.0191c-0.0011,0.011,0.0003,0.0238,0.003,0.0376c0.0045,0.0231,0.0138,0.0497,0.029,0.0817
		c0.0089,0.0189,0.0143,0.0388,0.0176,0.0589c0.0104,0.0636-0.0061,0.1282-0.0441,0.1623c-0.0071,0.0064-0.015,0.0117-0.0236,0.0158
		c-0.0724,0.0343-0.2636-0.0443-0.4476-0.1841c-0.0105-0.008-0.0208-0.0155-0.0308-0.0225
		c-0.0089-0.0063-0.0174-0.0119-0.0258-0.0173c-0.001-0.0006-0.0021-0.0014-0.0031-0.0021
		c-0.0463-0.0297-0.0831-0.0457-0.1024-0.0441c-0.0039,0.0003-0.007,0.0013-0.0094,0.0031
		c-0.003,0.0022-0.0056,0.0088-0.0079,0.0173c-0.0114,0.0408-0.0152,0.148-0.0079,0.267c0.0014,0.0225,0.0026,0.0439,0.0036,0.0645
		c0.0001,0.0025,0.0002,0.0049,0.0003,0.0074c0.0009,0.0176,0.0016,0.0346,0.0022,0.0508c0.0001,0.0032,0.0002,0.0063,0.0003,0.0095
		c0.0005,0.0158,0.0009,0.0309,0.0012,0.0454c0,0.0021,0.0001,0.0042,0.0001,0.0063c0.0013,0.0846-0.0022,0.1461-0.0111,0.1895
		c0,0,0,0,0,0c-0.0087,0.0426-0.0226,0.0679-0.0422,0.0804c-0.0037-0.0021-0.0072-0.0044-0.0109-0.0065
		c-0.1008-0.055-0.2045-0.1049-0.3151-0.1376c-0.0974-0.0287-0.1961-0.0526-0.2967-0.0674
		c-0.0969-0.0148-0.1942-0.0271-0.2921-0.0325c-0.0887-0.0044-0.1776-0.0057-0.2662,0.0011
		C14.1317,5.524,14.1446,5.5146,14.1578,5.5058z M11.3917,11.125c0.0428-0.2268,0.0826-0.4541,0.1185-0.682
		c0.0224-0.0554,0.0449-0.1108,0.0665-0.1665c0.032-0.0836,0.0633-0.1675,0.0944-0.2514c0.0296-0.0826,0.0584-0.1655,0.0864-0.2487
		c0.0273-0.0831,0.0542-0.1663,0.079-0.2502c0.024-0.0824,0.0474-0.1649,0.0696-0.2478c0.0221-0.0809,0.044-0.1619,0.0658-0.243
		c0.0211-0.0788,0.0421-0.1576,0.0628-0.2364c0.02-0.0762,0.0399-0.1525,0.0599-0.2287c0.0196-0.0733,0.0401-0.1463,0.0607-0.2193
		c0.0216-0.0735,0.043-0.1469,0.0646-0.2204c0.0207-0.0706,0.042-0.141,0.0645-0.211c0.0211-0.0661,0.0429-0.132,0.0669-0.1971
		c0.0228-0.0619,0.0467-0.1235,0.073-0.1841c0.0245-0.0573,0.0496-0.1143,0.0768-0.1703c0.0259-0.0544,0.0522-0.1087,0.0792-0.1626
		c0.0263-0.0522,0.0529-0.1042,0.0801-0.1559c0.0264-0.0508,0.0522-0.1018,0.0787-0.1525c0.0135-0.0267,0.0276-0.0531,0.0415-0.0796
		c0.002,0.0891,0.0055,0.1936,0.0115,0.3203c0.0125,0.2672,0.036,0.6484,0.068,1.0713c0.0291,0.3855,0.066,0.8134,0.1061,1.1845
		c0.0378,0.35,0.0788,0.6529,0.1339,0.9445c0.0348,0.1844,0.0759,0.3641,0.1249,0.5512c0.0139,0.0653,0.0418,0.165,0.0798,0.2882
		c0.0014,0.0049,0.0026,0.0094,0.004,0.0142c0.0059,0.0199,0.0126,0.041,0.0187,0.0611c-0.2098-0.1755-0.4729-0.2917-0.7659-0.3194
		c-0.4227-0.0399-0.819,0.1127-1.1027,0.3856c-0.032-0.0198-0.0581-0.0345-0.0786-0.0433
		c-0.0054-0.0039-0.0108-0.0078-0.0161-0.0118C11.3739,11.2178,11.3832,11.1715,11.3917,11.125z M6.9336,11.1387
		c0.045,0.0017,0.0899,0.0046,0.1348,0.0069c0.0461,0.1423,0.1131,0.2777,0.1993,0.4013c-0.0411,0.0252-0.0821,0.0506-0.1233,0.0757
		c-0.1052,0.0644-0.2107,0.1284-0.3159,0.1929c-0.0101,0.0063-0.0205,0.012-0.0307,0.0182
		c-0.0584-0.043-0.1202-0.0828-0.1858-0.1184C6.5594,11.6869,6.5059,11.662,6.4518,11.64c0.0605-0.1576,0.0936-0.3281,0.0939-0.5053
		C6.675,11.1338,6.8043,11.1342,6.9336,11.1387z M6.7089,19.7054c-0.0443-0.0053-0.0891-0.0086-0.1345-0.0099
		c0.032-0.0174,0.0642-0.0346,0.0967-0.0512C6.6832,19.6649,6.6958,19.6853,6.7089,19.7054z"/>
	<polygon points="29.9561,12.2443 29.9561,12.2443 29.9561,12.2443 	"/>
	<path d="M11.919,6.7085C11.9181,6.709,11.918,6.709,11.919,6.7085L11.919,6.7085z"/>
</g>
</svg>
