<?xml version="1.0" encoding="utf-8"?>
<!-- Generator: Adobe Illustrator 25.2.3, SVG Export Plug-In . SVG Version: 6.00 Build 0)  -->
<svg version="1.1" id="vine" xmlns="http://www.w3.org/2000/svg" xmlns:xlink="http://www.w3.org/1999/xlink" x="0px" y="0px"
	 viewBox="0 0 32 32" style="enable-background:new 0 0 32 32;" xml:space="preserve">
<style type="text/css">
	.st0{fill:#FFFFFF;}
</style>
<path class="st0" d="M28.3,5.1c-0.1,0-0.2,0-0.2,0C27.7,5,27.7,5,27.7,4.9s-0.1-0.1-0.3-0.1c-0.1,0-0.2,0-0.3-0.1
	c-0.1,0-0.1-0.1,0-0.2c0-0.1,0-0.1,0-0.1s-0.2,0-0.4,0.1c-0.2,0.1-0.3,0.1-0.4,0h-0.1V4.4c0-0.2,0-0.2-0.2-0.1s-0.3,0.1-0.3,0.1V4.3
	c0-0.1,0-0.1,0.1-0.3c0.1-0.1,0.1-0.2,0.1-0.3c0,0-0.1,0-0.2,0s-0.3,0-0.4,0h-0.2V3.6V3.5h-0.2c-0.2,0-0.2,0-0.2-0.2
	c0-0.1,0-0.2,0-0.2s0.1-0.2,0.1-0.3c0.1-0.3,0.2-0.5,0.1-0.5s-0.2,0-0.5,0.2c-0.1,0.1-0.3,0.2-0.5,0.2h-0.1c-0.1,0-0.1,0-0.1,0V2.6
	c0,0-0.1,0-0.1,0.1C23.3,2.9,23.2,3,23,2.8c-0.1-0.1-0.1-0.1-0.1,0s0,0.2-0.1,0.3c-0.2,0.1-0.3,0.2-0.3,0.1V3.1c0,0,0.1-0.3,0.1-0.5
	c0-0.1,0-0.2,0-0.3s0-0.2,0-0.3c0-0.1,0.1-0.2,0.1-0.4c0.1-0.2,0.1-0.2,0.1-0.4c0-0.1,0-0.1,0.1-0.2c-0.2,0.1-0.2,0-0.3,0l0,0
	c-0.1-0.1-0.2,0-0.6,0.4c-0.2,0.2-0.3,0.3-0.4,0.2l-0.1-0.1c0-0.1,0-0.1-0.1,0s-0.2,0.2-0.3,0.2c-0.1,0-0.1,0-0.1-0.1
	s-0.1-0.1-0.1-0.1s-0.1,0.1-0.1,0.2c0,0.3,0,0.3-0.2,0.3c-0.1,0-0.1,0-0.2-0.1c0,0,0-0.1,0-0.2s0-0.1,0-0.1c-0.1,0-0.5,0.5-0.5,0.6
	s-0.1,0.1-0.1,0c-0.1-0.1-0.1-0.1-0.1,0.1c0,0.1,0,0.1-0.1,0.2c-0.1,0-0.1,0-0.1,0s-0.1-0.1-0.2-0.2c-0.1-0.1-0.1-0.2-0.2,0
	C18.8,2.9,18.8,3,18.7,3s-0.1,0-0.1,0.2s0,0.2-0.1,0.2s-0.1,0-0.1,0.2c0,0.1-0.1,0.2-0.1,0.2c-0.1,0-0.2-0.1-0.3-0.3
	c-0.1-0.1-0.1-0.1-0.1-0.1s-0.1,0.1-0.1,0.3C17.6,3.8,17.6,4,17.5,4c0,0,0,0,0,0.1h-0.1h-0.1c-0.2,0-0.1,0-0.1,0h-0.1
	c-0.2,0.1-0.3,0.1-0.5,0.1h-0.1h-0.1c-0.2,0.1,0,0-0.2,0.1h-0.1H16c-0.1,0-0.1,0.1-0.2,0.1h-0.1c0,0-0.1,0-0.1,0.1h-0.1h-0.1
	c0,0,0,0.1-0.1,0.1h-0.1c0,0,0,0-0.1,0.1c-0.3,0.2,0.1-0.1-0.2,0.1l-0.1,0.1h-0.1h-0.1c0,0,0,0-0.1,0.1c0,0,0,0-0.1,0.1
	c0,0,0,0-0.1,0c0,0,0,0-0.1,0c0,0,0,0-0.1,0.1c-0.2,0,0,0-0.1,0.1c0,0,0,0-0.1,0s-0.1,0.1-0.2,0.1c-0.1,0.1,0,0-0.1,0.1
	c0,0,0,0-0.1,0s-0.1,0.1-0.1,0.1l-0.1,0.1c0,0,0,0-0.1,0s-0.1,0.1-0.1,0.1c-0.1,0.1,0,0-0.1,0l0,0l0,0c-0.1,0,0,0-0.1,0
	c0,0,0,0.1-0.1,0.1c0,0,0,0-0.1,0l0,0c-0.1,0,0-0.1-0.1,0l0,0l0,0l0,0h-0.1c-0.1,0,0,0-0.1,0l0,0l0,0l0,0l0,0l0,0l0,0l0,0l0,0l0,0
	l0,0l0,0l0,0l0,0l0,0l0,0l0,0l0,0h-0.1l0,0l0,0c0,0,0,0-0.1,0c0,0-0.1-0.1-0.1,0l0,0l0,0l0,0l0,0l0,0l0,0l0,0l0,0c0,0,0,0-0.1,0l0,0
	l0,0c0,0,0,0-0.1,0l0,0l0,0l0,0l0,0l0,0l0,0l0,0l0,0l0,0l0,0l0,0l0,0l0,0l0,0c-0.7,0-0.7,1,0,1c-0.1,0,0,0,0,0l0,0l0,0l0,0l0,0l0,0
	l0,0c0,0,0,0.1,0,0c0.1,0,0,0,0,0l0,0c0,0,0,0.1,0.1,0c0.1,0,0,0,0.1,0h0.1c0.1,0,0,0,0.1,0s-0.1,0.1,0.1,0l0,0l0,0l0,0l0,0
	c0.1,0,0,0,0.1,0h0.1c0-0.1,0.1,0,0.1,0l0,0h0.1h0.1l0,0c0.1,0,0,0,0,0s0,0,0.1,0h0.1l0,0c0,0,0,0,0.1,0l0,0l0,0c0.1-0.1,0,0,0.1,0
	l0,0c0,0,0,0,0.1,0s0.1,0,0,0c0,0,0,0,0.1,0l0.1-0.1c0,0,0,0,0.1,0l0,0c0.1,0,0.1,0,0.1,0s0,0,0.1,0s0.1,0,0.2-0.1c0,0,0,0,0.1,0
	c0,0,0,0,0.1,0l0,0C13,7,13,7.1,13,7.1c0,0.1-0.1,0.1-0.1,0.2s-0.1,0.1-0.1,0.2s-0.1,0.1-0.1,0.2c0,0,0,0,0,0.1l0,0l0,0l0,0
	c0,0,0,0-0.1,0.1L12.5,8c-0.1,0-0.1,0.1-0.2,0.1c-0.1,0-0.2,0.1-0.3,0.1s-0.2,0.1-0.4,0.1c-0.1,0-0.3,0.1-0.4,0.1
	c-0.2,0-0.3,0-0.5,0.1c-0.2,0-0.4,0-0.6,0c-0.2,0-0.4-0.1-0.6-0.1C9.4,8.3,9.2,8.3,9,8.2C8.8,8.1,8.7,8,8.5,7.9
	C8.4,7.8,8.3,7.7,8.2,7.6c0,0,0.1,0,0.1-0.1c0.1-0.1,0.3-0.2,0.4-0.3C8.8,7.1,8.9,7,9,6.8c0-0.1,0-0.3,0.1-0.4
	c0-0.1,0.1-0.3,0.1-0.4s0-0.3,0-0.4S9.1,5.4,9,5.3C8.9,5.2,8.8,5.2,8.7,5.2s-0.2,0-0.3,0s-0.2,0-0.3,0.1c-0.2,0-0.3,0.1-0.4,0.1
	C7.6,5.5,7.5,5.7,7.4,5.8c0,0.1-0.1,0.3-0.1,0.4c0,0.2,0,0.3,0,0.5C7.4,6.9,7.5,7,7.5,7.2c0.1,0.1,0.1,0.2,0.2,0.3
	c-0.1,0-0.2,0.1-0.4,0.1s-0.3,0-0.5,0s-0.3,0-0.5-0.1C6.2,7.5,6.1,7.4,6,7.4C5.8,7.3,5.7,7.2,5.6,7.1c-0.1,0-0.1,0-0.2-0.1
	c0-0.1,0.1-0.1,0.1-0.2s0.1-0.2,0.1-0.3c0-0.1,0-0.2,0-0.3c0-0.1,0-0.2,0-0.3c0-0.1,0-0.2-0.1-0.2c0-0.1-0.1-0.1-0.1-0.2
	S5.3,5.4,5.2,5.4s-0.1,0-0.2,0s-0.1,0-0.2,0S4.7,5.5,4.6,5.5c0,0.1-0.1,0.1-0.1,0.2s0,0.2,0,0.3c0,0.1,0,0.2,0.1,0.3
	c0,0.1,0.1,0.2,0.2,0.3C4.9,6.8,5,6.9,5.1,7l0,0C5,7.1,4.9,7.2,4.8,7.2C4.7,7.3,4.6,7.3,4.5,7.4S4.3,7.5,4.2,7.6
	C4.1,7.7,4,7.8,3.8,7.8C3.7,7.9,3.6,8,3.5,8.1C3.4,8.2,3.3,8.3,3.2,8.5C3.1,8.6,3.1,8.7,3,8.9C3,9,2.9,9.2,2.9,9.3
	c0,0.2,0,0.3,0.1,0.5c0,0.2,0.1,0.3,0.3,0.5c0.1,0.1,0.3,0.2,0.4,0.3c0.1,0,0.1,0.1,0.2,0.1C4,10.8,4.2,10.6,4,10.5
	c-0.1,0-0.1-0.1-0.2-0.1c-0.1-0.1-0.2-0.2-0.4-0.3c0-0.1-0.1-0.2-0.2-0.4c0-0.1-0.1-0.3-0.1-0.4c0-0.1,0-0.3,0.1-0.4
	c0-0.1,0.1-0.2,0.2-0.3c0.1-0.1,0.2-0.2,0.3-0.3S3.9,8.1,4,8.1C4.1,8,4.2,7.9,4.3,7.8c0.1-0.1,0.2-0.1,0.3-0.2
	c0.2,0,0.3-0.1,0.4-0.1c0.1-0.1,0.2-0.1,0.2-0.2c0,0,0,0,0.1-0.1c0.1,0,0.1,0.1,0.2,0.1c0.1,0.1,0.3,0.2,0.4,0.2
	C6,7.7,6.1,7.7,6.3,7.8c0.2,0,0.3,0.1,0.5,0.1s0.3,0,0.5,0s0.3-0.1,0.5-0.1c0,0,0,0,0.1,0S8.2,8,8.4,8.1S8.8,8.3,9,8.4
	c0.2,0.1,0.4,0.2,0.6,0.2c0.2,0.1,0.4,0.1,0.6,0.1c0.2,0,0.4,0,0.6,0c0.2,0,0.3,0,0.5-0.1c0.2,0,0.3-0.1,0.4-0.1
	c0.1,0,0.3-0.1,0.4-0.1c0.1,0,0.2-0.1,0.3-0.1h0.1c0,0,0,0,0,0.1s0,0.2-0.1,0.2c0,0.1,0,0.2-0.1,0.3c0,0.1,0,0.2-0.1,0.3
	c0,0.1,0,0.2-0.1,0.3c0,0.1,0,0.2-0.1,0.3c0,0.1,0,0.2-0.1,0.3c0,0.1,0,0.2-0.1,0.3v0.1c0,0,0,0.1-0.1,0.1c0,0.1-0.1,0.2-0.1,0.2
	c0,0.1-0.1,0.2-0.1,0.2c0,0.1-0.1,0.2-0.1,0.3s-0.1,0.2-0.1,0.3s-0.1,0.2-0.1,0.3s0,0.1-0.1,0.2l0,0c-0.1,0-0.2,0-0.3,0
	s-0.2,0-0.3-0.1c-0.1,0-0.1,0-0.2,0c0,0,0-0.1,0.1-0.1c0.4-0.7,0-1.6-0.7-2s-1.6,0-2,0.7c-0.1,0.3-0.2,0.6-0.1,0.9c0,0,0,0-0.1,0
	s-0.3,0-0.4,0c0.2-1-0.4-1.5-1.2-1.5c-0.8,0.1-1.4,0.7-1.3,1.5c0,0.5,0.3,0.9,0.7,1.1c-0.3,0.8,0,1.7,0.7,2.1
	c0.1,0.1,0.2,0.1,0.3,0.1c-0.1,0.2-0.2,0.3-0.2,0.5c-0.3-0.4-0.7-0.6-1.2-0.5c-0.8,0.1-1.3,0.7-1.3,1.5c0.1,0.7,0.6,1.2,1.2,1.3
	c0,0.1-0.1,0.1-0.1,0.2c-0.4,0.7-0.1,1.6,0.6,2s1.6,0.1,2-0.5c0,0.1,0,0.2,0.1,0.4c-0.1,0.1-0.3,0.2-0.4,0.2C6.9,20,6.8,20,6.7,20.1
	c-0.1,0.1-0.3,0.2-0.4,0.3l0,0c-0.7-0.4-1.5-0.3-2,0.4c-0.5,0.7-0.3,1.6,0.4,2.1c0.6,0.4,1.4,0.3,1.9-0.1c0.1,0.1,0.2,0.1,0.3,0.2
	c-0.3,0.1-0.5,0.3-0.6,0.6c-0.1,0.2-0.2,0.5-0.2,0.7c-0.6-0.3-1.4,0-1.7,0.6c-0.4,0.7-0.2,1.5,0.5,2C5,27,5.1,27,5.2,27
	c-0.1,0.5,0.2,1.1,0.8,1.4c0.1,0.1,0.3,0.1,0.4,0.1c0,0.1,0,0.2-0.1,0.3c-0.1,0.8,0.5,1.4,1.3,1.5C7.7,30.6,7.8,30.8,8,31
	c0.5,0.4,1.3,0.4,1.8-0.2c0.4-0.5,0.4-1.3-0.2-1.8c-0.1-0.1-0.3-0.2-0.4-0.2c0-0.1,0-0.2,0-0.3c0.2,0,0.3-0.1,0.5-0.2
	c0.1,0.1,0.3,0.2,0.5,0.2c0.8,0.2,1.6-0.2,1.8-0.9c0.2-0.6,0-1.3-0.6-1.7c0.1-0.1,0.1-0.1,0.2-0.2c0.2-0.3,0.3-0.6,0.3-0.9
	c0.1,0.1,0.3,0.1,0.4,0.2c0.8,0.2,1.6-0.3,1.7-1.1c0.2-0.8-0.3-1.6-1.1-1.7c-0.1,0-0.3,0-0.4,0c0.3-0.4,0.4-0.9,0.2-1.3
	c0.2-0.2,0.4-0.4,0.6-0.7c0-0.1,0.1-0.2,0.1-0.2c0.3,0.5,1,0.8,1.6,0.7c0.8-0.2,1.3-1,1.1-1.8c-0.2-0.8-1-1.3-1.8-1.1
	c-0.1,0-0.2,0.1-0.3,0.1c0-0.1-0.1-0.2-0.1-0.2v-0.1c0.2-0.3,0.3-0.8,0.2-1.1h0.1c0,0.7,0.5,1.3,1.1,1.5c0.8,0.3,1.7-0.2,2-1
	c0.3-0.8-0.2-1.7-1-2c-0.3-0.1-0.6-0.1-0.9,0c-0.1-0.5-0.4-1-0.9-1.2l0,0c0.1-0.2,0.1-0.3,0.2-0.5c0.1-0.8-0.5-1.4-1.2-1.5
	c-0.4,0-0.8,0.1-1.1,0.4c0,0,0,0-0.1,0l0,0v-0.1c0-0.2,0.1-0.4,0.1-0.7c0-0.1,0-0.1,0.1-0.2c0-0.1,0.1-0.2,0.1-0.2
	c0-0.1,0.1-0.2,0.1-0.2c0-0.1,0.1-0.2,0.1-0.2c0-0.1,0-0.2,0.1-0.2c0-0.1,0-0.2,0.1-0.2c0-0.1,0-0.2,0.1-0.2c0-0.1,0-0.2,0.1-0.2
	c0-0.1,0-0.1,0.1-0.2c0-0.1,0-0.1,0.1-0.2c0-0.1,0-0.1,0.1-0.2c0-0.1,0-0.1,0.1-0.2c0-0.1,0-0.1,0.1-0.2c0-0.1,0-0.1,0.1-0.2
	c0-0.1,0.1-0.1,0.1-0.2c0-0.1,0.1-0.1,0.1-0.2c0-0.1,0.1-0.1,0.1-0.2c0,0,0-0.1,0.1-0.1c0,0,0-0.1,0.1-0.1c0,0,0-0.1,0.1-0.1
	c0,0,0-0.1,0.1-0.1V7.5c0,0,0,0,0-0.1l0,0c0.1,0-0.1,0,0.1-0.1h0.1c0,0,0,0,0-0.1c0.1-0.1,0,0.1,0.1-0.1c0.1,0,0.2-0.1,0.3-0.2
	c0,0,0,0,0.1,0h0.1c0,0-0.1,0,0-0.1c0,0,0,0,0.1,0c0,0,0,0,0-0.1c0,0,0,0,0.1,0c0,0,0,0,0.1,0c0,0,0.1,0,0.1-0.1c0,0,0,0,0.1,0h0.1
	c0.1,0,0.1,0,0.1-0.1h0.2c0,0,0.1-0.1,0.2-0.1s0.1,0,0.2-0.1h0.1c0.1,0,0.1,0,0.2,0l0,0c0,0,0,0.2,0.2,0.3c0.1,0.1,0.2,0.2,0.2,0.3
	c0.1,0.2,0.3,0.4,0.5,0.6s1.1,1,1.6,1.3L19.6,9h-0.1c-0.1,0-0.2,0.1-0.3,0.1c-0.2,0.1-0.4,0.1-0.7,0c-1.1-0.9-1.3-1-1.5-1.1
	c-0.3-0.2-0.3-0.2-1-0.2c-0.2,0-0.2,0-0.1,0.1c0,0.1,0,0.1-0.2,0.1c-0.1,0-0.2,0-0.2,0.1c-0.1,0-0.1,0.1-0.3,0.1s-0.3,0-0.2,0.1
	c0.1,0,0.1,0.1,0,0.2c0,0.1-0.1,0.1-0.3,0.2c-0.1,0-0.1,0.1-0.1,0.1h0.1c0.1,0,0.1,0.1,0,0.2c0,0.1-0.2,0.2-0.4,0.3h-0.1
	c0,0,0.1,0.1,0.3,0.2c0.3,0.2,0.4,0.2,0.4,0.3s0,0.1-0.1,0.1L14.7,10c0,0,0,0,0,0.1s0,0.1-0.1,0.2c-0.2,0.1-0.2,0.1-0.2,0.1
	c0,0.1,0,0.2-0.2,0.3c-0.1,0.1-0.1,0.2-0.1,0.2c0,0.1,0,0.1,0.2,0.1s0.2,0,0.3,0.1c0.1,0,0.1,0.1,0,0.2c0,0,0,0.1,0.1,0.1
	s0.1,0,0.1,0.1s0,0.1-0.1,0.2c0,0.1-0.1,0.1-0.1,0.2c0,0.1,0,0.1,0.1,0.1c0.2,0,0.3,0,0.4,0.1c0.1,0.1,0.1,0.1,0,0.2
	c0,0.2,0,0.2,0.1,0.2s0.2,0,0.2,0.2c0,0.1,0,0.1,0.1,0.2c0.1,0,0.1,0.2,0.2,0.4c0,0.1,0,0.1,0,0.1l0.4-0.4c0,0,0,0,0.1,0l0.1-0.1
	c0.1-0.1,0.2-0.1,0.3-0.1c0,0,0,0,0,0.1s0,0.1,0,0.2c0,0,0,0.1,0.1,0.1s0.1,0,0.1,0.2c0,0.1,0,0.2,0,0.2c0,0.1,0,0.1,0.1,0.1
	s0.1,0,0.2,0.4c0.1,0.3,0.1,0.5,0.1,0.5s0.1,0,0.1-0.1c0.1-0.1,0.2-0.2,0.2-0.3c0.1-0.1,0.2-0.2,0.2-0.2c0.1,0,0.1,0,0.1,0.1
	s0,0.1,0.1,0.1s0.2,0.2,0.2,0.4c0,0.1,0,0.2,0.1,0.2c0,0,0.1,0,0.2-0.1s0.1-0.1,0.2-0.1s0.2,0.1,0.2,0.2c0.1,0.2,0.1,0.2,0.2,0.1
	c0.2-0.1,0.2,0,0.3,0.2c0,0.2,0,0.2,0.1,0.2s0.2,0,0.2,0.1c0,0,0,0.1,0.1,0.1c0,0,0.2,0.1,0.3,0.2c0.2,0.2,0.2,0.2,0.3,0.2
	c0.1,0,0.1,0,0.1-0.1c0,0,0-0.1,0.1-0.1c0,0,0.1-0.1,0.1-0.3c0.1-0.2,0.1-0.2,0.1-0.2c0.1,0,0.1-0.1,0.1-0.2c0-0.2,0-0.2,0.1-0.3
	c0.1,0,0.1,0,0.2-0.3s0.1-0.3,0.2-0.3h0.1v-0.2c0-0.1,0-0.2,0-0.2c0-0.6,0-0.7,0.2-0.6c0.2,0.2,0.2,0.2,0.2,0.4s0.1,0.2,0.2,0.2
	s0.1,0,0.1,0.1s0,0.2,0.1,0.2s0.2,0.1,0.4,0.3c0.2,0.2,0.3,0.3,0.4,0.3c0,0,0-0.1,0-0.3s0.1-0.4,0.1-0.4s0.2,0,0.2,0.1s0.1,0,0.1,0
	c0-0.1,0.1-0.1,0.1,0l0.1,0.1c0.1,0,0.1,0.1,0.2,0.2c0,0.1,0.1,0.2,0.1,0.2s0,0,0.1-0.1c0-0.1,0.1-0.1,0.1-0.2
	c0.1-0.1,0.1-0.1,0.2-0.1s0.1,0,0.1,0c0-0.1,0.3-0.1,0.4,0.2v0.2l0.1-0.2c0.1-0.1,0.2-0.1,0.3,0c0,0.1,0.1,0.1,0.1,0.1
	c0.1,0,0.1,0,0.2,0.1c0,0.1,0.1,0.1,0.1,0.1c0.1,0,0.1,0,0.2-0.1l0.1-0.1c0.1,0,0.3,0.3,0.5,0.5c0.2,0.1,0.1-0.1,0.3-0.1
	c0.1,0,0.2,0,0.4,0.1c0.1,0.1,0,0.3,0,0.4s0.2-0.2,0.3-0.2c0.1,0,0.5,0.1,0.6,0.2c0,0,0.5,0.2,0.6,0.2c0.1-0.1-0.2-0.4-0.3-0.8
	c-0.1-0.7,0.3-0.7,0.3-0.8c0.1-0.1-0.4-0.4-0.5-0.6c0-0.1-0.1-0.2-0.1-0.3s0-0.1,0.1-0.3c0.1-0.1,0.1-0.2,0.1-0.2s-0.1,0-0.1-0.1
	c-0.1-0.1-0.2-0.2-0.2-0.3s0-0.1-0.1-0.1s-0.1-0.1,0-0.1l0.1-0.1c0.2-0.1,0.1-0.2-0.1-0.3c-0.1-0.1-0.2-0.1-0.2-0.1s0-0.1-0.1-0.1
	s-0.1,0-0.1-0.1v-0.1c0,0,0.1-0.1,0.3-0.2c0.2-0.1,0.1-0.1-0.1-0.2c-0.1-0.1-0.2-0.1-0.2-0.2l-0.1-0.1c-0.1,0-0.1-0.1,0-0.1
	c0.1-0.1,0-0.1-0.1-0.2c-0.1-0.1-0.1-0.2,0-0.3c0.2-0.1,0.3-0.2,0.5-0.3s0.4-0.2,0.4-0.3c-0.1,0-0.4-0.1-0.6-0.2
	c-0.3,0-0.3-0.1-0.3-0.2c0-0.1,0-0.1-0.1-0.1s-0.2,0-0.2-0.1V8.5V8.4c0,0-0.1,0-0.3,0c-0.2,0-0.3,0-0.3,0c-0.1-0.1,0-0.2,0-0.2
	c0.1-0.1,0-0.1-0.2-0.1c-0.3,0-0.6,0-1,0.1c-0.2,0-0.4,0-0.5,0c-0.6,0.1-0.6,0-0.5-0.1c0-0.1,0-0.1,0.4-0.2c0.3-0.1,0.5-0.1,0.6,0
	c0,0,0.2,0,0.3,0c0.2,0,0.2,0,0.2-0.1l0.1-0.1c0.1,0,0.1-0.1,0.2-0.1c0,0,0.1,0,0.3-0.1c0.2,0,0.3-0.1,0.2-0.1
	c-0.1-0.1,0-0.3,0.2-0.3c0,0,0.1,0,0.1-0.1c0,0,0.1-0.1,0.2-0.2s0.2-0.1,0.2-0.2c0.1-0.1,0.2-0.3,0.3-0.3c0.1,0,0.1,0,0.1-0.1
	s0-0.1,0.5-0.3c0.2-0.1,0.4-0.1,0.5-0.2c0.1,0,0.2-0.1,0.2-0.1c0.2,0,0.5-0.3,0.5-0.3C29.1,5.3,28.7,5.1,28.3,5.1z M4.9,6.1
	c0-0.1,0-0.1,0-0.2V5.8c0,0,0,0,0.1,0h0.1h0.1c0,0,0.1,0,0.1,0.1c0,0,0,0.1,0.1,0.1c0,0.1,0,0.1,0,0.2s0,0.1,0,0.2s0,0.1,0,0.2
	s0,0.1-0.1,0.2v0.1C5.2,6.7,5.1,6.7,5.1,6.6C5,6.5,5,6.4,5,6.3C4.9,6.2,4.9,6.1,4.9,6.1z M7.6,6.2c0-0.1,0.1-0.2,0.1-0.3
	c0.1-0.1,0.1-0.2,0.2-0.3C8,5.6,8,5.5,8.1,5.5s0.2-0.1,0.2-0.1c0.1,0,0.2,0,0.2,0c0.1,0,0.1,0.1,0.2,0.1c0.1,0,0.1,0.1,0.1,0.2
	s0,0.2,0,0.3c0,0.1,0,0.2-0.1,0.3c0,0.1-0.1,0.2-0.2,0.4c0.1,0.1,0,0.2-0.1,0.3C8.3,7.1,8.2,7.2,8.1,7.3L8,7.4
	C7.9,7.3,7.8,7.2,7.8,7.1C7.7,6.9,7.6,6.8,7.6,6.6C7.5,6.5,7.5,6.4,7.6,6.2z M8,25.8c-0.1,0.1-0.2,0.2-0.3,0.3
	c-0.1-0.2-0.3-0.3-0.5-0.5c0,0-0.1,0-0.1-0.1l0,0l0,0c0.1,0,0.2-0.1,0.3-0.1c0.3,0,0.5,0,0.7-0.1C8,25.5,8,25.6,8,25.8
	C8,25.7,8,25.7,8,25.8z M9.4,20.4c0,0.1,0,0.2-0.1,0.3c-0.2,0-0.3,0.1-0.5,0.2c0-0.2-0.1-0.3-0.2-0.4C8.9,20.5,9.1,20.5,9.4,20.4z
	 M10.7,19.8c-0.1,0.1-0.3,0.2-0.4,0.3c-0.1,0.2-0.2,0.4-0.3,0.6c-0.1,0-0.2,0-0.4,0c0,0,0,0-0.1,0l0,0c0-0.1,0-0.2,0.1-0.3
	c0.2-0.1,0.4-0.3,0.5-0.5s0.1-0.4,0.2-0.5c0.1,0,0.2,0,0.3,0C10.6,19.4,10.6,19.6,10.7,19.8z M8.3,22.5c0,0.1,0.1,0.2,0.1,0.4
	c-0.1,0-0.1-0.1-0.2-0.1c-0.1,0-0.2-0.1-0.2-0.1C8.1,22.6,8.2,22.6,8.3,22.5z M8.9,23.4c0.1,0.1,0.2,0.1,0.2,0.1l0,0
	c0,0.1,0.1,0.1,0.1,0.2l0,0C9.1,23.9,9,24,9,24.1C9,23.9,9,23.6,8.9,23.4L8.9,23.4z M11.5,15.3c0,0-0.1,0.1-0.1,0.2
	c-0.1-0.3-0.2-0.6-0.5-0.8c0-0.1,0.1-0.1,0.1-0.2c0-0.1,0.1-0.2,0.1-0.2l0.1,0.1c0.1,0.1,0.2,0.2,0.2,0.3c0.1,0.1,0.2,0.2,0.3,0.3
	l0.1,0.1C11.8,15.1,11.6,15.2,11.5,15.3z M8.7,12.3c-0.2,0.2-0.3,0.4-0.3,0.7c-0.1,0.7,0.3,1.4,0.9,1.6C9.1,14.7,9,14.8,8.9,15
	c-0.2-0.3-0.5-0.6-0.9-0.7c0-0.1,0.1-0.1,0.1-0.2c0.3-0.6,0.2-1.4-0.3-1.8c0.1-0.1,0.2-0.1,0.3-0.2L8.2,12
	C8.4,12.1,8.5,12.2,8.7,12.3z M6.2,17c0.1-0.1,0.2-0.3,0.2-0.4c0.1,0.1,0.1,0.2,0.2,0.2C6.5,16.9,6.5,17,6.4,17
	C6.3,17,6.3,17,6.2,17z M8.4,25.2c0.2-0.1,0.4-0.3,0.5-0.5c0-0.1,0.1-0.1,0.1-0.2c0,0.3,0.1,0.7,0.2,0.9l0,0c-0.3,0-0.6,0-0.9,0.1
	C8.3,25.4,8.3,25.3,8.4,25.2z M11.2,23c0,0.1,0,0.2,0,0.4c-0.1-0.1-0.3-0.1-0.4-0.2c0.2-0.2,0.3-0.3,0.4-0.6c0-0.1,0-0.1,0.1-0.2
	c0.1,0,0.2,0,0.3,0C11.3,22.6,11.3,22.8,11.2,23z M12.1,18c-0.1,0-0.2,0-0.3,0c0-0.1,0-0.3,0-0.4c0.1,0.1,0.2,0.1,0.4,0.2
	C12.2,17.8,12.2,17.8,12.1,18C12.2,17.9,12.2,17.9,12.1,18z M11.4,13.9c0-0.1,0.1-0.2,0.1-0.3s0.1-0.2,0.1-0.3s0.1-0.2,0.1-0.3
	s0.1-0.2,0.1-0.3v-0.1c0,0,0,0,0-0.1c0,0.5,0.3,1,0.8,1.2c0,0.1-0.1,0.1-0.1,0.2c-0.1,0.3-0.1,0.6-0.1,0.8c-0.1,0-0.2,0-0.3,0.1
	c-0.1-0.1-0.1-0.1-0.2-0.2c-0.1-0.1-0.2-0.2-0.3-0.3S11.4,14.1,11.4,13.9c0,0-0.1,0-0.1-0.1l0,0C11.3,14,11.3,13.9,11.4,13.9z
	 M11.1,12.1c0.1,0,0.2,0,0.3,0v0.1c0,0.1,0,0.2-0.1,0.3v0.1c-0.1-0.2-0.3-0.5-0.5-0.6h0.1C10.8,12,10.9,12,11.1,12.1z M7.8,11.4
	L7.8,11.4c0.1,0.1,0.2,0.3,0.3,0.4c0,0-0.1,0-0.1,0.1C7.9,12,7.8,12,7.7,12.1l0,0c-0.1,0-0.1-0.1-0.2-0.1s-0.1-0.1-0.2-0.1
	c0.1-0.2,0.1-0.3,0.1-0.5C7.5,11.4,7.7,11.4,7.8,11.4z M6.8,17.2c-0.1,0-0.1,0-0.2-0.1C6.7,17,6.7,17,6.8,16.9
	C7,17,7.1,17.1,7.3,17.1c0.6,0.1,1.3-0.2,1.6-0.7c0.1,0.2,0.2,0.3,0.4,0.4c-0.1,0.1-0.2,0.2-0.2,0.4C9,17.3,9,17.5,9,17.6
	c-0.5-0.1-1.1,0.2-1.4,0.7C7.5,17.8,7.2,17.4,6.8,17.2z M7.6,19.9L7.6,19.9C7.5,19.8,7.5,19.8,7.6,19.9C7.6,19.8,7.6,19.8,7.6,19.9z
	 M13.8,17.6c-0.3,0.2-0.6,0.6-0.7,1c-0.2-0.2-0.4-0.4-0.7-0.5h-0.1c0-0.1,0-0.1,0-0.2c0,0,0,0,0-0.1c0.5,0.1,1-0.1,1.3-0.4l0,0
	C13.8,17.4,13.8,17.5,13.8,17.6z M18.9,7.9c0,0-0.5-0.3-0.8-0.6c-0.2-0.2-0.8-0.7-0.9-0.9c-0.2-0.2-0.6-0.9-0.7-1.2l0,0h0.1l0.1-0.1
	h0.1h0.1c0.3,0,0,0,0.2,0h0.1h0.1l0,0c0.1,0.1,0.1,0.3,0,0.3h-0.1c-0.1,0-0.1,0-0.1,0s0.1,0.1,0.2,0.2s0.2,0.2,0.2,0.3
	c0.1,0.3,0.3,0.4,0.4,0.5c0.1,0,0.2,0.1,0.2,0.2C18.6,6.9,19.1,7.8,18.9,7.9z"/>
</svg>
