<?xml version="1.0" encoding="utf-8"?>
<!-- Generator: Adobe Illustrator 25.4.1, SVG Export Plug-In . SVG Version: 6.00 Build 0)  -->
<svg version="1.1" id="frog" xmlns="http://www.w3.org/2000/svg" xmlns:xlink="http://www.w3.org/1999/xlink" x="0px" y="0px"
	 viewBox="0 0 32 32" style="enable-background:new 0 0 32 32;" xml:space="preserve">
<path d="M23.4839,2.2062c0.0496-0.0663,0.1013-0.1346,0.1382-0.2095c0.0116-0.023,0.0177-0.0486,0.0177-0.0743
	c0-0.2325-0.0766-0.3504-0.2279-0.3504c-0.0157,0-0.031,0.002-0.046,0.0063c-0.3631,0.1039-0.591,0.4031-0.6996,0.7315
	c-0.0586-0.2189-0.0393-0.4754,0.0663-0.6376c0.0476-0.0476,0.0726-0.1472,0.0469-0.2095
	c-0.0563-0.1359-0.2255-0.1359-0.3488-0.1359c-0.039,0-0.0766,0.0137-0.1066,0.0387c-0.2958,0.2465-0.3401,0.6123-0.3385,0.9508
	c-0.0746-0.0909-0.1489-0.1799-0.2139-0.2409c-0.0353-0.0533-0.05-0.1586-0.0619-0.2429c-0.0183-0.1309-0.046-0.3288-0.2359-0.3288
	c-0.0256,0-0.0763,0.013-0.0993,0.0243c-0.1842,0.092-0.2511,0.2249-0.2745,0.3201c-0.0776,0.3144,0.1869,0.6832,0.3991,0.9794
	c0.023,0.032,0.0453,0.063,0.066,0.0926c-0.007,0.0003-0.015,0.0014-0.0207,0.0023c-0.4334,0.07-0.6376-0.1702-0.7509-0.3075
	c-0.0536-0.0653-0.0959-0.1169-0.1719-0.1316c-0.0577-0.011-0.1445,0.0177-0.1829,0.0606
	c-0.0743,0.0829-0.0613,0.2012-0.0496,0.3058c0.0017,0.017,0.0036,0.0323,0.004,0.0423c0,0.018,0.003,0.0357,0.0083,0.0527
	c0.1172,0.3504,0.3658,0.5314,0.5853,0.6906c0.1632,0.1186,0.3045,0.2212,0.3734,0.3818c0.0167,0.0566-0.029,0.2422-0.5227,0.8448
	l-0.0563,0.0693c-0.1462,0.1819-0.2076,0.435-0.2615,0.6586c-0.0287,0.1189-0.0766,0.3185-0.1093,0.3471
	c-0.2245-0.0047-0.8951-0.6119-0.9205-0.7829c-0.0123-0.2975-0.4191-1.5048-0.5677-1.8216C18.7862,3.0418,17.492,1,16.1405,1
	c-0.0816,0-0.1626,0.0073-0.2555,0.026c-0.7039,0.2012-1.1696,0.7745-1.6203,1.3289c-0.1373,0.1689-0.2748,0.3385-0.4194,0.4974
	c-0.0104,0.0113-0.019,0.024-0.0256,0.0377l-0.3065,0.613c-0.1656,0.3315-0.484,1.2376-0.5324,1.7037
	c-0.3165,0.1665-0.5726,0.4654-0.7822,0.7095c-0.0543,0.063-0.1156,0.1346-0.1692,0.1912c-0.0276-0.0963-0.058-0.2245-0.0833-0.3298
	c-0.0646-0.2712-0.1379-0.5783-0.2362-0.8052c-0.0034-0.0077-0.2925-0.6676-0.585-1.0114c0.0889-0.0733,0.1829-0.1382,0.2805-0.2056
	c0.1965-0.1359,0.3997-0.2765,0.5863-0.5003c0.008-0.01,0.015-0.0206,0.0206-0.032c0.0457-0.0909,0.0399-0.1952-0.016-0.2858
	c-0.066-0.1069-0.2049-0.1982-0.3391-0.1872c-0.1029,0.0206-0.1979,0.0466-0.2925,0.0723c-0.1236,0.034-0.2422,0.0667-0.3758,0.0843
	c0.0053-0.0227,0.0097-0.043,0.013-0.0616l0.03-0.0393c0.1482-0.1936,0.3132-0.4084,0.3241-0.6763
	c0.1342-0.0573,0.1429-0.1772,0.1429-0.2072c0-0.1755-0.1792-0.4111-0.3621-0.4111c-0.093,0-0.1719,0.057-0.2059,0.1489
	c-0.101,0.2738-0.2082,0.4331-0.3494,0.6049c-0.0056-0.3181-0.043-0.6399-0.2199-0.8725c-0.1199-0.1583-0.4847-0.0812-0.4811,0.1892
	c0.0206,0.1239,0.0619,0.4334,0.0077,0.6776C9.8032,2.0061,9.6213,1.7626,9.3518,1.547C9.3221,1.5234,9.2855,1.5107,9.2479,1.5107
	c-0.2302,0-0.2812,0.1196-0.2882,0.2049c-0.0447,0.2126,0.0819,0.3628,0.1662,0.463c0.0273,0.0323,0.0773,0.092,0.0783,0.1116
	c0,0.0703-0.0023,0.1433-0.0047,0.2172C9.1892,2.8302,9.1779,3.196,9.3405,3.5208c0.1006,0.2349,0.0966,0.4471,0.092,0.6929
	c-0.003,0.1556-0.006,0.3168,0.0173,0.4677l0.0007,0.2409C9.4811,5.2415,9.5127,5.538,9.5633,5.9097
	c0.0363,0.2678,0.5244,1.3245,0.5577,1.3908c0.0056,0.0116,0.013,0.0223,0.021,0.0323c0.0237,0.0287,0.2508,0.2861,0.8681,0.5097
	c0.3042,0.1099,0.5486,0.1692,0.7452,0.1802c-0.0833,0.1562-0.1859,0.3598-0.2545,0.5726c-0.137,0.4254-0.1499,0.8605-0.1513,0.9684
	c-0.1186,0.4347-0.064,0.8145-0.0067,1.216l0.0067,0.1556c0,0.8741,0.2448,1.616,0.5263,2.3552
	c-0.6793,0.7632-1.3678,1.8562-1.5751,2.3296c-0.2082,0.4764-0.4594,0.9891-0.4581,0.9891l0,0
	c-0.3345,0.5254-0.3898,1.0833-0.4434,1.623c-0.0193,0.1939-0.0383,0.3895-0.0693,0.577c-0.1942,0.9061,0.2788,1.6736,0.7875,2.3816
	l0.1122,0.4398c0.6319,1.4065,1.2979,2.2563,2.1414,3.3327c0.1363,0.1739,0.2772,0.3538,0.4371,0.559l0.0836,0.0816
	c0.3078,0.2968,0.4634,0.4871,0.4751,0.54c-0.4487,0.4487-1.0104,0.7299-1.6054,1.0284c-0.1885,0.0946-0.3794,0.1902-0.5717,0.2938
	c-0.485,0.2695-1.0084,0.5123-1.7107,0.7939c-0.3888,0.1942-0.6496,0.5063-0.9328,0.9331
	c-0.1479,0.2961-0.2675,0.7436-0.1163,1.0324c0.0656,0.1256,0.1746,0.2079,0.3331,0.2415c0.0276,0.1789,0.1183,0.3371,0.2865,0.4214
	c0.0363,0.018,0.0737,0.02,0.1239,0.0167c0.0173,0.015,0.0373,0.03,0.06,0.0447c0.068,0.0343,0.13,0.0506,0.1889,0.0503
	c0.1982,0,0.2752-0.1716,0.3262-0.2849c0.0087-0.0196,0.0176-0.0396,0.0276-0.0599c0.1662-0.0203,0.2502-0.0946,0.2502-0.2226
	c0-0.0746,0.011-0.1426,0.0313-0.2045c-0.0247,0.1519-0.0056,0.3102,0.0866,0.4714c0.027,0.0476,0.0756,0.0783,0.13,0.0833
	c0.0553,0.0036,0.1076-0.0173,0.1426-0.0593c0.1102-0.1322,0.2126-0.2645,0.3125-0.3968c0.013,0.0856,0.0416,0.1709,0.0909,0.2532
	c0.0263,0.0443,0.0716,0.0737,0.1226,0.0796c0.051,0.0077,0.102-0.0106,0.1382-0.0476c0.2559-0.2559,0.4454-0.569,0.6276-0.8731
	c0.1066-0.1063,0.2152-0.2135,0.2975-0.2552c0.0839-0.0336,0.1732-0.0623,0.2639-0.0916c0.2422-0.0783,0.5164-0.1676,0.7675-0.3685
	c0.3701-0.3368,0.6713-0.7302,0.9628-1.1114c0.2525-0.3298,0.5137-0.6713,0.8075-0.9664c0.3814-0.3052,0.3701-0.8538,0.2388-1.2409
	c-0.0333-0.1999-0.1126-0.4151-0.1895-0.6233c-0.0713-0.1936-0.1452-0.3937-0.1739-0.566l-0.0503-0.2615
	c-0.3364-1.746-0.6546-3.3983-1.5854-4.8507c0.595-0.2985,1.1196-0.7076,1.6047-1.2549c0.009-0.0116,0.8172-1.0713,1.2789-1.6233
	c0.0423,0.027,0.1003,0.0463,0.1805,0.0273c0.2569,0.3571,0.5263,0.7165,0.8378,1.0334l0.049,0.1469
	c0.0073,0.022,0.0196,0.0427,0.0353,0.06c0.6816,0.7436,1.4282,1.3012,2.2217,1.6607l-0.2552,0.2548
	c-0.0106,0.0106-0.0203,0.023-0.0276,0.0363c-0.7675,1.3705-1.0553,2.8023-1.3602,4.318c-0.042,0.2089-0.0846,0.4204-0.1303,0.6409
	c-0.0287,0.1732-0.0896,0.3701-0.1479,0.561c-0.0623,0.2012-0.1259,0.4094-0.1522,0.5787
	c-0.0856,0.2569-0.2482,0.8991,0.0893,1.3215c0.0087,0.011,0.019,0.021,0.0303,0.0297c0.2359,0.1766,0.4797,0.3594,0.7079,0.5863
	c0.1043,0.1256,0.1866,0.2592,0.2731,0.4011c0.1559,0.2545,0.3168,0.5177,0.6276,0.7389c0.2522,0.1513,0.5427,0.2629,0.7992,0.3611
	l0.1926,0.0743c0.2115,0.1056,0.3798,0.3331,0.493,0.5027c0.0593,0.079,0.0979,0.1622,0.1353,0.2425
	c0.0696,0.1489,0.1479,0.3178,0.3524,0.4201c0.077,0.0393,0.1722,0.012,0.2172-0.063c0.0436-0.0726,0.0686-0.1469,0.08-0.2226
	c0.1182,0.1472,0.2292,0.2725,0.3338,0.3771c0.0363,0.0366,0.0886,0.056,0.1399,0.0473c0.0513-0.007,0.0966-0.037,0.1226-0.0823
	c0.1256-0.2199,0.1159-0.4334,0.0436-0.6343c0.2065,0.2279,0.3318,0.4794,0.3834,0.7656c0.0147,0.079,0.0836,0.1366,0.1639,0.1366
	c0.0104,0,0.0183,0.003,0.0393,0.012c0.027,0.0116,0.0643,0.028,0.1126,0.028c0.0779,0,0.1419-0.0386,0.1942-0.1233
	c0.0203,0.0116,0.043,0.019,0.0667,0.0213c0.0469,0.0027,0.099-0.0126,0.1339-0.0483c0.0633-0.0633,0.08-0.13,0.0919-0.1842
	c0.023-0.023,0.039-0.0527,0.0456-0.0853c0.0067-0.0317,0.012-0.063,0.017-0.0943c0.041,0.0083,0.0823,0.002,0.1179-0.019
	c0.1382-0.0796,0.2405-0.2252,0.2882-0.4094c0.065-0.2515,0.0243-0.5427-0.1039-0.7572c-0.3788-0.6623-1.0567-0.9125-1.7123-1.1546
	c-0.2555-0.0943-0.5193-0.1916-0.7595-0.3122c-0.2349-0.1176-0.546-0.3788-0.7233-0.6126
	c-0.2545-0.2545-0.6453-0.4531-0.9901-0.6286c-0.2159-0.1099-0.5423-0.2762-0.5763-0.3321c0.0333-0.1936,0.7948-1.1533,1.2499-1.727
	c0.1802-0.2275,0.3524-0.4441,0.48-0.6126l0.1226-0.1226c0.0113-0.0113,0.0206-0.024,0.0283-0.038
	c0.1203-0.2202,0.2572-0.4394,0.3901-0.6516c0.2665-0.4261,0.5417-0.8668,0.7126-1.3608l0.0953-0.0953
	c0.0203-0.02,0.0346-0.045,0.0423-0.072c0.0776-0.2722,0.2419-0.5267,0.4154-0.7962c0.0823-0.1276,0.1659-0.2572,0.2478-0.4014
	c0.1303-0.2602,0.2015-0.5913,0.2009-0.9165c0.1172-1.1736-0.2035-2.5068-0.8751-3.6471l-0.059-0.1179
	c-0.3085-0.6679-0.7392-1.2472-1.156-1.8072c-0.0737-0.0986-0.1462-0.1965-0.2182-0.2948c0.0766-0.2039,0.1602-0.4094,0.2445-0.617
	c0.3961-0.9758,0.8062-1.9845,0.6513-3.0671l-0.2618-1.3741c-0.0576-0.1802-0.101-0.3888-0.1039-0.4584
	c0.0863-0.0287,0.3091-0.039,0.4094-0.0433c0.0733-0.0034,0.1373-0.0067,0.1805-0.012c0.2822-0.0343,0.8678-0.3644,0.9944-0.533
	c0.0669-0.0896,0.1159-0.2292,0.1589-0.3521c0.019-0.0539,0.045-0.1283,0.0536-0.1436c0.1979-0.2545,0.3755-0.7952,0.3911-0.8451
	c0.1316-0.3284,0.1223-1.022,0.1209-1.104L23.1131,4.668c-0.0343-0.1979,0.0133-0.4537,0.1459-0.7859
	c0.1043-0.2782,0.088-0.561,0.0716-0.8342c-0.0147-0.2499-0.0287-0.486,0.0443-0.6826C23.4033,2.3115,23.4439,2.2592,23.4839,2.2062
	z"/>
</svg>
