<?xml version="1.0" encoding="utf-8"?>
<!-- Generator: Adobe Illustrator 23.1.1, SVG Export Plug-In . SVG Version: 6.00 Build 0)  -->
<svg version="1.1" id="frog" xmlns="http://www.w3.org/2000/svg" xmlns:xlink="http://www.w3.org/1999/xlink" x="0px" y="0px"
	 viewBox="0 0 32 32" style="enable-background:new 0 0 32 32;" xml:space="preserve">
<style type="text/css">
	.st0{fill:#FFFFFF;}
</style>
<path class="st0" d="M23.5,2.2c0-0.1,0.1-0.1,0.1-0.2c0,0,0,0,0-0.1c0-0.2-0.1-0.4-0.2-0.4c0,0,0,0,0,0C23,1.7,22.8,2,22.7,2.3
	c-0.1-0.2,0-0.5,0.1-0.6c0,0,0.1-0.1,0-0.2c-0.1-0.1-0.2-0.1-0.3-0.1c0,0-0.1,0-0.1,0C22,1.6,22,2,22,2.3c-0.1-0.1-0.1-0.2-0.2-0.2
	c0-0.1,0-0.2-0.1-0.2c0-0.1,0-0.3-0.2-0.3c0,0-0.1,0-0.1,0c-0.2,0.1-0.3,0.2-0.3,0.3c-0.1,0.3,0.2,0.7,0.4,1c0,0,0,0.1,0.1,0.1
	c0,0,0,0,0,0c-0.4,0.1-0.6-0.2-0.8-0.3c-0.1-0.1-0.1-0.1-0.2-0.1c-0.1,0-0.1,0-0.2,0.1c-0.1,0.1-0.1,0.2,0,0.3c0,0,0,0,0,0
	c0,0,0,0,0,0.1c0.1,0.4,0.4,0.5,0.6,0.7c0.2,0.1,0.3,0.2,0.4,0.4c0,0.1,0,0.2-0.5,0.8l-0.1,0.1c-0.1,0.2-0.2,0.4-0.3,0.7
	c0,0.1-0.1,0.3-0.1,0.3c-0.2,0-0.9-0.6-0.9-0.8c0-0.3-0.4-1.5-0.6-1.8C18.8,3,17.5,1,16.1,1c-0.1,0-0.2,0-0.3,0
	c-0.7,0.2-1.2,0.8-1.6,1.3c-0.1,0.2-0.3,0.3-0.4,0.5c0,0,0,0,0,0l-0.3,0.6C13.3,3.8,13,4.7,13,5.2c-0.3,0.2-0.6,0.5-0.8,0.7
	C12.1,6,12.1,6.1,12,6.1C12,6,12,5.9,11.9,5.8c-0.1-0.3-0.1-0.6-0.2-0.8c0,0-0.3-0.7-0.6-1c0.1-0.1,0.2-0.1,0.3-0.2
	c0.2-0.1,0.4-0.3,0.6-0.5c0,0,0,0,0,0c0-0.1,0-0.2,0-0.3c-0.1-0.1-0.2-0.2-0.3-0.2c-0.1,0-0.2,0-0.3,0.1c-0.1,0-0.2,0.1-0.4,0.1
	c0,0,0,0,0-0.1l0,0c0.1-0.2,0.3-0.4,0.3-0.7c0.1-0.1,0.1-0.2,0.1-0.2c0-0.2-0.2-0.4-0.4-0.4c-0.1,0-0.2,0.1-0.2,0.1
	c-0.1,0.3-0.2,0.4-0.3,0.6c0-0.3,0-0.6-0.2-0.9c-0.1-0.2-0.5-0.1-0.5,0.2c0,0.1,0.1,0.4,0,0.7C9.8,2,9.6,1.8,9.4,1.5
	c0,0-0.1,0-0.1,0C9,1.5,9,1.6,9,1.7c0,0.2,0.1,0.4,0.2,0.5c0,0,0.1,0.1,0.1,0.1c0,0.1,0,0.1,0,0.2c0,0.3,0,0.7,0.1,1
	C9.4,3.8,9.4,4,9.4,4.2c0,0.2,0,0.3,0,0.5l0,0.2c0,0.3,0.1,0.6,0.1,1c0,0.3,0.5,1.3,0.6,1.4c0,0,0,0,0,0c0,0,0.3,0.3,0.9,0.5
	C11.3,8,11.6,8,11.8,8c-0.1,0.2-0.2,0.4-0.3,0.6c-0.1,0.4-0.1,0.9-0.2,1c-0.1,0.4-0.1,0.8,0,1.2l0,0.2c0,0.9,0.2,1.6,0.5,2.4
	c-0.7,0.8-1.4,1.9-1.6,2.3c-0.2,0.5-0.5,1-0.5,1l0,0c-0.3,0.5-0.4,1.1-0.4,1.6c0,0.2,0,0.4-0.1,0.6c-0.2,0.9,0.3,1.7,0.8,2.4
	l0.1,0.4c0.6,1.4,1.3,2.3,2.1,3.3c0.1,0.2,0.3,0.4,0.4,0.6l0.1,0.1c0.3,0.3,0.5,0.5,0.5,0.5c-0.4,0.4-1,0.7-1.6,1
	c-0.2,0.1-0.4,0.2-0.6,0.3c-0.5,0.3-1,0.5-1.7,0.8c-0.4,0.2-0.6,0.5-0.9,0.9c-0.1,0.3-0.3,0.7-0.1,1c0.1,0.1,0.2,0.2,0.3,0.2
	c0,0.2,0.1,0.3,0.3,0.4c0,0,0.1,0,0.1,0c0,0,0,0,0.1,0C9.3,31,9.4,31,9.4,31c0.2,0,0.3-0.2,0.3-0.3c0,0,0,0,0-0.1
	c0.2,0,0.3-0.1,0.3-0.2c0-0.1,0-0.1,0-0.2c0,0.2,0,0.3,0.1,0.5c0,0,0.1,0.1,0.1,0.1c0.1,0,0.1,0,0.1-0.1c0.1-0.1,0.2-0.3,0.3-0.4
	c0,0.1,0,0.2,0.1,0.3c0,0,0.1,0.1,0.1,0.1c0.1,0,0.1,0,0.1,0c0.3-0.3,0.4-0.6,0.6-0.9c0.1-0.1,0.2-0.2,0.3-0.3
	c0.1,0,0.2-0.1,0.3-0.1c0.2-0.1,0.5-0.2,0.8-0.4c0.4-0.3,0.7-0.7,1-1.1c0.3-0.3,0.5-0.7,0.8-1c0.4-0.3,0.4-0.9,0.2-1.2
	c0-0.2-0.1-0.4-0.2-0.6c-0.1-0.2-0.1-0.4-0.2-0.6l-0.1-0.3c-0.3-1.7-0.7-3.4-1.6-4.9c0.6-0.3,1.1-0.7,1.6-1.3c0,0,0.8-1.1,1.3-1.6
	c0,0,0.1,0,0.2,0c0.3,0.4,0.5,0.7,0.8,1l0,0.1c0,0,0,0,0,0.1c0.7,0.7,1.4,1.3,2.2,1.7L19,19.7c0,0,0,0,0,0c-0.8,1.4-1.1,2.8-1.4,4.3
	c0,0.2-0.1,0.4-0.1,0.6c0,0.2-0.1,0.4-0.1,0.6c-0.1,0.2-0.1,0.4-0.2,0.6c-0.1,0.3-0.2,0.9,0.1,1.3c0,0,0,0,0,0
	c0.2,0.2,0.5,0.4,0.7,0.6c0.1,0.1,0.2,0.3,0.3,0.4c0.2,0.3,0.3,0.5,0.6,0.7c0.3,0.2,0.5,0.3,0.8,0.4l0.2,0.1
	c0.2,0.1,0.4,0.3,0.5,0.5c0.1,0.1,0.1,0.2,0.1,0.2c0.1,0.1,0.1,0.3,0.4,0.4c0.1,0,0.2,0,0.2-0.1c0-0.1,0.1-0.1,0.1-0.2
	c0.1,0.1,0.2,0.3,0.3,0.4c0,0,0.1,0.1,0.1,0c0.1,0,0.1,0,0.1-0.1c0.1-0.2,0.1-0.4,0-0.6c0.2,0.2,0.3,0.5,0.4,0.8
	c0,0.1,0.1,0.1,0.2,0.1c0,0,0,0,0,0c0,0,0.1,0,0.1,0c0.1,0,0.1,0,0.2-0.1c0,0,0,0,0.1,0c0,0,0.1,0,0.1,0c0.1-0.1,0.1-0.1,0.1-0.2
	c0,0,0-0.1,0-0.1c0,0,0-0.1,0-0.1c0,0,0.1,0,0.1,0c0.1-0.1,0.2-0.2,0.3-0.4c0.1-0.3,0-0.5-0.1-0.8c-0.4-0.7-1.1-0.9-1.7-1.2
	c-0.3-0.1-0.5-0.2-0.8-0.3c-0.2-0.1-0.5-0.4-0.7-0.6c-0.3-0.3-0.6-0.5-1-0.6c-0.2-0.1-0.5-0.3-0.6-0.3c0-0.2,0.8-1.2,1.2-1.7
	c0.2-0.2,0.4-0.4,0.5-0.6l0.1-0.1c0,0,0,0,0,0c0.1-0.2,0.3-0.4,0.4-0.7c0.3-0.4,0.5-0.9,0.7-1.4l0.1-0.1c0,0,0,0,0-0.1
	c0.1-0.3,0.2-0.5,0.4-0.8c0.1-0.1,0.2-0.3,0.2-0.4c0.1-0.3,0.2-0.6,0.2-0.9c0.1-1.2-0.2-2.5-0.9-3.6l-0.1-0.1
	c-0.3-0.7-0.7-1.2-1.2-1.8c-0.1-0.1-0.1-0.2-0.2-0.3c0.1-0.2,0.2-0.4,0.2-0.6c0.4-1,0.8-2,0.7-3.1l-0.3-1.4C20.9,8.2,20.8,8,20.8,8
	c0.1,0,0.3,0,0.4,0c0.1,0,0.1,0,0.2,0c0.3,0,0.9-0.4,1-0.5c0.1-0.1,0.1-0.2,0.2-0.4c0-0.1,0-0.1,0.1-0.1C22.8,6.6,23,6.1,23,6
	c0.1-0.3,0.1-1,0.1-1.1l0-0.3c0-0.2,0-0.5,0.1-0.8c0.1-0.3,0.1-0.6,0.1-0.8c0-0.2,0-0.5,0-0.7C23.4,2.3,23.4,2.3,23.5,2.2z"/>
</svg>
