<?xml version="1.0" encoding="utf-8"?>
<!-- Generator: Adobe Illustrator 25.4.1, SVG Export Plug-In . SVG Version: 6.00 Build 0)  -->
<svg version="1.1" id="maize" xmlns="http://www.w3.org/2000/svg" xmlns:xlink="http://www.w3.org/1999/xlink" x="0px" y="0px"
	 viewBox="0 0 32 32" style="enable-background:new 0 0 32 32;" xml:space="preserve">
<g>
	<path d="M16.3,8.3C17.9,3.4,17.5,1,15.4,2c0.6-0.5,2.3-1.5,2.9-0.8c0.2,0.3,1,1.7,0.8,4.6C17.7,6.5,17.4,6.9,16.3,8.3z"/>
	<path d="M21.8,5.6c0,0,1.2-1.5,3.3-2.8c0,0-1.7,2.7-1.9,4.8l-0.1,0.2C22.7,5.3,21.8,5.6,21.8,5.6"/>
	<path d="M16.7,9.9c0.2-0.2,0.2-0.4-0.1-0.6c-0.2-0.1-0.2-0.2-0.3-0.2c0,0-0.1-0.1-0.3,0.1c-0.2,0.1-0.3,0.2-0.2,0.3
		c0,0.1,0.5,0.4,0.5,0.5C16.4,10.1,16.6,10,16.7,9.9z"/>
	<path d="M17.5,9c0.1-0.2,0.1-0.4-0.2-0.6c-0.2-0.1-0.2-0.1-0.3-0.1c0,0-0.1,0-0.3,0.2c-0.1,0.2-0.2,0.3-0.2,0.4
		C16.5,9,17,9.2,17,9.2C17.2,9.2,17.4,9.1,17.5,9z"/>
	<path d="M18.1,8.2C18.2,8,18.3,7.8,18,7.6c-0.1-0.1-0.2-0.1-0.3-0.1c0,0-0.1,0-0.3,0.2c-0.2,0.2-0.2,0.2-0.2,0.4
		c0,0.1,0.4,0.4,0.5,0.4C17.8,8.4,18,8.3,18.1,8.2z"/>
	<path d="M18.7,7.4c0.1-0.2,0.1-0.4-0.1-0.5c-0.1-0.1-0.2-0.1-0.2-0.1s-0.1,0-0.2,0.2C18.1,7.1,18,7.1,18,7.3c0,0.1,0.4,0.3,0.4,0.3
		C18.5,7.6,18.6,7.5,18.7,7.4z"/>
	<path d="M19.3,7c0.1-0.1,0.2-0.3,0-0.5c-0.1-0.1-0.1-0.2-0.2-0.2c0,0-0.1-0.1-0.3,0c-0.1,0.1-0.2,0.1-0.2,0.2C18.7,6.7,19,7,19,7.1
		C19,7.1,19.2,7.1,19.3,7z"/>
	<path d="M19.8,6.3c0.1-0.1,0.1-0.3,0-0.4s-0.1-0.1-0.1-0.1s-0.1,0-0.2,0.1s-0.1,0.2-0.1,0.2c0,0.1,0.2,0.2,0.3,0.2
		C19.6,6.4,19.7,6.4,19.8,6.3z"/>
	<path d="M20.4,6c0.1-0.1,0.1-0.2-0.1-0.3c-0.1,0-0.1-0.1-0.1,0c0,0,0,0-0.1,0.1C20,5.9,20,6,20,6c0,0.1,0.2,0.1,0.2,0.1
		C20.3,6.2,20.3,6.1,20.4,6z"/>
	<path d="M22,9.2C22.1,9,22.3,8.9,22.5,9c0.1,0.1,0.2,0.1,0.2,0.1s0.1,0.1,0,0.3s-0.1,0.3-0.2,0.3S22.1,9.5,22,9.5
		C22,9.6,21.9,9.4,22,9.2z"/>
	<path d="M22.1,8.6c0-0.2,0.1-0.3,0.4-0.3c0.1,0,0.2,0,0.2,0.1c0,0,0.1,0,0.1,0.3c0,0.2,0,0.3-0.1,0.3c-0.1,0.1-0.5,0-0.5,0
		C22.1,8.9,22,8.7,22.1,8.6z"/>
	<path d="M22.4,7.8c0.1-0.1,0.2-0.2,0.3-0.1c0.1,0,0.1,0.1,0.1,0.1s0.1,0,0,0.2c0,0.1-0.1,0.2-0.1,0.2c-0.1,0-0.3-0.1-0.3-0.1
		C22.4,8,22.4,7.9,22.4,7.8z"/>
	<path d="M17.1,12.4c0.1-0.2,0.1-0.5-0.4-0.8c-0.3-0.1-0.4-0.2-0.5-0.2s-0.2-0.1-0.4,0.2c-0.2,0.2-0.3,0.3-0.2,0.5s0.8,0.5,0.9,0.6
		C16.8,12.7,17,12.6,17.1,12.4z"/>
	<path d="M17.7,11.3c0.1-0.2,0.1-0.5-0.4-0.8c-0.3-0.1-0.4-0.2-0.5-0.2s-0.2-0.1-0.4,0.2c-0.2,0.2-0.3,0.3-0.2,0.5
		c0.1,0.2,0.8,0.5,0.9,0.6C17.4,11.6,17.6,11.5,17.7,11.3z"/>
	<path d="M18.4,10.3c0.1-0.2,0-0.4-0.4-0.6c-0.2-0.1-0.3-0.2-0.4-0.2s-0.2,0-0.3,0.2c-0.1,0.2-0.2,0.3-0.1,0.4
		c0.1,0.1,0.7,0.4,0.8,0.4C18.1,10.6,18.3,10.5,18.4,10.3z"/>
	<path d="M18.9,9.4C19,9.2,19,9,18.6,8.8c-0.2-0.1-0.3-0.2-0.4-0.2S18,8.5,17.9,8.8c-0.1,0.2-0.2,0.3-0.1,0.4
		c0.1,0.1,0.7,0.4,0.7,0.4C18.6,9.6,18.8,9.6,18.9,9.4z"/>
	<path d="M19.6,8.5c0.1-0.2,0.1-0.4-0.3-0.6c-0.2-0.1-0.3-0.2-0.4-0.1c-0.1,0-0.2,0-0.3,0.2c-0.1,0.2-0.2,0.3-0.1,0.4
		c0.1,0.1,0.7,0.4,0.7,0.4C19.3,8.7,19.5,8.7,19.6,8.5z"/>
	<path d="M20.2,7.8c0.1-0.2,0.2-0.4-0.1-0.6C19.9,7.1,19.9,7,19.8,7c0,0-0.1-0.1-0.3,0.1c-0.1,0.1-0.2,0.2-0.2,0.3
		c0,0.1,0.5,0.4,0.5,0.4C19.9,8,20,7.9,20.2,7.8z"/>
	<path d="M20.7,7c0.1-0.2,0.1-0.3-0.2-0.5c-0.2-0.1-0.2-0.1-0.3-0.2c0,0-0.1-0.1-0.3,0.1c-0.1,0.1-0.2,0.2-0.1,0.3
		c0.1,0.1,0.5,0.4,0.6,0.4C20.5,7.2,20.6,7.1,20.7,7z"/>
	<path d="M21.1,6.4C21.2,6.2,21.2,6.1,21,6c-0.1-0.1-0.2-0.1-0.2-0.1s-0.1,0-0.2,0.1s-0.2,0.2-0.1,0.2c0,0.1,0.3,0.3,0.4,0.3
		C20.9,6.5,21,6.5,21.1,6.4z"/>
	<path d="M21.5,5.9c0.1-0.1,0-0.2-0.1-0.3c-0.1,0-0.1-0.1-0.1-0.1s-0.1,0-0.1,0.1c-0.1,0.1-0.1,0.1-0.1,0.2S21.4,6,21.4,6
		S21.5,6,21.5,5.9z"/>
	<path d="M21.8,6.8c0.1-0.1,0.2-0.2,0.4-0.1c0.1,0.1,0.2,0.1,0.2,0.1s0.1,0.1,0,0.2c0,0.1-0.1,0.2-0.1,0.2c-0.1,0-0.4-0.2-0.4-0.2
		C21.8,7,21.8,6.9,21.8,6.8z"/>
	<path d="M18.7,13.5c0.1-0.2,0.1-0.5-0.5-0.8c-0.3-0.2-0.4-0.2-0.5-0.3c-0.1,0-0.2-0.1-0.4,0.2c-0.2,0.2-0.3,0.3-0.2,0.5
		c0.1,0.2,0.9,0.6,1,0.6C18.3,13.8,18.6,13.7,18.7,13.5z"/>
	<path d="M21.3,10.4c0,0-0.1-0.1-0.3-0.2c-0.4-0.2-0.6-0.1-0.7,0.1c0-0.1-0.1-0.3-0.4-0.4c-0.3-0.1-0.4-0.2-0.4-0.2
		c-0.1,0-0.2-0.1-0.4,0.1C19,9.9,18.9,10,19,10.1c0.1,0.2,0.8,0.5,0.9,0.5s0.3,0,0.4-0.2c0,0.1,0,0.1,0.1,0.2
		c0.1,0.1,0.6,0.4,0.8,0.4c0.2,0,0.2-0.1,0.3-0.3C21.5,10.5,21.4,10.4,21.3,10.4z"/>
	<path d="M21.8,9.4c0,0-0.1-0.1-0.3-0.2C21.2,9,21,9,20.9,9.2c-0.1-0.1-0.2-0.2-0.3-0.3c-0.2-0.1-0.3-0.2-0.4-0.2S20,8.6,19.9,8.9
		c-0.1,0.2-0.2,0.3-0.1,0.4c0.1,0.1,0.7,0.5,0.8,0.5c0.1,0,0.2,0,0.3-0.1c0,0,0,0,0,0.1c0.1,0.1,0.6,0.4,0.7,0.4
		c0.2,0,0.2-0.1,0.3-0.3C21.9,9.5,21.8,9.4,21.8,9.4z"/>
	<path d="M21.9,8.3c0,0-0.1-0.1-0.3-0.1c-0.2-0.1-0.3-0.1-0.4,0c0-0.1-0.1-0.2-0.3-0.2c-0.2-0.1-0.3-0.1-0.3-0.1s-0.1,0-0.3,0.2
		c-0.1,0.2-0.2,0.3-0.1,0.4c0.1,0.1,0.6,0.4,0.7,0.4c0,0,0.1,0,0.2-0.1v0.1c0.1,0,0.5,0.3,0.6,0.2c0.1,0,0.1-0.1,0.2-0.3
		C22,8.4,21.9,8.3,21.9,8.3z"/>
	<path d="M22.3,7.6c0,0-0.1-0.1-0.3-0.2c-0.2-0.1-0.4-0.1-0.5,0c0-0.1-0.1-0.1-0.2-0.2C21.2,7.1,21.1,7,21.1,7S21,7,20.8,7.1
		c-0.1,0.1-0.2,0.2-0.1,0.3c0,0.1,0.5,0.3,0.6,0.4c0,0,0.1,0,0.2-0.1c0,0,0,0,0,0.1c0.1,0,0.5,0.3,0.6,0.3s0.1-0.1,0.2-0.3
		C22.4,7.6,22.3,7.6,22.3,7.6z"/>
	<path d="M21.8,6.8c0.1-0.1,0-0.3-0.2-0.4c-0.1-0.1-0.2-0.1-0.2-0.1s-0.1,0-0.2,0.1s-0.1,0.2-0.1,0.3c0,0.1,0.4,0.2,0.5,0.3
		C21.6,7,21.7,7,21.8,6.8z"/>
	<path d="M22.1,6.5c0.1-0.1,0.1-0.2-0.1-0.3C22,6,21.9,6,21.9,6s-0.1,0-0.2,0.1s-0.1,0.1-0.1,0.2s0.3,0.3,0.3,0.3
		C22,6.6,22.1,6.5,22.1,6.5z"/>
	<path d="M15.5,15.5c0.1-0.2,0.1-0.5-0.5-0.8c-0.3-0.2-0.4-0.2-0.5-0.3c-0.1,0-0.2-0.1-0.4,0.2c-0.2,0.2-0.3,0.3-0.2,0.5
		s0.9,0.6,1,0.6C15.1,15.7,15.4,15.7,15.5,15.5z"/>
	<path d="M16.1,14.4c0.1-0.2,0.1-0.5-0.5-0.8c-0.3-0.2-0.4-0.2-0.5-0.3c-0.1,0-0.2-0.1-0.4,0.2c-0.2,0.2-0.3,0.3-0.2,0.5
		s0.9,0.6,1,0.6C15.8,14.7,16,14.6,16.1,14.4z"/>
	<path d="M16.6,13.4c0.1-0.2,0.1-0.4-0.4-0.7c-0.3-0.1-0.4-0.2-0.4-0.2c-0.1,0-0.2-0.1-0.4,0.1c-0.1,0.2-0.2,0.2-0.1,0.4
		c0.1,0.2,0.8,0.5,0.9,0.5C16.3,13.6,16.5,13.6,16.6,13.4z"/>
	<path d="M18,14.4c0.1-0.2,0.1-0.4-0.4-0.7c-0.3-0.1-0.4-0.2-0.4-0.2c-0.1,0-0.2-0.1-0.4,0.1c-0.1,0.2-0.2,0.2-0.1,0.4
		s0.8,0.5,0.9,0.5C17.7,14.6,17.9,14.6,18,14.4z"/>
	<path d="M13.8,18.5c0.1-0.2,0.1-0.5-0.5-0.8c-0.3-0.2-0.4-0.2-0.5-0.3c-0.1,0-0.2-0.1-0.4,0.2c-0.2,0.2-0.3,0.3-0.2,0.5
		s0.9,0.6,1,0.6C13.4,18.7,13.7,18.7,13.8,18.5z"/>
	<path d="M14.4,17.4c0.1-0.2,0.1-0.5-0.5-0.8c-0.3-0.2-0.4-0.2-0.5-0.3c-0.1,0-0.2-0.1-0.4,0.2c-0.2,0.2-0.3,0.3-0.2,0.5
		s0.9,0.6,1,0.6C14,17.7,14.3,17.6,14.4,17.4z"/>
	<path d="M14.9,16.4c0.1-0.2,0.1-0.4-0.4-0.7c-0.3-0.1-0.4-0.2-0.4-0.2c-0.1,0-0.2-0.1-0.4,0.1c-0.1,0.2-0.2,0.2-0.1,0.4
		c0.1,0.2,0.8,0.5,0.9,0.5C14.5,16.6,14.8,16.5,14.9,16.4z"/>
	<path d="M15.3,19.6c0.1-0.2,0.1-0.5-0.5-0.8c-0.3-0.2-0.4-0.2-0.5-0.3c-0.1,0-0.2-0.1-0.4,0.2c-0.2,0.2-0.3,0.3-0.2,0.5
		s0.9,0.6,1,0.6C14.9,19.8,15.1,19.8,15.3,19.6z"/>
	<path d="M16.3,17.4c0.1-0.2,0.1-0.4-0.4-0.7c-0.3-0.1-0.4-0.2-0.4-0.2c-0.1,0-0.2-0.1-0.4,0.1C15,16.8,14.9,16.8,15,17
		s0.8,0.5,0.9,0.5C16,17.6,16.2,17.6,16.3,17.4z"/>
	<path d="M12.7,20.4c0.1-0.2,0.1-0.5-0.5-0.8c-0.3-0.2-0.4-0.2-0.5-0.3c-0.1,0-0.2-0.1-0.4,0.2c-0.2,0.2-0.3,0.3-0.2,0.5
		s0.9,0.6,1,0.6C12.3,20.7,12.6,20.6,12.7,20.4z"/>
	<path d="M13.1,19.4c0.1-0.2,0.1-0.4-0.4-0.7c-0.3-0.1-0.4-0.2-0.4-0.2c-0.1,0-0.2-0.1-0.4,0.1c-0.1,0.2-0.2,0.2-0.1,0.4
		c0.1,0.2,0.8,0.5,0.9,0.5C12.8,19.6,13,19.6,13.1,19.4z"/>
	<path d="M14.6,20.4c0.1-0.2,0.1-0.4-0.4-0.7c-0.3-0.1-0.4-0.2-0.4-0.2c-0.1,0-0.2-0.1-0.4,0.1c-0.1,0.2-0.2,0.2-0.1,0.4
		c0.1,0.2,0.8,0.5,0.9,0.5C14.3,20.6,14.5,20.6,14.6,20.4z"/>
	<g>
		<path d="M18.8,12.7c0.1,0,0.4,0,0.5-0.2s0.1-0.5-0.5-0.8c-0.3-0.2-0.4-0.2-0.5-0.3c-0.1,0-0.2-0.1-0.4,0.2
			c-0.2,0.2-0.3,0.3-0.2,0.5C17.9,12.2,18.7,12.6,18.8,12.7z"/>
		<path d="M21.4,14.9c0.2-0.6,0.5-1.3,0.7-1.9c0.2-0.5,0.5-1.6,0.9-2.2c0.3-0.3,0.8-0.7,1.3-0.9c0,0-0.7-0.1-1.7,0.4
			c0-0.1,0-0.1-0.1-0.2c0,0-0.1-0.1-0.3-0.1c-0.3-0.1-0.4,0-0.5,0.2s0,0.4,0,0.4s0.1,0.1,0.2,0.1c-0.1,0.1-0.2,0.1-0.3,0.2
			c-0.3,0.2-0.5,0.5-0.6,0.7c0-0.1,0-0.2-0.1-0.2c0-0.1-0.1-0.1-0.3-0.3c-0.4-0.3-0.6-0.2-0.7,0c0-0.1-0.2-0.3-0.4-0.4
			c-0.3-0.1-0.4-0.2-0.4-0.2c-0.1,0-0.2-0.1-0.4,0.1c-0.1,0.2-0.2,0.2-0.1,0.4s0.8,0.5,0.9,0.5s0.3,0,0.4-0.1c0,0.1,0,0.1,0,0.1
			c0.1,0.1,0.6,0.5,0.8,0.5c0.1,0,0.2-0.1,0.2-0.2c-0.1,0.3-0.1,0.5-0.1,0.7c-0.1-0.1-0.2-0.2-0.4-0.3C20.1,12.1,20,12,19.9,12
			s-0.2-0.1-0.4,0.2c-0.2,0.2-0.3,0.3-0.2,0.5c0.1,0.2,0.8,0.5,0.9,0.6c0.1,0,0.3,0,0.5-0.2c0-0.1,0.1-0.1,0.1-0.2
			c0,0.1,0,0.1,0.1,0.1c-0.2,0.3-0.5,0.7-0.7,1c0.1-0.2,0-0.4-0.4-0.7c-0.3-0.1-0.4-0.2-0.5-0.2s-0.2-0.1-0.4,0.2
			c-0.2,0.2-0.3,0.3-0.2,0.5c0.1,0.2,0.8,0.5,0.9,0.6c0.1,0,0.3,0,0.4-0.2c-0.1,0.1-0.2,0.3-0.3,0.4c-0.1,0.1-0.1,0.2-0.2,0.3
			c0-0.1-0.1-0.3-0.4-0.5c-0.3-0.1-0.4-0.2-0.4-0.2c-0.1,0-0.2-0.1-0.4,0.1c-0.1,0.2-0.2,0.2-0.1,0.4s0.8,0.5,0.9,0.5s0.2,0,0.3,0
			c-0.1,0.2-0.2,0.3-0.3,0.5c-0.1-0.1-0.2-0.2-0.4-0.4c-0.3-0.2-0.4-0.2-0.5-0.3c-0.1,0-0.2-0.1-0.4,0.2c-0.1,0.1-0.1,0.2-0.2,0.2
			c0.1-0.2,0.1-0.5-0.5-0.8c-0.3-0.2-0.4-0.2-0.5-0.3c-0.1,0-0.2-0.1-0.4,0.2C16,14.7,15.9,14.8,16,15s0.9,0.6,1,0.6s0.4,0,0.5-0.2
			c0,0.1,0,0.1,0,0.2c0.1,0.2,0.9,0.6,1,0.6h0.1c-0.1,0.1-0.2,0.3-0.3,0.4c-0.1-0.1-0.2-0.2-0.4-0.4c-0.3-0.2-0.4-0.2-0.5-0.3
			c-0.1,0-0.2-0.1-0.4,0.2c-0.1,0.1-0.1,0.2-0.2,0.2c0.1-0.2,0.1-0.5-0.5-0.8c-0.3-0.2-0.4-0.2-0.5-0.3c-0.1,0-0.2-0.1-0.4,0.2
			c-0.2,0.2-0.3,0.3-0.2,0.5s0.9,0.6,1,0.6c0.1,0,0.4,0,0.5-0.2c0,0.1,0,0.1,0,0.2c0.1,0.2,0.9,0.6,1,0.6c-0.1,0.1-0.2,0.1-0.2,0.2
			c-0.1-0.1-0.2-0.1-0.3-0.2c-0.3-0.1-0.4-0.2-0.4-0.2c-0.1,0-0.2-0.1-0.4,0.1c-0.1,0.2-0.2,0.2-0.1,0.4c0.1,0.1,0.4,0.3,0.6,0.4
			c-0.1,0.1-0.1,0.1-0.2,0.2l0,0c-0.3-0.2-0.4-0.2-0.5-0.3c-0.1,0-0.2-0.1-0.4,0.2c-0.1,0.1-0.1,0.1-0.2,0.2
			c0.1-0.2,0.1-0.5-0.5-0.8c-0.3-0.2-0.4-0.2-0.5-0.3c-0.1,0-0.2-0.1-0.4,0.2c-0.2,0.2-0.3,0.3-0.2,0.5s0.9,0.6,1,0.6s0.3,0,0.5-0.2
			c0,0.1,0,0.1,0,0.2s0.2,0.2,0.4,0.3c-0.1,0.1-0.2,0.2-0.2,0.2c-0.1-0.1-0.2-0.1-0.3-0.1s-0.2-0.1-0.4,0.2
			c-0.2,0.2-0.3,0.3-0.2,0.5c0,0.1,0.1,0.1,0.3,0.2c-0.1,0.1-0.1,0.2-0.2,0.2h-0.1c-0.1,0-0.2-0.1-0.4,0.1c-0.1,0.2-0.2,0.2-0.1,0.4
			c0,0,0.1,0.1,0.2,0.2c0,0.1-0.1,0.2-0.1,0.3c-0.1,0-0.1-0.1-0.1-0.1c-0.1,0-0.2-0.1-0.4,0.2c-0.1,0.1-0.1,0.1-0.2,0.2
			c0.1-0.2,0.1-0.5-0.5-0.8c-0.3-0.2-0.4-0.2-0.5-0.3c-0.1,0-0.2-0.1-0.4,0.2c-0.2,0.2-0.3,0.3-0.2,0.5s0.9,0.6,1,0.6s0.3,0,0.5-0.2
			c0,0.1,0,0.1,0,0.2s0.2,0.2,0.4,0.3v0.1l-0.1,0.1c-0.1-0.1-0.2-0.1-0.2-0.1c-0.1,0-0.2-0.1-0.4,0.2c-0.1,0.1-0.1,0.1-0.2,0.2
			c0.1-0.2,0.1-0.5-0.5-0.8c-0.3-0.2-0.4-0.2-0.5-0.3c-0.1,0-0.2-0.1-0.4,0.2c0.3,0.7,0.2,0.8,0.3,0.9c0.1,0.2,0.9,0.6,1,0.6
			s0.3,0,0.5-0.2c0,0.1,0,0.1,0,0.2l0.1,0.1c-0.3,0.2-0.5,0.4-0.8,0.6l0,0c0.1-0.2,0.1-0.4-0.4-0.7c-0.3-0.1-0.4-0.2-0.4-0.2
			c-0.1,0-0.2-0.1-0.4,0.1c-0.1,0.2-0.2,0.2-0.1,0.4c0.1,0.2,0.8,0.5,0.9,0.5c0,0,0.1,0,0.2,0c-0.1,0.1-0.3,0.2-0.4,0.3
			c-0.1-0.1-0.2-0.1-0.3-0.2c-0.3-0.2-0.4-0.2-0.5-0.3c-0.1,0-0.2-0.1-0.4,0.2c-0.2,0.2-0.3,0.3-0.2,0.5c0,0.1,0.2,0.2,0.3,0.3
			c-0.4,0.1-0.8,0.3-1.1,0.5v-0.1c0.1,0,0.1-0.1,0.2-0.1c0.1-0.1,0.1-0.3,0-0.4c0-0.1,0-0.2,0-0.4v-0.1h0.1c0.1,0,0.4,0,0.5-0.2
			s0.1-0.5-0.5-0.8c0,0-0.1,0-0.1-0.1s0-0.2,0-0.3c0.2,0.1,0.5,0.3,0.6,0.3s0.3,0,0.4-0.2c0.1-0.2,0.1-0.4-0.4-0.7
			c-0.3-0.1-0.4-0.2-0.4-0.2h-0.1c0-0.2,0-0.4,0-0.5v0.1c0.1,0.2,0.9,0.6,1,0.6s0.4,0,0.5-0.2s0.1-0.5-0.5-0.8
			c-0.3-0.2-0.4-0.2-0.5-0.3c-0.1,0-0.2-0.1-0.4,0.2c-0.1,0.1-0.2,0.2-0.2,0.3c0-0.3,0.1-0.7,0.1-1c0.2,0,0.2-0.1,0.3-0.4
			s0-0.4,0-0.4L10.5,19c0-0.1,0-0.2,0-0.3c0.2,0.1,0.3,0.2,0.4,0.2c0.2,0,0.2-0.1,0.3-0.3c0.1-0.3,0-0.3,0-0.4s0.1-0.1-0.2-0.2
			c-0.1,0-0.1,0-0.1-0.1s0-0.2,0.1-0.3c0.2,0.2,0.6,0.4,0.7,0.4c0.2,0,0.2-0.1,0.3-0.4s0-0.4,0-0.4c0-0.1-0.2-0.1-0.4-0.3
			c-0.2-0.1-0.3-0.1-0.4-0.2c0-0.2,0.1-0.3,0.1-0.5c0,0.1,0,0.1,0.1,0.1c0.1,0.1,0.8,0.5,0.9,0.5c0.2,0,0.2-0.1,0.3-0.4s0-0.4,0-0.4
			c0-0.1-0.2-0.1-0.4-0.3c-0.1,0-0.1-0.1-0.2-0.1l0.5-0.1c0.2,0.1,0.3,0.2,0.4,0.2c0.2,0,0.2-0.1,0.3-0.3s0-0.3,0-0.3
			c0-0.1,0.1-0.2,0.1-0.3h0.1c0.2,0,0.2-0.1,0.3-0.4c0.1-0.3,0-0.4,0-0.4c0.1-0.1,0.1-0.2,0.2-0.3c0.1,0,0.1,0.1,0.2,0
			c0.2,0,0.2-0.1,0.3-0.4c0.1-0.3,0-0.4,0-0.4l0,0c0-0.1,0.1-0.2,0.1-0.3c0.1,0.1,0.2,0.1,0.3,0.1c0.2,0,0.2-0.1,0.3-0.3
			c0.1-0.3,0-0.3,0-0.4c0,0-0.1-0.1-0.2-0.1c0-0.1,0.1-0.1,0.1-0.2c0.1,0.1,0.3,0.2,0.3,0.2c0.2,0,0.2-0.1,0.4-0.3s0.1-0.3,0.1-0.4
			c0-0.1-0.1-0.1-0.2-0.3c-0.1-0.1-0.2-0.1-0.2-0.2c0-0.1,0.1-0.2,0.1-0.3c0.2,0.1,0.4,0.2,0.5,0.2c0.1,0,0.3-0.1,0.4-0.3
			c0.1-0.3,0.1-0.5-0.3-0.6c-0.2-0.1-0.3-0.1-0.3-0.1c0.4-1.9-0.3-4.2-0.3-4.2S14.9,7,14.4,7.9c-0.3,0.5-0.7,1.6-1.2,2.7
			c0,0,0,0,0-0.1C11.6,13.2,1.1,24.3,5.5,28c0.4,0.4,0.9,0.9,1.5,1c0.1,0,0.3,0,0.4,0c0.2,0.4,0.5,0.8,1.1,1.2
			c3.9,2.5,6.4-2.3,7.3-3.8c1.1-1.9,2.2-3.9,3.2-6c3-3.6,6.7-8,8.6-9.2C27.5,11.3,24.9,12.4,21.4,14.9z"/>
	</g>
</g>
</svg>
